<svg xmlns="http://www.w3.org/2000/svg" xmlns:xlink="http://www.w3.org/1999/xlink" contentStyleType="text/css" height="668px" preserveAspectRatio="none" style="width:1379px;height:668px;background:#FFFFFF;" version="1.1" viewBox="0 0 1379 668" width="1379px" zoomAndPan="magnify"><defs/><g><rect fill="#FFFFFF" height="482.6953" style="stroke:#181818;stroke-width:1.0;" width="10" x="17.7793" y="93.6211"/><rect fill="#FFFFFF" height="31.291" style="stroke:#181818;stroke-width:1.0;" width="10" x="228.8809" y="116.9121"/><rect fill="#FFFFFF" height="387.8223" style="stroke:#181818;stroke-width:1.0;" width="10" x="228.8809" y="179.4941"/><rect fill="#FFFFFF" height="325.2402" style="stroke:#181818;stroke-width:1.0;" width="10" x="494.1724" y="210.7852"/><rect fill="#FFFFFF" height="31.291" style="stroke:#181818;stroke-width:1.0;" width="10" x="781.854" y="242.0762"/><rect fill="#FFFFFF" height="200.0762" style="stroke:#181818;stroke-width:1.0;" width="10" x="919.0776" y="304.6582"/><rect fill="#FFFFFF" height="31.291" style="stroke:#181818;stroke-width:1.0;" width="10" x="1187.9683" y="335.9492"/><rect fill="#FFFFFF" height="31.291" style="stroke:#181818;stroke-width:1.0;" width="10" x="1187.9683" y="398.5313"/><line style="stroke:#181818;stroke-width:0.5;stroke-dasharray:5.0,5.0;" x1="22" x2="22" y1="83.6211" y2="585.3164"/><line style="stroke:#181818;stroke-width:0.5;stroke-dasharray:5.0,5.0;" x1="233.8086" x2="233.8086" y1="83.6211" y2="585.3164"/><line style="stroke:#181818;stroke-width:0.5;stroke-dasharray:5.0,5.0;" x1="498.4419" x2="498.4419" y1="83.6211" y2="585.3164"/><line style="stroke:#181818;stroke-width:0.5;stroke-dasharray:5.0,5.0;" x1="671.9028" x2="671.9028" y1="83.6211" y2="585.3164"/><line style="stroke:#181818;stroke-width:0.5;stroke-dasharray:5.0,5.0;" x1="786.2817" x2="786.2817" y1="83.6211" y2="585.3164"/><line style="stroke:#181818;stroke-width:0.5;stroke-dasharray:5.0,5.0;" x1="923.4263" x2="923.4263" y1="83.6211" y2="585.3164"/><line style="stroke:#181818;stroke-width:0.5;stroke-dasharray:5.0,5.0;" x1="1192.8237" x2="1192.8237" y1="83.6211" y2="585.3164"/><line style="stroke:#181818;stroke-width:0.5;stroke-dasharray:5.0,5.0;" x1="1324.1128" x2="1324.1128" y1="469.6328" y2="585.3164"/><text fill="#000000" font-family="sans-serif" font-size="14" lengthAdjust="spacing" textLength="29.5586" x="5" y="80.1074">User</text><ellipse cx="22.7793" cy="13.5" fill="#E2E2F0" rx="8" ry="8" style="stroke:#181818;stroke-width:0.5;"/><path d="M22.7793,21.5 L22.7793,48.5 M9.7793,29.5 L35.7793,29.5 M22.7793,48.5 L9.7793,63.5 M22.7793,48.5 L35.7793,63.5 " fill="none" style="stroke:#181818;stroke-width:0.5;"/><text fill="#000000" font-family="sans-serif" font-size="14" lengthAdjust="spacing" textLength="29.5586" x="5" y="599.4238">User</text><ellipse cx="22.7793" cy="611.4375" fill="#E2E2F0" rx="8" ry="8" style="stroke:#181818;stroke-width:0.5;"/><path d="M22.7793,619.4375 L22.7793,646.4375 M9.7793,627.4375 L35.7793,627.4375 M22.7793,646.4375 L9.7793,661.4375 M22.7793,646.4375 L35.7793,661.4375 " fill="none" style="stroke:#181818;stroke-width:0.5;"/><rect fill="#E2E2F0" height="32.6211" rx="2.5" ry="2.5" style="stroke:#181818;stroke-width:0.5;" width="66.1445" x="200.8086" y="50"/><text fill="#000000" font-family="sans-serif" font-size="14" lengthAdjust="spacing" textLength="52.1445" x="207.8086" y="72.1074">:LoginUI</text><rect fill="#E2E2F0" height="32.6211" rx="2.5" ry="2.5" style="stroke:#181818;stroke-width:0.5;" width="66.1445" x="200.8086" y="584.3164"/><text fill="#000000" font-family="sans-serif" font-size="14" lengthAdjust="spacing" textLength="52.1445" x="207.8086" y="606.4238">:LoginUI</text><rect fill="#E2E2F0" height="32.6211" rx="2.5" ry="2.5" style="stroke:#181818;stroke-width:0.5;" width="219.4609" x="389.4419" y="50"/><text fill="#000000" font-family="sans-serif" font-size="14" lengthAdjust="spacing" textLength="205.4609" x="396.4419" y="72.1074">:AuthenticationCredentialHandler</text><rect fill="#E2E2F0" height="32.6211" rx="2.5" ry="2.5" style="stroke:#181818;stroke-width:0.5;" width="219.4609" x="389.4419" y="584.3164"/><text fill="#000000" font-family="sans-serif" font-size="14" lengthAdjust="spacing" textLength="205.4609" x="396.4419" y="606.4238">:AuthenticationCredentialHandler</text><rect fill="#E2E2F0" height="32.6211" rx="2.5" ry="2.5" style="stroke:#181818;stroke-width:0.5;" width="107.3789" x="618.9028" y="50"/><text fill="#000000" font-family="sans-serif" font-size="14" lengthAdjust="spacing" textLength="93.3789" x="625.9028" y="72.1074">:AuthController</text><rect fill="#E2E2F0" height="32.6211" rx="2.5" ry="2.5" style="stroke:#181818;stroke-width:0.5;" width="107.3789" x="618.9028" y="584.3164"/><text fill="#000000" font-family="sans-serif" font-size="14" lengthAdjust="spacing" textLength="93.3789" x="625.9028" y="606.4238">:AuthController</text><rect fill="#E2E2F0" height="32.6211" rx="2.5" ry="2.5" style="stroke:#181818;stroke-width:0.5;" width="101.1445" x="736.2817" y="50"/><text fill="#000000" font-family="sans-serif" font-size="14" lengthAdjust="spacing" textLength="87.1445" x="743.2817" y="72.1074">AuthzRegistry</text><rect fill="#E2E2F0" height="32.6211" rx="2.5" ry="2.5" style="stroke:#181818;stroke-width:0.5;" width="101.1445" x="736.2817" y="584.3164"/><text fill="#000000" font-family="sans-serif" font-size="14" lengthAdjust="spacing" textLength="87.1445" x="743.2817" y="606.4238">AuthzRegistry</text><rect fill="#E2E2F0" height="32.6211" rx="2.5" ry="2.5" style="stroke:#181818;stroke-width:0.5;" width="153.3027" x="847.4263" y="50"/><text fill="#000000" font-family="sans-serif" font-size="14" lengthAdjust="spacing" textLength="139.3027" x="854.4263" y="72.1074">:AuthenticationService</text><rect fill="#E2E2F0" height="32.6211" rx="2.5" ry="2.5" style="stroke:#181818;stroke-width:0.5;" width="153.3027" x="847.4263" y="584.3164"/><text fill="#000000" font-family="sans-serif" font-size="14" lengthAdjust="spacing" textLength="139.3027" x="854.4263" y="606.4238">:AuthenticationService</text><rect fill="#E2E2F0" height="32.6211" rx="2.5" ry="2.5" style="stroke:#181818;stroke-width:0.5;" width="146.2891" x="1119.8237" y="50"/><text fill="#000000" font-family="sans-serif" font-size="14" lengthAdjust="spacing" textLength="132.2891" x="1126.8237" y="72.1074">:AuthorizationService</text><rect fill="#E2E2F0" height="32.6211" rx="2.5" ry="2.5" style="stroke:#181818;stroke-width:0.5;" width="146.2891" x="1119.8237" y="584.3164"/><text fill="#000000" font-family="sans-serif" font-size="14" lengthAdjust="spacing" textLength="132.2891" x="1126.8237" y="606.4238">:AuthorizationService</text><rect fill="#E2E2F0" height="32.6211" rx="2.5" ry="2.5" style="stroke:#181818;stroke-width:0.5;" width="97.2549" x="1276.1128" y="584.3164"/><text fill="#000000" font-family="sans-serif" font-size="14" lengthAdjust="spacing" textLength="83.2549" x="1283.1128" y="606.4238">:UserSession</text><rect fill="#FFFFFF" height="482.6953" style="stroke:#181818;stroke-width:1.0;" width="10" x="17.7793" y="93.6211"/><rect fill="#FFFFFF" height="31.291" style="stroke:#181818;stroke-width:1.0;" width="10" x="228.8809" y="116.9121"/><rect fill="#FFFFFF" height="387.8223" style="stroke:#181818;stroke-width:1.0;" width="10" x="228.8809" y="179.4941"/><rect fill="#FFFFFF" height="325.2402" style="stroke:#181818;stroke-width:1.0;" width="10" x="494.1724" y="210.7852"/><rect fill="#FFFFFF" height="31.291" style="stroke:#181818;stroke-width:1.0;" width="10" x="781.854" y="242.0762"/><rect fill="#FFFFFF" height="200.0762" style="stroke:#181818;stroke-width:1.0;" width="10" x="919.0776" y="304.6582"/><rect fill="#FFFFFF" height="31.291" style="stroke:#181818;stroke-width:1.0;" width="10" x="1187.9683" y="335.9492"/><rect fill="#FFFFFF" height="31.291" style="stroke:#181818;stroke-width:1.0;" width="10" x="1187.9683" y="398.5313"/><polygon fill="#181818" points="216.8809,112.9121,226.8809,116.9121,216.8809,120.9121,220.8809,116.9121" style="stroke:#181818;stroke-width:1.0;"/><line style="stroke:#181818;stroke-width:1.0;" x1="27.7793" x2="222.8809" y1="116.9121" y2="116.9121"/><text fill="#000000" font-family="sans-serif" font-size="13" lengthAdjust="spacing" textLength="115.6289" x="34.7793" y="111.6494">asks to authenticate</text><polygon fill="#181818" points="38.7793,144.2031,28.7793,148.2031,38.7793,152.2031,34.7793,148.2031" style="stroke:#181818;stroke-width:1.0;"/><line style="stroke:#181818;stroke-width:1.0;stroke-dasharray:2.0,2.0;" x1="32.7793" x2="232.8809" y1="148.2031" y2="148.2031"/><text fill="#000000" font-family="sans-serif" font-size="13" lengthAdjust="spacing" textLength="116.3398" x="44.7793" y="142.9404">requests credentials</text><polygon fill="#181818" points="216.8809,175.4941,226.8809,179.4941,216.8809,183.4941,220.8809,179.4941" style="stroke:#181818;stroke-width:1.0;"/><line style="stroke:#181818;stroke-width:1.0;" x1="27.7793" x2="222.8809" y1="179.4941" y2="179.4941"/><text fill="#000000" font-family="sans-serif" font-size="13" lengthAdjust="spacing" textLength="182.1016" x="34.7793" y="174.2314">enters username and password</text><polygon fill="#181818" points="482.1724,206.7852,492.1724,210.7852,482.1724,214.7852,486.1724,210.7852" style="stroke:#181818;stroke-width:1.0;"/><line style="stroke:#181818;stroke-width:1.0;" x1="238.8809" x2="488.1724" y1="210.7852" y2="210.7852"/><text fill="#000000" font-family="sans-serif" font-size="13" lengthAdjust="spacing" textLength="236.2915" x="245.8809" y="205.5225">authenticated(username, password, role)</text><polygon fill="#181818" points="769.854,238.0762,779.854,242.0762,769.854,246.0762,773.854,242.0762" style="stroke:#181818;stroke-width:1.0;"/><line style="stroke:#181818;stroke-width:1.0;" x1="504.1724" x2="775.854" y1="242.0762" y2="242.0762"/><text fill="#000000" font-family="sans-serif" font-size="13" lengthAdjust="spacing" textLength="132.958" x="511.1724" y="236.8135">authenticationService()</text><polygon fill="#181818" points="515.1724,269.3672,505.1724,273.3672,515.1724,277.3672,511.1724,273.3672" style="stroke:#181818;stroke-width:1.0;"/><line style="stroke:#181818;stroke-width:1.0;stroke-dasharray:2.0,2.0;" x1="509.1724" x2="785.854" y1="273.3672" y2="273.3672"/><text fill="#000000" font-family="sans-serif" font-size="13" lengthAdjust="spacing" textLength="68.6499" x="521.1724" y="268.1045">authService</text><polygon fill="#181818" points="907.0776,300.6582,917.0776,304.6582,907.0776,308.6582,911.0776,304.6582" style="stroke:#181818;stroke-width:1.0;"/><line style="stroke:#181818;stroke-width:1.0;" x1="504.1724" x2="913.0776" y1="304.6582" y2="304.6582"/><text fill="#000000" font-family="sans-serif" font-size="13" lengthAdjust="spacing" textLength="229.0615" x="511.1724" y="299.3955">authenticate(username, password, role)</text><polygon fill="#181818" points="1175.9683,331.9492,1185.9683,335.9492,1175.9683,339.9492,1179.9683,335.9492" style="stroke:#181818;stroke-width:1.0;"/><line style="stroke:#181818;stroke-width:1.0;" x1="929.0776" x2="1181.9683" y1="335.9492" y2="335.9492"/><text fill="#000000" font-family="sans-serif" font-size="13" lengthAdjust="spacing" textLength="239.8906" x="936.0776" y="330.6865">validateCredentials(username, password)</text><polygon fill="#181818" points="940.0776,363.2402,930.0776,367.2402,940.0776,371.2402,936.0776,367.2402" style="stroke:#181818;stroke-width:1.0;"/><line style="stroke:#181818;stroke-width:1.0;stroke-dasharray:2.0,2.0;" x1="934.0776" x2="1191.9683" y1="367.2402" y2="367.2402"/><text fill="#000000" font-family="sans-serif" font-size="13" lengthAdjust="spacing" textLength="26.7363" x="946.0776" y="361.9775">valid</text><polygon fill="#181818" points="1175.9683,394.5313,1185.9683,398.5313,1175.9683,402.5313,1179.9683,398.5313" style="stroke:#181818;stroke-width:1.0;"/><line style="stroke:#181818;stroke-width:1.0;" x1="929.0776" x2="1181.9683" y1="398.5313" y2="398.5313"/><text fill="#000000" font-family="sans-serif" font-size="13" lengthAdjust="spacing" textLength="161.8398" x="936.0776" y="393.2686">validateUserRole(user, role)</text><polygon fill="#181818" points="940.0776,425.8223,930.0776,429.8223,940.0776,433.8223,936.0776,429.8223" style="stroke:#181818;stroke-width:1.0;"/><line style="stroke:#181818;stroke-width:1.0;stroke-dasharray:2.0,2.0;" x1="934.0776" x2="1191.9683" y1="429.8223" y2="429.8223"/><text fill="#000000" font-family="sans-serif" font-size="13" lengthAdjust="spacing" textLength="60.709" x="946.0776" y="424.5596">authorized</text><polygon fill="#181818" points="1264.1128,457.1133,1274.1128,461.1133,1264.1128,465.1133,1268.1128,461.1133" style="stroke:#181818;stroke-width:1.0;"/><line style="stroke:#181818;stroke-width:1.0;stroke-dasharray:2.0,2.0;" x1="929.0776" x2="1270.1128" y1="461.1133" y2="461.1133"/><text fill="#000000" font-family="sans-serif" font-size="13" lengthAdjust="spacing" textLength="105.479" x="936.0776" y="455.8506">create(user, roles)</text><rect fill="#E2E2F0" height="32.6211" rx="2.5" ry="2.5" style="stroke:#181818;stroke-width:0.5;" width="97.2549" x="1276.1128" y="437.8223"/><text fill="#000000" font-family="sans-serif" font-size="14" lengthAdjust="spacing" textLength="83.2549" x="1283.1128" y="459.9297">:UserSession</text><polygon fill="#181818" points="515.1724,500.7344,505.1724,504.7344,515.1724,508.7344,511.1724,504.7344" style="stroke:#181818;stroke-width:1.0;"/><line style="stroke:#181818;stroke-width:1.0;stroke-dasharray:2.0,2.0;" x1="509.1724" x2="923.0776" y1="504.7344" y2="504.7344"/><text fill="#000000" font-family="sans-serif" font-size="13" lengthAdjust="spacing" textLength="137.2998" x="521.1724" y="499.4717">Optional&lt;UserSession&gt;</text><polygon fill="#181818" points="249.8809,532.0254,239.8809,536.0254,249.8809,540.0254,245.8809,536.0254" style="stroke:#181818;stroke-width:1.0;"/><line style="stroke:#181818;stroke-width:1.0;stroke-dasharray:2.0,2.0;" x1="243.8809" x2="498.1724" y1="536.0254" y2="536.0254"/><text fill="#000000" font-family="sans-serif" font-size="13" lengthAdjust="spacing" textLength="78.0635" x="255.8809" y="530.7627">authenticated</text><polygon fill="#181818" points="38.7793,563.3164,28.7793,567.3164,38.7793,571.3164,34.7793,567.3164" style="stroke:#181818;stroke-width:1.0;"/><line style="stroke:#181818;stroke-width:1.0;stroke-dasharray:2.0,2.0;" x1="32.7793" x2="232.8809" y1="567.3164" y2="567.3164"/><text fill="#000000" font-family="sans-serif" font-size="13" lengthAdjust="spacing" textLength="153.8989" x="44.7793" y="562.0537">displays success message</text><!--SRC=[hLN1Rk903BtdAonEfIe_W5P8YA852RLIKlRG2x8IRpeY9DdnG4M_VZs1JZAJqDLgTmwH8Eyzsy_sXFUgh57Z0MfCzvXJOiu5WQRKO9aN5B43y1jcrRigS_Y91LCKOMeg3QCjanu1CcoJPHm9rgXKrLWQ64qtLQxAxVhoUXsyd1_D6vNo1nfLbGjDcVs5nGhBhBXgBkBbusurVthSzBGjVL6LHbU5Gx_46nzbGHynvOgDFZUO-VPbzRgBbz-_p2OXVL8fESOk-R4O85HQVGpYNmS8rgY4c0NUu99bagoVdneZrGaDNHoCx1CcCp4CfeBRCvWAi4sFEeHr1784ER44IvnAytuTYGr3wYpbAACkoOyX6D8CHycln0E1-2_ZmFnUwMmmriphYysoarrszodqu5GUGBf4uqR02NgzXUlnX2MGQvSVfRNyRkouJhdjCNHEApKPhk2gw4WTp_gANsPikn_OyWTNUlat0nIct-WwLov1JbYeJ5Zj0l50hB6d5TGLXchTQkBvHJNnF7ZFfr3lh-gmQnABBqqHeKN_cZnUbvR-JmKYVjtY-tjHbuNxxFGbSHxV9WO3-5pReSRYM-UQcDqQHI-_6vFeRf3kRaQ1M6y71-wJJ75Tu9c1ZsagYS517lAf2E-Ktm00]--></g></svg>