<svg xmlns="http://www.w3.org/2000/svg" xmlns:xlink="http://www.w3.org/1999/xlink" contentStyleType="text/css" height="1289px" preserveAspectRatio="none" style="width:1585px;height:1289px;background:#FFFFFF;" version="1.1" viewBox="0 0 1585 1289" width="1585px" zoomAndPan="magnify"><defs/><g><rect fill="#FFFFFF" height="1103.2344" style="stroke:#181818;stroke-width:1.0;" width="10" x="59.2344" y="93.6211"/><rect fill="#FFFFFF" height="495.3652" style="stroke:#181818;stroke-width:1.0;" width="10" x="189.7202" y="143.2031"/><rect fill="#FFFFFF" height="464.0742" style="stroke:#181818;stroke-width:1.0;" width="10" x="339.7681" y="174.4941"/><rect fill="#FFFFFF" height="424.7832" style="stroke:#181818;stroke-width:1.0;" width="10" x="344.7681" y="213.7852"/><rect fill="#FFFFFF" height="93.873" style="stroke:#181818;stroke-width:1.0;" width="10" x="562.2197" y="250.0762"/><rect fill="#FFFFFF" height="125.1641" style="stroke:#181818;stroke-width:1.0;" width="10" x="562.2197" y="482.1133"/><rect fill="#FFFFFF" height="495.3652" style="stroke:#181818;stroke-width:1.0;" width="10" x="727.4399" y="686.4902"/><rect fill="#FFFFFF" height="464.0742" style="stroke:#181818;stroke-width:1.0;" width="10" x="861.1431" y="717.7813"/><rect fill="#FFFFFF" height="424.7832" style="stroke:#181818;stroke-width:1.0;" width="10" x="866.1431" y="757.0723"/><rect fill="#FFFFFF" height="93.873" style="stroke:#181818;stroke-width:1.0;" width="10" x="1083.5947" y="793.3633"/><rect fill="#FFFFFF" height="125.1641" style="stroke:#181818;stroke-width:1.0;" width="10" x="1083.5947" y="1025.4004"/><rect fill="#FFFFFF" height="31.291" style="stroke:#181818;stroke-width:1.0;" width="10" x="1371.6318" y="281.3672"/><rect fill="#FFFFFF" height="62.582" style="stroke:#181818;stroke-width:1.0;" width="10" x="1371.6318" y="513.4043"/><rect fill="#FFFFFF" height="31.291" style="stroke:#181818;stroke-width:1.0;" width="10" x="1371.6318" y="824.6543"/><rect fill="#FFFFFF" height="62.582" style="stroke:#181818;stroke-width:1.0;" width="10" x="1371.6318" y="1056.6914"/><rect fill="none" height="1089.2344" style="stroke:#000000;stroke-width:1.5;" width="1568.6797" x="10" y="100.6211"/><line style="stroke:#181818;stroke-width:0.5;stroke-dasharray:5.0,5.0;" x1="64" x2="64" y1="83.6211" y2="1206.8555"/><line style="stroke:#181818;stroke-width:0.5;stroke-dasharray:5.0,5.0;" x1="194.4688" x2="194.4688" y1="83.6211" y2="1206.8555"/><line style="stroke:#181818;stroke-width:0.5;stroke-dasharray:5.0,5.0;" x1="343.9717" x2="343.9717" y1="83.6211" y2="1206.8555"/><line style="stroke:#181818;stroke-width:0.5;stroke-dasharray:5.0,5.0;" x1="567.0786" x2="567.0786" y1="83.6211" y2="1206.8555"/><line style="stroke:#181818;stroke-width:0.5;stroke-dasharray:5.0,5.0;" x1="732.3608" x2="732.3608" y1="83.6211" y2="1206.8555"/><line style="stroke:#181818;stroke-width:0.5;stroke-dasharray:5.0,5.0;" x1="865.519" x2="865.519" y1="83.6211" y2="1206.8555"/><line style="stroke:#181818;stroke-width:0.5;stroke-dasharray:5.0,5.0;" x1="1087.626" x2="1087.626" y1="83.6211" y2="1206.8555"/><line style="stroke:#181818;stroke-width:0.5;stroke-dasharray:5.0,5.0;" x1="1227.5635" x2="1227.5635" y1="83.6211" y2="1206.8555"/><line style="stroke:#181818;stroke-width:0.5;stroke-dasharray:5.0,5.0;" x1="1375.708" x2="1375.708" y1="83.6211" y2="1206.8555"/><line style="stroke:#181818;stroke-width:0.5;stroke-dasharray:5.0,5.0;" x1="1521.5557" x2="1521.5557" y1="83.6211" y2="1206.8555"/><text fill="#000000" font-family="sans-serif" font-size="14" lengthAdjust="spacing" textLength="82.4688" x="20" y="80.1074">Administrator</text><ellipse cx="64.2344" cy="13.5" fill="#E2E2F0" rx="8" ry="8" style="stroke:#181818;stroke-width:0.5;"/><path d="M64.2344,21.5 L64.2344,48.5 M51.2344,29.5 L77.2344,29.5 M64.2344,48.5 L51.2344,63.5 M64.2344,48.5 L77.2344,63.5 " fill="none" style="stroke:#181818;stroke-width:0.5;"/><text fill="#000000" font-family="sans-serif" font-size="14" lengthAdjust="spacing" textLength="82.4688" x="20" y="1220.9629">Administrator</text><ellipse cx="64.2344" cy="1232.9766" fill="#E2E2F0" rx="8" ry="8" style="stroke:#181818;stroke-width:0.5;"/><path d="M64.2344,1240.9766 L64.2344,1267.9766 M51.2344,1248.9766 L77.2344,1248.9766 M64.2344,1267.9766 L51.2344,1282.9766 M64.2344,1267.9766 L77.2344,1282.9766 " fill="none" style="stroke:#181818;stroke-width:0.5;"/><rect fill="#E2E2F0" height="32.6211" rx="2.5" ry="2.5" style="stroke:#181818;stroke-width:0.5;" width="152.5029" x="118.4688" y="50"/><text fill="#000000" font-family="sans-serif" font-size="14" lengthAdjust="spacing" textLength="138.5029" x="125.4688" y="72.1074">:DeactivateUserAction</text><rect fill="#E2E2F0" height="32.6211" rx="2.5" ry="2.5" style="stroke:#181818;stroke-width:0.5;" width="152.5029" x="118.4688" y="1205.8555"/><text fill="#000000" font-family="sans-serif" font-size="14" lengthAdjust="spacing" textLength="138.5029" x="125.4688" y="1227.9629">:DeactivateUserAction</text><rect fill="#E2E2F0" height="32.6211" rx="2.5" ry="2.5" style="stroke:#181818;stroke-width:0.5;" width="127.5928" x="280.9717" y="50"/><text fill="#000000" font-family="sans-serif" font-size="14" lengthAdjust="spacing" textLength="113.5928" x="287.9717" y="72.1074">:DeactivateUserUI</text><rect fill="#E2E2F0" height="32.6211" rx="2.5" ry="2.5" style="stroke:#181818;stroke-width:0.5;" width="127.5928" x="280.9717" y="1205.8555"/><text fill="#000000" font-family="sans-serif" font-size="14" lengthAdjust="spacing" textLength="113.5928" x="287.9717" y="1227.9629">:DeactivateUserUI</text><rect fill="#E2E2F0" height="32.6211" rx="2.5" ry="2.5" style="stroke:#181818;stroke-width:0.5;" width="174.2822" x="480.0786" y="50"/><text fill="#000000" font-family="sans-serif" font-size="14" lengthAdjust="spacing" textLength="160.2822" x="487.0786" y="72.1074">:DeactivateUserController</text><rect fill="#E2E2F0" height="32.6211" rx="2.5" ry="2.5" style="stroke:#181818;stroke-width:0.5;" width="174.2822" x="480.0786" y="1205.8555"/><text fill="#000000" font-family="sans-serif" font-size="14" lengthAdjust="spacing" textLength="160.2822" x="487.0786" y="1227.9629">:DeactivateUserController</text><rect fill="#E2E2F0" height="32.6211" rx="2.5" ry="2.5" style="stroke:#181818;stroke-width:0.5;" width="136.1582" x="664.3608" y="50"/><text fill="#000000" font-family="sans-serif" font-size="14" lengthAdjust="spacing" textLength="122.1582" x="671.3608" y="72.1074">:ActivateUserAction</text><rect fill="#E2E2F0" height="32.6211" rx="2.5" ry="2.5" style="stroke:#181818;stroke-width:0.5;" width="136.1582" x="664.3608" y="1205.8555"/><text fill="#000000" font-family="sans-serif" font-size="14" lengthAdjust="spacing" textLength="122.1582" x="671.3608" y="1227.9629">:ActivateUserAction</text><rect fill="#E2E2F0" height="32.6211" rx="2.5" ry="2.5" style="stroke:#181818;stroke-width:0.5;" width="111.248" x="810.519" y="50"/><text fill="#000000" font-family="sans-serif" font-size="14" lengthAdjust="spacing" textLength="97.248" x="817.519" y="72.1074">:ActivateUserUI</text><rect fill="#E2E2F0" height="32.6211" rx="2.5" ry="2.5" style="stroke:#181818;stroke-width:0.5;" width="111.248" x="810.519" y="1205.8555"/><text fill="#000000" font-family="sans-serif" font-size="14" lengthAdjust="spacing" textLength="97.248" x="817.519" y="1227.9629">:ActivateUserUI</text><rect fill="#E2E2F0" height="32.6211" rx="2.5" ry="2.5" style="stroke:#181818;stroke-width:0.5;" width="157.9375" x="1009.626" y="50"/><text fill="#000000" font-family="sans-serif" font-size="14" lengthAdjust="spacing" textLength="143.9375" x="1016.626" y="72.1074">:ActivateUserController</text><rect fill="#E2E2F0" height="32.6211" rx="2.5" ry="2.5" style="stroke:#181818;stroke-width:0.5;" width="157.9375" x="1009.626" y="1205.8555"/><text fill="#000000" font-family="sans-serif" font-size="14" lengthAdjust="spacing" textLength="143.9375" x="1016.626" y="1227.9629">:ActivateUserController</text><rect fill="#E2E2F0" height="32.6211" rx="2.5" ry="2.5" style="stroke:#181818;stroke-width:0.5;" width="101.1445" x="1177.5635" y="50"/><text fill="#000000" font-family="sans-serif" font-size="14" lengthAdjust="spacing" textLength="87.1445" x="1184.5635" y="72.1074">AuthzRegistry</text><rect fill="#E2E2F0" height="32.6211" rx="2.5" ry="2.5" style="stroke:#181818;stroke-width:0.5;" width="101.1445" x="1177.5635" y="1205.8555"/><text fill="#000000" font-family="sans-serif" font-size="14" lengthAdjust="spacing" textLength="87.1445" x="1184.5635" y="1227.9629">AuthzRegistry</text><rect fill="#E2E2F0" height="32.6211" rx="2.5" ry="2.5" style="stroke:#181818;stroke-width:0.5;" width="175.8477" x="1288.708" y="50"/><text fill="#000000" font-family="sans-serif" font-size="14" lengthAdjust="spacing" textLength="161.8477" x="1295.708" y="72.1074">:UserManagementService</text><rect fill="#E2E2F0" height="32.6211" rx="2.5" ry="2.5" style="stroke:#181818;stroke-width:0.5;" width="175.8477" x="1288.708" y="1205.8555"/><text fill="#000000" font-family="sans-serif" font-size="14" lengthAdjust="spacing" textLength="161.8477" x="1295.708" y="1227.9629">:UserManagementService</text><rect fill="#E2E2F0" height="32.6211" rx="2.5" ry="2.5" style="stroke:#181818;stroke-width:0.5;" width="94.124" x="1474.5557" y="50"/><text fill="#000000" font-family="sans-serif" font-size="14" lengthAdjust="spacing" textLength="80.124" x="1481.5557" y="72.1074">:SystemUser</text><rect fill="#E2E2F0" height="32.6211" rx="2.5" ry="2.5" style="stroke:#181818;stroke-width:0.5;" width="94.124" x="1474.5557" y="1205.8555"/><text fill="#000000" font-family="sans-serif" font-size="14" lengthAdjust="spacing" textLength="80.124" x="1481.5557" y="1227.9629">:SystemUser</text><rect fill="#FFFFFF" height="1103.2344" style="stroke:#181818;stroke-width:1.0;" width="10" x="59.2344" y="93.6211"/><rect fill="#FFFFFF" height="495.3652" style="stroke:#181818;stroke-width:1.0;" width="10" x="189.7202" y="143.2031"/><rect fill="#FFFFFF" height="464.0742" style="stroke:#181818;stroke-width:1.0;" width="10" x="339.7681" y="174.4941"/><rect fill="#FFFFFF" height="424.7832" style="stroke:#181818;stroke-width:1.0;" width="10" x="344.7681" y="213.7852"/><rect fill="#FFFFFF" height="93.873" style="stroke:#181818;stroke-width:1.0;" width="10" x="562.2197" y="250.0762"/><rect fill="#FFFFFF" height="125.1641" style="stroke:#181818;stroke-width:1.0;" width="10" x="562.2197" y="482.1133"/><rect fill="#FFFFFF" height="495.3652" style="stroke:#181818;stroke-width:1.0;" width="10" x="727.4399" y="686.4902"/><rect fill="#FFFFFF" height="464.0742" style="stroke:#181818;stroke-width:1.0;" width="10" x="861.1431" y="717.7813"/><rect fill="#FFFFFF" height="424.7832" style="stroke:#181818;stroke-width:1.0;" width="10" x="866.1431" y="757.0723"/><rect fill="#FFFFFF" height="93.873" style="stroke:#181818;stroke-width:1.0;" width="10" x="1083.5947" y="793.3633"/><rect fill="#FFFFFF" height="125.1641" style="stroke:#181818;stroke-width:1.0;" width="10" x="1083.5947" y="1025.4004"/><rect fill="#FFFFFF" height="31.291" style="stroke:#181818;stroke-width:1.0;" width="10" x="1371.6318" y="281.3672"/><rect fill="#FFFFFF" height="62.582" style="stroke:#181818;stroke-width:1.0;" width="10" x="1371.6318" y="513.4043"/><rect fill="#FFFFFF" height="31.291" style="stroke:#181818;stroke-width:1.0;" width="10" x="1371.6318" y="824.6543"/><rect fill="#FFFFFF" height="62.582" style="stroke:#181818;stroke-width:1.0;" width="10" x="1371.6318" y="1056.6914"/><path d="M10,100.6211 L70.1709,100.6211 L70.1709,109.9121 L60.1709,119.9121 L10,119.9121 L10,100.6211 " fill="#EEEEEE" style="stroke:#000000;stroke-width:1.5;"/><rect fill="none" height="1089.2344" style="stroke:#000000;stroke-width:1.5;" width="1568.6797" x="10" y="100.6211"/><text fill="#000000" font-family="sans-serif" font-size="13" font-weight="bold" lengthAdjust="spacing" textLength="15.1709" x="25" y="115.6494">alt</text><text fill="#000000" font-family="sans-serif" font-size="11" font-weight="bold" lengthAdjust="spacing" textLength="89.8745" x="85.1709" y="114.4912">[Deactivate User]</text><polygon fill="#181818" points="177.7202,139.2031,187.7202,143.2031,177.7202,147.2031,181.7202,143.2031" style="stroke:#181818;stroke-width:1.0;"/><line style="stroke:#181818;stroke-width:1.0;" x1="69.2344" x2="183.7202" y1="143.2031" y2="143.2031"/><text fill="#000000" font-family="sans-serif" font-size="13" lengthAdjust="spacing" textLength="54.1899" x="76.2344" y="137.9404">execute()</text><polygon fill="#181818" points="327.7681,170.4941,337.7681,174.4941,327.7681,178.4941,331.7681,174.4941" style="stroke:#181818;stroke-width:1.0;"/><line style="stroke:#181818;stroke-width:1.0;" x1="199.7202" x2="333.7681" y1="174.4941" y2="174.4941"/><text fill="#000000" font-family="sans-serif" font-size="13" lengthAdjust="spacing" textLength="39.0063" x="206.7202" y="169.2314">show()</text><line style="stroke:#181818;stroke-width:1.0;" x1="349.7681" x2="396.7681" y1="200.7852" y2="200.7852"/><line style="stroke:#181818;stroke-width:1.0;" x1="396.7681" x2="396.7681" y1="200.7852" y2="213.7852"/><line style="stroke:#181818;stroke-width:1.0;" x1="355.7681" x2="396.7681" y1="213.7852" y2="213.7852"/><polygon fill="#181818" points="365.7681,209.7852,355.7681,213.7852,365.7681,217.7852,361.7681,213.7852" style="stroke:#181818;stroke-width:1.0;"/><text fill="#000000" font-family="sans-serif" font-size="13" lengthAdjust="spacing" textLength="55.6372" x="361.7681" y="195.5225">doShow()</text><polygon fill="#181818" points="550.2197,246.0762,560.2197,250.0762,550.2197,254.0762,554.2197,250.0762" style="stroke:#181818;stroke-width:1.0;"/><line style="stroke:#181818;stroke-width:1.0;" x1="354.7681" x2="556.2197" y1="250.0762" y2="250.0762"/><text fill="#000000" font-family="sans-serif" font-size="13" lengthAdjust="spacing" textLength="76.5654" x="361.7681" y="244.8135">activeUsers()</text><polygon fill="#181818" points="1359.6318,277.3672,1369.6318,281.3672,1359.6318,285.3672,1363.6318,281.3672" style="stroke:#181818;stroke-width:1.0;"/><line style="stroke:#181818;stroke-width:1.0;" x1="572.2197" x2="1365.6318" y1="281.3672" y2="281.3672"/><text fill="#000000" font-family="sans-serif" font-size="13" lengthAdjust="spacing" textLength="76.5654" x="579.2197" y="276.1045">activeUsers()</text><polygon fill="#181818" points="583.2197,308.6582,573.2197,312.6582,583.2197,316.6582,579.2197,312.6582" style="stroke:#181818;stroke-width:1.0;"/><line style="stroke:#181818;stroke-width:1.0;stroke-dasharray:2.0,2.0;" x1="577.2197" x2="1375.6318" y1="312.6582" y2="312.6582"/><text fill="#000000" font-family="sans-serif" font-size="13" lengthAdjust="spacing" textLength="45.519" x="589.2197" y="307.3955">userList</text><polygon fill="#181818" points="365.7681,339.9492,355.7681,343.9492,365.7681,347.9492,361.7681,343.9492" style="stroke:#181818;stroke-width:1.0;"/><line style="stroke:#181818;stroke-width:1.0;stroke-dasharray:2.0,2.0;" x1="359.7681" x2="566.2197" y1="343.9492" y2="343.9492"/><text fill="#000000" font-family="sans-serif" font-size="13" lengthAdjust="spacing" textLength="45.519" x="371.7681" y="338.6865">userList</text><line style="stroke:#181818;stroke-width:1.0;" x1="354.7681" x2="396.7681" y1="375.2402" y2="375.2402"/><line style="stroke:#181818;stroke-width:1.0;" x1="396.7681" x2="396.7681" y1="375.2402" y2="388.2402"/><line style="stroke:#181818;stroke-width:1.0;" x1="355.7681" x2="396.7681" y1="388.2402" y2="388.2402"/><polygon fill="#181818" points="365.7681,384.2402,355.7681,388.2402,365.7681,392.2402,361.7681,388.2402" style="stroke:#181818;stroke-width:1.0;"/><text fill="#000000" font-family="sans-serif" font-size="13" lengthAdjust="spacing" textLength="178.4517" x="361.7681" y="369.9775">filterNonRepresentativeUsers()</text><polygon fill="#181818" points="80.2344,415.5313,70.2344,419.5313,80.2344,423.5313,76.2344,419.5313" style="stroke:#181818;stroke-width:1.0;"/><line style="stroke:#181818;stroke-width:1.0;stroke-dasharray:2.0,2.0;" x1="74.2344" x2="343.7681" y1="419.5313" y2="419.5313"/><text fill="#000000" font-family="sans-serif" font-size="13" lengthAdjust="spacing" textLength="129.3208" x="86.2344" y="414.2686">shows active users list</text><polygon fill="#181818" points="332.7681,446.8223,342.7681,450.8223,332.7681,454.8223,336.7681,450.8223" style="stroke:#181818;stroke-width:1.0;"/><line style="stroke:#181818;stroke-width:1.0;" x1="69.2344" x2="338.7681" y1="450.8223" y2="450.8223"/><text fill="#000000" font-family="sans-serif" font-size="13" lengthAdjust="spacing" textLength="117.0508" x="76.2344" y="445.5596">selects user number</text><polygon fill="#181818" points="550.2197,478.1133,560.2197,482.1133,550.2197,486.1133,554.2197,482.1133" style="stroke:#181818;stroke-width:1.0;"/><line style="stroke:#181818;stroke-width:1.0;" x1="354.7681" x2="556.2197" y1="482.1133" y2="482.1133"/><text fill="#000000" font-family="sans-serif" font-size="13" lengthAdjust="spacing" textLength="171.2344" x="361.7681" y="476.8506">deactivateUser(selectedUser)</text><polygon fill="#181818" points="1359.6318,509.4043,1369.6318,513.4043,1359.6318,517.4043,1363.6318,513.4043" style="stroke:#181818;stroke-width:1.0;"/><line style="stroke:#181818;stroke-width:1.0;" x1="572.2197" x2="1365.6318" y1="513.4043" y2="513.4043"/><text fill="#000000" font-family="sans-serif" font-size="13" lengthAdjust="spacing" textLength="120.6563" x="579.2197" y="508.1416">deactivateUser(user)</text><polygon fill="#181818" points="1509.6177,540.6953,1519.6177,544.6953,1509.6177,548.6953,1513.6177,544.6953" style="stroke:#181818;stroke-width:1.0;"/><line style="stroke:#181818;stroke-width:1.0;" x1="1381.6318" x2="1515.6177" y1="544.6953" y2="544.6953"/><text fill="#000000" font-family="sans-serif" font-size="13" lengthAdjust="spacing" textLength="67.9199" x="1388.6318" y="539.4326">deactivate()</text><polygon fill="#181818" points="583.2197,571.9863,573.2197,575.9863,583.2197,579.9863,579.2197,575.9863" style="stroke:#181818;stroke-width:1.0;"/><line style="stroke:#181818;stroke-width:1.0;stroke-dasharray:2.0,2.0;" x1="577.2197" x2="1375.6318" y1="575.9863" y2="575.9863"/><text fill="#000000" font-family="sans-serif" font-size="13" lengthAdjust="spacing" textLength="25.2891" x="589.2197" y="570.7236">user</text><polygon fill="#181818" points="365.7681,603.2773,355.7681,607.2773,365.7681,611.2773,361.7681,607.2773" style="stroke:#181818;stroke-width:1.0;"/><line style="stroke:#181818;stroke-width:1.0;stroke-dasharray:2.0,2.0;" x1="359.7681" x2="566.2197" y1="607.2773" y2="607.2773"/><text fill="#000000" font-family="sans-serif" font-size="13" lengthAdjust="spacing" textLength="25.2891" x="371.7681" y="602.0146">user</text><polygon fill="#181818" points="80.2344,634.5684,70.2344,638.5684,80.2344,642.5684,76.2344,638.5684" style="stroke:#181818;stroke-width:1.0;"/><line style="stroke:#181818;stroke-width:1.0;stroke-dasharray:2.0,2.0;" x1="74.2344" x2="343.7681" y1="638.5684" y2="638.5684"/><text fill="#000000" font-family="sans-serif" font-size="13" lengthAdjust="spacing" textLength="95.3926" x="86.2344" y="633.3057">user deactivated</text><line style="stroke:#000000;stroke-width:1.0;stroke-dasharray:2.0,2.0;" x1="10" x2="1578.6797" y1="647.5684" y2="647.5684"/><text fill="#000000" font-family="sans-serif" font-size="11" font-weight="bold" lengthAdjust="spacing" textLength="77.6392" x="15" y="659.4385">[Activate User]</text><polygon fill="#181818" points="715.4399,682.4902,725.4399,686.4902,715.4399,690.4902,719.4399,686.4902" style="stroke:#181818;stroke-width:1.0;"/><line style="stroke:#181818;stroke-width:1.0;" x1="69.2344" x2="721.4399" y1="686.4902" y2="686.4902"/><text fill="#000000" font-family="sans-serif" font-size="13" lengthAdjust="spacing" textLength="54.1899" x="76.2344" y="681.2275">execute()</text><polygon fill="#181818" points="849.1431,713.7813,859.1431,717.7813,849.1431,721.7813,853.1431,717.7813" style="stroke:#181818;stroke-width:1.0;"/><line style="stroke:#181818;stroke-width:1.0;" x1="737.4399" x2="855.1431" y1="717.7813" y2="717.7813"/><text fill="#000000" font-family="sans-serif" font-size="13" lengthAdjust="spacing" textLength="39.0063" x="744.4399" y="712.5186">show()</text><line style="stroke:#181818;stroke-width:1.0;" x1="871.1431" x2="918.1431" y1="744.0723" y2="744.0723"/><line style="stroke:#181818;stroke-width:1.0;" x1="918.1431" x2="918.1431" y1="744.0723" y2="757.0723"/><line style="stroke:#181818;stroke-width:1.0;" x1="877.1431" x2="918.1431" y1="757.0723" y2="757.0723"/><polygon fill="#181818" points="887.1431,753.0723,877.1431,757.0723,887.1431,761.0723,883.1431,757.0723" style="stroke:#181818;stroke-width:1.0;"/><text fill="#000000" font-family="sans-serif" font-size="13" lengthAdjust="spacing" textLength="55.6372" x="883.1431" y="738.8096">doShow()</text><polygon fill="#181818" points="1071.5947,789.3633,1081.5947,793.3633,1071.5947,797.3633,1075.5947,793.3633" style="stroke:#181818;stroke-width:1.0;"/><line style="stroke:#181818;stroke-width:1.0;" x1="876.1431" x2="1077.5947" y1="793.3633" y2="793.3633"/><text fill="#000000" font-family="sans-serif" font-size="13" lengthAdjust="spacing" textLength="91.0254" x="883.1431" y="788.1006">deactiveUsers()</text><polygon fill="#181818" points="1359.6318,820.6543,1369.6318,824.6543,1359.6318,828.6543,1363.6318,824.6543" style="stroke:#181818;stroke-width:1.0;"/><line style="stroke:#181818;stroke-width:1.0;" x1="1093.5947" x2="1365.6318" y1="824.6543" y2="824.6543"/><text fill="#000000" font-family="sans-serif" font-size="13" lengthAdjust="spacing" textLength="109.0972" x="1100.5947" y="819.3916">deactivatedUsers()</text><polygon fill="#181818" points="1104.5947,851.9453,1094.5947,855.9453,1104.5947,859.9453,1100.5947,855.9453" style="stroke:#181818;stroke-width:1.0;"/><line style="stroke:#181818;stroke-width:1.0;stroke-dasharray:2.0,2.0;" x1="1098.5947" x2="1375.6318" y1="855.9453" y2="855.9453"/><text fill="#000000" font-family="sans-serif" font-size="13" lengthAdjust="spacing" textLength="45.519" x="1110.5947" y="850.6826">userList</text><polygon fill="#181818" points="887.1431,883.2363,877.1431,887.2363,887.1431,891.2363,883.1431,887.2363" style="stroke:#181818;stroke-width:1.0;"/><line style="stroke:#181818;stroke-width:1.0;stroke-dasharray:2.0,2.0;" x1="881.1431" x2="1087.5947" y1="887.2363" y2="887.2363"/><text fill="#000000" font-family="sans-serif" font-size="13" lengthAdjust="spacing" textLength="45.519" x="893.1431" y="881.9736">userList</text><line style="stroke:#181818;stroke-width:1.0;" x1="876.1431" x2="918.1431" y1="918.5273" y2="918.5273"/><line style="stroke:#181818;stroke-width:1.0;" x1="918.1431" x2="918.1431" y1="918.5273" y2="931.5273"/><line style="stroke:#181818;stroke-width:1.0;" x1="877.1431" x2="918.1431" y1="931.5273" y2="931.5273"/><polygon fill="#181818" points="887.1431,927.5273,877.1431,931.5273,887.1431,935.5273,883.1431,931.5273" style="stroke:#181818;stroke-width:1.0;"/><text fill="#000000" font-family="sans-serif" font-size="13" lengthAdjust="spacing" textLength="178.4517" x="883.1431" y="913.2646">filterNonRepresentativeUsers()</text><polygon fill="#181818" points="80.2344,958.8184,70.2344,962.8184,80.2344,966.8184,76.2344,962.8184" style="stroke:#181818;stroke-width:1.0;"/><line style="stroke:#181818;stroke-width:1.0;stroke-dasharray:2.0,2.0;" x1="74.2344" x2="865.1431" y1="962.8184" y2="962.8184"/><text fill="#000000" font-family="sans-serif" font-size="13" lengthAdjust="spacing" textLength="139.439" x="86.2344" y="957.5557">shows inactive users list</text><polygon fill="#181818" points="854.1431,990.1094,864.1431,994.1094,854.1431,998.1094,858.1431,994.1094" style="stroke:#181818;stroke-width:1.0;"/><line style="stroke:#181818;stroke-width:1.0;" x1="69.2344" x2="860.1431" y1="994.1094" y2="994.1094"/><text fill="#000000" font-family="sans-serif" font-size="13" lengthAdjust="spacing" textLength="117.0508" x="76.2344" y="988.8467">selects user number</text><polygon fill="#181818" points="1071.5947,1021.4004,1081.5947,1025.4004,1071.5947,1029.4004,1075.5947,1025.4004" style="stroke:#181818;stroke-width:1.0;"/><line style="stroke:#181818;stroke-width:1.0;" x1="876.1431" x2="1077.5947" y1="1025.4004" y2="1025.4004"/><text fill="#000000" font-family="sans-serif" font-size="13" lengthAdjust="spacing" textLength="156.7744" x="883.1431" y="1020.1377">activateUser(selectedUser)</text><polygon fill="#181818" points="1359.6318,1052.6914,1369.6318,1056.6914,1359.6318,1060.6914,1363.6318,1056.6914" style="stroke:#181818;stroke-width:1.0;"/><line style="stroke:#181818;stroke-width:1.0;" x1="1093.5947" x2="1365.6318" y1="1056.6914" y2="1056.6914"/><text fill="#000000" font-family="sans-serif" font-size="13" lengthAdjust="spacing" textLength="106.1963" x="1100.5947" y="1051.4287">activateUser(user)</text><polygon fill="#181818" points="1509.6177,1083.9824,1519.6177,1087.9824,1509.6177,1091.9824,1513.6177,1087.9824" style="stroke:#181818;stroke-width:1.0;"/><line style="stroke:#181818;stroke-width:1.0;" x1="1381.6318" x2="1515.6177" y1="1087.9824" y2="1087.9824"/><text fill="#000000" font-family="sans-serif" font-size="13" lengthAdjust="spacing" textLength="53.46" x="1388.6318" y="1082.7197">activate()</text><polygon fill="#181818" points="1104.5947,1115.2734,1094.5947,1119.2734,1104.5947,1123.2734,1100.5947,1119.2734" style="stroke:#181818;stroke-width:1.0;"/><line style="stroke:#181818;stroke-width:1.0;stroke-dasharray:2.0,2.0;" x1="1098.5947" x2="1375.6318" y1="1119.2734" y2="1119.2734"/><text fill="#000000" font-family="sans-serif" font-size="13" lengthAdjust="spacing" textLength="25.2891" x="1110.5947" y="1114.0107">user</text><polygon fill="#181818" points="887.1431,1146.5645,877.1431,1150.5645,887.1431,1154.5645,883.1431,1150.5645" style="stroke:#181818;stroke-width:1.0;"/><line style="stroke:#181818;stroke-width:1.0;stroke-dasharray:2.0,2.0;" x1="881.1431" x2="1087.5947" y1="1150.5645" y2="1150.5645"/><text fill="#000000" font-family="sans-serif" font-size="13" lengthAdjust="spacing" textLength="25.2891" x="893.1431" y="1145.3018">user</text><polygon fill="#181818" points="80.2344,1177.8555,70.2344,1181.8555,80.2344,1185.8555,76.2344,1181.8555" style="stroke:#181818;stroke-width:1.0;"/><line style="stroke:#181818;stroke-width:1.0;stroke-dasharray:2.0,2.0;" x1="74.2344" x2="865.1431" y1="1181.8555" y2="1181.8555"/><text fill="#000000" font-family="sans-serif" font-size="13" lengthAdjust="spacing" textLength="80.9326" x="86.2344" y="1176.5928">user activated</text><!--SRC=[lPRFRgCm4CRlFCKef_RG5-YX4agYtKXjLuAmXxr4NfWcLi54jccRVVerXYKsjVaJDMifKWWpduUPppyYNYax4auAE9BqbUmnbgSSWMCg2Tld68WkG1n8LhvJjeSNaWiC0fBAaiCYp0hAg92SgCi5407Xwcdp7AWiILDw94p2udw5Afo-4Oc9G1wgxoNJmQjrkDpkr6VpOpWdsHZnoMOmTbaooSiyHsxaBBVHOoyhTDVahIZyN8-pcj1VYxkIi9A7Fn7kwpwUchXa-_tNBbf_wqdNaa-4gL4Lo6IC_8scg3EIU1tjuf_BNa9y4XABEgsBqhFJ1RQp2aWkuTn2gAC3K4lVXhi7Qqnm3_Y1QINnvbP7TNdMCA5TLcedbMoKZ3YKxws6GqUr5OpLvTaQMHdRAkDARhLwAafFf-h9YPweGrXF4XpBa5GR_1lDgBorHJTGyAnEzgx_49NIVrHcSgPcE6qByndiddlb3McZGHEQhsLVQ2wHFvSimYD7eVnDXffrLb4oZLCRIucsoxfE0Rchqfwp6pjYhi0dT1gmglZTde99liai0jqqMfZL5rUmKM-tohdBfMvgTh9syNXrt8LNTE14zqsoZHxvEJyB1dKDdlZkVVgzfIAgToU4Vj1EmQm3iZPYHm7hWEBPrXFHwW6hhMCVZd6i3fw6qREGNO6hNqrLoz6pYEhdgMDsCrdg9IbbCrWwYwHEerp2q4iyyp_eEPUTNqbElyicEMo2FVHeHtdffwMRbIOfMHO4vYtzL_Kl]--></g></svg>