<svg xmlns="http://www.w3.org/2000/svg" xmlns:xlink="http://www.w3.org/1999/xlink" contentStyleType="text/css" height="1290px" preserveAspectRatio="none" style="width:674px;height:1290px;background:#FFFFFF;" version="1.1" viewBox="0 0 674 1290" width="674px" zoomAndPan="magnify"><defs/><g><!--class LoginUI--><g id="elem_LoginUI"><rect codeLine="6" fill="#F1F1F1" height="122.4844" id="LoginUI" rx="2.5" ry="2.5" style="stroke:#181818;stroke-width:0.5;" width="137.2549" x="288.5" y="7"/><ellipse cx="329.15" cy="23" fill="#ADD1B2" rx="11" ry="11" style="stroke:#181818;stroke-width:1.0;"/><path d="M331.9156,18.875 Q332.0719,18.6563 332.2594,18.5469 Q332.4469,18.4375 332.6656,18.4375 Q333.0406,18.4375 333.275,18.7031 Q333.5094,18.9531 333.5094,19.5625 L333.5094,21.0156 Q333.5094,21.625 333.275,21.8906 Q333.0406,22.1563 332.6656,22.1563 Q332.3219,22.1563 332.1188,21.9531 Q331.9156,21.7656 331.8063,21.25 Q331.7594,20.8906 331.5719,20.7031 Q331.2438,20.3281 330.6344,20.1094 Q330.025,19.8906 329.4,19.8906 Q328.6344,19.8906 327.9938,20.2188 Q327.3688,20.5469 326.8688,21.2969 Q326.3844,22.0469 326.3844,23.0781 L326.3844,24.1719 Q326.3844,25.4063 327.275,26.2344 Q328.1656,27.0469 329.7594,27.0469 Q330.6969,27.0469 331.3531,26.7969 Q331.7438,26.6406 332.1656,26.2031 Q332.4313,25.9375 332.5719,25.8594 Q332.7281,25.7813 332.9313,25.7813 Q333.2594,25.7813 333.5094,26.0469 Q333.775,26.2969 333.775,26.6406 Q333.775,26.9844 333.4313,27.3906 Q332.9313,27.9688 332.1344,28.2969 Q331.0563,28.75 329.7594,28.75 Q328.2438,28.75 327.0406,28.125 Q326.0563,27.625 325.3688,26.5625 Q324.6813,25.4844 324.6813,24.2031 L324.6813,23.0469 Q324.6813,21.7188 325.2906,20.5781 Q325.9156,19.4219 327.0094,18.8125 Q328.1031,18.1875 329.3375,18.1875 Q330.0719,18.1875 330.7125,18.3594 Q331.3688,18.5156 331.9156,18.875 Z " fill="#000000"/><text fill="#000000" font-family="sans-serif" font-size="14" lengthAdjust="spacing" textLength="48.2549" x="348.85" y="28.7969">LoginUI</text><line style="stroke:#181818;stroke-width:0.5;" x1="289.5" x2="424.7549" y1="39" y2="39"/><text fill="#000000" font-family="sans-serif" font-size="14" lengthAdjust="spacing" textLength="125.2549" x="294.5" y="58.1074">-onlyWithThis : Role</text><text fill="#000000" font-family="sans-serif" font-size="14" lengthAdjust="spacing" textLength="112.8066" x="294.5" y="76.7285">-maxAttempts : int</text><line style="stroke:#181818;stroke-width:0.5;" x1="289.5" x2="424.7549" y1="84.2422" y2="84.2422"/><text fill="#000000" font-family="sans-serif" font-size="14" lengthAdjust="spacing" textLength="50.1826" x="294.5" y="103.3496">+show()</text><text fill="#000000" font-family="sans-serif" font-size="14" lengthAdjust="spacing" textLength="68.0928" x="294.5" y="121.9707">+doShow()</text></g><!--class AuthenticationCredentialHandler--><g id="elem_AuthenticationCredentialHandler"><rect codeLine="13" fill="#F1F1F1" height="85.2422" id="AuthenticationCredentialHandler" rx="2.5" ry="2.5" style="stroke:#181818;stroke-width:0.5;" width="274.6436" x="219.5" y="190"/><ellipse cx="252.9825" cy="206" fill="#ADD1B2" rx="11" ry="11" style="stroke:#181818;stroke-width:1.0;"/><path d="M255.7481,201.875 Q255.9044,201.6563 256.0919,201.5469 Q256.2794,201.4375 256.4981,201.4375 Q256.8731,201.4375 257.1075,201.7031 Q257.3419,201.9531 257.3419,202.5625 L257.3419,204.0156 Q257.3419,204.625 257.1075,204.8906 Q256.8731,205.1563 256.4981,205.1563 Q256.1544,205.1563 255.9513,204.9531 Q255.7481,204.7656 255.6388,204.25 Q255.5919,203.8906 255.4044,203.7031 Q255.0763,203.3281 254.4669,203.1094 Q253.8575,202.8906 253.2325,202.8906 Q252.4669,202.8906 251.8263,203.2188 Q251.2013,203.5469 250.7013,204.2969 Q250.2169,205.0469 250.2169,206.0781 L250.2169,207.1719 Q250.2169,208.4063 251.1075,209.2344 Q251.9981,210.0469 253.5919,210.0469 Q254.5294,210.0469 255.1856,209.7969 Q255.5763,209.6406 255.9981,209.2031 Q256.2638,208.9375 256.4044,208.8594 Q256.5606,208.7813 256.7638,208.7813 Q257.0919,208.7813 257.3419,209.0469 Q257.6075,209.2969 257.6075,209.6406 Q257.6075,209.9844 257.2638,210.3906 Q256.7638,210.9688 255.9669,211.2969 Q254.8888,211.75 253.5919,211.75 Q252.0763,211.75 250.8731,211.125 Q249.8888,210.625 249.2013,209.5625 Q248.5138,208.4844 248.5138,207.2031 L248.5138,206.0469 Q248.5138,204.7188 249.1231,203.5781 Q249.7481,202.4219 250.8419,201.8125 Q251.9356,201.1875 253.17,201.1875 Q253.9044,201.1875 254.545,201.3594 Q255.2013,201.5156 255.7481,201.875 Z " fill="#000000"/><text fill="#000000" font-family="sans-serif" font-size="14" lengthAdjust="spacing" textLength="201.5713" x="271.0897" y="211.7969">AuthenticationCredentialHandler</text><line style="stroke:#181818;stroke-width:0.5;" x1="220.5" x2="493.1436" y1="222" y2="222"/><text fill="#000000" font-family="sans-serif" font-size="14" lengthAdjust="spacing" textLength="232.6885" x="225.5" y="241.1074">-authenticationService : Authenticator</text><line style="stroke:#181818;stroke-width:0.5;" x1="220.5" x2="493.1436" y1="248.6211" y2="248.6211"/><text fill="#000000" font-family="sans-serif" font-size="14" lengthAdjust="spacing" textLength="262.6436" x="225.5" y="267.7285">+authenticated(username, password, role)</text></g><!--class AuthzRegistry--><g id="elem_AuthzRegistry"><rect codeLine="18" fill="#F1F1F1" height="122.4844" id="AuthzRegistry" rx="2.5" ry="2.5" style="stroke:#181818;stroke-width:0.5;" width="163.3613" x="169.5" y="336"/><ellipse cx="204.3976" cy="352" fill="#ADD1B2" rx="11" ry="11" style="stroke:#181818;stroke-width:1.0;"/><path d="M207.1632,347.875 Q207.3194,347.6563 207.5069,347.5469 Q207.6944,347.4375 207.9132,347.4375 Q208.2882,347.4375 208.5226,347.7031 Q208.7569,347.9531 208.7569,348.5625 L208.7569,350.0156 Q208.7569,350.625 208.5226,350.8906 Q208.2882,351.1563 207.9132,351.1563 Q207.5694,351.1563 207.3663,350.9531 Q207.1632,350.7656 207.0538,350.25 Q207.0069,349.8906 206.8194,349.7031 Q206.4913,349.3281 205.8819,349.1094 Q205.2726,348.8906 204.6476,348.8906 Q203.8819,348.8906 203.2413,349.2188 Q202.6163,349.5469 202.1163,350.2969 Q201.6319,351.0469 201.6319,352.0781 L201.6319,353.1719 Q201.6319,354.4063 202.5226,355.2344 Q203.4132,356.0469 205.0069,356.0469 Q205.9444,356.0469 206.6007,355.7969 Q206.9913,355.6406 207.4132,355.2031 Q207.6788,354.9375 207.8194,354.8594 Q207.9757,354.7813 208.1788,354.7813 Q208.5069,354.7813 208.7569,355.0469 Q209.0226,355.2969 209.0226,355.6406 Q209.0226,355.9844 208.6788,356.3906 Q208.1788,356.9688 207.3819,357.2969 Q206.3038,357.75 205.0069,357.75 Q203.4913,357.75 202.2882,357.125 Q201.3038,356.625 200.6163,355.5625 Q199.9288,354.4844 199.9288,353.2031 L199.9288,352.0469 Q199.9288,350.7188 200.5382,349.5781 Q201.1632,348.4219 202.2569,347.8125 Q203.3507,347.1875 204.5851,347.1875 Q205.3194,347.1875 205.9601,347.3594 Q206.6163,347.5156 207.1632,347.875 Z " fill="#000000"/><text fill="#000000" font-family="sans-serif" font-size="14" lengthAdjust="spacing" textLength="87.1445" x="222.8192" y="357.7969">AuthzRegistry</text><line style="stroke:#181818;stroke-width:0.5;" x1="170.5" x2="331.8613" y1="368" y2="368"/><line style="stroke:#181818;stroke-width:0.5;" x1="170.5" x2="331.8613" y1="376" y2="376"/><text fill="#000000" font-family="sans-serif" font-size="14" lengthAdjust="spacing" textLength="101.1309" x="175.5" y="395.1074">-AuthzRegistry()</text><text fill="#000000" font-family="sans-serif" font-size="14" lengthAdjust="spacing" text-decoration="underline" textLength="89.8857" x="175.5" y="413.7285">+getInstance()</text><text fill="#000000" font-family="sans-serif" font-size="14" lengthAdjust="spacing" textLength="151.3613" x="175.5" y="432.3496">+authenticationService()</text><text fill="#000000" font-family="sans-serif" font-size="14" lengthAdjust="spacing" textLength="144.3477" x="175.5" y="450.9707">+authorizationService()</text></g><!--class AuthenticationService--><g id="elem_AuthenticationService"><rect codeLine="25" fill="#F1F1F1" height="103.8633" id="AuthenticationService" rx="2.5" ry="2.5" style="stroke:#181818;stroke-width:0.5;" width="275.0059" x="326.5" y="537"/><ellipse cx="392.0464" cy="553" fill="#ADD1B2" rx="11" ry="11" style="stroke:#181818;stroke-width:1.0;"/><path d="M394.812,548.875 Q394.9683,548.6563 395.1558,548.5469 Q395.3433,548.4375 395.562,548.4375 Q395.937,548.4375 396.1714,548.7031 Q396.4058,548.9531 396.4058,549.5625 L396.4058,551.0156 Q396.4058,551.625 396.1714,551.8906 Q395.937,552.1563 395.562,552.1563 Q395.2183,552.1563 395.0151,551.9531 Q394.812,551.7656 394.7026,551.25 Q394.6558,550.8906 394.4683,550.7031 Q394.1401,550.3281 393.5308,550.1094 Q392.9214,549.8906 392.2964,549.8906 Q391.5308,549.8906 390.8901,550.2188 Q390.2651,550.5469 389.7651,551.2969 Q389.2808,552.0469 389.2808,553.0781 L389.2808,554.1719 Q389.2808,555.4063 390.1714,556.2344 Q391.062,557.0469 392.6558,557.0469 Q393.5933,557.0469 394.2495,556.7969 Q394.6401,556.6406 395.062,556.2031 Q395.3276,555.9375 395.4683,555.8594 Q395.6245,555.7813 395.8276,555.7813 Q396.1558,555.7813 396.4058,556.0469 Q396.6714,556.2969 396.6714,556.6406 Q396.6714,556.9844 396.3276,557.3906 Q395.8276,557.9688 395.0308,558.2969 Q393.9526,558.75 392.6558,558.75 Q391.1401,558.75 389.937,558.125 Q388.9526,557.625 388.2651,556.5625 Q387.5776,555.4844 387.5776,554.2031 L387.5776,553.0469 Q387.5776,551.7188 388.187,550.5781 Q388.812,549.4219 389.9058,548.8125 Q390.9995,548.1875 392.2339,548.1875 Q392.9683,548.1875 393.6089,548.3594 Q394.2651,548.5156 394.812,548.875 Z " fill="#000000"/><text fill="#000000" font-family="sans-serif" font-size="14" lengthAdjust="spacing" textLength="135.4131" x="412.5464" y="558.7969">AuthenticationService</text><line style="stroke:#181818;stroke-width:0.5;" x1="327.5" x2="600.5059" y1="569" y2="569"/><line style="stroke:#181818;stroke-width:0.5;" x1="327.5" x2="600.5059" y1="577" y2="577"/><text fill="#000000" font-family="sans-serif" font-size="14" lengthAdjust="spacing" textLength="254.8574" x="332.5" y="596.1074">+authenticate(username, password, role)</text><text fill="#000000" font-family="sans-serif" font-size="14" lengthAdjust="spacing" textLength="263.0059" x="332.5" y="614.7285">-validateCredentials(username, password)</text><text fill="#000000" font-family="sans-serif" font-size="14" lengthAdjust="spacing" textLength="178.9512" x="332.5" y="633.3496">-validateUserRole(user, role)</text></g><!--class AuthorizationService--><g id="elem_AuthorizationService"><rect codeLine="31" fill="#F1F1F1" height="141.1055" id="AuthorizationService" rx="2.5" ry="2.5" style="stroke:#181818;stroke-width:0.5;" width="278.5195" x="226.5" y="702"/><ellipse cx="297.3101" cy="718" fill="#ADD1B2" rx="11" ry="11" style="stroke:#181818;stroke-width:1.0;"/><path d="M300.0757,713.875 Q300.2319,713.6563 300.4194,713.5469 Q300.6069,713.4375 300.8257,713.4375 Q301.2007,713.4375 301.4351,713.7031 Q301.6694,713.9531 301.6694,714.5625 L301.6694,716.0156 Q301.6694,716.625 301.4351,716.8906 Q301.2007,717.1563 300.8257,717.1563 Q300.4819,717.1563 300.2788,716.9531 Q300.0757,716.7656 299.9663,716.25 Q299.9194,715.8906 299.7319,715.7031 Q299.4038,715.3281 298.7944,715.1094 Q298.1851,714.8906 297.5601,714.8906 Q296.7944,714.8906 296.1538,715.2188 Q295.5288,715.5469 295.0288,716.2969 Q294.5444,717.0469 294.5444,718.0781 L294.5444,719.1719 Q294.5444,720.4063 295.4351,721.2344 Q296.3257,722.0469 297.9194,722.0469 Q298.8569,722.0469 299.5132,721.7969 Q299.9038,721.6406 300.3257,721.2031 Q300.5913,720.9375 300.7319,720.8594 Q300.8882,720.7813 301.0913,720.7813 Q301.4194,720.7813 301.6694,721.0469 Q301.9351,721.2969 301.9351,721.6406 Q301.9351,721.9844 301.5913,722.3906 Q301.0913,722.9688 300.2944,723.2969 Q299.2163,723.75 297.9194,723.75 Q296.4038,723.75 295.2007,723.125 Q294.2163,722.625 293.5288,721.5625 Q292.8413,720.4844 292.8413,719.2031 L292.8413,718.0469 Q292.8413,716.7188 293.4507,715.5781 Q294.0757,714.4219 295.1694,713.8125 Q296.2632,713.1875 297.4976,713.1875 Q298.2319,713.1875 298.8726,713.3594 Q299.5288,713.5156 300.0757,713.875 Z " fill="#000000"/><text fill="#000000" font-family="sans-serif" font-size="14" lengthAdjust="spacing" textLength="128.3994" x="317.8101" y="723.7969">AuthorizationService</text><line style="stroke:#181818;stroke-width:0.5;" x1="227.5" x2="504.0195" y1="734" y2="734"/><line style="stroke:#181818;stroke-width:0.5;" x1="227.5" x2="504.0195" y1="742" y2="742"/><text fill="#000000" font-family="sans-serif" font-size="14" lengthAdjust="spacing" textLength="266.5195" x="232.5" y="761.1074">+validateCredentials(username, password)</text><text fill="#000000" font-family="sans-serif" font-size="14" lengthAdjust="spacing" textLength="182.4648" x="232.5" y="779.7285">+validateUserRole(user, role)</text><text fill="#000000" font-family="sans-serif" font-size="14" lengthAdjust="spacing" textLength="89.8789" x="232.5" y="798.3496">+hasSession()</text><text fill="#000000" font-family="sans-serif" font-size="14" lengthAdjust="spacing" textLength="64.9688" x="232.5" y="816.9707">+session()</text><text fill="#000000" font-family="sans-serif" font-size="14" lengthAdjust="spacing" textLength="97.6514" x="232.5" y="835.5918">+clearSession()</text></g><!--class UserSession--><g id="elem_UserSession"><rect codeLine="39" fill="#F1F1F1" height="122.4844" id="UserSession" rx="2.5" ry="2.5" style="stroke:#181818;stroke-width:0.5;" width="143.127" x="48.5" y="711.5"/><ellipse cx="77.7928" cy="727.5" fill="#ADD1B2" rx="11" ry="11" style="stroke:#181818;stroke-width:1.0;"/><path d="M80.5584,723.375 Q80.7146,723.1563 80.9021,723.0469 Q81.0896,722.9375 81.3084,722.9375 Q81.6834,722.9375 81.9178,723.2031 Q82.1521,723.4531 82.1521,724.0625 L82.1521,725.5156 Q82.1521,726.125 81.9178,726.3906 Q81.6834,726.6563 81.3084,726.6563 Q80.9646,726.6563 80.7615,726.4531 Q80.5584,726.2656 80.449,725.75 Q80.4021,725.3906 80.2146,725.2031 Q79.8865,724.8281 79.2771,724.6094 Q78.6678,724.3906 78.0428,724.3906 Q77.2771,724.3906 76.6365,724.7188 Q76.0115,725.0469 75.5115,725.7969 Q75.0271,726.5469 75.0271,727.5781 L75.0271,728.6719 Q75.0271,729.9063 75.9178,730.7344 Q76.8084,731.5469 78.4021,731.5469 Q79.3396,731.5469 79.9959,731.2969 Q80.3865,731.1406 80.8084,730.7031 Q81.074,730.4375 81.2146,730.3594 Q81.3709,730.2813 81.574,730.2813 Q81.9021,730.2813 82.1521,730.5469 Q82.4178,730.7969 82.4178,731.1406 Q82.4178,731.4844 82.074,731.8906 Q81.574,732.4688 80.7771,732.7969 Q79.699,733.25 78.4021,733.25 Q76.8865,733.25 75.6834,732.625 Q74.699,732.125 74.0115,731.0625 Q73.324,729.9844 73.324,728.7031 L73.324,727.5469 Q73.324,726.2188 73.9334,725.0781 Q74.5584,723.9219 75.6521,723.3125 Q76.7459,722.6875 77.9803,722.6875 Q78.7146,722.6875 79.3553,722.8594 Q80.0115,723.0156 80.5584,723.375 Z " fill="#000000"/><text fill="#000000" font-family="sans-serif" font-size="14" lengthAdjust="spacing" textLength="79.3652" x="94.9689" y="733.2969">UserSession</text><line style="stroke:#181818;stroke-width:0.5;" x1="49.5" x2="190.627" y1="743.5" y2="743.5"/><text fill="#000000" font-family="sans-serif" font-size="14" lengthAdjust="spacing" textLength="119.7998" x="54.5" y="762.6074">-user : SystemUser</text><text fill="#000000" font-family="sans-serif" font-size="14" lengthAdjust="spacing" textLength="112.834" x="54.5" y="781.2285">-roles : Set&lt;Role&gt;</text><line style="stroke:#181818;stroke-width:0.5;" x1="49.5" x2="190.627" y1="788.7422" y2="788.7422"/><text fill="#000000" font-family="sans-serif" font-size="14" lengthAdjust="spacing" textLength="121.7686" x="54.5" y="807.8496">+create(user, roles)</text><text fill="#000000" font-family="sans-serif" font-size="14" lengthAdjust="spacing" textLength="131.127" x="54.5" y="826.4707">+authenticatedUser()</text></g><!--class SystemUser--><g id="elem_SystemUser"><rect codeLine="46" fill="#F1F1F1" height="141.1055" id="SystemUser" rx="2.5" ry="2.5" style="stroke:#181818;stroke-width:0.5;" width="155.165" x="317.5" y="922"/><ellipse cx="353.6188" cy="938" fill="#ADD1B2" rx="11" ry="11" style="stroke:#181818;stroke-width:1.0;"/><path d="M356.3844,933.875 Q356.5407,933.6563 356.7282,933.5469 Q356.9157,933.4375 357.1344,933.4375 Q357.5094,933.4375 357.7438,933.7031 Q357.9782,933.9531 357.9782,934.5625 L357.9782,936.0156 Q357.9782,936.625 357.7438,936.8906 Q357.5094,937.1563 357.1344,937.1563 Q356.7907,937.1563 356.5875,936.9531 Q356.3844,936.7656 356.275,936.25 Q356.2282,935.8906 356.0407,935.7031 Q355.7125,935.3281 355.1032,935.1094 Q354.4938,934.8906 353.8688,934.8906 Q353.1032,934.8906 352.4625,935.2188 Q351.8375,935.5469 351.3375,936.2969 Q350.8532,937.0469 350.8532,938.0781 L350.8532,939.1719 Q350.8532,940.4063 351.7438,941.2344 Q352.6344,942.0469 354.2282,942.0469 Q355.1657,942.0469 355.8219,941.7969 Q356.2125,941.6406 356.6344,941.2031 Q356.9,940.9375 357.0407,940.8594 Q357.1969,940.7813 357.4,940.7813 Q357.7282,940.7813 357.9782,941.0469 Q358.2438,941.2969 358.2438,941.6406 Q358.2438,941.9844 357.9,942.3906 Q357.4,942.9688 356.6032,943.2969 Q355.525,943.75 354.2282,943.75 Q352.7125,943.75 351.5094,943.125 Q350.525,942.625 349.8375,941.5625 Q349.15,940.4844 349.15,939.2031 L349.15,938.0469 Q349.15,936.7188 349.7594,935.5781 Q350.3844,934.4219 351.4782,933.8125 Q352.5719,933.1875 353.8063,933.1875 Q354.5407,933.1875 355.1813,933.3594 Q355.8375,933.5156 356.3844,933.875 Z " fill="#000000"/><text fill="#000000" font-family="sans-serif" font-size="14" lengthAdjust="spacing" textLength="76.2344" x="372.3119" y="943.7969">SystemUser</text><line style="stroke:#181818;stroke-width:0.5;" x1="318.5" x2="471.665" y1="954" y2="954"/><text fill="#000000" font-family="sans-serif" font-size="14" lengthAdjust="spacing" textLength="143.165" x="323.5" y="973.1074">-username : Username</text><text fill="#000000" font-family="sans-serif" font-size="14" lengthAdjust="spacing" textLength="137.7168" x="323.5" y="991.7285">-password : Password</text><text fill="#000000" font-family="sans-serif" font-size="14" lengthAdjust="spacing" textLength="87.9238" x="323.5" y="1010.3496">-name : String</text><text fill="#000000" font-family="sans-serif" font-size="14" lengthAdjust="spacing" textLength="140.0479" x="323.5" y="1028.9707">-status : SystemStatus</text><line style="stroke:#181818;stroke-width:0.5;" x1="318.5" x2="471.665" y1="1036.4844" y2="1036.4844"/><text fill="#000000" font-family="sans-serif" font-size="14" lengthAdjust="spacing" textLength="65.7344" x="323.5" y="1055.5918">+isActive()</text></g><!--class SystemStatus--><g id="elem_SystemStatus"><rect codeLine="54" fill="#F1F1F1" height="85.2422" id="SystemStatus" rx="2.5" ry="2.5" style="stroke:#181818;stroke-width:0.5;" width="118.3652" x="409" y="1170"/><ellipse cx="424" cy="1186" fill="#EB937F" rx="11" ry="11" style="stroke:#181818;stroke-width:1.0;"/><path d="M422.8594,1186.7969 L422.8594,1189.2969 L427.1875,1189.2969 L427.1875,1188.375 Q427.1875,1187.7656 427.4219,1187.5 Q427.6719,1187.2344 428.0469,1187.2344 Q428.4219,1187.2344 428.6563,1187.5 Q428.8906,1187.7656 428.8906,1188.375 L428.8906,1191 L420.8906,1191 Q420.2656,1191 420,1190.7656 Q419.75,1190.5313 419.75,1190.1406 Q419.75,1189.7656 420.0156,1189.5313 Q420.2813,1189.2969 420.8906,1189.2969 L421.1563,1189.2969 L421.1563,1182.6406 L420.8906,1182.6406 Q420.2656,1182.6406 420,1182.4063 Q419.75,1182.1719 419.75,1181.7813 Q419.75,1181.4063 420,1181.1719 Q420.2656,1180.9375 420.8906,1180.9375 L428.5156,1180.9375 L428.5156,1183.5313 Q428.5156,1184.1406 428.2813,1184.4063 Q428.0625,1184.6563 427.6719,1184.6563 Q427.2969,1184.6563 427.0625,1184.4063 Q426.8281,1184.1406 426.8281,1183.5313 L426.8281,1182.6406 L422.8594,1182.6406 L422.8594,1185.0938 L424.3438,1185.0938 Q424.3438,1184.4375 424.4688,1184.25 Q424.7344,1183.8438 425.2031,1183.8438 Q425.5781,1183.8438 425.8125,1184.1094 Q426.0469,1184.3594 426.0469,1184.9688 L426.0469,1186.9375 Q426.0469,1187.4844 425.9219,1187.6719 Q425.6563,1188.0625 425.2031,1188.0625 Q424.7344,1188.0625 424.4688,1187.6563 Q424.3438,1187.4688 424.3438,1186.7969 L422.8594,1186.7969 Z " fill="#000000"/><text fill="#000000" font-family="sans-serif" font-size="14" lengthAdjust="spacing" textLength="86.3652" x="438" y="1191.7969">SystemStatus</text><line style="stroke:#181818;stroke-width:0.5;" x1="410" x2="526.3652" y1="1202" y2="1202"/><text fill="#000000" font-family="sans-serif" font-size="14" lengthAdjust="spacing" textLength="50.5654" x="415" y="1221.1074">ACTIVE</text><text fill="#000000" font-family="sans-serif" font-size="14" lengthAdjust="spacing" textLength="64.5654" x="415" y="1239.7285">INACTIVE</text><line style="stroke:#181818;stroke-width:0.5;" x1="410" x2="526.3652" y1="1247.2422" y2="1247.2422"/></g><!--class SystemRole--><g id="elem_SystemRole"><rect codeLine="59" fill="#F1F1F1" height="141.1055" id="SystemRole" rx="2.5" ry="2.5" style="stroke:#181818;stroke-width:0.5;" width="225.9238" x="7" y="1142"/><ellipse cx="77.9775" cy="1158" fill="#EB937F" rx="11" ry="11" style="stroke:#181818;stroke-width:1.0;"/><path d="M76.8369,1158.7969 L76.8369,1161.2969 L81.165,1161.2969 L81.165,1160.375 Q81.165,1159.7656 81.3994,1159.5 Q81.6494,1159.2344 82.0244,1159.2344 Q82.3994,1159.2344 82.6338,1159.5 Q82.8682,1159.7656 82.8682,1160.375 L82.8682,1163 L74.8682,1163 Q74.2432,1163 73.9775,1162.7656 Q73.7275,1162.5313 73.7275,1162.1406 Q73.7275,1161.7656 73.9932,1161.5313 Q74.2588,1161.2969 74.8682,1161.2969 L75.1338,1161.2969 L75.1338,1154.6406 L74.8682,1154.6406 Q74.2432,1154.6406 73.9775,1154.4063 Q73.7275,1154.1719 73.7275,1153.7813 Q73.7275,1153.4063 73.9775,1153.1719 Q74.2432,1152.9375 74.8682,1152.9375 L82.4932,1152.9375 L82.4932,1155.5313 Q82.4932,1156.1406 82.2588,1156.4063 Q82.04,1156.6563 81.6494,1156.6563 Q81.2744,1156.6563 81.04,1156.4063 Q80.8057,1156.1406 80.8057,1155.5313 L80.8057,1154.6406 L76.8369,1154.6406 L76.8369,1157.0938 L78.3213,1157.0938 Q78.3213,1156.4375 78.4463,1156.25 Q78.7119,1155.8438 79.1807,1155.8438 Q79.5557,1155.8438 79.79,1156.1094 Q80.0244,1156.3594 80.0244,1156.9688 L80.0244,1158.9375 Q80.0244,1159.4844 79.8994,1159.6719 Q79.6338,1160.0625 79.1807,1160.0625 Q78.7119,1160.0625 78.4463,1159.6563 Q78.3213,1159.4688 78.3213,1158.7969 L76.8369,1158.7969 Z " fill="#000000"/><text fill="#000000" font-family="sans-serif" font-size="14" lengthAdjust="spacing" textLength="75.4688" x="98.4775" y="1163.7969">SystemRole</text><line style="stroke:#181818;stroke-width:0.5;" x1="8" x2="231.9238" y1="1174" y2="1174"/><text fill="#000000" font-family="sans-serif" font-size="14" lengthAdjust="spacing" textLength="45.1104" x="13" y="1193.1074">ADMIN</text><text fill="#000000" font-family="sans-serif" font-size="14" lengthAdjust="spacing" textLength="110.4551" x="13" y="1211.7285">CRM_MANAGER</text><text fill="#000000" font-family="sans-serif" font-size="14" lengthAdjust="spacing" textLength="154.8066" x="13" y="1230.3496">CRM_COLLABORATOR</text><text fill="#000000" font-family="sans-serif" font-size="14" lengthAdjust="spacing" textLength="124.4619" x="13" y="1248.9707">SHOW_DESIGNER</text><text fill="#000000" font-family="sans-serif" font-size="14" lengthAdjust="spacing" textLength="213.9238" x="13" y="1267.5918">CUSTOMER_REPRESENTATIVE</text><line style="stroke:#181818;stroke-width:0.5;" x1="8" x2="231.9238" y1="1275.1055" y2="1275.1055"/></g><!--class Username--><g id="elem_Username"><rect codeLine="67" fill="#F1F1F1" height="79.2031" id="Username" rx="2.5" ry="2.5" style="stroke:#181818;stroke-width:0.5;" width="104.7168" x="562.5" y="1173"/><ellipse cx="577.5" cy="1195.291" fill="#ADD8E6" rx="11" ry="11" style="stroke:#181818;stroke-width:1.0;"/><path d="M578.0938,1198.5566 L580.5625,1192.6816 L580.1719,1192.6816 Q579.5625,1192.6816 579.2969,1192.4473 Q579.0313,1192.2129 579.0313,1191.8223 Q579.0313,1191.4473 579.2969,1191.2129 Q579.5625,1190.9785 580.1719,1190.9785 L582.4531,1190.9785 Q583.0625,1190.9785 583.3281,1191.2129 Q583.5938,1191.4473 583.5938,1191.8223 Q583.5938,1192.291 583.1875,1192.5566 Q583,1192.6816 582.4063,1192.6816 L578.9219,1201.041 L577.2813,1201.041 L573.7969,1192.6816 Q573.2031,1192.6816 573.0156,1192.5566 Q572.6094,1192.291 572.6094,1191.8223 Q572.6094,1191.4473 572.875,1191.2129 Q573.1406,1190.9785 573.75,1190.9785 L576.0469,1190.9785 Q576.6563,1190.9785 576.9063,1191.2129 Q577.1719,1191.4473 577.1719,1191.8223 Q577.1719,1192.2129 576.9063,1192.4473 Q576.6563,1192.6816 576.0469,1192.6816 L575.6406,1192.6816 L578.0938,1198.5566 Z " fill="#000000"/><text fill="#000000" font-family="sans-serif" font-size="12" font-style="italic" lengthAdjust="spacing" textLength="76.7168" x="589.5" y="1190.9492">&#171;valueObject&#187;</text><text fill="#000000" font-family="sans-serif" font-size="14" lengthAdjust="spacing" textLength="64.5791" x="595.5688" y="1209.0684">Username</text><line style="stroke:#181818;stroke-width:0.5;" x1="563.5" x2="666.2168" y1="1217.582" y2="1217.582"/><text fill="#000000" font-family="sans-serif" font-size="14" lengthAdjust="spacing" textLength="86.3721" x="568.5" y="1236.6895">-value : String</text><line style="stroke:#181818;stroke-width:0.5;" x1="563.5" x2="666.2168" y1="1244.2031" y2="1244.2031"/></g><!--class Password--><g id="elem_Password"><rect codeLine="71" fill="#F1F1F1" height="79.2031" id="Password" rx="2.5" ry="2.5" style="stroke:#181818;stroke-width:0.5;" width="104.7168" x="268.5" y="1173"/><ellipse cx="283.5" cy="1195.291" fill="#ADD8E6" rx="11" ry="11" style="stroke:#181818;stroke-width:1.0;"/><path d="M284.0938,1198.5566 L286.5625,1192.6816 L286.1719,1192.6816 Q285.5625,1192.6816 285.2969,1192.4473 Q285.0313,1192.2129 285.0313,1191.8223 Q285.0313,1191.4473 285.2969,1191.2129 Q285.5625,1190.9785 286.1719,1190.9785 L288.4531,1190.9785 Q289.0625,1190.9785 289.3281,1191.2129 Q289.5938,1191.4473 289.5938,1191.8223 Q289.5938,1192.291 289.1875,1192.5566 Q289,1192.6816 288.4063,1192.6816 L284.9219,1201.041 L283.2813,1201.041 L279.7969,1192.6816 Q279.2031,1192.6816 279.0156,1192.5566 Q278.6094,1192.291 278.6094,1191.8223 Q278.6094,1191.4473 278.875,1191.2129 Q279.1406,1190.9785 279.75,1190.9785 L282.0469,1190.9785 Q282.6563,1190.9785 282.9063,1191.2129 Q283.1719,1191.4473 283.1719,1191.8223 Q283.1719,1192.2129 282.9063,1192.4473 Q282.6563,1192.6816 282.0469,1192.6816 L281.6406,1192.6816 L284.0938,1198.5566 Z " fill="#000000"/><text fill="#000000" font-family="sans-serif" font-size="12" font-style="italic" lengthAdjust="spacing" textLength="76.7168" x="295.5" y="1190.9492">&#171;valueObject&#187;</text><text fill="#000000" font-family="sans-serif" font-size="14" lengthAdjust="spacing" textLength="61.4688" x="303.124" y="1209.0684">Password</text><line style="stroke:#181818;stroke-width:0.5;" x1="269.5" x2="372.2168" y1="1217.582" y2="1217.582"/><text fill="#000000" font-family="sans-serif" font-size="14" lengthAdjust="spacing" textLength="86.3721" x="274.5" y="1236.6895">-value : String</text><line style="stroke:#181818;stroke-width:0.5;" x1="269.5" x2="372.2168" y1="1244.2031" y2="1244.2031"/></g><!--link LoginUI to AuthenticationCredentialHandler--><g id="link_LoginUI_AuthenticationCredentialHandler"><path codeLine="75" d="M357,129.05 C357,149.3 357,165.44 357,183.94 " fill="none" id="LoginUI-to-AuthenticationCredentialHandler" style="stroke:#181818;stroke-width:1.0;stroke-dasharray:7.0,7.0;"/><polygon fill="#181818" points="357,189.94,361,180.94,357,184.94,353,180.94,357,189.94" style="stroke:#181818;stroke-width:1.0;"/></g><!--link AuthenticationCredentialHandler to AuthzRegistry--><g id="link_AuthenticationCredentialHandler_AuthzRegistry"><path codeLine="76" d="M329.7,275.35 C317.68,293.78 306.6085,310.7549 293.4685,330.8949 " fill="none" id="AuthenticationCredentialHandler-to-AuthzRegistry" style="stroke:#181818;stroke-width:1.0;stroke-dasharray:7.0,7.0;"/><polygon fill="#181818" points="290.19,335.92,298.4578,330.5681,292.9221,331.7324,291.7577,326.1967,290.19,335.92" style="stroke:#181818;stroke-width:1.0;"/></g><!--link AuthenticationCredentialHandler to AuthenticationService--><g id="link_AuthenticationCredentialHandler_AuthenticationService"><path codeLine="77" d="M385.88,275.19 C405.54,303.57 428,336 428,336 C428,336 445.3019,457.0802 455.8219,530.7602 " fill="none" id="AuthenticationCredentialHandler-to-AuthenticationService" style="stroke:#181818;stroke-width:1.0;stroke-dasharray:7.0,7.0;"/><polygon fill="#181818" points="456.67,536.7,459.3577,527.225,455.9633,531.7502,451.438,528.3557,456.67,536.7" style="stroke:#181818;stroke-width:1.0;"/></g><!--link AuthzRegistry to AuthzRegistry--><g id="link_AuthzRegistry_AuthzRegistry"><path codeLine="79" d="M332.66,380.39 C352.63,381.62 367.5,387.16 367.5,397 C367.5,406.84 358.6187,412.0111 338.6487,413.2411 " fill="none" id="AuthzRegistry-to-AuthzRegistry" style="stroke:#181818;stroke-width:1.0;"/><polygon fill="#181818" points="332.66,413.61,341.8889,417.0492,337.6505,413.3026,341.3971,409.0643,332.66,413.61" style="stroke:#181818;stroke-width:1.0;"/><text fill="#000000" font-family="sans-serif" font-size="13" lengthAdjust="spacing" textLength="48.4199" x="373.5" y="402.5283">instance</text><text fill="#000000" font-family="sans-serif" font-size="13" lengthAdjust="spacing" textLength="7.23" x="340.7706" y="411.4021">1</text></g><!--link AuthzRegistry to AuthenticationService--><g id="link_AuthzRegistry_AuthenticationService"><path codeLine="80" d="M284.71,458.24 C298.82,483.45 312,507 312,507 C312,507 332.5143,517.9395 362.8743,534.1095 " fill="none" id="AuthzRegistry-to-AuthenticationService" style="stroke:#181818;stroke-width:1.0;"/><polygon fill="#181818" points="368.17,536.93,362.1068,529.1687,363.7569,534.5795,358.3461,536.2297,368.17,536.93" style="stroke:#181818;stroke-width:1.0;"/><text fill="#000000" font-family="sans-serif" font-size="13" lengthAdjust="spacing" textLength="124.2998" x="313" y="503.0283">authenticationService</text><text fill="#000000" font-family="sans-serif" font-size="13" lengthAdjust="spacing" textLength="7.23" x="347.8376" y="525.848">1</text></g><!--link AuthzRegistry to AuthorizationService--><g id="link_AuthzRegistry_AuthorizationService"><path codeLine="81" d="M224.6,458.16 C208.11,495.73 190,537 190,537 C190,537 190,641 190,641 C190,641 225.3209,667.1856 267.2509,698.2856 " fill="none" id="AuthzRegistry-to-AuthorizationService" style="stroke:#181818;stroke-width:1.0;"/><polygon fill="#181818" points="272.07,701.86,267.2243,693.2857,268.0541,698.8813,262.4584,699.7112,272.07,701.86" style="stroke:#181818;stroke-width:1.0;"/><text fill="#000000" font-family="sans-serif" font-size="13" lengthAdjust="spacing" textLength="117.7871" x="191" y="594.5283">authorizationService</text><text fill="#000000" font-family="sans-serif" font-size="13" lengthAdjust="spacing" textLength="7.23" x="255.0592" y="690.7366">1</text></g><!--link AuthenticationService to AuthorizationService--><g id="link_AuthenticationService_AuthorizationService"><path codeLine="83" d="M436.44,641.04 C426.25,659.91 417.371,676.3606 406.441,696.6006 " fill="none" id="AuthenticationService-to-AuthorizationService" style="stroke:#181818;stroke-width:1.0;stroke-dasharray:7.0,7.0;"/><polygon fill="#181818" points="403.59,701.88,411.3861,695.8616,405.9658,697.4805,404.3469,692.0603,403.59,701.88" style="stroke:#181818;stroke-width:1.0;"/></g><!--link AuthenticationService to UserSession--><g id="link_AuthenticationService_UserSession"><path codeLine="84" d="M347.69,641.08 C280.44,670.62 209,702 209,702 C209,702 206.6896,703.8079 196.5696,711.7079 " fill="none" id="AuthenticationService-to-UserSession" style="stroke:#181818;stroke-width:1.0;stroke-dasharray:7.0,7.0;"/><polygon fill="#181818" points="191.84,715.4,201.3957,713.015,195.7813,712.3233,196.473,706.7089,191.84,715.4" style="stroke:#181818;stroke-width:1.0;"/></g><!--link AuthenticationService to SystemUser--><g id="link_AuthenticationService_SystemUser"><path codeLine="85" d="M490.91,641.08 C506.47,670.62 523,702 523,702 C523,702 523,843 523,843 C523,843 492.3672,878.5351 459.1672,917.0551 " fill="none" id="AuthenticationService-to-SystemUser" style="stroke:#181818;stroke-width:1.0;stroke-dasharray:7.0,7.0;"/><polygon fill="#181818" points="455.25,921.6,464.1557,917.3942,458.5143,917.8126,458.0958,912.1713,455.25,921.6" style="stroke:#181818;stroke-width:1.0;"/></g><!--link UserSession to SystemUser--><g id="link_UserSession_SystemUser"><path codeLine="87" d="M191.54,830.21 C230.05,860.74 272.9086,894.7122 312.3586,925.9922 " fill="none" id="UserSession-to-SystemUser" style="stroke:#181818;stroke-width:1.0;"/><polygon fill="#181818" points="317.06,929.72,312.493,920.994,313.1421,926.6135,307.5226,927.2626,317.06,929.72" style="stroke:#181818;stroke-width:1.0;"/><text fill="#000000" font-family="sans-serif" font-size="13" lengthAdjust="spacing" textLength="105.5107" x="267" y="888.0283">authenticatedUser</text><text fill="#000000" font-family="sans-serif" font-size="13" lengthAdjust="spacing" textLength="7.23" x="302.3008" y="919.9633">1</text></g><!--link UserSession to SystemRole--><g id="link_UserSession_SystemRole"><path codeLine="88" d="M120,833.94 C120,914.55 120,1050.94 120,1135.93 " fill="none" id="UserSession-to-SystemRole" style="stroke:#181818;stroke-width:1.0;"/><polygon fill="#181818" points="120,1141.93,124,1132.93,120,1136.93,116,1132.93,120,1141.93" style="stroke:#181818;stroke-width:1.0;"/><text fill="#000000" font-family="sans-serif" font-size="13" lengthAdjust="spacing" textLength="28.1772" x="121" y="998.0283">roles</text><text fill="#000000" font-family="sans-serif" font-size="13" lengthAdjust="spacing" textLength="5.0591" x="114.7492" y="1130.8138">*</text></g><!--link SystemUser to SystemStatus--><g id="link_SystemUser_SystemStatus"><path codeLine="90" d="M418.3,1063.08 C430.07,1098.22 442.0447,1133.9805 452.1447,1164.1405 " fill="none" id="SystemUser-to-SystemStatus" style="stroke:#181818;stroke-width:1.0;"/><polygon fill="#181818" points="454.05,1169.83,454.985,1160.0256,452.4623,1165.0888,447.3991,1162.566,454.05,1169.83" style="stroke:#181818;stroke-width:1.0;"/><text fill="#000000" font-family="sans-serif" font-size="13" lengthAdjust="spacing" textLength="34.6836" x="434" y="1108.0283">status</text><text fill="#000000" font-family="sans-serif" font-size="13" lengthAdjust="spacing" textLength="7.23" x="444.2581" y="1158.707">1</text></g><!--link SystemUser to SystemRole--><g id="link_SystemUser_SystemRole"><path codeLine="91" d="M317.3,1055.1 C283.15,1082.17 247.5918,1110.3527 212.3718,1138.2727 " fill="none" id="SystemUser-to-SystemRole" style="stroke:#181818;stroke-width:1.0;"/><polygon fill="#181818" points="207.67,1142,217.2076,1139.5436,211.5882,1138.8939,212.2379,1133.2745,207.67,1142" style="stroke:#181818;stroke-width:1.0;"/><text fill="#000000" font-family="sans-serif" font-size="13" lengthAdjust="spacing" textLength="28.1772" x="267" y="1108.0283">roles</text><text fill="#000000" font-family="sans-serif" font-size="13" lengthAdjust="spacing" textLength="5.0591" x="211.4601" y="1130.891">*</text></g><!--link SystemUser to Username--><g id="link_SystemUser_Username"><path codeLine="92" d="M465.61,1063.4 C504.51,1101.92 545,1142 545,1142 C545,1142 555.6115,1152.5433 571.6515,1168.4633 " fill="none" id="SystemUser-to-Username" style="stroke:#181818;stroke-width:1.0;"/><polygon fill="#181818" points="575.91,1172.69,572.34,1163.511,572.3612,1169.1678,566.7044,1169.189,575.91,1172.69" style="stroke:#181818;stroke-width:1.0;"/><text fill="#000000" font-family="sans-serif" font-size="13" lengthAdjust="spacing" textLength="57.8081" x="513" y="1108.0283">username</text><text fill="#000000" font-family="sans-serif" font-size="13" lengthAdjust="spacing" textLength="7.23" x="561.8985" y="1161.7243">1</text></g><!--link SystemUser to Password--><g id="link_SystemUser_Password"><path codeLine="93" d="M371.38,1063.08 C359.03,1099.46 346.3088,1136.9385 335.9988,1167.3085 " fill="none" id="SystemUser-to-Password" style="stroke:#181818;stroke-width:1.0;"/><polygon fill="#181818" points="334.07,1172.99,340.7508,1165.7535,335.6773,1168.2554,333.1755,1163.1819,334.07,1172.99" style="stroke:#181818;stroke-width:1.0;"/><text fill="#000000" font-family="sans-serif" font-size="13" lengthAdjust="spacing" textLength="55.6372" x="362" y="1108.0283">password</text><text fill="#000000" font-family="sans-serif" font-size="13" lengthAdjust="spacing" textLength="7.23" x="328.7589" y="1161.7742">1</text></g><!--SRC=[dLHTJzim57tthx3O2umFRI_JLA5AMHj19DgYk8L7P9Axr2DrAjk5bOh_FZkndO-6iYrFlhx7znpV-1xvnFYQ2hh2QveyqGo8skQ01IIAyYm793r0BcbQl32UuPyqbyrCpZYexHhmkiYt9cZaafnA6IWbsED6GPGKdB1Nm5yGAZFufiWONqHuXx3-pd71y-qzKylvaaaym76XDLIP5Vsjwy1ghKo2SLNkdsfTnSlnYGtIWbJXcoC8Dce9NB64AbRmaO3KH3I_fZpDGNXYsi8H4Cyi0KtKE5y8ozB0GdgyaI0uNS6Pxg6KBuL8px3GkZiYNcF8c5HYwobRk_uAEwcqXEGDPw0YhWEUW4_sgcnb2y5UEybtUk7kkEkvrO5BLTgVQSvI3QmRAdlETD4BZJ2_j8JsTgahtwlx5yBJmuGLP4ab0IarbU-VxCH93bJK82_KLBNR_cSQ0lrSo5RgDse0TjzGcWTBG5qQ9KDNMu3hSwLBdlIzBbEfILtNRp6RBcYIXLtQZEkApjpQfSrOFD5poJExPzxTHlexa3AqcfWC4iMUxMi2lbcrK5PBC9f7Ts6vZAOsQCDD1nnuF8ccvMeKJnucmJIu2cCVZsOtDy6FMHpCPzKckPxTFun34brD7Mn1vhD963_4uMqSad0w3nnZ_PlAYrvU7j-TuK_1UFmz_7PY7iS6Pe-_jCaDXxwDvMxT4r_5TUv_gpY7kxWOVcH6w2EpSZMyQ_prYRsnHwXjIkT3VFJrgEDKncSh1-gY6_0-r-prgGCrziP-q6jc2FKJkblkuT-7DsRu0AenpgWvzKvxOnm7-uExV-JpKNCG1jNW8zGeqwvCt4nMmxa7xA_NKsvHcuJpYpxORUqOpZpG7m00]--></g></svg>