<svg xmlns="http://www.w3.org/2000/svg" xmlns:xlink="http://www.w3.org/1999/xlink" contentStyleType="text/css" height="1345px" preserveAspectRatio="none" style="width:733px;height:1345px;background:#FFFFFF;" version="1.1" viewBox="0 0 733 1345" width="733px" zoomAndPan="magnify"><defs/><g><!--class DeactivateUserAction--><g id="elem_DeactivateUserAction"><rect codeLine="6" fill="#F1F1F1" height="66.6211" id="DeactivateUserAction" rx="2.5" ry="2.5" style="stroke:#181818;stroke-width:0.5;" width="166.6133" x="480.5" y="7"/><ellipse cx="495.5" cy="23" fill="#ADD1B2" rx="11" ry="11" style="stroke:#181818;stroke-width:1.0;"/><path d="M498.2656,18.875 Q498.4219,18.6563 498.6094,18.5469 Q498.7969,18.4375 499.0156,18.4375 Q499.3906,18.4375 499.625,18.7031 Q499.8594,18.9531 499.8594,19.5625 L499.8594,21.0156 Q499.8594,21.625 499.625,21.8906 Q499.3906,22.1563 499.0156,22.1563 Q498.6719,22.1563 498.4688,21.9531 Q498.2656,21.7656 498.1563,21.25 Q498.1094,20.8906 497.9219,20.7031 Q497.5938,20.3281 496.9844,20.1094 Q496.375,19.8906 495.75,19.8906 Q494.9844,19.8906 494.3438,20.2188 Q493.7188,20.5469 493.2188,21.2969 Q492.7344,22.0469 492.7344,23.0781 L492.7344,24.1719 Q492.7344,25.4063 493.625,26.2344 Q494.5156,27.0469 496.1094,27.0469 Q497.0469,27.0469 497.7031,26.7969 Q498.0938,26.6406 498.5156,26.2031 Q498.7813,25.9375 498.9219,25.8594 Q499.0781,25.7813 499.2813,25.7813 Q499.6094,25.7813 499.8594,26.0469 Q500.125,26.2969 500.125,26.6406 Q500.125,26.9844 499.7813,27.3906 Q499.2813,27.9688 498.4844,28.2969 Q497.4063,28.75 496.1094,28.75 Q494.5938,28.75 493.3906,28.125 Q492.4063,27.625 491.7188,26.5625 Q491.0313,25.4844 491.0313,24.2031 L491.0313,23.0469 Q491.0313,21.7188 491.6406,20.5781 Q492.2656,19.4219 493.3594,18.8125 Q494.4531,18.1875 495.6875,18.1875 Q496.4219,18.1875 497.0625,18.3594 Q497.7188,18.5156 498.2656,18.875 Z " fill="#000000"/><text fill="#000000" font-family="sans-serif" font-size="14" lengthAdjust="spacing" textLength="134.6133" x="509.5" y="28.7969">DeactivateUserAction</text><line style="stroke:#181818;stroke-width:0.5;" x1="481.5" x2="646.1133" y1="39" y2="39"/><line style="stroke:#181818;stroke-width:0.5;" x1="481.5" x2="646.1133" y1="47" y2="47"/><text fill="#000000" font-family="sans-serif" font-size="14" lengthAdjust="spacing" textLength="128.0303" x="486.5" y="66.1074">+execute() : boolean</text></g><!--class ActivateUserAction--><g id="elem_ActivateUserAction"><rect codeLine="10" fill="#F1F1F1" height="66.6211" id="ActivateUserAction" rx="2.5" ry="2.5" style="stroke:#181818;stroke-width:0.5;" width="150.2686" x="87" y="7"/><ellipse cx="102" cy="23" fill="#ADD1B2" rx="11" ry="11" style="stroke:#181818;stroke-width:1.0;"/><path d="M104.7656,18.875 Q104.9219,18.6563 105.1094,18.5469 Q105.2969,18.4375 105.5156,18.4375 Q105.8906,18.4375 106.125,18.7031 Q106.3594,18.9531 106.3594,19.5625 L106.3594,21.0156 Q106.3594,21.625 106.125,21.8906 Q105.8906,22.1563 105.5156,22.1563 Q105.1719,22.1563 104.9688,21.9531 Q104.7656,21.7656 104.6563,21.25 Q104.6094,20.8906 104.4219,20.7031 Q104.0938,20.3281 103.4844,20.1094 Q102.875,19.8906 102.25,19.8906 Q101.4844,19.8906 100.8438,20.2188 Q100.2188,20.5469 99.7188,21.2969 Q99.2344,22.0469 99.2344,23.0781 L99.2344,24.1719 Q99.2344,25.4063 100.125,26.2344 Q101.0156,27.0469 102.6094,27.0469 Q103.5469,27.0469 104.2031,26.7969 Q104.5938,26.6406 105.0156,26.2031 Q105.2813,25.9375 105.4219,25.8594 Q105.5781,25.7813 105.7813,25.7813 Q106.1094,25.7813 106.3594,26.0469 Q106.625,26.2969 106.625,26.6406 Q106.625,26.9844 106.2813,27.3906 Q105.7813,27.9688 104.9844,28.2969 Q103.9063,28.75 102.6094,28.75 Q101.0938,28.75 99.8906,28.125 Q98.9063,27.625 98.2188,26.5625 Q97.5313,25.4844 97.5313,24.2031 L97.5313,23.0469 Q97.5313,21.7188 98.1406,20.5781 Q98.7656,19.4219 99.8594,18.8125 Q100.9531,18.1875 102.1875,18.1875 Q102.9219,18.1875 103.5625,18.3594 Q104.2188,18.5156 104.7656,18.875 Z " fill="#000000"/><text fill="#000000" font-family="sans-serif" font-size="14" lengthAdjust="spacing" textLength="118.2686" x="116" y="28.7969">ActivateUserAction</text><line style="stroke:#181818;stroke-width:0.5;" x1="88" x2="236.2686" y1="39" y2="39"/><line style="stroke:#181818;stroke-width:0.5;" x1="88" x2="236.2686" y1="47" y2="47"/><text fill="#000000" font-family="sans-serif" font-size="14" lengthAdjust="spacing" textLength="128.0303" x="93" y="66.1074">+execute() : boolean</text></g><!--class DeactivateUserUI--><g id="elem_DeactivateUserUI"><rect codeLine="14" fill="#F1F1F1" height="122.4844" id="DeactivateUserUI" rx="2.5" ry="2.5" style="stroke:#181818;stroke-width:0.5;" width="306.8955" x="410.5" y="153"/><ellipse cx="504.8462" cy="169" fill="#ADD1B2" rx="11" ry="11" style="stroke:#181818;stroke-width:1.0;"/><path d="M507.6118,164.875 Q507.7681,164.6563 507.9556,164.5469 Q508.1431,164.4375 508.3618,164.4375 Q508.7368,164.4375 508.9712,164.7031 Q509.2056,164.9531 509.2056,165.5625 L509.2056,167.0156 Q509.2056,167.625 508.9712,167.8906 Q508.7368,168.1563 508.3618,168.1563 Q508.0181,168.1563 507.8149,167.9531 Q507.6118,167.7656 507.5024,167.25 Q507.4556,166.8906 507.2681,166.7031 Q506.9399,166.3281 506.3306,166.1094 Q505.7212,165.8906 505.0962,165.8906 Q504.3306,165.8906 503.6899,166.2188 Q503.0649,166.5469 502.5649,167.2969 Q502.0806,168.0469 502.0806,169.0781 L502.0806,170.1719 Q502.0806,171.4063 502.9712,172.2344 Q503.8618,173.0469 505.4556,173.0469 Q506.3931,173.0469 507.0493,172.7969 Q507.4399,172.6406 507.8618,172.2031 Q508.1274,171.9375 508.2681,171.8594 Q508.4243,171.7813 508.6274,171.7813 Q508.9556,171.7813 509.2056,172.0469 Q509.4712,172.2969 509.4712,172.6406 Q509.4712,172.9844 509.1274,173.3906 Q508.6274,173.9688 507.8306,174.2969 Q506.7524,174.75 505.4556,174.75 Q503.9399,174.75 502.7368,174.125 Q501.7524,173.625 501.0649,172.5625 Q500.3774,171.4844 500.3774,170.2031 L500.3774,169.0469 Q500.3774,167.7188 500.9868,166.5781 Q501.6118,165.4219 502.7056,164.8125 Q503.7993,164.1875 505.0337,164.1875 Q505.7681,164.1875 506.4087,164.3594 Q507.0649,164.5156 507.6118,164.875 Z " fill="#000000"/><text fill="#000000" font-family="sans-serif" font-size="14" lengthAdjust="spacing" textLength="109.7031" x="525.3462" y="174.7969">DeactivateUserUI</text><line style="stroke:#181818;stroke-width:0.5;" x1="411.5" x2="716.3955" y1="185" y2="185"/><text fill="#000000" font-family="sans-serif" font-size="14" lengthAdjust="spacing" textLength="252.875" x="416.5" y="204.1074">-theController : DeactivateUserController</text><line style="stroke:#181818;stroke-width:0.5;" x1="411.5" x2="716.3955" y1="211.6211" y2="211.6211"/><text fill="#000000" font-family="sans-serif" font-size="14" lengthAdjust="spacing" textLength="111.6787" x="416.5" y="230.7285">+show() : boolean</text><text fill="#000000" font-family="sans-serif" font-size="14" lengthAdjust="spacing" textLength="129.1992" x="416.5" y="249.3496">#doShow() : boolean</text><text fill="#000000" font-family="sans-serif" font-size="14" lengthAdjust="spacing" textLength="294.8955" x="416.5" y="267.9707">-isRepresentative(user : SystemUser) : boolean</text></g><!--class ActivateUserUI--><g id="elem_ActivateUserUI"><rect codeLine="21" fill="#F1F1F1" height="122.4844" id="ActivateUserUI" rx="2.5" ry="2.5" style="stroke:#181818;stroke-width:0.5;" width="306.8955" x="8.5" y="153"/><ellipse cx="111.0186" cy="169" fill="#ADD1B2" rx="11" ry="11" style="stroke:#181818;stroke-width:1.0;"/><path d="M113.7842,164.875 Q113.9404,164.6563 114.1279,164.5469 Q114.3154,164.4375 114.5342,164.4375 Q114.9092,164.4375 115.1436,164.7031 Q115.3779,164.9531 115.3779,165.5625 L115.3779,167.0156 Q115.3779,167.625 115.1436,167.8906 Q114.9092,168.1563 114.5342,168.1563 Q114.1904,168.1563 113.9873,167.9531 Q113.7842,167.7656 113.6748,167.25 Q113.6279,166.8906 113.4404,166.7031 Q113.1123,166.3281 112.5029,166.1094 Q111.8936,165.8906 111.2686,165.8906 Q110.5029,165.8906 109.8623,166.2188 Q109.2373,166.5469 108.7373,167.2969 Q108.2529,168.0469 108.2529,169.0781 L108.2529,170.1719 Q108.2529,171.4063 109.1436,172.2344 Q110.0342,173.0469 111.6279,173.0469 Q112.5654,173.0469 113.2217,172.7969 Q113.6123,172.6406 114.0342,172.2031 Q114.2998,171.9375 114.4404,171.8594 Q114.5967,171.7813 114.7998,171.7813 Q115.1279,171.7813 115.3779,172.0469 Q115.6436,172.2969 115.6436,172.6406 Q115.6436,172.9844 115.2998,173.3906 Q114.7998,173.9688 114.0029,174.2969 Q112.9248,174.75 111.6279,174.75 Q110.1123,174.75 108.9092,174.125 Q107.9248,173.625 107.2373,172.5625 Q106.5498,171.4844 106.5498,170.2031 L106.5498,169.0469 Q106.5498,167.7188 107.1592,166.5781 Q107.7842,165.4219 108.8779,164.8125 Q109.9717,164.1875 111.2061,164.1875 Q111.9404,164.1875 112.5811,164.3594 Q113.2373,164.5156 113.7842,164.875 Z " fill="#000000"/><text fill="#000000" font-family="sans-serif" font-size="14" lengthAdjust="spacing" textLength="93.3584" x="131.5186" y="174.7969">ActivateUserUI</text><line style="stroke:#181818;stroke-width:0.5;" x1="9.5" x2="314.3955" y1="185" y2="185"/><text fill="#000000" font-family="sans-serif" font-size="14" lengthAdjust="spacing" textLength="236.5303" x="14.5" y="204.1074">-theController : ActivateUserController</text><line style="stroke:#181818;stroke-width:0.5;" x1="9.5" x2="314.3955" y1="211.6211" y2="211.6211"/><text fill="#000000" font-family="sans-serif" font-size="14" lengthAdjust="spacing" textLength="111.6787" x="14.5" y="230.7285">+show() : boolean</text><text fill="#000000" font-family="sans-serif" font-size="14" lengthAdjust="spacing" textLength="129.1992" x="14.5" y="249.3496">#doShow() : boolean</text><text fill="#000000" font-family="sans-serif" font-size="14" lengthAdjust="spacing" textLength="294.8955" x="14.5" y="267.9707">-isRepresentative(user : SystemUser) : boolean</text></g><!--class DeactivateUserController--><g id="elem_DeactivateUserController"><rect codeLine="28" fill="#F1F1F1" height="122.4844" id="DeactivateUserController" rx="2.5" ry="2.5" style="stroke:#181818;stroke-width:0.5;" width="325.9199" x="401" y="354"/><ellipse cx="481.5137" cy="370" fill="#ADD1B2" rx="11" ry="11" style="stroke:#181818;stroke-width:1.0;"/><path d="M484.2793,365.875 Q484.4355,365.6563 484.623,365.5469 Q484.8105,365.4375 485.0293,365.4375 Q485.4043,365.4375 485.6387,365.7031 Q485.873,365.9531 485.873,366.5625 L485.873,368.0156 Q485.873,368.625 485.6387,368.8906 Q485.4043,369.1563 485.0293,369.1563 Q484.6855,369.1563 484.4824,368.9531 Q484.2793,368.7656 484.1699,368.25 Q484.123,367.8906 483.9355,367.7031 Q483.6074,367.3281 482.998,367.1094 Q482.3887,366.8906 481.7637,366.8906 Q480.998,366.8906 480.3574,367.2188 Q479.7324,367.5469 479.2324,368.2969 Q478.748,369.0469 478.748,370.0781 L478.748,371.1719 Q478.748,372.4063 479.6387,373.2344 Q480.5293,374.0469 482.123,374.0469 Q483.0605,374.0469 483.7168,373.7969 Q484.1074,373.6406 484.5293,373.2031 Q484.7949,372.9375 484.9355,372.8594 Q485.0918,372.7813 485.2949,372.7813 Q485.623,372.7813 485.873,373.0469 Q486.1387,373.2969 486.1387,373.6406 Q486.1387,373.9844 485.7949,374.3906 Q485.2949,374.9688 484.498,375.2969 Q483.4199,375.75 482.123,375.75 Q480.6074,375.75 479.4043,375.125 Q478.4199,374.625 477.7324,373.5625 Q477.0449,372.4844 477.0449,371.2031 L477.0449,370.0469 Q477.0449,368.7188 477.6543,367.5781 Q478.2793,366.4219 479.373,365.8125 Q480.4668,365.1875 481.7012,365.1875 Q482.4355,365.1875 483.0762,365.3594 Q483.7324,365.5156 484.2793,365.875 Z " fill="#000000"/><text fill="#000000" font-family="sans-serif" font-size="14" lengthAdjust="spacing" textLength="156.3926" x="502.0137" y="375.7969">DeactivateUserController</text><line style="stroke:#181818;stroke-width:0.5;" x1="402" x2="725.9199" y1="386" y2="386"/><text fill="#000000" font-family="sans-serif" font-size="14" lengthAdjust="spacing" textLength="178.9785" x="407" y="405.1074">-authz : AuthorizationService</text><text fill="#000000" font-family="sans-serif" font-size="14" lengthAdjust="spacing" textLength="224.8613" x="407" y="423.7285">-userSvc : UserManagementService</text><line style="stroke:#181818;stroke-width:0.5;" x1="402" x2="725.9199" y1="431.2422" y2="431.2422"/><text fill="#000000" font-family="sans-serif" font-size="14" lengthAdjust="spacing" textLength="241.582" x="407" y="450.3496">+activeUsers() : Iterable&lt;SystemUser&gt;</text><text fill="#000000" font-family="sans-serif" font-size="14" lengthAdjust="spacing" textLength="313.9199" x="407" y="468.9707">+deactivateUser(user : SystemUser) : SystemUser</text></g><!--class ActivateUserController--><g id="elem_ActivateUserController"><rect codeLine="35" fill="#F1F1F1" height="122.4844" id="ActivateUserController" rx="2.5" ry="2.5" style="stroke:#181818;stroke-width:0.5;" width="310.3477" x="7" y="354"/><ellipse cx="87.8999" cy="370" fill="#ADD1B2" rx="11" ry="11" style="stroke:#181818;stroke-width:1.0;"/><path d="M90.6655,365.875 Q90.8218,365.6563 91.0093,365.5469 Q91.1968,365.4375 91.4155,365.4375 Q91.7905,365.4375 92.0249,365.7031 Q92.2593,365.9531 92.2593,366.5625 L92.2593,368.0156 Q92.2593,368.625 92.0249,368.8906 Q91.7905,369.1563 91.4155,369.1563 Q91.0718,369.1563 90.8687,368.9531 Q90.6655,368.7656 90.5562,368.25 Q90.5093,367.8906 90.3218,367.7031 Q89.9937,367.3281 89.3843,367.1094 Q88.7749,366.8906 88.1499,366.8906 Q87.3843,366.8906 86.7437,367.2188 Q86.1187,367.5469 85.6187,368.2969 Q85.1343,369.0469 85.1343,370.0781 L85.1343,371.1719 Q85.1343,372.4063 86.0249,373.2344 Q86.9155,374.0469 88.5093,374.0469 Q89.4468,374.0469 90.103,373.7969 Q90.4937,373.6406 90.9155,373.2031 Q91.1812,372.9375 91.3218,372.8594 Q91.478,372.7813 91.6812,372.7813 Q92.0093,372.7813 92.2593,373.0469 Q92.5249,373.2969 92.5249,373.6406 Q92.5249,373.9844 92.1812,374.3906 Q91.6812,374.9688 90.8843,375.2969 Q89.8062,375.75 88.5093,375.75 Q86.9937,375.75 85.7905,375.125 Q84.8062,374.625 84.1187,373.5625 Q83.4312,372.4844 83.4312,371.2031 L83.4312,370.0469 Q83.4312,368.7188 84.0405,367.5781 Q84.6655,366.4219 85.7593,365.8125 Q86.853,365.1875 88.0874,365.1875 Q88.8218,365.1875 89.4624,365.3594 Q90.1187,365.5156 90.6655,365.875 Z " fill="#000000"/><text fill="#000000" font-family="sans-serif" font-size="14" lengthAdjust="spacing" textLength="140.0479" x="108.3999" y="375.7969">ActivateUserController</text><line style="stroke:#181818;stroke-width:0.5;" x1="8" x2="316.3477" y1="386" y2="386"/><text fill="#000000" font-family="sans-serif" font-size="14" lengthAdjust="spacing" textLength="178.9785" x="13" y="405.1074">-authz : AuthorizationService</text><text fill="#000000" font-family="sans-serif" font-size="14" lengthAdjust="spacing" textLength="224.8613" x="13" y="423.7285">-userSvc : UserManagementService</text><line style="stroke:#181818;stroke-width:0.5;" x1="8" x2="316.3477" y1="431.2422" y2="431.2422"/><text fill="#000000" font-family="sans-serif" font-size="14" lengthAdjust="spacing" textLength="257.1543" x="13" y="450.3496">+deactiveUsers() : Iterable&lt;SystemUser&gt;</text><text fill="#000000" font-family="sans-serif" font-size="14" lengthAdjust="spacing" textLength="298.3477" x="13" y="468.9707">+activateUser(user : SystemUser) : SystemUser</text></g><!--class AuthzRegistry--><g id="elem_AuthzRegistry"><rect codeLine="42" fill="#F1F1F1" height="85.2422" id="AuthzRegistry" rx="2.5" ry="2.5" style="stroke:#181818;stroke-width:0.5;" width="296.416" x="215" y="537"/><ellipse cx="315.3857" cy="553" fill="#ADD1B2" rx="11" ry="11" style="stroke:#181818;stroke-width:1.0;"/><path d="M318.1514,548.875 Q318.3076,548.6563 318.4951,548.5469 Q318.6826,548.4375 318.9014,548.4375 Q319.2764,548.4375 319.5107,548.7031 Q319.7451,548.9531 319.7451,549.5625 L319.7451,551.0156 Q319.7451,551.625 319.5107,551.8906 Q319.2764,552.1563 318.9014,552.1563 Q318.5576,552.1563 318.3545,551.9531 Q318.1514,551.7656 318.042,551.25 Q317.9951,550.8906 317.8076,550.7031 Q317.4795,550.3281 316.8701,550.1094 Q316.2607,549.8906 315.6357,549.8906 Q314.8701,549.8906 314.2295,550.2188 Q313.6045,550.5469 313.1045,551.2969 Q312.6201,552.0469 312.6201,553.0781 L312.6201,554.1719 Q312.6201,555.4063 313.5107,556.2344 Q314.4014,557.0469 315.9951,557.0469 Q316.9326,557.0469 317.5889,556.7969 Q317.9795,556.6406 318.4014,556.2031 Q318.667,555.9375 318.8076,555.8594 Q318.9639,555.7813 319.167,555.7813 Q319.4951,555.7813 319.7451,556.0469 Q320.0107,556.2969 320.0107,556.6406 Q320.0107,556.9844 319.667,557.3906 Q319.167,557.9688 318.3701,558.2969 Q317.292,558.75 315.9951,558.75 Q314.4795,558.75 313.2764,558.125 Q312.292,557.625 311.6045,556.5625 Q310.917,555.4844 310.917,554.2031 L310.917,553.0469 Q310.917,551.7188 311.5264,550.5781 Q312.1514,549.4219 313.2451,548.8125 Q314.3389,548.1875 315.5732,548.1875 Q316.3076,548.1875 316.9482,548.3594 Q317.6045,548.5156 318.1514,548.875 Z " fill="#000000"/><text fill="#000000" font-family="sans-serif" font-size="14" lengthAdjust="spacing" textLength="87.1445" x="335.8857" y="558.7969">AuthzRegistry</text><line style="stroke:#181818;stroke-width:0.5;" x1="216" x2="510.416" y1="569" y2="569"/><line style="stroke:#181818;stroke-width:0.5;" x1="216" x2="510.416" y1="577" y2="577"/><text fill="#000000" font-family="sans-serif" font-size="14" lengthAdjust="spacing" text-decoration="underline" textLength="284.416" x="221" y="596.1074">+authorizationService() : AuthorizationService</text><text fill="#000000" font-family="sans-serif" font-size="14" lengthAdjust="spacing" text-decoration="underline" textLength="261.0439" x="221" y="614.7285">+userService() : UserManagementService</text></g><!--class UserManagementService--><g id="elem_UserManagementService"><rect codeLine="47" fill="#F1F1F1" height="122.4844" id="UserManagementService" rx="2.5" ry="2.5" style="stroke:#181818;stroke-width:0.5;" width="325.9199" x="200" y="701"/><ellipse cx="279.731" cy="717" fill="#ADD1B2" rx="11" ry="11" style="stroke:#181818;stroke-width:1.0;"/><path d="M282.4966,712.875 Q282.6528,712.6563 282.8403,712.5469 Q283.0278,712.4375 283.2466,712.4375 Q283.6216,712.4375 283.856,712.7031 Q284.0903,712.9531 284.0903,713.5625 L284.0903,715.0156 Q284.0903,715.625 283.856,715.8906 Q283.6216,716.1563 283.2466,716.1563 Q282.9028,716.1563 282.6997,715.9531 Q282.4966,715.7656 282.3872,715.25 Q282.3403,714.8906 282.1528,714.7031 Q281.8247,714.3281 281.2153,714.1094 Q280.606,713.8906 279.981,713.8906 Q279.2153,713.8906 278.5747,714.2188 Q277.9497,714.5469 277.4497,715.2969 Q276.9653,716.0469 276.9653,717.0781 L276.9653,718.1719 Q276.9653,719.4063 277.856,720.2344 Q278.7466,721.0469 280.3403,721.0469 Q281.2778,721.0469 281.9341,720.7969 Q282.3247,720.6406 282.7466,720.2031 Q283.0122,719.9375 283.1528,719.8594 Q283.3091,719.7813 283.5122,719.7813 Q283.8403,719.7813 284.0903,720.0469 Q284.356,720.2969 284.356,720.6406 Q284.356,720.9844 284.0122,721.3906 Q283.5122,721.9688 282.7153,722.2969 Q281.6372,722.75 280.3403,722.75 Q278.8247,722.75 277.6216,722.125 Q276.6372,721.625 275.9497,720.5625 Q275.2622,719.4844 275.2622,718.2031 L275.2622,717.0469 Q275.2622,715.7188 275.8716,714.5781 Q276.4966,713.4219 277.5903,712.8125 Q278.6841,712.1875 279.9185,712.1875 Q280.6528,712.1875 281.2935,712.3594 Q281.9497,712.5156 282.4966,712.875 Z " fill="#000000"/><text fill="#000000" font-family="sans-serif" font-size="14" lengthAdjust="spacing" textLength="157.958" x="300.231" y="722.7969">UserManagementService</text><line style="stroke:#181818;stroke-width:0.5;" x1="201" x2="524.9199" y1="733" y2="733"/><line style="stroke:#181818;stroke-width:0.5;" x1="201" x2="524.9199" y1="741" y2="741"/><text fill="#000000" font-family="sans-serif" font-size="14" lengthAdjust="spacing" textLength="241.582" x="206" y="760.1074">+activeUsers() : Iterable&lt;SystemUser&gt;</text><text fill="#000000" font-family="sans-serif" font-size="14" lengthAdjust="spacing" textLength="276.6162" x="206" y="778.7285">+deactivatedUsers() : Iterable&lt;SystemUser&gt;</text><text fill="#000000" font-family="sans-serif" font-size="14" lengthAdjust="spacing" textLength="298.3477" x="206" y="797.3496">+activateUser(user : SystemUser) : SystemUser</text><text fill="#000000" font-family="sans-serif" font-size="14" lengthAdjust="spacing" textLength="313.9199" x="206" y="815.9707">+deactivateUser(user : SystemUser) : SystemUser</text></g><!--class SystemUser--><g id="elem_SystemUser"><rect codeLine="54" fill="#F1F1F1" height="215.5898" id="SystemUser" rx="2.5" ry="2.5" style="stroke:#181818;stroke-width:0.5;" width="155.165" x="285.5" y="902"/><ellipse cx="321.6188" cy="918" fill="#ADD1B2" rx="11" ry="11" style="stroke:#181818;stroke-width:1.0;"/><path d="M324.3844,913.875 Q324.5407,913.6563 324.7282,913.5469 Q324.9157,913.4375 325.1344,913.4375 Q325.5094,913.4375 325.7438,913.7031 Q325.9782,913.9531 325.9782,914.5625 L325.9782,916.0156 Q325.9782,916.625 325.7438,916.8906 Q325.5094,917.1563 325.1344,917.1563 Q324.7907,917.1563 324.5875,916.9531 Q324.3844,916.7656 324.275,916.25 Q324.2282,915.8906 324.0407,915.7031 Q323.7125,915.3281 323.1032,915.1094 Q322.4938,914.8906 321.8688,914.8906 Q321.1032,914.8906 320.4625,915.2188 Q319.8375,915.5469 319.3375,916.2969 Q318.8532,917.0469 318.8532,918.0781 L318.8532,919.1719 Q318.8532,920.4063 319.7438,921.2344 Q320.6344,922.0469 322.2282,922.0469 Q323.1657,922.0469 323.8219,921.7969 Q324.2125,921.6406 324.6344,921.2031 Q324.9,920.9375 325.0407,920.8594 Q325.1969,920.7813 325.4,920.7813 Q325.7282,920.7813 325.9782,921.0469 Q326.2438,921.2969 326.2438,921.6406 Q326.2438,921.9844 325.9,922.3906 Q325.4,922.9688 324.6032,923.2969 Q323.525,923.75 322.2282,923.75 Q320.7125,923.75 319.5094,923.125 Q318.525,922.625 317.8375,921.5625 Q317.15,920.4844 317.15,919.2031 L317.15,918.0469 Q317.15,916.7188 317.7594,915.5781 Q318.3844,914.4219 319.4782,913.8125 Q320.5719,913.1875 321.8063,913.1875 Q322.5407,913.1875 323.1813,913.3594 Q323.8375,913.5156 324.3844,913.875 Z " fill="#000000"/><text fill="#000000" font-family="sans-serif" font-size="14" lengthAdjust="spacing" textLength="76.2344" x="340.3119" y="923.7969">SystemUser</text><line style="stroke:#181818;stroke-width:0.5;" x1="286.5" x2="439.665" y1="934" y2="934"/><text fill="#000000" font-family="sans-serif" font-size="14" lengthAdjust="spacing" textLength="143.165" x="291.5" y="953.1074">-username : Username</text><text fill="#000000" font-family="sans-serif" font-size="14" lengthAdjust="spacing" textLength="137.7168" x="291.5" y="971.7285">-password : Password</text><text fill="#000000" font-family="sans-serif" font-size="14" lengthAdjust="spacing" textLength="87.9238" x="291.5" y="990.3496">-name : String</text><text fill="#000000" font-family="sans-serif" font-size="14" lengthAdjust="spacing" textLength="86.3584" x="291.5" y="1008.9707">-email : String</text><text fill="#000000" font-family="sans-serif" font-size="14" lengthAdjust="spacing" textLength="112.834" x="291.5" y="1027.5918">-roles : Set&lt;Role&gt;</text><text fill="#000000" font-family="sans-serif" font-size="14" lengthAdjust="spacing" textLength="102.7305" x="291.5" y="1046.2129">-active : boolean</text><line style="stroke:#181818;stroke-width:0.5;" x1="286.5" x2="439.665" y1="1053.7266" y2="1053.7266"/><text fill="#000000" font-family="sans-serif" font-size="14" lengthAdjust="spacing" textLength="127.2305" x="291.5" y="1072.834">+isActive() : boolean</text><text fill="#000000" font-family="sans-serif" font-size="14" lengthAdjust="spacing" textLength="103.0996" x="291.5" y="1091.4551">+activate() : void</text><text fill="#000000" font-family="sans-serif" font-size="14" lengthAdjust="spacing" textLength="118.6719" x="291.5" y="1110.0762">+deactivate() : void</text></g><!--class SystemRole--><g id="elem_SystemRole"><rect codeLine="66" fill="#F1F1F1" height="141.1055" id="SystemRole" rx="2.5" ry="2.5" style="stroke:#181818;stroke-width:0.5;" width="225.9238" x="49" y="1197"/><ellipse cx="119.9775" cy="1213" fill="#EB937F" rx="11" ry="11" style="stroke:#181818;stroke-width:1.0;"/><path d="M118.8369,1213.7969 L118.8369,1216.2969 L123.165,1216.2969 L123.165,1215.375 Q123.165,1214.7656 123.3994,1214.5 Q123.6494,1214.2344 124.0244,1214.2344 Q124.3994,1214.2344 124.6338,1214.5 Q124.8682,1214.7656 124.8682,1215.375 L124.8682,1218 L116.8682,1218 Q116.2432,1218 115.9775,1217.7656 Q115.7275,1217.5313 115.7275,1217.1406 Q115.7275,1216.7656 115.9932,1216.5313 Q116.2588,1216.2969 116.8682,1216.2969 L117.1338,1216.2969 L117.1338,1209.6406 L116.8682,1209.6406 Q116.2432,1209.6406 115.9775,1209.4063 Q115.7275,1209.1719 115.7275,1208.7813 Q115.7275,1208.4063 115.9775,1208.1719 Q116.2432,1207.9375 116.8682,1207.9375 L124.4932,1207.9375 L124.4932,1210.5313 Q124.4932,1211.1406 124.2588,1211.4063 Q124.04,1211.6563 123.6494,1211.6563 Q123.2744,1211.6563 123.04,1211.4063 Q122.8057,1211.1406 122.8057,1210.5313 L122.8057,1209.6406 L118.8369,1209.6406 L118.8369,1212.0938 L120.3213,1212.0938 Q120.3213,1211.4375 120.4463,1211.25 Q120.7119,1210.8438 121.1807,1210.8438 Q121.5557,1210.8438 121.79,1211.1094 Q122.0244,1211.3594 122.0244,1211.9688 L122.0244,1213.9375 Q122.0244,1214.4844 121.8994,1214.6719 Q121.6338,1215.0625 121.1807,1215.0625 Q120.7119,1215.0625 120.4463,1214.6563 Q120.3213,1214.4688 120.3213,1213.7969 L118.8369,1213.7969 Z " fill="#000000"/><text fill="#000000" font-family="sans-serif" font-size="14" lengthAdjust="spacing" textLength="75.4688" x="140.4775" y="1218.7969">SystemRole</text><line style="stroke:#181818;stroke-width:0.5;" x1="50" x2="273.9238" y1="1229" y2="1229"/><text fill="#000000" font-family="sans-serif" font-size="14" lengthAdjust="spacing" textLength="45.1104" x="55" y="1248.1074">ADMIN</text><text fill="#000000" font-family="sans-serif" font-size="14" lengthAdjust="spacing" textLength="110.4551" x="55" y="1266.7285">CRM_MANAGER</text><text fill="#000000" font-family="sans-serif" font-size="14" lengthAdjust="spacing" textLength="154.8066" x="55" y="1285.3496">CRM_COLLABORATOR</text><text fill="#000000" font-family="sans-serif" font-size="14" lengthAdjust="spacing" textLength="124.4619" x="55" y="1303.9707">SHOW_DESIGNER</text><text fill="#000000" font-family="sans-serif" font-size="14" lengthAdjust="spacing" textLength="213.9238" x="55" y="1322.5918">CUSTOMER_REPRESENTATIVE</text><line style="stroke:#181818;stroke-width:0.5;" x1="50" x2="273.9238" y1="1330.1055" y2="1330.1055"/></g><!--class Username--><g id="elem_Username"><rect codeLine="74" fill="#F1F1F1" height="79.2031" id="Username" rx="2.5" ry="2.5" style="stroke:#181818;stroke-width:0.5;" width="104.7168" x="310.5" y="1228"/><ellipse cx="325.5" cy="1250.291" fill="#ADD8E6" rx="11" ry="11" style="stroke:#181818;stroke-width:1.0;"/><path d="M326.0938,1253.5566 L328.5625,1247.6816 L328.1719,1247.6816 Q327.5625,1247.6816 327.2969,1247.4473 Q327.0313,1247.2129 327.0313,1246.8223 Q327.0313,1246.4473 327.2969,1246.2129 Q327.5625,1245.9785 328.1719,1245.9785 L330.4531,1245.9785 Q331.0625,1245.9785 331.3281,1246.2129 Q331.5938,1246.4473 331.5938,1246.8223 Q331.5938,1247.291 331.1875,1247.5566 Q331,1247.6816 330.4063,1247.6816 L326.9219,1256.041 L325.2813,1256.041 L321.7969,1247.6816 Q321.2031,1247.6816 321.0156,1247.5566 Q320.6094,1247.291 320.6094,1246.8223 Q320.6094,1246.4473 320.875,1246.2129 Q321.1406,1245.9785 321.75,1245.9785 L324.0469,1245.9785 Q324.6563,1245.9785 324.9063,1246.2129 Q325.1719,1246.4473 325.1719,1246.8223 Q325.1719,1247.2129 324.9063,1247.4473 Q324.6563,1247.6816 324.0469,1247.6816 L323.6406,1247.6816 L326.0938,1253.5566 Z " fill="#000000"/><text fill="#000000" font-family="sans-serif" font-size="12" font-style="italic" lengthAdjust="spacing" textLength="76.7168" x="337.5" y="1245.9492">&#171;valueObject&#187;</text><text fill="#000000" font-family="sans-serif" font-size="14" lengthAdjust="spacing" textLength="64.5791" x="343.5688" y="1264.0684">Username</text><line style="stroke:#181818;stroke-width:0.5;" x1="311.5" x2="414.2168" y1="1272.582" y2="1272.582"/><text fill="#000000" font-family="sans-serif" font-size="14" lengthAdjust="spacing" textLength="86.3721" x="316.5" y="1291.6895">-value : String</text><line style="stroke:#181818;stroke-width:0.5;" x1="311.5" x2="414.2168" y1="1299.2031" y2="1299.2031"/></g><!--class Password--><g id="elem_Password"><rect codeLine="78" fill="#F1F1F1" height="79.2031" id="Password" rx="2.5" ry="2.5" style="stroke:#181818;stroke-width:0.5;" width="104.7168" x="450.5" y="1228"/><ellipse cx="465.5" cy="1250.291" fill="#ADD8E6" rx="11" ry="11" style="stroke:#181818;stroke-width:1.0;"/><path d="M466.0938,1253.5566 L468.5625,1247.6816 L468.1719,1247.6816 Q467.5625,1247.6816 467.2969,1247.4473 Q467.0313,1247.2129 467.0313,1246.8223 Q467.0313,1246.4473 467.2969,1246.2129 Q467.5625,1245.9785 468.1719,1245.9785 L470.4531,1245.9785 Q471.0625,1245.9785 471.3281,1246.2129 Q471.5938,1246.4473 471.5938,1246.8223 Q471.5938,1247.291 471.1875,1247.5566 Q471,1247.6816 470.4063,1247.6816 L466.9219,1256.041 L465.2813,1256.041 L461.7969,1247.6816 Q461.2031,1247.6816 461.0156,1247.5566 Q460.6094,1247.291 460.6094,1246.8223 Q460.6094,1246.4473 460.875,1246.2129 Q461.1406,1245.9785 461.75,1245.9785 L464.0469,1245.9785 Q464.6563,1245.9785 464.9063,1246.2129 Q465.1719,1246.4473 465.1719,1246.8223 Q465.1719,1247.2129 464.9063,1247.4473 Q464.6563,1247.6816 464.0469,1247.6816 L463.6406,1247.6816 L466.0938,1253.5566 Z " fill="#000000"/><text fill="#000000" font-family="sans-serif" font-size="12" font-style="italic" lengthAdjust="spacing" textLength="76.7168" x="477.5" y="1245.9492">&#171;valueObject&#187;</text><text fill="#000000" font-family="sans-serif" font-size="14" lengthAdjust="spacing" textLength="61.4688" x="485.124" y="1264.0684">Password</text><line style="stroke:#181818;stroke-width:0.5;" x1="451.5" x2="554.2168" y1="1272.582" y2="1272.582"/><text fill="#000000" font-family="sans-serif" font-size="14" lengthAdjust="spacing" textLength="86.3721" x="456.5" y="1291.6895">-value : String</text><line style="stroke:#181818;stroke-width:0.5;" x1="451.5" x2="554.2168" y1="1299.2031" y2="1299.2031"/></g><!--link DeactivateUserAction to DeactivateUserUI--><g id="link_DeactivateUserAction_DeactivateUserUI"><path codeLine="82" d="M564,74.16 C564,96.32 564,120.28 564,146.69 " fill="none" id="DeactivateUserAction-to-DeactivateUserUI" style="stroke:#181818;stroke-width:1.0;stroke-dasharray:7.0,7.0;"/><polygon fill="#181818" points="564,152.69,568,143.69,564,147.69,560,143.69,564,152.69" style="stroke:#181818;stroke-width:1.0;"/><text fill="#000000" font-family="sans-serif" font-size="13" lengthAdjust="spacing" textLength="42.6309" x="565" y="119.0283">creates</text></g><!--link ActivateUserAction to ActivateUserUI--><g id="link_ActivateUserAction_ActivateUserUI"><path codeLine="83" d="M162,74.16 C162,96.32 162,120.28 162,146.69 " fill="none" id="ActivateUserAction-to-ActivateUserUI" style="stroke:#181818;stroke-width:1.0;stroke-dasharray:7.0,7.0;"/><polygon fill="#181818" points="162,152.69,166,143.69,162,147.69,158,143.69,162,152.69" style="stroke:#181818;stroke-width:1.0;"/><text fill="#000000" font-family="sans-serif" font-size="13" lengthAdjust="spacing" textLength="42.6309" x="163" y="119.0283">creates</text></g><!--link DeactivateUserUI to DeactivateUserController--><g id="link_DeactivateUserUI_DeactivateUserController"><path codeLine="85" d="M564,275.25 C564,300.18 564,323.04 564,347.96 " fill="none" id="DeactivateUserUI-to-DeactivateUserController" style="stroke:#181818;stroke-width:1.0;"/><polygon fill="#181818" points="564,353.96,568,344.96,564,348.96,560,344.96,564,353.96" style="stroke:#181818;stroke-width:1.0;"/><text fill="#000000" font-family="sans-serif" font-size="13" lengthAdjust="spacing" textLength="27.46" x="565" y="320.0283">uses</text><text fill="#000000" font-family="sans-serif" font-size="13" lengthAdjust="spacing" textLength="7.23" x="556.6132" y="342.9366">1</text></g><!--link ActivateUserUI to ActivateUserController--><g id="link_ActivateUserUI_ActivateUserController"><path codeLine="86" d="M162,275.25 C162,300.18 162,323.04 162,347.96 " fill="none" id="ActivateUserUI-to-ActivateUserController" style="stroke:#181818;stroke-width:1.0;"/><polygon fill="#181818" points="162,353.96,166,344.96,162,348.96,158,344.96,162,353.96" style="stroke:#181818;stroke-width:1.0;"/><text fill="#000000" font-family="sans-serif" font-size="13" lengthAdjust="spacing" textLength="27.46" x="163" y="320.0283">uses</text><text fill="#000000" font-family="sans-serif" font-size="13" lengthAdjust="spacing" textLength="7.23" x="154.5885" y="342.9366">1</text></g><!--link DeactivateUserController to AuthzRegistry--><g id="link_DeactivateUserController_AuthzRegistry"><path codeLine="88" d="M489.73,476.05 C464.68,496.3 441.9565,514.6685 419.0665,533.1685 " fill="none" id="DeactivateUserController-to-AuthzRegistry" style="stroke:#181818;stroke-width:1.0;stroke-dasharray:7.0,7.0;"/><polygon fill="#181818" points="414.4,536.94,423.914,534.3937,418.2887,533.7971,418.8854,528.1718,414.4,536.94" style="stroke:#181818;stroke-width:1.0;"/></g><!--link DeactivateUserController to UserManagementService--><g id="link_DeactivateUserController_UserManagementService"><path codeLine="89" d="M553.49,476.14 C542.86,536.94 528,622 528,622 C528,622 483.5884,659.4039 438.9984,696.9739 " fill="none" id="DeactivateUserController-to-UserManagementService" style="stroke:#181818;stroke-width:1.0;stroke-dasharray:7.0,7.0;"/><polygon fill="#181818" points="434.41,700.84,443.87,698.0999,438.2337,697.6183,438.7153,691.982,434.41,700.84" style="stroke:#181818;stroke-width:1.0;"/></g><!--link DeactivateUserController to SystemUser--><g id="link_DeactivateUserController_SystemUser"><path codeLine="90" d="M571.34,476.03 C573.35,492.54 575,506 575,506 C575,506 575,507 575,507 C575,507 543,823 543,823 C543,823 493.5327,874.1186 444.8127,924.4586 " fill="none" id="DeactivateUserController-to-SystemUser" style="stroke:#181818;stroke-width:1.0;stroke-dasharray:7.0,7.0;"/><polygon fill="#181818" points="440.64,928.77,449.7733,925.0846,444.1172,925.1771,444.0248,919.521,440.64,928.77" style="stroke:#181818;stroke-width:1.0;"/></g><!--link ActivateUserController to AuthzRegistry--><g id="link_ActivateUserController_AuthzRegistry"><path codeLine="92" d="M236.27,476.05 C261.32,496.3 284.0435,514.6685 306.9335,533.1685 " fill="none" id="ActivateUserController-to-AuthzRegistry" style="stroke:#181818;stroke-width:1.0;stroke-dasharray:7.0,7.0;"/><polygon fill="#181818" points="311.6,536.94,307.1146,528.1718,307.7113,533.7971,302.086,534.3937,311.6,536.94" style="stroke:#181818;stroke-width:1.0;"/></g><!--link ActivateUserController to UserManagementService--><g id="link_ActivateUserController_UserManagementService"><path codeLine="93" d="M172.22,476.14 C182.55,536.94 197,622 197,622 C197,622 241.6897,659.4181 286.5597,696.9881 " fill="none" id="ActivateUserController-to-UserManagementService" style="stroke:#181818;stroke-width:1.0;stroke-dasharray:7.0,7.0;"/><polygon fill="#181818" points="291.16,700.84,286.8274,691.9953,287.3264,697.6301,281.6916,698.1291,291.16,700.84" style="stroke:#181818;stroke-width:1.0;"/></g><!--link ActivateUserController to SystemUser--><g id="link_ActivateUserController_SystemUser"><path codeLine="94" d="M164.95,476.05 C170.51,589.27 182,823 182,823 C182,823 232.1457,874.5298 281.2657,925.0098 " fill="none" id="ActivateUserController-to-SystemUser" style="stroke:#181818;stroke-width:1.0;stroke-dasharray:7.0,7.0;"/><polygon fill="#181818" points="285.45,929.31,282.0403,920.0702,281.9631,925.7265,276.3067,925.6493,285.45,929.31" style="stroke:#181818;stroke-width:1.0;"/></g><!--link AuthzRegistry to UserManagementService--><g id="link_AuthzRegistry_UserManagementService"><path codeLine="96" d="M363,622.36 C363,645.69 363,669.14 363,694.9 " fill="none" id="AuthzRegistry-to-UserManagementService" style="stroke:#181818;stroke-width:1.0;"/><polygon fill="#181818" points="363,700.9,367,691.9,363,695.9,359,691.9,363,700.9" style="stroke:#181818;stroke-width:1.0;"/><text fill="#000000" font-family="sans-serif" font-size="13" lengthAdjust="spacing" textLength="49.1372" x="364" y="667.0283">provides</text><text fill="#000000" font-family="sans-serif" font-size="13" lengthAdjust="spacing" textLength="7.23" x="355.6132" y="689.8696">1</text></g><!--link UserManagementService to SystemUser--><g id="link_UserManagementService_SystemUser"><path codeLine="98" d="M363,823.18 C363,846.93 363,868.96 363,895.95 " fill="none" id="UserManagementService-to-SystemUser" style="stroke:#181818;stroke-width:1.0;stroke-dasharray:7.0,7.0;"/><polygon fill="#181818" points="363,901.95,367,892.95,363,896.95,359,892.95,363,901.95" style="stroke:#181818;stroke-width:1.0;"/><text fill="#000000" font-family="sans-serif" font-size="13" lengthAdjust="spacing" textLength="53.479" x="364" y="868.0283">manages</text></g><!--link SystemUser to SystemRole--><g id="link_SystemUser_SystemRole"><path codeLine="100" d="M285.29,1109.78 C262.42,1138.85 241.6001,1165.3146 220.4901,1192.1446 " fill="none" id="SystemUser-to-SystemRole" style="stroke:#181818;stroke-width:1.0;"/><polygon fill="#181818" points="216.78,1196.86,225.4888,1192.2603,219.8718,1192.9305,219.2016,1187.3135,216.78,1196.86" style="stroke:#181818;stroke-width:1.0;"/><text fill="#000000" font-family="sans-serif" font-size="13" lengthAdjust="spacing" textLength="20.96" x="252" y="1163.0283">has</text><text fill="#000000" font-family="sans-serif" font-size="13" lengthAdjust="spacing" textLength="19.5127" x="202.4799" y="1185.7366">1..*</text></g><!--link SystemUser to Username--><g id="link_SystemUser_Username"><path codeLine="101" d="M363,1118.24 C363,1157.16 363,1192.69 363,1221.87 " fill="none" id="SystemUser-to-Username" style="stroke:#181818;stroke-width:1.0;"/><polygon fill="#181818" points="363,1227.87,367,1218.87,363,1222.87,359,1218.87,363,1227.87" style="stroke:#181818;stroke-width:1.0;"/><text fill="#000000" font-family="sans-serif" font-size="13" lengthAdjust="spacing" textLength="20.96" x="364" y="1163.0283">has</text><text fill="#000000" font-family="sans-serif" font-size="13" lengthAdjust="spacing" textLength="7.23" x="355.4425" y="1216.6335">1</text></g><!--link SystemUser to Password--><g id="link_SystemUser_Password"><path codeLine="102" d="M421.76,1118.24 C443.09,1157.16 462.968,1193.4275 478.948,1222.6075 " fill="none" id="SystemUser-to-Password" style="stroke:#181818;stroke-width:1.0;"/><polygon fill="#181818" points="481.83,1227.87,481.0154,1218.0549,479.4284,1223.4845,473.9987,1221.8975,481.83,1227.87" style="stroke:#181818;stroke-width:1.0;"/><text fill="#000000" font-family="sans-serif" font-size="13" lengthAdjust="spacing" textLength="20.96" x="447" y="1163.0283">has</text><text fill="#000000" font-family="sans-serif" font-size="13" lengthAdjust="spacing" textLength="7.23" x="470.6339" y="1216.6335">1</text></g><!--SRC=[pLNVRzem47xFNs7HbtOCjBrC4q98Neawf09L0jrZPP8RU4tio3OmgFg_rtPDVa1W7TkayO9zzztTTvUxitoaB2E2f2WZqIEPGwWs2I01aI9ide0dSu1Sa9YlAPkZxoIHPKr26QXD1YZZoSPSIhee8L9YfGITBHKC8iv2kWNqmVEi1lM1H8gkY8Af187rcJFqv27zQoBu2P6skhn27JJZF072lEUT9JxJhXfnEd1MBQGMSCsP4Zn9G6ZBAh1GkI1omTUL24PyWM8UrYbQYCe0CW4Ic2BQBLmkfGqJRgI2r8JuPPedoEB_WEgnWkMaoL8jjeQi_kU2RedvQY685Ot0GKoaS1LfaF4n94ptPAfvb55DPEFOADBI7oWGP9P0js3OSz2uGge-a-9MN_T_cOhZzxPapap5S0rWJgKIctn8dgJvkD6pJMK_1KlaQ6ubOvjaoQO-rPnAhJgdTDPdZVz-vVwiSmfPtYt6bf4KN87CqMaoRR7c8jQQEtTq6eSFzUfaSoU3bD1aNwWx4wGHWke6-jpRjQYjvjvmD_LmszQ6WxalYcHLAqxZWqeK6fqki6NgiZLnNRQuFnoCxEaw63uCyGZV-45-lnxVtk8lum1Fng_2yElusqFV3mStenri6ax6Gpzu2Foxm0_zqGHF1lT-jObiTRhTo_ltw0Bt-v_zJrTeHP8bZ6S_zEFLw-MrjzAYPhcNNRdFzLBxShNRlSC7feCY0VegFLnlWO_XlGDVhLOFDJusZk_QZccsQgII6Jvfv1trQbcMryXfQFqME6bIcYGFlvK4_bqA-8q4AXjpLxpwvTL1cU0h6flwrIEgthL1QY4QNvA-1ccttpNA8zL12o8FOOrY1euYxehDOX0l]--></g></svg>