<svg xmlns="http://www.w3.org/2000/svg" xmlns:xlink="http://www.w3.org/1999/xlink" contentStyleType="text/css" height="1027.8px" preserveAspectRatio="none" style="width:1787px;height:1027px;background:#FFFFFF;" version="1.1" viewBox="0 0 1787 1027" width="1787.4px" zoomAndPan="magnify"><defs/><g><rect fill="#FFFFFF" height="853.098" style="stroke:#181818;stroke-width:0.9;" width="9" x="53.1154" y="84.259"/><rect fill="#FFFFFF" height="524.6789" style="stroke:#181818;stroke-width:0.9;" width="9" x="403.4096" y="105.2209"/><rect fill="#FFFFFF" height="279.2953" style="stroke:#181818;stroke-width:0.9;" width="9" x="403.4096" y="658.0617"/><rect fill="#FFFFFF" height="429.0961" style="stroke:#181818;stroke-width:0.9;" width="9" x="639.9163" y="172.6418"/><rect fill="#FFFFFF" height="222.9715" style="stroke:#181818;stroke-width:0.9;" width="9" x="639.9163" y="686.2236"/><rect fill="#FFFFFF" height="27" style="stroke:#181818;stroke-width:0.9;" width="9" x="1031.8021" y="200.8037"/><rect fill="#FFFFFF" height="317.6104" style="stroke:#181818;stroke-width:0.9;" width="9" x="1185.4191" y="255.9656"/><rect fill="#FFFFFF" height="38.0619" style="stroke:#181818;stroke-width:0.9;" width="9" x="1189.9191" y="291.3275"/><rect fill="#FFFFFF" height="28.1619" style="stroke:#181818;stroke-width:0.9;" width="9" x="1185.4191" y="714.3855"/><rect fill="#FFFFFF" height="67.4209" style="stroke:#181818;stroke-width:0.9;" width="9" x="1358.7908" y="443.5313"/><rect fill="#FFFFFF" height="27" style="stroke:#181818;stroke-width:0.9;" width="9" x="1358.7908" y="770.7094"/><rect fill="#FFFFFF" height="27" style="stroke:#181818;stroke-width:0.9;" width="9" x="1358.7908" y="825.8713"/><rect fill="none" height="141.1066" style="stroke:#000000;stroke-width:1.35;" width="640.8962" x="1102.1322" y="405.2074"/><line style="stroke:#181818;stroke-width:0.45;stroke-dasharray:5.0,5.0;" x1="57.6" x2="57.6" y1="75.259" y2="953.557"/><line style="stroke:#181818;stroke-width:0.45;stroke-dasharray:5.0,5.0;" x1="407.522" x2="407.522" y1="75.259" y2="953.557"/><line style="stroke:#181818;stroke-width:0.45;stroke-dasharray:5.0,5.0;" x1="643.7184" x2="643.7184" y1="141.0504" y2="953.557"/><line style="stroke:#181818;stroke-width:0.45;stroke-dasharray:5.0,5.0;" x1="1036.172" x2="1036.172" y1="75.259" y2="953.557"/><line style="stroke:#181818;stroke-width:0.45;stroke-dasharray:5.0,5.0;" x1="1189.4322" x2="1189.4322" y1="75.259" y2="953.557"/><line style="stroke:#181818;stroke-width:0.45;stroke-dasharray:5.0,5.0;" x1="1363.2166" x2="1363.2166" y1="75.259" y2="953.557"/><line style="stroke:#181818;stroke-width:0.45;stroke-dasharray:5.0,5.0;" x1="1505.7149" x2="1505.7149" y1="479.3607" y2="953.557"/><line style="stroke:#181818;stroke-width:0.45;stroke-dasharray:5.0,5.0;" x1="1654.0594" x2="1654.0594" y1="379.8984" y2="953.557"/><line style="stroke:#181818;stroke-width:0.45;stroke-dasharray:5.0,5.0;" x1="1761.9284" x2="1761.9284" y1="75.259" y2="953.557"/><text fill="#000000" font-family="sans-serif" font-size="12.6" lengthAdjust="spacing" textLength="100.8308" x="4.5" y="72.0967">CRM Collaborator</text><ellipse cx="57.6154" cy="12.15" fill="#E2E2F0" rx="7.2" ry="7.2" style="stroke:#181818;stroke-width:0.45;"/><path d="M57.6154,19.35 L57.6154,43.65 M45.9154,26.55 L69.3154,26.55 M57.6154,43.65 L45.9154,57.15 M57.6154,43.65 L69.3154,57.15 " fill="none" style="stroke:#181818;stroke-width:0.45;"/><text fill="#000000" font-family="sans-serif" font-size="12.6" lengthAdjust="spacing" textLength="100.8308" x="4.5" y="966.2537">CRM Collaborator</text><ellipse cx="57.6154" cy="977.066" fill="#E2E2F0" rx="7.2" ry="7.2" style="stroke:#181818;stroke-width:0.45;"/><path d="M57.6154,984.266 L57.6154,1008.566 M45.9154,991.466 L69.3154,991.466 M57.6154,1008.566 L45.9154,1022.066 M57.6154,1008.566 L69.3154,1022.066 " fill="none" style="stroke:#181818;stroke-width:0.45;"/><rect fill="#E2E2F0" height="29.359" rx="2.25" ry="2.25" style="stroke:#181818;stroke-width:0.45;" width="139.3752" x="338.222" y="45"/><text fill="#000000" font-family="sans-serif" font-size="12.6" lengthAdjust="spacing" textLength="126.7752" x="344.522" y="64.8967">:SendShowProposalUI</text><rect fill="#E2E2F0" height="29.359" rx="2.25" ry="2.25" style="stroke:#181818;stroke-width:0.45;" width="139.3752" x="338.222" y="952.657"/><text fill="#000000" font-family="sans-serif" font-size="12.6" lengthAdjust="spacing" textLength="126.7752" x="344.522" y="972.5537">:SendShowProposalUI</text><rect fill="#E2E2F0" height="29.359" rx="2.25" ry="2.25" style="stroke:#181818;stroke-width:0.45;" width="181.3957" x="553.7184" y="952.657"/><text fill="#000000" font-family="sans-serif" font-size="12.6" lengthAdjust="spacing" textLength="168.7957" x="560.0184" y="972.5537">:SendShowProposalController</text><rect fill="#E2E2F0" height="46.118" rx="2.25" ry="2.25" style="stroke:#181818;stroke-width:0.45;" width="131.6602" x="970.472" y="28.241"/><text fill="#000000" font-family="sans-serif" font-size="12.6" lengthAdjust="spacing" textLength="30.8232" x="1020.8905" y="48.1377">authz</text><text fill="#000000" font-family="sans-serif" font-size="12.6" lengthAdjust="spacing" textLength="119.0602" x="976.772" y="64.8967">:AuthorizationService</text><rect fill="#E2E2F0" height="46.118" rx="2.25" ry="2.25" style="stroke:#181818;stroke-width:0.45;" width="131.6602" x="970.472" y="952.657"/><text fill="#000000" font-family="sans-serif" font-size="12.6" lengthAdjust="spacing" textLength="30.8232" x="1020.8905" y="972.5537">authz</text><text fill="#000000" font-family="sans-serif" font-size="12.6" lengthAdjust="spacing" textLength="119.0602" x="976.772" y="989.3127">:AuthorizationService</text><rect fill="#E2E2F0" height="29.359" rx="2.25" ry="2.25" style="stroke:#181818;stroke-width:0.45;" width="157.5738" x="1111.1322" y="45"/><text fill="#000000" font-family="sans-serif" font-size="12.6" lengthAdjust="spacing" textLength="144.9738" x="1117.4322" y="64.8967">:ShowProposalRepository</text><rect fill="#E2E2F0" height="29.359" rx="2.25" ry="2.25" style="stroke:#181818;stroke-width:0.45;" width="157.5738" x="1111.1322" y="952.657"/><text fill="#000000" font-family="sans-serif" font-size="12.6" lengthAdjust="spacing" textLength="144.9738" x="1117.4322" y="972.5537">:ShowProposalRepository</text><rect fill="#E2E2F0" height="46.118" rx="2.25" ry="2.25" style="stroke:#181818;stroke-width:0.45;" width="97.3485" x="1314.6166" y="28.241"/><text fill="#000000" font-family="sans-serif" font-size="12.6" lengthAdjust="spacing" textLength="48.3328" x="1339.1244" y="48.1377">proposal</text><text fill="#000000" font-family="sans-serif" font-size="12.6" lengthAdjust="spacing" textLength="84.7485" x="1320.9166" y="64.8967">:ShowProposal</text><rect fill="#E2E2F0" height="46.118" rx="2.25" ry="2.25" style="stroke:#181818;stroke-width:0.45;" width="97.3485" x="1314.6166" y="952.657"/><text fill="#000000" font-family="sans-serif" font-size="12.6" lengthAdjust="spacing" textLength="48.3328" x="1339.1244" y="972.5537">proposal</text><text fill="#000000" font-family="sans-serif" font-size="12.6" lengthAdjust="spacing" textLength="84.7485" x="1320.9166" y="989.3127">:ShowProposal</text><rect fill="#E2E2F0" height="29.359" rx="2.25" ry="2.25" style="stroke:#181818;stroke-width:0.45;" width="120.4444" x="1446.3149" y="952.657"/><text fill="#000000" font-family="sans-serif" font-size="12.6" lengthAdjust="spacing" textLength="107.8444" x="1452.6149" y="972.5537">ShowProposalDTO</text><rect fill="#E2E2F0" height="46.118" rx="2.25" ry="2.25" style="stroke:#181818;stroke-width:0.45;" width="158.269" x="1575.7594" y="952.657"/><text fill="#000000" font-family="sans-serif" font-size="12.6" lengthAdjust="spacing" textLength="125.3479" x="1592.22" y="972.5537">showProposalDTOList</text><text fill="#000000" font-family="sans-serif" font-size="12.6" lengthAdjust="spacing" textLength="145.669" x="1582.0594" y="989.3127">:List&lt;ShowProposalDTO&gt;</text><rect fill="#E2E2F0" height="29.359" rx="2.25" ry="2.25" style="stroke:#181818;stroke-width:0.45;" width="39.2027" x="1743.0284" y="45"/><text fill="#000000" font-family="sans-serif" font-size="12.6" lengthAdjust="spacing" textLength="26.6027" x="1749.3284" y="64.8967">Files</text><rect fill="#E2E2F0" height="29.359" rx="2.25" ry="2.25" style="stroke:#181818;stroke-width:0.45;" width="39.2027" x="1743.0284" y="952.657"/><text fill="#000000" font-family="sans-serif" font-size="12.6" lengthAdjust="spacing" textLength="26.6027" x="1749.3284" y="972.5537">Files</text><rect fill="#FFFFFF" height="853.098" style="stroke:#181818;stroke-width:0.9;" width="9" x="53.1154" y="84.259"/><rect fill="#FFFFFF" height="524.6789" style="stroke:#181818;stroke-width:0.9;" width="9" x="403.4096" y="105.2209"/><rect fill="#FFFFFF" height="279.2953" style="stroke:#181818;stroke-width:0.9;" width="9" x="403.4096" y="658.0617"/><rect fill="#FFFFFF" height="429.0961" style="stroke:#181818;stroke-width:0.9;" width="9" x="639.9163" y="172.6418"/><rect fill="#FFFFFF" height="222.9715" style="stroke:#181818;stroke-width:0.9;" width="9" x="639.9163" y="686.2236"/><rect fill="#FFFFFF" height="27" style="stroke:#181818;stroke-width:0.9;" width="9" x="1031.8021" y="200.8037"/><rect fill="#FFFFFF" height="317.6104" style="stroke:#181818;stroke-width:0.9;" width="9" x="1185.4191" y="255.9656"/><rect fill="#FFFFFF" height="38.0619" style="stroke:#181818;stroke-width:0.9;" width="9" x="1189.9191" y="291.3275"/><rect fill="#FFFFFF" height="28.1619" style="stroke:#181818;stroke-width:0.9;" width="9" x="1185.4191" y="714.3855"/><rect fill="#FFFFFF" height="67.4209" style="stroke:#181818;stroke-width:0.9;" width="9" x="1358.7908" y="443.5313"/><rect fill="#FFFFFF" height="27" style="stroke:#181818;stroke-width:0.9;" width="9" x="1358.7908" y="770.7094"/><rect fill="#FFFFFF" height="27" style="stroke:#181818;stroke-width:0.9;" width="9" x="1358.7908" y="825.8713"/><polygon fill="#181818" points="392.6096,101.6209,401.6096,105.2209,392.6096,108.8209,396.2096,105.2209" style="stroke:#181818;stroke-width:0.9;"/><line style="stroke:#181818;stroke-width:0.9;" x1="62.1154" x2="398.0096" y1="105.2209" y2="105.2209"/><text fill="#000000" font-family="sans-serif" font-size="11.7" font-weight="bold" lengthAdjust="spacing" textLength="6.507" x="68.4154" y="100.4845">1</text><text fill="#000000" font-family="sans-serif" font-size="11.7" lengthAdjust="spacing" textLength="154.1395" x="78.5224" y="100.4845">asks to send a show proposal</text><polygon fill="#181818" points="542.9184,129.7828,551.9184,133.3828,542.9184,136.9828,546.5184,133.3828" style="stroke:#181818;stroke-width:0.9;"/><line style="stroke:#181818;stroke-width:0.9;" x1="412.4096" x2="548.3184" y1="133.3828" y2="133.3828"/><text fill="#000000" font-family="sans-serif" font-size="11.7" font-weight="bold" lengthAdjust="spacing" textLength="6.507" x="418.7096" y="128.6464">2</text><text fill="#000000" font-family="sans-serif" font-size="11.7" lengthAdjust="spacing" textLength="40.3102" x="428.8166" y="128.6464">create()</text><rect fill="#E2E2F0" height="29.359" rx="2.25" ry="2.25" style="stroke:#181818;stroke-width:0.45;" width="181.3957" x="553.7184" y="112.4209"/><text fill="#000000" font-family="sans-serif" font-size="12.6" lengthAdjust="spacing" textLength="168.7957" x="560.0184" y="132.3176">:SendShowProposalController</text><polygon fill="#181818" points="629.1163,169.0418,638.1163,172.6418,629.1163,176.2418,632.7163,172.6418" style="stroke:#181818;stroke-width:0.9;"/><line style="stroke:#181818;stroke-width:0.9;" x1="412.4096" x2="634.5163" y1="172.6418" y2="172.6418"/><text fill="#000000" font-family="sans-serif" font-size="11.7" font-weight="bold" lengthAdjust="spacing" textLength="6.507" x="418.7096" y="167.9054">3</text><text fill="#000000" font-family="sans-serif" font-size="11.7" lengthAdjust="spacing" textLength="130.0654" x="428.8166" y="167.9054">getAllProposalsToSend()</text><polygon fill="#181818" points="1021.0021,197.2037,1030.0021,200.8037,1021.0021,204.4037,1024.6021,200.8037" style="stroke:#181818;stroke-width:0.9;"/><line style="stroke:#181818;stroke-width:0.9;" x1="648.9163" x2="1026.4021" y1="200.8037" y2="200.8037"/><text fill="#000000" font-family="sans-serif" font-size="11.7" font-weight="bold" lengthAdjust="spacing" textLength="6.507" x="655.2163" y="196.0673">4</text><text fill="#000000" font-family="sans-serif" font-size="11.7" lengthAdjust="spacing" textLength="355.6789" x="665.3232" y="196.0673">ensureAuthenticatedUserHasAnyOf(Roles.CRM_COLLABORATOR)</text><polygon fill="#181818" points="1174.6191,252.3656,1183.6191,255.9656,1174.6191,259.5656,1178.2191,255.9656" style="stroke:#181818;stroke-width:0.9;"/><line style="stroke:#181818;stroke-width:0.9;" x1="648.9163" x2="1180.0191" y1="255.9656" y2="255.9656"/><text fill="#000000" font-family="sans-serif" font-size="11.7" font-weight="bold" lengthAdjust="spacing" textLength="6.507" x="655.2163" y="251.2292">5</text><text fill="#000000" font-family="sans-serif" font-size="11.7" lengthAdjust="spacing" textLength="157.3616" x="665.3232" y="251.2292">findAllProposalsToSendDTO()</text><line style="stroke:#181818;stroke-width:0.9;" x1="1194.4191" x2="1236.7191" y1="279.6275" y2="279.6275"/><line style="stroke:#181818;stroke-width:0.9;" x1="1236.7191" x2="1236.7191" y1="279.6275" y2="291.3275"/><line style="stroke:#181818;stroke-width:0.9;" x1="1199.8191" x2="1236.7191" y1="291.3275" y2="291.3275"/><polygon fill="#181818" points="1208.8191,287.7275,1199.8191,291.3275,1208.8191,294.9275,1205.2191,291.3275" style="stroke:#181818;stroke-width:0.9;"/><text fill="#000000" font-family="sans-serif" font-size="11.7" font-weight="bold" lengthAdjust="spacing" textLength="6.507" x="1205.2191" y="274.8911">6</text><text fill="#000000" font-family="sans-serif" font-size="11.7" lengthAdjust="spacing" textLength="132.6647" x="1215.3261" y="274.8911">findAllProposalsToSend()</text><line style="stroke:#181818;stroke-width:0.9;stroke-dasharray:2.0,2.0;" x1="1198.9191" x2="1236.7191" y1="328.4895" y2="328.4895"/><line style="stroke:#181818;stroke-width:0.9;stroke-dasharray:2.0,2.0;" x1="1236.7191" x2="1236.7191" y1="328.4895" y2="340.1895"/><line style="stroke:#181818;stroke-width:0.9;stroke-dasharray:2.0,2.0;" x1="1194.4191" x2="1236.7191" y1="340.1895" y2="340.1895"/><polygon fill="#181818" points="1203.4191,336.5895,1194.4191,340.1895,1203.4191,343.7895,1199.8191,340.1895" style="stroke:#181818;stroke-width:0.9;"/><text fill="#000000" font-family="sans-serif" font-size="11.7" font-weight="bold" lengthAdjust="spacing" textLength="6.507" x="1205.2191" y="323.753">7</text><text fill="#000000" font-family="sans-serif" font-size="11.7" lengthAdjust="spacing" textLength="50.7305" x="1215.3261" y="323.753">proposals</text><polygon fill="#181818" points="1564.9594,360.2514,1573.9594,363.8514,1564.9594,367.4514,1568.5594,363.8514" style="stroke:#181818;stroke-width:0.9;"/><line style="stroke:#181818;stroke-width:0.9;" x1="1194.4191" x2="1570.3594" y1="363.8514" y2="363.8514"/><text fill="#000000" font-family="sans-serif" font-size="11.7" font-weight="bold" lengthAdjust="spacing" textLength="6.507" x="1200.7191" y="359.1149">8</text><text fill="#000000" font-family="sans-serif" font-size="11.7" lengthAdjust="spacing" textLength="40.3102" x="1210.8261" y="359.1149">create()</text><rect fill="#E2E2F0" height="46.118" rx="2.25" ry="2.25" style="stroke:#181818;stroke-width:0.45;" width="158.269" x="1575.7594" y="342.8895"/><text fill="#000000" font-family="sans-serif" font-size="12.6" lengthAdjust="spacing" textLength="125.3479" x="1592.22" y="362.7861">showProposalDTOList</text><text fill="#000000" font-family="sans-serif" font-size="12.6" lengthAdjust="spacing" textLength="145.669" x="1582.0594" y="379.5451">:List&lt;ShowProposalDTO&gt;</text><path d="M1102.1322,405.2074 L1167.3233,405.2074 L1167.3233,413.5693 L1158.3233,422.5693 L1102.1322,422.5693 L1102.1322,405.2074 " fill="#EEEEEE" style="stroke:#000000;stroke-width:1.35;"/><rect fill="none" height="141.1066" style="stroke:#000000;stroke-width:1.35;" width="640.8962" x="1102.1322" y="405.2074"/><text fill="#000000" font-family="sans-serif" font-size="11.7" font-weight="bold" lengthAdjust="spacing" textLength="24.6911" x="1115.6322" y="418.7329">loop</text><text fill="#000000" font-family="sans-serif" font-size="9.9" font-weight="bold" lengthAdjust="spacing" textLength="317.3801" x="1180.8233" y="417.6905">[for each proposal with CREATED, REJECTED or ABORTED status]</text><polygon fill="#181818" points="1347.9908,439.9313,1356.9908,443.5313,1347.9908,447.1313,1351.5908,443.5313" style="stroke:#181818;stroke-width:0.9;"/><line style="stroke:#181818;stroke-width:0.9;" x1="1194.4191" x2="1353.3908" y1="443.5313" y2="443.5313"/><text fill="#000000" font-family="sans-serif" font-size="11.7" font-weight="bold" lengthAdjust="spacing" textLength="6.507" x="1200.7191" y="438.7948">9</text><text fill="#000000" font-family="sans-serif" font-size="11.7" lengthAdjust="spacing" textLength="42.2468" x="1210.8261" y="438.7948">toDTO()</text><polygon fill="#181818" points="1435.5149,468.0932,1444.5149,471.6932,1435.5149,475.2932,1439.1149,471.6932" style="stroke:#181818;stroke-width:0.9;"/><line style="stroke:#181818;stroke-width:0.9;" x1="1367.7908" x2="1440.9149" y1="471.6932" y2="471.6932"/><text fill="#000000" font-family="sans-serif" font-size="11.7" font-weight="bold" lengthAdjust="spacing" textLength="13.014" x="1374.0908" y="466.9567">10</text><text fill="#000000" font-family="sans-serif" font-size="11.7" lengthAdjust="spacing" textLength="40.3102" x="1390.7048" y="466.9567">create()</text><rect fill="#E2E2F0" height="29.359" rx="2.25" ry="2.25" style="stroke:#181818;stroke-width:0.45;" width="120.4444" x="1446.3149" y="450.7313"/><text fill="#000000" font-family="sans-serif" font-size="12.6" lengthAdjust="spacing" textLength="107.8444" x="1452.6149" y="470.6279">ShowProposalDTO</text><polygon fill="#181818" points="1204.3191,507.3521,1195.3191,510.9521,1204.3191,514.5521,1200.7191,510.9521" style="stroke:#181818;stroke-width:0.9;"/><line style="stroke:#181818;stroke-width:0.9;stroke-dasharray:2.0,2.0;" x1="1198.9191" x2="1362.3908" y1="510.9521" y2="510.9521"/><text fill="#000000" font-family="sans-serif" font-size="11.7" font-weight="bold" lengthAdjust="spacing" textLength="13.014" x="1209.7191" y="506.2157">11</text><text fill="#000000" font-family="sans-serif" font-size="11.7" lengthAdjust="spacing" textLength="69.5773" x="1226.3331" y="506.2157">proposalDTO</text><polygon fill="#181818" points="1644.0939,535.5141,1653.0939,539.1141,1644.0939,542.7141,1647.6939,539.1141" style="stroke:#181818;stroke-width:0.9;"/><line style="stroke:#181818;stroke-width:0.9;" x1="1194.4191" x2="1649.4939" y1="539.1141" y2="539.1141"/><text fill="#000000" font-family="sans-serif" font-size="11.7" font-weight="bold" lengthAdjust="spacing" textLength="13.014" x="1200.7191" y="534.3776">12</text><text fill="#000000" font-family="sans-serif" font-size="11.7" lengthAdjust="spacing" textLength="96.8906" x="1217.3331" y="534.3776">add(proposalDTO)</text><polygon fill="#181818" points="658.8163,569.976,649.8163,573.576,658.8163,577.176,655.2163,573.576" style="stroke:#181818;stroke-width:0.9;"/><line style="stroke:#181818;stroke-width:0.9;stroke-dasharray:2.0,2.0;" x1="653.4163" x2="1189.0191" y1="573.576" y2="573.576"/><text fill="#000000" font-family="sans-serif" font-size="11.7" font-weight="bold" lengthAdjust="spacing" textLength="13.014" x="664.2163" y="568.8396">13</text><text fill="#000000" font-family="sans-serif" font-size="11.7" lengthAdjust="spacing" textLength="93.6343" x="680.8302" y="568.8396">proposalsDTOList</text><polygon fill="#181818" points="422.3096,598.1379,413.3096,601.7379,422.3096,605.3379,418.7096,601.7379" style="stroke:#181818;stroke-width:0.9;"/><line style="stroke:#181818;stroke-width:0.9;stroke-dasharray:2.0,2.0;" x1="416.9096" x2="643.5163" y1="601.7379" y2="601.7379"/><text fill="#000000" font-family="sans-serif" font-size="11.7" font-weight="bold" lengthAdjust="spacing" textLength="13.014" x="427.7096" y="597.0015">14</text><text fill="#000000" font-family="sans-serif" font-size="11.7" lengthAdjust="spacing" textLength="93.6343" x="444.3236" y="597.0015">proposalsDTOList</text><polygon fill="#181818" points="72.0154,626.2998,63.0154,629.8998,72.0154,633.4998,68.4154,629.8998" style="stroke:#181818;stroke-width:0.9;"/><line style="stroke:#181818;stroke-width:0.9;stroke-dasharray:2.0,2.0;" x1="66.6154" x2="407.0096" y1="629.8998" y2="629.8998"/><text fill="#000000" font-family="sans-serif" font-size="11.7" font-weight="bold" lengthAdjust="spacing" textLength="13.014" x="77.4154" y="625.1634">15</text><text fill="#000000" font-family="sans-serif" font-size="11.7" lengthAdjust="spacing" textLength="303.0803" x="94.0293" y="625.1634">displays proposals ready to be sent and asks to select one</text><polygon fill="#181818" points="392.6096,654.4617,401.6096,658.0617,392.6096,661.6617,396.2096,658.0617" style="stroke:#181818;stroke-width:0.9;"/><line style="stroke:#181818;stroke-width:0.9;" x1="62.1154" x2="398.0096" y1="658.0617" y2="658.0617"/><text fill="#000000" font-family="sans-serif" font-size="11.7" font-weight="bold" lengthAdjust="spacing" textLength="13.014" x="68.4154" y="653.3253">16</text><text fill="#000000" font-family="sans-serif" font-size="11.7" lengthAdjust="spacing" textLength="135.9325" x="85.0293" y="653.3253">selects a proposal to send</text><polygon fill="#181818" points="629.1163,682.6236,638.1163,686.2236,629.1163,689.8236,632.7163,686.2236" style="stroke:#181818;stroke-width:0.9;"/><line style="stroke:#181818;stroke-width:0.9;" x1="412.4096" x2="634.5163" y1="686.2236" y2="686.2236"/><text fill="#000000" font-family="sans-serif" font-size="11.7" font-weight="bold" lengthAdjust="spacing" textLength="13.014" x="418.7096" y="681.4872">17</text><text fill="#000000" font-family="sans-serif" font-size="11.7" lengthAdjust="spacing" textLength="193.7927" x="435.3236" y="681.4872">sendProposal(selectedProposalDTO)</text><polygon fill="#181818" points="1174.6191,710.7855,1183.6191,714.3855,1174.6191,717.9855,1178.2191,714.3855" style="stroke:#181818;stroke-width:0.9;"/><line style="stroke:#181818;stroke-width:0.9;" x1="648.9163" x2="1180.0191" y1="714.3855" y2="714.3855"/><text fill="#000000" font-family="sans-serif" font-size="11.7" font-weight="bold" lengthAdjust="spacing" textLength="13.014" x="655.2163" y="709.6491">18</text><text fill="#000000" font-family="sans-serif" font-size="11.7" lengthAdjust="spacing" textLength="311.4725" x="671.8302" y="709.6491">findByProposalNumber(selectedProposalDTO.getNumber())</text><polygon fill="#181818" points="658.8163,738.9475,649.8163,742.5475,658.8163,746.1475,655.2163,742.5475" style="stroke:#181818;stroke-width:0.9;"/><line style="stroke:#181818;stroke-width:0.9;stroke-dasharray:2.0,2.0;" x1="653.4163" x2="1189.0191" y1="742.5475" y2="742.5475"/><text fill="#000000" font-family="sans-serif" font-size="11.7" font-weight="bold" lengthAdjust="spacing" textLength="13.014" x="664.2163" y="737.811">19</text><text fill="#000000" font-family="sans-serif" font-size="11.7" lengthAdjust="spacing" textLength="44.8805" x="680.8302" y="737.811">proposal</text><polygon fill="#181818" points="1347.9908,767.1094,1356.9908,770.7094,1347.9908,774.3094,1351.5908,770.7094" style="stroke:#181818;stroke-width:0.9;"/><line style="stroke:#181818;stroke-width:0.9;" x1="648.9163" x2="1353.3908" y1="770.7094" y2="770.7094"/><text fill="#000000" font-family="sans-serif" font-size="11.7" font-weight="bold" lengthAdjust="spacing" textLength="13.014" x="655.2163" y="765.9729">20</text><text fill="#000000" font-family="sans-serif" font-size="11.7" lengthAdjust="spacing" textLength="182.7439" x="671.8302" y="765.9729">changeProposalText(proposalText)</text><polygon fill="#181818" points="1347.9908,822.2713,1356.9908,825.8713,1347.9908,829.4713,1351.5908,825.8713" style="stroke:#181818;stroke-width:0.9;"/><line style="stroke:#181818;stroke-width:0.9;" x1="648.9163" x2="1353.3908" y1="825.8713" y2="825.8713"/><text fill="#000000" font-family="sans-serif" font-size="11.7" font-weight="bold" lengthAdjust="spacing" textLength="13.014" x="655.2163" y="821.1349">21</text><text fill="#000000" font-family="sans-serif" font-size="11.7" lengthAdjust="spacing" textLength="293.2941" x="671.8302" y="821.1349">changeProposalStatus(ShowProposalStatus.PENDENT)</text><polygon fill="#181818" points="1179.1191,877.4332,1188.1191,881.0332,1179.1191,884.6332,1182.7191,881.0332" style="stroke:#181818;stroke-width:0.9;"/><line style="stroke:#181818;stroke-width:0.9;" x1="648.9163" x2="1184.5191" y1="881.0332" y2="881.0332"/><text fill="#000000" font-family="sans-serif" font-size="11.7" font-weight="bold" lengthAdjust="spacing" textLength="13.014" x="655.2163" y="876.2968">22</text><text fill="#000000" font-family="sans-serif" font-size="11.7" lengthAdjust="spacing" textLength="77.3868" x="671.8302" y="876.2968">save(proposal)</text><polygon fill="#181818" points="422.3096,905.5951,413.3096,909.1951,422.3096,912.7951,418.7096,909.1951" style="stroke:#181818;stroke-width:0.9;"/><line style="stroke:#181818;stroke-width:0.9;stroke-dasharray:2.0,2.0;" x1="416.9096" x2="643.5163" y1="909.1951" y2="909.1951"/><text fill="#000000" font-family="sans-serif" font-size="11.7" font-weight="bold" lengthAdjust="spacing" textLength="13.014" x="427.7096" y="904.4587">23</text><text fill="#000000" font-family="sans-serif" font-size="11.7" lengthAdjust="spacing" textLength="92.9887" x="444.3236" y="904.4587">success message</text><polygon fill="#181818" points="67.5154,933.757,58.5154,937.357,67.5154,940.957,63.9154,937.357" style="stroke:#181818;stroke-width:0.9;"/><line style="stroke:#181818;stroke-width:0.9;stroke-dasharray:2.0,2.0;" x1="62.1154" x2="407.0096" y1="937.357" y2="937.357"/><text fill="#000000" font-family="sans-serif" font-size="11.7" font-weight="bold" lengthAdjust="spacing" textLength="13.014" x="72.9154" y="932.6206">24</text><text fill="#000000" font-family="sans-serif" font-size="11.7" lengthAdjust="spacing" textLength="190.5478" x="89.5293" y="932.6206">displays operation success message</text><!--SRC=[jLRRRfj047tdAqPvgHsr-G2hYaGSehYYmGBy4bMADZ0sA7WNxQwJEb_VMMvXRNn9g_9WC3jppipEp5c-g9USbqooDQm55qacnHf1omqw7oibIrxO2YEzBH0a9fhnLT4tK1bBnLlELx1aXKB7OHij-6RzZ9AU4oqaN4p3dp0LHS6UXMJqvWAOWcdW- -wDGoWwJ_AISGqNamXv6cNYRIv5AHGh5hFATZ4xOJSLN4jYm0Ox3dtRWwBAtd_nYKjt8VDtfdF18vIlUOALYxk8xnztMNeC8T8jf-2tbVay3EP1vFfFeJSFRBUoyI2sFe3bPdlqpMxZm2QW5xQrigtzN6cYChVlEq3NUqXF_YoA7HllBYzGLPPtCz-BgghbhqnZMoAWgtw4RzTK2vYGyOi2BK1H7O212GdQl2lx3eDA1yr5dkHlQdDvIHY9H38OZGVMQNM5sYsADXaL2rFodl57aARMqBig00AgAaf8oDL6eYaySigQVDA5GddFbCktmN8K2ih_YdhqgKuo2Dqu2CSMPiTMjqb_ASKZYsqiLhjGJCkSf_lfKO561tZjVkkRsD1dS_qpqG1Jsm7gq0RzJHPjrmxtZBaA8KfOaj0GKTO50M-vpc0QUcxitNw5qFlXJUa9oCxKs3mgpVJ63lPeB1I05lj56jo_WwYxoHtEo_Owijz68dOT1tRz_4IxJJUZdgQZ7f4T8ZMISw99cddkUgEHBEVpFL8FKoj1Uu03M9KsMFfY0ggbR09fhig2RTK759rmBDqQONj6esqQcD6tJkmAEW11S7HsU4ZaXbIoTb0aa5rJDffvXaPM_ZnjntPKWs4w7wh5WOnFIT3DjaLxg4xi8P8hKk9cTVnfpJYh9SxhXAD9cH7AwDC4sy1Z_AsxjZL_JeH-AePFqaULiepwvt7zwchkFTnw3_5_3QSjiMAls6t2s3aoJ6gJ9AWKhEc7FlSEpjB9KH8bokhRQX3I7fa-UFsbyGS0]--></g></svg>