<svg xmlns="http://www.w3.org/2000/svg" xmlns:xlink="http://www.w3.org/1999/xlink" contentStyleType="text/css" height="1044.4px" preserveAspectRatio="none" style="width:457px;height:1044px;background:#FFFFFF;" version="1.1" viewBox="0 0 457 1044" width="457.8px" zoomAndPan="magnify"><defs/><g><!--class SendShowProposalUI--><g id="elem_SendShowProposalUI"><rect codeLine="9" fill="#F1F1F1" height="72.7043" id="SendShowProposalUI" rx="1.75" ry="1.75" style="stroke:#181818;stroke-width:0.3499999999999999;" width="188.6999" x="214.9" y="4.9"/><ellipse cx="258.3349" cy="16.1" fill="#ADD1B2" rx="7.7" ry="7.7" style="stroke:#181818;stroke-width:0.6999999999999998;"/><path d="M260.2708,13.2125 Q260.3802,13.0594 260.5114,12.9828 Q260.6427,12.9062 260.7958,12.9062 Q261.0583,12.9062 261.2224,13.0922 Q261.3864,13.2672 261.3864,13.6937 L261.3864,14.7109 Q261.3864,15.1375 261.2224,15.3234 Q261.0583,15.5094 260.7958,15.5094 Q260.5552,15.5094 260.413,15.3672 Q260.2708,15.2359 260.1942,14.875 Q260.1614,14.6234 260.0302,14.4922 Q259.8005,14.2297 259.3739,14.0766 Q258.9474,13.9234 258.5099,13.9234 Q257.9739,13.9234 257.5255,14.1531 Q257.088,14.3828 256.738,14.9078 Q256.3989,15.4328 256.3989,16.1547 L256.3989,16.9203 Q256.3989,17.7844 257.0224,18.3641 Q257.6458,18.9328 258.7614,18.9328 Q259.4177,18.9328 259.8771,18.7578 Q260.1505,18.6484 260.4458,18.3422 Q260.6317,18.1562 260.7302,18.1016 Q260.8396,18.0469 260.9817,18.0469 Q261.2114,18.0469 261.3864,18.2328 Q261.5724,18.4078 261.5724,18.6484 Q261.5724,18.8891 261.3317,19.1734 Q260.9817,19.5781 260.4239,19.8078 Q259.6692,20.125 258.7614,20.125 Q257.7005,20.125 256.8583,19.6875 Q256.1692,19.3375 255.688,18.5937 Q255.2067,17.8391 255.2067,16.9422 L255.2067,16.1328 Q255.2067,15.2031 255.6333,14.4047 Q256.0708,13.5953 256.8364,13.1687 Q257.6021,12.7312 258.4661,12.7312 Q258.9802,12.7312 259.4286,12.8516 Q259.888,12.9609 260.2708,13.2125 Z " fill="#000000"/><text fill="#000000" font-family="sans-serif" font-size="9.8" lengthAdjust="spacing" textLength="95.8802" x="272.6849" y="20.1578">SendShowProposalUI</text><line style="stroke:#181818;stroke-width:0.3499999999999999;" x1="215.6" x2="402.8999" y1="27.3" y2="27.3"/><text fill="#000000" font-family="sans-serif" font-size="9.8" lengthAdjust="spacing" textLength="180.2999" x="219.1" y="40.6752">-controller : SendShowProposalController</text><line style="stroke:#181818;stroke-width:0.3499999999999999;" x1="215.6" x2="402.8999" y1="45.9348" y2="45.9348"/><text fill="#000000" font-family="sans-serif" font-size="9.8" lengthAdjust="spacing" textLength="90.7122" x="219.1" y="59.31">+doShow() : boolean</text><text fill="#000000" font-family="sans-serif" font-size="9.8" lengthAdjust="spacing" textLength="83.0751" x="219.1" y="72.3447">+headline() : String</text></g><!--class SendShowProposalController--><g id="elem_SendShowProposalController"><rect codeLine="15" fill="#F1F1F1" height="85.7391" id="SendShowProposalController" rx="1.75" ry="1.75" style="stroke:#181818;stroke-width:0.3499999999999999;" width="259.2475" x="96.6" y="119.7"/><ellipse cx="158.9673" cy="130.9" fill="#ADD1B2" rx="7.7" ry="7.7" style="stroke:#181818;stroke-width:0.6999999999999998;"/><path d="M160.9033,128.0125 Q161.0126,127.8594 161.1439,127.7828 Q161.2751,127.7062 161.4283,127.7062 Q161.6908,127.7062 161.8548,127.8922 Q162.0189,128.0672 162.0189,128.4937 L162.0189,129.5109 Q162.0189,129.9375 161.8548,130.1234 Q161.6908,130.3094 161.4283,130.3094 Q161.1876,130.3094 161.0455,130.1672 Q160.9033,130.0359 160.8267,129.675 Q160.7939,129.4234 160.6626,129.2922 Q160.433,129.0297 160.0064,128.8766 Q159.5798,128.7234 159.1423,128.7234 Q158.6064,128.7234 158.158,128.9531 Q157.7205,129.1828 157.3705,129.7078 Q157.0314,130.2328 157.0314,130.9547 L157.0314,131.7203 Q157.0314,132.5844 157.6548,133.1641 Q158.2783,133.7328 159.3939,133.7328 Q160.0501,133.7328 160.5095,133.5578 Q160.783,133.4484 161.0783,133.1422 Q161.2642,132.9562 161.3626,132.9016 Q161.472,132.8469 161.6142,132.8469 Q161.8439,132.8469 162.0189,133.0328 Q162.2048,133.2078 162.2048,133.4484 Q162.2048,133.6891 161.9642,133.9734 Q161.6142,134.3781 161.0564,134.6078 Q160.3017,134.925 159.3939,134.925 Q158.333,134.925 157.4908,134.4875 Q156.8017,134.1375 156.3205,133.3937 Q155.8392,132.6391 155.8392,131.7422 L155.8392,130.9328 Q155.8392,130.0031 156.2658,129.2047 Q156.7033,128.3953 157.4689,127.9687 Q158.2345,127.5312 159.0986,127.5312 Q159.6126,127.5312 160.0611,127.6516 Q160.5205,127.7609 160.9033,128.0125 Z " fill="#000000"/><text fill="#000000" font-family="sans-serif" font-size="9.8" lengthAdjust="spacing" textLength="128.5628" x="173.3173" y="134.9578">SendShowProposalController</text><line style="stroke:#181818;stroke-width:0.3499999999999999;" x1="97.3" x2="355.1475" y1="142.1" y2="142.1"/><text fill="#000000" font-family="sans-serif" font-size="9.8" lengthAdjust="spacing" textLength="141.0808" x="100.8" y="155.4752">-repo : ShowProposalRepository</text><text fill="#000000" font-family="sans-serif" font-size="9.8" lengthAdjust="spacing" textLength="125.285" x="100.8" y="168.51">-authz : AuthorizationService</text><line style="stroke:#181818;stroke-width:0.3499999999999999;" x1="97.3" x2="355.1475" y1="173.7695" y2="173.7695"/><text fill="#000000" font-family="sans-serif" font-size="9.8" lengthAdjust="spacing" textLength="250.8475" x="100.8" y="187.1447">+getAllProposalsToSend() : Iterable&lt;ShowProposalDTO&gt;</text><text fill="#000000" font-family="sans-serif" font-size="9.8" lengthAdjust="spacing" textLength="248.6511" x="100.8" y="200.1795">+sendProposal(proposalDTO : ShowProposalDTO) : void</text></g><!--class ShowProposal--><g id="elem_ShowProposal"><rect codeLine="22" fill="#F1F1F1" height="368.2766" id="ShowProposal" rx="1.75" ry="1.75" style="stroke:#181818;stroke-width:0.3499999999999999;" width="309.3576" x="28" y="374.5"/><ellipse cx="148.1074" cy="390.1037" fill="#ADD1B2" rx="7.7" ry="7.7" style="stroke:#181818;stroke-width:0.6999999999999998;"/><path d="M150.0434,387.2162 Q150.1527,387.0631 150.284,386.9865 Q150.4152,386.91 150.5684,386.91 Q150.8309,386.91 150.9949,387.0959 Q151.159,387.2709 151.159,387.6975 L151.159,388.7146 Q151.159,389.1412 150.9949,389.3271 Q150.8309,389.5131 150.5684,389.5131 Q150.3277,389.5131 150.1855,389.3709 Q150.0434,389.2396 149.9668,388.8787 Q149.934,388.6271 149.8027,388.4959 Q149.573,388.2334 149.1465,388.0803 Q148.7199,387.9271 148.2824,387.9271 Q147.7465,387.9271 147.298,388.1568 Q146.8605,388.3865 146.5105,388.9115 Q146.1715,389.4365 146.1715,390.1584 L146.1715,390.924 Q146.1715,391.7881 146.7949,392.3678 Q147.4184,392.9365 148.534,392.9365 Q149.1902,392.9365 149.6496,392.7615 Q149.923,392.6521 150.2184,392.3459 Q150.4043,392.16 150.5027,392.1053 Q150.6121,392.0506 150.7543,392.0506 Q150.984,392.0506 151.159,392.2365 Q151.3449,392.4115 151.3449,392.6521 Q151.3449,392.8928 151.1043,393.1771 Q150.7543,393.5818 150.1965,393.8115 Q149.4418,394.1287 148.534,394.1287 Q147.473,394.1287 146.6309,393.6912 Q145.9418,393.3412 145.4605,392.5975 Q144.9793,391.8428 144.9793,390.9459 L144.9793,390.1365 Q144.9793,389.2068 145.4059,388.4084 Q145.8434,387.599 146.609,387.1725 Q147.3746,386.735 148.2387,386.735 Q148.7527,386.735 149.2012,386.8553 Q149.6605,386.9646 150.0434,387.2162 Z " fill="#000000"/><text fill="#000000" font-family="sans-serif" font-size="8.4" font-style="italic" lengthAdjust="spacing" textLength="65.8506" x="161.1285" y="387.0645">&#171;AggregateRoot&#187;</text><text fill="#000000" font-family="sans-serif" font-size="9.8" lengthAdjust="spacing" textLength="63.1928" x="162.4574" y="399.7479">ShowProposal</text><line style="stroke:#181818;stroke-width:0.3499999999999999;" x1="28.7" x2="336.6576" y1="405.7074" y2="405.7074"/><text fill="#000000" font-family="sans-serif" font-size="9.8" lengthAdjust="spacing" textLength="55.0102" x="32.2" y="419.0826">-number : int</text><text fill="#000000" font-family="sans-serif" font-size="9.8" lengthAdjust="spacing" textLength="94.2102" x="32.2" y="432.1174">-customer : Customer</text><text fill="#000000" font-family="sans-serif" font-size="9.8" lengthAdjust="spacing" textLength="131.8263" x="32.2" y="445.1521">-showRequest : ShowRequest</text><text fill="#000000" font-family="sans-serif" font-size="9.8" lengthAdjust="spacing" textLength="92.588" x="32.2" y="458.1869">-totalNumDrones : int</text><text fill="#000000" font-family="sans-serif" font-size="9.8" lengthAdjust="spacing" textLength="128.5484" x="32.2" y="471.2217">-template : ProposalTemplate</text><text fill="#000000" font-family="sans-serif" font-size="9.8" lengthAdjust="spacing" textLength="125.2993" x="32.2" y="484.2564">-eventLocation : Coordinates</text><text fill="#000000" font-family="sans-serif" font-size="9.8" lengthAdjust="spacing" textLength="143.7892" x="32.2" y="497.2912">-eventDateTime : LocalDateTime</text><text fill="#000000" font-family="sans-serif" font-size="9.8" lengthAdjust="spacing" textLength="82.7976" x="32.2" y="510.326">-eventDuration : int</text><text fill="#000000" font-family="sans-serif" font-size="9.8" lengthAdjust="spacing" textLength="128.5532" x="32.2" y="523.3607">-status : ShowProposalStatus</text><text fill="#000000" font-family="sans-serif" font-size="9.8" lengthAdjust="spacing" textLength="156.8718" x="32.2" y="536.3955">-simulationStatus : SimulationStatus</text><text fill="#000000" font-family="sans-serif" font-size="9.8" lengthAdjust="spacing" textLength="124.1939" x="32.2" y="549.4303">-simulationVideoLink : String</text><text fill="#000000" font-family="sans-serif" font-size="9.8" lengthAdjust="spacing" textLength="108.4173" x="32.2" y="562.465">-insuranceValue : double</text><text fill="#000000" font-family="sans-serif" font-size="9.8" lengthAdjust="spacing" textLength="93.6838" x="32.2" y="575.4998">-proposalText : String</text><text fill="#000000" font-family="sans-serif" font-size="9.8" lengthAdjust="spacing" textLength="94.7844" x="32.2" y="588.5346">-sentDate : LocalDate</text><text fill="#000000" font-family="sans-serif" font-size="9.8" lengthAdjust="spacing" textLength="67.5329" x="32.2" y="601.5693">-sentBy : Name</text><line style="stroke:#181818;stroke-width:0.3499999999999999;" x1="28.7" x2="336.6576" y1="606.8289" y2="606.8289"/><text fill="#000000" font-family="sans-serif" font-size="9.8" lengthAdjust="spacing" textLength="298.2349" x="32.2" y="620.2041">+ShowProposal(showRequest : ShowRequest, totalNumDrones : int,</text><text fill="#000000" font-family="sans-serif" font-size="9.8" lengthAdjust="spacing" textLength="270.7298" x="43.091" y="633.2389">eventLocation : Coordinates, eventDateTime : LocalDateTime,</text><text fill="#000000" font-family="sans-serif" font-size="9.8" lengthAdjust="spacing" textLength="213.528" x="43.091" y="646.2736">eventDuration : int, template : ProposalTemplate)</text><text fill="#000000" font-family="sans-serif" font-size="9.8" lengthAdjust="spacing" textLength="133.1565" x="32.2" y="659.3084">+toDTO() : ShowProposalDTO</text><text fill="#000000" font-family="sans-serif" font-size="9.8" lengthAdjust="spacing" textLength="201.8379" x="32.2" y="672.3432">+changeVideoTo(newVideoLink : String) : void</text><text fill="#000000" font-family="sans-serif" font-size="9.8" lengthAdjust="spacing" textLength="262.2983" x="32.2" y="685.3779">+changeProposalStatus(status : ShowProposalStatus) : void</text><text fill="#000000" font-family="sans-serif" font-size="9.8" lengthAdjust="spacing" textLength="251.9385" x="32.2" y="698.4127">+changeSimulationStatus(status : SimulationStatus) : void</text><text fill="#000000" font-family="sans-serif" font-size="9.8" lengthAdjust="spacing" textLength="202.9289" x="32.2" y="711.4475">+changeSentDate(sentDate : LocalDate) : void</text><text fill="#000000" font-family="sans-serif" font-size="9.8" lengthAdjust="spacing" textLength="166.4134" x="32.2" y="724.4822">+changeSentBy(sentBy : Name) : void</text><text fill="#000000" font-family="sans-serif" font-size="9.8" lengthAdjust="spacing" textLength="218.7056" x="32.2" y="737.517">+changeProposalText(proposalText : String) : void</text></g><!--class ShowProposalDTO--><g id="elem_ShowProposalDTO"><rect codeLine="48" fill="#F1F1F1" height="255.191" id="ShowProposalDTO" rx="1.75" ry="1.75" style="stroke:#181818;stroke-width:0.3499999999999999;" width="135.0535" x="318.15" y="784.7"/><ellipse cx="341.5985" cy="795.9" fill="#ADD1B2" rx="7.7" ry="7.7" style="stroke:#181818;stroke-width:0.6999999999999998;"/><path d="M343.5345,793.0125 Q343.6438,792.8594 343.7751,792.7828 Q343.9063,792.7062 344.0595,792.7062 Q344.322,792.7062 344.486,792.8922 Q344.6501,793.0672 344.6501,793.4937 L344.6501,794.5109 Q344.6501,794.9375 344.486,795.1234 Q344.322,795.3094 344.0595,795.3094 Q343.8188,795.3094 343.6767,795.1672 Q343.5345,795.0359 343.4579,794.675 Q343.4251,794.4234 343.2938,794.2922 Q343.0642,794.0297 342.6376,793.8766 Q342.211,793.7234 341.7735,793.7234 Q341.2376,793.7234 340.7892,793.9531 Q340.3517,794.1828 340.0017,794.7078 Q339.6626,795.2328 339.6626,795.9547 L339.6626,796.7203 Q339.6626,797.5844 340.286,798.1641 Q340.9095,798.7328 342.0251,798.7328 Q342.6813,798.7328 343.1407,798.5578 Q343.4142,798.4484 343.7095,798.1422 Q343.8954,797.9562 343.9938,797.9016 Q344.1032,797.8469 344.2454,797.8469 Q344.4751,797.8469 344.6501,798.0328 Q344.836,798.2078 344.836,798.4484 Q344.836,798.6891 344.5954,798.9734 Q344.2454,799.3781 343.6876,799.6078 Q342.9329,799.925 342.0251,799.925 Q340.9642,799.925 340.122,799.4875 Q339.4329,799.1375 338.9517,798.3937 Q338.4704,797.6391 338.4704,796.7422 L338.4704,795.9328 Q338.4704,795.0031 338.897,794.2047 Q339.3345,793.3953 340.1001,792.9687 Q340.8657,792.5312 341.7298,792.5312 Q342.2438,792.5312 342.6923,792.6516 Q343.1517,792.7609 343.5345,793.0125 Z " fill="#000000"/><text fill="#000000" font-family="sans-serif" font-size="9.8" lengthAdjust="spacing" textLength="83.879" x="354.276" y="799.9578">ShowProposalDTO</text><line style="stroke:#181818;stroke-width:0.3499999999999999;" x1="318.85" x2="452.5035" y1="807.1" y2="807.1"/><text fill="#000000" font-family="sans-serif" font-size="9.8" lengthAdjust="spacing" textLength="57.4697" x="322.35" y="820.4752">+number : int</text><text fill="#000000" font-family="sans-serif" font-size="9.8" lengthAdjust="spacing" textLength="98.8518" x="322.35" y="833.51">+customerVAT : String</text><text fill="#000000" font-family="sans-serif" font-size="9.8" lengthAdjust="spacing" textLength="93.4206" x="322.35" y="846.5447">+showRequestID : int</text><text fill="#000000" font-family="sans-serif" font-size="9.8" lengthAdjust="spacing" textLength="95.0476" x="322.35" y="859.5795">+totalNumDrones : int</text><text fill="#000000" font-family="sans-serif" font-size="9.8" lengthAdjust="spacing" textLength="126.6535" x="322.35" y="872.6143">+simulationVideoLink : String</text><text fill="#000000" font-family="sans-serif" font-size="9.8" lengthAdjust="spacing" textLength="74.9212" x="322.35" y="885.649">+latitude : double</text><text fill="#000000" font-family="sans-serif" font-size="9.8" lengthAdjust="spacing" textLength="83.099" x="322.35" y="898.6838">+longitude : double</text><text fill="#000000" font-family="sans-serif" font-size="9.8" lengthAdjust="spacing" textLength="84.1661" x="322.35" y="911.7186">+eventDate : String</text><text fill="#000000" font-family="sans-serif" font-size="9.8" lengthAdjust="spacing" textLength="84.7068" x="322.35" y="924.7533">+eventHour : String</text><text fill="#000000" font-family="sans-serif" font-size="9.8" lengthAdjust="spacing" textLength="85.2571" x="322.35" y="937.7881">+eventDuration : int</text><text fill="#000000" font-family="sans-serif" font-size="9.8" lengthAdjust="spacing" textLength="65.638" x="322.35" y="950.8229">+status : String</text><text fill="#000000" font-family="sans-serif" font-size="9.8" lengthAdjust="spacing" textLength="111.3937" x="322.35" y="963.8576">+simulationStatus : String</text><text fill="#000000" font-family="sans-serif" font-size="9.8" lengthAdjust="spacing" textLength="110.8769" x="322.35" y="976.8924">+insuranceValue : double</text><text fill="#000000" font-family="sans-serif" font-size="9.8" lengthAdjust="spacing" textLength="98.8661" x="322.35" y="989.9271">+templateType : String</text><line style="stroke:#181818;stroke-width:0.3499999999999999;" x1="318.85" x2="452.5035" y1="995.1867" y2="995.1867"/><text fill="#000000" font-family="sans-serif" font-size="9.8" lengthAdjust="spacing" textLength="104.2973" x="322.35" y="1008.5619">+ShowProposalDTO(...)</text><text fill="#000000" font-family="sans-serif" font-size="9.8" lengthAdjust="spacing" textLength="79.7925" x="322.35" y="1021.5967">+toString() : String</text><text fill="#000000" font-family="sans-serif" font-size="9.8" lengthAdjust="spacing" textLength="79.247" x="322.35" y="1034.6314">+getNumber() : int</text></g><!--class ShowProposalStatus--><g id="elem_ShowProposalStatus"><rect codeLine="68" fill="#F1F1F1" height="111.8086" id="ShowProposalStatus" rx="1.75" ry="1.75" style="stroke:#181818;stroke-width:0.3499999999999999;" width="113.3754" x="28" y="856.45"/><ellipse cx="38.5" cy="867.65" fill="#EB937F" rx="7.7" ry="7.7" style="stroke:#181818;stroke-width:0.6999999999999998;"/><path d="M37.7016,868.2078 L37.7016,869.9578 L40.7312,869.9578 L40.7312,869.3125 Q40.7312,868.8859 40.8953,868.7 Q41.0703,868.5141 41.3328,868.5141 Q41.5953,868.5141 41.7594,868.7 Q41.9234,868.8859 41.9234,869.3125 L41.9234,871.15 L36.3234,871.15 Q35.8859,871.15 35.7,870.9859 Q35.525,870.8219 35.525,870.5484 Q35.525,870.2859 35.7109,870.1219 Q35.8969,869.9578 36.3234,869.9578 L36.5094,869.9578 L36.5094,865.2984 L36.3234,865.2984 Q35.8859,865.2984 35.7,865.1344 Q35.525,864.9703 35.525,864.6969 Q35.525,864.4344 35.7,864.2703 Q35.8859,864.1062 36.3234,864.1062 L41.6609,864.1062 L41.6609,865.9219 Q41.6609,866.3484 41.4969,866.5344 Q41.3437,866.7094 41.0703,866.7094 Q40.8078,866.7094 40.6437,866.5344 Q40.4797,866.3484 40.4797,865.9219 L40.4797,865.2984 L37.7016,865.2984 L37.7016,867.0156 L38.7406,867.0156 Q38.7406,866.5562 38.8281,866.425 Q39.0141,866.1406 39.3422,866.1406 Q39.6047,866.1406 39.7687,866.3266 Q39.9328,866.5016 39.9328,866.9281 L39.9328,868.3062 Q39.9328,868.6891 39.8453,868.8203 Q39.6594,869.0937 39.3422,869.0937 Q39.0141,869.0937 38.8281,868.8094 Q38.7406,868.6781 38.7406,868.2078 L37.7016,868.2078 Z " fill="#000000"/><text fill="#000000" font-family="sans-serif" font-size="9.8" lengthAdjust="spacing" textLength="90.9754" x="48.3" y="871.7078">ShowProposalStatus</text><line style="stroke:#181818;stroke-width:0.3499999999999999;" x1="28.7" x2="140.6754" y1="878.85" y2="878.85"/><text fill="#000000" font-family="sans-serif" font-size="9.8" lengthAdjust="spacing" textLength="46.8275" x="32.2" y="892.2252">CREATED</text><text fill="#000000" font-family="sans-serif" font-size="9.8" lengthAdjust="spacing" textLength="46.8275" x="32.2" y="905.26">PENDENT</text><text fill="#000000" font-family="sans-serif" font-size="9.8" lengthAdjust="spacing" textLength="51.7275" x="32.2" y="918.2947">REJECTED</text><text fill="#000000" font-family="sans-serif" font-size="9.8" lengthAdjust="spacing" textLength="53.3641" x="32.2" y="931.3295">ACCEPTED</text><text fill="#000000" font-family="sans-serif" font-size="9.8" lengthAdjust="spacing" textLength="60.4461" x="32.2" y="944.3643">SCHEDULED</text><text fill="#000000" font-family="sans-serif" font-size="9.8" lengthAdjust="spacing" textLength="47.373" x="32.2" y="957.399">ABORTED</text><line style="stroke:#181818;stroke-width:0.3499999999999999;" x1="28.7" x2="140.6754" y1="962.6586" y2="962.6586"/></g><!--class ShowProposalRepository--><g id="elem_ShowProposalRepository"><rect codeLine="77" fill="#F1F1F1" height="85.7391" id="ShowProposalRepository" rx="1.75" ry="1.75" style="stroke:#181818;stroke-width:0.3499999999999999;" width="331.6947" x="16.8" y="247.1"/><ellipse cx="124.655" cy="258.3" fill="#B4A7E5" rx="7.7" ry="7.7" style="stroke:#181818;stroke-width:0.6999999999999998;"/><path d="M125.3222,255.9484 L125.3222,260.6078 L126.5253,260.6078 Q126.9519,260.6078 127.1378,260.7719 Q127.3238,260.9359 127.3238,261.2094 Q127.3238,261.4719 127.1378,261.6359 Q126.9519,261.8 126.5253,261.8 L122.9269,261.8 Q122.5003,261.8 122.3144,261.6359 Q122.1285,261.4719 122.1285,261.1984 Q122.1285,260.9359 122.3144,260.7719 Q122.5003,260.6078 122.9269,260.6078 L124.13,260.6078 L124.13,255.9484 L122.9269,255.9484 Q122.5003,255.9484 122.3144,255.7844 Q122.1285,255.6203 122.1285,255.3469 Q122.1285,255.0844 122.3144,254.9203 Q122.5003,254.7562 122.9269,254.7562 L126.5253,254.7562 Q126.9519,254.7562 127.1378,254.9203 Q127.3238,255.0844 127.3238,255.3469 Q127.3238,255.6203 127.1378,255.7844 Q126.9519,255.9484 126.5253,255.9484 L125.3222,255.9484 Z " fill="#000000"/><text fill="#000000" font-family="sans-serif" font-size="9.8" font-style="italic" lengthAdjust="spacing" textLength="110.0347" x="139.005" y="262.3578">ShowProposalRepository</text><line style="stroke:#181818;stroke-width:0.3499999999999999;" x1="17.5" x2="347.7947" y1="269.5" y2="269.5"/><line style="stroke:#181818;stroke-width:0.3499999999999999;" x1="17.5" x2="347.7947" y1="275.1" y2="275.1"/><text fill="#000000" font-family="sans-serif" font-size="9.8" lengthAdjust="spacing" textLength="237.2289" x="21" y="288.4752">+save(showProposal : ShowProposal) : ShowProposal</text><text fill="#000000" font-family="sans-serif" font-size="9.8" lengthAdjust="spacing" textLength="323.2947" x="21" y="301.51">+findByProposalNumber(proposalNumber : int) : Optional&lt;ShowProposal&gt;</text><text fill="#000000" font-family="sans-serif" font-size="9.8" lengthAdjust="spacing" textLength="256.2738" x="21" y="314.5447">+findAllProposalsToSendDTO() : List&lt;ShowProposalDTO&gt;</text><text fill="#000000" font-family="sans-serif" font-size="9.8" lengthAdjust="spacing" textLength="214.9014" x="21" y="327.5795">+findAllProposalsToSend() : List&lt;ShowProposal&gt;</text></g><!--class SimulationStatus--><g id="elem_SimulationStatus"><rect codeLine="84" fill="#F1F1F1" height="72.7043" id="SimulationStatus" rx="1.75" ry="1.75" style="stroke:#181818;stroke-width:0.3499999999999999;" width="95.9383" x="166.25" y="876.05"/><ellipse cx="176.75" cy="887.25" fill="#EB937F" rx="7.7" ry="7.7" style="stroke:#181818;stroke-width:0.6999999999999998;"/><path d="M175.9516,887.8078 L175.9516,889.5578 L178.9812,889.5578 L178.9812,888.9125 Q178.9812,888.4859 179.1453,888.3 Q179.3203,888.1141 179.5828,888.1141 Q179.8453,888.1141 180.0094,888.3 Q180.1734,888.4859 180.1734,888.9125 L180.1734,890.75 L174.5734,890.75 Q174.1359,890.75 173.95,890.5859 Q173.775,890.4219 173.775,890.1484 Q173.775,889.8859 173.9609,889.7219 Q174.1469,889.5578 174.5734,889.5578 L174.7594,889.5578 L174.7594,884.8984 L174.5734,884.8984 Q174.1359,884.8984 173.95,884.7344 Q173.775,884.5703 173.775,884.2969 Q173.775,884.0344 173.95,883.8703 Q174.1359,883.7062 174.5734,883.7062 L179.9109,883.7062 L179.9109,885.5219 Q179.9109,885.9484 179.7469,886.1344 Q179.5937,886.3094 179.3203,886.3094 Q179.0578,886.3094 178.8937,886.1344 Q178.7297,885.9484 178.7297,885.5219 L178.7297,884.8984 L175.9516,884.8984 L175.9516,886.6156 L176.9906,886.6156 Q176.9906,886.1562 177.0781,886.025 Q177.2641,885.7406 177.5922,885.7406 Q177.8547,885.7406 178.0187,885.9266 Q178.1828,886.1016 178.1828,886.5281 L178.1828,887.9062 Q178.1828,888.2891 178.0953,888.4203 Q177.9094,888.6937 177.5922,888.6937 Q177.2641,888.6937 177.0781,888.4094 Q176.9906,888.2781 176.9906,887.8078 L175.9516,887.8078 Z " fill="#000000"/><text fill="#000000" font-family="sans-serif" font-size="9.8" lengthAdjust="spacing" textLength="73.5383" x="186.55" y="891.3078">SimulationStatus</text><line style="stroke:#181818;stroke-width:0.3499999999999999;" x1="166.95" x2="261.4883" y1="898.45" y2="898.45"/><text fill="#000000" font-family="sans-serif" font-size="9.8" lengthAdjust="spacing" textLength="52.8138" x="170.45" y="911.8252">UNTESTED</text><text fill="#000000" font-family="sans-serif" font-size="9.8" lengthAdjust="spacing" textLength="34.3096" x="170.45" y="924.86">FAILED</text><text fill="#000000" font-family="sans-serif" font-size="9.8" lengthAdjust="spacing" textLength="39.7599" x="170.45" y="937.8947">PASSED</text><line style="stroke:#181818;stroke-width:0.3499999999999999;" x1="166.95" x2="261.4883" y1="943.1543" y2="943.1543"/></g><!--link SendShowProposalUI to SendShowProposalController--><g id="link_SendShowProposalUI_SendShowProposalController"><path codeLine="90" d="M284.41,77.917 C275.303,91 267.321,102.4626 257.871,116.0426 " fill="none" id="SendShowProposalUI-to-SendShowProposalController" style="stroke:#181818;stroke-width:0.6999999999999998;stroke-dasharray:7.0,7.0;"/><polygon fill="#181818" points="255.472,119.49,261.3688,115.9182,257.4712,116.6171,256.7722,112.7195,255.472,119.49" style="stroke:#181818;stroke-width:0.6999999999999998;"/></g><!--link SendShowProposalUI to ShowProposalDTO--><g id="link_SendShowProposalUI_ShowProposalDTO"><path codeLine="91" d="M336.238,77.896 C351.463,98.252 367.5,119.7 367.5,119.7 C367.5,119.7 380.8,247.1 380.8,247.1 C380.8,247.1 390.6,374.5 390.6,374.5 C390.6,374.5 390.6,742.7 390.6,742.7 C390.6,742.7 390.2031,756.2747 389.5101,780.2917 " fill="none" id="SendShowProposalUI-to-ShowProposalDTO" style="stroke:#181818;stroke-width:0.6999999999999998;stroke-dasharray:7.0,7.0;"/><polygon fill="#181818" points="389.389,784.49,392.3695,778.2734,389.4899,780.9915,386.7719,778.1119,389.389,784.49" style="stroke:#181818;stroke-width:0.6999999999999998;"/></g><!--link SendShowProposalController to ShowProposalRepository--><g id="link_SendShowProposalController_ShowProposalRepository"><path codeLine="93" d="M211.589,205.233 C206.955,218.68 203.1994,229.5912 198.5654,243.0382 " fill="none" id="SendShowProposalController-to-ShowProposalRepository" style="stroke:#181818;stroke-width:0.6999999999999998;"/><polygon fill="#181818" points="197.197,247.009,201.8968,241.965,198.3373,243.7,196.6024,240.1405,197.197,247.009" style="stroke:#181818;stroke-width:0.6999999999999998;"/></g><!--link SendShowProposalController to ShowProposal--><g id="link_SendShowProposalController_ShowProposal"><path codeLine="94" d="M114.828,205.226 C59.458,226.184 4.2,247.1 4.2,247.1 C4.2,247.1 4.2,332.5 4.2,332.5 C4.2,332.5 15.1303,346.3016 34.7513,371.0746 " fill="none" id="SendShowProposalController-to-ShowProposal" style="stroke:#181818;stroke-width:0.6999999999999998;stroke-dasharray:7.0,7.0;"/><polygon fill="#181818" points="37.359,374.367,35.6424,367.6899,35.1859,371.6233,31.2525,371.1668,37.359,374.367" style="stroke:#181818;stroke-width:0.6999999999999998;"/></g><!--link SendShowProposalController to ShowProposalDTO--><g id="link_SendShowProposalController_ShowProposalDTO"><path codeLine="95" d="M293.496,205.226 C327.033,226.184 360.5,247.1 360.5,247.1 C360.5,247.1 373.4029,587.429 380.7179,780.384 " fill="none" id="SendShowProposalController-to-ShowProposalDTO" style="stroke:#181818;stroke-width:0.6999999999999998;stroke-dasharray:7.0,7.0;"/><polygon fill="#181818" points="380.877,784.581,383.4363,778.1794,380.7444,781.0835,377.8403,778.3916,380.877,784.581" style="stroke:#181818;stroke-width:0.6999999999999998;"/></g><!--link ShowProposal to ShowProposalStatus--><g id="link_ShowProposal_ShowProposalStatus"><path codeLine="97" d="M131.691,742.749 C120.155,784.231 109.8979,821.1344 101.2249,852.3334 " fill="none" id="ShowProposal-to-ShowProposalStatus" style="stroke:#181818;stroke-width:0.6999999999999998;"/><polygon fill="#181818" points="100.1,856.38,104.4851,851.0601,101.0374,853.0079,99.0896,849.5602,100.1,856.38" style="stroke:#181818;stroke-width:0.6999999999999998;"/><text fill="#000000" font-family="sans-serif" font-size="9.1" lengthAdjust="spacing" textLength="5.061" x="96.4024" y="848.6006">1</text></g><!--link ShowProposal to ShowProposalDTO--><g id="link_ShowProposal_ShowProposalDTO"><path codeLine="98" d="M288.365,742.749 C298.48,760.312 306.4421,774.1449 316.0461,790.8119 " fill="none" id="ShowProposal-to-ShowProposalDTO" style="stroke:#181818;stroke-width:0.6999999999999998;stroke-dasharray:7.0,7.0;"/><polygon fill="#181818" points="318.143,794.451,317.4236,787.5944,316.3956,791.4184,312.5715,790.3903,318.143,794.451" style="stroke:#181818;stroke-width:0.6999999999999998;"/></g><!--link ShowProposal to SimulationStatus--><g id="link_ShowProposal_SimulationStatus"><path codeLine="99" d="M199.094,742.749 C203.637,793.597 207.7361,839.4637 210.6201,871.7267 " fill="none" id="ShowProposal-to-SimulationStatus" style="stroke:#181818;stroke-width:0.6999999999999998;"/><polygon fill="#181818" points="210.994,875.91,213.222,869.3857,210.6824,872.4239,207.6442,869.8843,210.994,875.91" style="stroke:#181818;stroke-width:0.6999999999999998;"/><text fill="#000000" font-family="sans-serif" font-size="9.1" lengthAdjust="spacing" textLength="5.061" x="205.3422" y="868.1403">1</text></g><!--link ShowProposalRepository to ShowProposal--><g id="link_ShowProposalRepository_ShowProposal"><path codeLine="101" d="M182.7,332.577 C182.7,344.855 182.7,354.928 182.7,370.202 " fill="none" id="ShowProposalRepository-to-ShowProposal" style="stroke:#181818;stroke-width:0.6999999999999998;stroke-dasharray:7.0,7.0;"/><polygon fill="#181818" points="182.7,374.402,185.5,368.102,182.7,370.902,179.9,368.102,182.7,374.402" style="stroke:#181818;stroke-width:0.6999999999999998;"/></g><!--SRC=[bLRVRwCu47xdhq3xigpIHdklfoeIJLXjLbLQ1TgdUt5XIgmQ3sURzjBL_kzh4qCCCPmsBu7vlXdFJm-VvIlbDH6a2Ylac1y4LX0gqK1mHcgIlv8IKdLa40h85U4bSmdoG0fyfxmCNmYJBi8e1tMi8QoH7SrByDa3eb0OE5ev8rB6IWdwt2ZOviXJ-W7Xro1eaJ05NgG7V7yGMACax74R_Wn2_RiEDLS9P0n4-FS5Rzs3BNiH5cZWw8lcFYCo8Dm21o25SQ-5Kkq8BuDVKyUVpVPk2AZHQ3gilHP9gb0SBOSqwl2XIR7-Hq4_YA8wK11lD0VhHWagPgop83CqHxS-RHK8yipWnZrYazslhARKn4uSrMTyv9IM66jlI0idFeSGtjp4PIcW90hsY6grwcFaJVNSffborMM_aKeta16kxQD5fBQvXtyRaCgwODyihb0HjckgZK0ESc1KGLKpVRmMTbvbLcGPy0PStM7UPj2SZIWAoZL1keoD5cIqCeOCcNNl0quZEYjd3wGYgf6ZrAMji6FGgc6d0lRSaUY2-KGBm3lANyyjTg9GBhKNF8SdmXhZRO6DBhL5wpu7_wcnfhHHkX4wqErH0pjITUtbXXDDLkZAMvohy1zkhCpa_ce-xGCBmxnVpHNzY_LUeUxUqu0EEzhY-K7VKz1cESE8m_jbmllUTpM61OvcYkzL7zVTCJ12_EesOv6lbfCQjyTeKE3Pm4pdHDuschyBpFNnqrgy6Fv5F_nFSJRiouKx_TlDG6boxXV_FocBqC2gAKOpekN8Io_GD-JOKWjynqPu0S-ji71kXK6edfl0nUU6Uz6tVMRMuaXpL8fekLoUH-74TDTLlq5sRQbQo3YlImkwUfvsjiLTxvCuIpRjyqEosoIxh7tU9p-ITGV4wtNoqBsaw-_9vl6kWsxlzmRH1-dpGBoG72OsOTzEahn1UmFrUsSuR-Cfjselb1Utnqve0wq7hwUeZVvzRQf2s61bhXnBbwksks3kg5HJczQlwLTRdRC_RfDJ9XvtMP9sQVqMRxkSFiHfUagfvzjdkLpDVUfCQOmkpM3ci-RwUZNrBJEZDJxbJxWdZzo6C3vy-kkJRmSFU3vBVaFZ1HrCDEb57By1]--></g></svg>