<svg xmlns="http://www.w3.org/2000/svg" xmlns:xlink="http://www.w3.org/1999/xlink" contentStyleType="text/css" height="1398px" preserveAspectRatio="none" style="width:3067px;height:1398px;background:#FFFFFF;" version="1.1" viewBox="0 0 3067 1398" width="3067px" zoomAndPan="magnify"><defs/><g><!--cluster LANG--><g id="cluster_LANG"><rect fill="none" height="132" rx="2.5" ry="2.5" style="stroke:#000000;stroke-width:1.5;" width="155" x="576.5" y="628"/><text fill="#000000" font-family="sans-serif" font-size="14" font-weight="bold" lengthAdjust="spacing" textLength="139.2412" x="584.3794" y="645.1074">Language Aggregate</text></g><!--cluster DM--><g id="cluster_DM"><rect fill="none" height="132" rx="2.5" ry="2.5" style="stroke:#000000;stroke-width:1.5;" width="262" x="712.5" y="426.5"/><text fill="#000000" font-family="sans-serif" font-size="14" font-weight="bold" lengthAdjust="spacing" textLength="154.0137" x="766.4932" y="443.6074">DroneModel Aggregate</text></g><!--cluster CL--><g id="cluster_CL"><rect fill="none" height="529" rx="2.5" ry="2.5" style="stroke:#000000;stroke-width:1.5;" width="952" x="1379.5" y="628"/><text fill="#000000" font-family="sans-serif" font-size="14" font-weight="bold" lengthAdjust="spacing" textLength="138.4688" x="1786.2656" y="645.1074">Customer Aggregate</text></g><!--cluster SRQ--><g id="cluster_SRQ"><rect fill="none" height="169" rx="2.5" ry="2.5" style="stroke:#000000;stroke-width:1.5;" width="202" x="1048.5" y="408"/><text fill="#000000" font-family="sans-serif" font-size="14" font-weight="bold" lengthAdjust="spacing" textLength="165.6895" x="1066.6553" y="425.1074">ShowRequest Aggregate</text></g><!--cluster DR--><g id="cluster_DR"><rect fill="none" height="333.5" rx="2.5" ry="2.5" style="stroke:#000000;stroke-width:1.5;" width="339" x="349.5" y="225"/><text fill="#000000" font-family="sans-serif" font-size="14" font-weight="bold" lengthAdjust="spacing" textLength="113.5723" x="462.2139" y="242.1074">Drone Aggregate</text></g><!--cluster FIG--><g id="cluster_FIG"><rect fill="none" height="151" rx="2.5" ry="2.5" style="stroke:#000000;stroke-width:1.5;" width="172" x="1274.5" y="417"/><text fill="#000000" font-family="sans-serif" font-size="14" font-weight="bold" lengthAdjust="spacing" textLength="115.9033" x="1302.5483" y="434.1074">Figure Aggregate</text></g><!--cluster SP--><g id="cluster_SP"><rect fill="none" height="350" rx="2.5" ry="2.5" style="stroke:#000000;stroke-width:1.5;" width="296" x="29.5" y="7"/><text fill="#000000" font-family="sans-serif" font-size="14" font-weight="bold" lengthAdjust="spacing" textLength="170.3584" x="92.3208" y="24.1074">ShowProposal Aggregate</text></g><!--cluster USR--><g id="cluster_USR"><rect fill="none" height="367" rx="2.5" ry="2.5" style="stroke:#000000;stroke-width:1.5;" width="706" x="2355.5" y="1025"/><text fill="#000000" font-family="sans-serif" font-size="14" font-weight="bold" lengthAdjust="spacing" textLength="154.0615" x="2631.4692" y="1042.1074">SystemUser Aggregate</text></g><!--class Language--><g id="elem_Language"><rect codeLine="22" fill="#F1F1F1" height="79.2031" id="Language" rx="2.5" ry="2.5" style="stroke:#181818;stroke-width:0.5;" width="122.0723" x="593.5" y="665"/><ellipse cx="608.5" cy="687.291" fill="#ADD1B2" rx="11" ry="11" style="stroke:#181818;stroke-width:1.0;"/><path d="M611.2656,683.166 Q611.4219,682.9473 611.6094,682.8379 Q611.7969,682.7285 612.0156,682.7285 Q612.3906,682.7285 612.625,682.9941 Q612.8594,683.2441 612.8594,683.8535 L612.8594,685.3066 Q612.8594,685.916 612.625,686.1816 Q612.3906,686.4473 612.0156,686.4473 Q611.6719,686.4473 611.4688,686.2441 Q611.2656,686.0566 611.1563,685.541 Q611.1094,685.1816 610.9219,684.9941 Q610.5938,684.6191 609.9844,684.4004 Q609.375,684.1816 608.75,684.1816 Q607.9844,684.1816 607.3438,684.5098 Q606.7188,684.8379 606.2188,685.5879 Q605.7344,686.3379 605.7344,687.3691 L605.7344,688.4629 Q605.7344,689.6973 606.625,690.5254 Q607.5156,691.3379 609.1094,691.3379 Q610.0469,691.3379 610.7031,691.0879 Q611.0938,690.9316 611.5156,690.4941 Q611.7813,690.2285 611.9219,690.1504 Q612.0781,690.0723 612.2813,690.0723 Q612.6094,690.0723 612.8594,690.3379 Q613.125,690.5879 613.125,690.9316 Q613.125,691.2754 612.7813,691.6816 Q612.2813,692.2598 611.4844,692.5879 Q610.4063,693.041 609.1094,693.041 Q607.5938,693.041 606.3906,692.416 Q605.4063,691.916 604.7188,690.8535 Q604.0313,689.7754 604.0313,688.4941 L604.0313,687.3379 Q604.0313,686.0098 604.6406,684.8691 Q605.2656,683.7129 606.3594,683.1035 Q607.4531,682.4785 608.6875,682.4785 Q609.4219,682.4785 610.0625,682.6504 Q610.7188,682.8066 611.2656,683.166 Z " fill="#000000"/><text fill="#000000" font-family="sans-serif" font-size="12" font-style="italic" lengthAdjust="spacing" textLength="94.0723" x="620.5" y="682.9492">&#171;AggregateRoot&#187;</text><text fill="#000000" font-family="sans-serif" font-size="14" lengthAdjust="spacing" textLength="62.2891" x="636.3916" y="701.0684">Language</text><line style="stroke:#181818;stroke-width:0.5;" x1="594.5" x2="714.5723" y1="709.582" y2="709.582"/><ellipse cx="604.5" cy="724.3926" fill="none" rx="3" ry="3" style="stroke:#038048;stroke-width:1.0;"/><text fill="#000000" font-family="sans-serif" font-size="14" lengthAdjust="spacing" textLength="75.4824" x="613.5" y="728.6895">String name</text><line style="stroke:#181818;stroke-width:0.5;" x1="594.5" x2="714.5723" y1="736.2031" y2="736.2031"/></g><!--class DroneModel--><g id="elem_DroneModel"><rect codeLine="29" fill="#F1F1F1" height="79.2031" id="DroneModel" rx="2.5" ry="2.5" style="stroke:#181818;stroke-width:0.5;" width="229.1094" x="729" y="463.5"/><ellipse cx="794.2686" cy="485.791" fill="#ADD1B2" rx="11" ry="11" style="stroke:#181818;stroke-width:1.0;"/><path d="M797.0342,481.666 Q797.1904,481.4473 797.3779,481.3379 Q797.5654,481.2285 797.7842,481.2285 Q798.1592,481.2285 798.3936,481.4941 Q798.6279,481.7441 798.6279,482.3535 L798.6279,483.8066 Q798.6279,484.416 798.3936,484.6816 Q798.1592,484.9473 797.7842,484.9473 Q797.4404,484.9473 797.2373,484.7441 Q797.0342,484.5566 796.9248,484.041 Q796.8779,483.6816 796.6904,483.4941 Q796.3623,483.1191 795.7529,482.9004 Q795.1436,482.6816 794.5186,482.6816 Q793.7529,482.6816 793.1123,483.0098 Q792.4873,483.3379 791.9873,484.0879 Q791.5029,484.8379 791.5029,485.8691 L791.5029,486.9629 Q791.5029,488.1973 792.3936,489.0254 Q793.2842,489.8379 794.8779,489.8379 Q795.8154,489.8379 796.4717,489.5879 Q796.8623,489.4316 797.2842,488.9941 Q797.5498,488.7285 797.6904,488.6504 Q797.8467,488.5723 798.0498,488.5723 Q798.3779,488.5723 798.6279,488.8379 Q798.8936,489.0879 798.8936,489.4316 Q798.8936,489.7754 798.5498,490.1816 Q798.0498,490.7598 797.2529,491.0879 Q796.1748,491.541 794.8779,491.541 Q793.3623,491.541 792.1592,490.916 Q791.1748,490.416 790.4873,489.3535 Q789.7998,488.2754 789.7998,486.9941 L789.7998,485.8379 Q789.7998,484.5098 790.4092,483.3691 Q791.0342,482.2129 792.1279,481.6035 Q793.2217,480.9785 794.4561,480.9785 Q795.1904,480.9785 795.8311,481.1504 Q796.4873,481.3066 797.0342,481.666 Z " fill="#000000"/><text fill="#000000" font-family="sans-serif" font-size="12" font-style="italic" lengthAdjust="spacing" textLength="94.0723" x="812.7686" y="481.4492">&#171;AggregateRoot&#187;</text><text fill="#000000" font-family="sans-serif" font-size="14" lengthAdjust="spacing" textLength="76.2617" x="821.6738" y="499.5684">DroneModel</text><line style="stroke:#181818;stroke-width:0.5;" x1="730" x2="957.1094" y1="508.082" y2="508.082"/><ellipse cx="740" cy="522.8926" fill="none" rx="3" ry="3" style="stroke:#038048;stroke-width:1.0;"/><text fill="#000000" font-family="sans-serif" font-size="14" lengthAdjust="spacing" textLength="203.1094" x="749" y="527.1895">List&lt;String&gt; modelSpecifications</text><line style="stroke:#181818;stroke-width:0.5;" x1="730" x2="957.1094" y1="534.7031" y2="534.7031"/></g><!--class Customer--><g id="elem_Customer"><rect codeLine="38" fill="#F1F1F1" height="79.2031" id="Customer" rx="2.5" ry="2.5" style="stroke:#181818;stroke-width:0.5;" width="122.0723" x="1506.5" y="665"/><ellipse cx="1521.5" cy="687.291" fill="#ADD1B2" rx="11" ry="11" style="stroke:#181818;stroke-width:1.0;"/><path d="M1524.2656,683.166 Q1524.4219,682.9473 1524.6094,682.8379 Q1524.7969,682.7285 1525.0156,682.7285 Q1525.3906,682.7285 1525.625,682.9941 Q1525.8594,683.2441 1525.8594,683.8535 L1525.8594,685.3066 Q1525.8594,685.916 1525.625,686.1816 Q1525.3906,686.4473 1525.0156,686.4473 Q1524.6719,686.4473 1524.4688,686.2441 Q1524.2656,686.0566 1524.1563,685.541 Q1524.1094,685.1816 1523.9219,684.9941 Q1523.5938,684.6191 1522.9844,684.4004 Q1522.375,684.1816 1521.75,684.1816 Q1520.9844,684.1816 1520.3438,684.5098 Q1519.7188,684.8379 1519.2188,685.5879 Q1518.7344,686.3379 1518.7344,687.3691 L1518.7344,688.4629 Q1518.7344,689.6973 1519.625,690.5254 Q1520.5156,691.3379 1522.1094,691.3379 Q1523.0469,691.3379 1523.7031,691.0879 Q1524.0938,690.9316 1524.5156,690.4941 Q1524.7813,690.2285 1524.9219,690.1504 Q1525.0781,690.0723 1525.2813,690.0723 Q1525.6094,690.0723 1525.8594,690.3379 Q1526.125,690.5879 1526.125,690.9316 Q1526.125,691.2754 1525.7813,691.6816 Q1525.2813,692.2598 1524.4844,692.5879 Q1523.4063,693.041 1522.1094,693.041 Q1520.5938,693.041 1519.3906,692.416 Q1518.4063,691.916 1517.7188,690.8535 Q1517.0313,689.7754 1517.0313,688.4941 L1517.0313,687.3379 Q1517.0313,686.0098 1517.6406,684.8691 Q1518.2656,683.7129 1519.3594,683.1035 Q1520.4531,682.4785 1521.6875,682.4785 Q1522.4219,682.4785 1523.0625,682.6504 Q1523.7188,682.8066 1524.2656,683.166 Z " fill="#000000"/><text fill="#000000" font-family="sans-serif" font-size="12" font-style="italic" lengthAdjust="spacing" textLength="94.0723" x="1533.5" y="682.9492">&#171;AggregateRoot&#187;</text><text fill="#000000" font-family="sans-serif" font-size="14" lengthAdjust="spacing" textLength="60.6826" x="1550.1948" y="701.0684">Customer</text><line style="stroke:#181818;stroke-width:0.5;" x1="1507.5" x2="1627.5723" y1="709.582" y2="709.582"/><ellipse cx="1517.5" cy="724.3926" fill="none" rx="3" ry="3" style="stroke:#038048;stroke-width:1.0;"/><text fill="#000000" font-family="sans-serif" font-size="14" lengthAdjust="spacing" textLength="75.4824" x="1526.5" y="728.6895">String name</text><line style="stroke:#181818;stroke-width:0.5;" x1="1507.5" x2="1627.5723" y1="736.2031" y2="736.2031"/></g><!--class VAT--><g id="elem_VAT"><rect codeLine="42" fill="#F1F1F1" height="79.2031" id="VAT" rx="2.5" ry="2.5" style="stroke:#181818;stroke-width:0.5;" width="104.7168" x="1396" y="853"/><ellipse cx="1411" cy="875.291" fill="#ADD8E6" rx="11" ry="11" style="stroke:#181818;stroke-width:1.0;"/><path d="M1411.5938,878.5566 L1414.0625,872.6816 L1413.6719,872.6816 Q1413.0625,872.6816 1412.7969,872.4473 Q1412.5313,872.2129 1412.5313,871.8223 Q1412.5313,871.4473 1412.7969,871.2129 Q1413.0625,870.9785 1413.6719,870.9785 L1415.9531,870.9785 Q1416.5625,870.9785 1416.8281,871.2129 Q1417.0938,871.4473 1417.0938,871.8223 Q1417.0938,872.291 1416.6875,872.5566 Q1416.5,872.6816 1415.9063,872.6816 L1412.4219,881.041 L1410.7813,881.041 L1407.2969,872.6816 Q1406.7031,872.6816 1406.5156,872.5566 Q1406.1094,872.291 1406.1094,871.8223 Q1406.1094,871.4473 1406.375,871.2129 Q1406.6406,870.9785 1407.25,870.9785 L1409.5469,870.9785 Q1410.1563,870.9785 1410.4063,871.2129 Q1410.6719,871.4473 1410.6719,871.8223 Q1410.6719,872.2129 1410.4063,872.4473 Q1410.1563,872.6816 1409.5469,872.6816 L1409.1406,872.6816 L1411.5938,878.5566 Z " fill="#000000"/><text fill="#000000" font-family="sans-serif" font-size="12" font-style="italic" lengthAdjust="spacing" textLength="76.7168" x="1423" y="870.9492">&#171;valueObject&#187;</text><text fill="#000000" font-family="sans-serif" font-size="14" lengthAdjust="spacing" textLength="27.2275" x="1447.7446" y="889.0684">VAT</text><line style="stroke:#181818;stroke-width:0.5;" x1="1397" x2="1499.7168" y1="897.582" y2="897.582"/><ellipse cx="1407" cy="912.3926" fill="none" rx="3" ry="3" style="stroke:#038048;stroke-width:1.0;"/><text fill="#000000" font-family="sans-serif" font-size="14" lengthAdjust="spacing" textLength="73.9307" x="1416" y="916.6895">String value</text><line style="stroke:#181818;stroke-width:0.5;" x1="1397" x2="1499.7168" y1="924.2031" y2="924.2031"/></g><!--class Representative--><g id="elem_Representative"><rect codeLine="46" fill="#F1F1F1" height="97.8242" id="Representative" rx="2.5" ry="2.5" style="stroke:#181818;stroke-width:0.5;" width="126.165" x="1861.5" y="843.5"/><ellipse cx="1876.5" cy="865.791" fill="#ADD1B2" rx="11" ry="11" style="stroke:#181818;stroke-width:1.0;"/><path d="M1875.3594,866.5879 L1875.3594,869.0879 L1879.6875,869.0879 L1879.6875,868.166 Q1879.6875,867.5566 1879.9219,867.291 Q1880.1719,867.0254 1880.5469,867.0254 Q1880.9219,867.0254 1881.1563,867.291 Q1881.3906,867.5566 1881.3906,868.166 L1881.3906,870.791 L1873.3906,870.791 Q1872.7656,870.791 1872.5,870.5566 Q1872.25,870.3223 1872.25,869.9316 Q1872.25,869.5566 1872.5156,869.3223 Q1872.7813,869.0879 1873.3906,869.0879 L1873.6563,869.0879 L1873.6563,862.4316 L1873.3906,862.4316 Q1872.7656,862.4316 1872.5,862.1973 Q1872.25,861.9629 1872.25,861.5723 Q1872.25,861.1973 1872.5,860.9629 Q1872.7656,860.7285 1873.3906,860.7285 L1881.0156,860.7285 L1881.0156,863.3223 Q1881.0156,863.9316 1880.7813,864.1973 Q1880.5625,864.4473 1880.1719,864.4473 Q1879.7969,864.4473 1879.5625,864.1973 Q1879.3281,863.9316 1879.3281,863.3223 L1879.3281,862.4316 L1875.3594,862.4316 L1875.3594,864.8848 L1876.8438,864.8848 Q1876.8438,864.2285 1876.9688,864.041 Q1877.2344,863.6348 1877.7031,863.6348 Q1878.0781,863.6348 1878.3125,863.9004 Q1878.5469,864.1504 1878.5469,864.7598 L1878.5469,866.7285 Q1878.5469,867.2754 1878.4219,867.4629 Q1878.1563,867.8535 1877.7031,867.8535 Q1877.2344,867.8535 1876.9688,867.4473 Q1876.8438,867.2598 1876.8438,866.5879 L1875.3594,866.5879 Z " fill="#000000"/><text fill="#000000" font-family="sans-serif" font-size="12" font-style="italic" lengthAdjust="spacing" textLength="43.3594" x="1915.9028" y="861.4492">&#171;Entity&#187;</text><text fill="#000000" font-family="sans-serif" font-size="14" lengthAdjust="spacing" textLength="94.165" x="1890.5" y="879.5684">Representative</text><line style="stroke:#181818;stroke-width:0.5;" x1="1862.5" x2="1986.665" y1="888.082" y2="888.082"/><ellipse cx="1872.5" cy="902.8926" fill="none" rx="3" ry="3" style="stroke:#038048;stroke-width:1.0;"/><text fill="#000000" font-family="sans-serif" font-size="14" lengthAdjust="spacing" textLength="75.4824" x="1881.5" y="907.1895">String name</text><ellipse cx="1872.5" cy="921.5137" fill="none" rx="3" ry="3" style="stroke:#038048;stroke-width:1.0;"/><text fill="#000000" font-family="sans-serif" font-size="14" lengthAdjust="spacing" textLength="88.7168" x="1881.5" y="925.8105">String position</text><line style="stroke:#181818;stroke-width:0.5;" x1="1862.5" x2="1986.665" y1="933.3242" y2="933.3242"/></g><!--class NIF--><g id="elem_NIF"><rect codeLine="51" fill="#F1F1F1" height="79.2031" id="NIF" rx="2.5" ry="2.5" style="stroke:#181818;stroke-width:0.5;" width="104.7168" x="1895" y="1062"/><ellipse cx="1910" cy="1084.291" fill="#ADD8E6" rx="11" ry="11" style="stroke:#181818;stroke-width:1.0;"/><path d="M1910.5938,1087.5566 L1913.0625,1081.6816 L1912.6719,1081.6816 Q1912.0625,1081.6816 1911.7969,1081.4473 Q1911.5313,1081.2129 1911.5313,1080.8223 Q1911.5313,1080.4473 1911.7969,1080.2129 Q1912.0625,1079.9785 1912.6719,1079.9785 L1914.9531,1079.9785 Q1915.5625,1079.9785 1915.8281,1080.2129 Q1916.0938,1080.4473 1916.0938,1080.8223 Q1916.0938,1081.291 1915.6875,1081.5566 Q1915.5,1081.6816 1914.9063,1081.6816 L1911.4219,1090.041 L1909.7813,1090.041 L1906.2969,1081.6816 Q1905.7031,1081.6816 1905.5156,1081.5566 Q1905.1094,1081.291 1905.1094,1080.8223 Q1905.1094,1080.4473 1905.375,1080.2129 Q1905.6406,1079.9785 1906.25,1079.9785 L1908.5469,1079.9785 Q1909.1563,1079.9785 1909.4063,1080.2129 Q1909.6719,1080.4473 1909.6719,1080.8223 Q1909.6719,1081.2129 1909.4063,1081.4473 Q1909.1563,1081.6816 1908.5469,1081.6816 L1908.1406,1081.6816 L1910.5938,1087.5566 Z " fill="#000000"/><text fill="#000000" font-family="sans-serif" font-size="12" font-style="italic" lengthAdjust="spacing" textLength="76.7168" x="1922" y="1079.9492">&#171;valueObject&#187;</text><text fill="#000000" font-family="sans-serif" font-size="14" lengthAdjust="spacing" textLength="22.5518" x="1949.0825" y="1098.0684">NIF</text><line style="stroke:#181818;stroke-width:0.5;" x1="1896" x2="1998.7168" y1="1106.582" y2="1106.582"/><ellipse cx="1906" cy="1121.3926" fill="none" rx="3" ry="3" style="stroke:#038048;stroke-width:1.0;"/><text fill="#000000" font-family="sans-serif" font-size="14" lengthAdjust="spacing" textLength="73.9307" x="1915" y="1125.6895">String value</text><line style="stroke:#181818;stroke-width:0.5;" x1="1896" x2="1998.7168" y1="1133.2031" y2="1133.2031"/></g><!--class Email--><g id="elem_Email"><rect codeLine="55" fill="#F1F1F1" height="79.2031" id="Email" rx="2.5" ry="2.5" style="stroke:#181818;stroke-width:0.5;" width="104.7168" x="1540" y="1062"/><ellipse cx="1555" cy="1084.291" fill="#ADD8E6" rx="11" ry="11" style="stroke:#181818;stroke-width:1.0;"/><path d="M1555.5938,1087.5566 L1558.0625,1081.6816 L1557.6719,1081.6816 Q1557.0625,1081.6816 1556.7969,1081.4473 Q1556.5313,1081.2129 1556.5313,1080.8223 Q1556.5313,1080.4473 1556.7969,1080.2129 Q1557.0625,1079.9785 1557.6719,1079.9785 L1559.9531,1079.9785 Q1560.5625,1079.9785 1560.8281,1080.2129 Q1561.0938,1080.4473 1561.0938,1080.8223 Q1561.0938,1081.291 1560.6875,1081.5566 Q1560.5,1081.6816 1559.9063,1081.6816 L1556.4219,1090.041 L1554.7813,1090.041 L1551.2969,1081.6816 Q1550.7031,1081.6816 1550.5156,1081.5566 Q1550.1094,1081.291 1550.1094,1080.8223 Q1550.1094,1080.4473 1550.375,1080.2129 Q1550.6406,1079.9785 1551.25,1079.9785 L1553.5469,1079.9785 Q1554.1563,1079.9785 1554.4063,1080.2129 Q1554.6719,1080.4473 1554.6719,1080.8223 Q1554.6719,1081.2129 1554.4063,1081.4473 Q1554.1563,1081.6816 1553.5469,1081.6816 L1553.1406,1081.6816 L1555.5938,1087.5566 Z " fill="#000000"/><text fill="#000000" font-family="sans-serif" font-size="12" font-style="italic" lengthAdjust="spacing" textLength="76.7168" x="1567" y="1079.9492">&#171;valueObject&#187;</text><text fill="#000000" font-family="sans-serif" font-size="14" lengthAdjust="spacing" textLength="35.0068" x="1587.855" y="1098.0684">Email</text><line style="stroke:#181818;stroke-width:0.5;" x1="1541" x2="1643.7168" y1="1106.582" y2="1106.582"/><ellipse cx="1551" cy="1121.3926" fill="none" rx="3" ry="3" style="stroke:#038048;stroke-width:1.0;"/><text fill="#000000" font-family="sans-serif" font-size="14" lengthAdjust="spacing" textLength="73.9307" x="1560" y="1125.6895">String value</text><line style="stroke:#181818;stroke-width:0.5;" x1="1541" x2="1643.7168" y1="1133.2031" y2="1133.2031"/></g><!--class Phone--><g id="elem_Phone"><rect codeLine="58" fill="#F1F1F1" height="79.2031" id="Phone" rx="2.5" ry="2.5" style="stroke:#181818;stroke-width:0.5;" width="104.7168" x="1714" y="1062"/><ellipse cx="1729" cy="1084.291" fill="#ADD8E6" rx="11" ry="11" style="stroke:#181818;stroke-width:1.0;"/><path d="M1729.5938,1087.5566 L1732.0625,1081.6816 L1731.6719,1081.6816 Q1731.0625,1081.6816 1730.7969,1081.4473 Q1730.5313,1081.2129 1730.5313,1080.8223 Q1730.5313,1080.4473 1730.7969,1080.2129 Q1731.0625,1079.9785 1731.6719,1079.9785 L1733.9531,1079.9785 Q1734.5625,1079.9785 1734.8281,1080.2129 Q1735.0938,1080.4473 1735.0938,1080.8223 Q1735.0938,1081.291 1734.6875,1081.5566 Q1734.5,1081.6816 1733.9063,1081.6816 L1730.4219,1090.041 L1728.7813,1090.041 L1725.2969,1081.6816 Q1724.7031,1081.6816 1724.5156,1081.5566 Q1724.1094,1081.291 1724.1094,1080.8223 Q1724.1094,1080.4473 1724.375,1080.2129 Q1724.6406,1079.9785 1725.25,1079.9785 L1727.5469,1079.9785 Q1728.1563,1079.9785 1728.4063,1080.2129 Q1728.6719,1080.4473 1728.6719,1080.8223 Q1728.6719,1081.2129 1728.4063,1081.4473 Q1728.1563,1081.6816 1727.5469,1081.6816 L1727.1406,1081.6816 L1729.5938,1087.5566 Z " fill="#000000"/><text fill="#000000" font-family="sans-serif" font-size="12" font-style="italic" lengthAdjust="spacing" textLength="76.7168" x="1741" y="1079.9492">&#171;valueObject&#187;</text><text fill="#000000" font-family="sans-serif" font-size="14" lengthAdjust="spacing" textLength="40.4824" x="1759.1172" y="1098.0684">Phone</text><line style="stroke:#181818;stroke-width:0.5;" x1="1715" x2="1817.7168" y1="1106.582" y2="1106.582"/><ellipse cx="1725" cy="1121.3926" fill="none" rx="3" ry="3" style="stroke:#038048;stroke-width:1.0;"/><text fill="#000000" font-family="sans-serif" font-size="14" lengthAdjust="spacing" textLength="73.9307" x="1734" y="1125.6895">String value</text><line style="stroke:#181818;stroke-width:0.5;" x1="1715" x2="1817.7168" y1="1133.2031" y2="1133.2031"/></g><!--class CustomerType--><g id="elem_CustomerType"><rect codeLine="62" fill="#F1F1F1" height="97.8242" id="CustomerType" rx="2.5" ry="2.5" style="stroke:#181818;stroke-width:0.5;" width="123.8066" x="2022.5" y="843.5"/><ellipse cx="2037.5" cy="865.791" fill="#EB937F" rx="11" ry="11" style="stroke:#181818;stroke-width:1.0;"/><path d="M2036.3594,866.5879 L2036.3594,869.0879 L2040.6875,869.0879 L2040.6875,868.166 Q2040.6875,867.5566 2040.9219,867.291 Q2041.1719,867.0254 2041.5469,867.0254 Q2041.9219,867.0254 2042.1563,867.291 Q2042.3906,867.5566 2042.3906,868.166 L2042.3906,870.791 L2034.3906,870.791 Q2033.7656,870.791 2033.5,870.5566 Q2033.25,870.3223 2033.25,869.9316 Q2033.25,869.5566 2033.5156,869.3223 Q2033.7813,869.0879 2034.3906,869.0879 L2034.6563,869.0879 L2034.6563,862.4316 L2034.3906,862.4316 Q2033.7656,862.4316 2033.5,862.1973 Q2033.25,861.9629 2033.25,861.5723 Q2033.25,861.1973 2033.5,860.9629 Q2033.7656,860.7285 2034.3906,860.7285 L2042.0156,860.7285 L2042.0156,863.3223 Q2042.0156,863.9316 2041.7813,864.1973 Q2041.5625,864.4473 2041.1719,864.4473 Q2040.7969,864.4473 2040.5625,864.1973 Q2040.3281,863.9316 2040.3281,863.3223 L2040.3281,862.4316 L2036.3594,862.4316 L2036.3594,864.8848 L2037.8438,864.8848 Q2037.8438,864.2285 2037.9688,864.041 Q2038.2344,863.6348 2038.7031,863.6348 Q2039.0781,863.6348 2039.3125,863.9004 Q2039.5469,864.1504 2039.5469,864.7598 L2039.5469,866.7285 Q2039.5469,867.2754 2039.4219,867.4629 Q2039.1563,867.8535 2038.7031,867.8535 Q2038.2344,867.8535 2037.9688,867.4473 Q2037.8438,867.2598 2037.8438,866.5879 L2036.3594,866.5879 Z " fill="#000000"/><text fill="#000000" font-family="sans-serif" font-size="12" font-style="italic" lengthAdjust="spacing" textLength="44.6953" x="2075.0557" y="861.4492">&#171;Enum&#187;</text><text fill="#000000" font-family="sans-serif" font-size="14" lengthAdjust="spacing" textLength="91.8066" x="2051.5" y="879.5684">CustomerType</text><line style="stroke:#181818;stroke-width:0.5;" x1="2023.5" x2="2145.3066" y1="888.082" y2="888.082"/><ellipse cx="2033.5" cy="902.8926" fill="none" rx="3" ry="3" style="stroke:#038048;stroke-width:1.0;"/><text fill="#000000" font-family="sans-serif" font-size="14" lengthAdjust="spacing" textLength="67.6826" x="2042.5" y="907.1895">REGULAR</text><ellipse cx="2033.5" cy="921.5137" fill="none" rx="3" ry="3" style="stroke:#038048;stroke-width:1.0;"/><text fill="#000000" font-family="sans-serif" font-size="14" lengthAdjust="spacing" textLength="22.5654" x="2042.5" y="925.8105">VIP</text><line style="stroke:#181818;stroke-width:0.5;" x1="2023.5" x2="2145.3066" y1="933.3242" y2="933.3242"/></g><!--class CustomerStatus--><g id="elem_CustomerStatus"><rect codeLine="67" fill="#F1F1F1" height="116.4453" id="CustomerStatus" rx="2.5" ry="2.5" style="stroke:#181818;stroke-width:0.5;" width="132.5518" x="2182" y="834.5"/><ellipse cx="2197.0809" cy="856.791" fill="#EB937F" rx="11" ry="11" style="stroke:#181818;stroke-width:1.0;"/><path d="M2195.9402,857.5879 L2195.9402,860.0879 L2200.2684,860.0879 L2200.2684,859.166 Q2200.2684,858.5566 2200.5027,858.291 Q2200.7527,858.0254 2201.1277,858.0254 Q2201.5027,858.0254 2201.7371,858.291 Q2201.9715,858.5566 2201.9715,859.166 L2201.9715,861.791 L2193.9715,861.791 Q2193.3465,861.791 2193.0809,861.5566 Q2192.8309,861.3223 2192.8309,860.9316 Q2192.8309,860.5566 2193.0965,860.3223 Q2193.3621,860.0879 2193.9715,860.0879 L2194.2371,860.0879 L2194.2371,853.4316 L2193.9715,853.4316 Q2193.3465,853.4316 2193.0809,853.1973 Q2192.8309,852.9629 2192.8309,852.5723 Q2192.8309,852.1973 2193.0809,851.9629 Q2193.3465,851.7285 2193.9715,851.7285 L2201.5965,851.7285 L2201.5965,854.3223 Q2201.5965,854.9316 2201.3621,855.1973 Q2201.1434,855.4473 2200.7527,855.4473 Q2200.3777,855.4473 2200.1434,855.1973 Q2199.909,854.9316 2199.909,854.3223 L2199.909,853.4316 L2195.9402,853.4316 L2195.9402,855.8848 L2197.4246,855.8848 Q2197.4246,855.2285 2197.5496,855.041 Q2197.8152,854.6348 2198.284,854.6348 Q2198.659,854.6348 2198.8934,854.9004 Q2199.1277,855.1504 2199.1277,855.7598 L2199.1277,857.7285 Q2199.1277,858.2754 2199.0027,858.4629 Q2198.7371,858.8535 2198.284,858.8535 Q2197.8152,858.8535 2197.5496,858.4473 Q2197.4246,858.2598 2197.4246,857.5879 L2195.9402,857.5879 Z " fill="#000000"/><text fill="#000000" font-family="sans-serif" font-size="12" font-style="italic" lengthAdjust="spacing" textLength="44.6953" x="2238.9372" y="852.4492">&#171;Enum&#187;</text><text fill="#000000" font-family="sans-serif" font-size="14" lengthAdjust="spacing" textLength="100.3721" x="2211.0988" y="870.5684">CustomerStatus</text><line style="stroke:#181818;stroke-width:0.5;" x1="2183" x2="2313.5518" y1="879.082" y2="879.082"/><ellipse cx="2193" cy="893.8926" fill="none" rx="3" ry="3" style="stroke:#038048;stroke-width:1.0;"/><text fill="#000000" font-family="sans-serif" font-size="14" lengthAdjust="spacing" textLength="66.8965" x="2202" y="898.1895">CREATED</text><ellipse cx="2193" cy="912.5137" fill="none" rx="3" ry="3" style="stroke:#038048;stroke-width:1.0;"/><text fill="#000000" font-family="sans-serif" font-size="14" lengthAdjust="spacing" textLength="106.5518" x="2202" y="916.8105">INFRINGEMENT</text><ellipse cx="2193" cy="931.1348" fill="none" rx="3" ry="3" style="stroke:#038048;stroke-width:1.0;"/><text fill="#000000" font-family="sans-serif" font-size="14" lengthAdjust="spacing" textLength="64.5723" x="2202" y="935.4316">DELETED</text><line style="stroke:#181818;stroke-width:0.5;" x1="2183" x2="2313.5518" y1="942.9453" y2="942.9453"/></g><!--class ShowRequest--><g id="elem_ShowRequest"><rect codeLine="89" fill="#F1F1F1" height="116.4453" id="ShowRequest" rx="2.5" ry="2.5" style="stroke:#181818;stroke-width:0.5;" width="169.1719" x="1065" y="445"/><ellipse cx="1101.1948" cy="467.291" fill="#ADD1B2" rx="11" ry="11" style="stroke:#181818;stroke-width:1.0;"/><path d="M1103.9604,463.166 Q1104.1167,462.9473 1104.3042,462.8379 Q1104.4917,462.7285 1104.7104,462.7285 Q1105.0854,462.7285 1105.3198,462.9941 Q1105.5542,463.2441 1105.5542,463.8535 L1105.5542,465.3066 Q1105.5542,465.916 1105.3198,466.1816 Q1105.0854,466.4473 1104.7104,466.4473 Q1104.3667,466.4473 1104.1636,466.2441 Q1103.9604,466.0566 1103.8511,465.541 Q1103.8042,465.1816 1103.6167,464.9941 Q1103.2886,464.6191 1102.6792,464.4004 Q1102.0698,464.1816 1101.4448,464.1816 Q1100.6792,464.1816 1100.0386,464.5098 Q1099.4136,464.8379 1098.9136,465.5879 Q1098.4292,466.3379 1098.4292,467.3691 L1098.4292,468.4629 Q1098.4292,469.6973 1099.3198,470.5254 Q1100.2104,471.3379 1101.8042,471.3379 Q1102.7417,471.3379 1103.3979,471.0879 Q1103.7886,470.9316 1104.2104,470.4941 Q1104.4761,470.2285 1104.6167,470.1504 Q1104.7729,470.0723 1104.9761,470.0723 Q1105.3042,470.0723 1105.5542,470.3379 Q1105.8198,470.5879 1105.8198,470.9316 Q1105.8198,471.2754 1105.4761,471.6816 Q1104.9761,472.2598 1104.1792,472.5879 Q1103.1011,473.041 1101.8042,473.041 Q1100.2886,473.041 1099.0854,472.416 Q1098.1011,471.916 1097.4136,470.8535 Q1096.7261,469.7754 1096.7261,468.4941 L1096.7261,467.3379 Q1096.7261,466.0098 1097.3354,464.8691 Q1097.9604,463.7129 1099.0542,463.1035 Q1100.1479,462.4785 1101.3823,462.4785 Q1102.1167,462.4785 1102.7573,462.6504 Q1103.4136,462.8066 1103.9604,463.166 Z " fill="#000000"/><text fill="#000000" font-family="sans-serif" font-size="12" font-style="italic" lengthAdjust="spacing" textLength="94.0723" x="1117.9048" y="462.9492">&#171;AggregateRoot&#187;</text><text fill="#000000" font-family="sans-serif" font-size="14" lengthAdjust="spacing" textLength="87.165" x="1121.3584" y="481.0684">ShowRequest</text><line style="stroke:#181818;stroke-width:0.5;" x1="1066" x2="1233.1719" y1="489.582" y2="489.582"/><ellipse cx="1076" cy="504.3926" fill="none" rx="3" ry="3" style="stroke:#038048;stroke-width:1.0;"/><text fill="#000000" font-family="sans-serif" font-size="14" lengthAdjust="spacing" textLength="91.041" x="1085" y="508.6895">int dronesNum</text><ellipse cx="1076" cy="523.0137" fill="none" rx="3" ry="3" style="stroke:#038048;stroke-width:1.0;"/><text fill="#000000" font-family="sans-serif" font-size="14" lengthAdjust="spacing" textLength="69.2686" x="1085" y="527.3105">int duration</text><ellipse cx="1076" cy="541.6348" fill="none" rx="3" ry="3" style="stroke:#038048;stroke-width:1.0;"/><text fill="#000000" font-family="sans-serif" font-size="14" lengthAdjust="spacing" textLength="143.1719" x="1085" y="545.9316">String showDescription</text><line style="stroke:#181818;stroke-width:0.5;" x1="1066" x2="1233.1719" y1="553.4453" y2="553.4453"/></g><!--class Drone--><g id="elem_Drone"><rect codeLine="104" fill="#F1F1F1" height="79.2031" id="Drone" rx="2.5" ry="2.5" style="stroke:#181818;stroke-width:0.5;" width="144.2822" x="425.5" y="262"/><ellipse cx="450.4945" cy="284.291" fill="#ADD1B2" rx="11" ry="11" style="stroke:#181818;stroke-width:1.0;"/><path d="M453.2601,280.166 Q453.4164,279.9473 453.6039,279.8379 Q453.7914,279.7285 454.0101,279.7285 Q454.3851,279.7285 454.6195,279.9941 Q454.8539,280.2441 454.8539,280.8535 L454.8539,282.3066 Q454.8539,282.916 454.6195,283.1816 Q454.3851,283.4473 454.0101,283.4473 Q453.6664,283.4473 453.4632,283.2441 Q453.2601,283.0566 453.1507,282.541 Q453.1039,282.1816 452.9164,281.9941 Q452.5882,281.6191 451.9789,281.4004 Q451.3695,281.1816 450.7445,281.1816 Q449.9789,281.1816 449.3382,281.5098 Q448.7132,281.8379 448.2132,282.5879 Q447.7289,283.3379 447.7289,284.3691 L447.7289,285.4629 Q447.7289,286.6973 448.6195,287.5254 Q449.5101,288.3379 451.1039,288.3379 Q452.0414,288.3379 452.6976,288.0879 Q453.0882,287.9316 453.5101,287.4941 Q453.7757,287.2285 453.9164,287.1504 Q454.0726,287.0723 454.2757,287.0723 Q454.6039,287.0723 454.8539,287.3379 Q455.1195,287.5879 455.1195,287.9316 Q455.1195,288.2754 454.7757,288.6816 Q454.2757,289.2598 453.4789,289.5879 Q452.4007,290.041 451.1039,290.041 Q449.5882,290.041 448.3851,289.416 Q447.4007,288.916 446.7132,287.8535 Q446.0257,286.7754 446.0257,285.4941 L446.0257,284.3379 Q446.0257,283.0098 446.6351,281.8691 Q447.2601,280.7129 448.3539,280.1035 Q449.4476,279.4785 450.682,279.4785 Q451.4164,279.4785 452.057,279.6504 Q452.7132,279.8066 453.2601,280.166 Z " fill="#000000"/><text fill="#000000" font-family="sans-serif" font-size="12" font-style="italic" lengthAdjust="spacing" textLength="94.0723" x="464.7155" y="279.9492">&#171;AggregateRoot&#187;</text><text fill="#000000" font-family="sans-serif" font-size="14" lengthAdjust="spacing" textLength="38.1309" x="492.6862" y="298.0684">Drone</text><line style="stroke:#181818;stroke-width:0.5;" x1="426.5" x2="568.7822" y1="306.582" y2="306.582"/><ellipse cx="436.5" cy="321.3926" fill="none" rx="3" ry="3" style="stroke:#038048;stroke-width:1.0;"/><text fill="#000000" font-family="sans-serif" font-size="14" lengthAdjust="spacing" textLength="118.2822" x="445.5" y="325.6895">DroneModel model</text><line style="stroke:#181818;stroke-width:0.5;" x1="426.5" x2="568.7822" y1="333.2031" y2="333.2031"/></g><!--class Maintenance--><g id="elem_Maintenance"><rect codeLine="107" fill="#F1F1F1" height="79.2031" id="Maintenance" rx="2.5" ry="2.5" style="stroke:#181818;stroke-width:0.5;" width="134.165" x="365.5" y="463.5"/><ellipse cx="390.4" cy="485.791" fill="#ADD1B2" rx="11" ry="11" style="stroke:#181818;stroke-width:1.0;"/><path d="M393.1656,481.666 Q393.3219,481.4473 393.5094,481.3379 Q393.6969,481.2285 393.9156,481.2285 Q394.2906,481.2285 394.525,481.4941 Q394.7594,481.7441 394.7594,482.3535 L394.7594,483.8066 Q394.7594,484.416 394.525,484.6816 Q394.2906,484.9473 393.9156,484.9473 Q393.5719,484.9473 393.3688,484.7441 Q393.1656,484.5566 393.0563,484.041 Q393.0094,483.6816 392.8219,483.4941 Q392.4938,483.1191 391.8844,482.9004 Q391.275,482.6816 390.65,482.6816 Q389.8844,482.6816 389.2438,483.0098 Q388.6188,483.3379 388.1188,484.0879 Q387.6344,484.8379 387.6344,485.8691 L387.6344,486.9629 Q387.6344,488.1973 388.525,489.0254 Q389.4156,489.8379 391.0094,489.8379 Q391.9469,489.8379 392.6031,489.5879 Q392.9938,489.4316 393.4156,488.9941 Q393.6813,488.7285 393.8219,488.6504 Q393.9781,488.5723 394.1813,488.5723 Q394.5094,488.5723 394.7594,488.8379 Q395.025,489.0879 395.025,489.4316 Q395.025,489.7754 394.6813,490.1816 Q394.1813,490.7598 393.3844,491.0879 Q392.3063,491.541 391.0094,491.541 Q389.4938,491.541 388.2906,490.916 Q387.3063,490.416 386.6188,489.3535 Q385.9313,488.2754 385.9313,486.9941 L385.9313,485.8379 Q385.9313,484.5098 386.5406,483.3691 Q387.1656,482.2129 388.2594,481.6035 Q389.3531,480.9785 390.5875,480.9785 Q391.3219,480.9785 391.9625,481.1504 Q392.6188,481.3066 393.1656,481.666 Z " fill="#000000"/><text fill="#000000" font-family="sans-serif" font-size="12" font-style="italic" lengthAdjust="spacing" textLength="43.3594" x="425.0028" y="481.4492">&#171;Entity&#187;</text><text fill="#000000" font-family="sans-serif" font-size="14" lengthAdjust="spacing" textLength="80.165" x="406.6" y="499.5684">Maintenance</text><line style="stroke:#181818;stroke-width:0.5;" x1="366.5" x2="498.665" y1="508.082" y2="508.082"/><ellipse cx="376.5" cy="522.8926" fill="none" rx="3" ry="3" style="stroke:#038048;stroke-width:1.0;"/><text fill="#000000" font-family="sans-serif" font-size="14" lengthAdjust="spacing" textLength="108.165" x="385.5" y="527.1895">String description</text><line style="stroke:#181818;stroke-width:0.5;" x1="366.5" x2="498.665" y1="534.7031" y2="534.7031"/></g><!--class SerialNumber--><g id="elem_SerialNumber"><rect codeLine="110" fill="#F1F1F1" height="79.2031" id="SerialNumber" rx="2.5" ry="2.5" style="stroke:#181818;stroke-width:0.5;" width="117.5859" x="534.5" y="463.5"/><ellipse cx="549.5" cy="485.791" fill="#ADD8E6" rx="11" ry="11" style="stroke:#181818;stroke-width:1.0;"/><path d="M550.0938,489.0566 L552.5625,483.1816 L552.1719,483.1816 Q551.5625,483.1816 551.2969,482.9473 Q551.0313,482.7129 551.0313,482.3223 Q551.0313,481.9473 551.2969,481.7129 Q551.5625,481.4785 552.1719,481.4785 L554.4531,481.4785 Q555.0625,481.4785 555.3281,481.7129 Q555.5938,481.9473 555.5938,482.3223 Q555.5938,482.791 555.1875,483.0566 Q555,483.1816 554.4063,483.1816 L550.9219,491.541 L549.2813,491.541 L545.7969,483.1816 Q545.2031,483.1816 545.0156,483.0566 Q544.6094,482.791 544.6094,482.3223 Q544.6094,481.9473 544.875,481.7129 Q545.1406,481.4785 545.75,481.4785 L548.0469,481.4785 Q548.6563,481.4785 548.9063,481.7129 Q549.1719,481.9473 549.1719,482.3223 Q549.1719,482.7129 548.9063,482.9473 Q548.6563,483.1816 548.0469,483.1816 L547.6406,483.1816 L550.0938,489.0566 Z " fill="#000000"/><text fill="#000000" font-family="sans-serif" font-size="12" font-style="italic" lengthAdjust="spacing" textLength="76.7168" x="567.9346" y="481.4492">&#171;valueObject&#187;</text><text fill="#000000" font-family="sans-serif" font-size="14" lengthAdjust="spacing" textLength="85.5859" x="563.5" y="499.5684">SerialNumber</text><line style="stroke:#181818;stroke-width:0.5;" x1="535.5" x2="651.0859" y1="508.082" y2="508.082"/><ellipse cx="545.5" cy="522.8926" fill="none" rx="3" ry="3" style="stroke:#038048;stroke-width:1.0;"/><text fill="#000000" font-family="sans-serif" font-size="14" lengthAdjust="spacing" textLength="52.1445" x="554.5" y="527.1895">int value</text><line style="stroke:#181818;stroke-width:0.5;" x1="535.5" x2="651.0859" y1="534.7031" y2="534.7031"/></g><!--class Figure--><g id="elem_Figure"><rect codeLine="124" fill="#F1F1F1" height="97.8242" id="Figure" rx="2.5" ry="2.5" style="stroke:#181818;stroke-width:0.5;" width="138.8477" x="1291" y="454"/><ellipse cx="1313.5489" cy="476.291" fill="#ADD1B2" rx="11" ry="11" style="stroke:#181818;stroke-width:1.0;"/><path d="M1316.3146,472.166 Q1316.4708,471.9473 1316.6583,471.8379 Q1316.8458,471.7285 1317.0646,471.7285 Q1317.4396,471.7285 1317.6739,471.9941 Q1317.9083,472.2441 1317.9083,472.8535 L1317.9083,474.3066 Q1317.9083,474.916 1317.6739,475.1816 Q1317.4396,475.4473 1317.0646,475.4473 Q1316.7208,475.4473 1316.5177,475.2441 Q1316.3146,475.0566 1316.2052,474.541 Q1316.1583,474.1816 1315.9708,473.9941 Q1315.6427,473.6191 1315.0333,473.4004 Q1314.4239,473.1816 1313.7989,473.1816 Q1313.0333,473.1816 1312.3927,473.5098 Q1311.7677,473.8379 1311.2677,474.5879 Q1310.7833,475.3379 1310.7833,476.3691 L1310.7833,477.4629 Q1310.7833,478.6973 1311.6739,479.5254 Q1312.5646,480.3379 1314.1583,480.3379 Q1315.0958,480.3379 1315.7521,480.0879 Q1316.1427,479.9316 1316.5646,479.4941 Q1316.8302,479.2285 1316.9708,479.1504 Q1317.1271,479.0723 1317.3302,479.0723 Q1317.6583,479.0723 1317.9083,479.3379 Q1318.1739,479.5879 1318.1739,479.9316 Q1318.1739,480.2754 1317.8302,480.6816 Q1317.3302,481.2598 1316.5333,481.5879 Q1315.4552,482.041 1314.1583,482.041 Q1312.6427,482.041 1311.4396,481.416 Q1310.4552,480.916 1309.7677,479.8535 Q1309.0802,478.7754 1309.0802,477.4941 L1309.0802,476.3379 Q1309.0802,475.0098 1309.6896,473.8691 Q1310.3146,472.7129 1311.4083,472.1035 Q1312.5021,471.4785 1313.7364,471.4785 Q1314.4708,471.4785 1315.1114,471.6504 Q1315.7677,471.8066 1316.3146,472.166 Z " fill="#000000"/><text fill="#000000" font-family="sans-serif" font-size="12" font-style="italic" lengthAdjust="spacing" textLength="94.0723" x="1327.2265" y="471.9492">&#171;AggregateRoot&#187;</text><text fill="#000000" font-family="sans-serif" font-size="14" lengthAdjust="spacing" textLength="39.6826" x="1354.4213" y="490.0684">Figure</text><line style="stroke:#181818;stroke-width:0.5;" x1="1292" x2="1428.8477" y1="498.582" y2="498.582"/><ellipse cx="1302" cy="513.3926" fill="none" rx="3" ry="3" style="stroke:#038048;stroke-width:1.0;"/><text fill="#000000" font-family="sans-serif" font-size="14" lengthAdjust="spacing" textLength="108.165" x="1311" y="517.6895">String description</text><ellipse cx="1302" cy="532.0137" fill="none" rx="3" ry="3" style="stroke:#038048;stroke-width:1.0;"/><text fill="#000000" font-family="sans-serif" font-size="14" lengthAdjust="spacing" textLength="112.8477" x="1311" y="536.3105">Boolean exclusive</text><line style="stroke:#181818;stroke-width:0.5;" x1="1292" x2="1428.8477" y1="543.8242" y2="543.8242"/></g><!--class ShowProposal--><g id="elem_ShowProposal"><rect codeLine="134" fill="#F1F1F1" height="116.4453" id="ShowProposal" rx="2.5" ry="2.5" style="stroke:#181818;stroke-width:0.5;" width="190.1924" x="119.5" y="44"/><ellipse cx="165.2085" cy="66.291" fill="#ADD1B2" rx="11" ry="11" style="stroke:#181818;stroke-width:1.0;"/><path d="M167.9741,62.166 Q168.1304,61.9473 168.3179,61.8379 Q168.5054,61.7285 168.7241,61.7285 Q169.0991,61.7285 169.3335,61.9941 Q169.5679,62.2441 169.5679,62.8535 L169.5679,64.3066 Q169.5679,64.916 169.3335,65.1816 Q169.0991,65.4473 168.7241,65.4473 Q168.3804,65.4473 168.1772,65.2441 Q167.9741,65.0566 167.8647,64.541 Q167.8179,64.1816 167.6304,63.9941 Q167.3022,63.6191 166.6929,63.4004 Q166.0835,63.1816 165.4585,63.1816 Q164.6929,63.1816 164.0522,63.5098 Q163.4272,63.8379 162.9272,64.5879 Q162.4429,65.3379 162.4429,66.3691 L162.4429,67.4629 Q162.4429,68.6973 163.3335,69.5254 Q164.2241,70.3379 165.8179,70.3379 Q166.7554,70.3379 167.4116,70.0879 Q167.8022,69.9316 168.2241,69.4941 Q168.4897,69.2285 168.6304,69.1504 Q168.7866,69.0723 168.9897,69.0723 Q169.3179,69.0723 169.5679,69.3379 Q169.8335,69.5879 169.8335,69.9316 Q169.8335,70.2754 169.4897,70.6816 Q168.9897,71.2598 168.1929,71.5879 Q167.1147,72.041 165.8179,72.041 Q164.3022,72.041 163.0991,71.416 Q162.1147,70.916 161.4272,69.8535 Q160.7397,68.7754 160.7397,67.4941 L160.7397,66.3379 Q160.7397,65.0098 161.3491,63.8691 Q161.9741,62.7129 163.0679,62.1035 Q164.1616,61.4785 165.396,61.4785 Q166.1304,61.4785 166.771,61.6504 Q167.4272,61.8066 167.9741,62.166 Z " fill="#000000"/><text fill="#000000" font-family="sans-serif" font-size="12" font-style="italic" lengthAdjust="spacing" textLength="94.0723" x="183.8101" y="61.9492">&#171;AggregateRoot&#187;</text><text fill="#000000" font-family="sans-serif" font-size="14" lengthAdjust="spacing" textLength="90.2754" x="185.7085" y="80.0684">ShowProposal</text><line style="stroke:#181818;stroke-width:0.5;" x1="120.5" x2="308.6924" y1="88.582" y2="88.582"/><ellipse cx="130.5" cy="103.3926" fill="none" rx="3" ry="3" style="stroke:#038048;stroke-width:1.0;"/><text fill="#000000" font-family="sans-serif" font-size="14" lengthAdjust="spacing" textLength="147.0684" x="139.5" y="107.6895">int proposalDronesNum</text><ellipse cx="130.5" cy="122.0137" fill="none" rx="3" ry="3" style="stroke:#038048;stroke-width:1.0;"/><text fill="#000000" font-family="sans-serif" font-size="14" lengthAdjust="spacing" textLength="125.2959" x="139.5" y="126.3105">int proposalDuration</text><ellipse cx="130.5" cy="140.6348" fill="none" rx="3" ry="3" style="stroke:#038048;stroke-width:1.0;"/><text fill="#000000" font-family="sans-serif" font-size="14" lengthAdjust="spacing" textLength="164.1924" x="139.5" y="144.9316">String proposalDescription</text><line style="stroke:#181818;stroke-width:0.5;" x1="120.5" x2="308.6924" y1="152.4453" y2="152.4453"/></g><!--class Status--><g id="elem_Status"><rect codeLine="139" fill="#F1F1F1" height="79.2031" id="Status" rx="2.5" ry="2.5" style="stroke:#181818;stroke-width:0.5;" width="104.7168" x="55" y="262"/><ellipse cx="70" cy="284.291" fill="#ADD8E6" rx="11" ry="11" style="stroke:#181818;stroke-width:1.0;"/><path d="M70.5938,287.5566 L73.0625,281.6816 L72.6719,281.6816 Q72.0625,281.6816 71.7969,281.4473 Q71.5313,281.2129 71.5313,280.8223 Q71.5313,280.4473 71.7969,280.2129 Q72.0625,279.9785 72.6719,279.9785 L74.9531,279.9785 Q75.5625,279.9785 75.8281,280.2129 Q76.0938,280.4473 76.0938,280.8223 Q76.0938,281.291 75.6875,281.5566 Q75.5,281.6816 74.9063,281.6816 L71.4219,290.041 L69.7813,290.041 L66.2969,281.6816 Q65.7031,281.6816 65.5156,281.5566 Q65.1094,281.291 65.1094,280.8223 Q65.1094,280.4473 65.375,280.2129 Q65.6406,279.9785 66.25,279.9785 L68.5469,279.9785 Q69.1563,279.9785 69.4063,280.2129 Q69.6719,280.4473 69.6719,280.8223 Q69.6719,281.2129 69.4063,281.4473 Q69.1563,281.6816 68.5469,281.6816 L68.1406,281.6816 L70.5938,287.5566 Z " fill="#000000"/><text fill="#000000" font-family="sans-serif" font-size="12" font-style="italic" lengthAdjust="spacing" textLength="76.7168" x="82" y="279.9492">&#171;valueObject&#187;</text><text fill="#000000" font-family="sans-serif" font-size="14" lengthAdjust="spacing" textLength="39.6895" x="100.5137" y="298.0684">Status</text><line style="stroke:#181818;stroke-width:0.5;" x1="56" x2="158.7168" y1="306.582" y2="306.582"/><ellipse cx="66" cy="321.3926" fill="none" rx="3" ry="3" style="stroke:#038048;stroke-width:1.0;"/><text fill="#000000" font-family="sans-serif" font-size="14" lengthAdjust="spacing" textLength="73.9307" x="75" y="325.6895">String value</text><line style="stroke:#181818;stroke-width:0.5;" x1="56" x2="158.7168" y1="333.2031" y2="333.2031"/></g><!--class Report--><g id="elem_Report"><rect codeLine="142" fill="#F1F1F1" height="79.2031" id="Report" rx="2.5" ry="2.5" style="stroke:#181818;stroke-width:0.5;" width="104.7168" x="195" y="262"/><ellipse cx="210" cy="284.291" fill="#ADD8E6" rx="11" ry="11" style="stroke:#181818;stroke-width:1.0;"/><path d="M210.5938,287.5566 L213.0625,281.6816 L212.6719,281.6816 Q212.0625,281.6816 211.7969,281.4473 Q211.5313,281.2129 211.5313,280.8223 Q211.5313,280.4473 211.7969,280.2129 Q212.0625,279.9785 212.6719,279.9785 L214.9531,279.9785 Q215.5625,279.9785 215.8281,280.2129 Q216.0938,280.4473 216.0938,280.8223 Q216.0938,281.291 215.6875,281.5566 Q215.5,281.6816 214.9063,281.6816 L211.4219,290.041 L209.7813,290.041 L206.2969,281.6816 Q205.7031,281.6816 205.5156,281.5566 Q205.1094,281.291 205.1094,280.8223 Q205.1094,280.4473 205.375,280.2129 Q205.6406,279.9785 206.25,279.9785 L208.5469,279.9785 Q209.1563,279.9785 209.4063,280.2129 Q209.6719,280.4473 209.6719,280.8223 Q209.6719,281.2129 209.4063,281.4473 Q209.1563,281.6816 208.5469,281.6816 L208.1406,281.6816 L210.5938,287.5566 Z " fill="#000000"/><text fill="#000000" font-family="sans-serif" font-size="12" font-style="italic" lengthAdjust="spacing" textLength="76.7168" x="222" y="279.9492">&#171;valueObject&#187;</text><text fill="#000000" font-family="sans-serif" font-size="14" lengthAdjust="spacing" textLength="42.0205" x="239.3481" y="298.0684">Report</text><line style="stroke:#181818;stroke-width:0.5;" x1="196" x2="298.7168" y1="306.582" y2="306.582"/><ellipse cx="206" cy="321.3926" fill="none" rx="3" ry="3" style="stroke:#038048;stroke-width:1.0;"/><text fill="#000000" font-family="sans-serif" font-size="14" lengthAdjust="spacing" textLength="73.9307" x="215" y="325.6895">String value</text><line style="stroke:#181818;stroke-width:0.5;" x1="196" x2="298.7168" y1="333.2031" y2="333.2031"/></g><!--class SystemUser--><g id="elem_SystemUser"><rect codeLine="157" fill="#F1F1F1" height="79.2031" id="SystemUser" rx="2.5" ry="2.5" style="stroke:#181818;stroke-width:0.5;" width="122.0723" x="2583.5" y="1062"/><ellipse cx="2598.5" cy="1084.291" fill="#ADD1B2" rx="11" ry="11" style="stroke:#181818;stroke-width:1.0;"/><path d="M2601.2656,1080.166 Q2601.4219,1079.9473 2601.6094,1079.8379 Q2601.7969,1079.7285 2602.0156,1079.7285 Q2602.3906,1079.7285 2602.625,1079.9941 Q2602.8594,1080.2441 2602.8594,1080.8535 L2602.8594,1082.3066 Q2602.8594,1082.916 2602.625,1083.1816 Q2602.3906,1083.4473 2602.0156,1083.4473 Q2601.6719,1083.4473 2601.4688,1083.2441 Q2601.2656,1083.0566 2601.1563,1082.541 Q2601.1094,1082.1816 2600.9219,1081.9941 Q2600.5938,1081.6191 2599.9844,1081.4004 Q2599.375,1081.1816 2598.75,1081.1816 Q2597.9844,1081.1816 2597.3438,1081.5098 Q2596.7188,1081.8379 2596.2188,1082.5879 Q2595.7344,1083.3379 2595.7344,1084.3691 L2595.7344,1085.4629 Q2595.7344,1086.6973 2596.625,1087.5254 Q2597.5156,1088.3379 2599.1094,1088.3379 Q2600.0469,1088.3379 2600.7031,1088.0879 Q2601.0938,1087.9316 2601.5156,1087.4941 Q2601.7813,1087.2285 2601.9219,1087.1504 Q2602.0781,1087.0723 2602.2813,1087.0723 Q2602.6094,1087.0723 2602.8594,1087.3379 Q2603.125,1087.5879 2603.125,1087.9316 Q2603.125,1088.2754 2602.7813,1088.6816 Q2602.2813,1089.2598 2601.4844,1089.5879 Q2600.4063,1090.041 2599.1094,1090.041 Q2597.5938,1090.041 2596.3906,1089.416 Q2595.4063,1088.916 2594.7188,1087.8535 Q2594.0313,1086.7754 2594.0313,1085.4941 L2594.0313,1084.3379 Q2594.0313,1083.0098 2594.6406,1081.8691 Q2595.2656,1080.7129 2596.3594,1080.1035 Q2597.4531,1079.4785 2598.6875,1079.4785 Q2599.4219,1079.4785 2600.0625,1079.6504 Q2600.7188,1079.8066 2601.2656,1080.166 Z " fill="#000000"/><text fill="#000000" font-family="sans-serif" font-size="12" font-style="italic" lengthAdjust="spacing" textLength="94.0723" x="2610.5" y="1079.9492">&#171;AggregateRoot&#187;</text><text fill="#000000" font-family="sans-serif" font-size="14" lengthAdjust="spacing" textLength="76.2344" x="2619.4189" y="1098.0684">SystemUser</text><line style="stroke:#181818;stroke-width:0.5;" x1="2584.5" x2="2704.5723" y1="1106.582" y2="1106.582"/><ellipse cx="2594.5" cy="1121.3926" fill="none" rx="3" ry="3" style="stroke:#038048;stroke-width:1.0;"/><text fill="#000000" font-family="sans-serif" font-size="14" lengthAdjust="spacing" textLength="75.4824" x="2603.5" y="1125.6895">String name</text><line style="stroke:#181818;stroke-width:0.5;" x1="2584.5" x2="2704.5723" y1="1133.2031" y2="1133.2031"/></g><!--class SystemStatus--><g id="elem_SystemStatus"><rect codeLine="161" fill="#F1F1F1" height="97.8242" id="SystemStatus" rx="2.5" ry="2.5" style="stroke:#181818;stroke-width:0.5;" width="118.3652" x="2371.5" y="1250"/><ellipse cx="2386.5" cy="1272.291" fill="#EB937F" rx="11" ry="11" style="stroke:#181818;stroke-width:1.0;"/><path d="M2385.3594,1273.0879 L2385.3594,1275.5879 L2389.6875,1275.5879 L2389.6875,1274.666 Q2389.6875,1274.0566 2389.9219,1273.791 Q2390.1719,1273.5254 2390.5469,1273.5254 Q2390.9219,1273.5254 2391.1563,1273.791 Q2391.3906,1274.0566 2391.3906,1274.666 L2391.3906,1277.291 L2383.3906,1277.291 Q2382.7656,1277.291 2382.5,1277.0566 Q2382.25,1276.8223 2382.25,1276.4316 Q2382.25,1276.0566 2382.5156,1275.8223 Q2382.7813,1275.5879 2383.3906,1275.5879 L2383.6563,1275.5879 L2383.6563,1268.9316 L2383.3906,1268.9316 Q2382.7656,1268.9316 2382.5,1268.6973 Q2382.25,1268.4629 2382.25,1268.0723 Q2382.25,1267.6973 2382.5,1267.4629 Q2382.7656,1267.2285 2383.3906,1267.2285 L2391.0156,1267.2285 L2391.0156,1269.8223 Q2391.0156,1270.4316 2390.7813,1270.6973 Q2390.5625,1270.9473 2390.1719,1270.9473 Q2389.7969,1270.9473 2389.5625,1270.6973 Q2389.3281,1270.4316 2389.3281,1269.8223 L2389.3281,1268.9316 L2385.3594,1268.9316 L2385.3594,1271.3848 L2386.8438,1271.3848 Q2386.8438,1270.7285 2386.9688,1270.541 Q2387.2344,1270.1348 2387.7031,1270.1348 Q2388.0781,1270.1348 2388.3125,1270.4004 Q2388.5469,1270.6504 2388.5469,1271.2598 L2388.5469,1273.2285 Q2388.5469,1273.7754 2388.4219,1273.9629 Q2388.1563,1274.3535 2387.7031,1274.3535 Q2387.2344,1274.3535 2386.9688,1273.9473 Q2386.8438,1273.7598 2386.8438,1273.0879 L2385.3594,1273.0879 Z " fill="#000000"/><text fill="#000000" font-family="sans-serif" font-size="12" font-style="italic" lengthAdjust="spacing" textLength="44.6953" x="2421.335" y="1267.9492">&#171;Enum&#187;</text><text fill="#000000" font-family="sans-serif" font-size="14" lengthAdjust="spacing" textLength="86.3652" x="2400.5" y="1286.0684">SystemStatus</text><line style="stroke:#181818;stroke-width:0.5;" x1="2372.5" x2="2488.8652" y1="1294.582" y2="1294.582"/><ellipse cx="2382.5" cy="1309.3926" fill="none" rx="3" ry="3" style="stroke:#038048;stroke-width:1.0;"/><text fill="#000000" font-family="sans-serif" font-size="14" lengthAdjust="spacing" textLength="50.5654" x="2391.5" y="1313.6895">ACTIVE</text><ellipse cx="2382.5" cy="1328.0137" fill="none" rx="3" ry="3" style="stroke:#038048;stroke-width:1.0;"/><text fill="#000000" font-family="sans-serif" font-size="14" lengthAdjust="spacing" textLength="64.5654" x="2391.5" y="1332.3105">INACTIVE</text><line style="stroke:#181818;stroke-width:0.5;" x1="2372.5" x2="2488.8652" y1="1339.8242" y2="1339.8242"/></g><!--class SystemRole--><g id="elem_SystemRole"><rect codeLine="166" fill="#F1F1F1" height="153.6875" id="SystemRole" rx="2.5" ry="2.5" style="stroke:#181818;stroke-width:0.5;" width="239.9238" x="2524.5" y="1222"/><ellipse cx="2602.4775" cy="1244.291" fill="#EB937F" rx="11" ry="11" style="stroke:#181818;stroke-width:1.0;"/><path d="M2601.3369,1245.0879 L2601.3369,1247.5879 L2605.665,1247.5879 L2605.665,1246.666 Q2605.665,1246.0566 2605.8994,1245.791 Q2606.1494,1245.5254 2606.5244,1245.5254 Q2606.8994,1245.5254 2607.1338,1245.791 Q2607.3682,1246.0566 2607.3682,1246.666 L2607.3682,1249.291 L2599.3682,1249.291 Q2598.7432,1249.291 2598.4775,1249.0566 Q2598.2275,1248.8223 2598.2275,1248.4316 Q2598.2275,1248.0566 2598.4932,1247.8223 Q2598.7588,1247.5879 2599.3682,1247.5879 L2599.6338,1247.5879 L2599.6338,1240.9316 L2599.3682,1240.9316 Q2598.7432,1240.9316 2598.4775,1240.6973 Q2598.2275,1240.4629 2598.2275,1240.0723 Q2598.2275,1239.6973 2598.4775,1239.4629 Q2598.7432,1239.2285 2599.3682,1239.2285 L2606.9932,1239.2285 L2606.9932,1241.8223 Q2606.9932,1242.4316 2606.7588,1242.6973 Q2606.54,1242.9473 2606.1494,1242.9473 Q2605.7744,1242.9473 2605.54,1242.6973 Q2605.3057,1242.4316 2605.3057,1241.8223 L2605.3057,1240.9316 L2601.3369,1240.9316 L2601.3369,1243.3848 L2602.8213,1243.3848 Q2602.8213,1242.7285 2602.9463,1242.541 Q2603.2119,1242.1348 2603.6807,1242.1348 Q2604.0557,1242.1348 2604.29,1242.4004 Q2604.5244,1242.6504 2604.5244,1243.2598 L2604.5244,1245.2285 Q2604.5244,1245.7754 2604.3994,1245.9629 Q2604.1338,1246.3535 2603.6807,1246.3535 Q2603.2119,1246.3535 2602.9463,1245.9473 Q2602.8213,1245.7598 2602.8213,1245.0879 L2601.3369,1245.0879 Z " fill="#000000"/><text fill="#000000" font-family="sans-serif" font-size="12" font-style="italic" lengthAdjust="spacing" textLength="44.6953" x="2638.3643" y="1239.9492">&#171;Enum&#187;</text><text fill="#000000" font-family="sans-serif" font-size="14" lengthAdjust="spacing" textLength="75.4688" x="2622.9775" y="1258.0684">SystemRole</text><line style="stroke:#181818;stroke-width:0.5;" x1="2525.5" x2="2763.4238" y1="1266.582" y2="1266.582"/><ellipse cx="2535.5" cy="1281.3926" fill="none" rx="3" ry="3" style="stroke:#038048;stroke-width:1.0;"/><text fill="#000000" font-family="sans-serif" font-size="14" lengthAdjust="spacing" textLength="45.1104" x="2544.5" y="1285.6895">ADMIN</text><ellipse cx="2535.5" cy="1300.0137" fill="none" rx="3" ry="3" style="stroke:#038048;stroke-width:1.0;"/><text fill="#000000" font-family="sans-serif" font-size="14" lengthAdjust="spacing" textLength="110.4551" x="2544.5" y="1304.3105">CRM_MANAGER</text><ellipse cx="2535.5" cy="1318.6348" fill="none" rx="3" ry="3" style="stroke:#038048;stroke-width:1.0;"/><text fill="#000000" font-family="sans-serif" font-size="14" lengthAdjust="spacing" textLength="154.8066" x="2544.5" y="1322.9316">CRM_COLLABORATOR</text><ellipse cx="2535.5" cy="1337.2559" fill="none" rx="3" ry="3" style="stroke:#038048;stroke-width:1.0;"/><text fill="#000000" font-family="sans-serif" font-size="14" lengthAdjust="spacing" textLength="124.4619" x="2544.5" y="1341.5527">SHOW_DESIGNER</text><ellipse cx="2535.5" cy="1355.877" fill="none" rx="3" ry="3" style="stroke:#038048;stroke-width:1.0;"/><text fill="#000000" font-family="sans-serif" font-size="14" lengthAdjust="spacing" textLength="213.9238" x="2544.5" y="1360.1738">CUSTOMER_REPRESENTATIVE</text><line style="stroke:#181818;stroke-width:0.5;" x1="2525.5" x2="2763.4238" y1="1367.6875" y2="1367.6875"/></g><!--class Username--><g id="elem_Username"><rect codeLine="174" fill="#F1F1F1" height="79.2031" id="Username" rx="2.5" ry="2.5" style="stroke:#181818;stroke-width:0.5;" width="104.7168" x="2800" y="1259.5"/><ellipse cx="2815" cy="1281.791" fill="#ADD8E6" rx="11" ry="11" style="stroke:#181818;stroke-width:1.0;"/><path d="M2815.5938,1285.0566 L2818.0625,1279.1816 L2817.6719,1279.1816 Q2817.0625,1279.1816 2816.7969,1278.9473 Q2816.5313,1278.7129 2816.5313,1278.3223 Q2816.5313,1277.9473 2816.7969,1277.7129 Q2817.0625,1277.4785 2817.6719,1277.4785 L2819.9531,1277.4785 Q2820.5625,1277.4785 2820.8281,1277.7129 Q2821.0938,1277.9473 2821.0938,1278.3223 Q2821.0938,1278.791 2820.6875,1279.0566 Q2820.5,1279.1816 2819.9063,1279.1816 L2816.4219,1287.541 L2814.7813,1287.541 L2811.2969,1279.1816 Q2810.7031,1279.1816 2810.5156,1279.0566 Q2810.1094,1278.791 2810.1094,1278.3223 Q2810.1094,1277.9473 2810.375,1277.7129 Q2810.6406,1277.4785 2811.25,1277.4785 L2813.5469,1277.4785 Q2814.1563,1277.4785 2814.4063,1277.7129 Q2814.6719,1277.9473 2814.6719,1278.3223 Q2814.6719,1278.7129 2814.4063,1278.9473 Q2814.1563,1279.1816 2813.5469,1279.1816 L2813.1406,1279.1816 L2815.5938,1285.0566 Z " fill="#000000"/><text fill="#000000" font-family="sans-serif" font-size="12" font-style="italic" lengthAdjust="spacing" textLength="76.7168" x="2827" y="1277.4492">&#171;valueObject&#187;</text><text fill="#000000" font-family="sans-serif" font-size="14" lengthAdjust="spacing" textLength="64.5791" x="2833.0688" y="1295.5684">Username</text><line style="stroke:#181818;stroke-width:0.5;" x1="2801" x2="2903.7168" y1="1304.082" y2="1304.082"/><ellipse cx="2811" cy="1318.8926" fill="none" rx="3" ry="3" style="stroke:#038048;stroke-width:1.0;"/><text fill="#000000" font-family="sans-serif" font-size="14" lengthAdjust="spacing" textLength="73.9307" x="2820" y="1323.1895">String value</text><line style="stroke:#181818;stroke-width:0.5;" x1="2801" x2="2903.7168" y1="1330.7031" y2="1330.7031"/></g><!--class Password--><g id="elem_Password"><rect codeLine="178" fill="#F1F1F1" height="79.2031" id="Password" rx="2.5" ry="2.5" style="stroke:#181818;stroke-width:0.5;" width="104.7168" x="2940" y="1259.5"/><ellipse cx="2955" cy="1281.791" fill="#ADD8E6" rx="11" ry="11" style="stroke:#181818;stroke-width:1.0;"/><path d="M2955.5938,1285.0566 L2958.0625,1279.1816 L2957.6719,1279.1816 Q2957.0625,1279.1816 2956.7969,1278.9473 Q2956.5313,1278.7129 2956.5313,1278.3223 Q2956.5313,1277.9473 2956.7969,1277.7129 Q2957.0625,1277.4785 2957.6719,1277.4785 L2959.9531,1277.4785 Q2960.5625,1277.4785 2960.8281,1277.7129 Q2961.0938,1277.9473 2961.0938,1278.3223 Q2961.0938,1278.791 2960.6875,1279.0566 Q2960.5,1279.1816 2959.9063,1279.1816 L2956.4219,1287.541 L2954.7813,1287.541 L2951.2969,1279.1816 Q2950.7031,1279.1816 2950.5156,1279.0566 Q2950.1094,1278.791 2950.1094,1278.3223 Q2950.1094,1277.9473 2950.375,1277.7129 Q2950.6406,1277.4785 2951.25,1277.4785 L2953.5469,1277.4785 Q2954.1563,1277.4785 2954.4063,1277.7129 Q2954.6719,1277.9473 2954.6719,1278.3223 Q2954.6719,1278.7129 2954.4063,1278.9473 Q2954.1563,1279.1816 2953.5469,1279.1816 L2953.1406,1279.1816 L2955.5938,1285.0566 Z " fill="#000000"/><text fill="#000000" font-family="sans-serif" font-size="12" font-style="italic" lengthAdjust="spacing" textLength="76.7168" x="2967" y="1277.4492">&#171;valueObject&#187;</text><text fill="#000000" font-family="sans-serif" font-size="14" lengthAdjust="spacing" textLength="61.4688" x="2974.624" y="1295.5684">Password</text><line style="stroke:#181818;stroke-width:0.5;" x1="2941" x2="3043.7168" y1="1304.082" y2="1304.082"/><ellipse cx="2951" cy="1318.8926" fill="none" rx="3" ry="3" style="stroke:#038048;stroke-width:1.0;"/><text fill="#000000" font-family="sans-serif" font-size="14" lengthAdjust="spacing" textLength="73.9307" x="2960" y="1323.1895">String value</text><line style="stroke:#181818;stroke-width:0.5;" x1="2941" x2="3043.7168" y1="1330.7031" y2="1330.7031"/></g><!--class ID--><g id="elem_ID"><rect codeLine="5" fill="#F1F1F1" height="79.2031" id="ID" rx="2.5" ry="2.5" style="stroke:#181818;stroke-width:0.5;" width="104.7168" x="959" y="665"/><ellipse cx="974" cy="687.291" fill="#ADD8E6" rx="11" ry="11" style="stroke:#181818;stroke-width:1.0;"/><path d="M974.5938,690.5566 L977.0625,684.6816 L976.6719,684.6816 Q976.0625,684.6816 975.7969,684.4473 Q975.5313,684.2129 975.5313,683.8223 Q975.5313,683.4473 975.7969,683.2129 Q976.0625,682.9785 976.6719,682.9785 L978.9531,682.9785 Q979.5625,682.9785 979.8281,683.2129 Q980.0938,683.4473 980.0938,683.8223 Q980.0938,684.291 979.6875,684.5566 Q979.5,684.6816 978.9063,684.6816 L975.4219,693.041 L973.7813,693.041 L970.2969,684.6816 Q969.7031,684.6816 969.5156,684.5566 Q969.1094,684.291 969.1094,683.8223 Q969.1094,683.4473 969.375,683.2129 Q969.6406,682.9785 970.25,682.9785 L972.5469,682.9785 Q973.1563,682.9785 973.4063,683.2129 Q973.6719,683.4473 973.6719,683.8223 Q973.6719,684.2129 973.4063,684.4473 Q973.1563,684.6816 972.5469,684.6816 L972.1406,684.6816 L974.5938,690.5566 Z " fill="#000000"/><text fill="#000000" font-family="sans-serif" font-size="12" font-style="italic" lengthAdjust="spacing" textLength="76.7168" x="986" y="682.9492">&#171;valueObject&#187;</text><text fill="#000000" font-family="sans-serif" font-size="14" lengthAdjust="spacing" textLength="14" x="1017.3584" y="701.0684">ID</text><line style="stroke:#181818;stroke-width:0.5;" x1="960" x2="1062.7168" y1="709.582" y2="709.582"/><ellipse cx="970" cy="724.3926" fill="none" rx="3" ry="3" style="stroke:#038048;stroke-width:1.0;"/><text fill="#000000" font-family="sans-serif" font-size="14" lengthAdjust="spacing" textLength="52.1445" x="979" y="728.6895">int value</text><line style="stroke:#181818;stroke-width:0.5;" x1="960" x2="1062.7168" y1="736.2031" y2="736.2031"/></g><!--class Date--><g id="elem_Date"><rect codeLine="9" fill="#F1F1F1" height="79.2031" id="Date" rx="2.5" ry="2.5" style="stroke:#181818;stroke-width:0.5;" width="104.7168" x="220" y="665"/><ellipse cx="235" cy="687.291" fill="#ADD8E6" rx="11" ry="11" style="stroke:#181818;stroke-width:1.0;"/><path d="M235.5938,690.5566 L238.0625,684.6816 L237.6719,684.6816 Q237.0625,684.6816 236.7969,684.4473 Q236.5313,684.2129 236.5313,683.8223 Q236.5313,683.4473 236.7969,683.2129 Q237.0625,682.9785 237.6719,682.9785 L239.9531,682.9785 Q240.5625,682.9785 240.8281,683.2129 Q241.0938,683.4473 241.0938,683.8223 Q241.0938,684.291 240.6875,684.5566 Q240.5,684.6816 239.9063,684.6816 L236.4219,693.041 L234.7813,693.041 L231.2969,684.6816 Q230.7031,684.6816 230.5156,684.5566 Q230.1094,684.291 230.1094,683.8223 Q230.1094,683.4473 230.375,683.2129 Q230.6406,682.9785 231.25,682.9785 L233.5469,682.9785 Q234.1563,682.9785 234.4063,683.2129 Q234.6719,683.4473 234.6719,683.8223 Q234.6719,684.2129 234.4063,684.4473 Q234.1563,684.6816 233.5469,684.6816 L233.1406,684.6816 L235.5938,690.5566 Z " fill="#000000"/><text fill="#000000" font-family="sans-serif" font-size="12" font-style="italic" lengthAdjust="spacing" textLength="76.7168" x="247" y="682.9492">&#171;valueObject&#187;</text><text fill="#000000" font-family="sans-serif" font-size="14" lengthAdjust="spacing" textLength="29.5723" x="270.5723" y="701.0684">Date</text><line style="stroke:#181818;stroke-width:0.5;" x1="221" x2="323.7168" y1="709.582" y2="709.582"/><ellipse cx="231" cy="724.3926" fill="none" rx="3" ry="3" style="stroke:#038048;stroke-width:1.0;"/><text fill="#000000" font-family="sans-serif" font-size="14" lengthAdjust="spacing" textLength="73.9307" x="240" y="728.6895">String value</text><line style="stroke:#181818;stroke-width:0.5;" x1="221" x2="323.7168" y1="736.2031" y2="736.2031"/></g><!--class Address--><g id="elem_Address"><rect codeLine="12" fill="#F1F1F1" height="135.0664" id="Address" rx="2.5" ry="2.5" style="stroke:#181818;stroke-width:0.5;" width="137.2891" x="1217" y="825"/><ellipse cx="1246.6575" cy="847.291" fill="#ADD8E6" rx="11" ry="11" style="stroke:#181818;stroke-width:1.0;"/><path d="M1247.2513,850.5566 L1249.72,844.6816 L1249.3294,844.6816 Q1248.72,844.6816 1248.4544,844.4473 Q1248.1888,844.2129 1248.1888,843.8223 Q1248.1888,843.4473 1248.4544,843.2129 Q1248.72,842.9785 1249.3294,842.9785 L1251.6106,842.9785 Q1252.22,842.9785 1252.4856,843.2129 Q1252.7513,843.4473 1252.7513,843.8223 Q1252.7513,844.291 1252.345,844.5566 Q1252.1575,844.6816 1251.5638,844.6816 L1248.0794,853.041 L1246.4388,853.041 L1242.9544,844.6816 Q1242.3606,844.6816 1242.1731,844.5566 Q1241.7669,844.291 1241.7669,843.8223 Q1241.7669,843.4473 1242.0325,843.2129 Q1242.2981,842.9785 1242.9075,842.9785 L1245.2044,842.9785 Q1245.8138,842.9785 1246.0638,843.2129 Q1246.3294,843.4473 1246.3294,843.8223 Q1246.3294,844.2129 1246.0638,844.4473 Q1245.8138,844.6816 1245.2044,844.6816 L1244.7981,844.6816 L1247.2513,850.5566 Z " fill="#000000"/><text fill="#000000" font-family="sans-serif" font-size="12" font-style="italic" lengthAdjust="spacing" textLength="76.7168" x="1261.9147" y="842.9492">&#171;valueObject&#187;</text><text fill="#000000" font-family="sans-serif" font-size="14" lengthAdjust="spacing" textLength="51.3584" x="1274.5939" y="861.0684">Address</text><line style="stroke:#181818;stroke-width:0.5;" x1="1218" x2="1353.2891" y1="869.582" y2="869.582"/><ellipse cx="1228" cy="884.3926" fill="none" rx="3" ry="3" style="stroke:#038048;stroke-width:1.0;"/><text fill="#000000" font-family="sans-serif" font-size="14" lengthAdjust="spacing" textLength="75.4756" x="1237" y="888.6895">String street</text><ellipse cx="1228" cy="903.0137" fill="none" rx="3" ry="3" style="stroke:#038048;stroke-width:1.0;"/><text fill="#000000" font-family="sans-serif" font-size="14" lengthAdjust="spacing" textLength="61.4619" x="1237" y="907.3105">String city</text><ellipse cx="1228" cy="921.6348" fill="none" rx="3" ry="3" style="stroke:#038048;stroke-width:1.0;"/><text fill="#000000" font-family="sans-serif" font-size="14" lengthAdjust="spacing" textLength="111.2891" x="1237" y="925.9316">String postalCode</text><ellipse cx="1228" cy="940.2559" fill="none" rx="3" ry="3" style="stroke:#038048;stroke-width:1.0;"/><text fill="#000000" font-family="sans-serif" font-size="14" lengthAdjust="spacing" textLength="86.3721" x="1237" y="944.5527">String country</text><line style="stroke:#181818;stroke-width:0.5;" x1="1218" x2="1353.2891" y1="952.0664" y2="952.0664"/></g><!--link DroneModel to ID--><g id="link_DroneModel_ID"><path codeLine="33" d="M778.1,542.55 C752.69,562.53 733.32,587.78 750.5,612 C797.72,678.59 891.339,696.6132 952.929,701.5232 " fill="none" id="DroneModel-to-ID" style="stroke:#181818;stroke-width:1.0;"/><polygon fill="#181818" points="958.91,702,950.2563,697.2974,953.9258,701.6027,949.6206,705.2721,958.91,702" style="stroke:#181818;stroke-width:1.0;"/><text fill="#000000" font-family="sans-serif" font-size="13" lengthAdjust="spacing" textLength="83.8145" x="751.5" y="608.0283">DroneModelID</text><text fill="#000000" font-family="sans-serif" font-size="13" lengthAdjust="spacing" textLength="7.23" x="759.2682" y="564.8445">1</text><text fill="#000000" font-family="sans-serif" font-size="13" lengthAdjust="spacing" textLength="7.23" x="943.7095" y="697.4191">1</text></g><!--link DroneModel to Language--><g id="link_DroneModel_Language"><path codeLine="34" d="M768.09,542.63 C725.77,564.61 680.77,588.63 677.5,593 C662.13,613.56 656.9585,636.0299 655.0885,658.9199 " fill="none" id="DroneModel-to-Language" style="stroke:#181818;stroke-width:1.0;"/><polygon fill="#181818" points="654.6,664.9,659.3195,656.2556,655.0071,659.9166,651.3461,655.6042,654.6,664.9" style="stroke:#181818;stroke-width:1.0;"/><text fill="#000000" font-family="sans-serif" font-size="13" lengthAdjust="spacing" textLength="57.8398" x="678.5" y="608.0283">Language</text><text fill="#000000" font-family="sans-serif" font-size="13" lengthAdjust="spacing" textLength="7.23" x="748.0305" y="564.6371">1</text><text fill="#000000" font-family="sans-serif" font-size="13" lengthAdjust="spacing" textLength="7.23" x="647.0292" y="653.6687">1</text></g><!--link Customer to VAT--><g id="link_Customer_VAT"><path codeLine="75" d="M1508.42,744.12 C1497.54,753.46 1487.21,764.2 1479.5,776 C1464.45,799.03 1457.6781,823.2436 1453.6781,846.9536 " fill="none" id="Customer-to-VAT" style="stroke:#181818;stroke-width:1.0;"/><polygon fill="#181818" points="1452.68,852.87,1458.1215,844.6608,1453.5118,847.9397,1450.2329,843.33,1452.68,852.87" style="stroke:#181818;stroke-width:1.0;"/><text fill="#000000" font-family="sans-serif" font-size="13" lengthAdjust="spacing" textLength="81.6309" x="1480.5" y="791.0283">CustomerVAT</text><text fill="#000000" font-family="sans-serif" font-size="13" lengthAdjust="spacing" textLength="7.23" x="1491.4589" y="765.8244">1</text><text fill="#000000" font-family="sans-serif" font-size="13" lengthAdjust="spacing" textLength="7.23" x="1445.841" y="841.6335">1</text></g><!--link Customer to Address--><g id="link_Customer_Address"><path codeLine="76" d="M1506.34,714.17 C1460.78,723.21 1399.16,741.16 1355.5,776 C1339.19,789.02 1328.8193,801.7785 1318.2393,819.6285 " fill="none" id="Customer-to-Address" style="stroke:#181818;stroke-width:1.0;"/><polygon fill="#181818" points="1315.18,824.79,1323.2099,819.0873,1317.7294,820.4888,1316.328,815.0083,1315.18,824.79" style="stroke:#181818;stroke-width:1.0;"/><text fill="#000000" font-family="sans-serif" font-size="13" lengthAdjust="spacing" textLength="104.0381" x="1356.5" y="791.0283">CustomerAddress</text><text fill="#000000" font-family="sans-serif" font-size="13" lengthAdjust="spacing" textLength="7.23" x="1491.4692" y="711.3463">1</text><text fill="#000000" font-family="sans-serif" font-size="13" lengthAdjust="spacing" textLength="7.23" x="1310.8768" y="813.9707">1</text></g><!--link Customer to Representative--><g id="link_Customer_Representative"><path codeLine="77" d="M1628.75,727.35 C1684.48,748.51 1767.96,783.43 1834.5,825 C1843.56,830.66 1847.9794,833.4982 1857.0394,839.8982 " fill="none" id="Customer-to-Representative" style="stroke:#181818;stroke-width:1.0;"/><polygon fill="#181818" points="1861.94,843.36,1856.897,834.9002,1857.8562,840.4752,1852.2812,841.4344,1861.94,843.36" style="stroke:#181818;stroke-width:1.0;"/><text fill="#000000" font-family="sans-serif" font-size="13" lengthAdjust="spacing" textLength="93.939" x="1779.5" y="791.0283">Representatives</text><text fill="#000000" font-family="sans-serif" font-size="13" lengthAdjust="spacing" textLength="7.23" x="1636.651" y="745.2045">1</text><text fill="#000000" font-family="sans-serif" font-size="13" lengthAdjust="spacing" textLength="5.0591" x="1848.5974" y="833.0331">*</text></g><!--link Customer to Email--><g id="link_Customer_Email"><path codeLine="78" d="M1569.94,744.09 C1574.72,819.61 1584.8808,980.122 1589.6708,1055.762 " fill="none" id="Customer-to-Email" style="stroke:#181818;stroke-width:1.0;"/><polygon fill="#181818" points="1590.05,1061.75,1593.4732,1052.5152,1589.734,1056.76,1585.4892,1053.0208,1590.05,1061.75" style="stroke:#181818;stroke-width:1.0;"/><text fill="#000000" font-family="sans-serif" font-size="13" lengthAdjust="spacing" textLength="88.8545" x="1583.5" y="898.0283">CustomerEmail</text><text fill="#000000" font-family="sans-serif" font-size="13" lengthAdjust="spacing" textLength="7.23" x="1562.7775" y="766.0905">1</text><text fill="#000000" font-family="sans-serif" font-size="13" lengthAdjust="spacing" textLength="7.23" x="1582.107" y="1050.7942">1</text></g><!--link Customer to Phone--><g id="link_Customer_Phone"><path codeLine="79" d="M1612.48,744.05 C1635.53,765.82 1662.46,794.7 1680.5,825 C1726.37,902.07 1749.0621,1000.1576 1759.2121,1055.7376 " fill="none" id="Customer-to-Phone" style="stroke:#181818;stroke-width:1.0;"/><polygon fill="#181818" points="1760.29,1061.64,1762.6081,1052.0678,1759.3918,1056.7213,1754.7382,1053.505,1760.29,1061.64" style="stroke:#181818;stroke-width:1.0;"/><text fill="#000000" font-family="sans-serif" font-size="13" lengthAdjust="spacing" textLength="93.939" x="1736.5" y="898.0283">CustomerPhone</text><text fill="#000000" font-family="sans-serif" font-size="13" lengthAdjust="spacing" textLength="7.23" x="1612.6229" y="766.3445">1</text><text fill="#000000" font-family="sans-serif" font-size="13" lengthAdjust="spacing" textLength="7.23" x="1751.7243" y="1050.666">1</text></g><!--link Customer to CustomerType--><g id="link_Customer_CustomerType"><path codeLine="80" d="M1628.54,711.67 C1717.08,722.84 1883.83,752.4 2005.5,825 C2014.43,830.33 2018.6351,832.9748 2027.1151,839.5748 " fill="none" id="Customer-to-CustomerType" style="stroke:#181818;stroke-width:1.0;"/><polygon fill="#181818" points="2031.85,843.26,2027.2044,834.5756,2027.9042,840.189,2022.2908,840.8888,2031.85,843.26" style="stroke:#181818;stroke-width:1.0;"/><text fill="#000000" font-family="sans-serif" font-size="13" lengthAdjust="spacing" textLength="85.249" x="1940.5" y="791.0283">CustomerType</text><text fill="#000000" font-family="sans-serif" font-size="13" lengthAdjust="spacing" textLength="5.0591" x="1636.6802" y="708.5335">*</text><text fill="#000000" font-family="sans-serif" font-size="13" lengthAdjust="spacing" textLength="7.23" x="2016.9837" y="832.2015">1</text></g><!--link Customer to CustomerStatus--><g id="link_Customer_CustomerStatus"><path codeLine="81" d="M1628.78,710.6 C1718.83,719.03 1891.69,738.75 2034.5,776 C2094.25,791.58 2110.76,794.59 2164.5,825 C2170.33,828.3 2171.2144,828.612 2176.9644,832.512 " fill="none" id="Customer-to-CustomerStatus" style="stroke:#181818;stroke-width:1.0;"/><polygon fill="#181818" points="2181.93,835.88,2176.7269,827.5177,2177.792,833.0734,2172.2363,834.1385,2181.93,835.88" style="stroke:#181818;stroke-width:1.0;"/><text fill="#000000" font-family="sans-serif" font-size="13" lengthAdjust="spacing" textLength="93.2026" x="2102.5" y="791.0283">CustomerStatus</text><text fill="#000000" font-family="sans-serif" font-size="13" lengthAdjust="spacing" textLength="5.0591" x="1636.5524" y="726.4131">*</text><text fill="#000000" font-family="sans-serif" font-size="13" lengthAdjust="spacing" textLength="7.23" x="2166.8674" y="825.3699">1</text></g><!--link Representative to NIF--><g id="link_Representative_NIF"><path codeLine="82" d="M1929.83,941.51 C1933.9,978.06 1938.7478,1021.7467 1942.5278,1055.7867 " fill="none" id="Representative-to-NIF" style="stroke:#181818;stroke-width:1.0;"/><polygon fill="#181818" points="1943.19,1061.75,1946.1723,1052.3635,1942.6382,1056.7805,1938.2211,1053.2465,1943.19,1061.75" style="stroke:#181818;stroke-width:1.0;"/><text fill="#000000" font-family="sans-serif" font-size="13" lengthAdjust="spacing" textLength="108.3799" x="1937.5" y="1005.0283">RepresentativeNIF</text><text fill="#000000" font-family="sans-serif" font-size="13" lengthAdjust="spacing" textLength="7.23" x="1923.0803" y="963.2976">1</text><text fill="#000000" font-family="sans-serif" font-size="13" lengthAdjust="spacing" textLength="7.23" x="1934.939" y="1050.7942">1</text></g><!--link Representative to Email--><g id="link_Representative_Email"><path codeLine="83" d="M1867.36,941.7 C1856.92,948.73 1845.76,955.19 1834.5,960 C1762.33,990.82 1725.49,946.02 1660.5,990 C1635.13,1007.17 1619.9678,1031.802 1609.0378,1056.262 " fill="none" id="Representative-to-Email" style="stroke:#181818;stroke-width:1.0;"/><polygon fill="#181818" points="1606.59,1061.74,1613.9137,1055.1549,1608.6299,1057.175,1606.6098,1051.8912,1606.59,1061.74" style="stroke:#181818;stroke-width:1.0;"/><text fill="#000000" font-family="sans-serif" font-size="13" lengthAdjust="spacing" textLength="119.9453" x="1661.5" y="1005.0283">RepresentativeEmail</text><text fill="#000000" font-family="sans-serif" font-size="13" lengthAdjust="spacing" textLength="7.23" x="1852.2159" y="963.5131">1</text><text fill="#000000" font-family="sans-serif" font-size="13" lengthAdjust="spacing" textLength="7.23" x="1601.3865" y="1050.7825">1</text></g><!--link Representative to Phone--><g id="link_Representative_Phone"><path codeLine="84" d="M1861.35,940.94 C1831.55,963.56 1801.92,986.48 1799.5,990 C1784.82,1011.37 1777.7503,1033.5213 1773.1603,1056.0013 " fill="none" id="Representative-to-Phone" style="stroke:#181818;stroke-width:1.0;"/><polygon fill="#181818" points="1771.96,1061.88,1777.6796,1053.8622,1772.9603,1056.9811,1769.8413,1052.2617,1771.96,1061.88" style="stroke:#181818;stroke-width:1.0;"/><text fill="#000000" font-family="sans-serif" font-size="13" lengthAdjust="spacing" textLength="125.0298" x="1800.5" y="1005.0283">RepresentativePhone</text><text fill="#000000" font-family="sans-serif" font-size="13" lengthAdjust="spacing" textLength="7.23" x="1846.231" y="942.8645">1</text><text fill="#000000" font-family="sans-serif" font-size="13" lengthAdjust="spacing" textLength="7.23" x="1765.341" y="1050.6452">1</text></g><!--link ShowRequest to ID--><g id="link_ShowRequest_ID"><path codeLine="96" d="M1091.6,561.32 C1082.68,571.46 1073.96,582.23 1066.5,593 C1050.93,615.45 1039.6823,637.474 1029.8523,659.424 " fill="none" id="ShowRequest-to-ID" style="stroke:#181818;stroke-width:1.0;"/><polygon fill="#181818" points="1027.4,664.9,1034.7291,658.321,1029.4436,660.3367,1027.4279,655.0512,1027.4,664.9" style="stroke:#181818;stroke-width:1.0;"/><text fill="#000000" font-family="sans-serif" font-size="13" lengthAdjust="spacing" textLength="93.939" x="1067.5" y="608.0283">ShowRequestID</text><text fill="#000000" font-family="sans-serif" font-size="13" lengthAdjust="spacing" textLength="7.23" x="1077.1204" y="583.4826">1</text><text fill="#000000" font-family="sans-serif" font-size="13" lengthAdjust="spacing" textLength="7.23" x="1022.5754" y="653.6687">1</text></g><!--link ShowRequest to Customer--><g id="link_ShowRequest_Customer"><path codeLine="97" d="M1229.44,561.01 C1244,569.87 1259.37,578.29 1274.5,585 C1287.11,590.6 1291.44,588.54 1304.5,593 C1375.03,617.1 1448.0649,648.5735 1500.7849,672.4635 " fill="none" id="ShowRequest-to-Customer" style="stroke:#181818;stroke-width:1.0;"/><polygon fill="#181818" points="1506.25,674.94,1499.7034,667.5819,1501.6958,672.8763,1496.4014,674.8686,1506.25,674.94" style="stroke:#181818;stroke-width:1.0;"/><text fill="#000000" font-family="sans-serif" font-size="13" lengthAdjust="spacing" textLength="56.3481" x="1356.5" y="608.0283">Customer</text><text fill="#000000" font-family="sans-serif" font-size="13" lengthAdjust="spacing" textLength="5.0591" x="1234.3548" y="583.55">*</text><text fill="#000000" font-family="sans-serif" font-size="13" lengthAdjust="spacing" textLength="7.23" x="1491.3682" y="667.3351">1</text></g><!--link ShowRequest to Address--><g id="link_ShowRequest_Address"><path codeLine="98" d="M1232.82,561.25 C1242.1,570.84 1250.39,581.47 1256.5,593 C1294.81,665.36 1297.3799,755.462 1293.3599,818.832 " fill="none" id="ShowRequest-to-Address" style="stroke:#181818;stroke-width:1.0;"/><polygon fill="#181818" points="1292.98,824.82,1297.5418,816.0913,1293.2965,819.83,1289.5578,815.5848,1292.98,824.82" style="stroke:#181818;stroke-width:1.0;"/><text fill="#000000" font-family="sans-serif" font-size="13" lengthAdjust="spacing" textLength="32.519" x="1294.5" y="710.0283">Place</text><text fill="#000000" font-family="sans-serif" font-size="13" lengthAdjust="spacing" textLength="5.0591" x="1237.6631" y="583.4041">*</text><text fill="#000000" font-family="sans-serif" font-size="13" lengthAdjust="spacing" textLength="7.23" x="1286.4121" y="813.5284">1</text></g><!--link ShowRequest to Date--><g id="link_ShowRequest_Date"><path codeLine="99" d="M1064.79,548.11 C1036.63,561.43 1004.74,575.13 974.5,585 C967.23,587.37 847.1,611.13 839.5,612 C723.76,625.25 692.71,602.72 577.5,620 C487.1,633.56 390.9682,662.891 330.8082,683.081 " fill="none" id="ShowRequest-to-Date" style="stroke:#181818;stroke-width:1.0;"/><polygon fill="#181818" points="325.12,684.99,334.925,685.9187,329.8602,683.3992,332.3797,678.3344,325.12,684.99" style="stroke:#181818;stroke-width:1.0;"/><text fill="#000000" font-family="sans-serif" font-size="13" lengthAdjust="spacing" textLength="108.3989" x="937.5" y="608.0283">ShowRequestDate</text><text fill="#000000" font-family="sans-serif" font-size="13" lengthAdjust="spacing" textLength="5.0591" x="1052.0178" y="548.392">*</text><text fill="#000000" font-family="sans-serif" font-size="13" lengthAdjust="spacing" textLength="7.23" x="332.6956" y="678.2604">1</text></g><!--link Drone to SerialNumber--><g id="link_Drone_SerialNumber"><path codeLine="115" d="M516.24,341.44 C533.21,376.7 555.4689,422.9631 572.3689,458.0931 " fill="none" id="Drone-to-SerialNumber" style="stroke:#181818;stroke-width:1.0;"/><polygon fill="#181818" points="574.97,463.5,574.673,453.6556,572.8024,458.9943,567.4638,457.1237,574.97,463.5" style="stroke:#181818;stroke-width:1.0;"/><text fill="#000000" font-family="sans-serif" font-size="13" lengthAdjust="spacing" textLength="114.8799" x="541.5" y="388.0283">DroneSerialNumber</text><text fill="#000000" font-family="sans-serif" font-size="13" lengthAdjust="spacing" textLength="7.23" x="511.6647" y="363.1954">1</text><text fill="#000000" font-family="sans-serif" font-size="13" lengthAdjust="spacing" textLength="7.23" x="564.2389" y="452.2859">1</text></g><!--link Drone to Maintenance--><g id="link_Drone_Maintenance"><path codeLine="116" d="M425.18,340.38 C414.02,349.52 404.05,360.37 397.5,373 C382.71,401.53 391.4141,431.6152 405.0541,458.1152 " fill="none" id="Drone-to-Maintenance" style="stroke:#181818;stroke-width:1.0;"/><polygon fill="#181818" points="407.8,463.45,407.2377,453.6172,405.5117,459.0043,400.1246,457.2784,407.8,463.45" style="stroke:#181818;stroke-width:1.0;"/><text fill="#000000" font-family="sans-serif" font-size="13" lengthAdjust="spacing" textLength="114.8862" x="398.5" y="388.0283">MaintenanceHistory</text><text fill="#000000" font-family="sans-serif" font-size="13" lengthAdjust="spacing" textLength="7.23" x="410.3584" y="340.5458">1</text><text fill="#000000" font-family="sans-serif" font-size="13" lengthAdjust="spacing" textLength="5.0591" x="398.1159" y="452.2273">*</text></g><!--link Maintenance to Date--><g id="link_Maintenance_Date"><path codeLine="117" d="M365.35,507.65 C306.81,514.81 225.1,535.29 184.5,593 C165.31,620.28 186.5535,646.1421 215.1835,667.7821 " fill="none" id="Maintenance-to-Date" style="stroke:#181818;stroke-width:1.0;"/><polygon fill="#181818" points="219.97,671.4,215.2021,662.7821,215.9812,668.3851,210.3783,669.1642,219.97,671.4" style="stroke:#181818;stroke-width:1.0;"/><text fill="#000000" font-family="sans-serif" font-size="13" lengthAdjust="spacing" textLength="129.3525" x="185.5" y="608.0283">MaintenanceStartDate</text><text fill="#000000" font-family="sans-serif" font-size="13" lengthAdjust="spacing" textLength="5.0591" x="352.2906" y="504.2382">*</text><text fill="#000000" font-family="sans-serif" font-size="13" lengthAdjust="spacing" textLength="7.23" x="204.7783" y="662.3248">1</text></g><!--link Maintenance to Date--><g id="link_Maintenance_Date"><path codeLine="118" d="M397.79,542.94 C384.34,558.33 368.97,576.3 355.5,593 C336.6,616.44 319.8384,638.6191 304.0384,660.0691 " fill="none" id="Maintenance-to-Date-1" style="stroke:#181818;stroke-width:1.0;"/><polygon fill="#181818" points="300.48,664.9,309.0382,660.0259,303.4454,660.8742,302.597,655.2814,300.48,664.9" style="stroke:#181818;stroke-width:1.0;"/><text fill="#000000" font-family="sans-serif" font-size="13" lengthAdjust="spacing" textLength="125.0298" x="356.5" y="608.0283">MaintenanceEndDate</text><text fill="#000000" font-family="sans-serif" font-size="13" lengthAdjust="spacing" textLength="5.0591" x="386.8512" y="564.6954">*</text><text fill="#000000" font-family="sans-serif" font-size="13" lengthAdjust="spacing" textLength="7.23" x="297.7316" y="653.6687">1</text></g><!--link Maintenance to ID--><g id="link_Maintenance_ID"><path codeLine="119" d="M465.37,542.65 C490.82,569 528.71,601.03 570.5,612 C639.8,630.19 660.89,607.9 731.5,620 C812.62,633.9 897.7435,661.6909 953.3435,681.6709 " fill="none" id="Maintenance-to-ID" style="stroke:#181818;stroke-width:1.0;"/><polygon fill="#181818" points="958.99,683.7,951.873,676.8921,954.2846,682.0091,949.1675,684.4207,958.99,683.7" style="stroke:#181818;stroke-width:1.0;"/><text fill="#000000" font-family="sans-serif" font-size="13" lengthAdjust="spacing" textLength="87.439" x="571.5" y="608.0283">MaintenanceID</text><text fill="#000000" font-family="sans-serif" font-size="13" lengthAdjust="spacing" textLength="7.23" x="463.2398" y="564.6604">1</text><text fill="#000000" font-family="sans-serif" font-size="13" lengthAdjust="spacing" textLength="7.23" x="943.8012" y="676.4313">1</text></g><!--link Drone to DroneModel--><g id="link_Drone_DroneModel"><path codeLine="120" d="M569.87,328.92 C599.88,340.92 634.6,356.2 664.5,373 C711.59,399.46 756.3866,432.2101 791.3666,459.6101 " fill="none" id="Drone-to-DroneModel" style="stroke:#181818;stroke-width:1.0;"/><polygon fill="#181818" points="796.09,463.31,791.4714,454.6112,792.1538,460.2268,786.5383,460.9091,796.09,463.31" style="stroke:#181818;stroke-width:1.0;"/><text fill="#000000" font-family="sans-serif" font-size="13" lengthAdjust="spacing" textLength="70.8145" x="696.5" y="388.0283">DroneModel</text><text fill="#000000" font-family="sans-serif" font-size="13" lengthAdjust="spacing" textLength="5.0591" x="577.5795" y="327.904">*</text><text fill="#000000" font-family="sans-serif" font-size="13" lengthAdjust="spacing" textLength="7.23" x="780.668" y="452.3641">1</text></g><!--link Figure to ID--><g id="link_Figure_ID"><path codeLine="129" d="M1298.98,552.21 C1283.52,563.51 1266.7,575.12 1250.5,585 C1188.81,622.61 1119.032,655.9288 1069.652,678.1388 " fill="none" id="Figure-to-ID" style="stroke:#181818;stroke-width:1.0;"/><polygon fill="#181818" points="1064.18,680.6,1074.0288,680.5562,1068.74,678.549,1070.7472,673.2602,1064.18,680.6" style="stroke:#181818;stroke-width:1.0;"/><text fill="#000000" font-family="sans-serif" font-size="13" lengthAdjust="spacing" textLength="49.8481" x="1232.5" y="608.0283">FigureID</text><text fill="#000000" font-family="sans-serif" font-size="13" lengthAdjust="spacing" textLength="7.23" x="1283.2686" y="574.0245">1</text><text fill="#000000" font-family="sans-serif" font-size="13" lengthAdjust="spacing" textLength="7.23" x="1071.7637" y="673.2805">1</text></g><!--link Figure to Customer--><g id="link_Figure_Customer"><path codeLine="130" d="M1410.35,552.04 C1446.23,586.63 1489.6999,628.5163 1523.1199,660.7263 " fill="none" id="Figure-to-Customer" style="stroke:#181818;stroke-width:1.0;"/><polygon fill="#181818" points="1527.44,664.89,1523.7356,655.7643,1523.8399,661.4202,1518.184,661.5245,1527.44,664.89" style="stroke:#181818;stroke-width:1.0;"/><text fill="#000000" font-family="sans-serif" font-size="13" lengthAdjust="spacing" textLength="56.3481" x="1470.5" y="608.0283">Customer</text><text fill="#000000" font-family="sans-serif" font-size="13" lengthAdjust="spacing" textLength="5.0591" x="1411.7269" y="573.8316">*</text><text fill="#000000" font-family="sans-serif" font-size="13" lengthAdjust="spacing" textLength="7.23" x="1512.9667" y="653.657">1</text></g><!--link ShowProposal to ID--><g id="link_ShowProposal_ID"><path codeLine="147" d="M309.75,106.49 C479.67,118.57 830.73,171.41 974.5,400 C1026.5,482.68 1023.4589,597.32 1017.3089,658.63 " fill="none" id="ShowProposal-to-ID" style="stroke:#181818;stroke-width:1.0;"/><polygon fill="#181818" points="1016.71,664.6,1021.5883,656.0442,1017.209,659.625,1013.6283,655.2457,1016.71,664.6" style="stroke:#181818;stroke-width:1.0;"/><text fill="#000000" font-family="sans-serif" font-size="13" lengthAdjust="spacing" textLength="64.3081" x="965.5" y="388.0283">ProposalID</text><text fill="#000000" font-family="sans-serif" font-size="13" lengthAdjust="spacing" textLength="7.23" x="317.6206" y="103.1926">1</text><text fill="#000000" font-family="sans-serif" font-size="13" lengthAdjust="spacing" textLength="7.23" x="1010.0357" y="653.6193">1</text></g><!--link ShowProposal to Date--><g id="link_ShowProposal_Date"><path codeLine="148" d="M119.25,141.33 C87.39,159.28 55.44,184.11 37.5,217 C6,274.75 21.42,301.22 37.5,365 C67.98,485.9 93.39,514.02 170.5,612 C185.58,631.16 200.3884,645.7406 218.1784,661.0206 " fill="none" id="ShowProposal-to-Date" style="stroke:#181818;stroke-width:1.0;"/><polygon fill="#181818" points="222.73,664.93,218.5089,656.0316,218.937,661.6722,213.2964,662.1003,222.73,664.93" style="stroke:#181818;stroke-width:1.0;"/><text fill="#000000" font-family="sans-serif" font-size="13" lengthAdjust="spacing" textLength="78.7681" x="45.5" y="388.0283">ProposalDate</text><text fill="#000000" font-family="sans-serif" font-size="13" lengthAdjust="spacing" textLength="5.0591" x="106.4552" y="140.8089">*</text><text fill="#000000" font-family="sans-serif" font-size="13" lengthAdjust="spacing" textLength="7.23" x="214.8214" y="653.7038">1</text></g><!--link ShowProposal to Drone--><g id="link_ShowProposal_Drone"><path codeLine="149" d="M296.55,160.07 C310.87,170.04 325.62,180.32 339.5,190 C373.68,213.85 407.064,237.1901 437.404,258.4201 " fill="none" id="ShowProposal-to-Drone" style="stroke:#181818;stroke-width:1.0;"/><polygon fill="#181818" points="442.32,261.86,437.2393,253.4228,438.2233,258.9934,432.6527,259.9775,442.32,261.86" style="stroke:#181818;stroke-width:1.0;"/><text fill="#000000" font-family="sans-serif" font-size="13" lengthAdjust="spacing" textLength="93.2153" x="366.5" y="205.0283">DronesProposal</text><text fill="#000000" font-family="sans-serif" font-size="13" lengthAdjust="spacing" textLength="7.23" x="299.6166" y="182.6177">1</text><text fill="#000000" font-family="sans-serif" font-size="13" lengthAdjust="spacing" textLength="5.0591" x="427.3871" y="250.6218">*</text></g><!--link ShowProposal to Figure--><g id="link_ShowProposal_Figure"><path codeLine="150" d="M309.71,105.34 C497.91,111.21 910.32,130.64 1037.5,190 C1166.08,250.02 1271.5492,377.5461 1323.8292,449.0661 " fill="none" id="ShowProposal-to-Figure" style="stroke:#181818;stroke-width:1.0;"/><polygon fill="#181818" points="1327.37,453.91,1325.2881,444.2837,1324.4194,449.8735,1318.8296,449.0047,1327.37,453.91" style="stroke:#181818;stroke-width:1.0;"/><text fill="#000000" font-family="sans-serif" font-size="13" lengthAdjust="spacing" textLength="43.3481" x="1255.5" y="307.0283">Figures</text><text fill="#000000" font-family="sans-serif" font-size="13" lengthAdjust="spacing" textLength="5.0591" x="317.738" y="101.6318">*</text><text fill="#000000" font-family="sans-serif" font-size="13" lengthAdjust="spacing" textLength="5.0591" x="1317.3744" y="442.8725">*</text></g><!--link ShowProposal to Customer--><g id="link_ShowProposal_Customer"><path codeLine="151" d="M309.7,103.23 C543.36,105.3 1138.39,120.22 1307.5,217 C1477.89,314.51 1540.9779,561.9297 1559.7979,658.9897 " fill="none" id="ShowProposal-to-Customer" style="stroke:#181818;stroke-width:1.0;"/><polygon fill="#181818" points="1560.94,664.88,1563.1537,655.2831,1559.9882,659.9714,1555.2999,656.806,1560.94,664.88" style="stroke:#181818;stroke-width:1.0;"/><text fill="#000000" font-family="sans-serif" font-size="13" lengthAdjust="spacing" textLength="56.3481" x="1466.5" y="388.0283">Customer</text><text fill="#000000" font-family="sans-serif" font-size="13" lengthAdjust="spacing" textLength="5.0591" x="317.7853" y="118.0577">*</text><text fill="#000000" font-family="sans-serif" font-size="13" lengthAdjust="spacing" textLength="7.23" x="1552.2245" y="653.6452">1</text></g><!--link ShowProposal to Status--><g id="link_ShowProposal_Status"><path codeLine="152" d="M152.96,160.05 C145.21,169.45 138.06,179.56 132.5,190 C120.67,212.22 115.3047,233.9156 112.0147,255.9856 " fill="none" id="ShowProposal-to-Status" style="stroke:#181818;stroke-width:1.0;"/><polygon fill="#181818" points="111.13,261.92,116.4133,253.6081,111.8672,256.9746,108.5007,252.4286,111.13,261.92" style="stroke:#181818;stroke-width:1.0;"/><text fill="#000000" font-family="sans-serif" font-size="13" lengthAdjust="spacing" textLength="88.1626" x="133.5" y="205.0283">ProposalStatus</text><text fill="#000000" font-family="sans-serif" font-size="13" lengthAdjust="spacing" textLength="7.23" x="137.6292" y="182.5952">1</text><text fill="#000000" font-family="sans-serif" font-size="13" lengthAdjust="spacing" textLength="7.23" x="104.1964" y="250.6921">1</text></g><!--link ShowProposal to Report--><g id="link_ShowProposal_Report"><path codeLine="153" d="M224.04,160.13 C229.51,192.82 235.2313,227.052 240.0713,256.022 " fill="none" id="ShowProposal-to-Report" style="stroke:#181818;stroke-width:1.0;"/><polygon fill="#181818" points="241.06,261.94,243.5222,252.4039,240.2361,257.0084,235.6316,253.7222,241.06,261.94" style="stroke:#181818;stroke-width:1.0;"/><text fill="#000000" font-family="sans-serif" font-size="13" lengthAdjust="spacing" textLength="97.5444" x="233.5" y="205.0283">SimulationResult</text><text fill="#000000" font-family="sans-serif" font-size="13" lengthAdjust="spacing" textLength="7.23" x="217.7784" y="182.2694">1</text><text fill="#000000" font-family="sans-serif" font-size="13" lengthAdjust="spacing" textLength="7.23" x="232.3957" y="250.7156">1</text></g><!--link Representative to SystemUser--><g id="link_Representative_SystemUser"><path codeLine="184" d="M1975.43,941.75 C1984.89,948.76 1995.08,955.22 2005.5,960 C2139.18,1021.35 2187.86,985.35 2331.5,1017 C2419.79,1036.46 2514.8446,1062.7386 2577.6546,1080.8386 " fill="none" id="Representative-to-SystemUser" style="stroke:#181818;stroke-width:1.0;"/><polygon fill="#181818" points="2583.42,1082.5,2575.8795,1076.1643,2578.6155,1081.1155,2573.6643,1083.8515,2583.42,1082.5" style="stroke:#181818;stroke-width:1.0;"/><text fill="#000000" font-family="sans-serif" font-size="13" lengthAdjust="spacing" textLength="114.8862" x="2284.5" y="1005.0283">RepresentativeUser</text><text fill="#000000" font-family="sans-serif" font-size="13" lengthAdjust="spacing" textLength="7.23" x="1974.5111" y="963.2074">1</text><text fill="#000000" font-family="sans-serif" font-size="13" lengthAdjust="spacing" textLength="7.23" x="2568.1558" y="1076.0105">1</text></g><!--link SystemUser to SystemStatus--><g id="link_SystemUser_SystemStatus"><path codeLine="185" d="M2598.84,1141.1 C2571.9,1164.18 2537.34,1194.31 2507.5,1222 C2498,1230.82 2492.3175,1236.2027 2482.8175,1245.5027 " fill="none" id="SystemUser-to-SystemStatus" style="stroke:#181818;stroke-width:1.0;"/><polygon fill="#181818" points="2478.53,1249.7,2487.7595,1246.2625,2482.1029,1246.2023,2482.1631,1240.5457,2478.53,1249.7" style="stroke:#181818;stroke-width:1.0;"/><text fill="#000000" font-family="sans-serif" font-size="13" lengthAdjust="spacing" textLength="64.3018" x="2559.5" y="1188.0283">UserStatus</text><text fill="#000000" font-family="sans-serif" font-size="13" lengthAdjust="spacing" textLength="5.0591" x="2585.8624" y="1163.1022">*</text><text fill="#000000" font-family="sans-serif" font-size="13" lengthAdjust="spacing" textLength="7.23" x="2477.7825" y="1238.633">1</text></g><!--link SystemUser to SystemRole--><g id="link_SystemUser_SystemRole"><path codeLine="186" d="M2644.5,1141.12 C2644.5,1164.16 2644.5,1188.21 2644.5,1215.84 " fill="none" id="SystemUser-to-SystemRole" style="stroke:#181818;stroke-width:1.0;"/><polygon fill="#181818" points="2644.5,1221.84,2648.5,1212.84,2644.5,1216.84,2640.5,1212.84,2644.5,1221.84" style="stroke:#181818;stroke-width:1.0;"/><text fill="#000000" font-family="sans-serif" font-size="13" lengthAdjust="spacing" textLength="54.1836" x="2645.5" y="1188.0283">UserRole</text><text fill="#000000" font-family="sans-serif" font-size="13" lengthAdjust="spacing" textLength="5.0591" x="2639.0848" y="1163.1255">*</text><text fill="#000000" font-family="sans-serif" font-size="13" lengthAdjust="spacing" textLength="7.23" x="2637.181" y="1210.7326">1</text></g><!--link SystemUser to Username--><g id="link_SystemUser_Username"><path codeLine="187" d="M2691.66,1141.07 C2718.88,1163.88 2753.38,1193.76 2782.5,1222 C2794.6,1233.74 2803.2139,1242.6696 2814.3739,1254.8896 " fill="none" id="SystemUser-to-Username" style="stroke:#181818;stroke-width:1.0;"/><polygon fill="#181818" points="2818.42,1259.32,2815.3044,1249.9769,2815.0482,1255.628,2809.3972,1255.3718,2818.42,1259.32" style="stroke:#181818;stroke-width:1.0;"/><text fill="#000000" font-family="sans-serif" font-size="13" lengthAdjust="spacing" textLength="59.9663" x="2750.5" y="1188.0283">Username</text><text fill="#000000" font-family="sans-serif" font-size="13" lengthAdjust="spacing" textLength="7.23" x="2692.1776" y="1163.3679">1</text><text fill="#000000" font-family="sans-serif" font-size="13" lengthAdjust="spacing" textLength="7.23" x="2805.2383" y="1248.3758">1</text></g><!--link SystemUser to Password--><g id="link_SystemUser_Password"><path codeLine="188" d="M2705.55,1119.85 C2764.81,1138.65 2855.39,1172.72 2922.5,1222 C2936.81,1232.51 2946.5527,1241.7677 2957.9827,1254.6777 " fill="none" id="SystemUser-to-Password" style="stroke:#181818;stroke-width:1.0;"/><polygon fill="#181818" points="2961.96,1259.17,2958.9889,1249.78,2958.6456,1255.4264,2952.9991,1255.0831,2961.96,1259.17" style="stroke:#181818;stroke-width:1.0;"/><text fill="#000000" font-family="sans-serif" font-size="13" lengthAdjust="spacing" textLength="57.0781" x="2874.5" y="1188.0283">Password</text><text fill="#000000" font-family="sans-serif" font-size="13" lengthAdjust="spacing" textLength="7.23" x="2713.4266" y="1118.0841">1</text><text fill="#000000" font-family="sans-serif" font-size="13" lengthAdjust="spacing" textLength="7.23" x="2949.3646" y="1248.2009">1</text></g><!--SRC=[dLVTRwD647_dhrZb7jBcUWzzgIfaHU8CyI7vg-2uZz4UtZhq-71PkDIgyhzts2y6M1nV92kmCx-PdIzc9hV4BtEQ5cHL7bX6NjBwcNZ7OyMEj6QSqE90zZHh6Dby_PibDNVujxGuqOhcv4IJR_J8ulgSCL81anR7Z3dEBPcNULuM0y4aevoJq2UpsK_xNyW7p_T_3txxcNnlKH9qVq_-SmZvIDAYbdJdrL62FjXpZMXSLsbnDD9Is3iSAWRFw-LvNJ5M0mNHahG-2mgYdKfUqsmEmLCSZ2-RegxEhGyGb2M4fu5uTU5rL0J9pPXtGoWdIs-z46P9BmngDZEug2orxUZcWkQjFQ_jrRV4hyg2oVnQxhPnnUt-2jsDKDEtBrDUpwG9zoHlmV699UbVQKBhj2ouCWdfkldrXdpwT2-UK1ekkYVqfu0c3gvv5LNNyBhCMMLpSimJBiwNo4M3kJwyHdRlxTukhb5vAXMigA6oICHEKAHmW61zRvCS2FhazVqgJDi8QutQh7NuS8rP5iEa8gabW0QHNQ5dgEHLAzW-GnxVfK14fybDRdRdaunCaoFhbGjHi7XSUX4c0dKVRarOUhfY27J3Xze-adaKUBl0TvHyk7w8mlKYM0NhdOcM7om3XG7Dy3F5WmkrhGhNt0SdEqntfmwgA1RutSsmJjm1WTilaKdihX1dErIcguEACuBUTT1UNjpUyRA02hux83W3vx1PRJ4FdGNQ9H7jT1yYNRyWfWFGXyWmj9qcVYvV8lPFmtXjQpPMjkWtSVG7QZWODzrpsbbuQ1iXNpSvfZKLLTyydbkWqsSygTAJQGXGdlYgKSz5J6YwFQWbSoXdazYkehSPJTWaJWprdW4jnJ53Qt9U3KTLD1nL5mAAfegOKI96MdW5kr3D2beak0CF6l1X462JK5QbD8CqVHLJv8fnq2qwAb7IU9oYdb8r835jA0BXnKwu-FG51dG96ma6MFA1sF1PLZ8fryi4nM4iCImwnDIJlg-sonBU2jhIU4YFJMMjZI575CT3Y9Se1NbpnlTpt38-bsN6Q47OlqdMS6W8AcTAuyX3IGVdDE2DZqarbcrLmZYdsLHd6VDbQzaEEel1NMuj9mNpBIt6yAojnd17NuCnGq_OzsuWaYMLGJCkg_ewPLPrg1MQs8oIfZcg4NR0SSLhdgXrkzOxLSUwXBc6J2Y7foeMNJvyseofXcnrpinRpLNpTb90XHkQSvetcKX_n7YJrQ9Epxnc-IEtBzishgZHnnZtQGJxeOrRB75IUB32QI5llWltWQFtDtDKkp5I4C4dFH0N2lnLk3QdURHwMdbhRn54FTfyirnwdpUHjzjqZFZBviydFuZ3nHh37-FTPXL4Jr6mZO8OLadFcDWjscqiMa_VkoghRHl-l9JLuRt_aC3lmcw4iZPSa5gYW_YuM7lvSeMdkW8l2OZyI7ZxsWCZeqpWNFCw1JNHSSshypy0]--></g></svg>