<svg xmlns="http://www.w3.org/2000/svg" xmlns:xlink="http://www.w3.org/1999/xlink" contentStyleType="text/css" height="700px" preserveAspectRatio="none" style="width:1541px;height:700px;background:#FFFFFF;" version="1.1" viewBox="0 0 1541 700" width="1541px" zoomAndPan="magnify"><defs/><g><!--cluster CL--><g id="cluster_CL"><rect fill="none" height="527" rx="2.5" ry="2.5" style="stroke:#000000;stroke-width:1.5;" width="951" x="7" y="7"/><text fill="#000000" font-family="sans-serif" font-size="14" font-weight="bold" lengthAdjust="spacing" textLength="138.4688" x="413.2656" y="24.1074">Customer Aggregate</text></g><!--cluster USR--><g id="cluster_USR"><rect fill="none" height="292" rx="2.5" ry="2.5" style="stroke:#000000;stroke-width:1.5;" width="553" x="982" y="402"/><text fill="#000000" font-family="sans-serif" font-size="14" font-weight="bold" lengthAdjust="spacing" textLength="154.0615" x="1181.4692" y="419.1074">SystemUser Aggregate</text></g><!--class Customer--><g id="elem_Customer"><rect codeLine="14" fill="#F1F1F1" height="79.2031" id="Customer" rx="2.5" ry="2.5" style="stroke:#181818;stroke-width:0.5;" width="122.0723" x="510" y="44"/><ellipse cx="525" cy="66.291" fill="#ADD1B2" rx="11" ry="11" style="stroke:#181818;stroke-width:1.0;"/><path d="M527.7656,62.166 Q527.9219,61.9473 528.1094,61.8379 Q528.2969,61.7285 528.5156,61.7285 Q528.8906,61.7285 529.125,61.9941 Q529.3594,62.2441 529.3594,62.8535 L529.3594,64.3066 Q529.3594,64.916 529.125,65.1816 Q528.8906,65.4473 528.5156,65.4473 Q528.1719,65.4473 527.9688,65.2441 Q527.7656,65.0566 527.6563,64.541 Q527.6094,64.1816 527.4219,63.9941 Q527.0938,63.6191 526.4844,63.4004 Q525.875,63.1816 525.25,63.1816 Q524.4844,63.1816 523.8438,63.5098 Q523.2188,63.8379 522.7188,64.5879 Q522.2344,65.3379 522.2344,66.3691 L522.2344,67.4629 Q522.2344,68.6973 523.125,69.5254 Q524.0156,70.3379 525.6094,70.3379 Q526.5469,70.3379 527.2031,70.0879 Q527.5938,69.9316 528.0156,69.4941 Q528.2813,69.2285 528.4219,69.1504 Q528.5781,69.0723 528.7813,69.0723 Q529.1094,69.0723 529.3594,69.3379 Q529.625,69.5879 529.625,69.9316 Q529.625,70.2754 529.2813,70.6816 Q528.7813,71.2598 527.9844,71.5879 Q526.9063,72.041 525.6094,72.041 Q524.0938,72.041 522.8906,71.416 Q521.9063,70.916 521.2188,69.8535 Q520.5313,68.7754 520.5313,67.4941 L520.5313,66.3379 Q520.5313,65.0098 521.1406,63.8691 Q521.7656,62.7129 522.8594,62.1035 Q523.9531,61.4785 525.1875,61.4785 Q525.9219,61.4785 526.5625,61.6504 Q527.2188,61.8066 527.7656,62.166 Z " fill="#000000"/><text fill="#000000" font-family="sans-serif" font-size="12" font-style="italic" lengthAdjust="spacing" textLength="94.0723" x="537" y="61.9492">&#171;AggregateRoot&#187;</text><text fill="#000000" font-family="sans-serif" font-size="14" lengthAdjust="spacing" textLength="60.6826" x="553.6948" y="80.0684">Customer</text><line style="stroke:#181818;stroke-width:0.5;" x1="511" x2="631.0723" y1="88.582" y2="88.582"/><ellipse cx="521" cy="103.3926" fill="none" rx="3" ry="3" style="stroke:#038048;stroke-width:1.0;"/><text fill="#000000" font-family="sans-serif" font-size="14" lengthAdjust="spacing" textLength="75.4824" x="530" y="107.6895">String name</text><line style="stroke:#181818;stroke-width:0.5;" x1="511" x2="631.0723" y1="115.2031" y2="115.2031"/></g><!--class VAT--><g id="elem_VAT"><rect codeLine="18" fill="#F1F1F1" height="79.2031" id="VAT" rx="2.5" ry="2.5" style="stroke:#181818;stroke-width:0.5;" width="104.7168" x="836.5" y="230"/><ellipse cx="851.5" cy="252.291" fill="#ADD8E6" rx="11" ry="11" style="stroke:#181818;stroke-width:1.0;"/><path d="M852.0938,255.5566 L854.5625,249.6816 L854.1719,249.6816 Q853.5625,249.6816 853.2969,249.4473 Q853.0313,249.2129 853.0313,248.8223 Q853.0313,248.4473 853.2969,248.2129 Q853.5625,247.9785 854.1719,247.9785 L856.4531,247.9785 Q857.0625,247.9785 857.3281,248.2129 Q857.5938,248.4473 857.5938,248.8223 Q857.5938,249.291 857.1875,249.5566 Q857,249.6816 856.4063,249.6816 L852.9219,258.041 L851.2813,258.041 L847.7969,249.6816 Q847.2031,249.6816 847.0156,249.5566 Q846.6094,249.291 846.6094,248.8223 Q846.6094,248.4473 846.875,248.2129 Q847.1406,247.9785 847.75,247.9785 L850.0469,247.9785 Q850.6563,247.9785 850.9063,248.2129 Q851.1719,248.4473 851.1719,248.8223 Q851.1719,249.2129 850.9063,249.4473 Q850.6563,249.6816 850.0469,249.6816 L849.6406,249.6816 L852.0938,255.5566 Z " fill="#000000"/><text fill="#000000" font-family="sans-serif" font-size="12" font-style="italic" lengthAdjust="spacing" textLength="76.7168" x="863.5" y="247.9492">&#171;valueObject&#187;</text><text fill="#000000" font-family="sans-serif" font-size="14" lengthAdjust="spacing" textLength="27.2275" x="888.2446" y="266.0684">VAT</text><line style="stroke:#181818;stroke-width:0.5;" x1="837.5" x2="940.2168" y1="274.582" y2="274.582"/><ellipse cx="847.5" cy="289.3926" fill="none" rx="3" ry="3" style="stroke:#038048;stroke-width:1.0;"/><text fill="#000000" font-family="sans-serif" font-size="14" lengthAdjust="spacing" textLength="73.9307" x="856.5" y="293.6895">String value</text><line style="stroke:#181818;stroke-width:0.5;" x1="837.5" x2="940.2168" y1="301.2031" y2="301.2031"/></g><!--class Representative--><g id="elem_Representative"><rect codeLine="22" fill="#F1F1F1" height="97.8242" id="Representative" rx="2.5" ry="2.5" style="stroke:#181818;stroke-width:0.5;" width="126.165" x="348" y="220.5"/><ellipse cx="363" cy="242.791" fill="#ADD1B2" rx="11" ry="11" style="stroke:#181818;stroke-width:1.0;"/><path d="M361.8594,243.5879 L361.8594,246.0879 L366.1875,246.0879 L366.1875,245.166 Q366.1875,244.5566 366.4219,244.291 Q366.6719,244.0254 367.0469,244.0254 Q367.4219,244.0254 367.6563,244.291 Q367.8906,244.5566 367.8906,245.166 L367.8906,247.791 L359.8906,247.791 Q359.2656,247.791 359,247.5566 Q358.75,247.3223 358.75,246.9316 Q358.75,246.5566 359.0156,246.3223 Q359.2813,246.0879 359.8906,246.0879 L360.1563,246.0879 L360.1563,239.4316 L359.8906,239.4316 Q359.2656,239.4316 359,239.1973 Q358.75,238.9629 358.75,238.5723 Q358.75,238.1973 359,237.9629 Q359.2656,237.7285 359.8906,237.7285 L367.5156,237.7285 L367.5156,240.3223 Q367.5156,240.9316 367.2813,241.1973 Q367.0625,241.4473 366.6719,241.4473 Q366.2969,241.4473 366.0625,241.1973 Q365.8281,240.9316 365.8281,240.3223 L365.8281,239.4316 L361.8594,239.4316 L361.8594,241.8848 L363.3438,241.8848 Q363.3438,241.2285 363.4688,241.041 Q363.7344,240.6348 364.2031,240.6348 Q364.5781,240.6348 364.8125,240.9004 Q365.0469,241.1504 365.0469,241.7598 L365.0469,243.7285 Q365.0469,244.2754 364.9219,244.4629 Q364.6563,244.8535 364.2031,244.8535 Q363.7344,244.8535 363.4688,244.4473 Q363.3438,244.2598 363.3438,243.5879 L361.8594,243.5879 Z " fill="#000000"/><text fill="#000000" font-family="sans-serif" font-size="12" font-style="italic" lengthAdjust="spacing" textLength="43.3594" x="402.4028" y="238.4492">&#171;Entity&#187;</text><text fill="#000000" font-family="sans-serif" font-size="14" lengthAdjust="spacing" textLength="94.165" x="377" y="256.5684">Representative</text><line style="stroke:#181818;stroke-width:0.5;" x1="349" x2="473.165" y1="265.082" y2="265.082"/><ellipse cx="359" cy="279.8926" fill="none" rx="3" ry="3" style="stroke:#038048;stroke-width:1.0;"/><text fill="#000000" font-family="sans-serif" font-size="14" lengthAdjust="spacing" textLength="75.4824" x="368" y="284.1895">String name</text><ellipse cx="359" cy="298.5137" fill="none" rx="3" ry="3" style="stroke:#038048;stroke-width:1.0;"/><text fill="#000000" font-family="sans-serif" font-size="14" lengthAdjust="spacing" textLength="88.7168" x="368" y="302.8105">String position</text><line style="stroke:#181818;stroke-width:0.5;" x1="349" x2="473.165" y1="310.3242" y2="310.3242"/></g><!--class NIF--><g id="elem_NIF"><rect codeLine="27" fill="#F1F1F1" height="79.2031" id="NIF" rx="2.5" ry="2.5" style="stroke:#181818;stroke-width:0.5;" width="104.7168" x="534.5" y="439"/><ellipse cx="549.5" cy="461.291" fill="#ADD8E6" rx="11" ry="11" style="stroke:#181818;stroke-width:1.0;"/><path d="M550.0938,464.5566 L552.5625,458.6816 L552.1719,458.6816 Q551.5625,458.6816 551.2969,458.4473 Q551.0313,458.2129 551.0313,457.8223 Q551.0313,457.4473 551.2969,457.2129 Q551.5625,456.9785 552.1719,456.9785 L554.4531,456.9785 Q555.0625,456.9785 555.3281,457.2129 Q555.5938,457.4473 555.5938,457.8223 Q555.5938,458.291 555.1875,458.5566 Q555,458.6816 554.4063,458.6816 L550.9219,467.041 L549.2813,467.041 L545.7969,458.6816 Q545.2031,458.6816 545.0156,458.5566 Q544.6094,458.291 544.6094,457.8223 Q544.6094,457.4473 544.875,457.2129 Q545.1406,456.9785 545.75,456.9785 L548.0469,456.9785 Q548.6563,456.9785 548.9063,457.2129 Q549.1719,457.4473 549.1719,457.8223 Q549.1719,458.2129 548.9063,458.4473 Q548.6563,458.6816 548.0469,458.6816 L547.6406,458.6816 L550.0938,464.5566 Z " fill="#000000"/><text fill="#000000" font-family="sans-serif" font-size="12" font-style="italic" lengthAdjust="spacing" textLength="76.7168" x="561.5" y="456.9492">&#171;valueObject&#187;</text><text fill="#000000" font-family="sans-serif" font-size="14" lengthAdjust="spacing" textLength="22.5518" x="588.5825" y="475.0684">NIF</text><line style="stroke:#181818;stroke-width:0.5;" x1="535.5" x2="638.2168" y1="483.582" y2="483.582"/><ellipse cx="545.5" cy="498.3926" fill="none" rx="3" ry="3" style="stroke:#038048;stroke-width:1.0;"/><text fill="#000000" font-family="sans-serif" font-size="14" lengthAdjust="spacing" textLength="73.9307" x="554.5" y="502.6895">String value</text><line style="stroke:#181818;stroke-width:0.5;" x1="535.5" x2="638.2168" y1="510.2031" y2="510.2031"/></g><!--class Email--><g id="elem_Email"><rect codeLine="31" fill="#F1F1F1" height="79.2031" id="Email" rx="2.5" ry="2.5" style="stroke:#181818;stroke-width:0.5;" width="104.7168" x="115.5" y="439"/><ellipse cx="130.5" cy="461.291" fill="#ADD8E6" rx="11" ry="11" style="stroke:#181818;stroke-width:1.0;"/><path d="M131.0938,464.5566 L133.5625,458.6816 L133.1719,458.6816 Q132.5625,458.6816 132.2969,458.4473 Q132.0313,458.2129 132.0313,457.8223 Q132.0313,457.4473 132.2969,457.2129 Q132.5625,456.9785 133.1719,456.9785 L135.4531,456.9785 Q136.0625,456.9785 136.3281,457.2129 Q136.5938,457.4473 136.5938,457.8223 Q136.5938,458.291 136.1875,458.5566 Q136,458.6816 135.4063,458.6816 L131.9219,467.041 L130.2813,467.041 L126.7969,458.6816 Q126.2031,458.6816 126.0156,458.5566 Q125.6094,458.291 125.6094,457.8223 Q125.6094,457.4473 125.875,457.2129 Q126.1406,456.9785 126.75,456.9785 L129.0469,456.9785 Q129.6563,456.9785 129.9063,457.2129 Q130.1719,457.4473 130.1719,457.8223 Q130.1719,458.2129 129.9063,458.4473 Q129.6563,458.6816 129.0469,458.6816 L128.6406,458.6816 L131.0938,464.5566 Z " fill="#000000"/><text fill="#000000" font-family="sans-serif" font-size="12" font-style="italic" lengthAdjust="spacing" textLength="76.7168" x="142.5" y="456.9492">&#171;valueObject&#187;</text><text fill="#000000" font-family="sans-serif" font-size="14" lengthAdjust="spacing" textLength="35.0068" x="163.355" y="475.0684">Email</text><line style="stroke:#181818;stroke-width:0.5;" x1="116.5" x2="219.2168" y1="483.582" y2="483.582"/><ellipse cx="126.5" cy="498.3926" fill="none" rx="3" ry="3" style="stroke:#038048;stroke-width:1.0;"/><text fill="#000000" font-family="sans-serif" font-size="14" lengthAdjust="spacing" textLength="73.9307" x="135.5" y="502.6895">String value</text><line style="stroke:#181818;stroke-width:0.5;" x1="116.5" x2="219.2168" y1="510.2031" y2="510.2031"/></g><!--class Phone--><g id="elem_Phone"><rect codeLine="35" fill="#F1F1F1" height="79.2031" id="Phone" rx="2.5" ry="2.5" style="stroke:#181818;stroke-width:0.5;" width="104.7168" x="357.5" y="439"/><ellipse cx="372.5" cy="461.291" fill="#ADD8E6" rx="11" ry="11" style="stroke:#181818;stroke-width:1.0;"/><path d="M373.0938,464.5566 L375.5625,458.6816 L375.1719,458.6816 Q374.5625,458.6816 374.2969,458.4473 Q374.0313,458.2129 374.0313,457.8223 Q374.0313,457.4473 374.2969,457.2129 Q374.5625,456.9785 375.1719,456.9785 L377.4531,456.9785 Q378.0625,456.9785 378.3281,457.2129 Q378.5938,457.4473 378.5938,457.8223 Q378.5938,458.291 378.1875,458.5566 Q378,458.6816 377.4063,458.6816 L373.9219,467.041 L372.2813,467.041 L368.7969,458.6816 Q368.2031,458.6816 368.0156,458.5566 Q367.6094,458.291 367.6094,457.8223 Q367.6094,457.4473 367.875,457.2129 Q368.1406,456.9785 368.75,456.9785 L371.0469,456.9785 Q371.6563,456.9785 371.9063,457.2129 Q372.1719,457.4473 372.1719,457.8223 Q372.1719,458.2129 371.9063,458.4473 Q371.6563,458.6816 371.0469,458.6816 L370.6406,458.6816 L373.0938,464.5566 Z " fill="#000000"/><text fill="#000000" font-family="sans-serif" font-size="12" font-style="italic" lengthAdjust="spacing" textLength="76.7168" x="384.5" y="456.9492">&#171;valueObject&#187;</text><text fill="#000000" font-family="sans-serif" font-size="14" lengthAdjust="spacing" textLength="40.4824" x="402.6172" y="475.0684">Phone</text><line style="stroke:#181818;stroke-width:0.5;" x1="358.5" x2="461.2168" y1="483.582" y2="483.582"/><ellipse cx="368.5" cy="498.3926" fill="none" rx="3" ry="3" style="stroke:#038048;stroke-width:1.0;"/><text fill="#000000" font-family="sans-serif" font-size="14" lengthAdjust="spacing" textLength="73.9307" x="377.5" y="502.6895">String value</text><line style="stroke:#181818;stroke-width:0.5;" x1="358.5" x2="461.2168" y1="510.2031" y2="510.2031"/></g><!--class CustomerType--><g id="elem_CustomerType"><rect codeLine="39" fill="#F1F1F1" height="97.8242" id="CustomerType" rx="2.5" ry="2.5" style="stroke:#181818;stroke-width:0.5;" width="123.8066" x="509" y="220.5"/><ellipse cx="524" cy="242.791" fill="#EB937F" rx="11" ry="11" style="stroke:#181818;stroke-width:1.0;"/><path d="M522.8594,243.5879 L522.8594,246.0879 L527.1875,246.0879 L527.1875,245.166 Q527.1875,244.5566 527.4219,244.291 Q527.6719,244.0254 528.0469,244.0254 Q528.4219,244.0254 528.6563,244.291 Q528.8906,244.5566 528.8906,245.166 L528.8906,247.791 L520.8906,247.791 Q520.2656,247.791 520,247.5566 Q519.75,247.3223 519.75,246.9316 Q519.75,246.5566 520.0156,246.3223 Q520.2813,246.0879 520.8906,246.0879 L521.1563,246.0879 L521.1563,239.4316 L520.8906,239.4316 Q520.2656,239.4316 520,239.1973 Q519.75,238.9629 519.75,238.5723 Q519.75,238.1973 520,237.9629 Q520.2656,237.7285 520.8906,237.7285 L528.5156,237.7285 L528.5156,240.3223 Q528.5156,240.9316 528.2813,241.1973 Q528.0625,241.4473 527.6719,241.4473 Q527.2969,241.4473 527.0625,241.1973 Q526.8281,240.9316 526.8281,240.3223 L526.8281,239.4316 L522.8594,239.4316 L522.8594,241.8848 L524.3438,241.8848 Q524.3438,241.2285 524.4688,241.041 Q524.7344,240.6348 525.2031,240.6348 Q525.5781,240.6348 525.8125,240.9004 Q526.0469,241.1504 526.0469,241.7598 L526.0469,243.7285 Q526.0469,244.2754 525.9219,244.4629 Q525.6563,244.8535 525.2031,244.8535 Q524.7344,244.8535 524.4688,244.4473 Q524.3438,244.2598 524.3438,243.5879 L522.8594,243.5879 Z " fill="#000000"/><text fill="#000000" font-family="sans-serif" font-size="12" font-style="italic" lengthAdjust="spacing" textLength="44.6953" x="561.5557" y="238.4492">&#171;Enum&#187;</text><text fill="#000000" font-family="sans-serif" font-size="14" lengthAdjust="spacing" textLength="91.8066" x="538" y="256.5684">CustomerType</text><line style="stroke:#181818;stroke-width:0.5;" x1="510" x2="631.8066" y1="265.082" y2="265.082"/><ellipse cx="520" cy="279.8926" fill="none" rx="3" ry="3" style="stroke:#038048;stroke-width:1.0;"/><text fill="#000000" font-family="sans-serif" font-size="14" lengthAdjust="spacing" textLength="67.6826" x="529" y="284.1895">REGULAR</text><ellipse cx="520" cy="298.5137" fill="none" rx="3" ry="3" style="stroke:#038048;stroke-width:1.0;"/><text fill="#000000" font-family="sans-serif" font-size="14" lengthAdjust="spacing" textLength="22.5654" x="529" y="302.8105">VIP</text><line style="stroke:#181818;stroke-width:0.5;" x1="510" x2="631.8066" y1="310.3242" y2="310.3242"/></g><!--class CustomerStatus--><g id="elem_CustomerStatus"><rect codeLine="44" fill="#F1F1F1" height="116.4453" id="CustomerStatus" rx="2.5" ry="2.5" style="stroke:#181818;stroke-width:0.5;" width="132.5518" x="668.5" y="211.5"/><ellipse cx="683.5809" cy="233.791" fill="#EB937F" rx="11" ry="11" style="stroke:#181818;stroke-width:1.0;"/><path d="M682.4402,234.5879 L682.4402,237.0879 L686.7684,237.0879 L686.7684,236.166 Q686.7684,235.5566 687.0027,235.291 Q687.2527,235.0254 687.6277,235.0254 Q688.0027,235.0254 688.2371,235.291 Q688.4715,235.5566 688.4715,236.166 L688.4715,238.791 L680.4715,238.791 Q679.8465,238.791 679.5809,238.5566 Q679.3309,238.3223 679.3309,237.9316 Q679.3309,237.5566 679.5965,237.3223 Q679.8621,237.0879 680.4715,237.0879 L680.7371,237.0879 L680.7371,230.4316 L680.4715,230.4316 Q679.8465,230.4316 679.5809,230.1973 Q679.3309,229.9629 679.3309,229.5723 Q679.3309,229.1973 679.5809,228.9629 Q679.8465,228.7285 680.4715,228.7285 L688.0965,228.7285 L688.0965,231.3223 Q688.0965,231.9316 687.8621,232.1973 Q687.6434,232.4473 687.2527,232.4473 Q686.8777,232.4473 686.6434,232.1973 Q686.409,231.9316 686.409,231.3223 L686.409,230.4316 L682.4402,230.4316 L682.4402,232.8848 L683.9246,232.8848 Q683.9246,232.2285 684.0496,232.041 Q684.3152,231.6348 684.784,231.6348 Q685.159,231.6348 685.3934,231.9004 Q685.6277,232.1504 685.6277,232.7598 L685.6277,234.7285 Q685.6277,235.2754 685.5027,235.4629 Q685.2371,235.8535 684.784,235.8535 Q684.3152,235.8535 684.0496,235.4473 Q683.9246,235.2598 683.9246,234.5879 L682.4402,234.5879 Z " fill="#000000"/><text fill="#000000" font-family="sans-serif" font-size="12" font-style="italic" lengthAdjust="spacing" textLength="44.6953" x="725.4372" y="229.4492">&#171;Enum&#187;</text><text fill="#000000" font-family="sans-serif" font-size="14" lengthAdjust="spacing" textLength="100.3721" x="697.5988" y="247.5684">CustomerStatus</text><line style="stroke:#181818;stroke-width:0.5;" x1="669.5" x2="800.0518" y1="256.082" y2="256.082"/><ellipse cx="679.5" cy="270.8926" fill="none" rx="3" ry="3" style="stroke:#038048;stroke-width:1.0;"/><text fill="#000000" font-family="sans-serif" font-size="14" lengthAdjust="spacing" textLength="66.8965" x="688.5" y="275.1895">CREATED</text><ellipse cx="679.5" cy="289.5137" fill="none" rx="3" ry="3" style="stroke:#038048;stroke-width:1.0;"/><text fill="#000000" font-family="sans-serif" font-size="14" lengthAdjust="spacing" textLength="106.5518" x="688.5" y="293.8105">INFRINGEMENT</text><ellipse cx="679.5" cy="308.1348" fill="none" rx="3" ry="3" style="stroke:#038048;stroke-width:1.0;"/><text fill="#000000" font-family="sans-serif" font-size="14" lengthAdjust="spacing" textLength="64.5723" x="688.5" y="312.4316">DELETED</text><line style="stroke:#181818;stroke-width:0.5;" x1="669.5" x2="800.0518" y1="319.9453" y2="319.9453"/></g><!--class SystemUser--><g id="elem_SystemUser"><rect codeLine="53" fill="#F1F1F1" height="79.2031" id="SystemUser" rx="2.5" ry="2.5" style="stroke:#181818;stroke-width:0.5;" width="122.0723" x="1127" y="439"/><ellipse cx="1142" cy="461.291" fill="#ADD1B2" rx="11" ry="11" style="stroke:#181818;stroke-width:1.0;"/><path d="M1144.7656,457.166 Q1144.9219,456.9473 1145.1094,456.8379 Q1145.2969,456.7285 1145.5156,456.7285 Q1145.8906,456.7285 1146.125,456.9941 Q1146.3594,457.2441 1146.3594,457.8535 L1146.3594,459.3066 Q1146.3594,459.916 1146.125,460.1816 Q1145.8906,460.4473 1145.5156,460.4473 Q1145.1719,460.4473 1144.9688,460.2441 Q1144.7656,460.0566 1144.6563,459.541 Q1144.6094,459.1816 1144.4219,458.9941 Q1144.0938,458.6191 1143.4844,458.4004 Q1142.875,458.1816 1142.25,458.1816 Q1141.4844,458.1816 1140.8438,458.5098 Q1140.2188,458.8379 1139.7188,459.5879 Q1139.2344,460.3379 1139.2344,461.3691 L1139.2344,462.4629 Q1139.2344,463.6973 1140.125,464.5254 Q1141.0156,465.3379 1142.6094,465.3379 Q1143.5469,465.3379 1144.2031,465.0879 Q1144.5938,464.9316 1145.0156,464.4941 Q1145.2813,464.2285 1145.4219,464.1504 Q1145.5781,464.0723 1145.7813,464.0723 Q1146.1094,464.0723 1146.3594,464.3379 Q1146.625,464.5879 1146.625,464.9316 Q1146.625,465.2754 1146.2813,465.6816 Q1145.7813,466.2598 1144.9844,466.5879 Q1143.9063,467.041 1142.6094,467.041 Q1141.0938,467.041 1139.8906,466.416 Q1138.9063,465.916 1138.2188,464.8535 Q1137.5313,463.7754 1137.5313,462.4941 L1137.5313,461.3379 Q1137.5313,460.0098 1138.1406,458.8691 Q1138.7656,457.7129 1139.8594,457.1035 Q1140.9531,456.4785 1142.1875,456.4785 Q1142.9219,456.4785 1143.5625,456.6504 Q1144.2188,456.8066 1144.7656,457.166 Z " fill="#000000"/><text fill="#000000" font-family="sans-serif" font-size="12" font-style="italic" lengthAdjust="spacing" textLength="94.0723" x="1154" y="456.9492">&#171;AggregateRoot&#187;</text><text fill="#000000" font-family="sans-serif" font-size="14" lengthAdjust="spacing" textLength="76.2344" x="1162.9189" y="475.0684">SystemUser</text><line style="stroke:#181818;stroke-width:0.5;" x1="1128" x2="1248.0723" y1="483.582" y2="483.582"/><ellipse cx="1138" cy="498.3926" fill="none" rx="3" ry="3" style="stroke:#038048;stroke-width:1.0;"/><text fill="#000000" font-family="sans-serif" font-size="14" lengthAdjust="spacing" textLength="75.4824" x="1147" y="502.6895">String name</text><line style="stroke:#181818;stroke-width:0.5;" x1="1128" x2="1248.0723" y1="510.2031" y2="510.2031"/></g><!--class SystemRole--><g id="elem_SystemRole"><rect codeLine="57" fill="#F1F1F1" height="79.2031" id="SystemRole" rx="2.5" ry="2.5" style="stroke:#181818;stroke-width:0.5;" width="239.9238" x="998" y="599"/><ellipse cx="1075.9775" cy="621.291" fill="#EB937F" rx="11" ry="11" style="stroke:#181818;stroke-width:1.0;"/><path d="M1074.8369,622.0879 L1074.8369,624.5879 L1079.165,624.5879 L1079.165,623.666 Q1079.165,623.0566 1079.3994,622.791 Q1079.6494,622.5254 1080.0244,622.5254 Q1080.3994,622.5254 1080.6338,622.791 Q1080.8682,623.0566 1080.8682,623.666 L1080.8682,626.291 L1072.8682,626.291 Q1072.2432,626.291 1071.9775,626.0566 Q1071.7275,625.8223 1071.7275,625.4316 Q1071.7275,625.0566 1071.9932,624.8223 Q1072.2588,624.5879 1072.8682,624.5879 L1073.1338,624.5879 L1073.1338,617.9316 L1072.8682,617.9316 Q1072.2432,617.9316 1071.9775,617.6973 Q1071.7275,617.4629 1071.7275,617.0723 Q1071.7275,616.6973 1071.9775,616.4629 Q1072.2432,616.2285 1072.8682,616.2285 L1080.4932,616.2285 L1080.4932,618.8223 Q1080.4932,619.4316 1080.2588,619.6973 Q1080.04,619.9473 1079.6494,619.9473 Q1079.2744,619.9473 1079.04,619.6973 Q1078.8057,619.4316 1078.8057,618.8223 L1078.8057,617.9316 L1074.8369,617.9316 L1074.8369,620.3848 L1076.3213,620.3848 Q1076.3213,619.7285 1076.4463,619.541 Q1076.7119,619.1348 1077.1807,619.1348 Q1077.5557,619.1348 1077.79,619.4004 Q1078.0244,619.6504 1078.0244,620.2598 L1078.0244,622.2285 Q1078.0244,622.7754 1077.8994,622.9629 Q1077.6338,623.3535 1077.1807,623.3535 Q1076.7119,623.3535 1076.4463,622.9473 Q1076.3213,622.7598 1076.3213,622.0879 L1074.8369,622.0879 Z " fill="#000000"/><text fill="#000000" font-family="sans-serif" font-size="12" font-style="italic" lengthAdjust="spacing" textLength="44.6953" x="1111.8643" y="616.9492">&#171;Enum&#187;</text><text fill="#000000" font-family="sans-serif" font-size="14" lengthAdjust="spacing" textLength="75.4688" x="1096.4775" y="635.0684">SystemRole</text><line style="stroke:#181818;stroke-width:0.5;" x1="999" x2="1236.9238" y1="643.582" y2="643.582"/><ellipse cx="1009" cy="658.3926" fill="none" rx="3" ry="3" style="stroke:#038048;stroke-width:1.0;"/><text fill="#000000" font-family="sans-serif" font-size="14" lengthAdjust="spacing" textLength="213.9238" x="1018" y="662.6895">CUSTOMER_REPRESENTATIVE</text><line style="stroke:#181818;stroke-width:0.5;" x1="999" x2="1236.9238" y1="670.2031" y2="670.2031"/></g><!--class Username--><g id="elem_Username"><rect codeLine="61" fill="#F1F1F1" height="79.2031" id="Username" rx="2.5" ry="2.5" style="stroke:#181818;stroke-width:0.5;" width="104.7168" x="1273.5" y="599"/><ellipse cx="1288.5" cy="621.291" fill="#ADD8E6" rx="11" ry="11" style="stroke:#181818;stroke-width:1.0;"/><path d="M1289.0938,624.5566 L1291.5625,618.6816 L1291.1719,618.6816 Q1290.5625,618.6816 1290.2969,618.4473 Q1290.0313,618.2129 1290.0313,617.8223 Q1290.0313,617.4473 1290.2969,617.2129 Q1290.5625,616.9785 1291.1719,616.9785 L1293.4531,616.9785 Q1294.0625,616.9785 1294.3281,617.2129 Q1294.5938,617.4473 1294.5938,617.8223 Q1294.5938,618.291 1294.1875,618.5566 Q1294,618.6816 1293.4063,618.6816 L1289.9219,627.041 L1288.2813,627.041 L1284.7969,618.6816 Q1284.2031,618.6816 1284.0156,618.5566 Q1283.6094,618.291 1283.6094,617.8223 Q1283.6094,617.4473 1283.875,617.2129 Q1284.1406,616.9785 1284.75,616.9785 L1287.0469,616.9785 Q1287.6563,616.9785 1287.9063,617.2129 Q1288.1719,617.4473 1288.1719,617.8223 Q1288.1719,618.2129 1287.9063,618.4473 Q1287.6563,618.6816 1287.0469,618.6816 L1286.6406,618.6816 L1289.0938,624.5566 Z " fill="#000000"/><text fill="#000000" font-family="sans-serif" font-size="12" font-style="italic" lengthAdjust="spacing" textLength="76.7168" x="1300.5" y="616.9492">&#171;valueObject&#187;</text><text fill="#000000" font-family="sans-serif" font-size="14" lengthAdjust="spacing" textLength="64.5791" x="1306.5688" y="635.0684">Username</text><line style="stroke:#181818;stroke-width:0.5;" x1="1274.5" x2="1377.2168" y1="643.582" y2="643.582"/><ellipse cx="1284.5" cy="658.3926" fill="none" rx="3" ry="3" style="stroke:#038048;stroke-width:1.0;"/><text fill="#000000" font-family="sans-serif" font-size="14" lengthAdjust="spacing" textLength="73.9307" x="1293.5" y="662.6895">String value</text><line style="stroke:#181818;stroke-width:0.5;" x1="1274.5" x2="1377.2168" y1="670.2031" y2="670.2031"/></g><!--class Password--><g id="elem_Password"><rect codeLine="65" fill="#F1F1F1" height="79.2031" id="Password" rx="2.5" ry="2.5" style="stroke:#181818;stroke-width:0.5;" width="104.7168" x="1413.5" y="599"/><ellipse cx="1428.5" cy="621.291" fill="#ADD8E6" rx="11" ry="11" style="stroke:#181818;stroke-width:1.0;"/><path d="M1429.0938,624.5566 L1431.5625,618.6816 L1431.1719,618.6816 Q1430.5625,618.6816 1430.2969,618.4473 Q1430.0313,618.2129 1430.0313,617.8223 Q1430.0313,617.4473 1430.2969,617.2129 Q1430.5625,616.9785 1431.1719,616.9785 L1433.4531,616.9785 Q1434.0625,616.9785 1434.3281,617.2129 Q1434.5938,617.4473 1434.5938,617.8223 Q1434.5938,618.291 1434.1875,618.5566 Q1434,618.6816 1433.4063,618.6816 L1429.9219,627.041 L1428.2813,627.041 L1424.7969,618.6816 Q1424.2031,618.6816 1424.0156,618.5566 Q1423.6094,618.291 1423.6094,617.8223 Q1423.6094,617.4473 1423.875,617.2129 Q1424.1406,616.9785 1424.75,616.9785 L1427.0469,616.9785 Q1427.6563,616.9785 1427.9063,617.2129 Q1428.1719,617.4473 1428.1719,617.8223 Q1428.1719,618.2129 1427.9063,618.4473 Q1427.6563,618.6816 1427.0469,618.6816 L1426.6406,618.6816 L1429.0938,624.5566 Z " fill="#000000"/><text fill="#000000" font-family="sans-serif" font-size="12" font-style="italic" lengthAdjust="spacing" textLength="76.7168" x="1440.5" y="616.9492">&#171;valueObject&#187;</text><text fill="#000000" font-family="sans-serif" font-size="14" lengthAdjust="spacing" textLength="61.4688" x="1448.124" y="635.0684">Password</text><line style="stroke:#181818;stroke-width:0.5;" x1="1414.5" x2="1517.2168" y1="643.582" y2="643.582"/><ellipse cx="1424.5" cy="658.3926" fill="none" rx="3" ry="3" style="stroke:#038048;stroke-width:1.0;"/><text fill="#000000" font-family="sans-serif" font-size="14" lengthAdjust="spacing" textLength="73.9307" x="1433.5" y="662.6895">String value</text><line style="stroke:#181818;stroke-width:0.5;" x1="1414.5" x2="1517.2168" y1="670.2031" y2="670.2031"/></g><!--class Address--><g id="elem_Address"><rect codeLine="5" fill="#F1F1F1" height="135.0664" id="Address" rx="2.5" ry="2.5" style="stroke:#181818;stroke-width:0.5;" width="137.2891" x="976.5" y="202"/><ellipse cx="1006.1575" cy="224.291" fill="#ADD8E6" rx="11" ry="11" style="stroke:#181818;stroke-width:1.0;"/><path d="M1006.7513,227.5566 L1009.22,221.6816 L1008.8294,221.6816 Q1008.22,221.6816 1007.9544,221.4473 Q1007.6888,221.2129 1007.6888,220.8223 Q1007.6888,220.4473 1007.9544,220.2129 Q1008.22,219.9785 1008.8294,219.9785 L1011.1106,219.9785 Q1011.72,219.9785 1011.9856,220.2129 Q1012.2513,220.4473 1012.2513,220.8223 Q1012.2513,221.291 1011.845,221.5566 Q1011.6575,221.6816 1011.0638,221.6816 L1007.5794,230.041 L1005.9388,230.041 L1002.4544,221.6816 Q1001.8606,221.6816 1001.6731,221.5566 Q1001.2669,221.291 1001.2669,220.8223 Q1001.2669,220.4473 1001.5325,220.2129 Q1001.7981,219.9785 1002.4075,219.9785 L1004.7044,219.9785 Q1005.3138,219.9785 1005.5638,220.2129 Q1005.8294,220.4473 1005.8294,220.8223 Q1005.8294,221.2129 1005.5638,221.4473 Q1005.3138,221.6816 1004.7044,221.6816 L1004.2981,221.6816 L1006.7513,227.5566 Z " fill="#000000"/><text fill="#000000" font-family="sans-serif" font-size="12" font-style="italic" lengthAdjust="spacing" textLength="76.7168" x="1021.4147" y="219.9492">&#171;valueObject&#187;</text><text fill="#000000" font-family="sans-serif" font-size="14" lengthAdjust="spacing" textLength="51.3584" x="1034.0939" y="238.0684">Address</text><line style="stroke:#181818;stroke-width:0.5;" x1="977.5" x2="1112.7891" y1="246.582" y2="246.582"/><ellipse cx="987.5" cy="261.3926" fill="none" rx="3" ry="3" style="stroke:#038048;stroke-width:1.0;"/><text fill="#000000" font-family="sans-serif" font-size="14" lengthAdjust="spacing" textLength="75.4756" x="996.5" y="265.6895">String street</text><ellipse cx="987.5" cy="280.0137" fill="none" rx="3" ry="3" style="stroke:#038048;stroke-width:1.0;"/><text fill="#000000" font-family="sans-serif" font-size="14" lengthAdjust="spacing" textLength="61.4619" x="996.5" y="284.3105">String city</text><ellipse cx="987.5" cy="298.6348" fill="none" rx="3" ry="3" style="stroke:#038048;stroke-width:1.0;"/><text fill="#000000" font-family="sans-serif" font-size="14" lengthAdjust="spacing" textLength="111.2891" x="996.5" y="302.9316">String postalCode</text><ellipse cx="987.5" cy="317.2559" fill="none" rx="3" ry="3" style="stroke:#038048;stroke-width:1.0;"/><text fill="#000000" font-family="sans-serif" font-size="14" lengthAdjust="spacing" textLength="86.3721" x="996.5" y="321.5527">String country</text><line style="stroke:#181818;stroke-width:0.5;" x1="977.5" x2="1112.7891" y1="329.0664" y2="329.0664"/></g><!--link Customer to VAT--><g id="link_Customer_VAT"><path codeLine="71" d="M632.18,95.51 C676.6,105.51 736.77,123.34 783,153 C814.38,173.13 838.8601,200.0532 858.2501,225.1332 " fill="none" id="Customer-to-VAT" style="stroke:#181818;stroke-width:1.0;"/><polygon fill="#181818" points="861.92,229.88,859.5797,220.3132,858.8618,225.9243,853.2507,225.2064,861.92,229.88" style="stroke:#181818;stroke-width:1.0;"/><text fill="#000000" font-family="sans-serif" font-size="13" lengthAdjust="spacing" textLength="81.6309" x="807" y="168.0283">CustomerVAT</text><text fill="#000000" font-family="sans-serif" font-size="13" lengthAdjust="spacing" textLength="7.23" x="640.0725" y="112.0433">1</text><text fill="#000000" font-family="sans-serif" font-size="13" lengthAdjust="spacing" textLength="7.23" x="849.7082" y="218.6452">1</text></g><!--link Customer to Address--><g id="link_Customer_Address"><path codeLine="72" d="M632.18,89.04 C699.71,95.91 810.33,112.74 897,153 C925.08,166.05 948.031,181.5416 971.671,200.6216 " fill="none" id="Customer-to-Address" style="stroke:#181818;stroke-width:1.0;"/><polygon fill="#181818" points="976.34,204.39,971.8488,195.6248,972.4492,201.2497,966.8243,201.8501,976.34,204.39" style="stroke:#181818;stroke-width:1.0;"/><text fill="#000000" font-family="sans-serif" font-size="13" lengthAdjust="spacing" textLength="104.0381" x="929" y="168.0283">CustomerAddress</text><text fill="#000000" font-family="sans-serif" font-size="13" lengthAdjust="spacing" textLength="7.23" x="640.0725" y="85.7129">1</text><text fill="#000000" font-family="sans-serif" font-size="13" lengthAdjust="spacing" textLength="7.23" x="961.4443" y="193.3795">1</text></g><!--link Customer to Representative--><g id="link_Customer_Representative"><path codeLine="73" d="M509.85,117.55 C494.91,127.56 479.84,139.53 468,153 C450.8,172.56 439.7997,192.7192 430.3597,214.8992 " fill="none" id="Customer-to-Representative" style="stroke:#181818;stroke-width:1.0;"/><polygon fill="#181818" points="428.01,220.42,435.2151,213.7053,429.9681,215.8194,427.854,210.5724,428.01,220.42" style="stroke:#181818;stroke-width:1.0;"/><text fill="#000000" font-family="sans-serif" font-size="13" lengthAdjust="spacing" textLength="93.939" x="469" y="168.0283">Representatives</text><text fill="#000000" font-family="sans-serif" font-size="13" lengthAdjust="spacing" textLength="7.23" x="494.5768" y="117.8575">1</text><text fill="#000000" font-family="sans-serif" font-size="13" lengthAdjust="spacing" textLength="5.0591" x="425.043" y="209.384">*</text></g><!--link Customer to Email--><g id="link_Customer_Email"><path codeLine="74" d="M509.63,90.5 C394.81,103.17 154.85,136.99 108,202 C56.19,273.88 104.5304,376.7087 139.1204,433.7887 " fill="none" id="Customer-to-Email" style="stroke:#181818;stroke-width:1.0;"/><polygon fill="#181818" points="142.23,438.92,140.9866,429.1499,139.6387,434.6439,134.1448,433.296,142.23,438.92" style="stroke:#181818;stroke-width:1.0;"/><text fill="#000000" font-family="sans-serif" font-size="13" lengthAdjust="spacing" textLength="88.8545" x="109" y="275.0283">CustomerEmail</text><text fill="#000000" font-family="sans-serif" font-size="13" lengthAdjust="spacing" textLength="7.23" x="494.7336" y="87.3509">1</text><text fill="#000000" font-family="sans-serif" font-size="13" lengthAdjust="spacing" textLength="7.23" x="130.2433" y="427.6921">1</text></g><!--link Customer to Phone--><g id="link_Customer_Phone"><path codeLine="75" d="M509.83,85.88 C431.24,91.35 297.5,113.93 235,202 C187.39,269.08 201.22,323.75 255,386 C282.58,417.92 318.7201,439.1103 351.8801,454.3803 " fill="none" id="Customer-to-Phone" style="stroke:#181818;stroke-width:1.0;"/><polygon fill="#181818" points="357.33,456.89,350.8282,449.4922,352.7884,454.7986,347.482,456.7588,357.33,456.89" style="stroke:#181818;stroke-width:1.0;"/><text fill="#000000" font-family="sans-serif" font-size="13" lengthAdjust="spacing" textLength="93.939" x="236" y="275.0283">CustomerPhone</text><text fill="#000000" font-family="sans-serif" font-size="13" lengthAdjust="spacing" textLength="7.23" x="494.958" y="101.2397">1</text><text fill="#000000" font-family="sans-serif" font-size="13" lengthAdjust="spacing" textLength="7.23" x="342.1177" y="449.5024">1</text></g><!--link Customer to CustomerType--><g id="link_Customer_CustomerType"><path codeLine="76" d="M571,123.07 C571,151.42 571,184.12 571,214.48 " fill="none" id="Customer-to-CustomerType" style="stroke:#181818;stroke-width:1.0;"/><polygon fill="#181818" points="571,220.48,575,211.48,571,215.48,567,211.48,571,220.48" style="stroke:#181818;stroke-width:1.0;"/><text fill="#000000" font-family="sans-serif" font-size="13" lengthAdjust="spacing" textLength="85.249" x="572" y="168.0283">CustomerType</text><text fill="#000000" font-family="sans-serif" font-size="13" lengthAdjust="spacing" textLength="5.0591" x="565.5692" y="145.3679">*</text><text fill="#000000" font-family="sans-serif" font-size="13" lengthAdjust="spacing" textLength="7.23" x="563.517" y="209.0944">1</text></g><!--link Customer to CustomerStatus--><g id="link_Customer_CustomerStatus"><path codeLine="77" d="M632.35,123.07 C644.26,132.07 656.1,142.21 666,153 C681.79,170.21 692.8063,186.3831 703.9863,206.0631 " fill="none" id="Customer-to-CustomerStatus" style="stroke:#181818;stroke-width:1.0;"/><polygon fill="#181818" points="706.95,211.28,705.9824,201.4788,704.4803,206.9325,699.0265,205.4304,706.95,211.28" style="stroke:#181818;stroke-width:1.0;"/><text fill="#000000" font-family="sans-serif" font-size="13" lengthAdjust="spacing" textLength="93.2026" x="681" y="168.0283">CustomerStatus</text><text fill="#000000" font-family="sans-serif" font-size="13" lengthAdjust="spacing" textLength="5.0591" x="637.4637" y="145.3679">*</text><text fill="#000000" font-family="sans-serif" font-size="13" lengthAdjust="spacing" textLength="7.23" x="696.1462" y="200.1674">1</text></g><!--link Representative to NIF--><g id="link_Representative_NIF"><path codeLine="78" d="M466.31,318.79 C474.4,325.17 482.78,331.42 491,337 C514.04,352.64 527.78,345.95 546,367 C563.61,387.35 572.4515,410.1376 578.3415,433.1376 " fill="none" id="Representative-to-NIF" style="stroke:#181818;stroke-width:1.0;"/><polygon fill="#181818" points="579.83,438.95,581.4722,429.239,578.5896,434.1063,573.7223,431.2237,579.83,438.95" style="stroke:#181818;stroke-width:1.0;"/><text fill="#000000" font-family="sans-serif" font-size="13" lengthAdjust="spacing" textLength="108.3799" x="559" y="382.0283">RepresentativeNIF</text><text fill="#000000" font-family="sans-serif" font-size="13" lengthAdjust="spacing" textLength="7.23" x="465.9523" y="340.2526">1</text><text fill="#000000" font-family="sans-serif" font-size="13" lengthAdjust="spacing" textLength="7.23" x="571.0402" y="427.7273">1</text></g><!--link Representative to Email--><g id="link_Representative_Email"><path codeLine="79" d="M347.66,317.32 C318.34,339.11 288.52,361.44 282,367 C255.36,389.71 231.3329,412.8276 209.6129,434.6476 " fill="none" id="Representative-to-Email" style="stroke:#181818;stroke-width:1.0;"/><polygon fill="#181818" points="205.38,438.9,214.5642,435.3434,208.9074,435.3564,208.8944,429.6995,205.38,438.9" style="stroke:#181818;stroke-width:1.0;"/><text fill="#000000" font-family="sans-serif" font-size="13" lengthAdjust="spacing" textLength="119.9453" x="283" y="382.0283">RepresentativeEmail</text><text fill="#000000" font-family="sans-serif" font-size="13" lengthAdjust="spacing" textLength="7.23" x="332.9354" y="318.9217">1</text><text fill="#000000" font-family="sans-serif" font-size="13" lengthAdjust="spacing" textLength="7.23" x="204.2472" y="427.6687">1</text></g><!--link Representative to Phone--><g id="link_Representative_Phone"><path codeLine="80" d="M410.77,318.51 C410.59,355.06 410.3782,398.7101 410.2182,432.7501 " fill="none" id="Representative-to-Phone" style="stroke:#181818;stroke-width:1.0;"/><polygon fill="#181818" points="410.19,438.75,414.2323,429.7689,410.2135,433.7501,406.2323,429.7313,410.19,438.75" style="stroke:#181818;stroke-width:1.0;"/><text fill="#000000" font-family="sans-serif" font-size="13" lengthAdjust="spacing" textLength="125.0298" x="412" y="382.0283">RepresentativePhone</text><text fill="#000000" font-family="sans-serif" font-size="13" lengthAdjust="spacing" textLength="7.23" x="403.2731" y="340.2976">1</text><text fill="#000000" font-family="sans-serif" font-size="13" lengthAdjust="spacing" textLength="7.23" x="402.6843" y="427.7942">1</text></g><!--link Representative to SystemUser--><g id="link_Representative_SystemUser"><path codeLine="81" d="M460.15,318.55 C469.76,325.77 480.22,332.35 491,337 C538.99,357.72 907.16,381.84 958,394 C1016.67,408.04 1075.4687,429.9133 1121.1387,448.6433 " fill="none" id="Representative-to-SystemUser" style="stroke:#181818;stroke-width:1.0;"/><polygon fill="#181818" points="1126.69,450.92,1119.8809,443.8041,1122.0639,449.0228,1116.8453,451.2059,1126.69,450.92" style="stroke:#181818;stroke-width:1.0;"/><text fill="#000000" font-family="sans-serif" font-size="13" lengthAdjust="spacing" textLength="114.8862" x="895" y="382.0283">RepresentativeUser</text><text fill="#000000" font-family="sans-serif" font-size="13" lengthAdjust="spacing" textLength="7.23" x="459.2886" y="340.343">1</text><text fill="#000000" font-family="sans-serif" font-size="13" lengthAdjust="spacing" textLength="7.23" x="1111.8009" y="443.5564">1</text></g><!--link SystemUser to SystemRole--><g id="link_SystemUser_SystemRole"><path codeLine="82" d="M1170.88,518.15 C1159.99,542.73 1148.381,568.9346 1137.501,593.4846 " fill="none" id="SystemUser-to-SystemRole" style="stroke:#181818;stroke-width:1.0;"/><polygon fill="#181818" points="1135.07,598.97,1142.3735,592.3625,1137.0959,594.3988,1135.0596,589.1211,1135.07,598.97" style="stroke:#181818;stroke-width:1.0;"/><text fill="#000000" font-family="sans-serif" font-size="13" lengthAdjust="spacing" textLength="54.1836" x="1156" y="565.0283">UserRole</text><text fill="#000000" font-family="sans-serif" font-size="13" lengthAdjust="spacing" textLength="5.0591" x="1162.6293" y="540.1604">*</text><text fill="#000000" font-family="sans-serif" font-size="13" lengthAdjust="spacing" textLength="7.23" x="1130.4287" y="587.7507">1</text></g><!--link SystemUser to Username--><g id="link_SystemUser_Username"><path codeLine="83" d="M1221.76,518.15 C1243.22,542.73 1266.9633,569.9008 1288.4033,594.4508 " fill="none" id="SystemUser-to-Username" style="stroke:#181818;stroke-width:1.0;"/><polygon fill="#181818" points="1292.35,598.97,1289.4427,589.56,1289.0611,595.204,1283.4171,594.8223,1292.35,598.97" style="stroke:#181818;stroke-width:1.0;"/><text fill="#000000" font-family="sans-serif" font-size="13" lengthAdjust="spacing" textLength="59.9663" x="1266" y="565.0283">Username</text><text fill="#000000" font-family="sans-serif" font-size="13" lengthAdjust="spacing" textLength="7.23" x="1219.7849" y="540.1604">1</text><text fill="#000000" font-family="sans-serif" font-size="13" lengthAdjust="spacing" textLength="7.23" x="1279.0089" y="587.7507">1</text></g><!--link SystemUser to Password--><g id="link_SystemUser_Password"><path codeLine="84" d="M1249.33,506.85 C1275.79,519.23 1306.85,534.54 1334,550 C1360.88,565.31 1384.6723,580.6805 1408.4523,596.8905 " fill="none" id="SystemUser-to-Password" style="stroke:#181818;stroke-width:1.0;"/><polygon fill="#181818" points="1413.41,600.27,1408.2264,591.8956,1409.2786,597.4537,1403.7204,598.5059,1413.41,600.27" style="stroke:#181818;stroke-width:1.0;"/><text fill="#000000" font-family="sans-serif" font-size="13" lengthAdjust="spacing" textLength="57.0781" x="1364" y="565.0283">Password</text><text fill="#000000" font-family="sans-serif" font-size="13" lengthAdjust="spacing" textLength="7.23" x="1257.2408" y="506.3029">1</text><text fill="#000000" font-family="sans-serif" font-size="13" lengthAdjust="spacing" textLength="7.23" x="1398.2095" y="590.4413">1</text></g><!--SRC=[fLHRRvim57xthpZA7dhP8crzc2OKHKB4hI8bQMGWhvENU9GLCB9DjcZgVwynbnXACgrv0P_Zxzo_uokOyPJ66IpvZYM0_soPo1Nyv092_-xkCup1AwJYAHD0M1HB9QYAUORaSvpbLD0KShfzfX7prI5X8DXMqInA649NuF4qvHbiQ58mUFpnIzz9j4sebE3kTeBf_sHolVa47zpPx1l-UWFx4beXfrFuYm0-Wgz4d4MW8pEcRCqsLWTRphbKDF5q8HqKBp8b3kZ5PDJKuaQHO15L3DNfm-ZjtGYe16zXygZIRZ6JIOiYd3V9Mc4pcfPfwAYDxSOD_bskvS5SDYvOfdIrUWIvRfiMz13sJBl3HdyoVBSxiPbS9wdL_FxzILKkiEPFSgcJzHFFs2NjAT9sEC4XhrfJf9OPmG_XmYMrj9cl1srztTb2lhNs27O3FAkb-UgUp5SFU8bNGQsQuGMk02yLrVo3L2mDfKqek1OiONkQARqrGicR8_k6u8P_eKyi0bgm_wAWAR8o9ZmPQ8yN-i7Z4fFl1Ay9zdLXRZ3VuEwKohYbrukdhJ-_kTYzqu_fBs69UOdaKvnBr2xcwCi8nkEf-PSRvxIZrT8mh7cBZj1QCm2_7VLtqEafJkHIRSanX967eTKk7A56jg2tHsY7yav7F6zGyzpfAL2lE3kjygde5wjrvqoQehkGglGpPaq3kf2g3MVChDtesvPAPDtRBR6smZ4CBuyTi1MZtG2dFPw2jYHtsYDw1G00]--></g></svg>