<svg xmlns="http://www.w3.org/2000/svg" xmlns:xlink="http://www.w3.org/1999/xlink" contentStyleType="text/css" height="1890px" preserveAspectRatio="none" style="width:2241px;height:1890px;background:#FFFFFF;" version="1.1" viewBox="0 0 2241 1890" width="2241px" zoomAndPan="magnify"><defs/><g><!--class Utils--><g id="elem_Utils"><rect codeLine="9" fill="#F1F1F1" height="66.6211" id="Utils" rx="2.5" ry="2.5" style="stroke:#181818;stroke-width:0.5;" width="328.3262" x="725" y="419"/><ellipse cx="871.3027" cy="435" fill="#ADD1B2" rx="11" ry="11" style="stroke:#181818;stroke-width:1.0;"/><path d="M874.0684,430.875 Q874.2246,430.6563 874.4121,430.5469 Q874.5996,430.4375 874.8184,430.4375 Q875.1934,430.4375 875.4277,430.7031 Q875.6621,430.9531 875.6621,431.5625 L875.6621,433.0156 Q875.6621,433.625 875.4277,433.8906 Q875.1934,434.1563 874.8184,434.1563 Q874.4746,434.1563 874.2715,433.9531 Q874.0684,433.7656 873.959,433.25 Q873.9121,432.8906 873.7246,432.7031 Q873.3965,432.3281 872.7871,432.1094 Q872.1777,431.8906 871.5527,431.8906 Q870.7871,431.8906 870.1465,432.2188 Q869.5215,432.5469 869.0215,433.2969 Q868.5371,434.0469 868.5371,435.0781 L868.5371,436.1719 Q868.5371,437.4063 869.4277,438.2344 Q870.3184,439.0469 871.9121,439.0469 Q872.8496,439.0469 873.5059,438.7969 Q873.8965,438.6406 874.3184,438.2031 Q874.584,437.9375 874.7246,437.8594 Q874.8809,437.7813 875.084,437.7813 Q875.4121,437.7813 875.6621,438.0469 Q875.9277,438.2969 875.9277,438.6406 Q875.9277,438.9844 875.584,439.3906 Q875.084,439.9688 874.2871,440.2969 Q873.209,440.75 871.9121,440.75 Q870.3965,440.75 869.1934,440.125 Q868.209,439.625 867.5215,438.5625 Q866.834,437.4844 866.834,436.2031 L866.834,435.0469 Q866.834,433.7188 867.4434,432.5781 Q868.0684,431.4219 869.1621,430.8125 Q870.2559,430.1875 871.4902,430.1875 Q872.2246,430.1875 872.8652,430.3594 Q873.5215,430.5156 874.0684,430.875 Z " fill="#000000"/><text fill="#000000" font-family="sans-serif" font-size="14" lengthAdjust="spacing" textLength="27.2207" x="891.8027" y="440.7969">Utils</text><line style="stroke:#181818;stroke-width:0.5;" x1="726" x2="1052.3262" y1="451" y2="451"/><line style="stroke:#181818;stroke-width:0.5;" x1="726" x2="1052.3262" y1="459" y2="459"/><text fill="#000000" font-family="sans-serif" font-size="14" lengthAdjust="spacing" text-decoration="underline" textLength="316.3262" x="731" y="478.1074">+collectRepresentativeData() : RepresentativeData</text></g><!--class RegCustomerUI--><g id="elem_RegCustomerUI"><rect codeLine="13" fill="#F1F1F1" height="159.7266" id="RegCustomerUI" rx="2.5" ry="2.5" style="stroke:#181818;stroke-width:0.5;" width="460.1914" x="914" y="134"/><ellipse cx="1089.6631" cy="150" fill="#ADD1B2" rx="11" ry="11" style="stroke:#181818;stroke-width:1.0;"/><path d="M1092.4287,145.875 Q1092.585,145.6563 1092.7725,145.5469 Q1092.96,145.4375 1093.1787,145.4375 Q1093.5537,145.4375 1093.7881,145.7031 Q1094.0225,145.9531 1094.0225,146.5625 L1094.0225,148.0156 Q1094.0225,148.625 1093.7881,148.8906 Q1093.5537,149.1563 1093.1787,149.1563 Q1092.835,149.1563 1092.6318,148.9531 Q1092.4287,148.7656 1092.3193,148.25 Q1092.2725,147.8906 1092.085,147.7031 Q1091.7568,147.3281 1091.1475,147.1094 Q1090.5381,146.8906 1089.9131,146.8906 Q1089.1475,146.8906 1088.5068,147.2188 Q1087.8818,147.5469 1087.3818,148.2969 Q1086.8975,149.0469 1086.8975,150.0781 L1086.8975,151.1719 Q1086.8975,152.4063 1087.7881,153.2344 Q1088.6787,154.0469 1090.2725,154.0469 Q1091.21,154.0469 1091.8662,153.7969 Q1092.2568,153.6406 1092.6787,153.2031 Q1092.9443,152.9375 1093.085,152.8594 Q1093.2412,152.7813 1093.4443,152.7813 Q1093.7725,152.7813 1094.0225,153.0469 Q1094.2881,153.2969 1094.2881,153.6406 Q1094.2881,153.9844 1093.9443,154.3906 Q1093.4443,154.9688 1092.6475,155.2969 Q1091.5693,155.75 1090.2725,155.75 Q1088.7568,155.75 1087.5537,155.125 Q1086.5693,154.625 1085.8818,153.5625 Q1085.1943,152.4844 1085.1943,151.2031 L1085.1943,150.0469 Q1085.1943,148.7188 1085.8037,147.5781 Q1086.4287,146.4219 1087.5225,145.8125 Q1088.6162,145.1875 1089.8506,145.1875 Q1090.585,145.1875 1091.2256,145.3594 Q1091.8818,145.5156 1092.4287,145.875 Z " fill="#000000"/><text fill="#000000" font-family="sans-serif" font-size="14" lengthAdjust="spacing" textLength="100.3652" x="1110.1631" y="155.7969">RegCustomerUI</text><line style="stroke:#181818;stroke-width:0.5;" x1="915" x2="1373.1914" y1="166" y2="166"/><text fill="#000000" font-family="sans-serif" font-size="14" lengthAdjust="spacing" textLength="243.5371" x="920" y="185.1074">-theController : RegCustomerController</text><line style="stroke:#181818;stroke-width:0.5;" x1="915" x2="1373.1914" y1="192.6211" y2="192.6211"/><text fill="#000000" font-family="sans-serif" font-size="14" lengthAdjust="spacing" textLength="129.5889" x="920" y="211.7285">+doShow() : boolean</text><text fill="#000000" font-family="sans-serif" font-size="14" lengthAdjust="spacing" textLength="245.8408" x="920" y="230.3496">-selectCustomerType() : CustomerType</text><text fill="#000000" font-family="sans-serif" font-size="14" lengthAdjust="spacing" textLength="438.0811" x="920" y="248.9707">-showCustomerTypes(selectedTypes : Set&lt;CustomerType&gt;) : boolean</text><text fill="#000000" font-family="sans-serif" font-size="14" lengthAdjust="spacing" textLength="448.1914" x="920" y="267.5918">-buildCustomerTypeMenu(selectedTypes : Set&lt;CustomerType&gt;) : Menu</text><text fill="#000000" font-family="sans-serif" font-size="14" lengthAdjust="spacing" textLength="118.6787" x="920" y="286.2129">+headline() : String</text></g><!--class RegCustomerAction--><g id="elem_RegCustomerAction"><rect codeLine="22" fill="#F1F1F1" height="66.6211" id="RegCustomerAction" rx="2.5" ry="2.5" style="stroke:#181818;stroke-width:0.5;" width="157.2754" x="1065.5" y="7"/><ellipse cx="1080.5" cy="23" fill="#ADD1B2" rx="11" ry="11" style="stroke:#181818;stroke-width:1.0;"/><path d="M1083.2656,18.875 Q1083.4219,18.6563 1083.6094,18.5469 Q1083.7969,18.4375 1084.0156,18.4375 Q1084.3906,18.4375 1084.625,18.7031 Q1084.8594,18.9531 1084.8594,19.5625 L1084.8594,21.0156 Q1084.8594,21.625 1084.625,21.8906 Q1084.3906,22.1563 1084.0156,22.1563 Q1083.6719,22.1563 1083.4688,21.9531 Q1083.2656,21.7656 1083.1563,21.25 Q1083.1094,20.8906 1082.9219,20.7031 Q1082.5938,20.3281 1081.9844,20.1094 Q1081.375,19.8906 1080.75,19.8906 Q1079.9844,19.8906 1079.3438,20.2188 Q1078.7188,20.5469 1078.2188,21.2969 Q1077.7344,22.0469 1077.7344,23.0781 L1077.7344,24.1719 Q1077.7344,25.4063 1078.625,26.2344 Q1079.5156,27.0469 1081.1094,27.0469 Q1082.0469,27.0469 1082.7031,26.7969 Q1083.0938,26.6406 1083.5156,26.2031 Q1083.7813,25.9375 1083.9219,25.8594 Q1084.0781,25.7813 1084.2813,25.7813 Q1084.6094,25.7813 1084.8594,26.0469 Q1085.125,26.2969 1085.125,26.6406 Q1085.125,26.9844 1084.7813,27.3906 Q1084.2813,27.9688 1083.4844,28.2969 Q1082.4063,28.75 1081.1094,28.75 Q1079.5938,28.75 1078.3906,28.125 Q1077.4063,27.625 1076.7188,26.5625 Q1076.0313,25.4844 1076.0313,24.2031 L1076.0313,23.0469 Q1076.0313,21.7188 1076.6406,20.5781 Q1077.2656,19.4219 1078.3594,18.8125 Q1079.4531,18.1875 1080.6875,18.1875 Q1081.4219,18.1875 1082.0625,18.3594 Q1082.7188,18.5156 1083.2656,18.875 Z " fill="#000000"/><text fill="#000000" font-family="sans-serif" font-size="14" lengthAdjust="spacing" textLength="125.2754" x="1094.5" y="28.7969">RegCustomerAction</text><line style="stroke:#181818;stroke-width:0.5;" x1="1066.5" x2="1221.7754" y1="39" y2="39"/><line style="stroke:#181818;stroke-width:0.5;" x1="1066.5" x2="1221.7754" y1="47" y2="47"/><text fill="#000000" font-family="sans-serif" font-size="14" lengthAdjust="spacing" textLength="128.0303" x="1071.5" y="66.1074">+execute() : boolean</text></g><!--class RegCustomerController--><g id="elem_RegCustomerController"><rect codeLine="26" fill="#F1F1F1" height="196.9688" id="RegCustomerController" rx="2.5" ry="2.5" style="stroke:#181818;stroke-width:0.5;" width="622.374" x="1088" y="354"/><ellipse cx="1321.4097" cy="370" fill="#ADD1B2" rx="11" ry="11" style="stroke:#181818;stroke-width:1.0;"/><path d="M1324.1753,365.875 Q1324.3315,365.6563 1324.519,365.5469 Q1324.7065,365.4375 1324.9253,365.4375 Q1325.3003,365.4375 1325.5347,365.7031 Q1325.769,365.9531 1325.769,366.5625 L1325.769,368.0156 Q1325.769,368.625 1325.5347,368.8906 Q1325.3003,369.1563 1324.9253,369.1563 Q1324.5815,369.1563 1324.3784,368.9531 Q1324.1753,368.7656 1324.0659,368.25 Q1324.019,367.8906 1323.8315,367.7031 Q1323.5034,367.3281 1322.894,367.1094 Q1322.2847,366.8906 1321.6597,366.8906 Q1320.894,366.8906 1320.2534,367.2188 Q1319.6284,367.5469 1319.1284,368.2969 Q1318.644,369.0469 1318.644,370.0781 L1318.644,371.1719 Q1318.644,372.4063 1319.5347,373.2344 Q1320.4253,374.0469 1322.019,374.0469 Q1322.9565,374.0469 1323.6128,373.7969 Q1324.0034,373.6406 1324.4253,373.2031 Q1324.6909,372.9375 1324.8315,372.8594 Q1324.9878,372.7813 1325.1909,372.7813 Q1325.519,372.7813 1325.769,373.0469 Q1326.0347,373.2969 1326.0347,373.6406 Q1326.0347,373.9844 1325.6909,374.3906 Q1325.1909,374.9688 1324.394,375.2969 Q1323.3159,375.75 1322.019,375.75 Q1320.5034,375.75 1319.3003,375.125 Q1318.3159,374.625 1317.6284,373.5625 Q1316.9409,372.4844 1316.9409,371.2031 L1316.9409,370.0469 Q1316.9409,368.7188 1317.5503,367.5781 Q1318.1753,366.4219 1319.269,365.8125 Q1320.3628,365.1875 1321.5972,365.1875 Q1322.3315,365.1875 1322.9722,365.3594 Q1323.6284,365.5156 1324.1753,365.875 Z " fill="#000000"/><text fill="#000000" font-family="sans-serif" font-size="14" lengthAdjust="spacing" textLength="147.0547" x="1341.9097" y="375.7969">RegCustomerController</text><line style="stroke:#181818;stroke-width:0.5;" x1="1089" x2="1709.374" y1="386" y2="386"/><text fill="#000000" font-family="sans-serif" font-size="14" lengthAdjust="spacing" textLength="227.9512" x="1094" y="405.1074">-customerService : CustomerService</text><text fill="#000000" font-family="sans-serif" font-size="14" lengthAdjust="spacing" textLength="219.4131" x="1094" y="423.7285">-userController : AddUserController</text><line style="stroke:#181818;stroke-width:0.5;" x1="1089" x2="1709.374" y1="431.2422" y2="431.2422"/><text fill="#000000" font-family="sans-serif" font-size="14" lengthAdjust="spacing" textLength="164.5547" x="1094" y="450.3496">+RegCustomerController()</text><text fill="#000000" font-family="sans-serif" font-size="14" lengthAdjust="spacing" textLength="610.374" x="1094" y="468.9707">+RegCustomerController(customerService : CustomerService, userController : AddUserController)</text><text fill="#000000" font-family="sans-serif" font-size="14" lengthAdjust="spacing" textLength="509.25" x="1094" y="487.5918">+registerCustomerWithMultipleRepresentatives(vatNumber : String, name : String,</text><text fill="#000000" font-family="sans-serif" font-size="14" lengthAdjust="spacing" textLength="438.8672" x="1109.5586" y="506.2129">address : Address, email : String, phone : String, type : CustomerType,</text><text fill="#000000" font-family="sans-serif" font-size="14" lengthAdjust="spacing" textLength="375.8467" x="1109.5586" y="524.834">representativesData : List&lt;RepresentativeData&gt;) : Customer</text><text fill="#000000" font-family="sans-serif" font-size="14" lengthAdjust="spacing" textLength="302.292" x="1094" y="543.4551">+getCustomerTypes() : Iterable&lt;CustomerType&gt;</text></g><!--class CustomerService--><g id="elem_CustomerService"><rect codeLine="35" fill="#F1F1F1" height="215.5898" id="CustomerService" rx="2.5" ry="2.5" style="stroke:#181818;stroke-width:0.5;" width="612.2979" x="1093" y="676"/><ellipse cx="1341.2163" cy="692" fill="#ADD1B2" rx="11" ry="11" style="stroke:#181818;stroke-width:1.0;"/><path d="M1343.9819,687.875 Q1344.1382,687.6563 1344.3257,687.5469 Q1344.5132,687.4375 1344.7319,687.4375 Q1345.1069,687.4375 1345.3413,687.7031 Q1345.5757,687.9531 1345.5757,688.5625 L1345.5757,690.0156 Q1345.5757,690.625 1345.3413,690.8906 Q1345.1069,691.1563 1344.7319,691.1563 Q1344.3882,691.1563 1344.1851,690.9531 Q1343.9819,690.7656 1343.8726,690.25 Q1343.8257,689.8906 1343.6382,689.7031 Q1343.3101,689.3281 1342.7007,689.1094 Q1342.0913,688.8906 1341.4663,688.8906 Q1340.7007,688.8906 1340.0601,689.2188 Q1339.4351,689.5469 1338.9351,690.2969 Q1338.4507,691.0469 1338.4507,692.0781 L1338.4507,693.1719 Q1338.4507,694.4063 1339.3413,695.2344 Q1340.2319,696.0469 1341.8257,696.0469 Q1342.7632,696.0469 1343.4194,695.7969 Q1343.8101,695.6406 1344.2319,695.2031 Q1344.4976,694.9375 1344.6382,694.8594 Q1344.7944,694.7813 1344.9976,694.7813 Q1345.3257,694.7813 1345.5757,695.0469 Q1345.8413,695.2969 1345.8413,695.6406 Q1345.8413,695.9844 1345.4976,696.3906 Q1344.9976,696.9688 1344.2007,697.2969 Q1343.1226,697.75 1341.8257,697.75 Q1340.3101,697.75 1339.1069,697.125 Q1338.1226,696.625 1337.4351,695.5625 Q1336.7476,694.4844 1336.7476,693.2031 L1336.7476,692.0469 Q1336.7476,690.7188 1337.3569,689.5781 Q1337.9819,688.4219 1339.0757,687.8125 Q1340.1694,687.1875 1341.4038,687.1875 Q1342.1382,687.1875 1342.7788,687.3594 Q1343.4351,687.5156 1343.9819,687.875 Z " fill="#000000"/><text fill="#000000" font-family="sans-serif" font-size="14" lengthAdjust="spacing" textLength="107.3652" x="1361.7163" y="697.7969">CustomerService</text><line style="stroke:#181818;stroke-width:0.5;" x1="1094" x2="1704.2979" y1="708" y2="708"/><text fill="#000000" font-family="sans-serif" font-size="14" lengthAdjust="spacing" textLength="178.9785" x="1099" y="727.1074">-authz : AuthorizationService</text><text fill="#000000" font-family="sans-serif" font-size="14" lengthAdjust="spacing" textLength="171.9512" x="1099" y="745.7285">-repo : CustomerRepository</text><line style="stroke:#181818;stroke-width:0.5;" x1="1094" x2="1704.2979" y1="753.2422" y2="753.2422"/><text fill="#000000" font-family="sans-serif" font-size="14" lengthAdjust="spacing" textLength="124.8652" x="1099" y="772.3496">+CustomerService()</text><text fill="#000000" font-family="sans-serif" font-size="14" lengthAdjust="spacing" textLength="600.2979" x="1099" y="790.9707">+CustomerService(repository : CustomerRepository, authorizationService : AuthorizationService)</text><text fill="#000000" font-family="sans-serif" font-size="14" lengthAdjust="spacing" textLength="342.7402" x="1099" y="809.5918">+findCustomerByVAT(vat : VAT) : Optional&lt;Customer&gt;</text><text fill="#000000" font-family="sans-serif" font-size="14" lengthAdjust="spacing" textLength="401.8779" x="1099" y="828.2129">+findCustomerByVAT(vatNumber : String) : Optional&lt;Customer&gt;</text><text fill="#000000" font-family="sans-serif" font-size="14" lengthAdjust="spacing" textLength="296.8369" x="1099" y="846.834">+findAllActiveCustomers() : Iterable&lt;Customer&gt;</text><text fill="#000000" font-family="sans-serif" font-size="14" lengthAdjust="spacing" textLength="327.1406" x="1099" y="865.4551">+registerCustomer(customer : Customer) : Customer</text><text fill="#000000" font-family="sans-serif" font-size="14" lengthAdjust="spacing" textLength="302.292" x="1099" y="884.0762">+getCustomerTypes() : Iterable&lt;CustomerType&gt;</text></g><!--class Address--><g id="elem_Address"><rect codeLine="47" fill="#F1F1F1" height="228.1719" id="Address" rx="2.5" ry="2.5" style="stroke:#181818;stroke-width:0.5;" width="469.9121" x="85" y="1410.5"/><ellipse cx="279.3477" cy="1432.791" fill="#ADD8E6" rx="11" ry="11" style="stroke:#181818;stroke-width:1.0;"/><path d="M279.9414,1436.0566 L282.4102,1430.1816 L282.0195,1430.1816 Q281.4102,1430.1816 281.1445,1429.9473 Q280.8789,1429.7129 280.8789,1429.3223 Q280.8789,1428.9473 281.1445,1428.7129 Q281.4102,1428.4785 282.0195,1428.4785 L284.3008,1428.4785 Q284.9102,1428.4785 285.1758,1428.7129 Q285.4414,1428.9473 285.4414,1429.3223 Q285.4414,1429.791 285.0352,1430.0566 Q284.8477,1430.1816 284.2539,1430.1816 L280.7695,1438.541 L279.1289,1438.541 L275.6445,1430.1816 Q275.0508,1430.1816 274.8633,1430.0566 Q274.457,1429.791 274.457,1429.3223 Q274.457,1428.9473 274.7227,1428.7129 Q274.9883,1428.4785 275.5977,1428.4785 L277.8945,1428.4785 Q278.5039,1428.4785 278.7539,1428.7129 Q279.0195,1428.9473 279.0195,1429.3223 Q279.0195,1429.7129 278.7539,1429.9473 Q278.5039,1430.1816 277.8945,1430.1816 L277.4883,1430.1816 L279.9414,1436.0566 Z " fill="#000000"/><text fill="#000000" font-family="sans-serif" font-size="12" font-style="italic" lengthAdjust="spacing" textLength="76.7168" x="297.8477" y="1428.4492">&#171;valueObject&#187;</text><text fill="#000000" font-family="sans-serif" font-size="14" lengthAdjust="spacing" textLength="51.3584" x="310.5269" y="1446.5684">Address</text><line style="stroke:#181818;stroke-width:0.5;" x1="86" x2="553.9121" y1="1455.082" y2="1455.082"/><text fill="#000000" font-family="sans-serif" font-size="14" lengthAdjust="spacing" textLength="87.917" x="91" y="1474.1895">-street : String</text><text fill="#000000" font-family="sans-serif" font-size="14" lengthAdjust="spacing" textLength="73.9033" x="91" y="1492.8105">-city : String</text><text fill="#000000" font-family="sans-serif" font-size="14" lengthAdjust="spacing" textLength="123.7305" x="91" y="1511.4316">-postalCode : String</text><text fill="#000000" font-family="sans-serif" font-size="14" lengthAdjust="spacing" textLength="98.8135" x="91" y="1530.0527">-country : String</text><line style="stroke:#181818;stroke-width:0.5;" x1="86" x2="553.9121" y1="1537.5664" y2="1537.5664"/><text fill="#000000" font-family="sans-serif" font-size="14" lengthAdjust="spacing" textLength="457.9121" x="91" y="1556.6738">+Address(street : String, city : String, postalCode : String, country : String)</text><text fill="#000000" font-family="sans-serif" font-size="14" lengthAdjust="spacing" textLength="180.168" x="91" y="1575.2949">+equals(o : Object) : boolean</text><text fill="#000000" font-family="sans-serif" font-size="14" lengthAdjust="spacing" textLength="107.7822" x="91" y="1593.916">+hashCode() : int</text><text fill="#000000" font-family="sans-serif" font-size="14" lengthAdjust="spacing" textLength="113.9893" x="91" y="1612.5371">+toString() : String</text><text fill="#000000" font-family="sans-serif" font-size="14" lengthAdjust="spacing" textLength="209.6992" x="91" y="1631.1582">+compareTo(other : Address) : int</text></g><!--class Customer--><g id="elem_Customer"><rect codeLine="59" fill="#F1F1F1" height="321.2773" id="Customer" rx="2.5" ry="2.5" style="stroke:#181818;stroke-width:0.5;" width="543.4531" x="742.5" y="1017"/><ellipse cx="964.9404" cy="1039.291" fill="#ADD1B2" rx="11" ry="11" style="stroke:#181818;stroke-width:1.0;"/><path d="M967.7061,1035.166 Q967.8623,1034.9473 968.0498,1034.8379 Q968.2373,1034.7285 968.4561,1034.7285 Q968.8311,1034.7285 969.0654,1034.9941 Q969.2998,1035.2441 969.2998,1035.8535 L969.2998,1037.3066 Q969.2998,1037.916 969.0654,1038.1816 Q968.8311,1038.4473 968.4561,1038.4473 Q968.1123,1038.4473 967.9092,1038.2441 Q967.7061,1038.0566 967.5967,1037.541 Q967.5498,1037.1816 967.3623,1036.9941 Q967.0342,1036.6191 966.4248,1036.4004 Q965.8154,1036.1816 965.1904,1036.1816 Q964.4248,1036.1816 963.7842,1036.5098 Q963.1592,1036.8379 962.6592,1037.5879 Q962.1748,1038.3379 962.1748,1039.3691 L962.1748,1040.4629 Q962.1748,1041.6973 963.0654,1042.5254 Q963.9561,1043.3379 965.5498,1043.3379 Q966.4873,1043.3379 967.1436,1043.0879 Q967.5342,1042.9316 967.9561,1042.4941 Q968.2217,1042.2285 968.3623,1042.1504 Q968.5186,1042.0723 968.7217,1042.0723 Q969.0498,1042.0723 969.2998,1042.3379 Q969.5654,1042.5879 969.5654,1042.9316 Q969.5654,1043.2754 969.2217,1043.6816 Q968.7217,1044.2598 967.9248,1044.5879 Q966.8467,1045.041 965.5498,1045.041 Q964.0342,1045.041 962.8311,1044.416 Q961.8467,1043.916 961.1592,1042.8535 Q960.4717,1041.7754 960.4717,1040.4941 L960.4717,1039.3379 Q960.4717,1038.0098 961.0811,1036.8691 Q961.7061,1035.7129 962.7998,1035.1035 Q963.8936,1034.4785 965.1279,1034.4785 Q965.8623,1034.4785 966.5029,1034.6504 Q967.1592,1034.8066 967.7061,1035.166 Z " fill="#000000"/><text fill="#000000" font-family="sans-serif" font-size="12" font-style="italic" lengthAdjust="spacing" textLength="94.0723" x="983.4404" y="1034.9492">&#171;AggregateRoot&#187;</text><text fill="#000000" font-family="sans-serif" font-size="14" lengthAdjust="spacing" textLength="60.6826" x="1000.1353" y="1053.0684">Customer</text><line style="stroke:#181818;stroke-width:0.5;" x1="743.5" x2="1284.9531" y1="1061.582" y2="1061.582"/><text fill="#000000" font-family="sans-serif" font-size="14" lengthAdjust="spacing" textLength="62.2344" x="748.5" y="1080.6895">-vat : VAT</text><text fill="#000000" font-family="sans-serif" font-size="14" lengthAdjust="spacing" textLength="87.9238" x="748.5" y="1099.3105">-name : String</text><text fill="#000000" font-family="sans-serif" font-size="14" lengthAdjust="spacing" textLength="117.4961" x="748.5" y="1117.9316">-address : Address</text><text fill="#000000" font-family="sans-serif" font-size="14" lengthAdjust="spacing" textLength="84.793" x="748.5" y="1136.5527">-email : Email</text><text fill="#000000" font-family="sans-serif" font-size="14" lengthAdjust="spacing" textLength="95.7441" x="748.5" y="1155.1738">-phone : Phone</text><text fill="#000000" font-family="sans-serif" font-size="14" lengthAdjust="spacing" textLength="196.834" x="748.5" y="1173.7949">-customerType : CustomerType</text><text fill="#000000" font-family="sans-serif" font-size="14" lengthAdjust="spacing" textLength="213.9648" x="748.5" y="1192.416">-customerStatus : CustomerStatus</text><text fill="#000000" font-family="sans-serif" font-size="14" lengthAdjust="spacing" textLength="244.3506" x="748.5" y="1211.0371">-representatives : List&lt;Representative&gt;</text><line style="stroke:#181818;stroke-width:0.5;" x1="743.5" x2="1284.9531" y1="1218.5508" y2="1218.5508"/><text fill="#000000" font-family="sans-serif" font-size="14" lengthAdjust="spacing" textLength="434.5469" x="748.5" y="1237.6582">+Customer(vat : VAT, name : String, address : Address, email : Email,</text><text fill="#000000" font-family="sans-serif" font-size="14" lengthAdjust="spacing" textLength="512.0049" x="764.0586" y="1256.2793">phone : Phone, customerType : CustomerType, customerStatus : CustomerStatus,</text><text fill="#000000" font-family="sans-serif" font-size="14" lengthAdjust="spacing" textLength="244.3506" x="764.0586" y="1274.9004">representatives : List&lt;Representative&gt;)</text><text fill="#000000" font-family="sans-serif" font-size="14" lengthAdjust="spacing" textLength="329.5742" x="748.5" y="1293.5215">+addRepresentative(representative : Representative)</text><text fill="#000000" font-family="sans-serif" font-size="14" lengthAdjust="spacing" textLength="257.1885" x="748.5" y="1312.1426">+representatives() : List&lt;Representative&gt;</text><text fill="#000000" font-family="sans-serif" font-size="14" lengthAdjust="spacing" textLength="100.7549" x="748.5" y="1330.7637">+identity() : VAT</text></g><!--class CustomerBuilder--><g id="elem_CustomerBuilder"><rect codeLine="74" fill="#F1F1F1" height="345.9375" id="CustomerBuilder" rx="2.5" ry="2.5" style="stroke:#181818;stroke-width:0.5;" width="459.043" x="423.5" y="611"/><ellipse cx="596.6406" cy="627" fill="#ADD1B2" rx="11" ry="11" style="stroke:#181818;stroke-width:1.0;"/><path d="M599.4063,622.875 Q599.5625,622.6563 599.75,622.5469 Q599.9375,622.4375 600.1563,622.4375 Q600.5313,622.4375 600.7656,622.7031 Q601,622.9531 601,623.5625 L601,625.0156 Q601,625.625 600.7656,625.8906 Q600.5313,626.1563 600.1563,626.1563 Q599.8125,626.1563 599.6094,625.9531 Q599.4063,625.7656 599.2969,625.25 Q599.25,624.8906 599.0625,624.7031 Q598.7344,624.3281 598.125,624.1094 Q597.5156,623.8906 596.8906,623.8906 Q596.125,623.8906 595.4844,624.2188 Q594.8594,624.5469 594.3594,625.2969 Q593.875,626.0469 593.875,627.0781 L593.875,628.1719 Q593.875,629.4063 594.7656,630.2344 Q595.6563,631.0469 597.25,631.0469 Q598.1875,631.0469 598.8438,630.7969 Q599.2344,630.6406 599.6563,630.2031 Q599.9219,629.9375 600.0625,629.8594 Q600.2188,629.7813 600.4219,629.7813 Q600.75,629.7813 601,630.0469 Q601.2656,630.2969 601.2656,630.6406 Q601.2656,630.9844 600.9219,631.3906 Q600.4219,631.9688 599.625,632.2969 Q598.5469,632.75 597.25,632.75 Q595.7344,632.75 594.5313,632.125 Q593.5469,631.625 592.8594,630.5625 Q592.1719,629.4844 592.1719,628.2031 L592.1719,627.0469 Q592.1719,625.7188 592.7813,624.5781 Q593.4063,623.4219 594.5,622.8125 Q595.5938,622.1875 596.8281,622.1875 Q597.5625,622.1875 598.2031,622.3594 Q598.8594,622.5156 599.4063,622.875 Z " fill="#000000"/><text fill="#000000" font-family="sans-serif" font-size="14" lengthAdjust="spacing" textLength="104.2617" x="617.1406" y="632.7969">CustomerBuilder</text><line style="stroke:#181818;stroke-width:0.5;" x1="424.5" x2="881.543" y1="643" y2="643"/><text fill="#000000" font-family="sans-serif" font-size="14" lengthAdjust="spacing" textLength="62.2344" x="429.5" y="662.1074">-vat : VAT</text><text fill="#000000" font-family="sans-serif" font-size="14" lengthAdjust="spacing" textLength="87.9238" x="429.5" y="680.7285">-name : String</text><text fill="#000000" font-family="sans-serif" font-size="14" lengthAdjust="spacing" textLength="117.4961" x="429.5" y="699.3496">-address : Address</text><text fill="#000000" font-family="sans-serif" font-size="14" lengthAdjust="spacing" textLength="84.793" x="429.5" y="717.9707">-email : Email</text><text fill="#000000" font-family="sans-serif" font-size="14" lengthAdjust="spacing" textLength="95.7441" x="429.5" y="736.5918">-phone : Phone</text><text fill="#000000" font-family="sans-serif" font-size="14" lengthAdjust="spacing" textLength="196.834" x="429.5" y="755.2129">-customerType : CustomerType</text><text fill="#000000" font-family="sans-serif" font-size="14" lengthAdjust="spacing" textLength="213.9648" x="429.5" y="773.834">-customerStatus : CustomerStatus</text><text fill="#000000" font-family="sans-serif" font-size="14" lengthAdjust="spacing" textLength="244.3506" x="429.5" y="792.4551">-representatives : List&lt;Representative&gt;</text><line style="stroke:#181818;stroke-width:0.5;" x1="424.5" x2="881.543" y1="799.9688" y2="799.9688"/><text fill="#000000" font-family="sans-serif" font-size="14" lengthAdjust="spacing" textLength="252.4717" x="429.5" y="819.0762">+withVAT(vat : String) : CustomerBuilder</text><text fill="#000000" font-family="sans-serif" font-size="14" lengthAdjust="spacing" textLength="278.9336" x="429.5" y="837.6973">+withName(name : String) : CustomerBuilder</text><text fill="#000000" font-family="sans-serif" font-size="14" lengthAdjust="spacing" textLength="322.5195" x="429.5" y="856.3184">+withAddress(address : Address) : CustomerBuilder</text><text fill="#000000" font-family="sans-serif" font-size="14" lengthAdjust="spacing" textLength="275.0303" x="429.5" y="874.9395">+withEmail(email : String) : CustomerBuilder</text><text fill="#000000" font-family="sans-serif" font-size="14" lengthAdjust="spacing" textLength="285.9814" x="429.5" y="893.5605">+withPhone(phone : String) : CustomerBuilder</text><text fill="#000000" font-family="sans-serif" font-size="14" lengthAdjust="spacing" textLength="442.3057" x="429.5" y="912.1816">+withCustomerType(customerType : CustomerType) : CustomerBuilder</text><text fill="#000000" font-family="sans-serif" font-size="14" lengthAdjust="spacing" textLength="447.043" x="429.5" y="930.8027">+withRepresentative(representative : Representative) : CustomerBuilder</text><text fill="#000000" font-family="sans-serif" font-size="14" lengthAdjust="spacing" textLength="119.4307" x="429.5" y="949.4238">+build() : Customer</text></g><!--class CustomerStatus--><g id="elem_CustomerStatus"><rect codeLine="93" fill="#F1F1F1" height="103.8633" id="CustomerStatus" rx="2.5" ry="2.5" style="stroke:#181818;stroke-width:0.5;" width="132.3721" x="1163" y="1472.5"/><ellipse cx="1178" cy="1488.5" fill="#EB937F" rx="11" ry="11" style="stroke:#181818;stroke-width:1.0;"/><path d="M1176.8594,1489.2969 L1176.8594,1491.7969 L1181.1875,1491.7969 L1181.1875,1490.875 Q1181.1875,1490.2656 1181.4219,1490 Q1181.6719,1489.7344 1182.0469,1489.7344 Q1182.4219,1489.7344 1182.6563,1490 Q1182.8906,1490.2656 1182.8906,1490.875 L1182.8906,1493.5 L1174.8906,1493.5 Q1174.2656,1493.5 1174,1493.2656 Q1173.75,1493.0313 1173.75,1492.6406 Q1173.75,1492.2656 1174.0156,1492.0313 Q1174.2813,1491.7969 1174.8906,1491.7969 L1175.1563,1491.7969 L1175.1563,1485.1406 L1174.8906,1485.1406 Q1174.2656,1485.1406 1174,1484.9063 Q1173.75,1484.6719 1173.75,1484.2813 Q1173.75,1483.9063 1174,1483.6719 Q1174.2656,1483.4375 1174.8906,1483.4375 L1182.5156,1483.4375 L1182.5156,1486.0313 Q1182.5156,1486.6406 1182.2813,1486.9063 Q1182.0625,1487.1563 1181.6719,1487.1563 Q1181.2969,1487.1563 1181.0625,1486.9063 Q1180.8281,1486.6406 1180.8281,1486.0313 L1180.8281,1485.1406 L1176.8594,1485.1406 L1176.8594,1487.5938 L1178.3438,1487.5938 Q1178.3438,1486.9375 1178.4688,1486.75 Q1178.7344,1486.3438 1179.2031,1486.3438 Q1179.5781,1486.3438 1179.8125,1486.6094 Q1180.0469,1486.8594 1180.0469,1487.4688 L1180.0469,1489.4375 Q1180.0469,1489.9844 1179.9219,1490.1719 Q1179.6563,1490.5625 1179.2031,1490.5625 Q1178.7344,1490.5625 1178.4688,1490.1563 Q1178.3438,1489.9688 1178.3438,1489.2969 L1176.8594,1489.2969 Z " fill="#000000"/><text fill="#000000" font-family="sans-serif" font-size="14" lengthAdjust="spacing" textLength="100.3721" x="1192" y="1494.2969">CustomerStatus</text><line style="stroke:#181818;stroke-width:0.5;" x1="1164" x2="1294.3721" y1="1504.5" y2="1504.5"/><text fill="#000000" font-family="sans-serif" font-size="14" lengthAdjust="spacing" textLength="66.8965" x="1169" y="1523.6074">CREATED</text><text fill="#000000" font-family="sans-serif" font-size="14" lengthAdjust="spacing" textLength="106.5518" x="1169" y="1542.2285">INFRINGEMENT</text><text fill="#000000" font-family="sans-serif" font-size="14" lengthAdjust="spacing" textLength="64.5723" x="1169" y="1560.8496">DELETED</text><line style="stroke:#181818;stroke-width:0.5;" x1="1164" x2="1294.3721" y1="1568.3633" y2="1568.3633"/></g><!--class CustomerType--><g id="elem_CustomerType"><rect codeLine="99" fill="#F1F1F1" height="103.8633" id="CustomerType" rx="2.5" ry="2.5" style="stroke:#181818;stroke-width:0.5;" width="232.5957" x="590.5" y="1472.5"/><ellipse cx="656.6445" cy="1488.5" fill="#EB937F" rx="11" ry="11" style="stroke:#181818;stroke-width:1.0;"/><path d="M655.5039,1489.2969 L655.5039,1491.7969 L659.832,1491.7969 L659.832,1490.875 Q659.832,1490.2656 660.0664,1490 Q660.3164,1489.7344 660.6914,1489.7344 Q661.0664,1489.7344 661.3008,1490 Q661.5352,1490.2656 661.5352,1490.875 L661.5352,1493.5 L653.5352,1493.5 Q652.9102,1493.5 652.6445,1493.2656 Q652.3945,1493.0313 652.3945,1492.6406 Q652.3945,1492.2656 652.6602,1492.0313 Q652.9258,1491.7969 653.5352,1491.7969 L653.8008,1491.7969 L653.8008,1485.1406 L653.5352,1485.1406 Q652.9102,1485.1406 652.6445,1484.9063 Q652.3945,1484.6719 652.3945,1484.2813 Q652.3945,1483.9063 652.6445,1483.6719 Q652.9102,1483.4375 653.5352,1483.4375 L661.1602,1483.4375 L661.1602,1486.0313 Q661.1602,1486.6406 660.9258,1486.9063 Q660.707,1487.1563 660.3164,1487.1563 Q659.9414,1487.1563 659.707,1486.9063 Q659.4727,1486.6406 659.4727,1486.0313 L659.4727,1485.1406 L655.5039,1485.1406 L655.5039,1487.5938 L656.9883,1487.5938 Q656.9883,1486.9375 657.1133,1486.75 Q657.3789,1486.3438 657.8477,1486.3438 Q658.2227,1486.3438 658.457,1486.6094 Q658.6914,1486.8594 658.6914,1487.4688 L658.6914,1489.4375 Q658.6914,1489.9844 658.5664,1490.1719 Q658.3008,1490.5625 657.8477,1490.5625 Q657.3789,1490.5625 657.1133,1490.1563 Q656.9883,1489.9688 656.9883,1489.2969 L655.5039,1489.2969 Z " fill="#000000"/><text fill="#000000" font-family="sans-serif" font-size="14" lengthAdjust="spacing" textLength="91.8066" x="677.1445" y="1494.2969">CustomerType</text><line style="stroke:#181818;stroke-width:0.5;" x1="591.5" x2="822.0957" y1="1504.5" y2="1504.5"/><text fill="#000000" font-family="sans-serif" font-size="14" lengthAdjust="spacing" textLength="67.6826" x="596.5" y="1523.6074">REGULAR</text><text fill="#000000" font-family="sans-serif" font-size="14" lengthAdjust="spacing" textLength="22.5654" x="596.5" y="1542.2285">VIP</text><line style="stroke:#181818;stroke-width:0.5;" x1="591.5" x2="822.0957" y1="1549.7422" y2="1549.7422"/><text fill="#000000" font-family="sans-serif" font-size="14" lengthAdjust="spacing" text-decoration="underline" textLength="220.5957" x="596.5" y="1568.8496">+asList() : Iterable&lt;CustomerType&gt;</text></g><!--class Email--><g id="elem_Email"><rect codeLine="105" fill="#F1F1F1" height="172.3086" id="Email" rx="2.5" ry="2.5" style="stroke:#181818;stroke-width:0.5;" width="205.3477" x="1403.5" y="1711"/><ellipse cx="1465.5654" cy="1733.291" fill="#ADD8E6" rx="11" ry="11" style="stroke:#181818;stroke-width:1.0;"/><path d="M1466.1592,1736.5566 L1468.6279,1730.6816 L1468.2373,1730.6816 Q1467.6279,1730.6816 1467.3623,1730.4473 Q1467.0967,1730.2129 1467.0967,1729.8223 Q1467.0967,1729.4473 1467.3623,1729.2129 Q1467.6279,1728.9785 1468.2373,1728.9785 L1470.5186,1728.9785 Q1471.1279,1728.9785 1471.3936,1729.2129 Q1471.6592,1729.4473 1471.6592,1729.8223 Q1471.6592,1730.291 1471.2529,1730.5566 Q1471.0654,1730.6816 1470.4717,1730.6816 L1466.9873,1739.041 L1465.3467,1739.041 L1461.8623,1730.6816 Q1461.2686,1730.6816 1461.0811,1730.5566 Q1460.6748,1730.291 1460.6748,1729.8223 Q1460.6748,1729.4473 1460.9404,1729.2129 Q1461.2061,1728.9785 1461.8154,1728.9785 L1464.1123,1728.9785 Q1464.7217,1728.9785 1464.9717,1729.2129 Q1465.2373,1729.4473 1465.2373,1729.8223 Q1465.2373,1730.2129 1464.9717,1730.4473 Q1464.7217,1730.6816 1464.1123,1730.6816 L1463.7061,1730.6816 L1466.1592,1736.5566 Z " fill="#000000"/><text fill="#000000" font-family="sans-serif" font-size="12" font-style="italic" lengthAdjust="spacing" textLength="76.7168" x="1484.0654" y="1728.9492">&#171;valueObject&#187;</text><text fill="#000000" font-family="sans-serif" font-size="14" lengthAdjust="spacing" textLength="35.0068" x="1504.9204" y="1747.0684">Email</text><line style="stroke:#181818;stroke-width:0.5;" x1="1404.5" x2="1607.8477" y1="1755.582" y2="1755.582"/><text fill="#000000" font-family="sans-serif" font-size="14" lengthAdjust="spacing" textLength="86.3584" x="1409.5" y="1774.6895">-email : String</text><line style="stroke:#181818;stroke-width:0.5;" x1="1404.5" x2="1607.8477" y1="1782.2031" y2="1782.2031"/><text fill="#000000" font-family="sans-serif" font-size="14" lengthAdjust="spacing" textLength="134.2031" x="1409.5" y="1801.3105">+Email(email : String)</text><text fill="#000000" font-family="sans-serif" font-size="14" lengthAdjust="spacing" textLength="180.168" x="1409.5" y="1819.9316">+equals(o : Object) : boolean</text><text fill="#000000" font-family="sans-serif" font-size="14" lengthAdjust="spacing" textLength="107.7822" x="1409.5" y="1838.5527">+hashCode() : int</text><text fill="#000000" font-family="sans-serif" font-size="14" lengthAdjust="spacing" textLength="113.9893" x="1409.5" y="1857.1738">+toString() : String</text><text fill="#000000" font-family="sans-serif" font-size="14" lengthAdjust="spacing" textLength="193.3477" x="1409.5" y="1875.7949">+compareTo(other : Email) : int</text></g><!--class NIF--><g id="elem_NIF"><rect codeLine="114" fill="#F1F1F1" height="172.3086" id="NIF" rx="2.5" ry="2.5" style="stroke:#181818;stroke-width:0.5;" width="192.8926" x="1653.5" y="1711"/><ellipse cx="1709.3379" cy="1733.291" fill="#ADD8E6" rx="11" ry="11" style="stroke:#181818;stroke-width:1.0;"/><path d="M1709.9316,1736.5566 L1712.4004,1730.6816 L1712.0098,1730.6816 Q1711.4004,1730.6816 1711.1348,1730.4473 Q1710.8691,1730.2129 1710.8691,1729.8223 Q1710.8691,1729.4473 1711.1348,1729.2129 Q1711.4004,1728.9785 1712.0098,1728.9785 L1714.291,1728.9785 Q1714.9004,1728.9785 1715.166,1729.2129 Q1715.4316,1729.4473 1715.4316,1729.8223 Q1715.4316,1730.291 1715.0254,1730.5566 Q1714.8379,1730.6816 1714.2441,1730.6816 L1710.7598,1739.041 L1709.1191,1739.041 L1705.6348,1730.6816 Q1705.041,1730.6816 1704.8535,1730.5566 Q1704.4473,1730.291 1704.4473,1729.8223 Q1704.4473,1729.4473 1704.7129,1729.2129 Q1704.9785,1728.9785 1705.5879,1728.9785 L1707.8848,1728.9785 Q1708.4941,1728.9785 1708.7441,1729.2129 Q1709.0098,1729.4473 1709.0098,1729.8223 Q1709.0098,1730.2129 1708.7441,1730.4473 Q1708.4941,1730.6816 1707.8848,1730.6816 L1707.4785,1730.6816 L1709.9316,1736.5566 Z " fill="#000000"/><text fill="#000000" font-family="sans-serif" font-size="12" font-style="italic" lengthAdjust="spacing" textLength="76.7168" x="1727.8379" y="1728.9492">&#171;valueObject&#187;</text><text fill="#000000" font-family="sans-serif" font-size="14" lengthAdjust="spacing" textLength="22.5518" x="1754.9204" y="1747.0684">NIF</text><line style="stroke:#181818;stroke-width:0.5;" x1="1654.5" x2="1845.3926" y1="1755.582" y2="1755.582"/><text fill="#000000" font-family="sans-serif" font-size="14" lengthAdjust="spacing" textLength="67.6895" x="1659.5" y="1774.6895">-nif : String</text><line style="stroke:#181818;stroke-width:0.5;" x1="1654.5" x2="1845.3926" y1="1782.2031" y2="1782.2031"/><text fill="#000000" font-family="sans-serif" font-size="14" lengthAdjust="spacing" textLength="103.0791" x="1659.5" y="1801.3105">+NIF(nif : String)</text><text fill="#000000" font-family="sans-serif" font-size="14" lengthAdjust="spacing" textLength="180.168" x="1659.5" y="1819.9316">+equals(o : Object) : boolean</text><text fill="#000000" font-family="sans-serif" font-size="14" lengthAdjust="spacing" textLength="107.7822" x="1659.5" y="1838.5527">+hashCode() : int</text><text fill="#000000" font-family="sans-serif" font-size="14" lengthAdjust="spacing" textLength="113.9893" x="1659.5" y="1857.1738">+toString() : String</text><text fill="#000000" font-family="sans-serif" font-size="14" lengthAdjust="spacing" textLength="180.8926" x="1659.5" y="1875.7949">+compareTo(other : NIF) : int</text></g><!--class Phone--><g id="elem_Phone"><rect codeLine="123" fill="#F1F1F1" height="172.3086" id="Phone" rx="2.5" ry="2.5" style="stroke:#181818;stroke-width:0.5;" width="210.8232" x="1137.5" y="1711"/><ellipse cx="1202.3032" cy="1733.291" fill="#ADD8E6" rx="11" ry="11" style="stroke:#181818;stroke-width:1.0;"/><path d="M1202.897,1736.5566 L1205.3657,1730.6816 L1204.9751,1730.6816 Q1204.3657,1730.6816 1204.1001,1730.4473 Q1203.8345,1730.2129 1203.8345,1729.8223 Q1203.8345,1729.4473 1204.1001,1729.2129 Q1204.3657,1728.9785 1204.9751,1728.9785 L1207.2563,1728.9785 Q1207.8657,1728.9785 1208.1313,1729.2129 Q1208.397,1729.4473 1208.397,1729.8223 Q1208.397,1730.291 1207.9907,1730.5566 Q1207.8032,1730.6816 1207.2095,1730.6816 L1203.7251,1739.041 L1202.0845,1739.041 L1198.6001,1730.6816 Q1198.0063,1730.6816 1197.8188,1730.5566 Q1197.4126,1730.291 1197.4126,1729.8223 Q1197.4126,1729.4473 1197.6782,1729.2129 Q1197.9438,1728.9785 1198.5532,1728.9785 L1200.8501,1728.9785 Q1201.4595,1728.9785 1201.7095,1729.2129 Q1201.9751,1729.4473 1201.9751,1729.8223 Q1201.9751,1730.2129 1201.7095,1730.4473 Q1201.4595,1730.6816 1200.8501,1730.6816 L1200.4438,1730.6816 L1202.897,1736.5566 Z " fill="#000000"/><text fill="#000000" font-family="sans-serif" font-size="12" font-style="italic" lengthAdjust="spacing" textLength="76.7168" x="1220.8032" y="1728.9492">&#171;valueObject&#187;</text><text fill="#000000" font-family="sans-serif" font-size="14" lengthAdjust="spacing" textLength="40.4824" x="1238.9204" y="1747.0684">Phone</text><line style="stroke:#181818;stroke-width:0.5;" x1="1138.5" x2="1347.3232" y1="1755.582" y2="1755.582"/><text fill="#000000" font-family="sans-serif" font-size="14" lengthAdjust="spacing" textLength="141.627" x="1143.5" y="1774.6895">-phoneNumber : String</text><line style="stroke:#181818;stroke-width:0.5;" x1="1138.5" x2="1347.3232" y1="1782.2031" y2="1782.2031"/><text fill="#000000" font-family="sans-serif" font-size="14" lengthAdjust="spacing" textLength="194.9473" x="1143.5" y="1801.3105">+Phone(phoneNumber : String)</text><text fill="#000000" font-family="sans-serif" font-size="14" lengthAdjust="spacing" textLength="180.168" x="1143.5" y="1819.9316">+equals(o : Object) : boolean</text><text fill="#000000" font-family="sans-serif" font-size="14" lengthAdjust="spacing" textLength="107.7822" x="1143.5" y="1838.5527">+hashCode() : int</text><text fill="#000000" font-family="sans-serif" font-size="14" lengthAdjust="spacing" textLength="113.9893" x="1143.5" y="1857.1738">+toString() : String</text><text fill="#000000" font-family="sans-serif" font-size="14" lengthAdjust="spacing" textLength="198.8232" x="1143.5" y="1875.7949">+compareTo(other : Phone) : int</text></g><!--class Representative--><g id="elem_Representative"><rect codeLine="132" fill="#F1F1F1" height="252.832" id="Representative" rx="2.5" ry="2.5" style="stroke:#181818;stroke-width:0.5;" width="453.6016" x="1401" y="1398"/><ellipse cx="1576.4683" cy="1414" fill="#ADD1B2" rx="11" ry="11" style="stroke:#181818;stroke-width:1.0;"/><path d="M1579.2339,1409.875 Q1579.3901,1409.6563 1579.5776,1409.5469 Q1579.7651,1409.4375 1579.9839,1409.4375 Q1580.3589,1409.4375 1580.5933,1409.7031 Q1580.8276,1409.9531 1580.8276,1410.5625 L1580.8276,1412.0156 Q1580.8276,1412.625 1580.5933,1412.8906 Q1580.3589,1413.1563 1579.9839,1413.1563 Q1579.6401,1413.1563 1579.437,1412.9531 Q1579.2339,1412.7656 1579.1245,1412.25 Q1579.0776,1411.8906 1578.8901,1411.7031 Q1578.562,1411.3281 1577.9526,1411.1094 Q1577.3433,1410.8906 1576.7183,1410.8906 Q1575.9526,1410.8906 1575.312,1411.2188 Q1574.687,1411.5469 1574.187,1412.2969 Q1573.7026,1413.0469 1573.7026,1414.0781 L1573.7026,1415.1719 Q1573.7026,1416.4063 1574.5933,1417.2344 Q1575.4839,1418.0469 1577.0776,1418.0469 Q1578.0151,1418.0469 1578.6714,1417.7969 Q1579.062,1417.6406 1579.4839,1417.2031 Q1579.7495,1416.9375 1579.8901,1416.8594 Q1580.0464,1416.7813 1580.2495,1416.7813 Q1580.5776,1416.7813 1580.8276,1417.0469 Q1581.0933,1417.2969 1581.0933,1417.6406 Q1581.0933,1417.9844 1580.7495,1418.3906 Q1580.2495,1418.9688 1579.4526,1419.2969 Q1578.3745,1419.75 1577.0776,1419.75 Q1575.562,1419.75 1574.3589,1419.125 Q1573.3745,1418.625 1572.687,1417.5625 Q1571.9995,1416.4844 1571.9995,1415.2031 L1571.9995,1414.0469 Q1571.9995,1412.7188 1572.6089,1411.5781 Q1573.2339,1410.4219 1574.3276,1409.8125 Q1575.4214,1409.1875 1576.6558,1409.1875 Q1577.3901,1409.1875 1578.0308,1409.3594 Q1578.687,1409.5156 1579.2339,1409.875 Z " fill="#000000"/><text fill="#000000" font-family="sans-serif" font-size="14" lengthAdjust="spacing" textLength="94.165" x="1596.9683" y="1419.7969">Representative</text><line style="stroke:#181818;stroke-width:0.5;" x1="1402" x2="1853.6016" y1="1430" y2="1430"/><text fill="#000000" font-family="sans-serif" font-size="14" lengthAdjust="spacing" textLength="53.6689" x="1407" y="1449.1074">-nif : NIF</text><text fill="#000000" font-family="sans-serif" font-size="14" lengthAdjust="spacing" textLength="87.9238" x="1407" y="1467.7285">-name : String</text><text fill="#000000" font-family="sans-serif" font-size="14" lengthAdjust="spacing" textLength="84.793" x="1407" y="1486.3496">-email : Email</text><text fill="#000000" font-family="sans-serif" font-size="14" lengthAdjust="spacing" textLength="95.7441" x="1407" y="1504.9707">-phone : Phone</text><text fill="#000000" font-family="sans-serif" font-size="14" lengthAdjust="spacing" textLength="101.1582" x="1407" y="1523.5918">-position : String</text><text fill="#000000" font-family="sans-serif" font-size="14" lengthAdjust="spacing" textLength="166.4619" x="1407" y="1542.2129">-systemUser : SystemUser</text><text fill="#000000" font-family="sans-serif" font-size="14" lengthAdjust="spacing" textLength="134.5859" x="1407" y="1560.834">-customer : Customer</text><line style="stroke:#181818;stroke-width:0.5;" x1="1402" x2="1853.6016" y1="1568.3477" y2="1568.3477"/><text fill="#000000" font-family="sans-serif" font-size="14" lengthAdjust="spacing" textLength="437.7119" x="1407" y="1587.4551">+Representative(nif : NIF, name : String, email : Email, phone : Phone,</text><text fill="#000000" font-family="sans-serif" font-size="14" lengthAdjust="spacing" textLength="270.7373" x="1422.5586" y="1606.0762">position : String, systemUser : SystemUser)</text><text fill="#000000" font-family="sans-serif" font-size="14" lengthAdjust="spacing" textLength="267.251" x="1407" y="1624.6973">+associateCustomer(customer : Customer)</text><text fill="#000000" font-family="sans-serif" font-size="14" lengthAdjust="spacing" textLength="342.0293" x="1407" y="1643.3184">+updateContact(newEmail : Email, newPhone : Phone)</text></g><!--class RepresentativeBuilder--><g id="elem_RepresentativeBuilder"><rect codeLine="145" fill="#F1F1F1" height="290.0742" id="RepresentativeBuilder" rx="2.5" ry="2.5" style="stroke:#181818;stroke-width:0.5;" width="441.8438" x="1793" y="1032.5"/><ellipse cx="1940.7998" cy="1048.5" fill="#ADD1B2" rx="11" ry="11" style="stroke:#181818;stroke-width:1.0;"/><path d="M1943.5654,1044.375 Q1943.7217,1044.1563 1943.9092,1044.0469 Q1944.0967,1043.9375 1944.3154,1043.9375 Q1944.6904,1043.9375 1944.9248,1044.2031 Q1945.1592,1044.4531 1945.1592,1045.0625 L1945.1592,1046.5156 Q1945.1592,1047.125 1944.9248,1047.3906 Q1944.6904,1047.6563 1944.3154,1047.6563 Q1943.9717,1047.6563 1943.7686,1047.4531 Q1943.5654,1047.2656 1943.4561,1046.75 Q1943.4092,1046.3906 1943.2217,1046.2031 Q1942.8936,1045.8281 1942.2842,1045.6094 Q1941.6748,1045.3906 1941.0498,1045.3906 Q1940.2842,1045.3906 1939.6436,1045.7188 Q1939.0186,1046.0469 1938.5186,1046.7969 Q1938.0342,1047.5469 1938.0342,1048.5781 L1938.0342,1049.6719 Q1938.0342,1050.9063 1938.9248,1051.7344 Q1939.8154,1052.5469 1941.4092,1052.5469 Q1942.3467,1052.5469 1943.0029,1052.2969 Q1943.3936,1052.1406 1943.8154,1051.7031 Q1944.0811,1051.4375 1944.2217,1051.3594 Q1944.3779,1051.2813 1944.5811,1051.2813 Q1944.9092,1051.2813 1945.1592,1051.5469 Q1945.4248,1051.7969 1945.4248,1052.1406 Q1945.4248,1052.4844 1945.0811,1052.8906 Q1944.5811,1053.4688 1943.7842,1053.7969 Q1942.7061,1054.25 1941.4092,1054.25 Q1939.8936,1054.25 1938.6904,1053.625 Q1937.7061,1053.125 1937.0186,1052.0625 Q1936.3311,1050.9844 1936.3311,1049.7031 L1936.3311,1048.5469 Q1936.3311,1047.2188 1936.9404,1046.0781 Q1937.5654,1044.9219 1938.6592,1044.3125 Q1939.7529,1043.6875 1940.9873,1043.6875 Q1941.7217,1043.6875 1942.3623,1043.8594 Q1943.0186,1044.0156 1943.5654,1044.375 Z " fill="#000000"/><text fill="#000000" font-family="sans-serif" font-size="14" lengthAdjust="spacing" textLength="137.7441" x="1961.2998" y="1054.2969">RepresentativeBuilder</text><line style="stroke:#181818;stroke-width:0.5;" x1="1794" x2="2233.8438" y1="1064.5" y2="1064.5"/><text fill="#000000" font-family="sans-serif" font-size="14" lengthAdjust="spacing" textLength="53.6689" x="1799" y="1083.6074">-nif : NIF</text><text fill="#000000" font-family="sans-serif" font-size="14" lengthAdjust="spacing" textLength="87.9238" x="1799" y="1102.2285">-name : String</text><text fill="#000000" font-family="sans-serif" font-size="14" lengthAdjust="spacing" textLength="84.793" x="1799" y="1120.8496">-email : Email</text><text fill="#000000" font-family="sans-serif" font-size="14" lengthAdjust="spacing" textLength="95.7441" x="1799" y="1139.4707">-phone : Phone</text><text fill="#000000" font-family="sans-serif" font-size="14" lengthAdjust="spacing" textLength="101.1582" x="1799" y="1158.0918">-position : String</text><text fill="#000000" font-family="sans-serif" font-size="14" lengthAdjust="spacing" textLength="166.4619" x="1799" y="1176.7129">-systemUser : SystemUser</text><line style="stroke:#181818;stroke-width:0.5;" x1="1794" x2="2233.8438" y1="1184.2266" y2="1184.2266"/><text fill="#000000" font-family="sans-serif" font-size="14" lengthAdjust="spacing" textLength="277.3887" x="1799" y="1203.334">+withNIF(nif : String) : RepresentativeBuilder</text><text fill="#000000" font-family="sans-serif" font-size="14" lengthAdjust="spacing" textLength="312.416" x="1799" y="1221.9551">+withName(name : String) : RepresentativeBuilder</text><text fill="#000000" font-family="sans-serif" font-size="14" lengthAdjust="spacing" textLength="308.5127" x="1799" y="1240.5762">+withEmail(email : String) : RepresentativeBuilder</text><text fill="#000000" font-family="sans-serif" font-size="14" lengthAdjust="spacing" textLength="319.4639" x="1799" y="1259.1973">+withPhone(phone : String) : RepresentativeBuilder</text><text fill="#000000" font-family="sans-serif" font-size="14" lengthAdjust="spacing" textLength="338.1123" x="1799" y="1277.8184">+withPosition(position : String) : RepresentativeBuilder</text><text fill="#000000" font-family="sans-serif" font-size="14" lengthAdjust="spacing" textLength="429.8438" x="1799" y="1296.4395">+withSystemUser(systemUser : SystemUser) : RepresentativeBuilder</text><text fill="#000000" font-family="sans-serif" font-size="14" lengthAdjust="spacing" textLength="152.9131" x="1799" y="1315.0605">+build() : Representative</text></g><!--class VAT--><g id="elem_VAT"><rect codeLine="161" fill="#F1F1F1" height="172.3086" id="VAT" rx="2.5" ry="2.5" style="stroke:#181818;stroke-width:0.5;" width="197.5684" x="859" y="1438.5"/><ellipse cx="917.1758" cy="1460.791" fill="#ADD8E6" rx="11" ry="11" style="stroke:#181818;stroke-width:1.0;"/><path d="M917.7695,1464.0566 L920.2383,1458.1816 L919.8477,1458.1816 Q919.2383,1458.1816 918.9727,1457.9473 Q918.707,1457.7129 918.707,1457.3223 Q918.707,1456.9473 918.9727,1456.7129 Q919.2383,1456.4785 919.8477,1456.4785 L922.1289,1456.4785 Q922.7383,1456.4785 923.0039,1456.7129 Q923.2695,1456.9473 923.2695,1457.3223 Q923.2695,1457.791 922.8633,1458.0566 Q922.6758,1458.1816 922.082,1458.1816 L918.5977,1466.541 L916.957,1466.541 L913.4727,1458.1816 Q912.8789,1458.1816 912.6914,1458.0566 Q912.2852,1457.791 912.2852,1457.3223 Q912.2852,1456.9473 912.5508,1456.7129 Q912.8164,1456.4785 913.4258,1456.4785 L915.7227,1456.4785 Q916.332,1456.4785 916.582,1456.7129 Q916.8477,1456.9473 916.8477,1457.3223 Q916.8477,1457.7129 916.582,1457.9473 Q916.332,1458.1816 915.7227,1458.1816 L915.3164,1458.1816 L917.7695,1464.0566 Z " fill="#000000"/><text fill="#000000" font-family="sans-serif" font-size="12" font-style="italic" lengthAdjust="spacing" textLength="76.7168" x="935.6758" y="1456.4492">&#171;valueObject&#187;</text><text fill="#000000" font-family="sans-serif" font-size="14" lengthAdjust="spacing" textLength="27.2275" x="960.4204" y="1474.5684">VAT</text><line style="stroke:#181818;stroke-width:0.5;" x1="860" x2="1055.5684" y1="1483.082" y2="1483.082"/><text fill="#000000" font-family="sans-serif" font-size="14" lengthAdjust="spacing" textLength="100.3721" x="865" y="1502.1895">-number : String</text><line style="stroke:#181818;stroke-width:0.5;" x1="860" x2="1055.5684" y1="1509.7031" y2="1509.7031"/><text fill="#000000" font-family="sans-serif" font-size="14" lengthAdjust="spacing" textLength="161.4375" x="865" y="1528.8105">+VAT(vatNumber : String)</text><text fill="#000000" font-family="sans-serif" font-size="14" lengthAdjust="spacing" textLength="180.168" x="865" y="1547.4316">+equals(o : Object) : boolean</text><text fill="#000000" font-family="sans-serif" font-size="14" lengthAdjust="spacing" textLength="107.7822" x="865" y="1566.0527">+hashCode() : int</text><text fill="#000000" font-family="sans-serif" font-size="14" lengthAdjust="spacing" textLength="113.9893" x="865" y="1584.6738">+toString() : String</text><text fill="#000000" font-family="sans-serif" font-size="14" lengthAdjust="spacing" textLength="185.5684" x="865" y="1603.2949">+compareTo(other : VAT) : int</text></g><!--class CustomerRepository--><g id="elem_CustomerRepository"><rect codeLine="170" fill="#F1F1F1" height="122.4844" id="CustomerRepository" rx="2.5" ry="2.5" style="stroke:#181818;stroke-width:0.5;" width="364.8711" x="1392.5" y="1116.5"/><ellipse cx="1506.8857" cy="1132.5" fill="#B4A7E5" rx="11" ry="11" style="stroke:#181818;stroke-width:1.0;"/><path d="M1507.8389,1129.1406 L1507.8389,1135.7969 L1509.5576,1135.7969 Q1510.167,1135.7969 1510.4326,1136.0313 Q1510.6982,1136.2656 1510.6982,1136.6563 Q1510.6982,1137.0313 1510.4326,1137.2656 Q1510.167,1137.5 1509.5576,1137.5 L1504.417,1137.5 Q1503.8076,1137.5 1503.542,1137.2656 Q1503.2764,1137.0313 1503.2764,1136.6406 Q1503.2764,1136.2656 1503.542,1136.0313 Q1503.8076,1135.7969 1504.417,1135.7969 L1506.1357,1135.7969 L1506.1357,1129.1406 L1504.417,1129.1406 Q1503.8076,1129.1406 1503.542,1128.9063 Q1503.2764,1128.6719 1503.2764,1128.2813 Q1503.2764,1127.9063 1503.542,1127.6719 Q1503.8076,1127.4375 1504.417,1127.4375 L1509.5576,1127.4375 Q1510.167,1127.4375 1510.4326,1127.6719 Q1510.6982,1127.9063 1510.6982,1128.2813 Q1510.6982,1128.6719 1510.4326,1128.9063 Q1510.167,1129.1406 1509.5576,1129.1406 L1507.8389,1129.1406 Z " fill="#000000"/><text fill="#000000" font-family="sans-serif" font-size="14" font-style="italic" lengthAdjust="spacing" textLength="127.5996" x="1527.3857" y="1138.2969">CustomerRepository</text><line style="stroke:#181818;stroke-width:0.5;" x1="1393.5" x2="1756.3711" y1="1148.5" y2="1148.5"/><line style="stroke:#181818;stroke-width:0.5;" x1="1393.5" x2="1756.3711" y1="1156.5" y2="1156.5"/><text fill="#000000" font-family="sans-serif" font-size="14" lengthAdjust="spacing" textLength="331.8506" x="1398.5" y="1175.6074">+findByVAT(vatNumber : VAT) : Optional&lt;Customer&gt;</text><text fill="#000000" font-family="sans-serif" font-size="14" lengthAdjust="spacing" textLength="341.1953" x="1398.5" y="1194.2285">+findByVAT(vatNumber : String) : Optional&lt;Customer&gt;</text><text fill="#000000" font-family="sans-serif" font-size="14" lengthAdjust="spacing" textLength="229.1543" x="1398.5" y="1212.8496">+findAllActive() : Iterable&lt;Customer&gt;</text><text fill="#000000" font-family="sans-serif" font-size="14" lengthAdjust="spacing" textLength="352.8711" x="1398.5" y="1231.4707">+findByType(type : CustomerType) : Iterable&lt;Customer&gt;</text></g><!--link RegCustomerUI to RegCustomerController--><g id="link_RegCustomerUI_RegCustomerController"><path codeLine="177" d="M1229.27,294.08 C1249.97,313.28 1267.9508,329.96 1289.4508,349.9 " fill="none" id="RegCustomerUI-to-RegCustomerController" style="stroke:#181818;stroke-width:1.0;stroke-dasharray:7.0,7.0;"/><polygon fill="#181818" points="1293.85,353.98,1289.9712,344.9271,1290.184,350.58,1284.5311,350.7928,1293.85,353.98" style="stroke:#181818;stroke-width:1.0;"/></g><!--link RegCustomerUI to Utils--><g id="link_RegCustomerUI_Utils"><path codeLine="178" d="M1058.73,294.08 C1012.84,336.65 963.1093,382.7701 928.5393,414.8301 " fill="none" id="RegCustomerUI-to-Utils" style="stroke:#181818;stroke-width:1.0;stroke-dasharray:7.0,7.0;"/><polygon fill="#181818" points="924.14,418.91,933.459,415.723,927.8061,415.5101,928.0191,409.8572,924.14,418.91" style="stroke:#181818;stroke-width:1.0;"/></g><!--link RegCustomerAction to RegCustomerUI--><g id="link_RegCustomerAction_RegCustomerUI"><path codeLine="179" d="M1144,74.16 C1144,91.17 1144,106.77 1144,127.84 " fill="none" id="RegCustomerAction-to-RegCustomerUI" style="stroke:#181818;stroke-width:1.0;stroke-dasharray:7.0,7.0;"/><polygon fill="#181818" points="1144,133.84,1148,124.84,1144,128.84,1140,124.84,1144,133.84" style="stroke:#181818;stroke-width:1.0;"/></g><!--link RegCustomerController to CustomerService--><g id="link_RegCustomerController_CustomerService"><path codeLine="181" d="M1399,551.02 C1399,590.31 1399,629.74 1399,669.94 " fill="none" id="RegCustomerController-to-CustomerService" style="stroke:#181818;stroke-width:1.0;"/><polygon fill="#181818" points="1399,675.94,1403,666.94,1399,670.94,1395,666.94,1399,675.94" style="stroke:#181818;stroke-width:1.0;"/></g><!--link RegCustomerController to CustomerBuilder--><g id="link_RegCustomerController_CustomerBuilder"><path codeLine="182" d="M1178.2,551.02 C1085.08,592.16 982.1686,637.6161 888.1086,679.1561 " fill="none" id="RegCustomerController-to-CustomerBuilder" style="stroke:#181818;stroke-width:1.0;stroke-dasharray:7.0,7.0;"/><polygon fill="#181818" points="882.62,681.58,892.4688,681.6031,887.1938,679.5601,889.2369,674.285,882.62,681.58" style="stroke:#181818;stroke-width:1.0;"/></g><!--link RegCustomerController to RepresentativeBuilder--><g id="link_RegCustomerController_RepresentativeBuilder"><path codeLine="183" d="M1598.97,551.01 C1665.04,583.23 1722,611 1722,611 C1722,611 1850.2973,859.4587 1936.8073,1027.0087 " fill="none" id="RegCustomerController-to-RepresentativeBuilder" style="stroke:#181818;stroke-width:1.0;stroke-dasharray:7.0,7.0;"/><polygon fill="#181818" points="1939.56,1032.34,1938.9852,1022.5079,1937.2661,1027.8972,1931.8768,1026.1782,1939.56,1032.34" style="stroke:#181818;stroke-width:1.0;"/></g><!--link CustomerService to CustomerRepository--><g id="link_CustomerService_CustomerRepository"><path codeLine="185" d="M1447.21,892.24 C1479.62,964.34 1518.6996,1051.2677 1545.4696,1110.8077 " fill="none" id="CustomerService-to-CustomerRepository" style="stroke:#181818;stroke-width:1.0;"/><polygon fill="#181818" points="1547.93,1116.28,1547.8876,1106.4312,1545.8796,1111.7197,1540.5911,1109.7118,1547.93,1116.28" style="stroke:#181818;stroke-width:1.0;"/></g><!--link CustomerService to Customer--><g id="link_CustomerService_Customer"><path codeLine="186" d="M1293.54,892.24 C1255.7,930.72 1216.3668,970.7118 1175.0968,1012.6818 " fill="none" id="CustomerService-to-Customer" style="stroke:#181818;stroke-width:1.0;stroke-dasharray:7.0,7.0;"/><polygon fill="#181818" points="1170.89,1016.96,1180.0523,1013.3473,1174.3957,1013.3949,1174.3481,1007.7382,1170.89,1016.96" style="stroke:#181818;stroke-width:1.0;"/></g><!--link Customer to VAT--><g id="link_Customer_VAT"><path codeLine="188" d="M988.09,1338.12 C982.48,1372.7 977.7117,1402.0476 972.7817,1432.4076 " fill="none" id="Customer-to-VAT" style="stroke:#181818;stroke-width:1.0;"/><polygon fill="#181818" points="971.82,1438.33,977.2108,1430.0875,972.6214,1433.3946,969.3143,1428.8052,971.82,1438.33" style="stroke:#181818;stroke-width:1.0;"/><text fill="#000000" font-family="sans-serif" font-size="13" lengthAdjust="spacing" textLength="7.23" x="965.7353" y="1427.2219">1</text></g><!--link Customer to Address--><g id="link_Customer_Address"><path codeLine="189" d="M742.2,1313.62 C677.8,1345.63 615.1429,1376.7795 552.9329,1407.6995 " fill="none" id="Customer-to-Address" style="stroke:#181818;stroke-width:1.0;"/><polygon fill="#181818" points="547.56,1410.37,557.3997,1409.9462,552.0374,1408.1446,553.8391,1402.7823,547.56,1410.37" style="stroke:#181818;stroke-width:1.0;"/><text fill="#000000" font-family="sans-serif" font-size="13" lengthAdjust="spacing" textLength="7.23" x="555.6247" y="1399.1631">1</text></g><!--link Customer to Email--><g id="link_Customer_Email"><path codeLine="190" d="M1230.57,1338.02 C1276.79,1372.06 1312,1398 1312,1398 C1312,1398 1383,1651 1383,1651 C1383,1651 1403.0888,1674.6744 1429.8588,1706.2344 " fill="none" id="Customer-to-Email" style="stroke:#181818;stroke-width:1.0;"/><polygon fill="#181818" points="1433.74,1710.81,1430.9687,1701.3591,1430.5057,1706.997,1424.8678,1706.534,1433.74,1710.81" style="stroke:#181818;stroke-width:1.0;"/><text fill="#000000" font-family="sans-serif" font-size="13" lengthAdjust="spacing" textLength="7.23" x="1420.2243" y="1699.7001">1</text></g><!--link Customer to Phone--><g id="link_Customer_Phone"><path codeLine="191" d="M1058.26,1338.14 C1096.28,1475.26 1145,1651 1145,1651 C1145,1651 1160.7292,1674.2796 1182.0692,1705.8396 " fill="none" id="Customer-to-Phone" style="stroke:#181818;stroke-width:1.0;"/><polygon fill="#181818" points="1185.43,1710.81,1183.7023,1701.1139,1182.6293,1706.668,1177.0751,1705.595,1185.43,1710.81" style="stroke:#181818;stroke-width:1.0;"/><text fill="#000000" font-family="sans-serif" font-size="13" lengthAdjust="spacing" textLength="7.23" x="1173.1993" y="1699.7001">1</text></g><!--link Customer to CustomerType--><g id="link_Customer_CustomerType"><path codeLine="192" d="M871.96,1338.12 C828.79,1386.64 788.388,1432.0272 756.548,1467.8172 " fill="none" id="Customer-to-CustomerType" style="stroke:#181818;stroke-width:1.0;"/><polygon fill="#181818" points="752.56,1472.3,761.5306,1468.2345,755.8834,1468.5643,755.5535,1462.9171,752.56,1472.3" style="stroke:#181818;stroke-width:1.0;"/><text fill="#000000" font-family="sans-serif" font-size="13" lengthAdjust="spacing" textLength="7.23" x="751.2544" y="1461.2005">1</text></g><!--link Customer to CustomerStatus--><g id="link_Customer_CustomerStatus"><path codeLine="193" d="M1113.48,1338.12 C1143.71,1386.64 1171.617,1431.4176 1193.917,1467.2076 " fill="none" id="Customer-to-CustomerStatus" style="stroke:#181818;stroke-width:1.0;"/><polygon fill="#181818" points="1197.09,1472.3,1195.7255,1462.5461,1194.4459,1468.0563,1188.9356,1466.7767,1197.09,1472.3" style="stroke:#181818;stroke-width:1.0;"/><text fill="#000000" font-family="sans-serif" font-size="13" lengthAdjust="spacing" textLength="7.23" x="1185.3222" y="1461.2005">1</text></g><!--link Customer to Representative--><g id="link_Customer_Representative"><path codeLine="194" d="M1285.37,1338.12 C1323.88,1359.82 1357.8947,1378.8769 1395.4547,1399.7369 " fill="none" id="Customer-to-Representative" style="stroke:#181818;stroke-width:1.0;"/><polygon fill="#181818" points="1400.7,1402.65,1394.7741,1394.7834,1396.3289,1400.2224,1390.8899,1401.7772,1400.7,1402.65" style="stroke:#181818;stroke-width:1.0;"/><text fill="#000000" font-family="sans-serif" font-size="13" lengthAdjust="spacing" textLength="5.0591" x="1388.1672" y="1395.4087">*</text></g><!--link Representative to Customer--><g id="link_Representative_Customer"><path codeLine="199" d="M1417.44,1397.86 C1374.95,1373.72 1334.979,1351.1745 1290.749,1326.4845 " fill="none" id="Representative-to-Customer" style="stroke:#181818;stroke-width:1.0;"/><polygon fill="#181818" points="1285.51,1323.56,1291.4188,1331.4394,1289.8758,1325.9971,1295.3182,1324.4541,1285.51,1323.56" style="stroke:#181818;stroke-width:1.0;"/><text fill="#000000" font-family="sans-serif" font-size="13" lengthAdjust="spacing" textLength="7.23" x="1293.671" y="1324.6723">1</text></g><!--link Representative to NIF--><g id="link_Representative_NIF"><path codeLine="196" d="M1684.71,1651.25 C1693.8,1671.39 1700.5429,1686.3507 1709.0729,1705.2607 " fill="none" id="Representative-to-NIF" style="stroke:#181818;stroke-width:1.0;"/><polygon fill="#181818" points="1711.54,1710.73,1711.4855,1700.8813,1709.4841,1706.1722,1704.1931,1704.1708,1711.54,1710.73" style="stroke:#181818;stroke-width:1.0;"/><text fill="#000000" font-family="sans-serif" font-size="13" lengthAdjust="spacing" textLength="7.23" x="1700.9486" y="1699.6133">1</text></g><!--link Representative to Email--><g id="link_Representative_Email"><path codeLine="197" d="M1571.29,1651.25 C1562.2,1671.39 1555.4571,1686.3507 1546.9271,1705.2607 " fill="none" id="Representative-to-Email" style="stroke:#181818;stroke-width:1.0;"/><polygon fill="#181818" points="1544.46,1710.73,1551.8069,1704.1708,1546.5159,1706.1722,1544.5145,1700.8813,1544.46,1710.73" style="stroke:#181818;stroke-width:1.0;"/><text fill="#000000" font-family="sans-serif" font-size="13" lengthAdjust="spacing" textLength="7.23" x="1540.4593" y="1699.6133">1</text></g><!--link Representative to Phone--><g id="link_Representative_Phone"><path codeLine="198" d="M1449.31,1651.05 C1414.82,1675.28 1384.639,1696.4802 1353.419,1718.4202 " fill="none" id="Representative-to-Phone" style="stroke:#181818;stroke-width:1.0;"/><polygon fill="#181818" points="1348.51,1721.87,1358.1734,1719.9679,1352.6009,1718.9951,1353.5736,1713.4225,1348.51,1721.87" style="stroke:#181818;stroke-width:1.0;"/><text fill="#000000" font-family="sans-serif" font-size="13" lengthAdjust="spacing" textLength="7.23" x="1356.1891" y="1713.0175">1</text></g><!--link CustomerBuilder to Customer--><g id="link_CustomerBuilder_Customer"><path codeLine="201" d="M811.6,957 C829.97,976.92 844.5617,992.7499 862.7717,1012.4899 " fill="none" id="CustomerBuilder-to-Customer" style="stroke:#181818;stroke-width:1.0;stroke-dasharray:7.0,7.0;"/><polygon fill="#181818" points="866.84,1016.9,863.6776,1007.5726,863.4498,1013.2249,857.7975,1012.997,866.84,1016.9" style="stroke:#181818;stroke-width:1.0;"/></g><!--link CustomerBuilder to VAT--><g id="link_CustomerBuilder_VAT"><path codeLine="202" d="M675.44,957.32 C696.57,1119.62 725,1338 725,1338 C725,1338 841,1398 841,1398 C841,1398 853.709,1411.6309 874.569,1434.0109 " fill="none" id="CustomerBuilder-to-VAT" style="stroke:#181818;stroke-width:1.0;stroke-dasharray:7.0,7.0;"/><polygon fill="#181818" points="878.66,1438.4,875.4496,1429.0891,875.2509,1434.7424,869.5975,1434.5437,878.66,1438.4" style="stroke:#181818;stroke-width:1.0;"/></g><!--link CustomerBuilder to Address--><g id="link_CustomerBuilder_Address"><path codeLine="203" d="M575.35,957.21 C512.41,1096.8 427.9763,1284.0403 373.5263,1404.8003 " fill="none" id="CustomerBuilder-to-Address" style="stroke:#181818;stroke-width:1.0;stroke-dasharray:7.0,7.0;"/><polygon fill="#181818" points="371.06,1410.27,378.4058,1403.7096,373.1152,1405.7119,371.1129,1400.4213,371.06,1410.27" style="stroke:#181818;stroke-width:1.0;"/></g><!--link CustomerBuilder to Email--><g id="link_CustomerBuilder_Email"><path codeLine="204" d="M466.64,957.25 C429.67,991.42 402,1017 402,1017 C402,1017 67,1398 67,1398 C67,1398 67,1651 67,1651 C67,1651 1366,1711 1366,1711 C1366,1711 1376.852,1717.5849 1398.022,1730.4449 " fill="none" id="CustomerBuilder-to-Email" style="stroke:#181818;stroke-width:1.0;stroke-dasharray:7.0,7.0;"/><polygon fill="#181818" points="1403.15,1733.56,1397.5347,1725.4687,1398.8767,1730.9641,1393.3813,1732.3061,1403.15,1733.56" style="stroke:#181818;stroke-width:1.0;"/></g><!--link CustomerBuilder to Phone--><g id="link_CustomerBuilder_Phone"><path codeLine="205" d="M423.07,867.45 C237.1,934.13 6,1017 6,1017 C6,1017 6,1651 6,1651 C6,1651 831.9408,1747.8113 1131.3108,1782.9113 " fill="none" id="CustomerBuilder-to-Phone" style="stroke:#181818;stroke-width:1.0;stroke-dasharray:7.0,7.0;"/><polygon fill="#181818" points="1137.27,1783.61,1128.797,1778.5892,1132.304,1783.0278,1127.8654,1786.5347,1137.27,1783.61" style="stroke:#181818;stroke-width:1.0;"/></g><!--link CustomerBuilder to CustomerType--><g id="link_CustomerBuilder_CustomerType"><path codeLine="206" d="M656.12,957.32 C659.05,1119.62 663,1338 663,1338 C663,1338 680.4557,1411.5719 693.4757,1466.4819 " fill="none" id="CustomerBuilder-to-CustomerType" style="stroke:#181818;stroke-width:1.0;stroke-dasharray:7.0,7.0;"/><polygon fill="#181818" points="694.86,1472.32,696.6756,1462.6399,693.7064,1467.4549,688.8915,1464.4857,694.86,1472.32" style="stroke:#181818;stroke-width:1.0;"/></g><!--link CustomerBuilder to Representative--><g id="link_CustomerBuilder_Representative"><path codeLine="207" d="M882.52,878.55 C981.5,918.89 1075,957 1075,957 C1075,957 1303,1017 1303,1017 C1303,1017 1375,1338 1375,1338 C1375,1338 1406.6713,1361.2222 1451.9513,1394.4222 " fill="none" id="CustomerBuilder-to-Representative" style="stroke:#181818;stroke-width:1.0;stroke-dasharray:7.0,7.0;"/><polygon fill="#181818" points="1456.79,1397.97,1451.8972,1389.4225,1452.7577,1395.0135,1447.1667,1395.8741,1456.79,1397.97" style="stroke:#181818;stroke-width:1.0;"/></g><!--link RepresentativeBuilder to Representative--><g id="link_RepresentativeBuilder_Representative"><path codeLine="209" d="M1852.82,1322.56 C1824.81,1347.6 1800.3435,1369.4616 1772.9435,1393.9516 " fill="none" id="RepresentativeBuilder-to-Representative" style="stroke:#181818;stroke-width:1.0;stroke-dasharray:7.0,7.0;"/><polygon fill="#181818" points="1768.47,1397.95,1777.8459,1394.9347,1772.1979,1394.618,1772.5147,1388.97,1768.47,1397.95" style="stroke:#181818;stroke-width:1.0;"/></g><!--link RepresentativeBuilder to NIF--><g id="link_RepresentativeBuilder_NIF"><path codeLine="210" d="M2011.26,1322.51 C2008.61,1461.49 2005,1651 2005,1651 C2005,1651 1924.1261,1696.9948 1851.9861,1738.0048 " fill="none" id="RepresentativeBuilder-to-NIF" style="stroke:#181818;stroke-width:1.0;stroke-dasharray:7.0,7.0;"/><polygon fill="#181818" points="1846.77,1740.97,1856.5709,1739.9995,1851.1167,1738.499,1852.6173,1733.0448,1846.77,1740.97" style="stroke:#181818;stroke-width:1.0;"/></g><!--link RepresentativeBuilder to Email--><g id="link_RepresentativeBuilder_Email"><path codeLine="211" d="M1989.62,1322.51 C1966.09,1461.49 1934,1651 1934,1651 C1934,1651 1636,1711 1636,1711 C1636,1711 1629.7107,1715.1048 1613.7707,1725.5348 " fill="none" id="RepresentativeBuilder-to-Email" style="stroke:#181818;stroke-width:1.0;stroke-dasharray:7.0,7.0;"/><polygon fill="#181818" points="1608.75,1728.82,1618.4712,1727.2393,1612.9339,1726.0823,1614.0909,1720.5451,1608.75,1728.82" style="stroke:#181818;stroke-width:1.0;"/></g><!--link RepresentativeBuilder to Phone--><g id="link_RepresentativeBuilder_Phone"><path codeLine="212" d="M1958.79,1322.77 C1943.01,1364 1930,1398 1930,1398 C1930,1398 1872,1651 1872,1651 C1872,1651 1386,1711 1386,1711 C1386,1711 1375.2078,1717.4145 1353.9578,1730.0445 " fill="none" id="RepresentativeBuilder-to-Phone" style="stroke:#181818;stroke-width:1.0;stroke-dasharray:7.0,7.0;"/><polygon fill="#181818" points="1348.8,1733.11,1358.5803,1731.9502,1353.0981,1730.5554,1354.493,1725.0732,1348.8,1733.11" style="stroke:#181818;stroke-width:1.0;"/></g><!--SRC=[tLXRRzis57xthn2oXyghKcmlGr441jp4BGmaRc0xsSjUQEd4vYgBdaWvSuh-znrIbCIB96lOa07pYooU2y_rEwJUyAyqEv2Sx8CzorYyozaU0f4NC6ee1n9_9LjOYLCAGGwn8DasDHduZYJicMRRu8catAIaD0DnEa1mOEb9lepUj11PBjZ8a8fJmlbKY9nk2W7pc6Kh-WB1JwEHeWGFWgOy-3OAyFSs-CO54JJ-7iGiJT6w9Hnou939rIFS4472SV0Xy9T7tok5IzXU5roWx_d3N2k-3CGEhbacSgasLnfghcPT6v6mrOuzguqsZAL0Cgs4WxIfabkZkuh9NAWuKO6vpCDI5XBrXa8h45ScnyJVRbFGD35vxY0hXYcIdDgR7P14PaUPki8yPDlMO4rZGLbMPmB-X1WJPaMXJSo8QXNhM9DMa1zf34Q4z8hcAxWb_Y6O9ia3Rqb8wtRXk9TwreXemFxL5ZbiAHT8qIf-fM9tLwI27bAmQv67Ho8MnNwZ59RXZeACxC5u_IsJQacIe20lzvN_eW3sXAO6us77CbDGTPXTS9Mst3P3zWHotgBPLtwtJCoorJvkGTWLAtdcw3JPf61NM5C8Japh4Y25sBr8p_39Slf2P6tPsKU3cM456iau5Im_QNiSrNMwtVMy5cpL5YbRN1iwJAlsUA9PtNWVJu_JjSmgok0_6PKl1ob3qZegapuvfnhEAfYcgUp58rJ4ZbHCEegpBdqZ7lzMldMb1bTNuMCK_32zkNa_-sKS74bQm9VDxmXCaqbT15pa0A917OqEL9pSDKoM8EarIy3ZPWKseoFmjh8ZTBQ8RErHc-B8qrbb7VueSEI5iYfBNrn8HZ0bV2UrgM3HJEXbmKfD9iQMb9ZjSGx2ceKCHr3UD7kbm6ibZErqkyMa4W5Bnio0raMetorOgJhFHHMzNa7BJ3whi6jukPTF1xpNFjIuy8vuKd0JMDL2qzuc7hLZqSJfwQRDFCpiGKlbKeM3bazHdplHEKyweBN3bQgAq52R4jhotl6b6JBs81dtnumck8BLhlXaJNYLz56U7uov_ByjdsSSnmr8Dp3h1CBWNg3heUL_Ft-5Drvu-iLKj49xglTBg5Y6zjplbx2EeptXxzVoDqksKvSwirgdObcNU1hTEtdMLNczd4tNinlrVxxuj9mlFi_kPekoH6zcjpD9T3KexqhvvUppm-rqgVu_pk_TQmJXicm6ZJQLgs63pKwethCrrwywMPG5tbnPp3yDyogZJ-uUA1kQow_h3-xkUQFwOvW_gecSmvVUo-WoztJsgXugEpmVxLvpyeD1wO7leJ2jJiVokkV8ynEU9FVo4YGfzOi3tVvXqe6FsbHlZ3ipsvdMUeIxnaLTTjKpbtCMKpmmzPw1DNDnI2GdNl98BC8CdcUsJRXoRverxigCEr__wmJfqURsh8VUGyVXEQckwNPEhcl6dPNJCGczu0oHRe8LTbNJ6ItDRBEvclh0GyX0h6s5fOuBuwj2ahxYQa321-HF12_C_isw_bGaBwt-RNV8NVcVtv7xhyRb7kfa9DfFH2sYwBRz3V7Tkqd7zqAVJttE7FcVrHmT3tDh4-ChrENbnFjSriufLRg7i6xEzi8UkHzmpEsDJp8kcxbteqH9N_nyeUuOtc9reV089HPwooKSUilMbQAJgYyJDlt72xTpHywihTH84EyWbTPs44kREuX-mAe9OeMpZMW6r5ntOshIxB2Q53koRKPOmJKP-kFNmzdDwCVQzwARNlho5m00]--></g></svg>