<svg xmlns="http://www.w3.org/2000/svg" xmlns:xlink="http://www.w3.org/1999/xlink" contentStyleType="text/css" height="807px" preserveAspectRatio="none" style="width:1583px;height:807px;background:#FFFFFF;" version="1.1" viewBox="0 0 1583 807" width="1583px" zoomAndPan="magnify"><defs/><g><rect fill="#FFFFFF" height="589.5781" style="stroke:#181818;stroke-width:1.0;" width="10" x="226.8677" y="116.9121"/><rect fill="#FFFFFF" height="482.7051" style="stroke:#181818;stroke-width:1.0;" width="10" x="482.7583" y="148.2031"/><rect fill="#FFFFFF" height="420.123" style="stroke:#181818;stroke-width:1.0;" width="10" x="738.6489" y="179.4941"/><rect fill="#FFFFFF" height="42.291" style="stroke:#181818;stroke-width:1.0;" width="10" x="743.6489" y="281.3672"/><rect fill="#FFFFFF" height="206.377" style="stroke:#181818;stroke-width:1.0;" width="10" x="1013.9805" y="361.9492"/><rect fill="#FFFFFF" height="31.291" style="stroke:#181818;stroke-width:1.0;" width="10" x="1155.8662" y="419.5313"/><rect fill="#FFFFFF" height="31.291" style="stroke:#181818;stroke-width:1.0;" width="10" x="1328.8691" y="498.7441"/><rect fill="#FFFFFF" height="31.291" style="stroke:#181818;stroke-width:1.0;" width="10" x="1501.4858" y="210.7852"/><rect fill="none" height="161.0859" style="stroke:#000000;stroke-width:1.5;" width="486.6055" x="948.6807" y="376.9492"/><line style="stroke:#181818;stroke-width:0.5;stroke-dasharray:5.0,5.0;" x1="55" x2="55" y1="83.6211" y2="724.4902"/><line style="stroke:#181818;stroke-width:0.5;stroke-dasharray:5.0,5.0;" x1="231.4888" x2="231.4888" y1="83.6211" y2="724.4902"/><line style="stroke:#181818;stroke-width:0.5;stroke-dasharray:5.0,5.0;" x1="487.5723" x2="487.5723" y1="83.6211" y2="724.4902"/><line style="stroke:#181818;stroke-width:0.5;stroke-dasharray:5.0,5.0;" x1="743.4663" x2="743.4663" y1="83.6211" y2="724.4902"/><line style="stroke:#181818;stroke-width:0.5;stroke-dasharray:5.0,5.0;" x1="1018.6807" x2="1018.6807" y1="83.6211" y2="724.4902"/><line style="stroke:#181818;stroke-width:0.5;stroke-dasharray:5.0,5.0;" x1="1160.2803" x2="1160.2803" y1="83.6211" y2="724.4902"/><line style="stroke:#181818;stroke-width:0.5;stroke-dasharray:5.0,5.0;" x1="1333.4521" x2="1333.4521" y1="83.6211" y2="724.4902"/><line style="stroke:#181818;stroke-width:0.5;stroke-dasharray:5.0,5.0;" x1="1506.2861" x2="1506.2861" y1="83.6211" y2="724.4902"/><text fill="#000000" font-family="sans-serif" font-size="14" lengthAdjust="spacing" textLength="94.9375" x="5" y="80.1074">Show Designer</text><ellipse cx="55.4688" cy="13.5" fill="#E2E2F0" rx="8" ry="8" style="stroke:#181818;stroke-width:0.5;"/><path d="M55.4688,21.5 L55.4688,48.5 M42.4688,29.5 L68.4688,29.5 M55.4688,48.5 L42.4688,63.5 M55.4688,48.5 L68.4688,63.5 " fill="none" style="stroke:#181818;stroke-width:0.5;"/><text fill="#000000" font-family="sans-serif" font-size="14" lengthAdjust="spacing" textLength="94.9375" x="5" y="738.5977">Show Designer</text><ellipse cx="55.4688" cy="750.6113" fill="#E2E2F0" rx="8" ry="8" style="stroke:#181818;stroke-width:0.5;"/><path d="M55.4688,758.6113 L55.4688,785.6113 M42.4688,766.6113 L68.4688,766.6113 M55.4688,785.6113 L42.4688,800.6113 M55.4688,785.6113 L68.4688,800.6113 " fill="none" style="stroke:#181818;stroke-width:0.5;"/><rect fill="#E2E2F0" height="32.6211" rx="2.5" ry="2.5" style="stroke:#181818;stroke-width:0.5;" width="172.7578" x="145.4888" y="50"/><text fill="#000000" font-family="sans-serif" font-size="14" lengthAdjust="spacing" textLength="158.7578" x="152.4888" y="72.1074">AddFigureToCatalogueUI</text><rect fill="#E2E2F0" height="32.6211" rx="2.5" ry="2.5" style="stroke:#181818;stroke-width:0.5;" width="172.7578" x="145.4888" y="723.4902"/><text fill="#000000" font-family="sans-serif" font-size="14" lengthAdjust="spacing" textLength="158.7578" x="152.4888" y="745.5977">AddFigureToCatalogueUI</text><rect fill="#E2E2F0" height="32.6211" rx="2.5" ry="2.5" style="stroke:#181818;stroke-width:0.5;" width="114.3721" x="430.5723" y="50"/><text fill="#000000" font-family="sans-serif" font-size="14" lengthAdjust="spacing" textLength="100.3721" x="437.5723" y="72.1074">FigureController</text><rect fill="#E2E2F0" height="32.6211" rx="2.5" ry="2.5" style="stroke:#181818;stroke-width:0.5;" width="114.3721" x="430.5723" y="723.4902"/><text fill="#000000" font-family="sans-serif" font-size="14" lengthAdjust="spacing" textLength="100.3721" x="437.5723" y="745.5977">FigureController</text><rect fill="#E2E2F0" height="32.6211" rx="2.5" ry="2.5" style="stroke:#181818;stroke-width:0.5;" width="100.3652" x="693.4663" y="50"/><text fill="#000000" font-family="sans-serif" font-size="14" lengthAdjust="spacing" textLength="86.3652" x="700.4663" y="72.1074">FigureService</text><rect fill="#E2E2F0" height="32.6211" rx="2.5" ry="2.5" style="stroke:#181818;stroke-width:0.5;" width="100.3652" x="693.4663" y="723.4902"/><text fill="#000000" font-family="sans-serif" font-size="14" lengthAdjust="spacing" textLength="86.3652" x="700.4663" y="745.5977">FigureService</text><rect fill="#E2E2F0" height="32.6211" rx="2.5" ry="2.5" style="stroke:#181818;stroke-width:0.5;" width="120.5996" x="958.6807" y="50"/><text fill="#000000" font-family="sans-serif" font-size="14" lengthAdjust="spacing" textLength="106.5996" x="965.6807" y="72.1074">FigureRepository</text><rect fill="#E2E2F0" height="32.6211" rx="2.5" ry="2.5" style="stroke:#181818;stroke-width:0.5;" width="120.5996" x="958.6807" y="723.4902"/><text fill="#000000" font-family="sans-serif" font-size="14" lengthAdjust="spacing" textLength="106.5996" x="965.6807" y="745.5977">FigureRepository</text><rect fill="#E2E2F0" height="32.6211" rx="2.5" ry="2.5" style="stroke:#181818;stroke-width:0.5;" width="143.1719" x="1089.2803" y="50"/><text fill="#000000" font-family="sans-serif" font-size="14" lengthAdjust="spacing" textLength="129.1719" x="1096.2803" y="72.1074">JpaFigureRepository</text><rect fill="#E2E2F0" height="32.6211" rx="2.5" ry="2.5" style="stroke:#181818;stroke-width:0.5;" width="143.1719" x="1089.2803" y="723.4902"/><text fill="#000000" font-family="sans-serif" font-size="14" lengthAdjust="spacing" textLength="129.1719" x="1096.2803" y="745.5977">JpaFigureRepository</text><rect fill="#E2E2F0" height="32.6211" rx="2.5" ry="2.5" style="stroke:#181818;stroke-width:0.5;" width="182.834" x="1242.4521" y="50"/><text fill="#000000" font-family="sans-serif" font-size="14" lengthAdjust="spacing" textLength="168.834" x="1249.4521" y="72.1074">InMemoryFigureRepository</text><rect fill="#E2E2F0" height="32.6211" rx="2.5" ry="2.5" style="stroke:#181818;stroke-width:0.5;" width="182.834" x="1242.4521" y="723.4902"/><text fill="#000000" font-family="sans-serif" font-size="14" lengthAdjust="spacing" textLength="168.834" x="1249.4521" y="745.5977">InMemoryFigureRepository</text><rect fill="#E2E2F0" height="32.6211" rx="2.5" ry="2.5" style="stroke:#181818;stroke-width:0.5;" width="142.3994" x="1435.2861" y="50"/><text fill="#000000" font-family="sans-serif" font-size="14" lengthAdjust="spacing" textLength="128.3994" x="1442.2861" y="72.1074">AuthorizationService</text><rect fill="#E2E2F0" height="32.6211" rx="2.5" ry="2.5" style="stroke:#181818;stroke-width:0.5;" width="142.3994" x="1435.2861" y="723.4902"/><text fill="#000000" font-family="sans-serif" font-size="14" lengthAdjust="spacing" textLength="128.3994" x="1442.2861" y="745.5977">AuthorizationService</text><rect fill="#FFFFFF" height="589.5781" style="stroke:#181818;stroke-width:1.0;" width="10" x="226.8677" y="116.9121"/><rect fill="#FFFFFF" height="482.7051" style="stroke:#181818;stroke-width:1.0;" width="10" x="482.7583" y="148.2031"/><rect fill="#FFFFFF" height="420.123" style="stroke:#181818;stroke-width:1.0;" width="10" x="738.6489" y="179.4941"/><rect fill="#FFFFFF" height="42.291" style="stroke:#181818;stroke-width:1.0;" width="10" x="743.6489" y="281.3672"/><rect fill="#FFFFFF" height="206.377" style="stroke:#181818;stroke-width:1.0;" width="10" x="1013.9805" y="361.9492"/><rect fill="#FFFFFF" height="31.291" style="stroke:#181818;stroke-width:1.0;" width="10" x="1155.8662" y="419.5313"/><rect fill="#FFFFFF" height="31.291" style="stroke:#181818;stroke-width:1.0;" width="10" x="1328.8691" y="498.7441"/><rect fill="#FFFFFF" height="31.291" style="stroke:#181818;stroke-width:1.0;" width="10" x="1501.4858" y="210.7852"/><polygon fill="#181818" points="214.8677,112.9121,224.8677,116.9121,214.8677,120.9121,218.8677,116.9121" style="stroke:#181818;stroke-width:1.0;"/><line style="stroke:#181818;stroke-width:1.0;" x1="55.4688" x2="220.8677" y1="116.9121" y2="116.9121"/><text fill="#000000" font-family="sans-serif" font-size="13" lengthAdjust="spacing" textLength="39.0063" x="62.4688" y="111.6494">show()</text><polygon fill="#181818" points="470.7583,144.2031,480.7583,148.2031,470.7583,152.2031,474.7583,148.2031" style="stroke:#181818;stroke-width:1.0;"/><line style="stroke:#181818;stroke-width:1.0;" x1="236.8677" x2="476.7583" y1="148.2031" y2="148.2031"/><text fill="#000000" font-family="sans-serif" font-size="13" lengthAdjust="spacing" textLength="226.8906" x="243.8677" y="142.9404">addFigure(name, category, description)</text><polygon fill="#181818" points="726.6489,175.4941,736.6489,179.4941,726.6489,183.4941,730.6489,179.4941" style="stroke:#181818;stroke-width:1.0;"/><line style="stroke:#181818;stroke-width:1.0;" x1="492.7583" x2="732.6489" y1="179.4941" y2="179.4941"/><text fill="#000000" font-family="sans-serif" font-size="13" lengthAdjust="spacing" textLength="226.8906" x="499.7583" y="174.2314">addFigure(name, category, description)</text><polygon fill="#181818" points="1489.4858,206.7852,1499.4858,210.7852,1489.4858,214.7852,1493.4858,210.7852" style="stroke:#181818;stroke-width:1.0;"/><line style="stroke:#181818;stroke-width:1.0;" x1="748.6489" x2="1495.4858" y1="210.7852" y2="210.7852"/><text fill="#000000" font-family="sans-serif" font-size="13" lengthAdjust="spacing" textLength="589.5132" x="755.6489" y="205.5225">ensureAuthenticatedUserHasAnyOf(Roles.ADMIN, Roles.POWER_USER, Roles.SHOW_DESIGNER)</text><polygon fill="#181818" points="759.6489,238.0762,749.6489,242.0762,759.6489,246.0762,755.6489,242.0762" style="stroke:#181818;stroke-width:1.0;"/><line style="stroke:#181818;stroke-width:1.0;stroke-dasharray:2.0,2.0;" x1="753.6489" x2="1505.4858" y1="242.0762" y2="242.0762"/><text fill="#000000" font-family="sans-serif" font-size="13" lengthAdjust="spacing" textLength="60.709" x="765.6489" y="236.8135">authorized</text><line style="stroke:#181818;stroke-width:1.0;" x1="748.6489" x2="795.6489" y1="268.3672" y2="268.3672"/><line style="stroke:#181818;stroke-width:1.0;" x1="795.6489" x2="795.6489" y1="268.3672" y2="281.3672"/><line style="stroke:#181818;stroke-width:1.0;" x1="754.6489" x2="795.6489" y1="281.3672" y2="281.3672"/><polygon fill="#181818" points="764.6489,277.3672,754.6489,281.3672,764.6489,285.3672,760.6489,281.3672" style="stroke:#181818;stroke-width:1.0;"/><text fill="#000000" font-family="sans-serif" font-size="13" lengthAdjust="spacing" textLength="241.3315" x="760.6489" y="263.1045">createFigure(name, category, description)</text><line style="stroke:#181818;stroke-width:1.0;stroke-dasharray:2.0,2.0;" x1="753.6489" x2="795.6489" y1="322.6582" y2="322.6582"/><line style="stroke:#181818;stroke-width:1.0;stroke-dasharray:2.0,2.0;" x1="795.6489" x2="795.6489" y1="322.6582" y2="335.6582"/><line style="stroke:#181818;stroke-width:1.0;stroke-dasharray:2.0,2.0;" x1="748.6489" x2="795.6489" y1="335.6582" y2="335.6582"/><polygon fill="#181818" points="758.6489,331.6582,748.6489,335.6582,758.6489,339.6582,754.6489,335.6582" style="stroke:#181818;stroke-width:1.0;"/><text fill="#000000" font-family="sans-serif" font-size="13" lengthAdjust="spacing" textLength="36.8481" x="760.6489" y="317.3955">Figure</text><polygon fill="#181818" points="1001.9805,357.9492,1011.9805,361.9492,1001.9805,365.9492,1005.9805,361.9492" style="stroke:#181818;stroke-width:1.0;"/><line style="stroke:#181818;stroke-width:1.0;" x1="748.6489" x2="1007.9805" y1="361.9492" y2="361.9492"/><text fill="#000000" font-family="sans-serif" font-size="13" lengthAdjust="spacing" textLength="68.6372" x="755.6489" y="356.6865">save(figure)</text><path d="M948.6807,376.9492 L1008.8516,376.9492 L1008.8516,386.2402 L998.8516,396.2402 L948.6807,396.2402 L948.6807,376.9492 " fill="#EEEEEE" style="stroke:#000000;stroke-width:1.5;"/><rect fill="none" height="161.0859" style="stroke:#000000;stroke-width:1.5;" width="486.6055" x="948.6807" y="376.9492"/><text fill="#000000" font-family="sans-serif" font-size="13" font-weight="bold" lengthAdjust="spacing" textLength="15.1709" x="963.6807" y="391.9775">alt</text><text fill="#000000" font-family="sans-serif" font-size="11" font-weight="bold" lengthAdjust="spacing" textLength="113.0669" x="1023.8516" y="390.8193">[JPA Implementation]</text><polygon fill="#181818" points="1143.8662,415.5313,1153.8662,419.5313,1143.8662,423.5313,1147.8662,419.5313" style="stroke:#181818;stroke-width:1.0;"/><line style="stroke:#181818;stroke-width:1.0;" x1="1023.9805" x2="1149.8662" y1="419.5313" y2="419.5313"/><text fill="#000000" font-family="sans-serif" font-size="13" lengthAdjust="spacing" textLength="68.6372" x="1030.9805" y="414.2686">save(figure)</text><polygon fill="#181818" points="1034.9805,446.8223,1024.9805,450.8223,1034.9805,454.8223,1030.9805,450.8223" style="stroke:#181818;stroke-width:1.0;"/><line style="stroke:#181818;stroke-width:1.0;stroke-dasharray:2.0,2.0;" x1="1028.9805" x2="1159.8662" y1="450.8223" y2="450.8223"/><text fill="#000000" font-family="sans-serif" font-size="13" lengthAdjust="spacing" textLength="36.8481" x="1040.9805" y="445.5596">Figure</text><line style="stroke:#000000;stroke-width:1.0;stroke-dasharray:2.0,2.0;" x1="948.6807" x2="1435.2861" y1="459.8223" y2="459.8223"/><text fill="#000000" font-family="sans-serif" font-size="11" font-weight="bold" lengthAdjust="spacing" textLength="143.623" x="953.6807" y="471.6924">[InMemory Implementation]</text><polygon fill="#181818" points="1316.8691,494.7441,1326.8691,498.7441,1316.8691,502.7441,1320.8691,498.7441" style="stroke:#181818;stroke-width:1.0;"/><line style="stroke:#181818;stroke-width:1.0;" x1="1023.9805" x2="1322.8691" y1="498.7441" y2="498.7441"/><text fill="#000000" font-family="sans-serif" font-size="13" lengthAdjust="spacing" textLength="68.6372" x="1030.9805" y="493.4814">save(figure)</text><polygon fill="#181818" points="1034.9805,526.0352,1024.9805,530.0352,1034.9805,534.0352,1030.9805,530.0352" style="stroke:#181818;stroke-width:1.0;"/><line style="stroke:#181818;stroke-width:1.0;stroke-dasharray:2.0,2.0;" x1="1028.9805" x2="1332.8691" y1="530.0352" y2="530.0352"/><text fill="#000000" font-family="sans-serif" font-size="13" lengthAdjust="spacing" textLength="36.8481" x="1040.9805" y="524.7725">Figure</text><polygon fill="#181818" points="759.6489,564.3262,749.6489,568.3262,759.6489,572.3262,755.6489,568.3262" style="stroke:#181818;stroke-width:1.0;"/><line style="stroke:#181818;stroke-width:1.0;stroke-dasharray:2.0,2.0;" x1="753.6489" x2="1017.9805" y1="568.3262" y2="568.3262"/><text fill="#000000" font-family="sans-serif" font-size="13" lengthAdjust="spacing" textLength="36.8481" x="765.6489" y="563.0635">Figure</text><polygon fill="#181818" points="503.7583,595.6172,493.7583,599.6172,503.7583,603.6172,499.7583,599.6172" style="stroke:#181818;stroke-width:1.0;"/><line style="stroke:#181818;stroke-width:1.0;stroke-dasharray:2.0,2.0;" x1="497.7583" x2="742.6489" y1="599.6172" y2="599.6172"/><text fill="#000000" font-family="sans-serif" font-size="13" lengthAdjust="spacing" textLength="36.8481" x="509.7583" y="594.3545">Figure</text><polygon fill="#181818" points="247.8677,626.9082,237.8677,630.9082,247.8677,634.9082,243.8677,630.9082" style="stroke:#181818;stroke-width:1.0;"/><line style="stroke:#181818;stroke-width:1.0;stroke-dasharray:2.0,2.0;" x1="241.8677" x2="486.7583" y1="630.9082" y2="630.9082"/><text fill="#000000" font-family="sans-serif" font-size="13" lengthAdjust="spacing" textLength="36.8481" x="253.8677" y="625.6455">Figure</text><line style="stroke:#181818;stroke-width:1.0;" x1="236.8677" x2="278.8677" y1="662.1992" y2="662.1992"/><line style="stroke:#181818;stroke-width:1.0;" x1="278.8677" x2="278.8677" y1="662.1992" y2="675.1992"/><line style="stroke:#181818;stroke-width:1.0;" x1="237.8677" x2="278.8677" y1="675.1992" y2="675.1992"/><polygon fill="#181818" points="247.8677,671.1992,237.8677,675.1992,247.8677,679.1992,243.8677,675.1992" style="stroke:#181818;stroke-width:1.0;"/><text fill="#000000" font-family="sans-serif" font-size="13" lengthAdjust="spacing" textLength="151.0044" x="243.8677" y="656.9365">displaySuccessMessage()</text><polygon fill="#181818" points="66.4688,702.4902,56.4688,706.4902,66.4688,710.4902,62.4688,706.4902" style="stroke:#181818;stroke-width:1.0;"/><line style="stroke:#181818;stroke-width:1.0;stroke-dasharray:2.0,2.0;" x1="60.4688" x2="230.8677" y1="706.4902" y2="706.4902"/><text fill="#000000" font-family="sans-serif" font-size="13" lengthAdjust="spacing" textLength="147.3989" x="72.4688" y="701.2275">display success message</text><!--SRC=[dPFRQkCm48RlzHGYLrb8-m2vM31DTkj2cc9lw6KHyjHLiIKZoLdIfz_HoLKQasKtuA33Dxz6lsOOjqhJHVscVjCD6D5Aq0lA36tYX0nCMy75mAIbYw9fVeXsrF1BtJ7BEjMES2Xzm2ZEqS3TAMcrwhgeogVf75o3FWeEdZHXF8TLC2WZCE-J9pLEpx67WSsIxmEhBk1Ixg17OZQYX_uoeXZjczBYWrcXP9upmuqFGf9rzEOxkhAc1irTVYECMt5a5fnJP1HkzzEEDMN9sgLaFQmeHxJ5F5RkARWMWpijKyci99zZfngj-tV9v3c90oVcxxIc80tgk9k3H2UGRWv8tJDJoDF-TLcf3injiTcLZoiQ9a_xvstrSgYtLLgfx_VFBvjjNVvyt5RPkS4t_qzlpYuGdOO6JVs2vqbE0Lm34lzrwKakrmjA-U5p7haAn6TcHrY- -e1CtbSdOPsb3qy5BVkXWnujzBL3AFuSu4HYSNxHSSIabUhNBSQnJpUS7tDrcrc-AGOw0pJL-hKyOibVooDrXLkCux_caM90DeJe5775w61S_YfvjrnvcBmPOWTUqddtX5vqN2FCqB5JFN8EnkpmOorWwpe2aTJO4qXD8F5s7irFm2x_0m00]--></g></svg>