<svg xmlns="http://www.w3.org/2000/svg" xmlns:xlink="http://www.w3.org/1999/xlink" contentStyleType="text/css" height="843px" preserveAspectRatio="none" style="width:776px;height:843px;background:#FFFFFF;" version="1.1" viewBox="0 0 776 843" width="776px" zoomAndPan="magnify"><defs/><g><!--cluster Figure Management--><g id="cluster_Figure Management"><path d="M8.5,6.0137 L141.7412,6.0137 A3.75,3.75 0 0 1 144.2412,8.5137 L151.2412,30.6348 L590.5,30.6348 A2.5,2.5 0 0 1 593,33.1348 L593,833.5137 A2.5,2.5 0 0 1 590.5,836.0137 L8.5,836.0137 A2.5,2.5 0 0 1 6,833.5137 L6,8.5137 A2.5,2.5 0 0 1 8.5,6.0137 " fill="none" style="stroke:#000000;stroke-width:1.5;"/><line style="stroke:#000000;stroke-width:1.5;" x1="6" x2="151.2412" y1="30.6348" y2="30.6348"/><text fill="#000000" font-family="sans-serif" font-size="14" font-weight="bold" lengthAdjust="spacing" textLength="132.2412" x="10" y="23.1211">Figure Management</text></g><!--class DecommissionFigureUI--><g id="elem_DecommissionFigureUI"><rect codeLine="3" fill="#F1F1F1" height="103.8633" id="DecommissionFigureUI" rx="2.5" ry="2.5" style="stroke:#181818;stroke-width:0.5;" width="214.2959" x="363" y="80.0137"/><ellipse cx="394.5661" cy="96.0137" fill="#ADD1B2" rx="11" ry="11" style="stroke:#181818;stroke-width:1.0;"/><path d="M397.3317,91.8887 Q397.4879,91.6699 397.6754,91.5605 Q397.8629,91.4512 398.0817,91.4512 Q398.4567,91.4512 398.6911,91.7168 Q398.9254,91.9668 398.9254,92.5762 L398.9254,94.0293 Q398.9254,94.6387 398.6911,94.9043 Q398.4567,95.1699 398.0817,95.1699 Q397.7379,95.1699 397.5348,94.9668 Q397.3317,94.7793 397.2223,94.2637 Q397.1754,93.9043 396.9879,93.7168 Q396.6598,93.3418 396.0504,93.123 Q395.4411,92.9043 394.8161,92.9043 Q394.0504,92.9043 393.4098,93.2324 Q392.7848,93.5605 392.2848,94.3105 Q391.8004,95.0605 391.8004,96.0918 L391.8004,97.1855 Q391.8004,98.4199 392.6911,99.248 Q393.5817,100.0605 395.1754,100.0605 Q396.1129,100.0605 396.7692,99.8105 Q397.1598,99.6543 397.5817,99.2168 Q397.8473,98.9512 397.9879,98.873 Q398.1442,98.7949 398.3473,98.7949 Q398.6754,98.7949 398.9254,99.0605 Q399.1911,99.3105 399.1911,99.6543 Q399.1911,99.998 398.8473,100.4043 Q398.3473,100.9824 397.5504,101.3105 Q396.4723,101.7637 395.1754,101.7637 Q393.6598,101.7637 392.4567,101.1387 Q391.4723,100.6387 390.7848,99.5762 Q390.0973,98.498 390.0973,97.2168 L390.0973,96.0605 Q390.0973,94.7324 390.7067,93.5918 Q391.3317,92.4355 392.4254,91.8262 Q393.5192,91.2012 394.7536,91.2012 Q395.4879,91.2012 396.1286,91.373 Q396.7848,91.5293 397.3317,91.8887 Z " fill="#000000"/><text fill="#000000" font-family="sans-serif" font-size="14" lengthAdjust="spacing" textLength="145.4824" x="412.2474" y="101.8105">DecommissionFigureUI</text><line style="stroke:#181818;stroke-width:0.5;" x1="364" x2="576.2959" y1="112.0137" y2="112.0137"/><rect fill="none" height="6" style="stroke:#C82930;stroke-width:1.0;" width="6" x="371" y="123.8242"/><text fill="#000000" font-family="sans-serif" font-size="14" lengthAdjust="spacing" textLength="165.7305" x="383" y="131.1211">controller: FigureController</text><line style="stroke:#181818;stroke-width:0.5;" x1="364" x2="576.2959" y1="138.6348" y2="138.6348"/><ellipse cx="374" cy="153.4453" fill="#84BE84" rx="3" ry="3" style="stroke:#038048;stroke-width:1.0;"/><text fill="#000000" font-family="sans-serif" font-size="14" lengthAdjust="spacing" textLength="42.0068" x="383" y="157.7422">show()</text><rect fill="#F24D5C" height="6" style="stroke:#C82930;stroke-width:1.0;" width="6" x="371" y="169.0664"/><text fill="#000000" font-family="sans-serif" font-size="14" lengthAdjust="spacing" textLength="188.2959" x="383" y="176.3633">displaySuccess(figure: Figure)</text></g><!--class Figure--><g id="elem_Figure"><rect codeLine="9" fill="#F1F1F1" height="178.3477" id="Figure" rx="2.5" ry="2.5" style="stroke:#181818;stroke-width:0.5;" width="304.5508" x="22.5" y="43.0137"/><ellipse cx="150.6841" cy="59.0137" fill="#ADD1B2" rx="11" ry="11" style="stroke:#181818;stroke-width:1.0;"/><path d="M153.4497,54.8887 Q153.606,54.6699 153.7935,54.5605 Q153.981,54.4512 154.1997,54.4512 Q154.5747,54.4512 154.8091,54.7168 Q155.0435,54.9668 155.0435,55.5762 L155.0435,57.0293 Q155.0435,57.6387 154.8091,57.9043 Q154.5747,58.1699 154.1997,58.1699 Q153.856,58.1699 153.6528,57.9668 Q153.4497,57.7793 153.3403,57.2637 Q153.2935,56.9043 153.106,56.7168 Q152.7778,56.3418 152.1685,56.123 Q151.5591,55.9043 150.9341,55.9043 Q150.1685,55.9043 149.5278,56.2324 Q148.9028,56.5605 148.4028,57.3105 Q147.9185,58.0605 147.9185,59.0918 L147.9185,60.1855 Q147.9185,61.4199 148.8091,62.248 Q149.6997,63.0605 151.2935,63.0605 Q152.231,63.0605 152.8872,62.8105 Q153.2778,62.6543 153.6997,62.2168 Q153.9653,61.9512 154.106,61.873 Q154.2622,61.7949 154.4653,61.7949 Q154.7935,61.7949 155.0435,62.0605 Q155.3091,62.3105 155.3091,62.6543 Q155.3091,62.998 154.9653,63.4043 Q154.4653,63.9824 153.6685,64.3105 Q152.5903,64.7637 151.2935,64.7637 Q149.7778,64.7637 148.5747,64.1387 Q147.5903,63.6387 146.9028,62.5762 Q146.2153,61.498 146.2153,60.2168 L146.2153,59.0605 Q146.2153,57.7324 146.8247,56.5918 Q147.4497,55.4355 148.5435,54.8262 Q149.6372,54.2012 150.8716,54.2012 Q151.606,54.2012 152.2466,54.373 Q152.9028,54.5293 153.4497,54.8887 Z " fill="#000000"/><text fill="#000000" font-family="sans-serif" font-size="14" lengthAdjust="spacing" textLength="39.6826" x="171.1841" y="64.8105">Figure</text><line style="stroke:#181818;stroke-width:0.5;" x1="23.5" x2="326.0508" y1="75.0137" y2="75.0137"/><rect fill="none" height="6" style="stroke:#C82930;stroke-width:1.0;" width="6" x="30.5" y="86.8242"/><text fill="#000000" font-family="sans-serif" font-size="14" lengthAdjust="spacing" textLength="49.8203" x="42.5" y="94.1211">id: Long</text><rect fill="none" height="6" style="stroke:#C82930;stroke-width:1.0;" width="6" x="30.5" y="105.4453"/><text fill="#000000" font-family="sans-serif" font-size="14" lengthAdjust="spacing" textLength="105.8408" x="42.5" y="112.7422">isActive: boolean</text><rect fill="none" height="6" style="stroke:#C82930;stroke-width:1.0;" width="6" x="30.5" y="124.0664"/><text fill="#000000" font-family="sans-serif" font-size="14" lengthAdjust="spacing" textLength="220.9785" x="42.5" y="131.3633">decommissionDate: LocalDateTime</text><line style="stroke:#181818;stroke-width:0.5;" x1="23.5" x2="326.0508" y1="138.877" y2="138.877"/><ellipse cx="33.5" cy="153.6875" fill="#84BE84" rx="3" ry="3" style="stroke:#038048;stroke-width:1.0;"/><text fill="#000000" font-family="sans-serif" font-size="14" lengthAdjust="spacing" textLength="160.3027" x="42.5" y="157.9844">setActive(active: boolean)</text><ellipse cx="33.5" cy="172.3086" fill="#84BE84" rx="3" ry="3" style="stroke:#038048;stroke-width:1.0;"/><text fill="#000000" font-family="sans-serif" font-size="14" lengthAdjust="spacing" textLength="278.5508" x="42.5" y="176.6055">setDecommissionDate(date: LocalDateTime)</text><ellipse cx="33.5" cy="190.9297" fill="#84BE84" rx="3" ry="3" style="stroke:#038048;stroke-width:1.0;"/><text fill="#000000" font-family="sans-serif" font-size="14" lengthAdjust="spacing" textLength="92.6064" x="42.5" y="195.2266">identity(): Long</text><ellipse cx="33.5" cy="209.5508" fill="#84BE84" rx="3" ry="3" style="stroke:#038048;stroke-width:1.0;"/><text fill="#000000" font-family="sans-serif" font-size="14" lengthAdjust="spacing" textLength="101.9238" x="42.5" y="213.8477">toString(): String</text></g><!--class FigureController--><g id="elem_FigureController"><rect codeLine="19" fill="#F1F1F1" height="85.2422" id="FigureController" rx="2.5" ry="2.5" style="stroke:#181818;stroke-width:0.5;" width="294.4268" x="283" y="281.0137"/><ellipse cx="375.7773" cy="297.0137" fill="#ADD1B2" rx="11" ry="11" style="stroke:#181818;stroke-width:1.0;"/><path d="M378.543,292.8887 Q378.6992,292.6699 378.8867,292.5605 Q379.0742,292.4512 379.293,292.4512 Q379.668,292.4512 379.9023,292.7168 Q380.1367,292.9668 380.1367,293.5762 L380.1367,295.0293 Q380.1367,295.6387 379.9023,295.9043 Q379.668,296.1699 379.293,296.1699 Q378.9492,296.1699 378.7461,295.9668 Q378.543,295.7793 378.4336,295.2637 Q378.3867,294.9043 378.1992,294.7168 Q377.8711,294.3418 377.2617,294.123 Q376.6523,293.9043 376.0273,293.9043 Q375.2617,293.9043 374.6211,294.2324 Q373.9961,294.5605 373.4961,295.3105 Q373.0117,296.0605 373.0117,297.0918 L373.0117,298.1855 Q373.0117,299.4199 373.9023,300.248 Q374.793,301.0605 376.3867,301.0605 Q377.3242,301.0605 377.9805,300.8105 Q378.3711,300.6543 378.793,300.2168 Q379.0586,299.9512 379.1992,299.873 Q379.3555,299.7949 379.5586,299.7949 Q379.8867,299.7949 380.1367,300.0605 Q380.4023,300.3105 380.4023,300.6543 Q380.4023,300.998 380.0586,301.4043 Q379.5586,301.9824 378.7617,302.3105 Q377.6836,302.7637 376.3867,302.7637 Q374.8711,302.7637 373.668,302.1387 Q372.6836,301.6387 371.9961,300.5762 Q371.3086,299.498 371.3086,298.2168 L371.3086,297.0605 Q371.3086,295.7324 371.918,294.5918 Q372.543,293.4355 373.6367,292.8262 Q374.7305,292.2012 375.9648,292.2012 Q376.6992,292.2012 377.3398,292.373 Q377.9961,292.5293 378.543,292.8887 Z " fill="#000000"/><text fill="#000000" font-family="sans-serif" font-size="14" lengthAdjust="spacing" textLength="100.3721" x="396.2773" y="302.8105">FigureController</text><line style="stroke:#181818;stroke-width:0.5;" x1="284" x2="576.4268" y1="313.0137" y2="313.0137"/><rect fill="none" height="6" style="stroke:#C82930;stroke-width:1.0;" width="6" x="291" y="324.8242"/><text fill="#000000" font-family="sans-serif" font-size="14" lengthAdjust="spacing" textLength="175.8477" x="303" y="332.1211">figureService: FigureService</text><line style="stroke:#181818;stroke-width:0.5;" x1="284" x2="576.4268" y1="339.6348" y2="339.6348"/><ellipse cx="294" cy="354.4453" fill="#84BE84" rx="3" ry="3" style="stroke:#038048;stroke-width:1.0;"/><text fill="#000000" font-family="sans-serif" font-size="14" lengthAdjust="spacing" textLength="268.4268" x="303" y="358.7422">decommissionFigure(figure: Figure): Figure</text></g><!--class FigureService--><g id="elem_FigureService"><rect codeLine="24" fill="#F1F1F1" height="103.8633" id="FigureService" rx="2.5" ry="2.5" style="stroke:#181818;stroke-width:0.5;" width="294.4268" x="283" y="426.0137"/><ellipse cx="382.7808" cy="442.0137" fill="#ADD1B2" rx="11" ry="11" style="stroke:#181818;stroke-width:1.0;"/><path d="M385.5464,437.8887 Q385.7026,437.6699 385.8901,437.5605 Q386.0776,437.4512 386.2964,437.4512 Q386.6714,437.4512 386.9058,437.7168 Q387.1401,437.9668 387.1401,438.5762 L387.1401,440.0293 Q387.1401,440.6387 386.9058,440.9043 Q386.6714,441.1699 386.2964,441.1699 Q385.9526,441.1699 385.7495,440.9668 Q385.5464,440.7793 385.437,440.2637 Q385.3901,439.9043 385.2026,439.7168 Q384.8745,439.3418 384.2651,439.123 Q383.6558,438.9043 383.0308,438.9043 Q382.2651,438.9043 381.6245,439.2324 Q380.9995,439.5605 380.4995,440.3105 Q380.0151,441.0605 380.0151,442.0918 L380.0151,443.1855 Q380.0151,444.4199 380.9058,445.248 Q381.7964,446.0605 383.3901,446.0605 Q384.3276,446.0605 384.9839,445.8105 Q385.3745,445.6543 385.7964,445.2168 Q386.062,444.9512 386.2026,444.873 Q386.3589,444.7949 386.562,444.7949 Q386.8901,444.7949 387.1401,445.0605 Q387.4058,445.3105 387.4058,445.6543 Q387.4058,445.998 387.062,446.4043 Q386.562,446.9824 385.7651,447.3105 Q384.687,447.7637 383.3901,447.7637 Q381.8745,447.7637 380.6714,447.1387 Q379.687,446.6387 378.9995,445.5762 Q378.312,444.498 378.312,443.2168 L378.312,442.0605 Q378.312,440.7324 378.9214,439.5918 Q379.5464,438.4355 380.6401,437.8262 Q381.7339,437.2012 382.9683,437.2012 Q383.7026,437.2012 384.3433,437.373 Q384.9995,437.5293 385.5464,437.8887 Z " fill="#000000"/><text fill="#000000" font-family="sans-serif" font-size="14" lengthAdjust="spacing" textLength="86.3652" x="403.2808" y="447.8105">FigureService</text><line style="stroke:#181818;stroke-width:0.5;" x1="284" x2="576.4268" y1="458.0137" y2="458.0137"/><rect fill="none" height="6" style="stroke:#C82930;stroke-width:1.0;" width="6" x="291" y="469.8242"/><text fill="#000000" font-family="sans-serif" font-size="14" lengthAdjust="spacing" textLength="142.3994" x="303" y="477.1211">repo: FigureRepository</text><rect fill="none" height="6" style="stroke:#C82930;stroke-width:1.0;" width="6" x="291" y="488.4453"/><text fill="#000000" font-family="sans-serif" font-size="14" lengthAdjust="spacing" textLength="170.4268" x="303" y="495.7422">authz: AuthorizationService</text><line style="stroke:#181818;stroke-width:0.5;" x1="284" x2="576.4268" y1="503.2559" y2="503.2559"/><ellipse cx="294" cy="518.0664" fill="#84BE84" rx="3" ry="3" style="stroke:#038048;stroke-width:1.0;"/><text fill="#000000" font-family="sans-serif" font-size="14" lengthAdjust="spacing" textLength="268.4268" x="303" y="522.3633">decommissionFigure(figure: Figure): Figure</text></g><!--class FigureRepository--><g id="elem_FigureRepository"><rect codeLine="30" fill="#F1F1F1" height="85.2422" id="FigureRepository" rx="2.5" ry="2.5" style="stroke:#181818;stroke-width:0.5;" width="257.916" x="301" y="590.0137"/><ellipse cx="372.4082" cy="606.0137" fill="#B4A7E5" rx="11" ry="11" style="stroke:#181818;stroke-width:1.0;"/><path d="M373.3613,602.6543 L373.3613,609.3105 L375.0801,609.3105 Q375.6895,609.3105 375.9551,609.5449 Q376.2207,609.7793 376.2207,610.1699 Q376.2207,610.5449 375.9551,610.7793 Q375.6895,611.0137 375.0801,611.0137 L369.9395,611.0137 Q369.3301,611.0137 369.0645,610.7793 Q368.7988,610.5449 368.7988,610.1543 Q368.7988,609.7793 369.0645,609.5449 Q369.3301,609.3105 369.9395,609.3105 L371.6582,609.3105 L371.6582,602.6543 L369.9395,602.6543 Q369.3301,602.6543 369.0645,602.4199 Q368.7988,602.1855 368.7988,601.7949 Q368.7988,601.4199 369.0645,601.1855 Q369.3301,600.9512 369.9395,600.9512 L375.0801,600.9512 Q375.6895,600.9512 375.9551,601.1855 Q376.2207,601.4199 376.2207,601.7949 Q376.2207,602.1855 375.9551,602.4199 Q375.6895,602.6543 375.0801,602.6543 L373.3613,602.6543 Z " fill="#000000"/><text fill="#000000" font-family="sans-serif" font-size="14" font-style="italic" lengthAdjust="spacing" textLength="106.5996" x="392.9082" y="611.8105">FigureRepository</text><line style="stroke:#181818;stroke-width:0.5;" x1="302" x2="557.916" y1="622.0137" y2="622.0137"/><line style="stroke:#181818;stroke-width:0.5;" x1="302" x2="557.916" y1="630.0137" y2="630.0137"/><ellipse cx="312" cy="644.8242" fill="#84BE84" rx="3" ry="3" style="stroke:#038048;stroke-width:1.0;"/><text fill="#000000" font-family="sans-serif" font-size="14" lengthAdjust="spacing" textLength="231.916" x="321" y="649.1211">ofIdentity(id: Long): Optional&lt;Figure&gt;</text><ellipse cx="312" cy="663.4453" fill="#84BE84" rx="3" ry="3" style="stroke:#038048;stroke-width:1.0;"/><text fill="#000000" font-family="sans-serif" font-size="14" lengthAdjust="spacing" textLength="168.8408" x="321" y="667.7422">save(figure: Figure): Figure</text></g><!--class JpaFigureRepository--><g id="elem_JpaFigureRepository"><rect codeLine="35" fill="#F1F1F1" height="85.2422" id="JpaFigureRepository" rx="2.5" ry="2.5" style="stroke:#181818;stroke-width:0.5;" width="257.916" x="24" y="735.0137"/><ellipse cx="84.1221" cy="751.0137" fill="#ADD1B2" rx="11" ry="11" style="stroke:#181818;stroke-width:1.0;"/><path d="M86.8877,746.8887 Q87.0439,746.6699 87.2314,746.5605 Q87.4189,746.4512 87.6377,746.4512 Q88.0127,746.4512 88.2471,746.7168 Q88.4814,746.9668 88.4814,747.5762 L88.4814,749.0293 Q88.4814,749.6387 88.2471,749.9043 Q88.0127,750.1699 87.6377,750.1699 Q87.2939,750.1699 87.0908,749.9668 Q86.8877,749.7793 86.7783,749.2637 Q86.7314,748.9043 86.5439,748.7168 Q86.2158,748.3418 85.6064,748.123 Q84.9971,747.9043 84.3721,747.9043 Q83.6064,747.9043 82.9658,748.2324 Q82.3408,748.5605 81.8408,749.3105 Q81.3564,750.0605 81.3564,751.0918 L81.3564,752.1855 Q81.3564,753.4199 82.2471,754.248 Q83.1377,755.0605 84.7314,755.0605 Q85.6689,755.0605 86.3252,754.8105 Q86.7158,754.6543 87.1377,754.2168 Q87.4033,753.9512 87.5439,753.873 Q87.7002,753.7949 87.9033,753.7949 Q88.2314,753.7949 88.4814,754.0605 Q88.7471,754.3105 88.7471,754.6543 Q88.7471,754.998 88.4033,755.4043 Q87.9033,755.9824 87.1064,756.3105 Q86.0283,756.7637 84.7314,756.7637 Q83.2158,756.7637 82.0127,756.1387 Q81.0283,755.6387 80.3408,754.5762 Q79.6533,753.498 79.6533,752.2168 L79.6533,751.0605 Q79.6533,749.7324 80.2627,748.5918 Q80.8877,747.4355 81.9814,746.8262 Q83.0752,746.2012 84.3096,746.2012 Q85.0439,746.2012 85.6846,746.373 Q86.3408,746.5293 86.8877,746.8887 Z " fill="#000000"/><text fill="#000000" font-family="sans-serif" font-size="14" lengthAdjust="spacing" textLength="129.1719" x="104.6221" y="756.8105">JpaFigureRepository</text><line style="stroke:#181818;stroke-width:0.5;" x1="25" x2="280.916" y1="767.0137" y2="767.0137"/><line style="stroke:#181818;stroke-width:0.5;" x1="25" x2="280.916" y1="775.0137" y2="775.0137"/><ellipse cx="35" cy="789.8242" fill="#84BE84" rx="3" ry="3" style="stroke:#038048;stroke-width:1.0;"/><text fill="#000000" font-family="sans-serif" font-size="14" lengthAdjust="spacing" textLength="231.916" x="44" y="794.1211">ofIdentity(id: Long): Optional&lt;Figure&gt;</text><ellipse cx="35" cy="808.4453" fill="#84BE84" rx="3" ry="3" style="stroke:#038048;stroke-width:1.0;"/><text fill="#000000" font-family="sans-serif" font-size="14" lengthAdjust="spacing" textLength="168.8408" x="44" y="812.7422">save(figure: Figure): Figure</text></g><!--class InMemoryFigureRepository--><g id="elem_InMemoryFigureRepository"><rect codeLine="40" fill="#F1F1F1" height="85.2422" id="InMemoryFigureRepository" rx="2.5" ry="2.5" style="stroke:#181818;stroke-width:0.5;" width="257.916" x="317" y="735.0137"/><ellipse cx="357.6869" cy="751.0137" fill="#ADD1B2" rx="11" ry="11" style="stroke:#181818;stroke-width:1.0;"/><path d="M360.4525,746.8887 Q360.6088,746.6699 360.7963,746.5605 Q360.9838,746.4512 361.2025,746.4512 Q361.5775,746.4512 361.8119,746.7168 Q362.0463,746.9668 362.0463,747.5762 L362.0463,749.0293 Q362.0463,749.6387 361.8119,749.9043 Q361.5775,750.1699 361.2025,750.1699 Q360.8588,750.1699 360.6557,749.9668 Q360.4525,749.7793 360.3432,749.2637 Q360.2963,748.9043 360.1088,748.7168 Q359.7807,748.3418 359.1713,748.123 Q358.5619,747.9043 357.9369,747.9043 Q357.1713,747.9043 356.5307,748.2324 Q355.9057,748.5605 355.4057,749.3105 Q354.9213,750.0605 354.9213,751.0918 L354.9213,752.1855 Q354.9213,753.4199 355.8119,754.248 Q356.7025,755.0605 358.2963,755.0605 Q359.2338,755.0605 359.89,754.8105 Q360.2807,754.6543 360.7025,754.2168 Q360.9682,753.9512 361.1088,753.873 Q361.265,753.7949 361.4682,753.7949 Q361.7963,753.7949 362.0463,754.0605 Q362.3119,754.3105 362.3119,754.6543 Q362.3119,754.998 361.9682,755.4043 Q361.4682,755.9824 360.6713,756.3105 Q359.5932,756.7637 358.2963,756.7637 Q356.7807,756.7637 355.5775,756.1387 Q354.5932,755.6387 353.9057,754.5762 Q353.2182,753.498 353.2182,752.2168 L353.2182,751.0605 Q353.2182,749.7324 353.8275,748.5918 Q354.4525,747.4355 355.5463,746.8262 Q356.64,746.2012 357.8744,746.2012 Q358.6088,746.2012 359.2494,746.373 Q359.9057,746.5293 360.4525,746.8887 Z " fill="#000000"/><text fill="#000000" font-family="sans-serif" font-size="14" lengthAdjust="spacing" textLength="168.834" x="377.3951" y="756.8105">InMemoryFigureRepository</text><line style="stroke:#181818;stroke-width:0.5;" x1="318" x2="573.916" y1="767.0137" y2="767.0137"/><line style="stroke:#181818;stroke-width:0.5;" x1="318" x2="573.916" y1="775.0137" y2="775.0137"/><ellipse cx="328" cy="789.8242" fill="#84BE84" rx="3" ry="3" style="stroke:#038048;stroke-width:1.0;"/><text fill="#000000" font-family="sans-serif" font-size="14" lengthAdjust="spacing" textLength="231.916" x="337" y="794.1211">ofIdentity(id: Long): Optional&lt;Figure&gt;</text><ellipse cx="328" cy="808.4453" fill="#84BE84" rx="3" ry="3" style="stroke:#038048;stroke-width:1.0;"/><text fill="#000000" font-family="sans-serif" font-size="14" lengthAdjust="spacing" textLength="168.8408" x="337" y="812.7422">save(figure: Figure): Figure</text></g><!--class AuthorizationService--><g id="elem_AuthorizationService"><rect fill="#F1F1F1" height="48" id="AuthorizationService" rx="2.5" ry="2.5" style="stroke:#181818;stroke-width:0.5;" width="160.3994" x="609" y="608.5137"/><ellipse cx="624" cy="624.5137" fill="#ADD1B2" rx="11" ry="11" style="stroke:#181818;stroke-width:1.0;"/><path d="M626.7656,620.3887 Q626.9219,620.1699 627.1094,620.0605 Q627.2969,619.9512 627.5156,619.9512 Q627.8906,619.9512 628.125,620.2168 Q628.3594,620.4668 628.3594,621.0762 L628.3594,622.5293 Q628.3594,623.1387 628.125,623.4043 Q627.8906,623.6699 627.5156,623.6699 Q627.1719,623.6699 626.9688,623.4668 Q626.7656,623.2793 626.6563,622.7637 Q626.6094,622.4043 626.4219,622.2168 Q626.0938,621.8418 625.4844,621.623 Q624.875,621.4043 624.25,621.4043 Q623.4844,621.4043 622.8438,621.7324 Q622.2188,622.0605 621.7188,622.8105 Q621.2344,623.5605 621.2344,624.5918 L621.2344,625.6855 Q621.2344,626.9199 622.125,627.748 Q623.0156,628.5605 624.6094,628.5605 Q625.5469,628.5605 626.2031,628.3105 Q626.5938,628.1543 627.0156,627.7168 Q627.2813,627.4512 627.4219,627.373 Q627.5781,627.2949 627.7813,627.2949 Q628.1094,627.2949 628.3594,627.5605 Q628.625,627.8105 628.625,628.1543 Q628.625,628.498 628.2813,628.9043 Q627.7813,629.4824 626.9844,629.8105 Q625.9063,630.2637 624.6094,630.2637 Q623.0938,630.2637 621.8906,629.6387 Q620.9063,629.1387 620.2188,628.0762 Q619.5313,626.998 619.5313,625.7168 L619.5313,624.5605 Q619.5313,623.2324 620.1406,622.0918 Q620.7656,620.9355 621.8594,620.3262 Q622.9531,619.7012 624.1875,619.7012 Q624.9219,619.7012 625.5625,619.873 Q626.2188,620.0293 626.7656,620.3887 Z " fill="#000000"/><text fill="#000000" font-family="sans-serif" font-size="14" lengthAdjust="spacing" textLength="128.3994" x="638" y="630.3105">AuthorizationService</text><line style="stroke:#181818;stroke-width:0.5;" x1="610" x2="768.3994" y1="640.5137" y2="640.5137"/><line style="stroke:#181818;stroke-width:0.5;" x1="610" x2="768.3994" y1="648.5137" y2="648.5137"/></g><!--link DecommissionFigureUI to FigureController--><g id="link_DecommissionFigureUI_FigureController"><path codeLine="46" d="M459.18,184.2937 C452.79,214.5437 446.0494,246.4831 440.0494,274.9031 " fill="none" id="DecommissionFigureUI-to-FigureController" style="stroke:#181818;stroke-width:1.0;"/><polygon fill="#181818" points="438.81,280.7737,444.5828,272.794,439.8428,275.8815,436.7554,271.1415,438.81,280.7737" style="stroke:#181818;stroke-width:1.0;"/></g><!--link FigureController to FigureService--><g id="link_FigureController_FigureService"><path codeLine="47" d="M430,366.1837 C430,384.6137 430,400.4637 430,419.8737 " fill="none" id="FigureController-to-FigureService" style="stroke:#181818;stroke-width:1.0;"/><polygon fill="#181818" points="430,425.8737,434,416.8737,430,420.8737,426,416.8737,430,425.8737" style="stroke:#181818;stroke-width:1.0;"/></g><!--link FigureService to FigureRepository--><g id="link_FigureService_FigureRepository"><path codeLine="48" d="M430,530.2137 C430,549.6037 430,565.4137 430,583.8137 " fill="none" id="FigureService-to-FigureRepository" style="stroke:#181818;stroke-width:1.0;"/><polygon fill="#181818" points="430,589.8137,434,580.8137,430,584.8137,426,580.8137,430,589.8137" style="stroke:#181818;stroke-width:1.0;"/></g><!--link FigureService to AuthorizationService--><g id="link_FigureService_AuthorizationService"><path codeLine="49" d="M516.96,530.2137 C561.93,556.6937 609.4299,584.659 644.5299,605.329 " fill="none" id="FigureService-to-AuthorizationService" style="stroke:#181818;stroke-width:1.0;"/><polygon fill="#181818" points="649.7,608.3737,643.9746,600.36,645.3916,605.8365,639.9151,607.2535,649.7,608.3737" style="stroke:#181818;stroke-width:1.0;"/></g><!--reverse link FigureRepository to JpaFigureRepository--><g id="link_FigureRepository_JpaFigureRepository"><path codeLine="50" d="M333.5171,683.3236 C297.0971,702.1336 270.14,716.0437 233.69,734.8537 " fill="none" id="FigureRepository-backto-JpaFigureRepository" style="stroke:#181818;stroke-width:1.0;stroke-dasharray:7.0,7.0;"/><polygon fill="none" points="349.51,675.0637,330.7638,677.9926,336.2704,688.6546,349.51,675.0637" style="stroke:#181818;stroke-width:1.0;"/></g><!--reverse link FigureRepository to InMemoryFigureRepository--><g id="link_FigureRepository_InMemoryFigureRepository"><path codeLine="51" d="M436.6693,693.1523 C438.7693,711.9423 439.25,716.1937 441.35,734.9637 " fill="none" id="FigureRepository-backto-InMemoryFigureRepository" style="stroke:#181818;stroke-width:1.0;stroke-dasharray:7.0,7.0;"/><polygon fill="none" points="434.67,675.2637,430.7064,693.8187,442.6321,692.4859,434.67,675.2637" style="stroke:#181818;stroke-width:1.0;"/></g><!--SRC=[nLJBQiCm4BpdAqHE3Y7v01C2eQ6Gqb1esW_OoXjdgImPIKv9slvxvSgE5JyEXTBgufLsTcSyMZi7_Wefil4jfOL6jWNfjXbAEsRl8-OM5s0CMoDNMKR6a98U-hof0EMQSIMjLaAWZfdFtrnEBgYfEQYtQD9K9MHo0QTTmJaQ4-s_2-i67lSv2bHK8WDUIc9shsGQd9WLjtHqRLwK4WWoe0jUOWqMor8EeWoVACD09rhV98BhNfChpBhLBqgwJOCAIfojP4_HfALvQjNEQf9fcV7HqBitheOkUEDsg8_4B_vLsuObwTnXs_4w66AlMeRK6dDLbpsws91L-jJaeR27SynMxg4qdS4wybzIHjAYteFJqwOF14xLVbFxNW-Bw_QGbq90B7pfChXNEFx0bxiS_ezy8xUOESO_Lk0qzFuEPhDbzzllZ6s3giVWUhQQV31ENKZlG7MCM7pCvtrtD80SCdJq1G00]--></g></svg>