<svg xmlns="http://www.w3.org/2000/svg" xmlns:xlink="http://www.w3.org/1999/xlink" contentStyleType="text/css" height="1049px" preserveAspectRatio="none" style="width:1295px;height:1049px;background:#FFFFFF;" version="1.1" viewBox="0 0 1295 1049" width="1295px" zoomAndPan="magnify"><defs/><g><rect fill="#FFFFFF" height="863.6445" style="stroke:#181818;stroke-width:1.0;" width="10" x="59.0171" y="93.6211"/><rect fill="#FFFFFF" height="333.6191" style="stroke:#181818;stroke-width:1.0;" width="10" x="319.9331" y="116.9121"/><rect fill="#FFFFFF" height="31.291" style="stroke:#181818;stroke-width:1.0;" width="10" x="319.9331" y="481.8223"/><rect fill="#FFFFFF" height="403.8613" style="stroke:#181818;stroke-width:1.0;" width="10" x="319.9331" y="544.4043"/><rect fill="#FFFFFF" height="271.0371" style="stroke:#181818;stroke-width:1.0;" width="10" x="598.9673" y="148.2031"/><rect fill="#FFFFFF" height="42.291" style="stroke:#181818;stroke-width:1.0;" width="10" x="603.9673" y="250.0762"/><rect fill="#FFFFFF" height="42.291" style="stroke:#181818;stroke-width:1.0;" width="10" x="603.9673" y="338.6582"/><rect fill="#FFFFFF" height="279.0371" style="stroke:#181818;stroke-width:1.0;" width="10" x="598.9673" y="637.9375"/><rect fill="#FFFFFF" height="31.291" style="stroke:#181818;stroke-width:1.0;" width="10" x="901.0288" y="179.4941"/><rect fill="#FFFFFF" height="31.291" style="stroke:#181818;stroke-width:1.0;" width="10" x="901.0288" y="669.2285"/><rect fill="#FFFFFF" height="31.291" style="stroke:#181818;stroke-width:1.0;" width="10" x="901.0288" y="854.3926"/><rect fill="#FFFFFF" height="30" style="stroke:#181818;stroke-width:1.0;" width="10" x="1052.6523" y="731.8105"/><rect fill="#FFFFFF" height="30" style="stroke:#181818;stroke-width:1.0;" width="10" x="1052.6523" y="793.1016"/><line style="stroke:#181818;stroke-width:0.5;stroke-dasharray:5.0,5.0;" x1="64" x2="64" y1="83.6211" y2="966.2656"/><line style="stroke:#181818;stroke-width:0.5;stroke-dasharray:5.0,5.0;" x1="324.0024" x2="324.0024" y1="83.6211" y2="966.2656"/><line style="stroke:#181818;stroke-width:0.5;stroke-dasharray:5.0,5.0;" x1="603.6919" x2="603.6919" y1="83.6211" y2="966.2656"/><line style="stroke:#181818;stroke-width:0.5;stroke-dasharray:5.0,5.0;" x1="905.4878" x2="905.4878" y1="83.6211" y2="966.2656"/><line style="stroke:#181818;stroke-width:0.5;stroke-dasharray:5.0,5.0;" x1="1057.5698" x2="1057.5698" y1="83.6211" y2="966.2656"/><line style="stroke:#181818;stroke-width:0.5;stroke-dasharray:5.0,5.0;" x1="1204.7349" x2="1204.7349" y1="593.5254" y2="966.2656"/><text fill="#000000" font-family="sans-serif" font-size="14" lengthAdjust="spacing" textLength="112.0342" x="5" y="80.1074">CRM Collaborator</text><ellipse cx="64.0171" cy="13.5" fill="#E2E2F0" rx="8" ry="8" style="stroke:#181818;stroke-width:0.5;"/><path d="M64.0171,21.5 L64.0171,48.5 M51.0171,29.5 L77.0171,29.5 M64.0171,48.5 L51.0171,63.5 M64.0171,48.5 L77.0171,63.5 " fill="none" style="stroke:#181818;stroke-width:0.5;"/><text fill="#000000" font-family="sans-serif" font-size="14" lengthAdjust="spacing" textLength="112.0342" x="5" y="980.373">CRM Collaborator</text><ellipse cx="64.0171" cy="992.3867" fill="#E2E2F0" rx="8" ry="8" style="stroke:#181818;stroke-width:0.5;"/><path d="M64.0171,1000.3867 L64.0171,1027.3867 M51.0171,1008.3867 L77.0171,1008.3867 M64.0171,1027.3867 L51.0171,1042.3867 M64.0171,1027.3867 L77.0171,1042.3867 " fill="none" style="stroke:#181818;stroke-width:0.5;"/><rect fill="#E2E2F0" height="32.6211" rx="2.5" ry="2.5" style="stroke:#181818;stroke-width:0.5;" width="147.8613" x="251.0024" y="50"/><text fill="#000000" font-family="sans-serif" font-size="14" lengthAdjust="spacing" textLength="133.8613" x="258.0024" y="72.1074">:AddVideoProposalUI</text><rect fill="#E2E2F0" height="32.6211" rx="2.5" ry="2.5" style="stroke:#181818;stroke-width:0.5;" width="147.8613" x="251.0024" y="965.2656"/><text fill="#000000" font-family="sans-serif" font-size="14" lengthAdjust="spacing" textLength="133.8613" x="258.0024" y="987.373">:AddVideoProposalUI</text><rect fill="#E2E2F0" height="32.6211" rx="2.5" ry="2.5" style="stroke:#181818;stroke-width:0.5;" width="194.5508" x="506.6919" y="50"/><text fill="#000000" font-family="sans-serif" font-size="14" lengthAdjust="spacing" textLength="180.5508" x="513.6919" y="72.1074">:AddVideoProposalController</text><rect fill="#E2E2F0" height="32.6211" rx="2.5" ry="2.5" style="stroke:#181818;stroke-width:0.5;" width="194.5508" x="506.6919" y="965.2656"/><text fill="#000000" font-family="sans-serif" font-size="14" lengthAdjust="spacing" textLength="180.5508" x="513.6919" y="987.373">:AddVideoProposalController</text><rect fill="#E2E2F0" height="32.6211" rx="2.5" ry="2.5" style="stroke:#181818;stroke-width:0.5;" width="175.082" x="818.4878" y="50"/><text fill="#000000" font-family="sans-serif" font-size="14" lengthAdjust="spacing" textLength="161.082" x="825.4878" y="72.1074">:ShowProposalRepository</text><rect fill="#E2E2F0" height="32.6211" rx="2.5" ry="2.5" style="stroke:#181818;stroke-width:0.5;" width="175.082" x="818.4878" y="965.2656"/><text fill="#000000" font-family="sans-serif" font-size="14" lengthAdjust="spacing" textLength="161.082" x="825.4878" y="987.373">:ShowProposalRepository</text><rect fill="#E2E2F0" height="51.2422" rx="2.5" ry="2.5" style="stroke:#181818;stroke-width:0.5;" width="108.165" x="1003.5698" y="31.3789"/><text fill="#000000" font-family="sans-serif" font-size="14" lengthAdjust="spacing" textLength="87.9375" x="1013.6836" y="53.4863">showProposal</text><text fill="#000000" font-family="sans-serif" font-size="14" lengthAdjust="spacing" textLength="94.165" x="1010.5698" y="72.1074">:ShowProposal</text><rect fill="#E2E2F0" height="51.2422" rx="2.5" ry="2.5" style="stroke:#181818;stroke-width:0.5;" width="108.165" x="1003.5698" y="965.2656"/><text fill="#000000" font-family="sans-serif" font-size="14" lengthAdjust="spacing" textLength="87.9375" x="1013.6836" y="987.373">showProposal</text><text fill="#000000" font-family="sans-serif" font-size="14" lengthAdjust="spacing" textLength="94.165" x="1010.5698" y="1005.9941">:ShowProposal</text><rect fill="#E2E2F0" height="51.2422" rx="2.5" ry="2.5" style="stroke:#181818;stroke-width:0.5;" width="167.3027" x="1121.7349" y="965.2656"/><text fill="#000000" font-family="sans-serif" font-size="14" lengthAdjust="spacing" textLength="143.9717" x="1133.4004" y="987.373">addVideoProposalDTO</text><text fill="#000000" font-family="sans-serif" font-size="14" lengthAdjust="spacing" textLength="153.3027" x="1128.7349" y="1005.9941">::AddVideoProposalDTO</text><rect fill="#FFFFFF" height="863.6445" style="stroke:#181818;stroke-width:1.0;" width="10" x="59.0171" y="93.6211"/><rect fill="#FFFFFF" height="333.6191" style="stroke:#181818;stroke-width:1.0;" width="10" x="319.9331" y="116.9121"/><rect fill="#FFFFFF" height="31.291" style="stroke:#181818;stroke-width:1.0;" width="10" x="319.9331" y="481.8223"/><rect fill="#FFFFFF" height="403.8613" style="stroke:#181818;stroke-width:1.0;" width="10" x="319.9331" y="544.4043"/><rect fill="#FFFFFF" height="271.0371" style="stroke:#181818;stroke-width:1.0;" width="10" x="598.9673" y="148.2031"/><rect fill="#FFFFFF" height="42.291" style="stroke:#181818;stroke-width:1.0;" width="10" x="603.9673" y="250.0762"/><rect fill="#FFFFFF" height="42.291" style="stroke:#181818;stroke-width:1.0;" width="10" x="603.9673" y="338.6582"/><rect fill="#FFFFFF" height="279.0371" style="stroke:#181818;stroke-width:1.0;" width="10" x="598.9673" y="637.9375"/><rect fill="#FFFFFF" height="31.291" style="stroke:#181818;stroke-width:1.0;" width="10" x="901.0288" y="179.4941"/><rect fill="#FFFFFF" height="31.291" style="stroke:#181818;stroke-width:1.0;" width="10" x="901.0288" y="669.2285"/><rect fill="#FFFFFF" height="31.291" style="stroke:#181818;stroke-width:1.0;" width="10" x="901.0288" y="854.3926"/><rect fill="#FFFFFF" height="30" style="stroke:#181818;stroke-width:1.0;" width="10" x="1052.6523" y="731.8105"/><rect fill="#FFFFFF" height="30" style="stroke:#181818;stroke-width:1.0;" width="10" x="1052.6523" y="793.1016"/><polygon fill="#181818" points="307.9331,112.9121,317.9331,116.9121,307.9331,120.9121,311.9331,116.9121" style="stroke:#181818;stroke-width:1.0;"/><line style="stroke:#181818;stroke-width:1.0;" x1="69.0171" x2="313.9331" y1="116.9121" y2="116.9121"/><text fill="#000000" font-family="sans-serif" font-size="13" lengthAdjust="spacing" textLength="174.1606" x="76.0171" y="111.6494">asks to Add Video to Proposal</text><polygon fill="#181818" points="586.9673,144.2031,596.9673,148.2031,586.9673,152.2031,590.9673,148.2031" style="stroke:#181818;stroke-width:1.0;"/><line style="stroke:#181818;stroke-width:1.0;" x1="329.9331" x2="592.9673" y1="148.2031" y2="148.2031"/><text fill="#000000" font-family="sans-serif" font-size="13" lengthAdjust="spacing" textLength="182.0825" x="336.9331" y="142.9404">listProposalsForVideoAddition()</text><polygon fill="#181818" points="889.0288,175.4941,899.0288,179.4941,889.0288,183.4941,893.0288,179.4941" style="stroke:#181818;stroke-width:1.0;"/><line style="stroke:#181818;stroke-width:1.0;" x1="608.9673" x2="895.0288" y1="179.4941" y2="179.4941"/><text fill="#000000" font-family="sans-serif" font-size="13" lengthAdjust="spacing" textLength="152.9912" x="615.9673" y="174.2314">findByStatus("CREATED")</text><polygon fill="#181818" points="619.9673,206.7852,609.9673,210.7852,619.9673,214.7852,615.9673,210.7852" style="stroke:#181818;stroke-width:1.0;"/><line style="stroke:#181818;stroke-width:1.0;stroke-dasharray:2.0,2.0;" x1="613.9673" x2="905.0288" y1="210.7852" y2="210.7852"/><text fill="#000000" font-family="sans-serif" font-size="13" lengthAdjust="spacing" textLength="99.7153" x="625.9673" y="205.5225">listShowProposal</text><line style="stroke:#181818;stroke-width:1.0;" x1="608.9673" x2="655.9673" y1="237.0762" y2="237.0762"/><line style="stroke:#181818;stroke-width:1.0;" x1="655.9673" x2="655.9673" y1="237.0762" y2="250.0762"/><line style="stroke:#181818;stroke-width:1.0;" x1="614.9673" x2="655.9673" y1="250.0762" y2="250.0762"/><polygon fill="#181818" points="624.9673,246.0762,614.9673,250.0762,624.9673,254.0762,620.9673,250.0762" style="stroke:#181818;stroke-width:1.0;"/><text fill="#000000" font-family="sans-serif" font-size="13" lengthAdjust="spacing" textLength="268.0615" x="620.9673" y="231.8135">filterProposalsWithoutVideo(listShowProposal)</text><line style="stroke:#181818;stroke-width:1.0;stroke-dasharray:2.0,2.0;" x1="613.9673" x2="655.9673" y1="291.3672" y2="291.3672"/><line style="stroke:#181818;stroke-width:1.0;stroke-dasharray:2.0,2.0;" x1="655.9673" x2="655.9673" y1="291.3672" y2="304.3672"/><line style="stroke:#181818;stroke-width:1.0;stroke-dasharray:2.0,2.0;" x1="608.9673" x2="655.9673" y1="304.3672" y2="304.3672"/><polygon fill="#181818" points="618.9673,300.3672,608.9673,304.3672,618.9673,308.3672,614.9673,304.3672" style="stroke:#181818;stroke-width:1.0;"/><text fill="#000000" font-family="sans-serif" font-size="13" lengthAdjust="spacing" textLength="99.7153" x="620.9673" y="286.1045">listShowProposal</text><line style="stroke:#181818;stroke-width:1.0;" x1="608.9673" x2="655.9673" y1="325.6582" y2="325.6582"/><line style="stroke:#181818;stroke-width:1.0;" x1="655.9673" x2="655.9673" y1="325.6582" y2="338.6582"/><line style="stroke:#181818;stroke-width:1.0;" x1="614.9673" x2="655.9673" y1="338.6582" y2="338.6582"/><polygon fill="#181818" points="624.9673,334.6582,614.9673,338.6582,624.9673,342.6582,620.9673,338.6582" style="stroke:#181818;stroke-width:1.0;"/><text fill="#000000" font-family="sans-serif" font-size="13" lengthAdjust="spacing" textLength="146.6563" x="620.9673" y="320.3955">toDTO(listShowProposal)</text><line style="stroke:#181818;stroke-width:1.0;stroke-dasharray:2.0,2.0;" x1="613.9673" x2="655.9673" y1="379.9492" y2="379.9492"/><line style="stroke:#181818;stroke-width:1.0;stroke-dasharray:2.0,2.0;" x1="655.9673" x2="655.9673" y1="379.9492" y2="392.9492"/><line style="stroke:#181818;stroke-width:1.0;stroke-dasharray:2.0,2.0;" x1="608.9673" x2="655.9673" y1="392.9492" y2="392.9492"/><polygon fill="#181818" points="618.9673,388.9492,608.9673,392.9492,618.9673,396.9492,614.9673,392.9492" style="stroke:#181818;stroke-width:1.0;"/><text fill="#000000" font-family="sans-serif" font-size="13" lengthAdjust="spacing" textLength="127.1563" x="620.9673" y="374.6865">listShowProposalDTO</text><polygon fill="#181818" points="340.9331,415.2402,330.9331,419.2402,340.9331,423.2402,336.9331,419.2402" style="stroke:#181818;stroke-width:1.0;"/><line style="stroke:#181818;stroke-width:1.0;stroke-dasharray:2.0,2.0;" x1="334.9331" x2="602.9673" y1="419.2402" y2="419.2402"/><text fill="#000000" font-family="sans-serif" font-size="13" lengthAdjust="spacing" textLength="127.1563" x="346.9331" y="413.9775">listShowProposalDTO</text><polygon fill="#181818" points="80.0171,446.5313,70.0171,450.5313,80.0171,454.5313,76.0171,450.5313" style="stroke:#181818;stroke-width:1.0;"/><line style="stroke:#181818;stroke-width:1.0;" x1="74.0171" x2="323.9331" y1="450.5313" y2="450.5313"/><text fill="#000000" font-family="sans-serif" font-size="13" lengthAdjust="spacing" textLength="226.916" x="86.0171" y="445.2686">display proposal and asks to select one</text><polygon fill="#181818" points="307.9331,477.8223,317.9331,481.8223,307.9331,485.8223,311.9331,481.8223" style="stroke:#181818;stroke-width:1.0;"/><line style="stroke:#181818;stroke-width:1.0;" x1="69.0171" x2="313.9331" y1="481.8223" y2="481.8223"/><text fill="#000000" font-family="sans-serif" font-size="13" lengthAdjust="spacing" textLength="89.6099" x="76.0171" y="476.5596">Select proposal</text><polygon fill="#181818" points="80.0171,509.1133,70.0171,513.1133,80.0171,517.1133,76.0171,513.1133" style="stroke:#181818;stroke-width:1.0;"/><line style="stroke:#181818;stroke-width:1.0;" x1="74.0171" x2="323.9331" y1="513.1133" y2="513.1133"/><text fill="#000000" font-family="sans-serif" font-size="13" lengthAdjust="spacing" textLength="106.228" x="86.0171" y="507.8506">Request video link</text><polygon fill="#181818" points="307.9331,540.4043,317.9331,544.4043,307.9331,548.4043,311.9331,544.4043" style="stroke:#181818;stroke-width:1.0;"/><line style="stroke:#181818;stroke-width:1.0;" x1="69.0171" x2="313.9331" y1="544.4043" y2="544.4043"/><text fill="#000000" font-family="sans-serif" font-size="13" lengthAdjust="spacing" textLength="88.8799" x="76.0171" y="539.1416">Enter video link</text><polygon fill="#181818" points="1109.7349,571.6953,1119.7349,575.6953,1109.7349,579.6953,1113.7349,575.6953" style="stroke:#181818;stroke-width:1.0;"/><line style="stroke:#181818;stroke-width:1.0;" x1="329.9331" x2="1115.7349" y1="575.6953" y2="575.6953"/><text fill="#000000" font-family="sans-serif" font-size="13" lengthAdjust="spacing" textLength="231.937" x="336.9331" y="570.4326">create(proposalDTO.number, videoLink)</text><rect fill="#E2E2F0" height="51.2422" rx="2.5" ry="2.5" style="stroke:#181818;stroke-width:0.5;" width="167.3027" x="1121.7349" y="552.4043"/><text fill="#000000" font-family="sans-serif" font-size="14" lengthAdjust="spacing" textLength="143.9717" x="1133.4004" y="574.5117">addVideoProposalDTO</text><text fill="#000000" font-family="sans-serif" font-size="14" lengthAdjust="spacing" textLength="153.3027" x="1128.7349" y="593.1328">::AddVideoProposalDTO</text><polygon fill="#181818" points="586.9673,633.9375,596.9673,637.9375,586.9673,641.9375,590.9673,637.9375" style="stroke:#181818;stroke-width:1.0;"/><line style="stroke:#181818;stroke-width:1.0;" x1="329.9331" x2="592.9673" y1="637.9375" y2="637.9375"/><text fill="#000000" font-family="sans-serif" font-size="13" lengthAdjust="spacing" textLength="250.0342" x="336.9331" y="632.6748">addProposalVideo(AddVideoProposalDTO)</text><polygon fill="#181818" points="889.0288,665.2285,899.0288,669.2285,889.0288,673.2285,893.0288,669.2285" style="stroke:#181818;stroke-width:1.0;"/><line style="stroke:#181818;stroke-width:1.0;" x1="608.9673" x2="895.0288" y1="669.2285" y2="669.2285"/><text fill="#000000" font-family="sans-serif" font-size="13" lengthAdjust="spacing" textLength="238.437" x="615.9673" y="663.9658">findByProposalNumber(proposalNumber)</text><polygon fill="#181818" points="619.9673,696.5195,609.9673,700.5195,619.9673,704.5195,615.9673,700.5195" style="stroke:#181818;stroke-width:1.0;"/><line style="stroke:#181818;stroke-width:1.0;stroke-dasharray:2.0,2.0;" x1="613.9673" x2="905.0288" y1="700.5195" y2="700.5195"/><text fill="#000000" font-family="sans-serif" font-size="13" lengthAdjust="spacing" textLength="147.4307" x="625.9673" y="695.2568">Optional&lt;ShowProposal&gt;</text><polygon fill="#181818" points="1040.6523,727.8105,1050.6523,731.8105,1040.6523,735.8105,1044.6523,731.8105" style="stroke:#181818;stroke-width:1.0;"/><line style="stroke:#181818;stroke-width:1.0;" x1="608.9673" x2="1046.6523" y1="731.8105" y2="731.8105"/><text fill="#000000" font-family="sans-serif" font-size="13" lengthAdjust="spacing" textLength="154.6543" x="615.9673" y="726.5479">changeVideoTo(videoLink)</text><polygon fill="#181818" points="1040.6523,789.1016,1050.6523,793.1016,1040.6523,797.1016,1044.6523,793.1016" style="stroke:#181818;stroke-width:1.0;"/><line style="stroke:#181818;stroke-width:1.0;" x1="608.9673" x2="1046.6523" y1="793.1016" y2="793.1016"/><text fill="#000000" font-family="sans-serif" font-size="13" lengthAdjust="spacing" textLength="201.6016" x="615.9673" y="787.8389">changeSimulationStatus(PASSED)</text><polygon fill="#181818" points="889.0288,850.3926,899.0288,854.3926,889.0288,858.3926,893.0288,854.3926" style="stroke:#181818;stroke-width:1.0;"/><line style="stroke:#181818;stroke-width:1.0;" x1="608.9673" x2="895.0288" y1="854.3926" y2="854.3926"/><text fill="#000000" font-family="sans-serif" font-size="13" lengthAdjust="spacing" textLength="85.9854" x="615.9673" y="849.1299">save(proposal)</text><polygon fill="#181818" points="619.9673,881.6836,609.9673,885.6836,619.9673,889.6836,615.9673,885.6836" style="stroke:#181818;stroke-width:1.0;"/><line style="stroke:#181818;stroke-width:1.0;stroke-dasharray:2.0,2.0;" x1="613.9673" x2="905.0288" y1="885.6836" y2="885.6836"/><text fill="#000000" font-family="sans-serif" font-size="13" lengthAdjust="spacing" textLength="83.8271" x="625.9673" y="880.4209">ShowProposal</text><polygon fill="#181818" points="340.9331,912.9746,330.9331,916.9746,340.9331,920.9746,336.9331,916.9746" style="stroke:#181818;stroke-width:1.0;"/><line style="stroke:#181818;stroke-width:1.0;stroke-dasharray:2.0,2.0;" x1="334.9331" x2="602.9673" y1="916.9746" y2="916.9746"/><text fill="#000000" font-family="sans-serif" font-size="13" lengthAdjust="spacing" textLength="111.2681" x="346.9331" y="911.7119">ShowProposalDTO</text><polygon fill="#181818" points="80.0171,944.2656,70.0171,948.2656,80.0171,952.2656,76.0171,948.2656" style="stroke:#181818;stroke-width:1.0;"/><line style="stroke:#181818;stroke-width:1.0;stroke-dasharray:2.0,2.0;" x1="74.0171" x2="323.9331" y1="948.2656" y2="948.2656"/><text fill="#000000" font-family="sans-serif" font-size="13" lengthAdjust="spacing" textLength="149.5571" x="86.0171" y="943.0029">Display success message</text><!--SRC=[hPJHRjCm58RlynH7lSecnWD4Q59fYuG4R6eAt71pbdYhDTSsjbFKj-V4QM8dSu5CtAInw__pyU_p1okd32nMsy-mKaBWWp98Cmj02zZ-bsaqZbTSetImA9Pr_OtNJDqRfPL5yVMZNzhmlwnRAUaCRS0wT3KC9xfohtxrcYsZ7qurdBp63CEnnaQI7t94y3fz7enLE2bmlRiZyOkwQTf3QgUoB2D7-14TErlZdt1pIySlQD6p1QU02E0HxQ3712KvbJMy5GKF2X3Skdwj_Q2C1n29EwvaVXNaaN5PU6znmPu27hcitvzAXwwnELtkPhdRh1SH9l8olC9DeghOpgncASAuZXZmo8LZPZZOT-xsgd7-SFaKdZvap9vHtGN26E0KtUx_huEW5qgPKjgscQ7ksiOtNG4rjrhWQUXkG5aFFMYPO9K39LdCQbjlrB9bjqodcdIqsPRzR9XrSFHzBRXydd17s8saIu_N9fgVydHzNK1b6CtdEXp-hMmE3yoywVIVI7wLo0kbjpUiwwP4Rb-PcfxmnTSnbDODPqVeJhS9Hl4klkFR2q6QrDPlJJRjKJunVy2ToYDd1efEX62O-pEsv8T6O5lc-ODnlopBpVfryDXFYyTmjRET-uSFJofFCx8K-djz3fDjgefP2mTwuDEByFm6]--></g></svg>