<svg xmlns="http://www.w3.org/2000/svg" xmlns:xlink="http://www.w3.org/1999/xlink" contentStyleType="text/css" height="1399px" preserveAspectRatio="none" style="width:1103px;height:1399px;background:#FFFFFF;" version="1.1" viewBox="0 0 1103 1399" width="1103px" zoomAndPan="magnify"><defs/><g><!--class AddVideoProposalUI--><g id="elem_AddVideoProposalUI"><rect codeLine="6" fill="#F1F1F1" height="103.8633" id="AddVideoProposalUI" rx="2.5" ry="2.5" style="stroke:#181818;stroke-width:0.5;" width="285.1436" x="733.5" y="7"/><ellipse cx="806.8359" cy="23" fill="#ADD1B2" rx="11" ry="11" style="stroke:#181818;stroke-width:1.0;"/><path d="M809.6016,18.875 Q809.7578,18.6563 809.9453,18.5469 Q810.1328,18.4375 810.3516,18.4375 Q810.7266,18.4375 810.9609,18.7031 Q811.1953,18.9531 811.1953,19.5625 L811.1953,21.0156 Q811.1953,21.625 810.9609,21.8906 Q810.7266,22.1563 810.3516,22.1563 Q810.0078,22.1563 809.8047,21.9531 Q809.6016,21.7656 809.4922,21.25 Q809.4453,20.8906 809.2578,20.7031 Q808.9297,20.3281 808.3203,20.1094 Q807.7109,19.8906 807.0859,19.8906 Q806.3203,19.8906 805.6797,20.2188 Q805.0547,20.5469 804.5547,21.2969 Q804.0703,22.0469 804.0703,23.0781 L804.0703,24.1719 Q804.0703,25.4063 804.9609,26.2344 Q805.8516,27.0469 807.4453,27.0469 Q808.3828,27.0469 809.0391,26.7969 Q809.4297,26.6406 809.8516,26.2031 Q810.1172,25.9375 810.2578,25.8594 Q810.4141,25.7813 810.6172,25.7813 Q810.9453,25.7813 811.1953,26.0469 Q811.4609,26.2969 811.4609,26.6406 Q811.4609,26.9844 811.1172,27.3906 Q810.6172,27.9688 809.8203,28.2969 Q808.7422,28.75 807.4453,28.75 Q805.9297,28.75 804.7266,28.125 Q803.7422,27.625 803.0547,26.5625 Q802.3672,25.4844 802.3672,24.2031 L802.3672,23.0469 Q802.3672,21.7188 802.9766,20.5781 Q803.6016,19.4219 804.6953,18.8125 Q805.7891,18.1875 807.0234,18.1875 Q807.7578,18.1875 808.3984,18.3594 Q809.0547,18.5156 809.6016,18.875 Z " fill="#000000"/><text fill="#000000" font-family="sans-serif" font-size="14" lengthAdjust="spacing" textLength="129.9717" x="827.3359" y="28.7969">AddVideoProposalUI</text><line style="stroke:#181818;stroke-width:0.5;" x1="734.5" x2="1017.6436" y1="39" y2="39"/><text fill="#000000" font-family="sans-serif" font-size="14" lengthAdjust="spacing" textLength="273.1436" x="739.5" y="58.1074">-theController : AddVideoProposalController</text><line style="stroke:#181818;stroke-width:0.5;" x1="734.5" x2="1017.6436" y1="65.6211" y2="65.6211"/><text fill="#000000" font-family="sans-serif" font-size="14" lengthAdjust="spacing" textLength="129.5889" x="739.5" y="84.7285">+doShow() : boolean</text><text fill="#000000" font-family="sans-serif" font-size="14" lengthAdjust="spacing" textLength="118.6787" x="739.5" y="103.3496">+headline() : String</text></g><!--class AddVideoProposalController--><g id="elem_AddVideoProposalController"><rect codeLine="12" fill="#F1F1F1" height="122.4844" id="AddVideoProposalController" rx="2.5" ry="2.5" style="stroke:#181818;stroke-width:0.5;" width="452.0703" x="371" y="171"/><ellipse cx="504.4546" cy="187" fill="#ADD1B2" rx="11" ry="11" style="stroke:#181818;stroke-width:1.0;"/><path d="M507.2202,182.875 Q507.3765,182.6563 507.564,182.5469 Q507.7515,182.4375 507.9702,182.4375 Q508.3452,182.4375 508.5796,182.7031 Q508.814,182.9531 508.814,183.5625 L508.814,185.0156 Q508.814,185.625 508.5796,185.8906 Q508.3452,186.1563 507.9702,186.1563 Q507.6265,186.1563 507.4233,185.9531 Q507.2202,185.7656 507.1108,185.25 Q507.064,184.8906 506.8765,184.7031 Q506.5483,184.3281 505.939,184.1094 Q505.3296,183.8906 504.7046,183.8906 Q503.939,183.8906 503.2983,184.2188 Q502.6733,184.5469 502.1733,185.2969 Q501.689,186.0469 501.689,187.0781 L501.689,188.1719 Q501.689,189.4063 502.5796,190.2344 Q503.4702,191.0469 505.064,191.0469 Q506.0015,191.0469 506.6577,190.7969 Q507.0483,190.6406 507.4702,190.2031 Q507.7358,189.9375 507.8765,189.8594 Q508.0327,189.7813 508.2358,189.7813 Q508.564,189.7813 508.814,190.0469 Q509.0796,190.2969 509.0796,190.6406 Q509.0796,190.9844 508.7358,191.3906 Q508.2358,191.9688 507.439,192.2969 Q506.3608,192.75 505.064,192.75 Q503.5483,192.75 502.3452,192.125 Q501.3608,191.625 500.6733,190.5625 Q499.9858,189.4844 499.9858,188.2031 L499.9858,187.0469 Q499.9858,185.7188 500.5952,184.5781 Q501.2202,183.4219 502.314,182.8125 Q503.4077,182.1875 504.6421,182.1875 Q505.3765,182.1875 506.0171,182.3594 Q506.6733,182.5156 507.2202,182.875 Z " fill="#000000"/><text fill="#000000" font-family="sans-serif" font-size="14" lengthAdjust="spacing" textLength="176.6611" x="524.9546" y="192.7969">AddVideoProposalController</text><line style="stroke:#181818;stroke-width:0.5;" x1="372" x2="822.0703" y1="203" y2="203"/><text fill="#000000" font-family="sans-serif" font-size="14" lengthAdjust="spacing" textLength="178.9785" x="377" y="222.1074">-authz : AuthorizationService</text><text fill="#000000" font-family="sans-serif" font-size="14" lengthAdjust="spacing" textLength="294.1436" x="377" y="240.7285">-proposalRepository : ShowProposalRepository</text><line style="stroke:#181818;stroke-width:0.5;" x1="372" x2="822.0703" y1="248.2422" y2="248.2422"/><text fill="#000000" font-family="sans-serif" font-size="14" lengthAdjust="spacing" textLength="398.8086" x="377" y="267.3496">+listProposalsForVideoAddition() : Iterable&lt;ShowProposalDTO&gt;</text><text fill="#000000" font-family="sans-serif" font-size="14" lengthAdjust="spacing" textLength="440.0703" x="377" y="285.9707">+addProposalVideo(dto : AddVideoProposalDTO) : ShowProposalDTO</text></g><!--class ShowProposal--><g id="elem_ShowProposal"><rect codeLine="19" fill="#F1F1F1" height="414.3828" id="ShowProposal" rx="2.5" ry="2.5" style="stroke:#181818;stroke-width:0.5;" width="371.9121" x="180" y="610"/><ellipse cx="316.5684" cy="632.291" fill="#ADD1B2" rx="11" ry="11" style="stroke:#181818;stroke-width:1.0;"/><path d="M319.334,628.166 Q319.4902,627.9473 319.6777,627.8379 Q319.8652,627.7285 320.084,627.7285 Q320.459,627.7285 320.6934,627.9941 Q320.9277,628.2441 320.9277,628.8535 L320.9277,630.3066 Q320.9277,630.916 320.6934,631.1816 Q320.459,631.4473 320.084,631.4473 Q319.7402,631.4473 319.5371,631.2441 Q319.334,631.0566 319.2246,630.541 Q319.1777,630.1816 318.9902,629.9941 Q318.6621,629.6191 318.0527,629.4004 Q317.4434,629.1816 316.8184,629.1816 Q316.0527,629.1816 315.4121,629.5098 Q314.7871,629.8379 314.2871,630.5879 Q313.8027,631.3379 313.8027,632.3691 L313.8027,633.4629 Q313.8027,634.6973 314.6934,635.5254 Q315.584,636.3379 317.1777,636.3379 Q318.1152,636.3379 318.7715,636.0879 Q319.1621,635.9316 319.584,635.4941 Q319.8496,635.2285 319.9902,635.1504 Q320.1465,635.0723 320.3496,635.0723 Q320.6777,635.0723 320.9277,635.3379 Q321.1934,635.5879 321.1934,635.9316 Q321.1934,636.2754 320.8496,636.6816 Q320.3496,637.2598 319.5527,637.5879 Q318.4746,638.041 317.1777,638.041 Q315.6621,638.041 314.459,637.416 Q313.4746,636.916 312.7871,635.8535 Q312.0996,634.7754 312.0996,633.4941 L312.0996,632.3379 Q312.0996,631.0098 312.709,629.8691 Q313.334,628.7129 314.4277,628.1035 Q315.5215,627.4785 316.7559,627.4785 Q317.4902,627.4785 318.1309,627.6504 Q318.7871,627.8066 319.334,628.166 Z " fill="#000000"/><text fill="#000000" font-family="sans-serif" font-size="12" font-style="italic" lengthAdjust="spacing" textLength="94.0723" x="335.1699" y="627.9492">&#171;AggregateRoot&#187;</text><text fill="#000000" font-family="sans-serif" font-size="14" lengthAdjust="spacing" textLength="90.2754" x="337.0684" y="646.0684">ShowProposal</text><line style="stroke:#181818;stroke-width:0.5;" x1="181" x2="550.9121" y1="654.582" y2="654.582"/><text fill="#000000" font-family="sans-serif" font-size="14" lengthAdjust="spacing" textLength="78.5859" x="186" y="673.6895">-number : int</text><text fill="#000000" font-family="sans-serif" font-size="14" lengthAdjust="spacing" textLength="134.5859" x="186" y="692.3105">-customer : Customer</text><text fill="#000000" font-family="sans-serif" font-size="14" lengthAdjust="spacing" textLength="188.3232" x="186" y="710.9316">-showRequest : ShowRequest</text><text fill="#000000" font-family="sans-serif" font-size="14" lengthAdjust="spacing" textLength="132.2686" x="186" y="729.5527">-totalNumDrones : int</text><text fill="#000000" font-family="sans-serif" font-size="14" lengthAdjust="spacing" textLength="183.6406" x="186" y="748.1738">-template : ProposalTemplate</text><text fill="#000000" font-family="sans-serif" font-size="14" lengthAdjust="spacing" textLength="178.999" x="186" y="766.7949">-eventLocation : Coordinates</text><text fill="#000000" font-family="sans-serif" font-size="14" lengthAdjust="spacing" textLength="205.4131" x="186" y="785.416">-eventDateTime : LocalDateTime</text><text fill="#000000" font-family="sans-serif" font-size="14" lengthAdjust="spacing" textLength="118.2822" x="186" y="804.0371">-eventDuration : int</text><text fill="#000000" font-family="sans-serif" font-size="14" lengthAdjust="spacing" textLength="183.6475" x="186" y="822.6582">-status : ShowProposalStatus</text><text fill="#000000" font-family="sans-serif" font-size="14" lengthAdjust="spacing" textLength="224.1025" x="186" y="841.2793">-simulationStatus : SimulationStatus</text><text fill="#000000" font-family="sans-serif" font-size="14" lengthAdjust="spacing" textLength="177.4199" x="186" y="859.9004">-simulationVideoLink : String</text><text fill="#000000" font-family="sans-serif" font-size="14" lengthAdjust="spacing" textLength="154.8818" x="186" y="878.5215">-insuranceValue : double</text><text fill="#000000" font-family="sans-serif" font-size="14" lengthAdjust="spacing" textLength="133.834" x="186" y="897.1426">-proposalText : String</text><text fill="#000000" font-family="sans-serif" font-size="14" lengthAdjust="spacing" textLength="135.4063" x="186" y="915.7637">-sentDate : LocalDate</text><text fill="#000000" font-family="sans-serif" font-size="14" lengthAdjust="spacing" textLength="96.4756" x="186" y="934.3848">-sentBy : Name</text><line style="stroke:#181818;stroke-width:0.5;" x1="181" x2="550.9121" y1="941.8984" y2="941.8984"/><text fill="#000000" font-family="sans-serif" font-size="14" lengthAdjust="spacing" textLength="288.3398" x="186" y="961.0059">+changeVideoTo(newVideoLink : String) : void</text><text fill="#000000" font-family="sans-serif" font-size="14" lengthAdjust="spacing" textLength="359.9121" x="186" y="979.627">+changeSimulationStatus(status : SimulationStatus) : void</text><text fill="#000000" font-family="sans-serif" font-size="14" lengthAdjust="spacing" textLength="190.2578" x="186" y="998.248">+simulationVideoLink() : String</text><text fill="#000000" font-family="sans-serif" font-size="14" lengthAdjust="spacing" textLength="190.2236" x="186" y="1016.8691">+toDTO() : ShowProposalDTO</text></g><!--class ShowProposalDTO--><g id="elem_ShowProposalDTO"><rect codeLine="41" fill="#F1F1F1" height="308.6953" id="ShowProposalDTO" rx="2.5" ry="2.5" style="stroke:#181818;stroke-width:0.5;" width="192.9336" x="508.5" y="1084"/><ellipse cx="541.9979" cy="1100" fill="#ADD1B2" rx="11" ry="11" style="stroke:#181818;stroke-width:1.0;"/><path d="M544.7635,1095.875 Q544.9198,1095.6563 545.1073,1095.5469 Q545.2948,1095.4375 545.5135,1095.4375 Q545.8885,1095.4375 546.1229,1095.7031 Q546.3573,1095.9531 546.3573,1096.5625 L546.3573,1098.0156 Q546.3573,1098.625 546.1229,1098.8906 Q545.8885,1099.1563 545.5135,1099.1563 Q545.1698,1099.1563 544.9667,1098.9531 Q544.7635,1098.7656 544.6542,1098.25 Q544.6073,1097.8906 544.4198,1097.7031 Q544.0917,1097.3281 543.4823,1097.1094 Q542.8729,1096.8906 542.2479,1096.8906 Q541.4823,1096.8906 540.8417,1097.2188 Q540.2167,1097.5469 539.7167,1098.2969 Q539.2323,1099.0469 539.2323,1100.0781 L539.2323,1101.1719 Q539.2323,1102.4063 540.1229,1103.2344 Q541.0135,1104.0469 542.6073,1104.0469 Q543.5448,1104.0469 544.201,1103.7969 Q544.5917,1103.6406 545.0135,1103.2031 Q545.2792,1102.9375 545.4198,1102.8594 Q545.576,1102.7813 545.7792,1102.7813 Q546.1073,1102.7813 546.3573,1103.0469 Q546.6229,1103.2969 546.6229,1103.6406 Q546.6229,1103.9844 546.2792,1104.3906 Q545.7792,1104.9688 544.9823,1105.2969 Q543.9042,1105.75 542.6073,1105.75 Q541.0917,1105.75 539.8885,1105.125 Q538.9042,1104.625 538.2167,1103.5625 Q537.5292,1102.4844 537.5292,1101.2031 L537.5292,1100.0469 Q537.5292,1098.7188 538.1385,1097.5781 Q538.7635,1096.4219 539.8573,1095.8125 Q540.951,1095.1875 542.1854,1095.1875 Q542.9198,1095.1875 543.5604,1095.3594 Q544.2167,1095.5156 544.7635,1095.875 Z " fill="#000000"/><text fill="#000000" font-family="sans-serif" font-size="14" lengthAdjust="spacing" textLength="119.8271" x="560.1085" y="1105.7969">ShowProposalDTO</text><line style="stroke:#181818;stroke-width:0.5;" x1="509.5" x2="700.4336" y1="1116" y2="1116"/><text fill="#000000" font-family="sans-serif" font-size="14" lengthAdjust="spacing" textLength="82.0996" x="514.5" y="1135.1074">+number : int</text><text fill="#000000" font-family="sans-serif" font-size="14" lengthAdjust="spacing" textLength="141.2168" x="514.5" y="1153.7285">+customerVAT : String</text><text fill="#000000" font-family="sans-serif" font-size="14" lengthAdjust="spacing" textLength="133.458" x="514.5" y="1172.3496">+showRequestID : int</text><text fill="#000000" font-family="sans-serif" font-size="14" lengthAdjust="spacing" textLength="135.7822" x="514.5" y="1190.9707">+totalNumDrones : int</text><text fill="#000000" font-family="sans-serif" font-size="14" lengthAdjust="spacing" textLength="180.9336" x="514.5" y="1209.5918">+simulationVideoLink : String</text><text fill="#000000" font-family="sans-serif" font-size="14" lengthAdjust="spacing" textLength="107.0303" x="514.5" y="1228.2129">+latitude : double</text><text fill="#000000" font-family="sans-serif" font-size="14" lengthAdjust="spacing" textLength="118.7129" x="514.5" y="1246.834">+longitude : double</text><text fill="#000000" font-family="sans-serif" font-size="14" lengthAdjust="spacing" textLength="120.2373" x="514.5" y="1265.4551">+eventDate : String</text><text fill="#000000" font-family="sans-serif" font-size="14" lengthAdjust="spacing" textLength="121.0098" x="514.5" y="1284.0762">+eventHour : String</text><text fill="#000000" font-family="sans-serif" font-size="14" lengthAdjust="spacing" textLength="121.7959" x="514.5" y="1302.6973">+eventDuration : int</text><text fill="#000000" font-family="sans-serif" font-size="14" lengthAdjust="spacing" textLength="93.7686" x="514.5" y="1321.3184">+status : String</text><text fill="#000000" font-family="sans-serif" font-size="14" lengthAdjust="spacing" textLength="159.1338" x="514.5" y="1339.9395">+simulationStatus : String</text><text fill="#000000" font-family="sans-serif" font-size="14" lengthAdjust="spacing" textLength="158.3955" x="514.5" y="1358.5605">+insuranceValue : double</text><text fill="#000000" font-family="sans-serif" font-size="14" lengthAdjust="spacing" textLength="141.2373" x="514.5" y="1377.1816">+templateType : String</text><line style="stroke:#181818;stroke-width:0.5;" x1="509.5" x2="700.4336" y1="1384.6953" y2="1384.6953"/></g><!--class AddVideoProposalDTO--><g id="elem_AddVideoProposalDTO"><rect codeLine="58" fill="#F1F1F1" height="103.8633" id="AddVideoProposalDTO" rx="2.5" ry="2.5" style="stroke:#181818;stroke-width:0.5;" width="420.1465" x="658" y="399.5"/><ellipse cx="791.0615" cy="415.5" fill="#ADD1B2" rx="11" ry="11" style="stroke:#181818;stroke-width:1.0;"/><path d="M793.8271,411.375 Q793.9834,411.1563 794.1709,411.0469 Q794.3584,410.9375 794.5771,410.9375 Q794.9521,410.9375 795.1865,411.2031 Q795.4209,411.4531 795.4209,412.0625 L795.4209,413.5156 Q795.4209,414.125 795.1865,414.3906 Q794.9521,414.6563 794.5771,414.6563 Q794.2334,414.6563 794.0303,414.4531 Q793.8271,414.2656 793.7178,413.75 Q793.6709,413.3906 793.4834,413.2031 Q793.1553,412.8281 792.5459,412.6094 Q791.9365,412.3906 791.3115,412.3906 Q790.5459,412.3906 789.9053,412.7188 Q789.2803,413.0469 788.7803,413.7969 Q788.2959,414.5469 788.2959,415.5781 L788.2959,416.6719 Q788.2959,417.9063 789.1865,418.7344 Q790.0771,419.5469 791.6709,419.5469 Q792.6084,419.5469 793.2646,419.2969 Q793.6553,419.1406 794.0771,418.7031 Q794.3428,418.4375 794.4834,418.3594 Q794.6396,418.2813 794.8428,418.2813 Q795.1709,418.2813 795.4209,418.5469 Q795.6865,418.7969 795.6865,419.1406 Q795.6865,419.4844 795.3428,419.8906 Q794.8428,420.4688 794.0459,420.7969 Q792.9678,421.25 791.6709,421.25 Q790.1553,421.25 788.9521,420.625 Q787.9678,420.125 787.2803,419.0625 Q786.5928,417.9844 786.5928,416.7031 L786.5928,415.5469 Q786.5928,414.2188 787.2021,413.0781 Q787.8271,411.9219 788.9209,411.3125 Q790.0146,410.6875 791.249,410.6875 Q791.9834,410.6875 792.624,410.8594 Q793.2803,411.0156 793.8271,411.375 Z " fill="#000000"/><text fill="#000000" font-family="sans-serif" font-size="14" lengthAdjust="spacing" textLength="145.5234" x="811.5615" y="421.2969">AddVideoProposalDTO</text><line style="stroke:#181818;stroke-width:0.5;" x1="659" x2="1077.1465" y1="431.5" y2="431.5"/><text fill="#000000" font-family="sans-serif" font-size="14" lengthAdjust="spacing" textLength="138.127" x="664" y="450.6074">+proposalNumber : int</text><text fill="#000000" font-family="sans-serif" font-size="14" lengthAdjust="spacing" textLength="115.5684" x="664" y="469.2285">+videoLink : String</text><line style="stroke:#181818;stroke-width:0.5;" x1="659" x2="1077.1465" y1="476.7422" y2="476.7422"/><text fill="#000000" font-family="sans-serif" font-size="14" lengthAdjust="spacing" textLength="408.1465" x="664" y="495.8496">+AddVideoProposalDTO(proposalNumber : int, videoLink : String)</text></g><!--class ShowProposalStatus--><g id="elem_ShowProposalStatus"><rect codeLine="64" fill="#F1F1F1" height="159.7266" id="ShowProposalStatus" rx="2.5" ry="2.5" style="stroke:#181818;stroke-width:0.5;" width="161.9648" x="120" y="1158.5"/><ellipse cx="135" cy="1174.5" fill="#EB937F" rx="11" ry="11" style="stroke:#181818;stroke-width:1.0;"/><path d="M133.8594,1175.2969 L133.8594,1177.7969 L138.1875,1177.7969 L138.1875,1176.875 Q138.1875,1176.2656 138.4219,1176 Q138.6719,1175.7344 139.0469,1175.7344 Q139.4219,1175.7344 139.6563,1176 Q139.8906,1176.2656 139.8906,1176.875 L139.8906,1179.5 L131.8906,1179.5 Q131.2656,1179.5 131,1179.2656 Q130.75,1179.0313 130.75,1178.6406 Q130.75,1178.2656 131.0156,1178.0313 Q131.2813,1177.7969 131.8906,1177.7969 L132.1563,1177.7969 L132.1563,1171.1406 L131.8906,1171.1406 Q131.2656,1171.1406 131,1170.9063 Q130.75,1170.6719 130.75,1170.2813 Q130.75,1169.9063 131,1169.6719 Q131.2656,1169.4375 131.8906,1169.4375 L139.5156,1169.4375 L139.5156,1172.0313 Q139.5156,1172.6406 139.2813,1172.9063 Q139.0625,1173.1563 138.6719,1173.1563 Q138.2969,1173.1563 138.0625,1172.9063 Q137.8281,1172.6406 137.8281,1172.0313 L137.8281,1171.1406 L133.8594,1171.1406 L133.8594,1173.5938 L135.3438,1173.5938 Q135.3438,1172.9375 135.4688,1172.75 Q135.7344,1172.3438 136.2031,1172.3438 Q136.5781,1172.3438 136.8125,1172.6094 Q137.0469,1172.8594 137.0469,1173.4688 L137.0469,1175.4375 Q137.0469,1175.9844 136.9219,1176.1719 Q136.6563,1176.5625 136.2031,1176.5625 Q135.7344,1176.5625 135.4688,1176.1563 Q135.3438,1175.9688 135.3438,1175.2969 L133.8594,1175.2969 Z " fill="#000000"/><text fill="#000000" font-family="sans-serif" font-size="14" lengthAdjust="spacing" textLength="129.9648" x="149" y="1180.2969">ShowProposalStatus</text><line style="stroke:#181818;stroke-width:0.5;" x1="121" x2="280.9648" y1="1190.5" y2="1190.5"/><text fill="#000000" font-family="sans-serif" font-size="14" lengthAdjust="spacing" textLength="66.8965" x="126" y="1209.6074">CREATED</text><text fill="#000000" font-family="sans-serif" font-size="14" lengthAdjust="spacing" textLength="66.8965" x="126" y="1228.2285">PENDENT</text><text fill="#000000" font-family="sans-serif" font-size="14" lengthAdjust="spacing" textLength="73.8965" x="126" y="1246.8496">REJECTED</text><text fill="#000000" font-family="sans-serif" font-size="14" lengthAdjust="spacing" textLength="76.2344" x="126" y="1265.4707">ACCEPTED</text><text fill="#000000" font-family="sans-serif" font-size="14" lengthAdjust="spacing" textLength="86.3516" x="126" y="1284.0918">SCHEDULED</text><text fill="#000000" font-family="sans-serif" font-size="14" lengthAdjust="spacing" textLength="67.6758" x="126" y="1302.7129">ABORTED</text><line style="stroke:#181818;stroke-width:0.5;" x1="121" x2="280.9648" y1="1310.2266" y2="1310.2266"/></g><!--class SimulationStatus--><g id="elem_SimulationStatus"><rect codeLine="73" fill="#F1F1F1" height="103.8633" id="SimulationStatus" rx="2.5" ry="2.5" style="stroke:#181818;stroke-width:0.5;" width="137.0547" x="317.5" y="1186.5"/><ellipse cx="332.5" cy="1202.5" fill="#EB937F" rx="11" ry="11" style="stroke:#181818;stroke-width:1.0;"/><path d="M331.3594,1203.2969 L331.3594,1205.7969 L335.6875,1205.7969 L335.6875,1204.875 Q335.6875,1204.2656 335.9219,1204 Q336.1719,1203.7344 336.5469,1203.7344 Q336.9219,1203.7344 337.1563,1204 Q337.3906,1204.2656 337.3906,1204.875 L337.3906,1207.5 L329.3906,1207.5 Q328.7656,1207.5 328.5,1207.2656 Q328.25,1207.0313 328.25,1206.6406 Q328.25,1206.2656 328.5156,1206.0313 Q328.7813,1205.7969 329.3906,1205.7969 L329.6563,1205.7969 L329.6563,1199.1406 L329.3906,1199.1406 Q328.7656,1199.1406 328.5,1198.9063 Q328.25,1198.6719 328.25,1198.2813 Q328.25,1197.9063 328.5,1197.6719 Q328.7656,1197.4375 329.3906,1197.4375 L337.0156,1197.4375 L337.0156,1200.0313 Q337.0156,1200.6406 336.7813,1200.9063 Q336.5625,1201.1563 336.1719,1201.1563 Q335.7969,1201.1563 335.5625,1200.9063 Q335.3281,1200.6406 335.3281,1200.0313 L335.3281,1199.1406 L331.3594,1199.1406 L331.3594,1201.5938 L332.8438,1201.5938 Q332.8438,1200.9375 332.9688,1200.75 Q333.2344,1200.3438 333.7031,1200.3438 Q334.0781,1200.3438 334.3125,1200.6094 Q334.5469,1200.8594 334.5469,1201.4688 L334.5469,1203.4375 Q334.5469,1203.9844 334.4219,1204.1719 Q334.1563,1204.5625 333.7031,1204.5625 Q333.2344,1204.5625 332.9688,1204.1563 Q332.8438,1203.9688 332.8438,1203.2969 L331.3594,1203.2969 Z " fill="#000000"/><text fill="#000000" font-family="sans-serif" font-size="14" lengthAdjust="spacing" textLength="105.0547" x="346.5" y="1208.2969">SimulationStatus</text><line style="stroke:#181818;stroke-width:0.5;" x1="318.5" x2="453.5547" y1="1218.5" y2="1218.5"/><text fill="#000000" font-family="sans-serif" font-size="14" lengthAdjust="spacing" textLength="75.4482" x="323.5" y="1237.6074">UNTESTED</text><text fill="#000000" font-family="sans-serif" font-size="14" lengthAdjust="spacing" textLength="49.0137" x="323.5" y="1256.2285">FAILED</text><text fill="#000000" font-family="sans-serif" font-size="14" lengthAdjust="spacing" textLength="56.7998" x="323.5" y="1274.8496">PASSED</text><line style="stroke:#181818;stroke-width:0.5;" x1="318.5" x2="453.5547" y1="1282.3633" y2="1282.3633"/></g><!--class ShowProposalRepository--><g id="elem_ShowProposalRepository"><rect codeLine="79" fill="#F1F1F1" height="196.9688" id="ShowProposalRepository" rx="2.5" ry="2.5" style="stroke:#181818;stroke-width:0.5;" width="473.8496" x="7" y="353"/><ellipse cx="161.0786" cy="369" fill="#B4A7E5" rx="11" ry="11" style="stroke:#181818;stroke-width:1.0;"/><path d="M162.0317,365.6406 L162.0317,372.2969 L163.7505,372.2969 Q164.3599,372.2969 164.6255,372.5313 Q164.8911,372.7656 164.8911,373.1563 Q164.8911,373.5313 164.6255,373.7656 Q164.3599,374 163.7505,374 L158.6099,374 Q158.0005,374 157.7349,373.7656 Q157.4692,373.5313 157.4692,373.1406 Q157.4692,372.7656 157.7349,372.5313 Q158.0005,372.2969 158.6099,372.2969 L160.3286,372.2969 L160.3286,365.6406 L158.6099,365.6406 Q158.0005,365.6406 157.7349,365.4063 Q157.4692,365.1719 157.4692,364.7813 Q157.4692,364.4063 157.7349,364.1719 Q158.0005,363.9375 158.6099,363.9375 L163.7505,363.9375 Q164.3599,363.9375 164.6255,364.1719 Q164.8911,364.4063 164.8911,364.7813 Q164.8911,365.1719 164.6255,365.4063 Q164.3599,365.6406 163.7505,365.6406 L162.0317,365.6406 Z " fill="#000000"/><text fill="#000000" font-family="sans-serif" font-size="14" font-style="italic" lengthAdjust="spacing" textLength="157.1924" x="181.5786" y="374.7969">ShowProposalRepository</text><line style="stroke:#181818;stroke-width:0.5;" x1="8" x2="479.8496" y1="385" y2="385"/><line style="stroke:#181818;stroke-width:0.5;" x1="8" x2="479.8496" y1="393" y2="393"/><text fill="#000000" font-family="sans-serif" font-size="14" lengthAdjust="spacing" textLength="338.8984" x="13" y="412.1074">+save(showProposal : ShowProposal) : ShowProposal</text><text fill="#000000" font-family="sans-serif" font-size="14" lengthAdjust="spacing" textLength="461.8496" x="13" y="430.7285">+findByProposalNumber(proposalNumber : int) : Optional&lt;ShowProposal&gt;</text><text fill="#000000" font-family="sans-serif" font-size="14" lengthAdjust="spacing" textLength="346.6846" x="13" y="449.3496">+findByStatus(status : String) : Iterable&lt;ShowProposal&gt;</text><text fill="#000000" font-family="sans-serif" font-size="14" lengthAdjust="spacing" textLength="195.7129" x="13" y="467.9707">+findAll() : List&lt;ShowProposal&gt;</text><text fill="#000000" font-family="sans-serif" font-size="14" lengthAdjust="spacing" textLength="254.8164" x="13" y="486.5918">+findAllDTO() : List&lt;ShowProposalDTO&gt;</text><text fill="#000000" font-family="sans-serif" font-size="14" lengthAdjust="spacing" textLength="408.0986" x="13" y="505.2129">+findByCustomerVAT(customerVAT : VAT) : List&lt;ShowProposal&gt;</text><text fill="#000000" font-family="sans-serif" font-size="14" lengthAdjust="spacing" textLength="307.002" x="13" y="523.834">+findAllProposalsToSend() : List&lt;ShowProposal&gt;</text><text fill="#000000" font-family="sans-serif" font-size="14" lengthAdjust="spacing" textLength="366.1055" x="13" y="542.4551">+findAllProposalsToSendDTO() : List&lt;ShowProposalDTO&gt;</text></g><!--link AddVideoProposalUI to AddVideoProposalController--><g id="link_AddVideoProposalUI_AddVideoProposalController"><path codeLine="90" d="M792.67,111.07 C762,129.87 732.095,148.1936 700.245,167.7236 " fill="none" id="AddVideoProposalUI-to-AddVideoProposalController" style="stroke:#181818;stroke-width:1.0;stroke-dasharray:7.0,7.0;"/><polygon fill="#181818" points="695.13,170.86,704.8934,169.5653,699.3925,168.2463,700.7115,162.7454,695.13,170.86" style="stroke:#181818;stroke-width:1.0;"/></g><!--link AddVideoProposalUI to ShowProposalDTO--><g id="link_AddVideoProposalUI_ShowProposalDTO"><path codeLine="91" d="M914.32,111.04 C977.35,194.98 1096,353 1096,353 C1096,353 1096,550 1096,550 C1096,550 848.2472,896.9074 705.1972,1097.1974 " fill="none" id="AddVideoProposalUI-to-ShowProposalDTO" style="stroke:#181818;stroke-width:1.0;stroke-dasharray:7.0,7.0;"/><polygon fill="#181818" points="701.71,1102.08,710.1958,1097.081,704.616,1098.0112,703.6858,1092.4314,701.71,1102.08" style="stroke:#181818;stroke-width:1.0;"/></g><!--link AddVideoProposalUI to AddVideoProposalDTO--><g id="link_AddVideoProposalUI_AddVideoProposalDTO"><path codeLine="92" d="M874.95,111.05 C873.42,185.89 870.7026,318.5913 869.1726,393.4413 " fill="none" id="AddVideoProposalUI-to-AddVideoProposalDTO" style="stroke:#181818;stroke-width:1.0;stroke-dasharray:7.0,7.0;"/><polygon fill="#181818" points="869.05,399.44,873.2331,390.5236,869.1522,394.441,865.2348,390.3601,869.05,399.44" style="stroke:#181818;stroke-width:1.0;"/></g><!--link AddVideoProposalController to ShowProposalRepository--><g id="link_AddVideoProposalController_ShowProposalRepository"><path codeLine="94" d="M499.61,293.01 C469.51,311.56 440.6383,329.3427 407.5283,349.7427 " fill="none" id="AddVideoProposalController-to-ShowProposalRepository" style="stroke:#181818;stroke-width:1.0;"/><polygon fill="#181818" points="402.42,352.89,412.1806,351.5745,406.6769,350.2672,407.9842,344.7635,402.42,352.89" style="stroke:#181818;stroke-width:1.0;"/></g><!--link AddVideoProposalController to ShowProposal--><g id="link_AddVideoProposalController_ShowProposal"><path codeLine="95" d="M578.15,293.37 C549.42,385.35 498,550 498,550 C498,550 488.2565,569.6351 471.0465,604.3251 " fill="none" id="AddVideoProposalController-to-ShowProposal" style="stroke:#181818;stroke-width:1.0;stroke-dasharray:7.0,7.0;"/><polygon fill="#181818" points="468.38,609.7,475.9631,603.4153,470.6021,605.2209,468.7965,599.86,468.38,609.7" style="stroke:#181818;stroke-width:1.0;"/></g><!--link AddVideoProposalController to ShowProposalDTO--><g id="link_AddVideoProposalController_ShowProposalDTO"><path codeLine="96" d="M597.48,293.2 C598.7,446.95 601.9324,851.8502 603.7224,1077.6302 " fill="none" id="AddVideoProposalController-to-ShowProposalDTO" style="stroke:#181818;stroke-width:1.0;stroke-dasharray:7.0,7.0;"/><polygon fill="#181818" points="603.77,1083.63,607.6985,1074.5986,603.7304,1078.6302,599.6988,1074.662,603.77,1083.63" style="stroke:#181818;stroke-width:1.0;"/></g><!--link AddVideoProposalController to AddVideoProposalDTO--><g id="link_AddVideoProposalController_AddVideoProposalDTO"><path codeLine="97" d="M671.77,293.01 C713.29,326.33 759.7105,363.5946 799.3605,395.4146 " fill="none" id="AddVideoProposalController-to-AddVideoProposalDTO" style="stroke:#181818;stroke-width:1.0;stroke-dasharray:7.0,7.0;"/><polygon fill="#181818" points="804.04,399.17,799.5244,390.4173,800.1405,396.0405,794.5172,396.6566,804.04,399.17" style="stroke:#181818;stroke-width:1.0;"/></g><!--link ShowProposal to ShowProposalStatus--><g id="link_ShowProposal_ShowProposalStatus"><path codeLine="99" d="M284.95,1024.06 C266.12,1071.93 249.397,1114.4667 234.287,1152.8667 " fill="none" id="ShowProposal-to-ShowProposalStatus" style="stroke:#181818;stroke-width:1.0;"/><polygon fill="#181818" points="232.09,1158.45,239.1077,1151.5397,233.9208,1153.7972,231.6633,1148.6104,232.09,1158.45" style="stroke:#181818;stroke-width:1.0;"/><text fill="#000000" font-family="sans-serif" font-size="13" lengthAdjust="spacing" textLength="7.23" x="227.6457" y="1147.3411">1</text></g><!--link ShowProposal to SimulationStatus--><g id="link_ShowProposal_SimulationStatus"><path codeLine="100" d="M375.82,1024.06 C378.7,1084.36 381.3032,1139.0669 383.2732,1180.2369 " fill="none" id="ShowProposal-to-SimulationStatus" style="stroke:#181818;stroke-width:1.0;"/><polygon fill="#181818" points="383.56,1186.23,387.1253,1177.0491,383.321,1181.2357,379.1344,1177.4315,383.56,1186.23" style="stroke:#181818;stroke-width:1.0;"/><text fill="#000000" font-family="sans-serif" font-size="13" lengthAdjust="spacing" textLength="7.23" x="375.7736" y="1175.1211">1</text></g><!--link ShowProposal to ShowProposalDTO--><g id="link_ShowProposal_ShowProposalDTO"><path codeLine="101" d="M483.4,1024.06 C494.85,1044.16 503.3601,1059.0966 514.4401,1078.5466 " fill="none" id="ShowProposal-to-ShowProposalDTO" style="stroke:#181818;stroke-width:1.0;stroke-dasharray:7.0,7.0;"/><polygon fill="#181818" points="517.41,1083.76,516.4308,1073.9599,514.9351,1079.4155,509.4795,1077.9198,517.41,1083.76" style="stroke:#181818;stroke-width:1.0;"/></g><!--link ShowProposalRepository to ShowProposal--><g id="link_ShowProposalRepository_ShowProposal"><path codeLine="103" d="M276.85,550.39 C283.14,569.1 288.0219,583.6515 294.9519,604.3115 " fill="none" id="ShowProposalRepository-to-ShowProposal" style="stroke:#181818;stroke-width:1.0;stroke-dasharray:7.0,7.0;"/><polygon fill="#181818" points="296.86,610,297.7902,600.1952,295.2699,605.2596,290.2055,602.7393,296.86,610" style="stroke:#181818;stroke-width:1.0;"/></g><!--SRC=[dLPHRvim47xFhq1zeifQRQzJ5OaIgcQgqYZGlZjm9LOTczacNJhjlyzs335WqcvzQE2-xyxV-Uvin2kc5U9e5rGeVqKbfF908E2GIqHB0XFH4iGM5UmDqp9uGKIu2C4KvA62e6Bae5ySB2T8Y4XAZZUrX4NEQ8hV8VWwcHWaY8hY6HV0LfnLJ23oj0X-JmBrTnN8BSICIiu80Hvy7r1Fe76O1WLBj-mjl5JS3MC44BN05b2XTHaeLLfeEVapfi1Pir62QhbzrmhKB-Fu7KciyW2-npbOIcMzrw1-i6Jye9TISbO3m8eYMCW657UC6n5A3DR1ZTA518us16xSEFFiSMOZeA9ehCOvB2Jpx9FokEo9KQRJ1hX0S7CJbIM74abOCoPditOJQBtRc3fWAgqfhuLaEsECxQD5X8gvXfyr26cNjczDRPb4P5dlvfnH49sW4dOLKSihOwCgioRBW3rG-S1oKmQzDcEym5GHXCkOAqE6TpgG9fFclSEfUHFbf41896lHsxBK61i6tjNas0KjjsSQC4rD7Z1zFVNWaOAfK2fe3i-8r5fjmMfLzLvZPV1BzZs5pTBDq85kTGykaSru6kHRDTDWT6GifF0sbAGRPSzmqV7efnQAiQHxxfxatH4yaYHJtHX-kaCLO5joEcp9QTkIpr7MNyZfoSMyupJQZTEFwwS6MS6oBdgLKtP6Io_GTcS_aW7kMSszWATNfqwlTbBrzAUBdskvQJk1cJxJFpumtOeqtReSLcO_jd-UUA4lpXTFY4ij2rGVU6RLYehNIPGbS_EyIfRpP9cPvtNo8uaR88hZPDMyfF5zCdzwQA3RnxL6seNwUtjSvccP9MaJuIvQDEwhA4sFtYe5u2yeXv5xeTr4WVOG2lTKxiv6VrQismkcnUrXrTavxqPg_yTAPu18vswPTI8DXhqz8RmNa-iS4M8c-a7TSUT8pUGFUCujTnGJd-OwxCwu-l-PfTghDcCfq2By3v_pQbM5FHyprzUpSnyk8nxza_2JWJLrSkPxvkfgDlPDSiQhB-XVk3xnFRetYSutYPPzyUt2TntxUVshkCFoIPoCJEGWzRy0]--></g></svg>