<svg xmlns="http://www.w3.org/2000/svg" xmlns:xlink="http://www.w3.org/1999/xlink" contentStyleType="text/css" height="741px" preserveAspectRatio="none" style="width:988px;height:741px;background:#FFFFFF;" version="1.1" viewBox="0 0 988 741" width="988px" zoomAndPan="magnify"><defs/><g><!--class FigureCategory--><g id="elem_FigureCategory"><rect codeLine="6" fill="#F1F1F1" height="124.2717" id="FigureCategory" rx="2.5" ry="2.5" style="stroke:#181818;stroke-width:0.5;" width="225.0092" x="7" y="464"/><ellipse cx="64.5188" cy="480" fill="#ADD1B2" rx="11" ry="11" style="stroke:#181818;stroke-width:1.0;"/><path d="M63.9875,486.9219 Q62.2375,486.9219 61.0969,486.1875 Q59.9719,485.4375 59.4094,484.0938 Q58.8625,482.7344 58.8625,480.9375 Q58.8625,478.9063 59.5188,477.4531 Q60.175,476 61.4563,475.2188 Q62.7375,474.4375 64.6125,474.4375 Q65.5032,474.4375 66.175,474.625 Q66.8469,474.7969 67.5344,475.1406 L66.7219,477.1563 Q66.0969,476.8438 65.55,476.7188 Q65.0188,476.5938 64.5344,476.5938 Q63.3625,476.5938 62.6594,477.125 Q61.9563,477.6563 61.6594,478.6094 Q61.3625,479.5625 61.3625,480.8281 Q61.3625,482.8438 62.0813,483.8125 Q62.8,484.7656 64.3938,484.7656 Q64.9875,484.7656 65.6125,484.6094 Q66.2375,484.4531 67.0657,484.0781 L67.0657,486.2969 Q66.3313,486.6094 65.5344,486.7656 Q64.7532,486.9219 63.9875,486.9219 Z " fill="#000000"/><text fill="#000000" font-family="sans-serif" font-size="14" lengthAdjust="spacing" textLength="101.4716" x="85.0188" y="485.432">FigureCategory</text><line style="stroke:#181818;stroke-width:0.5;" x1="8" x2="231.0092" y1="496" y2="496"/><text fill="#000000" font-family="sans-serif" font-size="14" lengthAdjust="spacing" textLength="85.0357" x="13" y="514.9659">-String name</text><text fill="#000000" font-family="sans-serif" font-size="14" lengthAdjust="spacing" textLength="121.2675" x="13" y="534.0339">-String description</text><text fill="#000000" font-family="sans-serif" font-size="14" lengthAdjust="spacing" textLength="205.5892" x="13" y="553.1018">-LocalDateTime lastEditionDate</text><line style="stroke:#181818;stroke-width:0.5;" x1="8" x2="231.0092" y1="561.2038" y2="561.2038"/><text fill="#000000" font-family="sans-serif" font-size="14" lengthAdjust="spacing" textLength="213.0092" x="13" y="580.1697">+updateDescription(String): void</text></g><!--class FigureCategoryRepository--><g id="elem_FigureCategoryRepository"><rect codeLine="13" fill="#F1F1F1" height="86.1358" id="FigureCategoryRepository" rx="2.5" ry="2.5" style="stroke:#181818;stroke-width:0.5;" width="330.8907" x="267" y="483"/><ellipse cx="348.0667" cy="499" fill="#B4A7E5" rx="11" ry="11" style="stroke:#181818;stroke-width:1.0;"/><path d="M344.0979,505.5 L344.0979,503.7969 L346.4573,503.5313 L346.4573,495.3281 L344.0979,495.0625 L344.0979,493.3594 L351.2385,493.3594 L351.2385,495.0625 L348.8167,495.3281 L348.8167,503.5313 L351.2385,503.7969 L351.2385,505.5 L344.0979,505.5 Z " fill="#000000"/><text fill="#000000" font-family="sans-serif" font-size="14" font-style="italic" lengthAdjust="spacing" textLength="160.2574" x="368.5667" y="504.432">FigureCategoryRepository</text><line style="stroke:#181818;stroke-width:0.5;" x1="268" x2="596.8907" y1="515" y2="515"/><line style="stroke:#181818;stroke-width:0.5;" x1="268" x2="596.8907" y1="523" y2="523"/><text fill="#000000" font-family="sans-serif" font-size="14" lengthAdjust="spacing" textLength="318.8907" x="273" y="541.9659">+findByName(String): Optional&lt;FigureCategory&gt;</text><text fill="#000000" font-family="sans-serif" font-size="14" lengthAdjust="spacing" textLength="256.311" x="273" y="561.0339">+save(FigureCategory): FigureCategory</text></g><!--class JpaFigureCategoryRepository--><g id="elem_JpaFigureCategoryRepository"><rect codeLine="18" fill="#F1F1F1" height="86.1358" id="JpaFigureCategoryRepository" rx="2.5" ry="2.5" style="stroke:#181818;stroke-width:0.5;" width="330.8907" x="84" y="648"/><ellipse cx="149.0927" cy="664" fill="#ADD1B2" rx="11" ry="11" style="stroke:#181818;stroke-width:1.0;"/><path d="M148.5615,670.9219 Q146.8115,670.9219 145.6708,670.1875 Q144.5458,669.4375 143.9833,668.0938 Q143.4365,666.7344 143.4365,664.9375 Q143.4365,662.9063 144.0927,661.4531 Q144.749,660 146.0302,659.2188 Q147.3115,658.4375 149.1865,658.4375 Q150.0771,658.4375 150.749,658.625 Q151.4208,658.7969 152.1083,659.1406 L151.2958,661.1563 Q150.6708,660.8438 150.124,660.7188 Q149.5927,660.5938 149.1083,660.5938 Q147.9365,660.5938 147.2333,661.125 Q146.5302,661.6563 146.2333,662.6094 Q145.9365,663.5625 145.9365,664.8281 Q145.9365,666.8438 146.6552,667.8125 Q147.374,668.7656 148.9677,668.7656 Q149.5615,668.7656 150.1865,668.6094 Q150.8115,668.4531 151.6396,668.0781 L151.6396,670.2969 Q150.9052,670.6094 150.1083,670.7656 Q149.3271,670.9219 148.5615,670.9219 Z " fill="#000000"/><text fill="#000000" font-family="sans-serif" font-size="14" lengthAdjust="spacing" textLength="192.2053" x="169.5927" y="669.432">JpaFigureCategoryRepository</text><line style="stroke:#181818;stroke-width:0.5;" x1="85" x2="413.8907" y1="680" y2="680"/><line style="stroke:#181818;stroke-width:0.5;" x1="85" x2="413.8907" y1="688" y2="688"/><text fill="#000000" font-family="sans-serif" font-size="14" lengthAdjust="spacing" textLength="318.8907" x="90" y="706.9659">+findByName(String): Optional&lt;FigureCategory&gt;</text><text fill="#000000" font-family="sans-serif" font-size="14" lengthAdjust="spacing" textLength="256.311" x="90" y="726.0339">+save(FigureCategory): FigureCategory</text></g><!--class InMemoryFigureCategoryRepository--><g id="elem_InMemoryFigureCategoryRepository"><rect codeLine="23" fill="#F1F1F1" height="86.1358" id="InMemoryFigureCategoryRepository" rx="2.5" ry="2.5" style="stroke:#181818;stroke-width:0.5;" width="330.8907" x="450" y="648"/><ellipse cx="491.3239" cy="664" fill="#ADD1B2" rx="11" ry="11" style="stroke:#181818;stroke-width:1.0;"/><path d="M490.7927,670.9219 Q489.0427,670.9219 487.9021,670.1875 Q486.7771,669.4375 486.2146,668.0938 Q485.6677,666.7344 485.6677,664.9375 Q485.6677,662.9063 486.3239,661.4531 Q486.9802,660 488.2614,659.2188 Q489.5427,658.4375 491.4177,658.4375 Q492.3083,658.4375 492.9802,658.625 Q493.6521,658.7969 494.3396,659.1406 L493.5271,661.1563 Q492.9021,660.8438 492.3552,660.7188 Q491.8239,660.5938 491.3396,660.5938 Q490.1677,660.5938 489.4646,661.125 Q488.7614,661.6563 488.4646,662.6094 Q488.1677,663.5625 488.1677,664.8281 Q488.1677,666.8438 488.8864,667.8125 Q489.6052,668.7656 491.1989,668.7656 Q491.7927,668.7656 492.4177,668.6094 Q493.0427,668.4531 493.8708,668.0781 L493.8708,670.2969 Q493.1364,670.6094 492.3396,670.7656 Q491.5583,670.9219 490.7927,670.9219 Z " fill="#000000"/><text fill="#000000" font-family="sans-serif" font-size="14" lengthAdjust="spacing" textLength="240.3931" x="511.1737" y="669.432">InMemoryFigureCategoryRepository</text><line style="stroke:#181818;stroke-width:0.5;" x1="451" x2="779.8907" y1="680" y2="680"/><line style="stroke:#181818;stroke-width:0.5;" x1="451" x2="779.8907" y1="688" y2="688"/><text fill="#000000" font-family="sans-serif" font-size="14" lengthAdjust="spacing" textLength="318.8907" x="456" y="706.9659">+findByName(String): Optional&lt;FigureCategory&gt;</text><text fill="#000000" font-family="sans-serif" font-size="14" lengthAdjust="spacing" textLength="256.311" x="456" y="726.0339">+save(FigureCategory): FigureCategory</text></g><!--class FigureCategoryService--><g id="elem_FigureCategoryService"><rect codeLine="31" fill="#F1F1F1" height="105.2038" id="FigureCategoryService" rx="2.5" ry="2.5" style="stroke:#181818;stroke-width:0.5;" width="345.4647" x="260" y="299"/><ellipse cx="354.3946" cy="315" fill="#ADD1B2" rx="11" ry="11" style="stroke:#181818;stroke-width:1.0;"/><path d="M353.8634,321.9219 Q352.1134,321.9219 350.9728,321.1875 Q349.8478,320.4375 349.2853,319.0938 Q348.7384,317.7344 348.7384,315.9375 Q348.7384,313.9063 349.3946,312.4531 Q350.0509,311 351.3321,310.2188 Q352.6134,309.4375 354.4884,309.4375 Q355.379,309.4375 356.0509,309.625 Q356.7228,309.7969 357.4103,310.1406 L356.5978,312.1563 Q355.9728,311.8438 355.4259,311.7188 Q354.8946,311.5938 354.4103,311.5938 Q353.2384,311.5938 352.5353,312.125 Q351.8321,312.6563 351.5353,313.6094 Q351.2384,314.5625 351.2384,315.8281 Q351.2384,317.8438 351.9571,318.8125 Q352.6759,319.7656 354.2696,319.7656 Q354.8634,319.7656 355.4884,319.6094 Q356.1134,319.4531 356.9415,319.0781 L356.9415,321.2969 Q356.2071,321.6094 355.4103,321.7656 Q354.629,321.9219 353.8634,321.9219 Z " fill="#000000"/><text fill="#000000" font-family="sans-serif" font-size="14" lengthAdjust="spacing" textLength="148.1754" x="374.8946" y="320.432">FigureCategoryService</text><line style="stroke:#181818;stroke-width:0.5;" x1="261" x2="604.4647" y1="331" y2="331"/><text fill="#000000" font-family="sans-serif" font-size="14" lengthAdjust="spacing" textLength="210.8252" x="266" y="349.9659">-FigureCategoryRepository repo</text><text fill="#000000" font-family="sans-serif" font-size="14" lengthAdjust="spacing" textLength="181.0333" x="266" y="369.0339">-AuthorizationService authz</text><line style="stroke:#181818;stroke-width:0.5;" x1="261" x2="604.4647" y1="377.1358" y2="377.1358"/><text fill="#000000" font-family="sans-serif" font-size="14" lengthAdjust="spacing" textLength="333.4647" x="266" y="396.1018">+updateDescription(String, String): FigureCategory</text></g><!--class FigureCategoryController--><g id="elem_FigureCategoryController"><rect codeLine="38" fill="#F1F1F1" height="86.1358" id="FigureCategoryController" rx="2.5" ry="2.5" style="stroke:#181818;stroke-width:0.5;" width="383.6146" x="240.5" y="153"/><ellipse cx="344.2326" cy="169" fill="#ADD1B2" rx="11" ry="11" style="stroke:#181818;stroke-width:1.0;"/><path d="M343.7014,175.9219 Q341.9514,175.9219 340.8108,175.1875 Q339.6858,174.4375 339.1233,173.0938 Q338.5764,171.7344 338.5764,169.9375 Q338.5764,167.9063 339.2326,166.4531 Q339.8889,165 341.1701,164.2188 Q342.4514,163.4375 344.3264,163.4375 Q345.217,163.4375 345.8889,163.625 Q346.5608,163.7969 347.2483,164.1406 L346.4358,166.1563 Q345.8108,165.8438 345.2639,165.7188 Q344.7326,165.5938 344.2483,165.5938 Q343.0764,165.5938 342.3733,166.125 Q341.6701,166.6563 341.3733,167.6094 Q341.0764,168.5625 341.0764,169.8281 Q341.0764,171.8438 341.7951,172.8125 Q342.5139,173.7656 344.1076,173.7656 Q344.7014,173.7656 345.3264,173.6094 Q345.9514,173.4531 346.7795,173.0781 L346.7795,175.2969 Q346.0451,175.6094 345.2483,175.7656 Q344.467,175.9219 343.7014,175.9219 Z " fill="#000000"/><text fill="#000000" font-family="sans-serif" font-size="14" lengthAdjust="spacing" textLength="167.6494" x="364.7326" y="174.432">FigureCategoryController</text><line style="stroke:#181818;stroke-width:0.5;" x1="241.5" x2="623.1146" y1="185" y2="185"/><text fill="#000000" font-family="sans-serif" font-size="14" lengthAdjust="spacing" textLength="202.0472" x="246.5" y="203.9659">-FigureCategoryService service</text><line style="stroke:#181818;stroke-width:0.5;" x1="241.5" x2="623.1146" y1="212.0679" y2="212.0679"/><text fill="#000000" font-family="sans-serif" font-size="14" lengthAdjust="spacing" textLength="371.6146" x="246.5" y="231.0339">+editCategoryDescription(String, String): FigureCategory</text></g><!--class EditFigureCategoryUI--><g id="elem_EditFigureCategoryUI"><rect codeLine="44" fill="#F1F1F1" height="86.1358" id="EditFigureCategoryUI" rx="2.5" ry="2.5" style="stroke:#181818;stroke-width:0.5;" width="251.8471" x="306.5" y="7"/><ellipse cx="357.4178" cy="23" fill="#ADD1B2" rx="11" ry="11" style="stroke:#181818;stroke-width:1.0;"/><path d="M356.8866,29.9219 Q355.1366,29.9219 353.9959,29.1875 Q352.8709,28.4375 352.3084,27.0938 Q351.7616,25.7344 351.7616,23.9375 Q351.7616,21.9063 352.4178,20.4531 Q353.0741,19 354.3553,18.2188 Q355.6366,17.4375 357.5116,17.4375 Q358.4022,17.4375 359.0741,17.625 Q359.7459,17.7969 360.4334,18.1406 L359.6209,20.1563 Q358.9959,19.8438 358.4491,19.7188 Q357.9178,19.5938 357.4334,19.5938 Q356.2616,19.5938 355.5584,20.125 Q354.8553,20.6563 354.5584,21.6094 Q354.2616,22.5625 354.2616,23.8281 Q354.2616,25.8438 354.9803,26.8125 Q355.6991,27.7656 357.2928,27.7656 Q357.8866,27.7656 358.5116,27.6094 Q359.1366,27.4531 359.9647,27.0781 L359.9647,29.2969 Q359.2303,29.6094 358.4334,29.7656 Q357.6522,29.9219 356.8866,29.9219 Z " fill="#000000"/><text fill="#000000" font-family="sans-serif" font-size="14" lengthAdjust="spacing" textLength="141.5115" x="377.9178" y="28.432">EditFigureCategoryUI</text><line style="stroke:#181818;stroke-width:0.5;" x1="307.5" x2="557.3471" y1="39" y2="39"/><text fill="#000000" font-family="sans-serif" font-size="14" lengthAdjust="spacing" textLength="239.8471" x="312.5" y="57.9659">-FigureCategoryController controller</text><line style="stroke:#181818;stroke-width:0.5;" x1="307.5" x2="557.3471" y1="66.0679" y2="66.0679"/><text fill="#000000" font-family="sans-serif" font-size="14" lengthAdjust="spacing" textLength="130.2555" x="312.5" y="85.0339">+doShow(): boolean</text></g><!--class AuthorizationService--><g id="elem_AuthorizationService"><rect codeLine="50" fill="#F1F1F1" height="67.0679" id="AuthorizationService" rx="2.5" ry="2.5" style="stroke:#181818;stroke-width:0.5;" width="348.5308" x="633" y="492.5"/><ellipse cx="739.3506" cy="508.5" fill="#B4A7E5" rx="11" ry="11" style="stroke:#181818;stroke-width:1.0;"/><path d="M735.3819,515 L735.3819,513.2969 L737.7412,513.0313 L737.7412,504.8281 L735.3819,504.5625 L735.3819,502.8594 L742.5225,502.8594 L742.5225,504.5625 L740.1006,504.8281 L740.1006,513.0313 L742.5225,513.2969 L742.5225,515 L735.3819,515 Z " fill="#000000"/><text fill="#000000" font-family="sans-serif" font-size="14" font-style="italic" lengthAdjust="spacing" textLength="127.3295" x="759.8506" y="513.932">AuthorizationService</text><line style="stroke:#181818;stroke-width:0.5;" x1="634" x2="980.5308" y1="524.5" y2="524.5"/><line style="stroke:#181818;stroke-width:0.5;" x1="634" x2="980.5308" y1="532.5" y2="532.5"/><text fill="#000000" font-family="sans-serif" font-size="14" lengthAdjust="spacing" textLength="336.5308" x="639" y="551.4659">+ensureAuthenticatedUserHasAnyOf(String...): void</text></g><!--reverse link FigureCategoryRepository to JpaFigureCategoryRepository--><g id="link_FigureCategoryRepository_JpaFigureCategoryRepository"><path codeLine="28" d="M371.4595,581.373 C344.3495,605.523 323.94,623.7 296.87,647.81 " fill="none" id="FigureCategoryRepository-backto-JpaFigureCategoryRepository" style="stroke:#181818;stroke-width:1.0;stroke-dasharray:7.0,7.0;"/><polygon fill="none" points="384.9,569.4,367.4685,576.8928,375.4505,585.8532,384.9,569.4" style="stroke:#181818;stroke-width:1.0;"/></g><!--reverse link FigureCategoryRepository to InMemoryFigureCategoryRepository--><g id="link_FigureCategoryRepository_InMemoryFigureCategoryRepository"><path codeLine="29" d="M493.5405,581.373 C520.6505,605.523 541.06,623.7 568.13,647.81 " fill="none" id="FigureCategoryRepository-backto-InMemoryFigureCategoryRepository" style="stroke:#181818;stroke-width:1.0;stroke-dasharray:7.0,7.0;"/><polygon fill="none" points="480.1,569.4,489.5495,585.8532,497.5315,576.8928,480.1,569.4" style="stroke:#181818;stroke-width:1.0;"/></g><!--link EditFigureCategoryUI to FigureCategoryController--><g id="link_EditFigureCategoryUI_FigureCategoryController"><path codeLine="54" d="M432.5,93.04 C432.5,111.8 432.5,127.86 432.5,146.66 " fill="none" id="EditFigureCategoryUI-to-FigureCategoryController" style="stroke:#181818;stroke-width:1.0;"/><polygon fill="#181818" points="432.5,152.66,436.5,143.66,432.5,147.66,428.5,143.66,432.5,152.66" style="stroke:#181818;stroke-width:1.0;"/></g><!--link FigureCategoryController to FigureCategoryService--><g id="link_FigureCategoryController_FigureCategoryService"><path codeLine="55" d="M432.5,239.35 C432.5,257.81 432.5,273.61 432.5,293 " fill="none" id="FigureCategoryController-to-FigureCategoryService" style="stroke:#181818;stroke-width:1.0;"/><polygon fill="#181818" points="432.5,299,436.5,290,432.5,294,428.5,290,432.5,299" style="stroke:#181818;stroke-width:1.0;"/></g><!--link FigureCategoryService to FigureCategoryRepository--><g id="link_FigureCategoryService_FigureCategoryRepository"><path codeLine="56" d="M432.5,404.26 C432.5,429.36 432.5,453.14 432.5,476.84 " fill="none" id="FigureCategoryService-to-FigureCategoryRepository" style="stroke:#181818;stroke-width:1.0;"/><polygon fill="#181818" points="432.5,482.84,436.5,473.84,432.5,477.84,428.5,473.84,432.5,482.84" style="stroke:#181818;stroke-width:1.0;"/></g><!--link FigureCategoryService to AuthorizationService--><g id="link_FigureCategoryService_AuthorizationService"><path codeLine="57" d="M544.5,404.02 C606.88,432.71 677.1791,465.0525 731.3291,489.9625 " fill="none" id="FigureCategoryService-to-AuthorizationService" style="stroke:#181818;stroke-width:1.0;"/><polygon fill="#181818" points="736.78,492.47,730.2753,485.0748,732.2376,490.3804,726.932,492.3427,736.78,492.47" style="stroke:#181818;stroke-width:1.0;"/></g><!--link FigureCategoryService to FigureCategory--><g id="link_FigureCategoryService_FigureCategory"><path codeLine="58" d="M339.01,404.02 C304.88,422.84 271.1948,441.394 235.6848,460.964 " fill="none" id="FigureCategoryService-to-FigureCategory" style="stroke:#181818;stroke-width:1.0;"/><polygon fill="#181818" points="230.43,463.86,240.2429,463.0192,234.809,461.4467,236.3816,456.0128,230.43,463.86" style="stroke:#181818;stroke-width:1.0;"/></g><!--SRC=[nLDDJyCm3BtdL-GuD5PnHjEamK0CyI5H-04czJgBBAcIR5C7_7VSbcqjQm5nuLJ7zlDxTct_GYO31mkPWNg15EEGQvGELG2JQXH-b-3daDWrcLJEGFjwH9F1a6SeCwlpub6BAGtUZqDmzBmCE5NMnBH1UI946P6Nb2uTdaF0rBfSlWef1pBcTEOniC3wEq6l76M1h2dTDrQ1dZ3qaHOekLouIAY85ZxEwCjbbh0vsUDwLQcZKxcob8Xt8SW4T3DG-4NA0sRMKzYAwiiPcUGilsDD-oBtPL7GmoPsL08yhB3N332awIWKL8Eupk1_1KpDBIxOyrygEdc7Rr7qtNX-GFxKL_icnkXMn4jHBMGdWsEpp1Wlmzmwsa0nYIqOsBaHtsxYiTnDiUl7DFtdrWHdjKRNgcrBxQjlHOvy5jk4FqaexgePUvgsqjVKgPrPYKXiFBVh7hCyMwiHJFFwMWTOhHmQpnH50ff0YgcI9-xl2lpOvFUpppQYAAgTTQlYmM3KgLTqDdA8-fGdsaT_cD-vgtL8sm1-pV01]--></g></svg>