<svg xmlns="http://www.w3.org/2000/svg" xmlns:xlink="http://www.w3.org/1999/xlink" contentStyleType="text/css" height="703px" preserveAspectRatio="none" style="width:791px;height:703px;background:#FFFFFF;" version="1.1" viewBox="0 0 791 703" width="791px" zoomAndPan="magnify"><defs/><g><!--class FigureCategory--><g id="elem_FigureCategory"><rect codeLine="6" fill="#F1F1F1" height="124.2717" id="FigureCategory" rx="2.5" ry="2.5" style="stroke:#181818;stroke-width:0.5;" width="133.4716" x="155" y="153"/><ellipse cx="170" cy="169" fill="#ADD1B2" rx="11" ry="11" style="stroke:#181818;stroke-width:1.0;"/><path d="M169.4688,175.9219 Q167.7188,175.9219 166.5781,175.1875 Q165.4531,174.4375 164.8906,173.0938 Q164.3438,171.7344 164.3438,169.9375 Q164.3438,167.9063 165,166.4531 Q165.6563,165 166.9375,164.2188 Q168.2188,163.4375 170.0938,163.4375 Q170.9844,163.4375 171.6563,163.625 Q172.3281,163.7969 173.0156,164.1406 L172.2031,166.1563 Q171.5781,165.8438 171.0313,165.7188 Q170.5,165.5938 170.0156,165.5938 Q168.8438,165.5938 168.1406,166.125 Q167.4375,166.6563 167.1406,167.6094 Q166.8438,168.5625 166.8438,169.8281 Q166.8438,171.8438 167.5625,172.8125 Q168.2813,173.7656 169.875,173.7656 Q170.4688,173.7656 171.0938,173.6094 Q171.7188,173.4531 172.5469,173.0781 L172.5469,175.2969 Q171.8125,175.6094 171.0156,175.7656 Q170.2344,175.9219 169.4688,175.9219 Z " fill="#000000"/><text fill="#000000" font-family="sans-serif" font-size="14" lengthAdjust="spacing" textLength="101.4716" x="184" y="174.432">FigureCategory</text><line style="stroke:#181818;stroke-width:0.5;" x1="156" x2="287.4716" y1="185" y2="185"/><text fill="#000000" font-family="sans-serif" font-size="14" lengthAdjust="spacing" textLength="85.0357" x="161" y="203.9659">-String name</text><text fill="#000000" font-family="sans-serif" font-size="14" lengthAdjust="spacing" textLength="121.2675" x="161" y="223.0339">-String description</text><text fill="#000000" font-family="sans-serif" font-size="14" lengthAdjust="spacing" textLength="111.3696" x="161" y="242.1018">-boolean isActive</text><line style="stroke:#181818;stroke-width:0.5;" x1="156" x2="287.4716" y1="250.2038" y2="250.2038"/><text fill="#000000" font-family="sans-serif" font-size="14" lengthAdjust="spacing" textLength="116.1156" x="161" y="269.1697">+toString(): String</text></g><!--class FigureCategoryRepository--><g id="elem_FigureCategoryRepository"><rect codeLine="14" fill="#F1F1F1" height="67.0679" id="FigureCategoryRepository" rx="2.5" ry="2.5" style="stroke:#181818;stroke-width:0.5;" width="246.5971" x="154" y="502"/><ellipse cx="193.4529" cy="518" fill="#B4A7E5" rx="11" ry="11" style="stroke:#181818;stroke-width:1.0;"/><path d="M189.4841,524.5 L189.4841,522.7969 L191.8435,522.5313 L191.8435,514.3281 L189.4841,514.0625 L189.4841,512.3594 L196.6247,512.3594 L196.6247,514.0625 L194.2029,514.3281 L194.2029,522.5313 L196.6247,522.7969 L196.6247,524.5 L189.4841,524.5 Z " fill="#000000"/><text fill="#000000" font-family="sans-serif" font-size="14" font-style="italic" lengthAdjust="spacing" textLength="160.2574" x="212.8868" y="523.432">FigureCategoryRepository</text><line style="stroke:#181818;stroke-width:0.5;" x1="155" x2="399.5971" y1="534" y2="534"/><line style="stroke:#181818;stroke-width:0.5;" x1="155" x2="399.5971" y1="542" y2="542"/><text fill="#000000" font-family="sans-serif" font-size="14" lengthAdjust="spacing" textLength="234.5971" x="160" y="560.9659">+findAll(): Iterable&lt;FigureCategory&gt;</text></g><!--class JpaFigureCategoryRepository--><g id="elem_JpaFigureCategoryRepository"><rect codeLine="18" fill="#F1F1F1" height="67.0679" id="JpaFigureCategoryRepository" rx="2.5" ry="2.5" style="stroke:#181818;stroke-width:0.5;" width="246.5971" x="7" y="629"/><ellipse cx="32.0763" cy="645" fill="#ADD1B2" rx="11" ry="11" style="stroke:#181818;stroke-width:1.0;"/><path d="M31.5451,651.9219 Q29.7951,651.9219 28.6544,651.1875 Q27.5294,650.4375 26.9669,649.0938 Q26.4201,647.7344 26.4201,645.9375 Q26.4201,643.9063 27.0763,642.4531 Q27.7326,641 29.0138,640.2188 Q30.2951,639.4375 32.1701,639.4375 Q33.0607,639.4375 33.7326,639.625 Q34.4044,639.7969 35.0919,640.1406 L34.2794,642.1563 Q33.6544,641.8438 33.1076,641.7188 Q32.5763,641.5938 32.0919,641.5938 Q30.9201,641.5938 30.2169,642.125 Q29.5138,642.6563 29.2169,643.6094 Q28.9201,644.5625 28.9201,645.8281 Q28.9201,647.8438 29.6388,648.8125 Q30.3576,649.7656 31.9513,649.7656 Q32.5451,649.7656 33.1701,649.6094 Q33.7951,649.4531 34.6232,649.0781 L34.6232,651.2969 Q33.8888,651.6094 33.0919,651.7656 Q32.3107,651.9219 31.5451,651.9219 Z " fill="#000000"/><text fill="#000000" font-family="sans-serif" font-size="14" lengthAdjust="spacing" textLength="192.2053" x="48.3155" y="650.432">JpaFigureCategoryRepository</text><line style="stroke:#181818;stroke-width:0.5;" x1="8" x2="252.5971" y1="661" y2="661"/><line style="stroke:#181818;stroke-width:0.5;" x1="8" x2="252.5971" y1="669" y2="669"/><text fill="#000000" font-family="sans-serif" font-size="14" lengthAdjust="spacing" textLength="234.5971" x="13" y="687.9659">+findAll(): Iterable&lt;FigureCategory&gt;</text></g><!--class InMemoryFigureCategoryRepository--><g id="elem_InMemoryFigureCategoryRepository"><rect codeLine="22" fill="#F1F1F1" height="67.0679" id="InMemoryFigureCategoryRepository" rx="2.5" ry="2.5" style="stroke:#181818;stroke-width:0.5;" width="272.3931" x="289.5" y="629"/><ellipse cx="304.5" cy="645" fill="#ADD1B2" rx="11" ry="11" style="stroke:#181818;stroke-width:1.0;"/><path d="M303.9688,651.9219 Q302.2188,651.9219 301.0781,651.1875 Q299.9531,650.4375 299.3906,649.0938 Q298.8438,647.7344 298.8438,645.9375 Q298.8438,643.9063 299.5,642.4531 Q300.1563,641 301.4375,640.2188 Q302.7188,639.4375 304.5938,639.4375 Q305.4844,639.4375 306.1563,639.625 Q306.8281,639.7969 307.5156,640.1406 L306.7031,642.1563 Q306.0781,641.8438 305.5313,641.7188 Q305,641.5938 304.5156,641.5938 Q303.3438,641.5938 302.6406,642.125 Q301.9375,642.6563 301.6406,643.6094 Q301.3438,644.5625 301.3438,645.8281 Q301.3438,647.8438 302.0625,648.8125 Q302.7813,649.7656 304.375,649.7656 Q304.9688,649.7656 305.5938,649.6094 Q306.2188,649.4531 307.0469,649.0781 L307.0469,651.2969 Q306.3125,651.6094 305.5156,651.7656 Q304.7344,651.9219 303.9688,651.9219 Z " fill="#000000"/><text fill="#000000" font-family="sans-serif" font-size="14" lengthAdjust="spacing" textLength="240.3931" x="318.5" y="650.432">InMemoryFigureCategoryRepository</text><line style="stroke:#181818;stroke-width:0.5;" x1="290.5" x2="560.8931" y1="661" y2="661"/><line style="stroke:#181818;stroke-width:0.5;" x1="290.5" x2="560.8931" y1="669" y2="669"/><text fill="#000000" font-family="sans-serif" font-size="14" lengthAdjust="spacing" textLength="234.5971" x="295.5" y="687.9659">+findAll(): Iterable&lt;FigureCategory&gt;</text></g><!--class FigureCategoryService--><g id="elem_FigureCategoryService"><rect codeLine="29" fill="#F1F1F1" height="105.2038" id="FigureCategoryService" rx="2.5" ry="2.5" style="stroke:#181818;stroke-width:0.5;" width="246.5971" x="320" y="337"/><ellipse cx="364.9608" cy="353" fill="#ADD1B2" rx="11" ry="11" style="stroke:#181818;stroke-width:1.0;"/><path d="M364.4296,359.9219 Q362.6796,359.9219 361.539,359.1875 Q360.414,358.4375 359.8515,357.0938 Q359.3046,355.7344 359.3046,353.9375 Q359.3046,351.9063 359.9608,350.4531 Q360.6171,349 361.8983,348.2188 Q363.1796,347.4375 365.0546,347.4375 Q365.9452,347.4375 366.6171,347.625 Q367.289,347.7969 367.9765,348.1406 L367.164,350.1563 Q366.539,349.8438 365.9921,349.7188 Q365.4608,349.5938 364.9765,349.5938 Q363.8046,349.5938 363.1015,350.125 Q362.3983,350.6563 362.1015,351.6094 Q361.8046,352.5625 361.8046,353.8281 Q361.8046,355.8438 362.5233,356.8125 Q363.2421,357.7656 364.8358,357.7656 Q365.4296,357.7656 366.0546,357.6094 Q366.6796,357.4531 367.5077,357.0781 L367.5077,359.2969 Q366.7733,359.6094 365.9765,359.7656 Q365.1952,359.9219 364.4296,359.9219 Z " fill="#000000"/><text fill="#000000" font-family="sans-serif" font-size="14" lengthAdjust="spacing" textLength="148.1754" x="385.4608" y="358.432">FigureCategoryService</text><line style="stroke:#181818;stroke-width:0.5;" x1="321" x2="565.5971" y1="369" y2="369"/><text fill="#000000" font-family="sans-serif" font-size="14" lengthAdjust="spacing" textLength="210.8252" x="326" y="387.9659">-FigureCategoryRepository repo</text><text fill="#000000" font-family="sans-serif" font-size="14" lengthAdjust="spacing" textLength="181.0333" x="326" y="407.0339">-AuthorizationService authz</text><line style="stroke:#181818;stroke-width:0.5;" x1="321" x2="565.5971" y1="415.1358" y2="415.1358"/><text fill="#000000" font-family="sans-serif" font-size="14" lengthAdjust="spacing" textLength="234.5971" x="326" y="434.1018">+findAll(): Iterable&lt;FigureCategory&gt;</text></g><!--class FigureCategoryController--><g id="elem_FigureCategoryController"><rect codeLine="36" fill="#F1F1F1" height="86.1358" id="FigureCategoryController" rx="2.5" ry="2.5" style="stroke:#181818;stroke-width:0.5;" width="239.8911" x="323.5" y="172"/><ellipse cx="356.6088" cy="188" fill="#ADD1B2" rx="11" ry="11" style="stroke:#181818;stroke-width:1.0;"/><path d="M356.0775,194.9219 Q354.3275,194.9219 353.1869,194.1875 Q352.0619,193.4375 351.4994,192.0938 Q350.9525,190.7344 350.9525,188.9375 Q350.9525,186.9063 351.6088,185.4531 Q352.265,184 353.5463,183.2188 Q354.8275,182.4375 356.7025,182.4375 Q357.5932,182.4375 358.265,182.625 Q358.9369,182.7969 359.6244,183.1406 L358.8119,185.1563 Q358.1869,184.8438 357.64,184.7188 Q357.1088,184.5938 356.6244,184.5938 Q355.4525,184.5938 354.7494,185.125 Q354.0463,185.6563 353.7494,186.6094 Q353.4525,187.5625 353.4525,188.8281 Q353.4525,190.8438 354.1713,191.8125 Q354.89,192.7656 356.4838,192.7656 Q357.0775,192.7656 357.7025,192.6094 Q358.3275,192.4531 359.1557,192.0781 L359.1557,194.2969 Q358.4213,194.6094 357.6244,194.7656 Q356.8432,194.9219 356.0775,194.9219 Z " fill="#000000"/><text fill="#000000" font-family="sans-serif" font-size="14" lengthAdjust="spacing" textLength="167.6494" x="374.633" y="193.432">FigureCategoryController</text><line style="stroke:#181818;stroke-width:0.5;" x1="324.5" x2="562.3911" y1="204" y2="204"/><text fill="#000000" font-family="sans-serif" font-size="14" lengthAdjust="spacing" textLength="202.0472" x="329.5" y="222.9659">-FigureCategoryService service</text><line style="stroke:#181818;stroke-width:0.5;" x1="324.5" x2="562.3911" y1="231.0679" y2="231.0679"/><text fill="#000000" font-family="sans-serif" font-size="14" lengthAdjust="spacing" textLength="227.8911" x="329.5" y="250.0339">+listAll(): Iterable&lt;FigureCategory&gt;</text></g><!--class ListFigureCategoriesUI--><g id="elem_ListFigureCategoriesUI"><rect codeLine="42" fill="#F1F1F1" height="86.1358" id="ListFigureCategoriesUI" rx="2.5" ry="2.5" style="stroke:#181818;stroke-width:0.5;" width="251.8471" x="206.5" y="7"/><ellipse cx="253.0568" cy="23" fill="#ADD1B2" rx="11" ry="11" style="stroke:#181818;stroke-width:1.0;"/><path d="M252.5256,29.9219 Q250.7756,29.9219 249.6349,29.1875 Q248.5099,28.4375 247.9474,27.0938 Q247.4006,25.7344 247.4006,23.9375 Q247.4006,21.9063 248.0568,20.4531 Q248.7131,19 249.9943,18.2188 Q251.2756,17.4375 253.1506,17.4375 Q254.0412,17.4375 254.7131,17.625 Q255.3849,17.7969 256.0724,18.1406 L255.2599,20.1563 Q254.6349,19.8438 254.0881,19.7188 Q253.5568,19.5938 253.0724,19.5938 Q251.9006,19.5938 251.1974,20.125 Q250.4943,20.6563 250.1974,21.6094 Q249.9006,22.5625 249.9006,23.8281 Q249.9006,25.8438 250.6193,26.8125 Q251.3381,27.7656 252.9318,27.7656 Q253.5256,27.7656 254.1506,27.6094 Q254.7756,27.4531 255.6037,27.0781 L255.6037,29.2969 Q254.8693,29.6094 254.0724,29.7656 Q253.2912,29.9219 252.5256,29.9219 Z " fill="#000000"/><text fill="#000000" font-family="sans-serif" font-size="14" lengthAdjust="spacing" textLength="150.2334" x="273.5568" y="28.432">ListFigureCategoriesUI</text><line style="stroke:#181818;stroke-width:0.5;" x1="207.5" x2="457.3471" y1="39" y2="39"/><text fill="#000000" font-family="sans-serif" font-size="14" lengthAdjust="spacing" textLength="239.8471" x="212.5" y="57.9659">-FigureCategoryController controller</text><line style="stroke:#181818;stroke-width:0.5;" x1="207.5" x2="457.3471" y1="66.0679" y2="66.0679"/><text fill="#000000" font-family="sans-serif" font-size="14" lengthAdjust="spacing" textLength="130.2555" x="212.5" y="85.0339">+doShow(): boolean</text></g><!--class AuthorizationService--><g id="elem_AuthorizationService"><rect codeLine="48" fill="#F1F1F1" height="67.0679" id="AuthorizationService" rx="2.5" ry="2.5" style="stroke:#181818;stroke-width:0.5;" width="348.5308" x="436" y="502"/><ellipse cx="542.3506" cy="518" fill="#B4A7E5" rx="11" ry="11" style="stroke:#181818;stroke-width:1.0;"/><path d="M538.3819,524.5 L538.3819,522.7969 L540.7412,522.5313 L540.7412,514.3281 L538.3819,514.0625 L538.3819,512.3594 L545.5225,512.3594 L545.5225,514.0625 L543.1006,514.3281 L543.1006,522.5313 L545.5225,522.7969 L545.5225,524.5 L538.3819,524.5 Z " fill="#000000"/><text fill="#000000" font-family="sans-serif" font-size="14" font-style="italic" lengthAdjust="spacing" textLength="127.3295" x="562.8506" y="523.432">AuthorizationService</text><line style="stroke:#181818;stroke-width:0.5;" x1="437" x2="783.5308" y1="534" y2="534"/><line style="stroke:#181818;stroke-width:0.5;" x1="437" x2="783.5308" y1="542" y2="542"/><text fill="#000000" font-family="sans-serif" font-size="14" lengthAdjust="spacing" textLength="336.5308" x="442" y="560.9659">+ensureAuthenticatedUserHasAnyOf(String...): void</text></g><!--reverse link FigureCategoryRepository to JpaFigureCategoryRepository--><g id="link_FigureCategoryRepository_JpaFigureCategoryRepository"><path codeLine="26" d="M225.5462,580.679 C203.8562,599.119 190.51,610.47 168.8,628.93 " fill="none" id="FigureCategoryRepository-backto-JpaFigureCategoryRepository" style="stroke:#181818;stroke-width:1.0;stroke-dasharray:7.0,7.0;"/><polygon fill="none" points="239.26,569.02,221.6599,576.1077,229.4325,585.2502,239.26,569.02" style="stroke:#181818;stroke-width:1.0;"/></g><!--reverse link FigureCategoryRepository to InMemoryFigureCategoryRepository--><g id="link_FigureCategoryRepository_InMemoryFigureCategoryRepository"><path codeLine="27" d="M329.7534,580.6323 C351.5934,599.0723 365.09,610.47 386.94,628.93 " fill="none" id="FigureCategoryRepository-backto-InMemoryFigureCategoryRepository" style="stroke:#181818;stroke-width:1.0;stroke-dasharray:7.0,7.0;"/><polygon fill="none" points="316,569.02,325.8826,585.2167,333.6241,576.0478,316,569.02" style="stroke:#181818;stroke-width:1.0;"/></g><!--link ListFigureCategoriesUI to FigureCategoryController--><g id="link_ListFigureCategoriesUI_FigureCategoryController"><path codeLine="52" d="M361.37,93.4 C377.82,117.55 394.9726,142.7409 411.3926,166.8509 " fill="none" id="ListFigureCategoriesUI-to-FigureCategoryController" style="stroke:#181818;stroke-width:1.0;"/><polygon fill="#181818" points="414.77,171.81,413.01,162.1197,411.9555,167.6774,406.3978,166.6229,414.77,171.81" style="stroke:#181818;stroke-width:1.0;"/></g><!--link ListFigureCategoriesUI to FigureCategory--><g id="link_ListFigureCategoriesUI_FigureCategory"><path codeLine="53" d="M303.63,93.4 C291.29,111.51 280.0372,128.0407 266.5672,147.8207 " fill="none" id="ListFigureCategoriesUI-to-FigureCategory" style="stroke:#181818;stroke-width:1.0;"/><polygon fill="#181818" points="263.19,152.78,271.562,147.5926,266.0043,148.6473,264.9496,143.0896,263.19,152.78" style="stroke:#181818;stroke-width:1.0;"/></g><!--link FigureCategoryController to FigureCategoryService--><g id="link_FigureCategoryController_FigureCategoryService"><path codeLine="54" d="M443.5,258.2 C443.5,281.94 443.5,305.76 443.5,330.88 " fill="none" id="FigureCategoryController-to-FigureCategoryService" style="stroke:#181818;stroke-width:1.0;"/><polygon fill="#181818" points="443.5,336.88,447.5,327.88,443.5,331.88,439.5,327.88,443.5,336.88" style="stroke:#181818;stroke-width:1.0;"/></g><!--link FigureCategoryService to FigureCategoryRepository--><g id="link_FigureCategoryService_FigureCategoryRepository"><path codeLine="55" d="M384.04,442.08 C361.15,461.93 340.1912,480.107 319.8912,497.727 " fill="none" id="FigureCategoryService-to-FigureCategoryRepository" style="stroke:#181818;stroke-width:1.0;"/><polygon fill="#181818" points="315.36,501.66,324.7788,498.7813,319.136,498.3825,319.5348,492.7397,315.36,501.66" style="stroke:#181818;stroke-width:1.0;"/></g><!--link FigureCategoryService to AuthorizationService--><g id="link_FigureCategoryService_AuthorizationService"><path codeLine="56" d="M503.32,442.08 C526.34,461.93 547.4364,480.1214 567.8664,497.7414 " fill="none" id="FigureCategoryService-to-AuthorizationService" style="stroke:#181818;stroke-width:1.0;"/><polygon fill="#181818" points="572.41,501.66,568.2071,492.753,568.6237,498.3945,562.9822,498.8111,572.41,501.66" style="stroke:#181818;stroke-width:1.0;"/></g><!--SRC=[hLDHQy8m47xFhyYZGonx7Y8KOQnZOx3Y3pZJQpsCIKbEfMxxxqkjIftjtC2d9dVVTz-NkwjVaYd1mKgMe9PGOCgLHkbGCPX2e_0dW5z0PhTa2fc3zksC9eDSbIXBgwlwqief3Tx7p8xcQyP4MPFI3kMz4FkCVAHYxN0AZ8LrbVmGKeva6k11ny0As_SClN9KCbcp3y-jrGX6aeyLqmP5Y0ubsmO-k7iu4CMN46GONGuAVoY-OsazyL5xA7CoMQnrpKu21UOQn-UKILslSVzSmYtB9UOLLo5qcvgzLSQVKVIRzIlCQowxHvkYsr1eVpFXNWKNZdj4lEQ5TRI3Ujn7CeJWJlo_iUU9gJNihDReEjqSnNppRUGqUVwpt4i0doK9_Ipf56jvKQTZ8vdPT66tjU9XqS_tkBD1pOAWyK6Y1g1XKa4gcuNNF86FJVMM3vhV8egYK7jZAQiBztWUZIQzZl_E4RsFliGUdYAwXtA9xztRDgMhMTy0]--></g></svg>