<svg xmlns="http://www.w3.org/2000/svg" xmlns:xlink="http://www.w3.org/1999/xlink" contentStyleType="text/css" height="682px" preserveAspectRatio="none" style="width:1638px;height:682px;background:#FFFFFF;" version="1.1" viewBox="0 0 1638 682" width="1638px" zoomAndPan="magnify"><defs/><g><rect fill="#FFFFFF" height="486.5721" style="stroke:#181818;stroke-width:1.0;" width="10" x="18.3089" y="94.0679"/><rect fill="#FFFFFF" height="462.8661" style="stroke:#181818;stroke-width:1.0;" width="10" x="231.2201" y="117.7739"/><rect fill="#FFFFFF" height="399.4541" style="stroke:#181818;stroke-width:1.0;" width="10" x="415.8642" y="149.4799"/><rect fill="#FFFFFF" height="336.0421" style="stroke:#181818;stroke-width:1.0;" width="10" x="600.5083" y="181.186"/><rect fill="#FFFFFF" height="31.706" style="stroke:#181818;stroke-width:1.0;" width="10" x="865.3026" y="212.892"/><rect fill="#FFFFFF" height="209.218" style="stroke:#181818;stroke-width:1.0;" width="10" x="1043.309" y="276.304"/><rect fill="#FFFFFF" height="31.706" style="stroke:#181818;stroke-width:1.0;" width="10" x="1249.3713" y="334.716"/><rect fill="#FFFFFF" height="31.706" style="stroke:#181818;stroke-width:1.0;" width="10" x="1489.6705" y="415.11"/><rect fill="none" height="163.512" style="stroke:#000000;stroke-width:1.5;" width="686.5177" x="945.3493" y="291.304"/><line style="stroke:#181818;stroke-width:0.5;stroke-dasharray:5.0,5.0;" x1="23" x2="23" y1="84.0679" y2="598.6401"/><line style="stroke:#181818;stroke-width:0.5;stroke-dasharray:5.0,5.0;" x1="236.1034" x2="236.1034" y1="84.0679" y2="598.6401"/><line style="stroke:#181818;stroke-width:0.5;stroke-dasharray:5.0,5.0;" x1="420.0395" x2="420.0395" y1="84.0679" y2="598.6401"/><line style="stroke:#181818;stroke-width:0.5;stroke-dasharray:5.0,5.0;" x1="605.4206" x2="605.4206" y1="84.0679" y2="598.6401"/><line style="stroke:#181818;stroke-width:0.5;stroke-dasharray:5.0,5.0;" x1="870.2558" x2="870.2558" y1="84.0679" y2="598.6401"/><line style="stroke:#181818;stroke-width:0.5;stroke-dasharray:5.0,5.0;" x1="1047.3493" x2="1047.3493" y1="84.0679" y2="598.6401"/><line style="stroke:#181818;stroke-width:0.5;stroke-dasharray:5.0,5.0;" x1="1254.2687" x2="1254.2687" y1="84.0679" y2="598.6401"/><line style="stroke:#181818;stroke-width:0.5;stroke-dasharray:5.0,5.0;" x1="1494.474" x2="1494.474" y1="84.0679" y2="598.6401"/><text fill="#000000" font-family="sans-serif" font-size="14" lengthAdjust="spacing" textLength="30.6179" x="5" y="79.9659">User</text><ellipse cx="23.3089" cy="13.5" fill="#E2E2F0" rx="8" ry="8" style="stroke:#181818;stroke-width:0.5;"/><path d="M23.3089,21.5 L23.3089,48.5 M10.3089,29.5 L36.3089,29.5 M23.3089,48.5 L10.3089,63.5 M23.3089,48.5 L36.3089,63.5 " fill="none" style="stroke:#181818;stroke-width:0.5;"/><text fill="#000000" font-family="sans-serif" font-size="14" lengthAdjust="spacing" textLength="30.6179" x="5" y="612.606">User</text><ellipse cx="23.3089" cy="625.208" fill="#E2E2F0" rx="8" ry="8" style="stroke:#181818;stroke-width:0.5;"/><path d="M23.3089,633.208 L23.3089,660.208 M10.3089,641.208 L36.3089,641.208 M23.3089,660.208 L10.3089,675.208 M23.3089,660.208 L36.3089,675.208 " fill="none" style="stroke:#181818;stroke-width:0.5;"/><rect fill="#E2E2F0" height="33.0679" rx="2.5" ry="2.5" style="stroke:#181818;stroke-width:0.5;" width="164.2334" x="154.1034" y="50"/><text fill="#000000" font-family="sans-serif" font-size="14" lengthAdjust="spacing" textLength="150.2334" x="161.1034" y="71.9659">ListFigureCategoriesUI</text><rect fill="#E2E2F0" height="33.0679" rx="2.5" ry="2.5" style="stroke:#181818;stroke-width:0.5;" width="164.2334" x="154.1034" y="597.6401"/><text fill="#000000" font-family="sans-serif" font-size="14" lengthAdjust="spacing" textLength="150.2334" x="161.1034" y="619.606">ListFigureCategoriesUI</text><rect fill="#E2E2F0" height="33.0679" rx="2.5" ry="2.5" style="stroke:#181818;stroke-width:0.5;" width="181.6494" x="330.0395" y="50"/><text fill="#000000" font-family="sans-serif" font-size="14" lengthAdjust="spacing" textLength="167.6494" x="337.0395" y="71.9659">FigureCategoryController</text><rect fill="#E2E2F0" height="33.0679" rx="2.5" ry="2.5" style="stroke:#181818;stroke-width:0.5;" width="181.6494" x="330.0395" y="597.6401"/><text fill="#000000" font-family="sans-serif" font-size="14" lengthAdjust="spacing" textLength="167.6494" x="337.0395" y="619.606">FigureCategoryController</text><rect fill="#E2E2F0" height="33.0679" rx="2.5" ry="2.5" style="stroke:#181818;stroke-width:0.5;" width="162.1754" x="524.4206" y="50"/><text fill="#000000" font-family="sans-serif" font-size="14" lengthAdjust="spacing" textLength="148.1754" x="531.4206" y="71.9659">FigureCategoryService</text><rect fill="#E2E2F0" height="33.0679" rx="2.5" ry="2.5" style="stroke:#181818;stroke-width:0.5;" width="162.1754" x="524.4206" y="597.6401"/><text fill="#000000" font-family="sans-serif" font-size="14" lengthAdjust="spacing" textLength="148.1754" x="531.4206" y="619.606">FigureCategoryService</text><rect fill="#E2E2F0" height="33.0679" rx="2.5" ry="2.5" style="stroke:#181818;stroke-width:0.5;" width="150.0935" x="795.2558" y="50"/><text fill="#000000" font-family="sans-serif" font-size="14" lengthAdjust="spacing" textLength="136.0935" x="802.2558" y="71.9659">AuthorizationService</text><rect fill="#E2E2F0" height="33.0679" rx="2.5" ry="2.5" style="stroke:#181818;stroke-width:0.5;" width="150.0935" x="795.2558" y="597.6401"/><text fill="#000000" font-family="sans-serif" font-size="14" lengthAdjust="spacing" textLength="136.0935" x="802.2558" y="619.606">AuthorizationService</text><rect fill="#E2E2F0" height="33.0679" rx="2.5" ry="2.5" style="stroke:#181818;stroke-width:0.5;" width="185.9194" x="955.3493" y="50"/><text fill="#000000" font-family="sans-serif" font-size="14" lengthAdjust="spacing" textLength="171.9194" x="962.3493" y="71.9659">FigureCategoryRepository</text><rect fill="#E2E2F0" height="33.0679" rx="2.5" ry="2.5" style="stroke:#181818;stroke-width:0.5;" width="185.9194" x="955.3493" y="597.6401"/><text fill="#000000" font-family="sans-serif" font-size="14" lengthAdjust="spacing" textLength="171.9194" x="962.3493" y="619.606">FigureCategoryRepository</text><rect fill="#E2E2F0" height="33.0679" rx="2.5" ry="2.5" style="stroke:#181818;stroke-width:0.5;" width="206.2053" x="1151.2687" y="50"/><text fill="#000000" font-family="sans-serif" font-size="14" lengthAdjust="spacing" textLength="192.2053" x="1158.2687" y="71.9659">JpaFigureCategoryRepository</text><rect fill="#E2E2F0" height="33.0679" rx="2.5" ry="2.5" style="stroke:#181818;stroke-width:0.5;" width="206.2053" x="1151.2687" y="597.6401"/><text fill="#000000" font-family="sans-serif" font-size="14" lengthAdjust="spacing" textLength="192.2053" x="1158.2687" y="619.606">JpaFigureCategoryRepository</text><rect fill="#E2E2F0" height="33.0679" rx="2.5" ry="2.5" style="stroke:#181818;stroke-width:0.5;" width="254.3931" x="1367.474" y="50"/><text fill="#000000" font-family="sans-serif" font-size="14" lengthAdjust="spacing" textLength="240.3931" x="1374.474" y="71.9659">InMemoryFigureCategoryRepository</text><rect fill="#E2E2F0" height="33.0679" rx="2.5" ry="2.5" style="stroke:#181818;stroke-width:0.5;" width="254.3931" x="1367.474" y="597.6401"/><text fill="#000000" font-family="sans-serif" font-size="14" lengthAdjust="spacing" textLength="240.3931" x="1374.474" y="619.606">InMemoryFigureCategoryRepository</text><rect fill="#FFFFFF" height="486.5721" style="stroke:#181818;stroke-width:1.0;" width="10" x="18.3089" y="94.0679"/><rect fill="#FFFFFF" height="462.8661" style="stroke:#181818;stroke-width:1.0;" width="10" x="231.2201" y="117.7739"/><rect fill="#FFFFFF" height="399.4541" style="stroke:#181818;stroke-width:1.0;" width="10" x="415.8642" y="149.4799"/><rect fill="#FFFFFF" height="336.0421" style="stroke:#181818;stroke-width:1.0;" width="10" x="600.5083" y="181.186"/><rect fill="#FFFFFF" height="31.706" style="stroke:#181818;stroke-width:1.0;" width="10" x="865.3026" y="212.892"/><rect fill="#FFFFFF" height="209.218" style="stroke:#181818;stroke-width:1.0;" width="10" x="1043.309" y="276.304"/><rect fill="#FFFFFF" height="31.706" style="stroke:#181818;stroke-width:1.0;" width="10" x="1249.3713" y="334.716"/><rect fill="#FFFFFF" height="31.706" style="stroke:#181818;stroke-width:1.0;" width="10" x="1489.6705" y="415.11"/><polygon fill="#181818" points="219.2201,113.7739,229.2201,117.7739,219.2201,121.7739,223.2201,117.7739" style="stroke:#181818;stroke-width:1.0;"/><line style="stroke:#181818;stroke-width:1.0;" x1="28.3089" x2="225.2201" y1="117.7739" y2="117.7739"/><text fill="#000000" font-family="sans-serif" font-size="13" lengthAdjust="spacing" textLength="183.9111" x="35.3089" y="111.9649">solicita listagem de categorias</text><polygon fill="#181818" points="403.8642,145.4799,413.8642,149.4799,403.8642,153.4799,407.8642,149.4799" style="stroke:#181818;stroke-width:1.0;"/><line style="stroke:#181818;stroke-width:1.0;" x1="241.2201" x2="409.8642" y1="149.4799" y2="149.4799"/><text fill="#000000" font-family="sans-serif" font-size="13" lengthAdjust="spacing" textLength="40.4431" x="248.2201" y="143.6709">listAll()</text><polygon fill="#181818" points="588.5083,177.186,598.5083,181.186,588.5083,185.186,592.5083,181.186" style="stroke:#181818;stroke-width:1.0;"/><line style="stroke:#181818;stroke-width:1.0;" x1="425.8642" x2="594.5083" y1="181.186" y2="181.186"/><text fill="#000000" font-family="sans-serif" font-size="13" lengthAdjust="spacing" textLength="46.6701" x="432.8642" y="175.377">findAll()</text><polygon fill="#181818" points="853.3026,208.892,863.3026,212.892,853.3026,216.892,857.3026,212.892" style="stroke:#181818;stroke-width:1.0;"/><line style="stroke:#181818;stroke-width:1.0;" x1="610.5083" x2="859.3026" y1="212.892" y2="212.892"/><text fill="#000000" font-family="sans-serif" font-size="13" lengthAdjust="spacing" textLength="235.7942" x="617.5083" y="207.083">ensureAuthenticatedUserHasAnyOf(...)</text><polygon fill="#181818" points="621.5083,240.598,611.5083,244.598,621.5083,248.598,617.5083,244.598" style="stroke:#181818;stroke-width:1.0;"/><line style="stroke:#181818;stroke-width:1.0;stroke-dasharray:2.0,2.0;" x1="615.5083" x2="869.3026" y1="244.598" y2="244.598"/><text fill="#000000" font-family="sans-serif" font-size="13" lengthAdjust="spacing" textLength="65.871" x="627.5083" y="238.789">autorizado</text><polygon fill="#181818" points="1031.309,272.304,1041.309,276.304,1031.309,280.304,1035.309,276.304" style="stroke:#181818;stroke-width:1.0;"/><line style="stroke:#181818;stroke-width:1.0;" x1="610.5083" x2="1037.309" y1="276.304" y2="276.304"/><text fill="#000000" font-family="sans-serif" font-size="13" lengthAdjust="spacing" textLength="46.6701" x="617.5083" y="270.495">findAll()</text><path d="M945.3493,291.304 L1007.6523,291.304 L1007.6523,301.01 L997.6523,311.01 L945.3493,311.01 L945.3493,291.304 " fill="#EEEEEE" style="stroke:#000000;stroke-width:1.5;"/><rect fill="none" height="163.512" style="stroke:#000000;stroke-width:1.5;" width="686.5177" x="945.3493" y="291.304"/><text fill="#000000" font-family="sans-serif" font-size="13" font-weight="bold" lengthAdjust="spacing" textLength="17.303" x="960.3493" y="306.201">alt</text><text fill="#000000" font-family="sans-serif" font-size="11" font-weight="bold" lengthAdjust="spacing" textLength="121.0541" x="1022.6523" y="305.0629">[Persist&#234;ncia com JPA]</text><polygon fill="#181818" points="1237.3713,330.716,1247.3713,334.716,1237.3713,338.716,1241.3713,334.716" style="stroke:#181818;stroke-width:1.0;"/><line style="stroke:#181818;stroke-width:1.0;" x1="1053.309" x2="1243.3713" y1="334.716" y2="334.716"/><text fill="#000000" font-family="sans-serif" font-size="13" lengthAdjust="spacing" textLength="46.6701" x="1060.309" y="328.907">findAll()</text><polygon fill="#181818" points="1064.309,362.4221,1054.309,366.4221,1064.309,370.4221,1060.309,366.4221" style="stroke:#181818;stroke-width:1.0;"/><line style="stroke:#181818;stroke-width:1.0;stroke-dasharray:2.0,2.0;" x1="1058.309" x2="1253.3713" y1="366.4221" y2="366.4221"/><text fill="#000000" font-family="sans-serif" font-size="13" lengthAdjust="spacing" textLength="150.6441" x="1070.309" y="360.6131">lista de figure categories</text><line style="stroke:#000000;stroke-width:1.0;stroke-dasharray:2.0,2.0;" x1="945.3493" x2="1631.8671" y1="375.4221" y2="375.4221"/><text fill="#000000" font-family="sans-serif" font-size="11" font-weight="bold" lengthAdjust="spacing" textLength="108.4922" x="950.3493" y="387.181">[InMemory (testes)]</text><polygon fill="#181818" points="1477.6705,411.11,1487.6705,415.11,1477.6705,419.11,1481.6705,415.11" style="stroke:#181818;stroke-width:1.0;"/><line style="stroke:#181818;stroke-width:1.0;" x1="1053.309" x2="1483.6705" y1="415.11" y2="415.11"/><text fill="#000000" font-family="sans-serif" font-size="13" lengthAdjust="spacing" textLength="46.6701" x="1060.309" y="409.301">findAll()</text><polygon fill="#181818" points="1064.309,442.816,1054.309,446.816,1064.309,450.816,1060.309,446.816" style="stroke:#181818;stroke-width:1.0;"/><line style="stroke:#181818;stroke-width:1.0;stroke-dasharray:2.0,2.0;" x1="1058.309" x2="1493.6705" y1="446.816" y2="446.816"/><text fill="#000000" font-family="sans-serif" font-size="13" lengthAdjust="spacing" textLength="150.6441" x="1070.309" y="441.007">lista de figure categories</text><polygon fill="#181818" points="621.5083,481.522,611.5083,485.522,621.5083,489.522,617.5083,485.522" style="stroke:#181818;stroke-width:1.0;"/><line style="stroke:#181818;stroke-width:1.0;stroke-dasharray:2.0,2.0;" x1="615.5083" x2="1047.309" y1="485.522" y2="485.522"/><text fill="#000000" font-family="sans-serif" font-size="13" lengthAdjust="spacing" textLength="150.6441" x="627.5083" y="479.713">lista de figure categories</text><polygon fill="#181818" points="436.8642,513.228,426.8642,517.228,436.8642,521.228,432.8642,517.228" style="stroke:#181818;stroke-width:1.0;"/><line style="stroke:#181818;stroke-width:1.0;stroke-dasharray:2.0,2.0;" x1="430.8642" x2="604.5083" y1="517.228" y2="517.228"/><text fill="#000000" font-family="sans-serif" font-size="13" lengthAdjust="spacing" textLength="150.6441" x="442.8642" y="511.419">lista de figure categories</text><polygon fill="#181818" points="252.2201,544.934,242.2201,548.934,252.2201,552.934,248.2201,548.934" style="stroke:#181818;stroke-width:1.0;"/><line style="stroke:#181818;stroke-width:1.0;stroke-dasharray:2.0,2.0;" x1="246.2201" x2="419.8642" y1="548.934" y2="548.934"/><text fill="#000000" font-family="sans-serif" font-size="13" lengthAdjust="spacing" textLength="150.6441" x="258.2201" y="543.125">lista de figure categories</text><polygon fill="#181818" points="34.3089,576.6401,24.3089,580.6401,34.3089,584.6401,30.3089,580.6401" style="stroke:#181818;stroke-width:1.0;"/><line style="stroke:#181818;stroke-width:1.0;stroke-dasharray:2.0,2.0;" x1="28.3089" x2="235.2201" y1="580.6401" y2="580.6401"/><text fill="#000000" font-family="sans-serif" font-size="13" lengthAdjust="spacing" textLength="157.6511" x="40.3089" y="574.831">mostra lista de categorias</text><!--SRC=[hPHHQW8n48RVSufvr0SzW0-5HIXLMYej7Y1aHnl89f9a1NkaNgCNwoIrRcmtMItA8kpcp_TFPcT_Bhoni7Pe6HTUxhd7xxlm1vCxU9JEtyjjQt5EQrjZ9Rhr0cRWZ992UWwA57oB3TG8ugZXhiFr4rW6J9PdJmzpexqrIb4vi-XLAJKQT_YSccKnVonUqUwbGE9lfAwB_AEKzGE8NBN-ZSxophqqkWEZTgGFYwYz36sgGuSVkAlquNapcawdYMSVXFMI9uN3yDP7VMrOZMLs_Zpd2o-uCquIzd19iperOrnvMA5rz08_FxIG78HfOBcg6D0lwq8LB7VyeY82vrH8OLCKbg2Jyh7Zl8TXtqJDQURHHNBIwb8Hg1p2GZzX4wWZZuwkyM0pVdPStv6XdL4zYBzPRmRBGLt_7ijY7TtS5uf82iWQPpw5uM2wrhC_IzAWAkNlVnoJTCp5Brd6w9z1OvotlFD9iZqnoAHxeWYuBm00]--></g></svg>