<svg xmlns="http://www.w3.org/2000/svg" xmlns:xlink="http://www.w3.org/1999/xlink" contentStyleType="text/css" height="760px" preserveAspectRatio="none" style="width:982px;height:760px;background:#FFFFFF;" version="1.1" viewBox="0 0 982 760" width="982px" zoomAndPan="magnify"><defs/><g><!--class FigureCategory--><g id="elem_FigureCategory"><rect codeLine="6" fill="#F1F1F1" height="143.3396" id="FigureCategory" rx="2.5" ry="2.5" style="stroke:#181818;stroke-width:0.5;" width="217.5892" x="7" y="464"/><ellipse cx="60.8088" cy="480" fill="#ADD1B2" rx="11" ry="11" style="stroke:#181818;stroke-width:1.0;"/><path d="M60.2775,486.9219 Q58.5275,486.9219 57.3869,486.1875 Q56.2619,485.4375 55.6994,484.0938 Q55.1525,482.7344 55.1525,480.9375 Q55.1525,478.9063 55.8088,477.4531 Q56.465,476 57.7463,475.2188 Q59.0275,474.4375 60.9025,474.4375 Q61.7932,474.4375 62.465,474.625 Q63.1369,474.7969 63.8244,475.1406 L63.0119,477.1563 Q62.3869,476.8438 61.84,476.7188 Q61.3088,476.5938 60.8244,476.5938 Q59.6525,476.5938 58.9494,477.125 Q58.2463,477.6563 57.9494,478.6094 Q57.6525,479.5625 57.6525,480.8281 Q57.6525,482.8438 58.3713,483.8125 Q59.09,484.7656 60.6838,484.7656 Q61.2775,484.7656 61.9025,484.6094 Q62.5275,484.4531 63.3557,484.0781 L63.3557,486.2969 Q62.6213,486.6094 61.8244,486.7656 Q61.0432,486.9219 60.2775,486.9219 Z " fill="#000000"/><text fill="#000000" font-family="sans-serif" font-size="14" lengthAdjust="spacing" textLength="101.4716" x="81.3088" y="485.432">FigureCategory</text><line style="stroke:#181818;stroke-width:0.5;" x1="8" x2="223.5892" y1="496" y2="496"/><text fill="#000000" font-family="sans-serif" font-size="14" lengthAdjust="spacing" textLength="111.3696" x="13" y="514.9659">-boolean isActive</text><text fill="#000000" font-family="sans-serif" font-size="14" lengthAdjust="spacing" textLength="205.5892" x="13" y="534.0339">-LocalDateTime lastEditionDate</text><line style="stroke:#181818;stroke-width:0.5;" x1="8" x2="223.5892" y1="542.1358" y2="542.1358"/><text fill="#000000" font-family="sans-serif" font-size="14" lengthAdjust="spacing" textLength="102.7596" x="13" y="561.1018">+activate(): void</text><text fill="#000000" font-family="sans-serif" font-size="14" lengthAdjust="spacing" textLength="119.2655" x="13" y="580.1697">+deactivate(): void</text><text fill="#000000" font-family="sans-serif" font-size="14" lengthAdjust="spacing" textLength="127.0215" x="13" y="599.2376">+isActive(): boolean</text></g><!--class FigureCategoryRepository--><g id="elem_FigureCategoryRepository"><rect codeLine="14" fill="#F1F1F1" height="86.1358" id="FigureCategoryRepository" rx="2.5" ry="2.5" style="stroke:#181818;stroke-width:0.5;" width="330.8907" x="260.5" y="492.5"/><ellipse cx="341.5667" cy="508.5" fill="#B4A7E5" rx="11" ry="11" style="stroke:#181818;stroke-width:1.0;"/><path d="M337.5979,515 L337.5979,513.2969 L339.9573,513.0313 L339.9573,504.8281 L337.5979,504.5625 L337.5979,502.8594 L344.7385,502.8594 L344.7385,504.5625 L342.3167,504.8281 L342.3167,513.0313 L344.7385,513.2969 L344.7385,515 L337.5979,515 Z " fill="#000000"/><text fill="#000000" font-family="sans-serif" font-size="14" font-style="italic" lengthAdjust="spacing" textLength="160.2574" x="362.0667" y="513.932">FigureCategoryRepository</text><line style="stroke:#181818;stroke-width:0.5;" x1="261.5" x2="590.3907" y1="524.5" y2="524.5"/><line style="stroke:#181818;stroke-width:0.5;" x1="261.5" x2="590.3907" y1="532.5" y2="532.5"/><text fill="#000000" font-family="sans-serif" font-size="14" lengthAdjust="spacing" textLength="318.8907" x="266.5" y="551.4659">+findByName(String): Optional&lt;FigureCategory&gt;</text><text fill="#000000" font-family="sans-serif" font-size="14" lengthAdjust="spacing" textLength="256.311" x="266.5" y="570.5339">+save(FigureCategory): FigureCategory</text></g><!--class JpaFigureCategoryRepository--><g id="elem_JpaFigureCategoryRepository"><rect codeLine="19" fill="#F1F1F1" height="86.1358" id="JpaFigureCategoryRepository" rx="2.5" ry="2.5" style="stroke:#181818;stroke-width:0.5;" width="330.8907" x="77.5" y="667"/><ellipse cx="142.5927" cy="683" fill="#ADD1B2" rx="11" ry="11" style="stroke:#181818;stroke-width:1.0;"/><path d="M142.0615,689.9219 Q140.3115,689.9219 139.1708,689.1875 Q138.0458,688.4375 137.4833,687.0938 Q136.9365,685.7344 136.9365,683.9375 Q136.9365,681.9063 137.5927,680.4531 Q138.249,679 139.5302,678.2188 Q140.8115,677.4375 142.6865,677.4375 Q143.5771,677.4375 144.249,677.625 Q144.9208,677.7969 145.6083,678.1406 L144.7958,680.1563 Q144.1708,679.8438 143.624,679.7188 Q143.0927,679.5938 142.6083,679.5938 Q141.4365,679.5938 140.7333,680.125 Q140.0302,680.6563 139.7333,681.6094 Q139.4365,682.5625 139.4365,683.8281 Q139.4365,685.8438 140.1552,686.8125 Q140.874,687.7656 142.4677,687.7656 Q143.0615,687.7656 143.6865,687.6094 Q144.3115,687.4531 145.1396,687.0781 L145.1396,689.2969 Q144.4052,689.6094 143.6083,689.7656 Q142.8271,689.9219 142.0615,689.9219 Z " fill="#000000"/><text fill="#000000" font-family="sans-serif" font-size="14" lengthAdjust="spacing" textLength="192.2053" x="163.0927" y="688.432">JpaFigureCategoryRepository</text><line style="stroke:#181818;stroke-width:0.5;" x1="78.5" x2="407.3907" y1="699" y2="699"/><line style="stroke:#181818;stroke-width:0.5;" x1="78.5" x2="407.3907" y1="707" y2="707"/><text fill="#000000" font-family="sans-serif" font-size="14" lengthAdjust="spacing" textLength="318.8907" x="83.5" y="725.9659">+findByName(String): Optional&lt;FigureCategory&gt;</text><text fill="#000000" font-family="sans-serif" font-size="14" lengthAdjust="spacing" textLength="256.311" x="83.5" y="745.0339">+save(FigureCategory): FigureCategory</text></g><!--class InMemoryFigureCategoryRepository--><g id="elem_InMemoryFigureCategoryRepository"><rect codeLine="24" fill="#F1F1F1" height="86.1358" id="InMemoryFigureCategoryRepository" rx="2.5" ry="2.5" style="stroke:#181818;stroke-width:0.5;" width="330.8907" x="443.5" y="667"/><ellipse cx="484.8239" cy="683" fill="#ADD1B2" rx="11" ry="11" style="stroke:#181818;stroke-width:1.0;"/><path d="M484.2927,689.9219 Q482.5427,689.9219 481.4021,689.1875 Q480.2771,688.4375 479.7146,687.0938 Q479.1677,685.7344 479.1677,683.9375 Q479.1677,681.9063 479.8239,680.4531 Q480.4802,679 481.7614,678.2188 Q483.0427,677.4375 484.9177,677.4375 Q485.8083,677.4375 486.4802,677.625 Q487.1521,677.7969 487.8396,678.1406 L487.0271,680.1563 Q486.4021,679.8438 485.8552,679.7188 Q485.3239,679.5938 484.8396,679.5938 Q483.6677,679.5938 482.9646,680.125 Q482.2614,680.6563 481.9646,681.6094 Q481.6677,682.5625 481.6677,683.8281 Q481.6677,685.8438 482.3864,686.8125 Q483.1052,687.7656 484.6989,687.7656 Q485.2927,687.7656 485.9177,687.6094 Q486.5427,687.4531 487.3708,687.0781 L487.3708,689.2969 Q486.6364,689.6094 485.8396,689.7656 Q485.0583,689.9219 484.2927,689.9219 Z " fill="#000000"/><text fill="#000000" font-family="sans-serif" font-size="14" lengthAdjust="spacing" textLength="240.3931" x="504.6737" y="688.432">InMemoryFigureCategoryRepository</text><line style="stroke:#181818;stroke-width:0.5;" x1="444.5" x2="773.3907" y1="699" y2="699"/><line style="stroke:#181818;stroke-width:0.5;" x1="444.5" x2="773.3907" y1="707" y2="707"/><text fill="#000000" font-family="sans-serif" font-size="14" lengthAdjust="spacing" textLength="318.8907" x="449.5" y="725.9659">+findByName(String): Optional&lt;FigureCategory&gt;</text><text fill="#000000" font-family="sans-serif" font-size="14" lengthAdjust="spacing" textLength="256.311" x="449.5" y="745.0339">+save(FigureCategory): FigureCategory</text></g><!--class FigureCategoryService--><g id="elem_FigureCategoryService"><rect codeLine="32" fill="#F1F1F1" height="105.2038" id="FigureCategoryService" rx="2.5" ry="2.5" style="stroke:#181818;stroke-width:0.5;" width="278.573" x="286.5" y="299"/><ellipse cx="347.4488" cy="315" fill="#ADD1B2" rx="11" ry="11" style="stroke:#181818;stroke-width:1.0;"/><path d="M346.9175,321.9219 Q345.1675,321.9219 344.0269,321.1875 Q342.9019,320.4375 342.3394,319.0938 Q341.7925,317.7344 341.7925,315.9375 Q341.7925,313.9063 342.4488,312.4531 Q343.105,311 344.3863,310.2188 Q345.6675,309.4375 347.5425,309.4375 Q348.4332,309.4375 349.105,309.625 Q349.7769,309.7969 350.4644,310.1406 L349.6519,312.1563 Q349.0269,311.8438 348.48,311.7188 Q347.9488,311.5938 347.4644,311.5938 Q346.2925,311.5938 345.5894,312.125 Q344.8863,312.6563 344.5894,313.6094 Q344.2925,314.5625 344.2925,315.8281 Q344.2925,317.8438 345.0113,318.8125 Q345.73,319.7656 347.3238,319.7656 Q347.9175,319.7656 348.5425,319.6094 Q349.1675,319.4531 349.9957,319.0781 L349.9957,321.2969 Q349.2613,321.6094 348.4644,321.7656 Q347.6832,321.9219 346.9175,321.9219 Z " fill="#000000"/><text fill="#000000" font-family="sans-serif" font-size="14" lengthAdjust="spacing" textLength="148.1754" x="367.9488" y="320.432">FigureCategoryService</text><line style="stroke:#181818;stroke-width:0.5;" x1="287.5" x2="564.073" y1="331" y2="331"/><text fill="#000000" font-family="sans-serif" font-size="14" lengthAdjust="spacing" textLength="210.8252" x="292.5" y="349.9659">-FigureCategoryRepository repo</text><text fill="#000000" font-family="sans-serif" font-size="14" lengthAdjust="spacing" textLength="181.0333" x="292.5" y="369.0339">-AuthorizationService authz</text><line style="stroke:#181818;stroke-width:0.5;" x1="287.5" x2="564.073" y1="377.1358" y2="377.1358"/><text fill="#000000" font-family="sans-serif" font-size="14" lengthAdjust="spacing" textLength="266.573" x="292.5" y="396.1018">+toggleCategory(String): FigureCategory</text></g><!--class FigureCategoryController--><g id="elem_FigureCategoryController"><rect codeLine="39" fill="#F1F1F1" height="86.1358" id="FigureCategoryController" rx="2.5" ry="2.5" style="stroke:#181818;stroke-width:0.5;" width="278.573" x="286.5" y="153"/><ellipse cx="337.7118" cy="169" fill="#ADD1B2" rx="11" ry="11" style="stroke:#181818;stroke-width:1.0;"/><path d="M337.1806,175.9219 Q335.4306,175.9219 334.2899,175.1875 Q333.1649,174.4375 332.6024,173.0938 Q332.0556,171.7344 332.0556,169.9375 Q332.0556,167.9063 332.7118,166.4531 Q333.3681,165 334.6493,164.2188 Q335.9306,163.4375 337.8056,163.4375 Q338.6962,163.4375 339.3681,163.625 Q340.0399,163.7969 340.7274,164.1406 L339.9149,166.1563 Q339.2899,165.8438 338.7431,165.7188 Q338.2118,165.5938 337.7274,165.5938 Q336.5556,165.5938 335.8524,166.125 Q335.1493,166.6563 334.8524,167.6094 Q334.5556,168.5625 334.5556,169.8281 Q334.5556,171.8438 335.2743,172.8125 Q335.9931,173.7656 337.5868,173.7656 Q338.1806,173.7656 338.8056,173.6094 Q339.4306,173.4531 340.2587,173.0781 L340.2587,175.2969 Q339.5243,175.6094 338.7274,175.7656 Q337.9462,175.9219 337.1806,175.9219 Z " fill="#000000"/><text fill="#000000" font-family="sans-serif" font-size="14" lengthAdjust="spacing" textLength="167.6494" x="358.2118" y="174.432">FigureCategoryController</text><line style="stroke:#181818;stroke-width:0.5;" x1="287.5" x2="564.073" y1="185" y2="185"/><text fill="#000000" font-family="sans-serif" font-size="14" lengthAdjust="spacing" textLength="202.0472" x="292.5" y="203.9659">-FigureCategoryService service</text><line style="stroke:#181818;stroke-width:0.5;" x1="287.5" x2="564.073" y1="212.0679" y2="212.0679"/><text fill="#000000" font-family="sans-serif" font-size="14" lengthAdjust="spacing" textLength="266.573" x="292.5" y="231.0339">+toggleCategory(String): FigureCategory</text></g><!--class ToggleFigureCategoryStatusUI--><g id="elem_ToggleFigureCategoryStatusUI"><rect codeLine="45" fill="#F1F1F1" height="86.1358" id="ToggleFigureCategoryStatusUI" rx="2.5" ry="2.5" style="stroke:#181818;stroke-width:0.5;" width="251.8471" x="300" y="7"/><ellipse cx="322.8335" cy="23" fill="#ADD1B2" rx="11" ry="11" style="stroke:#181818;stroke-width:1.0;"/><path d="M322.3023,29.9219 Q320.5523,29.9219 319.4117,29.1875 Q318.2867,28.4375 317.7242,27.0938 Q317.1773,25.7344 317.1773,23.9375 Q317.1773,21.9063 317.8335,20.4531 Q318.4898,19 319.771,18.2188 Q321.0523,17.4375 322.9273,17.4375 Q323.8179,17.4375 324.4898,17.625 Q325.1617,17.7969 325.8492,18.1406 L325.0367,20.1563 Q324.4117,19.8438 323.8648,19.7188 Q323.3335,19.5938 322.8492,19.5938 Q321.6773,19.5938 320.9742,20.125 Q320.271,20.6563 319.9742,21.6094 Q319.6773,22.5625 319.6773,23.8281 Q319.6773,25.8438 320.396,26.8125 Q321.1148,27.7656 322.7085,27.7656 Q323.3023,27.7656 323.9273,27.6094 Q324.5523,27.4531 325.3804,27.0781 L325.3804,29.2969 Q324.646,29.6094 323.8492,29.7656 Q323.0679,29.9219 322.3023,29.9219 Z " fill="#000000"/><text fill="#000000" font-family="sans-serif" font-size="14" lengthAdjust="spacing" textLength="202.4393" x="338.5743" y="28.432">ToggleFigureCategoryStatusUI</text><line style="stroke:#181818;stroke-width:0.5;" x1="301" x2="550.8471" y1="39" y2="39"/><text fill="#000000" font-family="sans-serif" font-size="14" lengthAdjust="spacing" textLength="239.8471" x="306" y="57.9659">-FigureCategoryController controller</text><line style="stroke:#181818;stroke-width:0.5;" x1="301" x2="550.8471" y1="66.0679" y2="66.0679"/><text fill="#000000" font-family="sans-serif" font-size="14" lengthAdjust="spacing" textLength="130.2555" x="306" y="85.0339">+doShow(): boolean</text></g><!--class AuthorizationService--><g id="elem_AuthorizationService"><rect codeLine="51" fill="#F1F1F1" height="67.0679" id="AuthorizationService" rx="2.5" ry="2.5" style="stroke:#181818;stroke-width:0.5;" width="348.5308" x="626.5" y="502"/><ellipse cx="732.8506" cy="518" fill="#B4A7E5" rx="11" ry="11" style="stroke:#181818;stroke-width:1.0;"/><path d="M728.8819,524.5 L728.8819,522.7969 L731.2412,522.5313 L731.2412,514.3281 L728.8819,514.0625 L728.8819,512.3594 L736.0225,512.3594 L736.0225,514.0625 L733.6006,514.3281 L733.6006,522.5313 L736.0225,522.7969 L736.0225,524.5 L728.8819,524.5 Z " fill="#000000"/><text fill="#000000" font-family="sans-serif" font-size="14" font-style="italic" lengthAdjust="spacing" textLength="127.3295" x="753.3506" y="523.432">AuthorizationService</text><line style="stroke:#181818;stroke-width:0.5;" x1="627.5" x2="974.0308" y1="534" y2="534"/><line style="stroke:#181818;stroke-width:0.5;" x1="627.5" x2="974.0308" y1="542" y2="542"/><text fill="#000000" font-family="sans-serif" font-size="14" lengthAdjust="spacing" textLength="336.5308" x="632.5" y="560.9659">+ensureAuthenticatedUserHasAnyOf(String...): void</text></g><!--reverse link FigureCategoryRepository to JpaFigureCategoryRepository--><g id="link_FigureCategoryRepository_JpaFigureCategoryRepository"><path codeLine="29" d="M368.1325,591.0473 C339.6725,617.8773 316.06,640.13 287.62,666.94 " fill="none" id="FigureCategoryRepository-backto-JpaFigureCategoryRepository" style="stroke:#181818;stroke-width:1.0;stroke-dasharray:7.0,7.0;"/><polygon fill="none" points="381.23,578.7,364.0168,586.6815,372.2483,595.4131,381.23,578.7" style="stroke:#181818;stroke-width:1.0;"/></g><!--reverse link FigureCategoryRepository to InMemoryFigureCategoryRepository--><g id="link_FigureCategoryRepository_InMemoryFigureCategoryRepository"><path codeLine="30" d="M483.8675,591.0473 C512.3275,617.8773 535.94,640.13 564.38,666.94 " fill="none" id="FigureCategoryRepository-backto-InMemoryFigureCategoryRepository" style="stroke:#181818;stroke-width:1.0;stroke-dasharray:7.0,7.0;"/><polygon fill="none" points="470.77,578.7,479.7517,595.4131,487.9832,586.6815,470.77,578.7" style="stroke:#181818;stroke-width:1.0;"/></g><!--link ToggleFigureCategoryStatusUI to FigureCategoryController--><g id="link_ToggleFigureCategoryStatusUI_FigureCategoryController"><path codeLine="55" d="M426,93.04 C426,111.8 426,127.86 426,146.66 " fill="none" id="ToggleFigureCategoryStatusUI-to-FigureCategoryController" style="stroke:#181818;stroke-width:1.0;"/><polygon fill="#181818" points="426,152.66,430,143.66,426,147.66,422,143.66,426,152.66" style="stroke:#181818;stroke-width:1.0;"/></g><!--link FigureCategoryController to FigureCategoryService--><g id="link_FigureCategoryController_FigureCategoryService"><path codeLine="56" d="M426,239.35 C426,257.81 426,273.61 426,293 " fill="none" id="FigureCategoryController-to-FigureCategoryService" style="stroke:#181818;stroke-width:1.0;"/><polygon fill="#181818" points="426,299,430,290,426,294,422,290,426,299" style="stroke:#181818;stroke-width:1.0;"/></g><!--link FigureCategoryService to FigureCategoryRepository--><g id="link_FigureCategoryService_FigureCategoryRepository"><path codeLine="57" d="M426,404.17 C426,432.02 426,459.95 426,486.21 " fill="none" id="FigureCategoryService-to-FigureCategoryRepository" style="stroke:#181818;stroke-width:1.0;"/><polygon fill="#181818" points="426,492.21,430,483.21,426,487.21,422,483.21,426,492.21" style="stroke:#181818;stroke-width:1.0;"/></g><!--link FigureCategoryService to AuthorizationService--><g id="link_FigureCategoryService_AuthorizationService"><path codeLine="58" d="M532.46,404.17 C597.2,435.59 672.512,472.1406 728.462,499.2906 " fill="none" id="FigureCategoryService-to-AuthorizationService" style="stroke:#181818;stroke-width:1.0;"/><polygon fill="#181818" points="733.86,501.91,727.5092,494.3822,729.3616,499.7272,724.0167,501.5796,733.86,501.91" style="stroke:#181818;stroke-width:1.0;"/></g><!--link FigureCategoryService to FigureCategory--><g id="link_FigureCategoryService_FigureCategory"><path codeLine="59" d="M338,404.17 C302.91,424.77 267.3344,445.6526 230.3844,467.3426 " fill="none" id="FigureCategoryService-to-FigureCategory" style="stroke:#181818;stroke-width:1.0;"/><polygon fill="#181818" points="225.21,470.38,234.9965,469.2735,229.522,467.8488,230.9466,462.3743,225.21,470.38" style="stroke:#181818;stroke-width:1.0;"/></g><!--SRC=[nLFRJiCm37tFL-GHX5RnZ2QaSHD3N2GA7s1IhxF8aYhnXZhWtt7R5RRH3iGBJqsEVNoENIS-aoiWm4mNO9uXnvHBYpgWON2vHHK_4-8KClz2BjSJi74zOiaXbmNgmjkokgp5Z8KOHyo1dkQCO-DTIalKXqhL4Nr1-JpWAJ3cFfJwLMazq4_UMmIdAOuCqm9hyDeRi6UI-40pr4BcyuoOlAimoJZGK2NBPM__I2yyPJMOOIVSbgx0bPnwLueSOvY0mIrZzrZuIDnQFD0JSjb9UGipt4kbEPTBdRkYiWDskCazhWaHH6mp89HDe7BGZEMgWFyrC7OtE1FalrpqwWxVacJNU7vW_jHNzrwc61OaIz6iPwz2a6ETCPhpr0TQGZM9bWm2BbKz1VQvFAwsmjVe-lx69dxg7GTlBOPEGwrURBv_KtoeyxSAC_0yFeuxLTTCcSzZevtvTEfVUbzQvx2QzK8NHQ9AGCTaH2fxbBOk8OvSUJTPjP4aIVkqfV1EvuF1SQzlrTlGTzRAfkgU_FVytlrSftGDujSA7m00]--></g></svg>