<svg xmlns="http://www.w3.org/2000/svg" xmlns:xlink="http://www.w3.org/1999/xlink" contentStyleType="text/css" height="1271px" preserveAspectRatio="none" style="width:1854px;height:1271px;background:#FFFFFF;" version="1.1" viewBox="0 0 1854 1271" width="1854px" zoomAndPan="magnify"><defs/><g><rect fill="#FFFFFF" height="1076.2623" style="stroke:#181818;stroke-width:1.0;" width="10" x="18.3089" y="94.0679"/><rect fill="#FFFFFF" height="1052.5563" style="stroke:#181818;stroke-width:1.0;" width="10" x="371.4592" y="117.7739"/><rect fill="#FFFFFF" height="158.5301" style="stroke:#181818;stroke-width:1.0;" width="10" x="603.8064" y="149.4799"/><rect fill="#FFFFFF" height="640.3781" style="stroke:#181818;stroke-width:1.0;" width="10" x="603.8064" y="403.1281"/><rect fill="#FFFFFF" height="95.118" style="stroke:#181818;stroke-width:1.0;" width="10" x="788.4505" y="181.186"/><rect fill="#FFFFFF" height="576.9661" style="stroke:#181818;stroke-width:1.0;" width="10" x="788.4505" y="434.8341"/><rect fill="#FFFFFF" height="31.706" style="stroke:#181818;stroke-width:1.0;" width="10" x="973.0946" y="212.892"/><rect fill="#FFFFFF" height="31.706" style="stroke:#181818;stroke-width:1.0;" width="10" x="973.0946" y="529.9521"/><rect fill="#FFFFFF" height="209.218" style="stroke:#181818;stroke-width:1.0;" width="10" x="973.0946" y="770.8762"/><rect fill="#FFFFFF" height="31.706" style="stroke:#181818;stroke-width:1.0;" width="10" x="1151.101" y="466.5401"/><rect fill="#FFFFFF" height="112.0999" style="stroke:#181818;stroke-width:1.0;" width="10" x="1293.8836" y="620.0702"/><rect fill="#FFFFFF" height="31.706" style="stroke:#181818;stroke-width:1.0;" width="10" x="1293.8836" y="1106.9182"/><rect fill="#FFFFFF" height="31.706" style="stroke:#181818;stroke-width:1.0;" width="10" x="1464.722" y="829.2882"/><rect fill="#FFFFFF" height="31.706" style="stroke:#181818;stroke-width:1.0;" width="10" x="1705.0212" y="909.6821"/><rect fill="none" height="163.512" style="stroke:#000000;stroke-width:1.5;" width="664.2566" x="702.3628" y="576.6582"/><rect fill="none" height="163.512" style="stroke:#000000;stroke-width:1.5;" width="972.0828" x="875.1349" y="785.8762"/><line style="stroke:#181818;stroke-width:0.5;stroke-dasharray:5.0,5.0;" x1="23" x2="23" y1="84.0679" y2="1188.3302"/><line style="stroke:#181818;stroke-width:0.5;stroke-dasharray:5.0,5.0;" x1="375.9366" x2="375.9366" y1="84.0679" y2="1188.3302"/><line style="stroke:#181818;stroke-width:0.5;stroke-dasharray:5.0,5.0;" x1="607.9817" x2="607.9817" y1="84.0679" y2="1188.3302"/><line style="stroke:#181818;stroke-width:0.5;stroke-dasharray:5.0,5.0;" x1="793.3628" x2="793.3628" y1="84.0679" y2="1188.3302"/><line style="stroke:#181818;stroke-width:0.5;stroke-dasharray:5.0,5.0;" x1="977.1349" x2="977.1349" y1="84.0679" y2="1188.3302"/><line style="stroke:#181818;stroke-width:0.5;stroke-dasharray:5.0,5.0;" x1="1156.0543" x2="1156.0543" y1="84.0679" y2="1188.3302"/><line style="stroke:#181818;stroke-width:0.5;stroke-dasharray:5.0,5.0;" x1="1298.1478" x2="1298.1478" y1="84.0679" y2="1188.3302"/><line style="stroke:#181818;stroke-width:0.5;stroke-dasharray:5.0,5.0;" x1="1469.6194" x2="1469.6194" y1="84.0679" y2="1188.3302"/><line style="stroke:#181818;stroke-width:0.5;stroke-dasharray:5.0,5.0;" x1="1709.8247" x2="1709.8247" y1="84.0679" y2="1188.3302"/><text fill="#000000" font-family="sans-serif" font-size="14" lengthAdjust="spacing" textLength="30.6179" x="5" y="79.9659">User</text><ellipse cx="23.3089" cy="13.5" fill="#E2E2F0" rx="8" ry="8" style="stroke:#181818;stroke-width:0.5;"/><path d="M23.3089,21.5 L23.3089,48.5 M10.3089,29.5 L36.3089,29.5 M23.3089,48.5 L10.3089,63.5 M23.3089,48.5 L36.3089,63.5 " fill="none" style="stroke:#181818;stroke-width:0.5;"/><text fill="#000000" font-family="sans-serif" font-size="14" lengthAdjust="spacing" textLength="30.6179" x="5" y="1202.2962">User</text><ellipse cx="23.3089" cy="1214.8982" fill="#E2E2F0" rx="8" ry="8" style="stroke:#181818;stroke-width:0.5;"/><path d="M23.3089,1222.8982 L23.3089,1249.8982 M10.3089,1230.8982 L36.3089,1230.8982 M23.3089,1249.8982 L10.3089,1264.8982 M23.3089,1249.8982 L36.3089,1264.8982 " fill="none" style="stroke:#181818;stroke-width:0.5;"/><rect fill="#E2E2F0" height="33.0679" rx="2.5" ry="2.5" style="stroke:#181818;stroke-width:0.5;" width="263.0451" x="244.9366" y="50"/><text fill="#000000" font-family="sans-serif" font-size="14" lengthAdjust="spacing" textLength="249.0451" x="251.9366" y="71.9659">ActivateDeactivateFigureCategoriesUI</text><rect fill="#E2E2F0" height="33.0679" rx="2.5" ry="2.5" style="stroke:#181818;stroke-width:0.5;" width="263.0451" x="244.9366" y="1187.3302"/><text fill="#000000" font-family="sans-serif" font-size="14" lengthAdjust="spacing" textLength="249.0451" x="251.9366" y="1209.2962">ActivateDeactivateFigureCategoriesUI</text><rect fill="#E2E2F0" height="33.0679" rx="2.5" ry="2.5" style="stroke:#181818;stroke-width:0.5;" width="181.6494" x="517.9817" y="50"/><text fill="#000000" font-family="sans-serif" font-size="14" lengthAdjust="spacing" textLength="167.6494" x="524.9817" y="71.9659">FigureCategoryController</text><rect fill="#E2E2F0" height="33.0679" rx="2.5" ry="2.5" style="stroke:#181818;stroke-width:0.5;" width="181.6494" x="517.9817" y="1187.3302"/><text fill="#000000" font-family="sans-serif" font-size="14" lengthAdjust="spacing" textLength="167.6494" x="524.9817" y="1209.2962">FigureCategoryController</text><rect fill="#E2E2F0" height="33.0679" rx="2.5" ry="2.5" style="stroke:#181818;stroke-width:0.5;" width="162.1754" x="712.3628" y="50"/><text fill="#000000" font-family="sans-serif" font-size="14" lengthAdjust="spacing" textLength="148.1754" x="719.3628" y="71.9659">FigureCategoryService</text><rect fill="#E2E2F0" height="33.0679" rx="2.5" ry="2.5" style="stroke:#181818;stroke-width:0.5;" width="162.1754" x="712.3628" y="1187.3302"/><text fill="#000000" font-family="sans-serif" font-size="14" lengthAdjust="spacing" textLength="148.1754" x="719.3628" y="1209.2962">FigureCategoryService</text><rect fill="#E2E2F0" height="33.0679" rx="2.5" ry="2.5" style="stroke:#181818;stroke-width:0.5;" width="185.9194" x="885.1349" y="50"/><text fill="#000000" font-family="sans-serif" font-size="14" lengthAdjust="spacing" textLength="171.9194" x="892.1349" y="71.9659">FigureCategoryRepository</text><rect fill="#E2E2F0" height="33.0679" rx="2.5" ry="2.5" style="stroke:#181818;stroke-width:0.5;" width="185.9194" x="885.1349" y="1187.3302"/><text fill="#000000" font-family="sans-serif" font-size="14" lengthAdjust="spacing" textLength="171.9194" x="892.1349" y="1209.2962">FigureCategoryRepository</text><rect fill="#E2E2F0" height="33.0679" rx="2.5" ry="2.5" style="stroke:#181818;stroke-width:0.5;" width="150.0935" x="1081.0543" y="50"/><text fill="#000000" font-family="sans-serif" font-size="14" lengthAdjust="spacing" textLength="136.0935" x="1088.0543" y="71.9659">AuthorizationService</text><rect fill="#E2E2F0" height="33.0679" rx="2.5" ry="2.5" style="stroke:#181818;stroke-width:0.5;" width="150.0935" x="1081.0543" y="1187.3302"/><text fill="#000000" font-family="sans-serif" font-size="14" lengthAdjust="spacing" textLength="136.0935" x="1088.0543" y="1209.2962">AuthorizationService</text><rect fill="#E2E2F0" height="33.0679" rx="2.5" ry="2.5" style="stroke:#181818;stroke-width:0.5;" width="115.4716" x="1241.1478" y="50"/><text fill="#000000" font-family="sans-serif" font-size="14" lengthAdjust="spacing" textLength="101.4716" x="1248.1478" y="71.9659">FigureCategory</text><rect fill="#E2E2F0" height="33.0679" rx="2.5" ry="2.5" style="stroke:#181818;stroke-width:0.5;" width="115.4716" x="1241.1478" y="1187.3302"/><text fill="#000000" font-family="sans-serif" font-size="14" lengthAdjust="spacing" textLength="101.4716" x="1248.1478" y="1209.2962">FigureCategory</text><rect fill="#E2E2F0" height="33.0679" rx="2.5" ry="2.5" style="stroke:#181818;stroke-width:0.5;" width="206.2053" x="1366.6194" y="50"/><text fill="#000000" font-family="sans-serif" font-size="14" lengthAdjust="spacing" textLength="192.2053" x="1373.6194" y="71.9659">JpaFigureCategoryRepository</text><rect fill="#E2E2F0" height="33.0679" rx="2.5" ry="2.5" style="stroke:#181818;stroke-width:0.5;" width="206.2053" x="1366.6194" y="1187.3302"/><text fill="#000000" font-family="sans-serif" font-size="14" lengthAdjust="spacing" textLength="192.2053" x="1373.6194" y="1209.2962">JpaFigureCategoryRepository</text><rect fill="#E2E2F0" height="33.0679" rx="2.5" ry="2.5" style="stroke:#181818;stroke-width:0.5;" width="254.3931" x="1582.8247" y="50"/><text fill="#000000" font-family="sans-serif" font-size="14" lengthAdjust="spacing" textLength="240.3931" x="1589.8247" y="71.9659">InMemoryFigureCategoryRepository</text><rect fill="#E2E2F0" height="33.0679" rx="2.5" ry="2.5" style="stroke:#181818;stroke-width:0.5;" width="254.3931" x="1582.8247" y="1187.3302"/><text fill="#000000" font-family="sans-serif" font-size="14" lengthAdjust="spacing" textLength="240.3931" x="1589.8247" y="1209.2962">InMemoryFigureCategoryRepository</text><rect fill="#FFFFFF" height="1076.2623" style="stroke:#181818;stroke-width:1.0;" width="10" x="18.3089" y="94.0679"/><rect fill="#FFFFFF" height="1052.5563" style="stroke:#181818;stroke-width:1.0;" width="10" x="371.4592" y="117.7739"/><rect fill="#FFFFFF" height="158.5301" style="stroke:#181818;stroke-width:1.0;" width="10" x="603.8064" y="149.4799"/><rect fill="#FFFFFF" height="640.3781" style="stroke:#181818;stroke-width:1.0;" width="10" x="603.8064" y="403.1281"/><rect fill="#FFFFFF" height="95.118" style="stroke:#181818;stroke-width:1.0;" width="10" x="788.4505" y="181.186"/><rect fill="#FFFFFF" height="576.9661" style="stroke:#181818;stroke-width:1.0;" width="10" x="788.4505" y="434.8341"/><rect fill="#FFFFFF" height="31.706" style="stroke:#181818;stroke-width:1.0;" width="10" x="973.0946" y="212.892"/><rect fill="#FFFFFF" height="31.706" style="stroke:#181818;stroke-width:1.0;" width="10" x="973.0946" y="529.9521"/><rect fill="#FFFFFF" height="209.218" style="stroke:#181818;stroke-width:1.0;" width="10" x="973.0946" y="770.8762"/><rect fill="#FFFFFF" height="31.706" style="stroke:#181818;stroke-width:1.0;" width="10" x="1151.101" y="466.5401"/><rect fill="#FFFFFF" height="112.0999" style="stroke:#181818;stroke-width:1.0;" width="10" x="1293.8836" y="620.0702"/><rect fill="#FFFFFF" height="31.706" style="stroke:#181818;stroke-width:1.0;" width="10" x="1293.8836" y="1106.9182"/><rect fill="#FFFFFF" height="31.706" style="stroke:#181818;stroke-width:1.0;" width="10" x="1464.722" y="829.2882"/><rect fill="#FFFFFF" height="31.706" style="stroke:#181818;stroke-width:1.0;" width="10" x="1705.0212" y="909.6821"/><polygon fill="#181818" points="359.4592,113.7739,369.4592,117.7739,359.4592,121.7739,363.4592,117.7739" style="stroke:#181818;stroke-width:1.0;"/><line style="stroke:#181818;stroke-width:1.0;" x1="28.3089" x2="365.4592" y1="117.7739" y2="117.7739"/><text fill="#000000" font-family="sans-serif" font-size="13" lengthAdjust="spacing" textLength="201.0712" x="35.3089" y="111.9649">mudar estado de figure category</text><polygon fill="#181818" points="591.8064,145.4799,601.8064,149.4799,591.8064,153.4799,595.8064,149.4799" style="stroke:#181818;stroke-width:1.0;"/><line style="stroke:#181818;stroke-width:1.0;" x1="381.4592" x2="597.8064" y1="149.4799" y2="149.4799"/><text fill="#000000" font-family="sans-serif" font-size="13" lengthAdjust="spacing" textLength="46.6701" x="388.4592" y="143.6709">findAll()</text><polygon fill="#181818" points="776.4505,177.186,786.4505,181.186,776.4505,185.186,780.4505,181.186" style="stroke:#181818;stroke-width:1.0;"/><line style="stroke:#181818;stroke-width:1.0;" x1="613.8064" x2="782.4505" y1="181.186" y2="181.186"/><text fill="#000000" font-family="sans-serif" font-size="13" lengthAdjust="spacing" textLength="40.4431" x="620.8064" y="175.377">listAll()</text><polygon fill="#181818" points="961.0946,208.892,971.0946,212.892,961.0946,216.892,965.0946,212.892" style="stroke:#181818;stroke-width:1.0;"/><line style="stroke:#181818;stroke-width:1.0;" x1="798.4505" x2="967.0946" y1="212.892" y2="212.892"/><text fill="#000000" font-family="sans-serif" font-size="13" lengthAdjust="spacing" textLength="46.6701" x="805.4505" y="207.083">findAll()</text><polygon fill="#181818" points="809.4505,240.598,799.4505,244.598,809.4505,248.598,805.4505,244.598" style="stroke:#181818;stroke-width:1.0;"/><line style="stroke:#181818;stroke-width:1.0;stroke-dasharray:2.0,2.0;" x1="803.4505" x2="977.0946" y1="244.598" y2="244.598"/><text fill="#000000" font-family="sans-serif" font-size="13" lengthAdjust="spacing" textLength="150.6441" x="815.4505" y="238.789">lista de figure categories</text><polygon fill="#181818" points="624.8064,272.304,614.8064,276.304,624.8064,280.304,620.8064,276.304" style="stroke:#181818;stroke-width:1.0;"/><line style="stroke:#181818;stroke-width:1.0;stroke-dasharray:2.0,2.0;" x1="618.8064" x2="792.4505" y1="276.304" y2="276.304"/><text fill="#000000" font-family="sans-serif" font-size="13" lengthAdjust="spacing" textLength="150.6441" x="630.8064" y="270.495">lista de figure categories</text><polygon fill="#181818" points="392.4592,304.01,382.4592,308.01,392.4592,312.01,388.4592,308.01" style="stroke:#181818;stroke-width:1.0;"/><line style="stroke:#181818;stroke-width:1.0;stroke-dasharray:2.0,2.0;" x1="386.4592" x2="607.8064" y1="308.01" y2="308.01"/><text fill="#000000" font-family="sans-serif" font-size="13" lengthAdjust="spacing" textLength="150.6441" x="398.4592" y="302.201">lista de figure categories</text><polygon fill="#181818" points="39.3089,335.716,29.3089,339.716,39.3089,343.716,35.3089,339.716" style="stroke:#181818;stroke-width:1.0;"/><line style="stroke:#181818;stroke-width:1.0;stroke-dasharray:2.0,2.0;" x1="33.3089" x2="370.4592" y1="339.716" y2="339.716"/><text fill="#000000" font-family="sans-serif" font-size="13" lengthAdjust="spacing" textLength="150.6441" x="45.3089" y="333.907">lista de figure categories</text><polygon fill="#181818" points="359.4592,367.4221,369.4592,371.4221,359.4592,375.4221,363.4592,371.4221" style="stroke:#181818;stroke-width:1.0;"/><line style="stroke:#181818;stroke-width:1.0;" x1="28.3089" x2="365.4592" y1="371.4221" y2="371.4221"/><text fill="#000000" font-family="sans-serif" font-size="13" lengthAdjust="spacing" textLength="227.5001" x="35.3089" y="365.6131">seleciona categoria a ativar/desativar</text><polygon fill="#181818" points="591.8064,399.1281,601.8064,403.1281,591.8064,407.1281,595.8064,403.1281" style="stroke:#181818;stroke-width:1.0;"/><line style="stroke:#181818;stroke-width:1.0;" x1="381.4592" x2="597.8064" y1="403.1281" y2="403.1281"/><text fill="#000000" font-family="sans-serif" font-size="13" lengthAdjust="spacing" textLength="137.2411" x="388.4592" y="397.3191">toggleCategory(name)</text><polygon fill="#181818" points="776.4505,430.8341,786.4505,434.8341,776.4505,438.8341,780.4505,434.8341" style="stroke:#181818;stroke-width:1.0;"/><line style="stroke:#181818;stroke-width:1.0;" x1="613.8064" x2="782.4505" y1="434.8341" y2="434.8341"/><text fill="#000000" font-family="sans-serif" font-size="13" lengthAdjust="spacing" textLength="137.2411" x="620.8064" y="429.0251">toggleCategory(name)</text><polygon fill="#181818" points="1139.101,462.5401,1149.101,466.5401,1139.101,470.5401,1143.101,466.5401" style="stroke:#181818;stroke-width:1.0;"/><line style="stroke:#181818;stroke-width:1.0;" x1="798.4505" x2="1145.101" y1="466.5401" y2="466.5401"/><text fill="#000000" font-family="sans-serif" font-size="13" lengthAdjust="spacing" textLength="235.7942" x="805.4505" y="460.7311">ensureAuthenticatedUserHasAnyOf(...)</text><polygon fill="#181818" points="809.4505,494.2461,799.4505,498.2461,809.4505,502.2461,805.4505,498.2461" style="stroke:#181818;stroke-width:1.0;"/><line style="stroke:#181818;stroke-width:1.0;stroke-dasharray:2.0,2.0;" x1="803.4505" x2="1155.101" y1="498.2461" y2="498.2461"/><text fill="#000000" font-family="sans-serif" font-size="13" lengthAdjust="spacing" textLength="65.871" x="815.4505" y="492.4371">autorizado</text><polygon fill="#181818" points="961.0946,525.9521,971.0946,529.9521,961.0946,533.9521,965.0946,529.9521" style="stroke:#181818;stroke-width:1.0;"/><line style="stroke:#181818;stroke-width:1.0;" x1="798.4505" x2="967.0946" y1="529.9521" y2="529.9521"/><text fill="#000000" font-family="sans-serif" font-size="13" lengthAdjust="spacing" textLength="118.2091" x="805.4505" y="524.1431">findByName(name)</text><polygon fill="#181818" points="809.4505,557.6582,799.4505,561.6582,809.4505,565.6582,805.4505,561.6582" style="stroke:#181818;stroke-width:1.0;"/><line style="stroke:#181818;stroke-width:1.0;stroke-dasharray:2.0,2.0;" x1="803.4505" x2="977.0946" y1="561.6582" y2="561.6582"/><text fill="#000000" font-family="sans-serif" font-size="13" lengthAdjust="spacing" textLength="94.2241" x="815.4505" y="555.8492">FigureCategory</text><path d="M702.3628,576.6582 L764.6658,576.6582 L764.6658,586.3642 L754.6658,596.3642 L702.3628,596.3642 L702.3628,576.6582 " fill="#EEEEEE" style="stroke:#000000;stroke-width:1.5;"/><rect fill="none" height="163.512" style="stroke:#000000;stroke-width:1.5;" width="664.2566" x="702.3628" y="576.6582"/><text fill="#000000" font-family="sans-serif" font-size="13" font-weight="bold" lengthAdjust="spacing" textLength="17.303" x="717.3628" y="591.5552">alt</text><text fill="#000000" font-family="sans-serif" font-size="11" font-weight="bold" lengthAdjust="spacing" textLength="117.5891" x="779.6658" y="590.4171">[Categoria est&#225; ativa]</text><polygon fill="#181818" points="1281.8836,616.0702,1291.8836,620.0702,1281.8836,624.0702,1285.8836,620.0702" style="stroke:#181818;stroke-width:1.0;"/><line style="stroke:#181818;stroke-width:1.0;" x1="798.4505" x2="1287.8836" y1="620.0702" y2="620.0702"/><text fill="#000000" font-family="sans-serif" font-size="13" lengthAdjust="spacing" textLength="70.6291" x="805.4505" y="614.2612">deactivate()</text><polygon fill="#181818" points="809.4505,647.7762,799.4505,651.7762,809.4505,655.7762,805.4505,651.7762" style="stroke:#181818;stroke-width:1.0;"/><line style="stroke:#181818;stroke-width:1.0;stroke-dasharray:2.0,2.0;" x1="803.4505" x2="1292.8836" y1="651.7762" y2="651.7762"/><text fill="#000000" font-family="sans-serif" font-size="13" lengthAdjust="spacing" textLength="197.0282" x="815.4505" y="645.9672">estado = inativo, data atualizada</text><line style="stroke:#000000;stroke-width:1.0;stroke-dasharray:2.0,2.0;" x1="702.3628" x2="1366.6194" y1="660.7762" y2="660.7762"/><text fill="#000000" font-family="sans-serif" font-size="11" font-weight="bold" lengthAdjust="spacing" textLength="128.0281" x="707.3628" y="672.5351">[Categoria est&#225; inativa]</text><polygon fill="#181818" points="1281.8836,696.4641,1291.8836,700.4641,1281.8836,704.4641,1285.8836,700.4641" style="stroke:#181818;stroke-width:1.0;"/><line style="stroke:#181818;stroke-width:1.0;" x1="798.4505" x2="1287.8836" y1="700.4641" y2="700.4641"/><text fill="#000000" font-family="sans-serif" font-size="13" lengthAdjust="spacing" textLength="55.302" x="805.4505" y="694.6551">activate()</text><polygon fill="#181818" points="809.4505,728.1701,799.4505,732.1701,809.4505,736.1701,805.4505,732.1701" style="stroke:#181818;stroke-width:1.0;"/><line style="stroke:#181818;stroke-width:1.0;stroke-dasharray:2.0,2.0;" x1="803.4505" x2="1297.8836" y1="732.1701" y2="732.1701"/><text fill="#000000" font-family="sans-serif" font-size="13" lengthAdjust="spacing" textLength="185.6401" x="815.4505" y="726.3611">estado = ativo, data atualizada</text><polygon fill="#181818" points="961.0946,766.8762,971.0946,770.8762,961.0946,774.8762,965.0946,770.8762" style="stroke:#181818;stroke-width:1.0;"/><line style="stroke:#181818;stroke-width:1.0;" x1="798.4505" x2="967.0946" y1="770.8762" y2="770.8762"/><text fill="#000000" font-family="sans-serif" font-size="13" lengthAdjust="spacing" textLength="129.4801" x="805.4505" y="765.0671">save(FigureCategory)</text><path d="M875.1349,785.8762 L937.4379,785.8762 L937.4379,795.5822 L927.4379,805.5822 L875.1349,805.5822 L875.1349,785.8762 " fill="#EEEEEE" style="stroke:#000000;stroke-width:1.5;"/><rect fill="none" height="163.512" style="stroke:#000000;stroke-width:1.5;" width="972.0828" x="875.1349" y="785.8762"/><text fill="#000000" font-family="sans-serif" font-size="13" font-weight="bold" lengthAdjust="spacing" textLength="17.303" x="890.1349" y="800.7732">alt</text><text fill="#000000" font-family="sans-serif" font-size="11" font-weight="bold" lengthAdjust="spacing" textLength="151.4359" x="952.4379" y="799.6351">[Persist&#234;ncia ativa com JPA]</text><polygon fill="#181818" points="1452.722,825.2882,1462.722,829.2882,1452.722,833.2882,1456.722,829.2882" style="stroke:#181818;stroke-width:1.0;"/><line style="stroke:#181818;stroke-width:1.0;" x1="983.0946" x2="1458.722" y1="829.2882" y2="829.2882"/><text fill="#000000" font-family="sans-serif" font-size="13" lengthAdjust="spacing" textLength="129.4801" x="990.0946" y="823.4792">save(FigureCategory)</text><polygon fill="#181818" points="994.0946,856.9942,984.0946,860.9942,994.0946,864.9942,990.0946,860.9942" style="stroke:#181818;stroke-width:1.0;"/><line style="stroke:#181818;stroke-width:1.0;stroke-dasharray:2.0,2.0;" x1="988.0946" x2="1468.722" y1="860.9942" y2="860.9942"/><text fill="#000000" font-family="sans-serif" font-size="13" lengthAdjust="spacing" textLength="123.5261" x="1000.0946" y="855.1852">categoria atualizada</text><line style="stroke:#000000;stroke-width:1.0;stroke-dasharray:2.0,2.0;" x1="875.1349" x2="1847.2178" y1="869.9942" y2="869.9942"/><text fill="#000000" font-family="sans-serif" font-size="11" font-weight="bold" lengthAdjust="spacing" textLength="108.4922" x="880.1349" y="881.7531">[InMemory (testes)]</text><polygon fill="#181818" points="1693.0212,905.6821,1703.0212,909.6821,1693.0212,913.6821,1697.0212,909.6821" style="stroke:#181818;stroke-width:1.0;"/><line style="stroke:#181818;stroke-width:1.0;" x1="983.0946" x2="1699.0212" y1="909.6821" y2="909.6821"/><text fill="#000000" font-family="sans-serif" font-size="13" lengthAdjust="spacing" textLength="129.4801" x="990.0946" y="903.8731">save(FigureCategory)</text><polygon fill="#181818" points="994.0946,937.3881,984.0946,941.3881,994.0946,945.3881,990.0946,941.3881" style="stroke:#181818;stroke-width:1.0;"/><line style="stroke:#181818;stroke-width:1.0;stroke-dasharray:2.0,2.0;" x1="988.0946" x2="1709.0212" y1="941.3881" y2="941.3881"/><text fill="#000000" font-family="sans-serif" font-size="13" lengthAdjust="spacing" textLength="123.5261" x="1000.0946" y="935.5791">categoria atualizada</text><polygon fill="#181818" points="809.4505,976.0941,799.4505,980.0941,809.4505,984.0941,805.4505,980.0941" style="stroke:#181818;stroke-width:1.0;"/><line style="stroke:#181818;stroke-width:1.0;stroke-dasharray:2.0,2.0;" x1="803.4505" x2="977.0946" y1="980.0941" y2="980.0941"/><text fill="#000000" font-family="sans-serif" font-size="13" lengthAdjust="spacing" textLength="120.6531" x="815.4505" y="974.2851">categoria persistida</text><polygon fill="#181818" points="624.8064,1007.8002,614.8064,1011.8002,624.8064,1015.8002,620.8064,1011.8002" style="stroke:#181818;stroke-width:1.0;"/><line style="stroke:#181818;stroke-width:1.0;stroke-dasharray:2.0,2.0;" x1="618.8064" x2="792.4505" y1="1011.8002" y2="1011.8002"/><text fill="#000000" font-family="sans-serif" font-size="13" lengthAdjust="spacing" textLength="123.5261" x="630.8064" y="1005.9912">categoria atualizada</text><polygon fill="#181818" points="392.4592,1039.5062,382.4592,1043.5062,392.4592,1047.5062,388.4592,1043.5062" style="stroke:#181818;stroke-width:1.0;"/><line style="stroke:#181818;stroke-width:1.0;stroke-dasharray:2.0,2.0;" x1="386.4592" x2="607.8064" y1="1043.5062" y2="1043.5062"/><text fill="#000000" font-family="sans-serif" font-size="13" lengthAdjust="spacing" textLength="76.1801" x="398.4592" y="1037.6972">confirma&#231;&#227;o</text><polygon fill="#181818" points="39.3089,1071.2122,29.3089,1075.2122,39.3089,1079.2122,35.3089,1075.2122" style="stroke:#181818;stroke-width:1.0;"/><line style="stroke:#181818;stroke-width:1.0;stroke-dasharray:2.0,2.0;" x1="33.3089" x2="370.4592" y1="1075.2122" y2="1075.2122"/><text fill="#000000" font-family="sans-serif" font-size="13" lengthAdjust="spacing" textLength="177.0471" x="45.3089" y="1069.4032">Estado alterado com sucesso</text><polygon fill="#181818" points="1281.8836,1102.9182,1291.8836,1106.9182,1281.8836,1110.9182,1285.8836,1106.9182" style="stroke:#181818;stroke-width:1.0;"/><line style="stroke:#181818;stroke-width:1.0;" x1="381.4592" x2="1287.8836" y1="1106.9182" y2="1106.9182"/><text fill="#000000" font-family="sans-serif" font-size="13" lengthAdjust="spacing" textLength="100.6981" x="388.4592" y="1101.1092">lastEditionDate()</text><polygon fill="#181818" points="392.4592,1134.6242,382.4592,1138.6242,392.4592,1142.6242,388.4592,1138.6242" style="stroke:#181818;stroke-width:1.0;"/><line style="stroke:#181818;stroke-width:1.0;stroke-dasharray:2.0,2.0;" x1="386.4592" x2="1297.8836" y1="1138.6242" y2="1138.6242"/><text fill="#000000" font-family="sans-serif" font-size="13" lengthAdjust="spacing" textLength="92.8981" x="398.4592" y="1132.8152">lastEditionDate</text><polygon fill="#181818" points="34.3089,1166.3302,24.3089,1170.3302,34.3089,1174.3302,30.3089,1170.3302" style="stroke:#181818;stroke-width:1.0;"/><line style="stroke:#181818;stroke-width:1.0;stroke-dasharray:2.0,2.0;" x1="28.3089" x2="375.4592" y1="1170.3302" y2="1170.3302"/><text fill="#000000" font-family="sans-serif" font-size="13" lengthAdjust="spacing" textLength="319.1502" x="40.3089" y="1164.5212">Sucesso da opera&#231;&#227;o, Nova situa&#231;&#227;o e &#218;ltima edi&#231;&#227;o</text><!--SRC=[jLVTQjim5BxNKvpB59hklh12bdQiXNLbMH_WO9ra0biAaXp87cLtOnU3lKPUR4TsKjkBBJjEcq0mrj7tdP_l72cOU6FXsP4LOetMgqIjKNkO9LvjqDCjuVxferhbbkRyj39MaNk-1tJmpQnMQNDjk_3eSruNXwqbVlY1wKrq2rn3bakqGCwZD209beKX97lB2ZHA7ILX9vehSwEzDMdA3bupePQpD9rSL5HTrg8JveXYGNQZ4cByL3aVnT-RYdQ08-Ilj3PESHctGvolh4KdpBJ7Upok2mj2IEhdx0egNf8nfErPh9UeNujZU6lgY8kGwOkME3-dGrlBKKg9CXfV613u6_3jEqckV3gdTtonzR0qqPZHMxNHALIz7JNB_NTEnm_EWD4L1sd7zc6HD8z6tYT3gZ-Xc-djb-Nawkggnja68bgHOms6kI_ifQaNlnLxx83ui7taRCLJTkwSQBuVfcDCFSnVbCb7mEvNgKu1_1aOBNDNP3m7mzOExXROQ4pxG-azA1tSCfSWqOS6oZ4D5KD1gQEZ44hhKuFuBuGnRdOu6U0wwo58Ip5AMGutD6ck3r5NKVKdiew7uEwlJjH-8a5YCdXuchL4NvVW3JoiyLIl6fg8x2yCO_ZJU4fgOxOp_J7wGaxt-ZDb0M_YkRBaBdepSjXnLbhwG0hhNgPNI52l8uLYnRWnLJcmBYMes84XmshKFQOrt3UzmIH6BvNDSFTdzzkywgNbhfmotBramqDeLvSdv9mvyGOHRa3e_9rKuN2xBMTUrtXgcODzbxWcTdSI1eU-ACFamGg6PLCczn8U3KyjbaTUlW22tS_KgupF0QcE2X3z-r8t3AJ_0000]--></g></svg>