<svg xmlns="http://www.w3.org/2000/svg" xmlns:xlink="http://www.w3.org/1999/xlink" contentStyleType="text/css" height="834.4px" preserveAspectRatio="none" style="width:967px;height:834px;background:#FFFFFF;" version="1.1" viewBox="0 0 967 834" width="967.4px" zoomAndPan="magnify"><title>US318: Configure Proposal Templates - Class Diagram</title><defs/><g><text fill="#000000" font-family="sans-serif" font-size="9.8" font-weight="bold" lengthAdjust="spacing" textLength="254.8718" x="351.6919" y="17.5752">US318: Configure Proposal Templates - Class Diagram</text><!--class ConfigureProposalTemplateUI--><g id="elem_ConfigureProposalTemplateUI"><rect codeLine="6" fill="#F1F1F1" height="124.8434" id="ConfigureProposalTemplateUI" rx="1.75" ry="1.75" style="stroke:#181818;stroke-width:0.3499999999999999;" width="221.9185" x="573.65" y="32.6348"/><ellipse cx="615.7235" cy="43.8348" fill="#ADD1B2" rx="7.7" ry="7.7" style="stroke:#181818;stroke-width:0.6999999999999998;"/><path d="M617.6594,40.9473 Q617.7688,40.7941 617.9,40.7176 Q618.0313,40.641 618.1844,40.641 Q618.4469,40.641 618.611,40.827 Q618.775,41.002 618.775,41.4285 L618.775,42.4457 Q618.775,42.8723 618.611,43.0582 Q618.4469,43.2441 618.1844,43.2441 Q617.9438,43.2441 617.8016,43.102 Q617.6594,42.9707 617.5829,42.6098 Q617.55,42.3582 617.4188,42.227 Q617.1891,41.9645 616.7625,41.8113 Q616.336,41.6582 615.8985,41.6582 Q615.3625,41.6582 614.9141,41.8879 Q614.4766,42.1176 614.1266,42.6426 Q613.7875,43.1676 613.7875,43.8895 L613.7875,44.6551 Q613.7875,45.5191 614.411,46.0988 Q615.0344,46.6676 616.15,46.6676 Q616.8063,46.6676 617.2657,46.4926 Q617.5391,46.3832 617.8344,46.077 Q618.0204,45.891 618.1188,45.8363 Q618.2282,45.7816 618.3704,45.7816 Q618.6,45.7816 618.775,45.9676 Q618.961,46.1426 618.961,46.3832 Q618.961,46.6238 618.7204,46.9082 Q618.3704,47.3129 617.8125,47.5426 Q617.0579,47.8598 616.15,47.8598 Q615.0891,47.8598 614.2469,47.4223 Q613.5579,47.0723 613.0766,46.3285 Q612.5954,45.5738 612.5954,44.677 L612.5954,43.8676 Q612.5954,42.9379 613.0219,42.1395 Q613.4594,41.3301 614.225,40.9035 Q614.9907,40.466 615.8547,40.466 Q616.3688,40.466 616.8172,40.5863 Q617.2766,40.6957 617.6594,40.9473 Z " fill="#000000"/><text fill="#000000" font-family="sans-serif" font-size="9.8" lengthAdjust="spacing" textLength="131.8215" x="630.0735" y="47.8926">ConfigureProposalTemplateUI</text><line style="stroke:#181818;stroke-width:0.3499999999999999;" x1="574.35" x2="794.8685" y1="55.0348" y2="55.0348"/><text fill="#000000" font-family="sans-serif" font-size="9.8" lengthAdjust="spacing" textLength="213.5185" x="577.85" y="68.41">-controller: ConfigureProposalTemplateController</text><text fill="#000000" font-family="sans-serif" font-size="9.8" lengthAdjust="spacing" textLength="184.664" x="577.85" y="81.4447">-validator: ShowProposalValidationService</text><line style="stroke:#181818;stroke-width:0.3499999999999999;" x1="574.35" x2="794.8685" y1="86.7043" y2="86.7043"/><text fill="#000000" font-family="sans-serif" font-size="9.8" lengthAdjust="spacing" textLength="119.5571" x="577.85" y="100.0795">+showProposalTemplates()</text><text fill="#000000" font-family="sans-serif" font-size="9.8" lengthAdjust="spacing" textLength="78.7015" x="577.85" y="113.1143">+selectTemplate()</text><text fill="#000000" font-family="sans-serif" font-size="9.8" lengthAdjust="spacing" textLength="100.4931" x="577.85" y="126.149">+requestNewFilePath()</text><text fill="#000000" font-family="sans-serif" font-size="9.8" lengthAdjust="spacing" textLength="111.9296" x="577.85" y="139.1838">+showSuccessMessage()</text><text fill="#000000" font-family="sans-serif" font-size="9.8" lengthAdjust="spacing" textLength="96.6697" x="577.85" y="152.2186">+showErrorMessage()</text></g><!--class ConfigureProposalTemplateController--><g id="elem_ConfigureProposalTemplateController"><rect codeLine="17" fill="#F1F1F1" height="98.7738" id="ConfigureProposalTemplateController" rx="1.75" ry="1.75" style="stroke:#181818;stroke-width:0.3499999999999999;" width="427.0007" x="298.9" y="212.5348"/><ellipse cx="427.1733" cy="223.7348" fill="#ADD1B2" rx="7.7" ry="7.7" style="stroke:#181818;stroke-width:0.6999999999999998;"/><path d="M429.1092,220.8473 Q429.2186,220.6941 429.3499,220.6176 Q429.4811,220.541 429.6342,220.541 Q429.8967,220.541 430.0608,220.727 Q430.2249,220.902 430.2249,221.3285 L430.2249,222.3457 Q430.2249,222.7723 430.0608,222.9582 Q429.8967,223.1441 429.6342,223.1441 Q429.3936,223.1441 429.2514,223.002 Q429.1092,222.8707 429.0327,222.5098 Q428.9999,222.2582 428.8686,222.127 Q428.6389,221.8645 428.2124,221.7113 Q427.7858,221.5582 427.3483,221.5582 Q426.8124,221.5582 426.3639,221.7879 Q425.9264,222.0176 425.5764,222.5426 Q425.2374,223.0676 425.2374,223.7895 L425.2374,224.5551 Q425.2374,225.4191 425.8608,225.9988 Q426.4842,226.5676 427.5999,226.5676 Q428.2561,226.5676 428.7155,226.3926 Q428.9889,226.2832 429.2842,225.977 Q429.4702,225.791 429.5686,225.7363 Q429.678,225.6816 429.8202,225.6816 Q430.0499,225.6816 430.2249,225.8676 Q430.4108,226.0426 430.4108,226.2832 Q430.4108,226.5238 430.1702,226.8082 Q429.8202,227.2129 429.2624,227.4426 Q428.5077,227.7598 427.5999,227.7598 Q426.5389,227.7598 425.6967,227.3223 Q425.0077,226.9723 424.5264,226.2285 Q424.0452,225.4738 424.0452,224.577 L424.0452,223.7676 Q424.0452,222.8379 424.4717,222.0395 Q424.9092,221.2301 425.6749,220.8035 Q426.4405,220.366 427.3045,220.366 Q427.8186,220.366 428.267,220.4863 Q428.7264,220.5957 429.1092,220.8473 Z " fill="#000000"/><text fill="#000000" font-family="sans-serif" font-size="9.8" lengthAdjust="spacing" textLength="164.5041" x="441.5233" y="227.7926">ConfigureProposalTemplateController</text><line style="stroke:#181818;stroke-width:0.3499999999999999;" x1="299.6" x2="725.2007" y1="234.9348" y2="234.9348"/><text fill="#000000" font-family="sans-serif" font-size="9.8" lengthAdjust="spacing" textLength="122.5622" x="303.1" y="248.31">-authz: AuthorizationService</text><text fill="#000000" font-family="sans-serif" font-size="9.8" lengthAdjust="spacing" textLength="178.1083" x="303.1" y="261.3447">-repository: ProposalTemplateRepository</text><line style="stroke:#181818;stroke-width:0.3499999999999999;" x1="299.6" x2="725.2007" y1="266.6043" y2="266.6043"/><text fill="#000000" font-family="sans-serif" font-size="9.8" lengthAdjust="spacing" textLength="241.014" x="303.1" y="279.9795">+listProposalTemplates(): List&lt;ProposalTemplateDTO&gt;</text><text fill="#000000" font-family="sans-serif" font-size="9.8" lengthAdjust="spacing" textLength="418.6007" x="303.1" y="293.0143">+updateTemplateFilePath(dto: ProposalTemplateDTO, newPath: String): ProposalTemplateDTO</text><text fill="#000000" font-family="sans-serif" font-size="9.8" lengthAdjust="spacing" textLength="113.8149" x="303.1" y="306.049">-ensureUserPermissions()</text></g><!--class ShowProposalValidationService--><g id="elem_ShowProposalValidationService"><rect codeLine="26" fill="#F1F1F1" height="72.7043" id="ShowProposalValidationService" rx="1.75" ry="1.75" style="stroke:#181818;stroke-width:0.3499999999999999;" width="212.4056" x="750.75" y="225.4848"/><ellipse cx="784.5212" cy="236.6848" fill="#ADD1B2" rx="7.7" ry="7.7" style="stroke:#181818;stroke-width:0.6999999999999998;"/><path d="M786.4572,233.7973 Q786.5666,233.6441 786.6978,233.5676 Q786.8291,233.491 786.9822,233.491 Q787.2447,233.491 787.4087,233.677 Q787.5728,233.852 787.5728,234.2785 L787.5728,235.2957 Q787.5728,235.7223 787.4087,235.9082 Q787.2447,236.0941 786.9822,236.0941 Q786.7416,236.0941 786.5994,235.952 Q786.4572,235.8207 786.3806,235.4598 Q786.3478,235.2082 786.2166,235.077 Q785.9869,234.8145 785.5603,234.6613 Q785.1337,234.5082 784.6962,234.5082 Q784.1603,234.5082 783.7119,234.7379 Q783.2744,234.9676 782.9244,235.4926 Q782.5853,236.0176 782.5853,236.7395 L782.5853,237.5051 Q782.5853,238.3691 783.2087,238.9488 Q783.8322,239.5176 784.9478,239.5176 Q785.6041,239.5176 786.0634,239.3426 Q786.3369,239.2332 786.6322,238.927 Q786.8181,238.741 786.9166,238.6863 Q787.0259,238.6316 787.1681,238.6316 Q787.3978,238.6316 787.5728,238.8176 Q787.7587,238.9926 787.7587,239.2332 Q787.7587,239.4738 787.5181,239.7582 Q787.1681,240.1629 786.6103,240.3926 Q785.8556,240.7098 784.9478,240.7098 Q783.8869,240.7098 783.0447,240.2723 Q782.3556,239.9223 781.8744,239.1785 Q781.3931,238.4238 781.3931,237.527 L781.3931,236.7176 Q781.3931,235.7879 781.8197,234.9895 Q782.2572,234.1801 783.0228,233.7535 Q783.7884,233.316 784.6525,233.316 Q785.1666,233.316 785.615,233.4363 Q786.0744,233.5457 786.4572,233.7973 Z " fill="#000000"/><text fill="#000000" font-family="sans-serif" font-size="9.8" lengthAdjust="spacing" textLength="138.9131" x="798.8712" y="240.7426">ShowProposalValidationService</text><line style="stroke:#181818;stroke-width:0.3499999999999999;" x1="751.45" x2="962.4556" y1="247.8848" y2="247.8848"/><line style="stroke:#181818;stroke-width:0.3499999999999999;" x1="751.45" x2="962.4556" y1="253.4848" y2="253.4848"/><text fill="#000000" font-family="sans-serif" font-size="9.8" lengthAdjust="spacing" textLength="186.0373" x="754.95" y="266.86">+validateFilePath(filePath: String): boolean</text><text fill="#000000" font-family="sans-serif" font-size="9.8" lengthAdjust="spacing" textLength="204.0056" x="754.95" y="279.8947">+isValidFileExtension(filePath: String): boolean</text><text fill="#000000" font-family="sans-serif" font-size="9.8" lengthAdjust="spacing" textLength="154.9721" x="754.95" y="292.9295">+fileExists(filePath: String): boolean</text></g><!--class AuthorizationService--><g id="elem_AuthorizationService"><rect codeLine="32" fill="#F1F1F1" height="59.6695" id="AuthorizationService" rx="1.75" ry="1.75" style="stroke:#181818;stroke-width:0.3499999999999999;" width="284.2834" x="88.2" y="379.4848"/><ellipse cx="182.4269" cy="390.6848" fill="#ADD1B2" rx="7.7" ry="7.7" style="stroke:#181818;stroke-width:0.6999999999999998;"/><path d="M184.3628,387.7973 Q184.4722,387.6441 184.6035,387.5676 Q184.7347,387.491 184.8878,387.491 Q185.1503,387.491 185.3144,387.677 Q185.4785,387.852 185.4785,388.2785 L185.4785,389.2957 Q185.4785,389.7223 185.3144,389.9082 Q185.1503,390.0941 184.8878,390.0941 Q184.6472,390.0941 184.505,389.952 Q184.3628,389.8207 184.2863,389.4598 Q184.2535,389.2082 184.1222,389.077 Q183.8925,388.8145 183.466,388.6613 Q183.0394,388.5082 182.6019,388.5082 Q182.066,388.5082 181.6175,388.7379 Q181.18,388.9676 180.83,389.4926 Q180.491,390.0176 180.491,390.7395 L180.491,391.5051 Q180.491,392.3691 181.1144,392.9488 Q181.7378,393.5176 182.8535,393.5176 Q183.5097,393.5176 183.9691,393.3426 Q184.2425,393.2332 184.5378,392.927 Q184.7238,392.741 184.8222,392.6863 Q184.9316,392.6316 185.0738,392.6316 Q185.3035,392.6316 185.4785,392.8176 Q185.6644,392.9926 185.6644,393.2332 Q185.6644,393.4738 185.4238,393.7582 Q185.0738,394.1629 184.516,394.3926 Q183.7613,394.7098 182.8535,394.7098 Q181.7925,394.7098 180.9503,394.2723 Q180.2613,393.9223 179.78,393.1785 Q179.2988,392.4238 179.2988,391.527 L179.2988,390.7176 Q179.2988,389.7879 179.7253,388.9895 Q180.1628,388.1801 180.9285,387.7535 Q181.6941,387.316 182.5582,387.316 Q183.0722,387.316 183.5207,387.4363 Q183.98,387.5457 184.3628,387.7973 Z " fill="#000000"/><text fill="#000000" font-family="sans-serif" font-size="9.8" lengthAdjust="spacing" textLength="89.8796" x="196.7769" y="394.7426">AuthorizationService</text><line style="stroke:#181818;stroke-width:0.3499999999999999;" x1="88.9" x2="371.7834" y1="401.8848" y2="401.8848"/><line style="stroke:#181818;stroke-width:0.3499999999999999;" x1="88.9" x2="371.7834" y1="407.4848" y2="407.4848"/><text fill="#000000" font-family="sans-serif" font-size="9.8" lengthAdjust="spacing" textLength="275.8834" x="92.4" y="420.86">+ensureAuthenticatedUserHasAnyOf(roles: SystemRole[]): void</text><text fill="#000000" font-family="sans-serif" font-size="9.8" lengthAdjust="spacing" textLength="138.0518" x="92.4" y="433.8947">+getCurrentUser(): SystemUser</text></g><!--class ProposalTemplateRepository--><g id="elem_ProposalTemplateRepository"><rect codeLine="38" fill="#F1F1F1" height="85.7391" id="ProposalTemplateRepository" rx="1.75" ry="1.75" style="stroke:#181818;stroke-width:0.3499999999999999;" width="248.902" x="479.5" y="366.5348"/><ellipse cx="537.7904" cy="377.7348" fill="#B4A7E5" rx="7.7" ry="7.7" style="stroke:#181818;stroke-width:0.6999999999999998;"/><path d="M538.4576,375.3832 L538.4576,380.0426 L539.6607,380.0426 Q540.0873,380.0426 540.2732,380.2066 Q540.4591,380.3707 540.4591,380.6441 Q540.4591,380.9066 540.2732,381.0707 Q540.0873,381.2348 539.6607,381.2348 L536.0623,381.2348 Q535.6357,381.2348 535.4498,381.0707 Q535.2638,380.9066 535.2638,380.6332 Q535.2638,380.3707 535.4498,380.2066 Q535.6357,380.0426 536.0623,380.0426 L537.2654,380.0426 L537.2654,375.3832 L536.0623,375.3832 Q535.6357,375.3832 535.4498,375.2191 Q535.2638,375.0551 535.2638,374.7816 Q535.2638,374.5191 535.4498,374.3551 Q535.6357,374.191 536.0623,374.191 L539.6607,374.191 Q540.0873,374.191 540.2732,374.3551 Q540.4591,374.5191 540.4591,374.7816 Q540.4591,375.0551 540.2732,375.2191 Q540.0873,375.3832 539.6607,375.3832 L538.4576,375.3832 Z " fill="#000000"/><text fill="#000000" font-family="sans-serif" font-size="9.8" font-style="italic" lengthAdjust="spacing" textLength="126.3712" x="552.1404" y="381.7926">ProposalTemplateRepository</text><line style="stroke:#181818;stroke-width:0.3499999999999999;" x1="480.2" x2="727.702" y1="388.9348" y2="388.9348"/><line style="stroke:#181818;stroke-width:0.3499999999999999;" x1="480.2" x2="727.702" y1="394.5348" y2="394.5348"/><text fill="#000000" font-family="sans-serif" font-size="9.8" lengthAdjust="spacing" textLength="168.0499" x="483.7" y="407.91">+findAll(): Iterable&lt;ProposalTemplate&gt;</text><text fill="#000000" font-family="sans-serif" font-size="9.8" lengthAdjust="spacing" textLength="240.502" x="483.7" y="420.9447">+ofIdentity(name: String): Optional&lt;ProposalTemplate&gt;</text><text fill="#000000" font-family="sans-serif" font-size="9.8" lengthAdjust="spacing" textLength="240.4876" x="483.7" y="433.9795">+save(template: ProposalTemplate): ProposalTemplate</text><text fill="#000000" font-family="sans-serif" font-size="9.8" lengthAdjust="spacing" textLength="184.9367" x="483.7" y="447.0143">+delete(template: ProposalTemplate): void</text></g><!--class ProposalTemplateDTO--><g id="elem_ProposalTemplateDTO"><rect codeLine="46" fill="#F1F1F1" height="98.7738" id="ProposalTemplateDTO" rx="1.75" ry="1.75" style="stroke:#181818;stroke-width:0.3499999999999999;" width="245.605" x="591.15" y="726.6848"/><ellipse cx="660.8697" cy="737.8848" fill="#ADD1B2" rx="7.7" ry="7.7" style="stroke:#181818;stroke-width:0.6999999999999998;"/><path d="M662.8057,734.9973 Q662.915,734.8441 663.0463,734.7676 Q663.1775,734.691 663.3307,734.691 Q663.5932,734.691 663.7572,734.877 Q663.9213,735.052 663.9213,735.4785 L663.9213,736.4957 Q663.9213,736.9223 663.7572,737.1082 Q663.5932,737.2941 663.3307,737.2941 Q663.09,737.2941 662.9479,737.152 Q662.8057,737.0207 662.7291,736.6598 Q662.6963,736.4082 662.565,736.277 Q662.3354,736.0145 661.9088,735.8613 Q661.4822,735.7082 661.0447,735.7082 Q660.5088,735.7082 660.0604,735.9379 Q659.6229,736.1676 659.2729,736.6926 Q658.9338,737.2176 658.9338,737.9395 L658.9338,738.7051 Q658.9338,739.5691 659.5572,740.1488 Q660.1807,740.7176 661.2963,740.7176 Q661.9525,740.7176 662.4119,740.5426 Q662.6854,740.4332 662.9807,740.127 Q663.1666,739.941 663.265,739.8863 Q663.3744,739.8316 663.5166,739.8316 Q663.7463,739.8316 663.9213,740.0176 Q664.1072,740.1926 664.1072,740.4332 Q664.1072,740.6738 663.8666,740.9582 Q663.5166,741.3629 662.9588,741.5926 Q662.2041,741.9098 661.2963,741.9098 Q660.2354,741.9098 659.3932,741.4723 Q658.7041,741.1223 658.2229,740.3785 Q657.7416,739.6238 657.7416,738.727 L657.7416,737.9176 Q657.7416,736.9879 658.1682,736.1895 Q658.6057,735.3801 659.3713,734.9535 Q660.1369,734.516 661.001,734.516 Q661.515,734.516 661.9635,734.6363 Q662.4229,734.7457 662.8057,734.9973 Z " fill="#000000"/><text fill="#000000" font-family="sans-serif" font-size="9.8" lengthAdjust="spacing" textLength="100.2155" x="675.2197" y="741.9426">ProposalTemplateDTO</text><line style="stroke:#181818;stroke-width:0.3499999999999999;" x1="591.85" x2="836.055" y1="749.0848" y2="749.0848"/><text fill="#000000" font-family="sans-serif" font-size="9.8" lengthAdjust="spacing" textLength="61.2835" x="595.35" y="762.46">+name: String</text><text fill="#000000" font-family="sans-serif" font-size="9.8" lengthAdjust="spacing" textLength="69.4565" x="595.35" y="775.4947">+filePath: String</text><line style="stroke:#181818;stroke-width:0.3499999999999999;" x1="591.85" x2="836.055" y1="780.7543" y2="780.7543"/><text fill="#000000" font-family="sans-serif" font-size="9.8" lengthAdjust="spacing" textLength="237.205" x="595.35" y="794.1295">+ProposalTemplateDTO(name: String, filePath: String)</text><text fill="#000000" font-family="sans-serif" font-size="9.8" lengthAdjust="spacing" textLength="67.8104" x="595.35" y="807.1643">+name(): String</text><text fill="#000000" font-family="sans-serif" font-size="9.8" lengthAdjust="spacing" textLength="75.9835" x="595.35" y="820.199">+filePath(): String</text></g><!--class ProposalTemplate--><g id="elem_ProposalTemplate"><rect codeLine="55" fill="#F1F1F1" height="159.7203" id="ProposalTemplate" rx="1.75" ry="1.75" style="stroke:#181818;stroke-width:0.3499999999999999;" width="197.1505" x="505.4" y="507.2348"/><ellipse cx="561.2356" cy="522.8385" fill="#ADD1B2" rx="7.7" ry="7.7" style="stroke:#181818;stroke-width:0.6999999999999998;"/><path d="M563.1715,519.951 Q563.2809,519.7979 563.4122,519.7213 Q563.5434,519.6447 563.6965,519.6447 Q563.959,519.6447 564.1231,519.8307 Q564.2872,520.0057 564.2872,520.4322 L564.2872,521.4494 Q564.2872,521.876 564.1231,522.0619 Q563.959,522.2479 563.6965,522.2479 Q563.4559,522.2479 563.3137,522.1057 Q563.1715,521.9744 563.095,521.6135 Q563.0622,521.3619 562.9309,521.2307 Q562.7012,520.9682 562.2747,520.815 Q561.8481,520.6619 561.4106,520.6619 Q560.8747,520.6619 560.4262,520.8916 Q559.9887,521.1213 559.6387,521.6463 Q559.2997,522.1713 559.2997,522.8932 L559.2997,523.6588 Q559.2997,524.5229 559.9231,525.1025 Q560.5465,525.6713 561.6622,525.6713 Q562.3184,525.6713 562.7778,525.4963 Q563.0512,525.3869 563.3465,525.0807 Q563.5325,524.8947 563.6309,524.84 Q563.7403,524.7854 563.8825,524.7854 Q564.1122,524.7854 564.2872,524.9713 Q564.4731,525.1463 564.4731,525.3869 Q564.4731,525.6275 564.2325,525.9119 Q563.8825,526.3166 563.3247,526.5463 Q562.57,526.8635 561.6622,526.8635 Q560.6012,526.8635 559.759,526.426 Q559.07,526.076 558.5887,525.3322 Q558.1075,524.5775 558.1075,523.6807 L558.1075,522.8713 Q558.1075,521.9416 558.534,521.1432 Q558.9715,520.3338 559.7372,519.9072 Q560.5028,519.4697 561.3668,519.4697 Q561.8809,519.4697 562.3293,519.59 Q562.7887,519.6994 563.1715,519.951 Z " fill="#000000"/><text fill="#000000" font-family="sans-serif" font-size="8.4" font-style="italic" lengthAdjust="spacing" textLength="65.8506" x="582.425" y="519.7992">&#171;AggregateRoot&#187;</text><text fill="#000000" font-family="sans-serif" font-size="9.8" lengthAdjust="spacing" textLength="79.5293" x="575.5856" y="532.4826">ProposalTemplate</text><line style="stroke:#181818;stroke-width:0.3499999999999999;" x1="506.1" x2="701.8505" y1="538.4422" y2="538.4422"/><text fill="#000000" font-family="sans-serif" font-size="9.8" lengthAdjust="spacing" textLength="58.5607" x="509.6" y="551.8174">+String name</text><text fill="#000000" font-family="sans-serif" font-size="9.8" lengthAdjust="spacing" textLength="66.7338" x="509.6" y="564.8521">+String filePath</text><line style="stroke:#181818;stroke-width:0.3499999999999999;" x1="506.1" x2="701.8505" y1="570.1117" y2="570.1117"/><text fill="#000000" font-family="sans-serif" font-size="9.8" lengthAdjust="spacing" textLength="147.3397" x="509.6" y="583.4869">+ProposalTemplate(name: String)</text><text fill="#000000" font-family="sans-serif" font-size="9.8" lengthAdjust="spacing" textLength="188.7505" x="509.6" y="596.5217">+changeFilePath(newFilePath: String): void</text><text fill="#000000" font-family="sans-serif" font-size="9.8" lengthAdjust="spacing" textLength="146.7703" x="509.6" y="609.5564">+toDTO(): ProposalTemplateDTO</text><text fill="#000000" font-family="sans-serif" font-size="9.8" lengthAdjust="spacing" textLength="74.347" x="509.6" y="622.5912">+identity(): String</text><text fill="#000000" font-family="sans-serif" font-size="9.8" lengthAdjust="spacing" textLength="137.5589" x="509.6" y="635.626">+equals(other: Object): boolean</text><text fill="#000000" font-family="sans-serif" font-size="9.8" lengthAdjust="spacing" textLength="72.7248" x="509.6" y="648.6607">+hashCode(): int</text><text fill="#000000" font-family="sans-serif" font-size="9.8" lengthAdjust="spacing" textLength="144.0811" x="509.6" y="661.6955">+sameAs(other: Object): boolean</text></g><!--class SystemUser--><g id="elem_SystemUser"><rect codeLine="68" fill="#F1F1F1" height="68.477" id="SystemUser" rx="1.75" ry="1.75" style="stroke:#181818;stroke-width:0.3499999999999999;" width="171.5451" x="144.55" y="552.7348"/><ellipse cx="195.8223" cy="568.3385" fill="#ADD1B2" rx="7.7" ry="7.7" style="stroke:#181818;stroke-width:0.6999999999999998;"/><path d="M197.7582,565.451 Q197.8676,565.2979 197.9988,565.2213 Q198.1301,565.1447 198.2832,565.1447 Q198.5457,565.1447 198.7098,565.3307 Q198.8738,565.5057 198.8738,565.9322 L198.8738,566.9494 Q198.8738,567.376 198.7098,567.5619 Q198.5457,567.7479 198.2832,567.7479 Q198.0426,567.7479 197.9004,567.6057 Q197.7582,567.4744 197.6816,567.1135 Q197.6488,566.8619 197.5176,566.7307 Q197.2879,566.4682 196.8613,566.315 Q196.4348,566.1619 195.9973,566.1619 Q195.4613,566.1619 195.0129,566.3916 Q194.5754,566.6213 194.2254,567.1463 Q193.8863,567.6713 193.8863,568.3932 L193.8863,569.1588 Q193.8863,570.0229 194.5098,570.6025 Q195.1332,571.1713 196.2488,571.1713 Q196.9051,571.1713 197.3645,570.9963 Q197.6379,570.8869 197.9332,570.5807 Q198.1191,570.3947 198.2176,570.34 Q198.327,570.2854 198.4691,570.2854 Q198.6988,570.2854 198.8738,570.4713 Q199.0598,570.6463 199.0598,570.8869 Q199.0598,571.1275 198.8191,571.4119 Q198.4691,571.8166 197.9113,572.0463 Q197.1566,572.3635 196.2488,572.3635 Q195.1879,572.3635 194.3457,571.926 Q193.6566,571.576 193.1754,570.8322 Q192.6941,570.0775 192.6941,569.1807 L192.6941,568.3713 Q192.6941,567.4416 193.1207,566.6432 Q193.5582,565.8338 194.3238,565.4072 Q195.0895,564.9697 195.9535,564.9697 Q196.4676,564.9697 196.916,565.09 Q197.3754,565.1994 197.7582,565.451 Z " fill="#000000"/><text fill="#000000" font-family="sans-serif" font-size="8.4" font-style="italic" lengthAdjust="spacing" textLength="65.8506" x="208.7723" y="565.2992">&#171;AggregateRoot&#187;</text><text fill="#000000" font-family="sans-serif" font-size="9.8" lengthAdjust="spacing" textLength="53.3641" x="215.0155" y="577.9826">SystemUser</text><line style="stroke:#181818;stroke-width:0.3499999999999999;" x1="145.25" x2="315.3951" y1="583.9422" y2="583.9422"/><text fill="#000000" font-family="sans-serif" font-size="9.8" lengthAdjust="spacing" textLength="58.5607" x="148.75" y="597.3174">+String name</text><line style="stroke:#181818;stroke-width:0.3499999999999999;" x1="145.25" x2="315.3951" y1="602.577" y2="602.577"/><text fill="#000000" font-family="sans-serif" font-size="9.8" lengthAdjust="spacing" textLength="163.1451" x="148.75" y="615.9521">+hasRole(role: SystemRole): boolean</text></g><!--class Username--><g id="elem_Username"><rect codeLine="73" fill="#F1F1F1" height="55.4422" id="Username" rx="1.75" ry="1.75" style="stroke:#181818;stroke-width:0.3499999999999999;" width="73.3018" x="193.55" y="748.3848"/><ellipse cx="204.05" cy="763.9885" fill="#ADD8E6" rx="7.7" ry="7.7" style="stroke:#181818;stroke-width:0.6999999999999998;"/><path d="M204.4656,766.2744 L206.1937,762.1619 L205.9203,762.1619 Q205.4937,762.1619 205.3078,761.9979 Q205.1219,761.8338 205.1219,761.5604 Q205.1219,761.2979 205.3078,761.1338 Q205.4937,760.9697 205.9203,760.9697 L207.5172,760.9697 Q207.9437,760.9697 208.1297,761.1338 Q208.3156,761.2979 208.3156,761.5604 Q208.3156,761.8885 208.0312,762.0744 Q207.9,762.1619 207.4844,762.1619 L205.0453,768.0135 L203.8969,768.0135 L201.4578,762.1619 Q201.0422,762.1619 200.9109,762.0744 Q200.6266,761.8885 200.6266,761.5604 Q200.6266,761.2979 200.8125,761.1338 Q200.9984,760.9697 201.425,760.9697 L203.0328,760.9697 Q203.4594,760.9697 203.6344,761.1338 Q203.8203,761.2979 203.8203,761.5604 Q203.8203,761.8338 203.6344,761.9979 Q203.4594,762.1619 203.0328,762.1619 L202.7484,762.1619 L204.4656,766.2744 Z " fill="#000000"/><text fill="#000000" font-family="sans-serif" font-size="8.4" font-style="italic" lengthAdjust="spacing" textLength="53.7018" x="212.45" y="760.9492">&#171;valueObject&#187;</text><text fill="#000000" font-family="sans-serif" font-size="9.8" lengthAdjust="spacing" textLength="45.2054" x="216.6982" y="773.6326">Username</text><line style="stroke:#181818;stroke-width:0.3499999999999999;" x1="194.25" x2="266.1518" y1="779.5922" y2="779.5922"/><text fill="#000000" font-family="sans-serif" font-size="9.8" lengthAdjust="spacing" textLength="57.4745" x="197.75" y="792.9674">+String value</text><line style="stroke:#181818;stroke-width:0.3499999999999999;" x1="194.25" x2="266.1518" y1="798.227" y2="798.227"/></g><!--class Password--><g id="elem_Password"><rect codeLine="77" fill="#F1F1F1" height="55.4422" id="Password" rx="1.75" ry="1.75" style="stroke:#181818;stroke-width:0.3499999999999999;" width="73.3018" x="291.55" y="748.3848"/><ellipse cx="302.05" cy="763.9885" fill="#ADD8E6" rx="7.7" ry="7.7" style="stroke:#181818;stroke-width:0.6999999999999998;"/><path d="M302.4656,766.2744 L304.1937,762.1619 L303.9203,762.1619 Q303.4937,762.1619 303.3078,761.9979 Q303.1219,761.8338 303.1219,761.5604 Q303.1219,761.2979 303.3078,761.1338 Q303.4937,760.9697 303.9203,760.9697 L305.5172,760.9697 Q305.9437,760.9697 306.1297,761.1338 Q306.3156,761.2979 306.3156,761.5604 Q306.3156,761.8885 306.0312,762.0744 Q305.9,762.1619 305.4844,762.1619 L303.0453,768.0135 L301.8969,768.0135 L299.4578,762.1619 Q299.0422,762.1619 298.9109,762.0744 Q298.6266,761.8885 298.6266,761.5604 Q298.6266,761.2979 298.8125,761.1338 Q298.9984,760.9697 299.425,760.9697 L301.0328,760.9697 Q301.4594,760.9697 301.6344,761.1338 Q301.8203,761.2979 301.8203,761.5604 Q301.8203,761.8338 301.6344,761.9979 Q301.4594,762.1619 301.0328,762.1619 L300.7484,762.1619 L302.4656,766.2744 Z " fill="#000000"/><text fill="#000000" font-family="sans-serif" font-size="8.4" font-style="italic" lengthAdjust="spacing" textLength="53.7018" x="310.45" y="760.9492">&#171;valueObject&#187;</text><text fill="#000000" font-family="sans-serif" font-size="9.8" lengthAdjust="spacing" textLength="43.0281" x="315.7868" y="773.6326">Password</text><line style="stroke:#181818;stroke-width:0.3499999999999999;" x1="292.25" x2="364.1518" y1="779.5922" y2="779.5922"/><text fill="#000000" font-family="sans-serif" font-size="9.8" lengthAdjust="spacing" textLength="57.4745" x="295.75" y="792.9674">+String value</text><line style="stroke:#181818;stroke-width:0.3499999999999999;" x1="292.25" x2="364.1518" y1="798.227" y2="798.227"/></g><!--class SystemRole--><g id="elem_SystemRole"><rect codeLine="81" fill="#F1F1F1" height="107.5812" id="SystemRole" rx="1.75" ry="1.75" style="stroke:#181818;stroke-width:0.3499999999999999;" width="163.8697" x="4.9" y="722.1348"/><ellipse cx="57.4458" cy="737.7385" fill="#EB937F" rx="7.7" ry="7.7" style="stroke:#181818;stroke-width:0.6999999999999998;"/><path d="M56.6474,738.2963 L56.6474,740.0463 L59.6771,740.0463 L59.6771,739.401 Q59.6771,738.9744 59.8411,738.7885 Q60.0161,738.6025 60.2786,738.6025 Q60.5411,738.6025 60.7052,738.7885 Q60.8692,738.9744 60.8692,739.401 L60.8692,741.2385 L55.2692,741.2385 Q54.8317,741.2385 54.6458,741.0744 Q54.4708,740.9104 54.4708,740.6369 Q54.4708,740.3744 54.6567,740.2104 Q54.8427,740.0463 55.2692,740.0463 L55.4552,740.0463 L55.4552,735.3869 L55.2692,735.3869 Q54.8317,735.3869 54.6458,735.2229 Q54.4708,735.0588 54.4708,734.7854 Q54.4708,734.5229 54.6458,734.3588 Q54.8317,734.1947 55.2692,734.1947 L60.6067,734.1947 L60.6067,736.0104 Q60.6067,736.4369 60.4427,736.6229 Q60.2896,736.7979 60.0161,736.7979 Q59.7536,736.7979 59.5896,736.6229 Q59.4255,736.4369 59.4255,736.0104 L59.4255,735.3869 L56.6474,735.3869 L56.6474,737.1041 L57.6864,737.1041 Q57.6864,736.6447 57.7739,736.5135 Q57.9599,736.2291 58.288,736.2291 Q58.5505,736.2291 58.7146,736.415 Q58.8786,736.59 58.8786,737.0166 L58.8786,738.3947 Q58.8786,738.7775 58.7911,738.9088 Q58.6052,739.1822 58.288,739.1822 Q57.9599,739.1822 57.7739,738.8979 Q57.6864,738.7666 57.6864,738.2963 L56.6474,738.2963 Z " fill="#000000"/><text fill="#000000" font-family="sans-serif" font-size="8.4" font-style="italic" lengthAdjust="spacing" textLength="31.2867" x="82.5665" y="734.6992">&#171;Enum&#187;</text><text fill="#000000" font-family="sans-serif" font-size="9.8" lengthAdjust="spacing" textLength="52.8281" x="71.7958" y="747.3826">SystemRole</text><line style="stroke:#181818;stroke-width:0.3499999999999999;" x1="5.6" x2="168.0697" y1="753.3422" y2="753.3422"/><text fill="#000000" font-family="sans-serif" font-size="9.8" lengthAdjust="spacing" textLength="37.3003" x="9.1" y="766.7174">+ADMIN</text><text fill="#000000" font-family="sans-serif" font-size="9.8" lengthAdjust="spacing" textLength="83.0416" x="9.1" y="779.7521">+CRM_MANAGER</text><text fill="#000000" font-family="sans-serif" font-size="9.8" lengthAdjust="spacing" textLength="114.0877" x="9.1" y="792.7869">+CRM_COLLABORATOR</text><text fill="#000000" font-family="sans-serif" font-size="9.8" lengthAdjust="spacing" textLength="92.8464" x="9.1" y="805.8217">+SHOW_DESIGNER</text><text fill="#000000" font-family="sans-serif" font-size="9.8" lengthAdjust="spacing" textLength="155.4697" x="9.1" y="818.8564">+CUSTOMER_REPRESENTATIVE</text><line style="stroke:#181818;stroke-width:0.3499999999999999;" x1="5.6" x2="168.0697" y1="824.116" y2="824.116"/></g><!--link ConfigureProposalTemplateUI to ConfigureProposalTemplateController--><g id="link_ConfigureProposalTemplateUI_ConfigureProposalTemplateController"><path codeLine="90" d="M620.48,157.2768 C601.545,175.4838 584.1187,192.2359 566.1567,209.5049 " fill="none" id="ConfigureProposalTemplateUI-to-ConfigureProposalTemplateController" style="stroke:#181818;stroke-width:0.6999999999999998;"/><polygon fill="#181818" points="563.129,212.4158,569.6111,210.0679,565.6521,209.99,565.7299,206.031,563.129,212.4158" style="stroke:#181818;stroke-width:0.6999999999999998;"/><text fill="#000000" font-family="sans-serif" font-size="9.1" lengthAdjust="spacing" textLength="19.222" x="599.2" y="188.7546">uses</text></g><!--link ConfigureProposalTemplateUI to ShowProposalValidationService--><g id="link_ConfigureProposalTemplateUI_ShowProposalValidationService"><path codeLine="91" d="M748.72,157.2768 C772.625,180.2648 795.9238,202.6664 816.6158,222.5534 " fill="none" id="ConfigureProposalTemplateUI-to-ShowProposalValidationService" style="stroke:#181818;stroke-width:0.6999999999999998;"/><polygon fill="#181818" points="819.644,225.4638,817.042,219.0794,817.1205,223.0385,813.1615,223.117,819.644,225.4638" style="stroke:#181818;stroke-width:0.6999999999999998;"/><text fill="#000000" font-family="sans-serif" font-size="9.1" lengthAdjust="spacing" textLength="19.222" x="781.9" y="188.7546">uses</text></g><!--link ConfigureProposalTemplateController to AuthorizationService--><g id="link_ConfigureProposalTemplateController_AuthorizationService"><path codeLine="93" d="M418.271,311.2838 C374.605,333.8728 327.9073,358.0387 290.2823,377.5057 " fill="none" id="ConfigureProposalTemplateController-to-AuthorizationService" style="stroke:#181818;stroke-width:0.6999999999999998;"/><polygon fill="#181818" points="286.552,379.4358,293.4341,379.0276,289.6606,377.8274,290.8607,374.0539,286.552,379.4358" style="stroke:#181818;stroke-width:0.6999999999999998;"/><text fill="#000000" font-family="sans-serif" font-size="9.1" lengthAdjust="spacing" textLength="19.222" x="372.4" y="342.7546">uses</text></g><!--link ConfigureProposalTemplateController to ProposalTemplateRepository--><g id="link_ConfigureProposalTemplateController_ProposalTemplateRepository"><path codeLine="94" d="M543.06,311.3888 C554.253,329.2038 564.576,345.6328 575.377,362.8178 " fill="none" id="ConfigureProposalTemplateController-to-ProposalTemplateRepository" style="stroke:#181818;stroke-width:0.6999999999999998;"/><polygon fill="#181818" points="577.612,366.3738,576.6302,359.5498,575.7495,363.4105,571.8889,362.5298,577.612,366.3738" style="stroke:#181818;stroke-width:0.6999999999999998;"/><text fill="#000000" font-family="sans-serif" font-size="9.1" lengthAdjust="spacing" textLength="19.222" x="564.9" y="342.7546">uses</text></g><!--link ConfigureProposalTemplateController to ProposalTemplateDTO--><g id="link_ConfigureProposalTemplateController_ProposalTemplateDTO"><path codeLine="95" d="M680.358,311.2488 C704.235,325.3188 725.704,343.3788 740.6,366.5348 C812.56,478.3878 766.6783,641.0293 735.9203,722.6983 " fill="none" id="ConfigureProposalTemplateController-to-ProposalTemplateDTO" style="stroke:#181818;stroke-width:0.6999999999999998;"/><polygon fill="#181818" points="734.44,726.6288,739.2808,721.7199,735.6736,723.3534,734.0401,719.7462,734.44,726.6288" style="stroke:#181818;stroke-width:0.6999999999999998;"/><text fill="#000000" font-family="sans-serif" font-size="9.1" lengthAdjust="spacing" textLength="29.8416" x="778.4" y="483.4546">creates</text></g><!--link ConfigureProposalTemplateController to ProposalTemplate--><g id="link_ConfigureProposalTemplateController_ProposalTemplate"><path codeLine="96" d="M465.024,311.3048 C452.186,327.5728 440.006,346.6548 433.3,366.5348 C421.169,402.5008 416.724,417.7888 433.3,451.9348 C449.001,484.2678 473.275,508.6518 501.828,529.6588 " fill="none" id="ConfigureProposalTemplateController-to-ProposalTemplate" style="stroke:#181818;stroke-width:0.6999999999999998;"/><polygon fill="#181818" points="505.211,532.1478,501.7957,526.1589,502.3918,530.0736,498.4771,530.6697,505.211,532.1478" style="stroke:#181818;stroke-width:0.6999999999999998;"/><text fill="#000000" font-family="sans-serif" font-size="9.1" lengthAdjust="spacing" textLength="32.3832" x="434" y="413.1046">updates</text></g><!--link AuthorizationService to SystemUser--><g id="link_AuthorizationService_SystemUser"><path codeLine="98" d="M230.3,439.0618 C230.3,470.2818 230.3,515.5648 230.3,548.4368 " fill="none" id="AuthorizationService-to-SystemUser" style="stroke:#181818;stroke-width:0.6999999999999998;"/><polygon fill="#181818" points="230.3,552.6368,233.1,546.3368,230.3,549.1368,227.5,546.3368,230.3,552.6368" style="stroke:#181818;stroke-width:0.6999999999999998;"/><text fill="#000000" font-family="sans-serif" font-size="9.1" lengthAdjust="spacing" textLength="54.1334" x="231" y="483.4546">authenticates</text></g><!--link ProposalTemplate to ProposalTemplateDTO--><g id="link_ProposalTemplate_ProposalTemplateDTO"><path codeLine="100" d="M650.545,667.0238 C662.382,687.2188 672.6352,704.7207 683.2752,722.8857 " fill="none" id="ProposalTemplate-to-ProposalTemplateDTO" style="stroke:#181818;stroke-width:0.6999999999999998;"/><polygon fill="#181818" points="685.398,726.5098,684.6299,719.6585,683.629,723.4897,679.7978,722.4888,685.398,726.5098" style="stroke:#181818;stroke-width:0.6999999999999998;"/><text fill="#000000" font-family="sans-serif" font-size="9.1" lengthAdjust="spacing" textLength="29.8416" x="669.9" y="698.3546">creates</text></g><!--link SystemUser to Username--><g id="link_SystemUser_Username"><path codeLine="102" d="M230.3,621.4888 C230.3,657.7768 230.3,710.5498 230.3,744.0378 " fill="none" id="SystemUser-to-Username" style="stroke:#181818;stroke-width:0.6999999999999998;"/><polygon fill="#181818" points="230.3,748.2378,233.1,741.9378,230.3,744.7378,227.5,741.9378,230.3,748.2378" style="stroke:#181818;stroke-width:0.6999999999999998;"/><text fill="#000000" font-family="sans-serif" font-size="9.1" lengthAdjust="spacing" textLength="41.9764" x="231" y="698.3546">Username</text><text fill="#000000" font-family="sans-serif" font-size="9.1" lengthAdjust="spacing" textLength="5.061" x="225.0935" y="636.5063">1</text><text fill="#000000" font-family="sans-serif" font-size="9.1" lengthAdjust="spacing" textLength="5.061" x="225.024" y="740.5733">1</text></g><!--link SystemUser to Password--><g id="link_SystemUser_Password"><path codeLine="103" d="M247.933,621.4888 C266.889,657.7768 294.7084,711.0271 312.2014,744.5151 " fill="none" id="SystemUser-to-Password" style="stroke:#181818;stroke-width:0.6999999999999998;"/><polygon fill="#181818" points="314.146,748.2378,313.7109,741.3573,312.5255,745.1355,308.7473,743.9501,314.146,748.2378" style="stroke:#181818;stroke-width:0.6999999999999998;"/><text fill="#000000" font-family="sans-serif" font-size="9.1" lengthAdjust="spacing" textLength="39.9547" x="289.1" y="698.3546">Password</text><text fill="#000000" font-family="sans-serif" font-size="9.1" lengthAdjust="spacing" textLength="5.061" x="244.9857" y="636.5063">1</text><text fill="#000000" font-family="sans-serif" font-size="9.1" lengthAdjust="spacing" textLength="5.061" x="306.5257" y="740.5733">1</text></g><!--link SystemUser to SystemRole--><g id="link_SystemUser_SystemRole"><path codeLine="104" d="M204.477,621.4888 C183.099,649.4468 154.8713,686.3395 130.1613,718.6515 " fill="none" id="SystemUser-to-SystemRole" style="stroke:#181818;stroke-width:0.6999999999999998;"/><polygon fill="#181818" points="127.61,721.9878,133.6612,718.6843,129.7361,719.2075,129.2128,715.2825,127.61,721.9878" style="stroke:#181818;stroke-width:0.6999999999999998;"/><text fill="#000000" font-family="sans-serif" font-size="9.1" lengthAdjust="spacing" textLength="37.9285" x="151.2" y="698.3546">UserRole</text><text fill="#000000" font-family="sans-serif" font-size="9.1" lengthAdjust="spacing" textLength="3.5414" x="197.444" y="636.5063">*</text><text fill="#000000" font-family="sans-serif" font-size="9.1" lengthAdjust="spacing" textLength="5.061" x="126.3705" y="714.2093">1</text></g><!--link ProposalTemplateRepository to ProposalTemplate--><g id="link_ProposalTemplateRepository_ProposalTemplate"><path codeLine="106" d="M604.1,451.9628 C604.1,468.5248 604.1,483.9038 604.1,502.9228 " fill="none" id="ProposalTemplateRepository-to-ProposalTemplate" style="stroke:#181818;stroke-width:0.6999999999999998;"/><polygon fill="#181818" points="604.1,507.1228,606.9,500.8228,604.1,503.6228,601.3,500.8228,604.1,507.1228" style="stroke:#181818;stroke-width:0.6999999999999998;"/><text fill="#000000" font-family="sans-serif" font-size="9.1" lengthAdjust="spacing" textLength="37.4353" x="604.8" y="483.4546">manages</text></g><!--SRC=[fLPjRzis4FwkNq6q7-QqCT1Ym108GG3Lrbe3iMN8JlgXA096EiliQD4ZgMJEiF- -8_L6MxATTG4Sq-Gzpzqzl3j9Cys1t2r-_NZbav78Lomh992v55kXA2TBs6mvrQ38a8muLOgC6SqatNYU-eFbMufBafY3G6l97WiDaqJa2_O2v8Fd_KBk9kIMxa1wrgXrKNke7Q3Ttnx1lo51l9Q2Sv3-SVjHOrIXdYXdATK2GOkrUAxjxyjjXZ61V689MFFtH3asJPA3Y_eKE2Iwtc-s9VnPWD8pUFwTSPXJlMuHoBSeaWIKckA7Ph1t54efP7lmZv6cJU5r4ZdsjLIqqEiNdmJu9IHxwUGvn92HWw4iEvyS4iRDMHKfPqhtYEAJMpouFZmPBwER2bXiKMEe3nfnKYswNX5sIN9uDXPuLrWrUNRHQrQb0Bb2DUuKo3d83LCAarIrY5MsUmgUlFzAk_TrmRJHhgg54zIZ41neNY6Oicm64FwbCInaFOzQMNCKK9sonMJAuFlkiecvbCAOGAvPWj6dHfSlL0NvBbeDi3n08VjEQTZ4-EFRT_Jn95XQ4MIWHuMKY3OuSxMbhVbL2jeMHQKfopN85KtWHFqq0QvOdWQS6-89mkWZXqxTr4KZLfFKfA5tWvnkm14bsfhaAJyALVG91hhQxDPEJpbLm1GRMv-1Mhci5bY3UuNLKwDDvcuApisxrrrjzx3i2N3P0LuuFkoTzNbn3cpmXsv8a6KICgD5VpRa-henYONGDpTDSYMlzR-_Kpi_ajh-nLP6oPhcMTjsUJjDdH9mQbOBez294O6TMHVIeJWui2bN0u4DWm-6wF47ZlLEXwwfMez4QgN5QczgR0F1SMWvVPhcwQZh7FqNNJ4MqxUsazr6xXiLXjn0qS7W_fAy3SRZg_2t2pFP2YW3xlgoXot77Fyz2vd-70VanSO94ab2t740mNWwcLNhKJnzc0Qpu7COEpkZwFOs-1J5mJAgjnTVegyFut0n-JnhJUyMosWQnWznE8_3HJXR1il9VLZFB6x7fLgphV9ElMCCXpUlUi3wf51mdkhqawOYyLxZqB3rZlvpaHnmd9ZH_vF933kV91BCIy5FivWexCi2wjARhvMrxHtVlkFKJpi4TGZFn-evV6y-lh48yztqZzyiZvasRU8toptJTwsfqmubhrbsutOkveXE6vhZswBo_WK0]--></g></svg>