<svg xmlns="http://www.w3.org/2000/svg" xmlns:xlink="http://www.w3.org/1999/xlink" contentStyleType="text/css" height="1071px" preserveAspectRatio="none" style="width:1871px;height:1071px;background:#FFFFFF;" version="1.1" viewBox="0 0 1871 1071" width="1871px" zoomAndPan="magnify"><title>US318: Configure Proposal Templates - Sequence Diagram</title><defs/><g><text fill="#000000" font-family="sans-serif" font-size="14" font-weight="bold" lengthAdjust="spacing" textLength="392.8818" x="740.2312" y="30.1074">US318: Configure Proposal Templates - Sequence Diagram</text><rect fill="#FFFFFF" height="845.2363" style="stroke:#181818;stroke-width:1.0;" width="10" x="63.5137" y="133.2422"/><rect fill="#FFFFFF" height="381.8223" style="stroke:#181818;stroke-width:1.0;" width="10" x="302.7397" y="133.2422"/><rect fill="#FFFFFF" height="432.123" style="stroke:#181818;stroke-width:1.0;" width="10" x="302.7397" y="546.3555"/><rect fill="#FFFFFF" height="295.9492" style="stroke:#181818;stroke-width:1.0;" width="10" x="557.9258" y="187.8242"/><rect fill="#FFFFFF" height="217.7461" style="stroke:#181818;stroke-width:1.0;" width="10" x="557.9258" y="666.5195"/><rect fill="#FFFFFF" height="31.291" style="stroke:#181818;stroke-width:1.0;" width="10" x="1337.5566" y="577.6465"/><rect fill="#FFFFFF" height="31.291" style="stroke:#181818;stroke-width:1.0;" width="10" x="1554.9351" y="294.0273"/><rect fill="#FFFFFF" height="31.291" style="stroke:#181818;stroke-width:1.0;" width="10" x="1554.9351" y="697.8105"/><rect fill="#FFFFFF" height="31.291" style="stroke:#181818;stroke-width:1.0;" width="10" x="1554.9351" y="821.6836"/><rect fill="#FFFFFF" height="31.291" style="stroke:#181818;stroke-width:1.0;" width="10" x="1756.7446" y="382.9004"/><rect fill="#FFFFFF" height="30" style="stroke:#181818;stroke-width:1.0;" width="10" x="1756.7446" y="760.3926"/><rect fill="none" height="113.1641" style="stroke:#000000;stroke-width:1.5;" width="1437.8662" x="426.478" y="340.3184"/><rect fill="none" height="347.541" style="stroke:#000000;stroke-width:1.5;" width="1854.3442" x="10" y="623.9375"/><line style="stroke:#181818;stroke-width:0.5;stroke-dasharray:5.0,5.0;" x1="68" x2="68" y1="123.2422" y2="988.4785"/><line style="stroke:#181818;stroke-width:0.5;stroke-dasharray:5.0,5.0;" x1="307.6367" x2="307.6367" y1="123.2422" y2="988.4785"/><line style="stroke:#181818;stroke-width:0.5;stroke-dasharray:5.0,5.0;" x1="562.478" x2="562.478" y1="123.2422" y2="988.4785"/><line style="stroke:#181818;stroke-width:0.5;stroke-dasharray:5.0,5.0;" x1="945.7964" x2="945.7964" y1="123.2422" y2="988.4785"/><line style="stroke:#181818;stroke-width:0.5;stroke-dasharray:5.0,5.0;" x1="1126.0854" x2="1126.0854" y1="258.9258" y2="988.4785"/><line style="stroke:#181818;stroke-width:0.5;stroke-dasharray:5.0,5.0;" x1="1342.3882" x2="1342.3882" y1="123.2422" y2="988.4785"/><line style="stroke:#181818;stroke-width:0.5;stroke-dasharray:5.0,5.0;" x1="1559.7251" x2="1559.7251" y1="123.2422" y2="988.4785"/><line style="stroke:#181818;stroke-width:0.5;stroke-dasharray:5.0,5.0;" x1="1761.145" x2="1761.145" y1="123.2422" y2="988.4785"/><text fill="#000000" font-family="sans-serif" font-size="14" lengthAdjust="spacing" textLength="91.0273" x="20" y="119.7285">CRM Manager</text><ellipse cx="68.5137" cy="53.1211" fill="#E2E2F0" rx="8" ry="8" style="stroke:#181818;stroke-width:0.5;"/><path d="M68.5137,61.1211 L68.5137,88.1211 M55.5137,69.1211 L81.5137,69.1211 M68.5137,88.1211 L55.5137,103.1211 M68.5137,88.1211 L81.5137,103.1211 " fill="none" style="stroke:#181818;stroke-width:0.5;"/><text fill="#000000" font-family="sans-serif" font-size="14" lengthAdjust="spacing" textLength="91.0273" x="20" y="1002.5859">CRM Manager</text><ellipse cx="68.5137" cy="1014.5996" fill="#E2E2F0" rx="8" ry="8" style="stroke:#181818;stroke-width:0.5;"/><path d="M68.5137,1022.5996 L68.5137,1049.5996 M55.5137,1030.5996 L81.5137,1030.5996 M68.5137,1049.5996 L55.5137,1064.5996 M68.5137,1049.5996 L81.5137,1064.5996 " fill="none" style="stroke:#181818;stroke-width:0.5;"/><rect fill="#E2E2F0" height="32.6211" rx="2.5" ry="2.5" style="stroke:#181818;stroke-width:0.5;" width="206.2061" x="204.6367" y="89.6211"/><text fill="#000000" font-family="sans-serif" font-size="14" lengthAdjust="spacing" textLength="192.2061" x="211.6367" y="111.7285">:ConfigureProposalTemplateUI</text><rect fill="#E2E2F0" height="32.6211" rx="2.5" ry="2.5" style="stroke:#181818;stroke-width:0.5;" width="206.2061" x="204.6367" y="987.4785"/><text fill="#000000" font-family="sans-serif" font-size="14" lengthAdjust="spacing" textLength="192.2061" x="211.6367" y="1009.5859">:ConfigureProposalTemplateUI</text><rect fill="#E2E2F0" height="32.6211" rx="2.5" ry="2.5" style="stroke:#181818;stroke-width:0.5;" width="252.8955" x="436.478" y="89.6211"/><text fill="#000000" font-family="sans-serif" font-size="14" lengthAdjust="spacing" textLength="238.8955" x="443.478" y="111.7285">:ConfigureProposalTemplateController</text><rect fill="#E2E2F0" height="32.6211" rx="2.5" ry="2.5" style="stroke:#181818;stroke-width:0.5;" width="252.8955" x="436.478" y="987.4785"/><text fill="#000000" font-family="sans-serif" font-size="14" lengthAdjust="spacing" textLength="238.8955" x="443.478" y="1009.5859">:ConfigureProposalTemplateController</text><rect fill="#E2E2F0" height="51.2422" rx="2.5" ry="2.5" style="stroke:#181818;stroke-width:0.5;" width="146.2891" x="872.7964" y="71"/><text fill="#000000" font-family="sans-serif" font-size="14" lengthAdjust="spacing" textLength="34.248" x="928.8169" y="93.1074">authz</text><text fill="#000000" font-family="sans-serif" font-size="14" lengthAdjust="spacing" textLength="132.2891" x="879.7964" y="111.7285">:AuthorizationService</text><rect fill="#E2E2F0" height="51.2422" rx="2.5" ry="2.5" style="stroke:#181818;stroke-width:0.5;" width="146.2891" x="872.7964" y="987.4785"/><text fill="#000000" font-family="sans-serif" font-size="14" lengthAdjust="spacing" textLength="34.248" x="928.8169" y="1009.5859">authz</text><text fill="#000000" font-family="sans-serif" font-size="14" lengthAdjust="spacing" textLength="132.2891" x="879.7964" y="1028.207">:AuthorizationService</text><rect fill="#E2E2F0" height="32.6211" rx="2.5" ry="2.5" style="stroke:#181818;stroke-width:0.5;" width="195.3027" x="1029.0854" y="987.4785"/><text fill="#000000" font-family="sans-serif" font-size="14" lengthAdjust="spacing" textLength="181.3027" x="1036.0854" y="1009.5859">List&lt;ProposalTemplateDTO&gt;</text><rect fill="#E2E2F0" height="32.6211" rx="2.5" ry="2.5" style="stroke:#181818;stroke-width:0.5;" width="216.3369" x="1234.3882" y="89.6211"/><text fill="#000000" font-family="sans-serif" font-size="14" lengthAdjust="spacing" textLength="202.3369" x="1241.3882" y="111.7285">:ShowProposalValidationService</text><rect fill="#E2E2F0" height="32.6211" rx="2.5" ry="2.5" style="stroke:#181818;stroke-width:0.5;" width="216.3369" x="1234.3882" y="987.4785"/><text fill="#000000" font-family="sans-serif" font-size="14" lengthAdjust="spacing" textLength="202.3369" x="1241.3882" y="1009.5859">:ShowProposalValidationService</text><rect fill="#E2E2F0" height="32.6211" rx="2.5" ry="2.5" style="stroke:#181818;stroke-width:0.5;" width="198.4199" x="1460.7251" y="89.6211"/><text fill="#000000" font-family="sans-serif" font-size="14" lengthAdjust="spacing" textLength="184.4199" x="1467.7251" y="111.7285">:ProposalTemplateRepository</text><rect fill="#E2E2F0" height="32.6211" rx="2.5" ry="2.5" style="stroke:#181818;stroke-width:0.5;" width="198.4199" x="1460.7251" y="987.4785"/><text fill="#000000" font-family="sans-serif" font-size="14" lengthAdjust="spacing" textLength="184.4199" x="1467.7251" y="1009.5859">:ProposalTemplateRepository</text><rect fill="#E2E2F0" height="32.6211" rx="2.5" ry="2.5" style="stroke:#181818;stroke-width:0.5;" width="185.1992" x="1669.145" y="89.6211"/><text fill="#000000" font-family="sans-serif" font-size="14" lengthAdjust="spacing" textLength="171.1992" x="1676.145" y="111.7285">template:ProposalTemplate</text><rect fill="#E2E2F0" height="32.6211" rx="2.5" ry="2.5" style="stroke:#181818;stroke-width:0.5;" width="185.1992" x="1669.145" y="987.4785"/><text fill="#000000" font-family="sans-serif" font-size="14" lengthAdjust="spacing" textLength="171.1992" x="1676.145" y="1009.5859">template:ProposalTemplate</text><rect fill="#FFFFFF" height="845.2363" style="stroke:#181818;stroke-width:1.0;" width="10" x="63.5137" y="133.2422"/><rect fill="#FFFFFF" height="381.8223" style="stroke:#181818;stroke-width:1.0;" width="10" x="302.7397" y="133.2422"/><rect fill="#FFFFFF" height="432.123" style="stroke:#181818;stroke-width:1.0;" width="10" x="302.7397" y="546.3555"/><rect fill="#FFFFFF" height="295.9492" style="stroke:#181818;stroke-width:1.0;" width="10" x="557.9258" y="187.8242"/><rect fill="#FFFFFF" height="217.7461" style="stroke:#181818;stroke-width:1.0;" width="10" x="557.9258" y="666.5195"/><rect fill="#FFFFFF" height="31.291" style="stroke:#181818;stroke-width:1.0;" width="10" x="1337.5566" y="577.6465"/><rect fill="#FFFFFF" height="31.291" style="stroke:#181818;stroke-width:1.0;" width="10" x="1554.9351" y="294.0273"/><rect fill="#FFFFFF" height="31.291" style="stroke:#181818;stroke-width:1.0;" width="10" x="1554.9351" y="697.8105"/><rect fill="#FFFFFF" height="31.291" style="stroke:#181818;stroke-width:1.0;" width="10" x="1554.9351" y="821.6836"/><rect fill="#FFFFFF" height="31.291" style="stroke:#181818;stroke-width:1.0;" width="10" x="1756.7446" y="382.9004"/><rect fill="#FFFFFF" height="30" style="stroke:#181818;stroke-width:1.0;" width="10" x="1756.7446" y="760.3926"/><polygon fill="#181818" points="290.7397,152.5332,300.7397,156.5332,290.7397,160.5332,294.7397,156.5332" style="stroke:#181818;stroke-width:1.0;"/><line style="stroke:#181818;stroke-width:1.0;" x1="73.5137" x2="296.7397" y1="156.5332" y2="156.5332"/><text fill="#000000" font-family="sans-serif" font-size="13" lengthAdjust="spacing" textLength="205.2261" x="80.5137" y="151.2705">asks to configure proposal template</text><polygon fill="#181818" points="545.9258,183.8242,555.9258,187.8242,545.9258,191.8242,549.9258,187.8242" style="stroke:#181818;stroke-width:1.0;"/><line style="stroke:#181818;stroke-width:1.0;" x1="312.7397" x2="551.9258" y1="187.8242" y2="187.8242"/><text fill="#000000" font-family="sans-serif" font-size="13" lengthAdjust="spacing" textLength="136.5444" x="319.7397" y="182.5615">listProposalTemplates()</text><polygon fill="#181818" points="933.9409,215.1152,943.9409,219.1152,933.9409,223.1152,937.9409,219.1152" style="stroke:#181818;stroke-width:1.0;"/><line style="stroke:#181818;stroke-width:1.0;" x1="567.9258" x2="939.9409" y1="219.1152" y2="219.1152"/><text fill="#000000" font-family="sans-serif" font-size="13" lengthAdjust="spacing" textLength="354.0151" x="574.9258" y="213.8525">ensureAuthenticatedUserHasAnyOf(Roles.CRM_MANAGER)</text><polygon fill="#181818" points="1017.0854,246.4063,1027.0854,250.4063,1017.0854,254.4063,1021.0854,250.4063" style="stroke:#181818;stroke-width:1.0;"/><line style="stroke:#181818;stroke-width:1.0;" x1="567.9258" x2="1023.0854" y1="250.4063" y2="250.4063"/><text fill="#000000" font-family="sans-serif" font-size="13" lengthAdjust="spacing" textLength="44.7891" x="574.9258" y="245.1436">create()</text><rect fill="#E2E2F0" height="32.6211" rx="2.5" ry="2.5" style="stroke:#181818;stroke-width:0.5;" width="195.3027" x="1029.0854" y="227.1152"/><text fill="#000000" font-family="sans-serif" font-size="14" lengthAdjust="spacing" textLength="181.3027" x="1036.0854" y="249.2227">List&lt;ProposalTemplateDTO&gt;</text><polygon fill="#181818" points="1542.9351,290.0273,1552.9351,294.0273,1542.9351,298.0273,1546.9351,294.0273" style="stroke:#181818;stroke-width:1.0;"/><line style="stroke:#181818;stroke-width:1.0;" x1="567.9258" x2="1548.9351" y1="294.0273" y2="294.0273"/><text fill="#000000" font-family="sans-serif" font-size="13" lengthAdjust="spacing" textLength="44.0654" x="574.9258" y="288.7646">findAll()</text><polygon fill="#181818" points="578.9258,321.3184,568.9258,325.3184,578.9258,329.3184,574.9258,325.3184" style="stroke:#181818;stroke-width:1.0;"/><line style="stroke:#181818;stroke-width:1.0;stroke-dasharray:2.0,2.0;" x1="572.9258" x2="1558.9351" y1="325.3184" y2="325.3184"/><text fill="#000000" font-family="sans-serif" font-size="13" lengthAdjust="spacing" textLength="56.3608" x="584.9258" y="320.0557">templates</text><path d="M426.478,340.3184 L498.9126,340.3184 L498.9126,349.6094 L488.9126,359.6094 L426.478,359.6094 L426.478,340.3184 " fill="#EEEEEE" style="stroke:#000000;stroke-width:1.5;"/><rect fill="none" height="113.1641" style="stroke:#000000;stroke-width:1.5;" width="1437.8662" x="426.478" y="340.3184"/><text fill="#000000" font-family="sans-serif" font-size="13" font-weight="bold" lengthAdjust="spacing" textLength="27.4346" x="441.478" y="355.3467">loop</text><text fill="#000000" font-family="sans-serif" font-size="11" font-weight="bold" lengthAdjust="spacing" textLength="98.4092" x="513.9126" y="354.1885">[for each template]</text><polygon fill="#181818" points="1744.7446,378.9004,1754.7446,382.9004,1744.7446,386.9004,1748.7446,382.9004" style="stroke:#181818;stroke-width:1.0;"/><line style="stroke:#181818;stroke-width:1.0;" x1="567.9258" x2="1750.7446" y1="382.9004" y2="382.9004"/><text fill="#000000" font-family="sans-serif" font-size="13" lengthAdjust="spacing" textLength="46.9409" x="574.9258" y="377.6377">toDTO()</text><polygon fill="#181818" points="578.9258,410.1914,568.9258,414.1914,578.9258,418.1914,574.9258,414.1914" style="stroke:#181818;stroke-width:1.0;"/><line style="stroke:#181818;stroke-width:1.0;stroke-dasharray:2.0,2.0;" x1="572.9258" x2="1760.7446" y1="414.1914" y2="414.1914"/><text fill="#000000" font-family="sans-serif" font-size="13" lengthAdjust="spacing" textLength="132.939" x="584.9258" y="408.9287">ProposalTemplateDTO</text><polygon fill="#181818" points="1114.7368,441.4824,1124.7368,445.4824,1114.7368,449.4824,1118.7368,445.4824" style="stroke:#181818;stroke-width:1.0;"/><line style="stroke:#181818;stroke-width:1.0;" x1="567.9258" x2="1120.7368" y1="445.4824" y2="445.4824"/><text fill="#000000" font-family="sans-serif" font-size="13" lengthAdjust="spacing" textLength="163.2871" x="574.9258" y="440.2197">add(ProposalTemplateDTO)</text><polygon fill="#181818" points="323.7397,479.7734,313.7397,483.7734,323.7397,487.7734,319.7397,483.7734" style="stroke:#181818;stroke-width:1.0;"/><line style="stroke:#181818;stroke-width:1.0;stroke-dasharray:2.0,2.0;" x1="317.7397" x2="561.9258" y1="483.7734" y2="483.7734"/><text fill="#000000" font-family="sans-serif" font-size="13" lengthAdjust="spacing" textLength="168.3525" x="329.7397" y="478.5107">List&lt;ProposalTemplateDTO&gt;</text><polygon fill="#181818" points="84.5137,511.0645,74.5137,515.0645,84.5137,519.0645,80.5137,515.0645" style="stroke:#181818;stroke-width:1.0;"/><line style="stroke:#181818;stroke-width:1.0;stroke-dasharray:2.0,2.0;" x1="78.5137" x2="306.7397" y1="515.0645" y2="515.0645"/><text fill="#000000" font-family="sans-serif" font-size="13" lengthAdjust="spacing" textLength="124.2744" x="90.5137" y="509.8018">show list of templates</text><polygon fill="#181818" points="290.7397,542.3555,300.7397,546.3555,290.7397,550.3555,294.7397,546.3555" style="stroke:#181818;stroke-width:1.0;"/><line style="stroke:#181818;stroke-width:1.0;" x1="73.5137" x2="296.7397" y1="546.3555" y2="546.3555"/><text fill="#000000" font-family="sans-serif" font-size="13" lengthAdjust="spacing" textLength="202.3379" x="80.5137" y="541.0928">select template &amp; provide new path</text><polygon fill="#181818" points="1325.5566,573.6465,1335.5566,577.6465,1325.5566,581.6465,1329.5566,577.6465" style="stroke:#181818;stroke-width:1.0;"/><line style="stroke:#181818;stroke-width:1.0;" x1="312.7397" x2="1331.5566" y1="577.6465" y2="577.6465"/><text fill="#000000" font-family="sans-serif" font-size="13" lengthAdjust="spacing" textLength="151.7471" x="319.7397" y="572.3838">validateFilePath(newPath)</text><polygon fill="#181818" points="323.7397,604.9375,313.7397,608.9375,323.7397,612.9375,319.7397,608.9375" style="stroke:#181818;stroke-width:1.0;"/><line style="stroke:#181818;stroke-width:1.0;stroke-dasharray:2.0,2.0;" x1="317.7397" x2="1341.5566" y1="608.9375" y2="608.9375"/><text fill="#000000" font-family="sans-serif" font-size="13" lengthAdjust="spacing" textLength="91.7808" x="329.7397" y="603.6748">validationStatus</text><path d="M10,623.9375 L70.1709,623.9375 L70.1709,633.2285 L60.1709,643.2285 L10,643.2285 L10,623.9375 " fill="#EEEEEE" style="stroke:#000000;stroke-width:1.5;"/><rect fill="none" height="347.541" style="stroke:#000000;stroke-width:1.5;" width="1854.3442" x="10" y="623.9375"/><text fill="#000000" font-family="sans-serif" font-size="13" font-weight="bold" lengthAdjust="spacing" textLength="15.1709" x="25" y="638.9658">alt</text><text fill="#000000" font-family="sans-serif" font-size="11" font-weight="bold" lengthAdjust="spacing" textLength="79.4438" x="85.1709" y="637.8076">[Validation OK]</text><polygon fill="#181818" points="545.9258,662.5195,555.9258,666.5195,545.9258,670.5195,549.9258,666.5195" style="stroke:#181818;stroke-width:1.0;"/><line style="stroke:#181818;stroke-width:1.0;" x1="312.7397" x2="551.9258" y1="666.5195" y2="666.5195"/><text fill="#000000" font-family="sans-serif" font-size="13" lengthAdjust="spacing" textLength="226.186" x="319.7397" y="661.2568">updateTemplateFilePath(dto, newPath)</text><polygon fill="#181818" points="1542.9351,693.8105,1552.9351,697.8105,1542.9351,701.8105,1546.9351,697.8105" style="stroke:#181818;stroke-width:1.0;"/><line style="stroke:#181818;stroke-width:1.0;" x1="567.9258" x2="1548.9351" y1="697.8105" y2="697.8105"/><text fill="#000000" font-family="sans-serif" font-size="13" lengthAdjust="spacing" textLength="115.6162" x="574.9258" y="692.5479">ofIdentity(dto.name)</text><polygon fill="#181818" points="578.9258,725.1016,568.9258,729.1016,578.9258,733.1016,574.9258,729.1016" style="stroke:#181818;stroke-width:1.0;"/><line style="stroke:#181818;stroke-width:1.0;stroke-dasharray:2.0,2.0;" x1="572.9258" x2="1558.9351" y1="729.1016" y2="729.1016"/><text fill="#000000" font-family="sans-serif" font-size="13" lengthAdjust="spacing" textLength="49.8608" x="584.9258" y="723.8389">template</text><polygon fill="#181818" points="1744.7446,756.3926,1754.7446,760.3926,1744.7446,764.3926,1748.7446,760.3926" style="stroke:#181818;stroke-width:1.0;"/><line style="stroke:#181818;stroke-width:1.0;" x1="567.9258" x2="1750.7446" y1="760.3926" y2="760.3926"/><text fill="#000000" font-family="sans-serif" font-size="13" lengthAdjust="spacing" textLength="149.5889" x="574.9258" y="755.1299">changeFilePath(newPath)</text><polygon fill="#181818" points="1542.9351,817.6836,1552.9351,821.6836,1542.9351,825.6836,1546.9351,821.6836" style="stroke:#181818;stroke-width:1.0;"/><line style="stroke:#181818;stroke-width:1.0;" x1="567.9258" x2="1548.9351" y1="821.6836" y2="821.6836"/><text fill="#000000" font-family="sans-serif" font-size="13" lengthAdjust="spacing" textLength="85.979" x="574.9258" y="816.4209">save(template)</text><polygon fill="#181818" points="578.9258,848.9746,568.9258,852.9746,578.9258,856.9746,574.9258,852.9746" style="stroke:#181818;stroke-width:1.0;"/><line style="stroke:#181818;stroke-width:1.0;stroke-dasharray:2.0,2.0;" x1="572.9258" x2="1558.9351" y1="852.9746" y2="852.9746"/><text fill="#000000" font-family="sans-serif" font-size="13" lengthAdjust="spacing" textLength="88.8799" x="584.9258" y="847.7119">savedTemplate</text><polygon fill="#181818" points="323.7397,880.2656,313.7397,884.2656,323.7397,888.2656,319.7397,884.2656" style="stroke:#181818;stroke-width:1.0;"/><line style="stroke:#181818;stroke-width:1.0;" x1="317.7397" x2="561.9258" y1="884.2656" y2="884.2656"/><text fill="#000000" font-family="sans-serif" font-size="13" lengthAdjust="spacing" textLength="74.4326" x="329.7397" y="879.0029">updatedDTO</text><polygon fill="#181818" points="84.5137,911.5566,74.5137,915.5566,84.5137,919.5566,80.5137,915.5566" style="stroke:#181818;stroke-width:1.0;"/><line style="stroke:#181818;stroke-width:1.0;stroke-dasharray:2.0,2.0;" x1="78.5137" x2="301.7397" y1="915.5566" y2="915.5566"/><text fill="#000000" font-family="sans-serif" font-size="13" lengthAdjust="spacing" textLength="137.2808" x="90.5137" y="910.2939">show success message</text><line style="stroke:#000000;stroke-width:1.0;stroke-dasharray:2.0,2.0;" x1="10" x2="1864.3442" y1="924.5566" y2="924.5566"/><text fill="#000000" font-family="sans-serif" font-size="11" font-weight="bold" lengthAdjust="spacing" textLength="102.6631" x="15" y="936.4268">[Validation FAILED]</text><polygon fill="#181818" points="84.5137,959.4785,74.5137,963.4785,84.5137,967.4785,80.5137,963.4785" style="stroke:#181818;stroke-width:1.0;"/><line style="stroke:#181818;stroke-width:1.0;stroke-dasharray:2.0,2.0;" x1="78.5137" x2="301.7397" y1="963.4785" y2="963.4785"/><text fill="#000000" font-family="sans-serif" font-size="13" lengthAdjust="spacing" textLength="117.7681" x="90.5137" y="958.2158">show error message</text><!--SRC=[dLJRQXin47ttLmn-A4we0wKlnPJ0aajZ6jV1bpwKGX6xOrjKbhQIxE1yVKVoIdlnRj9w7-pLQCxHqSoSjTmAXENyuuTF8xXHSiNNEutmf5Mk31Emm6qkc4K3GvZZdntA5E6MixLcsrwFfLPfwD_C9Z1XagrHzu6PyDxBcROyvJcJ5lgZo1x80_Tox57ByRy2QCDg9KHnNBci4x2TtRpybAE4_fNcByno9UUezpn53qoMYuSVTSmZD_PpyxpRnVJQ0res7A1EOOlDKJFRKuH5uwxpZNeE-T-PuDc9s2AgccLjdZ93MdBAEtYOMvwbppMNx-ajjhECKAk0dc83XjSKWH71Vnkm2j8uHtcOet2enr4oGSgs4LHG6PjwpE32fyTZAursyGe1qVbc4XDAGoUxdgEaInCkMnhK3ymayZ1T3MPAeBcYaVqrIRubN-vc5xqMjevENrxI2Qb6YXJYwZ1NRSfOSPabGZJr-rwuY4yRDciGQcHyJeQdEA5K3Yko7ErjwZKzrHAaEsP5-WirDKMB9eLx8l14OKjL8hAYjvoXTcKTnNKJb6M3bjsZSfJPQQl2x7KQjrdCoX35OIIICCiZC6H5Fu-WLjqzwR20GO6fZJ1uvoomvnc2n6V8cTtKHu9eAfQ87YUc_V4Txxd09y8DYC3zDsQg_2ouS4aG2xClloQMsTt9HKg28x6mK7w0OFerzh35jRlSAGpLZaepgzv3JUvhDkvqaLgDC-TXUt2CLv9jiOKjckDjOxNDgeU_xQ1qm-IwenUlE-e_V57Ssx0z3eBcysxiABB5cTVsOtDiRTRXy9OMjll8xD8KZO4j_L3yw6DXi3fZzyduyUxs3IBKcgQwHXC-1tLNLbO5nLy0]--></g></svg>