<svg xmlns="http://www.w3.org/2000/svg" xmlns:xlink="http://www.w3.org/1999/xlink" contentStyleType="text/css" height="1045px" preserveAspectRatio="none" style="width:1391px;height:1045px;background:#FFFFFF;" version="1.1" viewBox="0 0 1391 1045" width="1391px" zoomAndPan="magnify"><defs/><g><rect fill="#FFFFFF" height="827.2461" style="stroke:#181818;stroke-width:1.0;" width="10" x="224.9126" y="116.9121"/><rect fill="#FFFFFF" height="720.373" style="stroke:#181818;stroke-width:1.0;" width="10" x="425.8643" y="148.2031"/><rect fill="#FFFFFF" height="657.791" style="stroke:#181818;stroke-width:1.0;" width="10" x="626.8159" y="179.4941"/><rect fill="#FFFFFF" height="42.291" style="stroke:#181818;stroke-width:1.0;" width="10" x="631.8159" y="519.0352"/><rect fill="#FFFFFF" height="206.377" style="stroke:#181818;stroke-width:1.0;" width="10" x="821.9258" y="273.3672"/><rect fill="#FFFFFF" height="206.377" style="stroke:#181818;stroke-width:1.0;" width="10" x="821.9258" y="599.6172"/><rect fill="#FFFFFF" height="31.291" style="stroke:#181818;stroke-width:1.0;" width="10" x="963.8115" y="330.9492"/><rect fill="#FFFFFF" height="31.291" style="stroke:#181818;stroke-width:1.0;" width="10" x="963.8115" y="657.1992"/><rect fill="#FFFFFF" height="31.291" style="stroke:#181818;stroke-width:1.0;" width="10" x="1136.8145" y="410.1621"/><rect fill="#FFFFFF" height="31.291" style="stroke:#181818;stroke-width:1.0;" width="10" x="1136.8145" y="736.4121"/><rect fill="#FFFFFF" height="31.291" style="stroke:#181818;stroke-width:1.0;" width="10" x="1309.4312" y="210.7852"/><rect fill="none" height="161.0859" style="stroke:#000000;stroke-width:1.5;" width="486.6055" x="756.626" y="288.3672"/><rect fill="none" height="161.0859" style="stroke:#000000;stroke-width:1.5;" width="486.6055" x="756.626" y="614.6172"/><line style="stroke:#181818;stroke-width:0.5;stroke-dasharray:5.0,5.0;" x1="53" x2="53" y1="83.6211" y2="962.1582"/><line style="stroke:#181818;stroke-width:0.5;stroke-dasharray:5.0,5.0;" x1="229.1714" x2="229.1714" y1="83.6211" y2="962.1582"/><line style="stroke:#181818;stroke-width:0.5;stroke-dasharray:5.0,5.0;" x1="430.6782" x2="430.6782" y1="83.6211" y2="962.1582"/><line style="stroke:#181818;stroke-width:0.5;stroke-dasharray:5.0,5.0;" x1="631.6333" x2="631.6333" y1="83.6211" y2="962.1582"/><line style="stroke:#181818;stroke-width:0.5;stroke-dasharray:5.0,5.0;" x1="826.626" x2="826.626" y1="83.6211" y2="962.1582"/><line style="stroke:#181818;stroke-width:0.5;stroke-dasharray:5.0,5.0;" x1="968.2256" x2="968.2256" y1="83.6211" y2="962.1582"/><line style="stroke:#181818;stroke-width:0.5;stroke-dasharray:5.0,5.0;" x1="1141.3975" x2="1141.3975" y1="83.6211" y2="962.1582"/><line style="stroke:#181818;stroke-width:0.5;stroke-dasharray:5.0,5.0;" x1="1314.2314" x2="1314.2314" y1="83.6211" y2="962.1582"/><text fill="#000000" font-family="sans-serif" font-size="14" lengthAdjust="spacing" textLength="91.0273" x="5" y="80.1074">CRM Manager</text><ellipse cx="53.5137" cy="13.5" fill="#E2E2F0" rx="8" ry="8" style="stroke:#181818;stroke-width:0.5;"/><path d="M53.5137,21.5 L53.5137,48.5 M40.5137,29.5 L66.5137,29.5 M53.5137,48.5 L40.5137,63.5 M53.5137,48.5 L66.5137,63.5 " fill="none" style="stroke:#181818;stroke-width:0.5;"/><text fill="#000000" font-family="sans-serif" font-size="14" lengthAdjust="spacing" textLength="91.0273" x="5" y="976.2656">CRM Manager</text><ellipse cx="53.5137" cy="988.2793" fill="#E2E2F0" rx="8" ry="8" style="stroke:#181818;stroke-width:0.5;"/><path d="M53.5137,996.2793 L53.5137,1023.2793 M40.5137,1004.2793 L66.5137,1004.2793 M53.5137,1023.2793 L40.5137,1038.2793 M53.5137,1023.2793 L66.5137,1038.2793 " fill="none" style="stroke:#181818;stroke-width:0.5;"/><rect fill="#E2E2F0" height="32.6211" rx="2.5" ry="2.5" style="stroke:#181818;stroke-width:0.5;" width="159.4824" x="150.1714" y="50"/><text fill="#000000" font-family="sans-serif" font-size="14" lengthAdjust="spacing" textLength="145.4824" x="157.1714" y="72.1074">DecommissionFigureUI</text><rect fill="#E2E2F0" height="32.6211" rx="2.5" ry="2.5" style="stroke:#181818;stroke-width:0.5;" width="159.4824" x="150.1714" y="961.1582"/><text fill="#000000" font-family="sans-serif" font-size="14" lengthAdjust="spacing" textLength="145.4824" x="157.1714" y="983.2656">DecommissionFigureUI</text><rect fill="#E2E2F0" height="32.6211" rx="2.5" ry="2.5" style="stroke:#181818;stroke-width:0.5;" width="114.3721" x="373.6782" y="50"/><text fill="#000000" font-family="sans-serif" font-size="14" lengthAdjust="spacing" textLength="100.3721" x="380.6782" y="72.1074">FigureController</text><rect fill="#E2E2F0" height="32.6211" rx="2.5" ry="2.5" style="stroke:#181818;stroke-width:0.5;" width="114.3721" x="373.6782" y="961.1582"/><text fill="#000000" font-family="sans-serif" font-size="14" lengthAdjust="spacing" textLength="100.3721" x="380.6782" y="983.2656">FigureController</text><rect fill="#E2E2F0" height="32.6211" rx="2.5" ry="2.5" style="stroke:#181818;stroke-width:0.5;" width="100.3652" x="581.6333" y="50"/><text fill="#000000" font-family="sans-serif" font-size="14" lengthAdjust="spacing" textLength="86.3652" x="588.6333" y="72.1074">FigureService</text><rect fill="#E2E2F0" height="32.6211" rx="2.5" ry="2.5" style="stroke:#181818;stroke-width:0.5;" width="100.3652" x="581.6333" y="961.1582"/><text fill="#000000" font-family="sans-serif" font-size="14" lengthAdjust="spacing" textLength="86.3652" x="588.6333" y="983.2656">FigureService</text><rect fill="#E2E2F0" height="32.6211" rx="2.5" ry="2.5" style="stroke:#181818;stroke-width:0.5;" width="120.5996" x="766.626" y="50"/><text fill="#000000" font-family="sans-serif" font-size="14" lengthAdjust="spacing" textLength="106.5996" x="773.626" y="72.1074">FigureRepository</text><rect fill="#E2E2F0" height="32.6211" rx="2.5" ry="2.5" style="stroke:#181818;stroke-width:0.5;" width="120.5996" x="766.626" y="961.1582"/><text fill="#000000" font-family="sans-serif" font-size="14" lengthAdjust="spacing" textLength="106.5996" x="773.626" y="983.2656">FigureRepository</text><rect fill="#E2E2F0" height="32.6211" rx="2.5" ry="2.5" style="stroke:#181818;stroke-width:0.5;" width="143.1719" x="897.2256" y="50"/><text fill="#000000" font-family="sans-serif" font-size="14" lengthAdjust="spacing" textLength="129.1719" x="904.2256" y="72.1074">JpaFigureRepository</text><rect fill="#E2E2F0" height="32.6211" rx="2.5" ry="2.5" style="stroke:#181818;stroke-width:0.5;" width="143.1719" x="897.2256" y="961.1582"/><text fill="#000000" font-family="sans-serif" font-size="14" lengthAdjust="spacing" textLength="129.1719" x="904.2256" y="983.2656">JpaFigureRepository</text><rect fill="#E2E2F0" height="32.6211" rx="2.5" ry="2.5" style="stroke:#181818;stroke-width:0.5;" width="182.834" x="1050.3975" y="50"/><text fill="#000000" font-family="sans-serif" font-size="14" lengthAdjust="spacing" textLength="168.834" x="1057.3975" y="72.1074">InMemoryFigureRepository</text><rect fill="#E2E2F0" height="32.6211" rx="2.5" ry="2.5" style="stroke:#181818;stroke-width:0.5;" width="182.834" x="1050.3975" y="961.1582"/><text fill="#000000" font-family="sans-serif" font-size="14" lengthAdjust="spacing" textLength="168.834" x="1057.3975" y="983.2656">InMemoryFigureRepository</text><rect fill="#E2E2F0" height="32.6211" rx="2.5" ry="2.5" style="stroke:#181818;stroke-width:0.5;" width="142.3994" x="1243.2314" y="50"/><text fill="#000000" font-family="sans-serif" font-size="14" lengthAdjust="spacing" textLength="128.3994" x="1250.2314" y="72.1074">AuthorizationService</text><rect fill="#E2E2F0" height="32.6211" rx="2.5" ry="2.5" style="stroke:#181818;stroke-width:0.5;" width="142.3994" x="1243.2314" y="961.1582"/><text fill="#000000" font-family="sans-serif" font-size="14" lengthAdjust="spacing" textLength="128.3994" x="1250.2314" y="983.2656">AuthorizationService</text><rect fill="#FFFFFF" height="827.2461" style="stroke:#181818;stroke-width:1.0;" width="10" x="224.9126" y="116.9121"/><rect fill="#FFFFFF" height="720.373" style="stroke:#181818;stroke-width:1.0;" width="10" x="425.8643" y="148.2031"/><rect fill="#FFFFFF" height="657.791" style="stroke:#181818;stroke-width:1.0;" width="10" x="626.8159" y="179.4941"/><rect fill="#FFFFFF" height="42.291" style="stroke:#181818;stroke-width:1.0;" width="10" x="631.8159" y="519.0352"/><rect fill="#FFFFFF" height="206.377" style="stroke:#181818;stroke-width:1.0;" width="10" x="821.9258" y="273.3672"/><rect fill="#FFFFFF" height="206.377" style="stroke:#181818;stroke-width:1.0;" width="10" x="821.9258" y="599.6172"/><rect fill="#FFFFFF" height="31.291" style="stroke:#181818;stroke-width:1.0;" width="10" x="963.8115" y="330.9492"/><rect fill="#FFFFFF" height="31.291" style="stroke:#181818;stroke-width:1.0;" width="10" x="963.8115" y="657.1992"/><rect fill="#FFFFFF" height="31.291" style="stroke:#181818;stroke-width:1.0;" width="10" x="1136.8145" y="410.1621"/><rect fill="#FFFFFF" height="31.291" style="stroke:#181818;stroke-width:1.0;" width="10" x="1136.8145" y="736.4121"/><rect fill="#FFFFFF" height="31.291" style="stroke:#181818;stroke-width:1.0;" width="10" x="1309.4312" y="210.7852"/><polygon fill="#181818" points="212.9126,112.9121,222.9126,116.9121,212.9126,120.9121,216.9126,116.9121" style="stroke:#181818;stroke-width:1.0;"/><line style="stroke:#181818;stroke-width:1.0;" x1="53.5137" x2="218.9126" y1="116.9121" y2="116.9121"/><text fill="#000000" font-family="sans-serif" font-size="13" lengthAdjust="spacing" textLength="39.0063" x="60.5137" y="111.6494">show()</text><polygon fill="#181818" points="413.8643,144.2031,423.8643,148.2031,413.8643,152.2031,417.8643,148.2031" style="stroke:#181818;stroke-width:1.0;"/><line style="stroke:#181818;stroke-width:1.0;" x1="234.9126" x2="419.8643" y1="148.2031" y2="148.2031"/><text fill="#000000" font-family="sans-serif" font-size="13" lengthAdjust="spacing" textLength="171.9517" x="241.9126" y="142.9404">decommissionFigure(figureId)</text><polygon fill="#181818" points="614.8159,175.4941,624.8159,179.4941,614.8159,183.4941,618.8159,179.4941" style="stroke:#181818;stroke-width:1.0;"/><line style="stroke:#181818;stroke-width:1.0;" x1="435.8643" x2="620.8159" y1="179.4941" y2="179.4941"/><text fill="#000000" font-family="sans-serif" font-size="13" lengthAdjust="spacing" textLength="171.9517" x="442.8643" y="174.2314">decommissionFigure(figureId)</text><polygon fill="#181818" points="1297.4312,206.7852,1307.4312,210.7852,1297.4312,214.7852,1301.4312,210.7852" style="stroke:#181818;stroke-width:1.0;"/><line style="stroke:#181818;stroke-width:1.0;" x1="636.8159" x2="1303.4312" y1="210.7852" y2="210.7852"/><text fill="#000000" font-family="sans-serif" font-size="13" lengthAdjust="spacing" textLength="576.5068" x="643.8159" y="205.5225">ensureAuthenticatedUserHasAnyOf(Roles.ADMIN, Roles.POWER_USER, Roles.CRM_MANAGER)</text><polygon fill="#181818" points="647.8159,238.0762,637.8159,242.0762,647.8159,246.0762,643.8159,242.0762" style="stroke:#181818;stroke-width:1.0;"/><line style="stroke:#181818;stroke-width:1.0;stroke-dasharray:2.0,2.0;" x1="641.8159" x2="1313.4312" y1="242.0762" y2="242.0762"/><text fill="#000000" font-family="sans-serif" font-size="13" lengthAdjust="spacing" textLength="60.709" x="653.8159" y="236.8135">authorized</text><polygon fill="#181818" points="809.9258,269.3672,819.9258,273.3672,809.9258,277.3672,813.9258,273.3672" style="stroke:#181818;stroke-width:1.0;"/><line style="stroke:#181818;stroke-width:1.0;" x1="636.8159" x2="815.9258" y1="273.3672" y2="273.3672"/><text fill="#000000" font-family="sans-serif" font-size="13" lengthAdjust="spacing" textLength="98.9917" x="643.8159" y="268.1045">findById(figureId)</text><path d="M756.626,288.3672 L816.7969,288.3672 L816.7969,297.6582 L806.7969,307.6582 L756.626,307.6582 L756.626,288.3672 " fill="#EEEEEE" style="stroke:#000000;stroke-width:1.5;"/><rect fill="none" height="161.0859" style="stroke:#000000;stroke-width:1.5;" width="486.6055" x="756.626" y="288.3672"/><text fill="#000000" font-family="sans-serif" font-size="13" font-weight="bold" lengthAdjust="spacing" textLength="15.1709" x="771.626" y="303.3955">alt</text><text fill="#000000" font-family="sans-serif" font-size="11" font-weight="bold" lengthAdjust="spacing" textLength="113.0669" x="831.7969" y="302.2373">[JPA Implementation]</text><polygon fill="#181818" points="951.8115,326.9492,961.8115,330.9492,951.8115,334.9492,955.8115,330.9492" style="stroke:#181818;stroke-width:1.0;"/><line style="stroke:#181818;stroke-width:1.0;" x1="831.9258" x2="957.8115" y1="330.9492" y2="330.9492"/><text fill="#000000" font-family="sans-serif" font-size="13" lengthAdjust="spacing" textLength="98.9917" x="838.9258" y="325.6865">findById(figureId)</text><polygon fill="#181818" points="842.9258,358.2402,832.9258,362.2402,842.9258,366.2402,838.9258,362.2402" style="stroke:#181818;stroke-width:1.0;"/><line style="stroke:#181818;stroke-width:1.0;stroke-dasharray:2.0,2.0;" x1="836.9258" x2="967.8115" y1="362.2402" y2="362.2402"/><text fill="#000000" font-family="sans-serif" font-size="13" lengthAdjust="spacing" textLength="100.4517" x="848.9258" y="356.9775">Optional&lt;Figure&gt;</text><line style="stroke:#000000;stroke-width:1.0;stroke-dasharray:2.0,2.0;" x1="756.626" x2="1243.2314" y1="371.2402" y2="371.2402"/><text fill="#000000" font-family="sans-serif" font-size="11" font-weight="bold" lengthAdjust="spacing" textLength="143.623" x="761.626" y="383.1104">[InMemory Implementation]</text><polygon fill="#181818" points="1124.8145,406.1621,1134.8145,410.1621,1124.8145,414.1621,1128.8145,410.1621" style="stroke:#181818;stroke-width:1.0;"/><line style="stroke:#181818;stroke-width:1.0;" x1="831.9258" x2="1130.8145" y1="410.1621" y2="410.1621"/><text fill="#000000" font-family="sans-serif" font-size="13" lengthAdjust="spacing" textLength="98.9917" x="838.9258" y="404.8994">findById(figureId)</text><polygon fill="#181818" points="842.9258,437.4531,832.9258,441.4531,842.9258,445.4531,838.9258,441.4531" style="stroke:#181818;stroke-width:1.0;"/><line style="stroke:#181818;stroke-width:1.0;stroke-dasharray:2.0,2.0;" x1="836.9258" x2="1140.8145" y1="441.4531" y2="441.4531"/><text fill="#000000" font-family="sans-serif" font-size="13" lengthAdjust="spacing" textLength="100.4517" x="848.9258" y="436.1904">Optional&lt;Figure&gt;</text><polygon fill="#181818" points="647.8159,475.7441,637.8159,479.7441,647.8159,483.7441,643.8159,479.7441" style="stroke:#181818;stroke-width:1.0;"/><line style="stroke:#181818;stroke-width:1.0;stroke-dasharray:2.0,2.0;" x1="641.8159" x2="825.9258" y1="479.7441" y2="479.7441"/><text fill="#000000" font-family="sans-serif" font-size="13" lengthAdjust="spacing" textLength="100.4517" x="653.8159" y="474.4814">Optional&lt;Figure&gt;</text><line style="stroke:#181818;stroke-width:1.0;" x1="636.8159" x2="683.8159" y1="506.0352" y2="506.0352"/><line style="stroke:#181818;stroke-width:1.0;" x1="683.8159" x2="683.8159" y1="506.0352" y2="519.0352"/><line style="stroke:#181818;stroke-width:1.0;" x1="642.8159" x2="683.8159" y1="519.0352" y2="519.0352"/><polygon fill="#181818" points="652.8159,515.0352,642.8159,519.0352,652.8159,523.0352,648.8159,519.0352" style="stroke:#181818;stroke-width:1.0;"/><text fill="#000000" font-family="sans-serif" font-size="13" lengthAdjust="spacing" textLength="161.1099" x="648.8159" y="500.7725">decommissionFigure(figure)</text><line style="stroke:#181818;stroke-width:1.0;stroke-dasharray:2.0,2.0;" x1="641.8159" x2="683.8159" y1="560.3262" y2="560.3262"/><line style="stroke:#181818;stroke-width:1.0;stroke-dasharray:2.0,2.0;" x1="683.8159" x2="683.8159" y1="560.3262" y2="573.3262"/><line style="stroke:#181818;stroke-width:1.0;stroke-dasharray:2.0,2.0;" x1="636.8159" x2="683.8159" y1="573.3262" y2="573.3262"/><polygon fill="#181818" points="646.8159,569.3262,636.8159,573.3262,646.8159,577.3262,642.8159,573.3262" style="stroke:#181818;stroke-width:1.0;"/><text fill="#000000" font-family="sans-serif" font-size="13" lengthAdjust="spacing" textLength="36.8481" x="648.8159" y="555.0635">Figure</text><polygon fill="#181818" points="809.9258,595.6172,819.9258,599.6172,809.9258,603.6172,813.9258,599.6172" style="stroke:#181818;stroke-width:1.0;"/><line style="stroke:#181818;stroke-width:1.0;" x1="636.8159" x2="815.9258" y1="599.6172" y2="599.6172"/><text fill="#000000" font-family="sans-serif" font-size="13" lengthAdjust="spacing" textLength="68.6372" x="643.8159" y="594.3545">save(figure)</text><path d="M756.626,614.6172 L816.7969,614.6172 L816.7969,623.9082 L806.7969,633.9082 L756.626,633.9082 L756.626,614.6172 " fill="#EEEEEE" style="stroke:#000000;stroke-width:1.5;"/><rect fill="none" height="161.0859" style="stroke:#000000;stroke-width:1.5;" width="486.6055" x="756.626" y="614.6172"/><text fill="#000000" font-family="sans-serif" font-size="13" font-weight="bold" lengthAdjust="spacing" textLength="15.1709" x="771.626" y="629.6455">alt</text><text fill="#000000" font-family="sans-serif" font-size="11" font-weight="bold" lengthAdjust="spacing" textLength="113.0669" x="831.7969" y="628.4873">[JPA Implementation]</text><polygon fill="#181818" points="951.8115,653.1992,961.8115,657.1992,951.8115,661.1992,955.8115,657.1992" style="stroke:#181818;stroke-width:1.0;"/><line style="stroke:#181818;stroke-width:1.0;" x1="831.9258" x2="957.8115" y1="657.1992" y2="657.1992"/><text fill="#000000" font-family="sans-serif" font-size="13" lengthAdjust="spacing" textLength="68.6372" x="838.9258" y="651.9365">save(figure)</text><polygon fill="#181818" points="842.9258,684.4902,832.9258,688.4902,842.9258,692.4902,838.9258,688.4902" style="stroke:#181818;stroke-width:1.0;"/><line style="stroke:#181818;stroke-width:1.0;stroke-dasharray:2.0,2.0;" x1="836.9258" x2="967.8115" y1="688.4902" y2="688.4902"/><text fill="#000000" font-family="sans-serif" font-size="13" lengthAdjust="spacing" textLength="36.8481" x="848.9258" y="683.2275">Figure</text><line style="stroke:#000000;stroke-width:1.0;stroke-dasharray:2.0,2.0;" x1="756.626" x2="1243.2314" y1="697.4902" y2="697.4902"/><text fill="#000000" font-family="sans-serif" font-size="11" font-weight="bold" lengthAdjust="spacing" textLength="143.623" x="761.626" y="709.3604">[InMemory Implementation]</text><polygon fill="#181818" points="1124.8145,732.4121,1134.8145,736.4121,1124.8145,740.4121,1128.8145,736.4121" style="stroke:#181818;stroke-width:1.0;"/><line style="stroke:#181818;stroke-width:1.0;" x1="831.9258" x2="1130.8145" y1="736.4121" y2="736.4121"/><text fill="#000000" font-family="sans-serif" font-size="13" lengthAdjust="spacing" textLength="68.6372" x="838.9258" y="731.1494">save(figure)</text><polygon fill="#181818" points="842.9258,763.7031,832.9258,767.7031,842.9258,771.7031,838.9258,767.7031" style="stroke:#181818;stroke-width:1.0;"/><line style="stroke:#181818;stroke-width:1.0;stroke-dasharray:2.0,2.0;" x1="836.9258" x2="1140.8145" y1="767.7031" y2="767.7031"/><text fill="#000000" font-family="sans-serif" font-size="13" lengthAdjust="spacing" textLength="36.8481" x="848.9258" y="762.4404">Figure</text><polygon fill="#181818" points="647.8159,801.9941,637.8159,805.9941,647.8159,809.9941,643.8159,805.9941" style="stroke:#181818;stroke-width:1.0;"/><line style="stroke:#181818;stroke-width:1.0;stroke-dasharray:2.0,2.0;" x1="641.8159" x2="825.9258" y1="805.9941" y2="805.9941"/><text fill="#000000" font-family="sans-serif" font-size="13" lengthAdjust="spacing" textLength="36.8481" x="653.8159" y="800.7314">Figure</text><polygon fill="#181818" points="446.8643,833.2852,436.8643,837.2852,446.8643,841.2852,442.8643,837.2852" style="stroke:#181818;stroke-width:1.0;"/><line style="stroke:#181818;stroke-width:1.0;stroke-dasharray:2.0,2.0;" x1="440.8643" x2="630.8159" y1="837.2852" y2="837.2852"/><text fill="#000000" font-family="sans-serif" font-size="13" lengthAdjust="spacing" textLength="36.8481" x="452.8643" y="832.0225">Figure</text><polygon fill="#181818" points="245.9126,864.5762,235.9126,868.5762,245.9126,872.5762,241.9126,868.5762" style="stroke:#181818;stroke-width:1.0;"/><line style="stroke:#181818;stroke-width:1.0;stroke-dasharray:2.0,2.0;" x1="239.9126" x2="429.8643" y1="868.5762" y2="868.5762"/><text fill="#000000" font-family="sans-serif" font-size="13" lengthAdjust="spacing" textLength="36.8481" x="251.9126" y="863.3135">Figure</text><line style="stroke:#181818;stroke-width:1.0;" x1="234.9126" x2="276.9126" y1="899.8672" y2="899.8672"/><line style="stroke:#181818;stroke-width:1.0;" x1="276.9126" x2="276.9126" y1="899.8672" y2="912.8672"/><line style="stroke:#181818;stroke-width:1.0;" x1="235.9126" x2="276.9126" y1="912.8672" y2="912.8672"/><polygon fill="#181818" points="245.9126,908.8672,235.9126,912.8672,245.9126,916.8672,241.9126,912.8672" style="stroke:#181818;stroke-width:1.0;"/><text fill="#000000" font-family="sans-serif" font-size="13" lengthAdjust="spacing" textLength="151.0044" x="241.9126" y="894.6045">displaySuccessMessage()</text><polygon fill="#181818" points="64.5137,940.1582,54.5137,944.1582,64.5137,948.1582,60.5137,944.1582" style="stroke:#181818;stroke-width:1.0;"/><line style="stroke:#181818;stroke-width:1.0;stroke-dasharray:2.0,2.0;" x1="58.5137" x2="228.9126" y1="944.1582" y2="944.1582"/><text fill="#000000" font-family="sans-serif" font-size="13" lengthAdjust="spacing" textLength="147.3989" x="70.5137" y="938.8955">display success message</text><!--SRC=[hLJRQkCm47tNLuWyPQ7T3mXBmTkckowuAGwXZqLOarQBBHd9pf9-_OukTfLOJHhOG19TpepEd3CCgpgbwUosB6Z197i5FQFCqCQlISjq9ohHCjdHsHrKgcc4CKB9U_7QQzZa3jsBGw2_l5MoqwgkGyfgtAR0Qz0xKO536hzEmKfebH58UU-G6hU7i8UM9P5_MbPEmBaie454CgA1PXgHzTsRqkATTQX1p9dXnJiXGJTwVOEYBAXvKt_dtmYhEh5Z7LYXI2_ixOSQ2yedkiwtxY_dKMoa7_bOsrn1hwyc6kGbOM5JEFeB2j8WsXO94ej6DDyWwZSpcToljlDIrM2-PtT5_dX5_UPfzRmiNpRhPJcSO2-z5DbZzcjPHgzwWTmllOv9io0fSCBX21vJj5ulw5P8_dEVyrHXhXi8gplwy9JHl6bhQB0EvnMX-B40coeqGpARnOqPXwwnXs7jo7ikgzPcPlKFh_MDWqKr3D5G6w13hvtY5LhkFA-XD-rXM5_0QuW6oGdHG-neo2Gy2lKIHwwSxxr4vutnSG8V53-MQbHVeM6xHFhB_J_8Su7pWUj_y_jp7gUTJlCuu-zKw2DNZyRJ2MFYEHH6tXGT3ou__2oE2zFMRB_kgmgCAV2BWnDdfKLOQVmW7N7KU20Mvv3n0pXL_m40]--></g></svg>