<svg xmlns="http://www.w3.org/2000/svg" xmlns:xlink="http://www.w3.org/1999/xlink" contentStyleType="text/css" height="719px" preserveAspectRatio="none" style="width:1240px;height:719px;background:#FFFFFF;" version="1.1" viewBox="0 0 1240 719" width="1240px" zoomAndPan="magnify"><defs/><g><rect fill="#FFFFFF" height="500.9961" style="stroke:#181818;stroke-width:1.0;" width="10" x="214.396" y="116.9121"/><rect fill="#FFFFFF" height="394.123" style="stroke:#181818;stroke-width:1.0;" width="10" x="382.0986" y="148.2031"/><rect fill="#FFFFFF" height="331.541" style="stroke:#181818;stroke-width:1.0;" width="10" x="511.5249" y="179.4941"/><rect fill="#FFFFFF" height="206.377" style="stroke:#181818;stroke-width:1.0;" width="10" x="640.9512" y="273.3672"/><rect fill="#FFFFFF" height="31.291" style="stroke:#181818;stroke-width:1.0;" width="10" x="782.8369" y="330.9492"/><rect fill="#FFFFFF" height="31.291" style="stroke:#181818;stroke-width:1.0;" width="10" x="955.8398" y="410.1621"/><rect fill="#FFFFFF" height="31.291" style="stroke:#181818;stroke-width:1.0;" width="10" x="1158.2153" y="210.7852"/><rect fill="none" height="161.0859" style="stroke:#000000;stroke-width:1.5;" width="486.6055" x="575.6514" y="288.3672"/><line style="stroke:#181818;stroke-width:0.5;stroke-dasharray:5.0,5.0;" x1="64" x2="64" y1="83.6211" y2="635.9082"/><line style="stroke:#181818;stroke-width:0.5;stroke-dasharray:5.0,5.0;" x1="219.0342" x2="219.0342" y1="83.6211" y2="635.9082"/><line style="stroke:#181818;stroke-width:0.5;stroke-dasharray:5.0,5.0;" x1="386.9126" x2="386.9126" y1="83.6211" y2="635.9082"/><line style="stroke:#181818;stroke-width:0.5;stroke-dasharray:5.0,5.0;" x1="516.3423" x2="516.3423" y1="83.6211" y2="635.9082"/><line style="stroke:#181818;stroke-width:0.5;stroke-dasharray:5.0,5.0;" x1="645.6514" x2="645.6514" y1="83.6211" y2="635.9082"/><line style="stroke:#181818;stroke-width:0.5;stroke-dasharray:5.0,5.0;" x1="787.251" x2="787.251" y1="83.6211" y2="635.9082"/><line style="stroke:#181818;stroke-width:0.5;stroke-dasharray:5.0,5.0;" x1="960.4229" x2="960.4229" y1="83.6211" y2="635.9082"/><line style="stroke:#181818;stroke-width:0.5;stroke-dasharray:5.0,5.0;" x1="1163.0156" x2="1163.0156" y1="83.6211" y2="635.9082"/><text fill="#000000" font-family="sans-serif" font-size="14" lengthAdjust="spacing" textLength="112.0342" x="5" y="80.1074">CRM Collaborator</text><ellipse cx="64.0171" cy="13.5" fill="#E2E2F0" rx="8" ry="8" style="stroke:#181818;stroke-width:0.5;"/><path d="M64.0171,21.5 L64.0171,48.5 M51.0171,29.5 L77.0171,29.5 M64.0171,48.5 L51.0171,63.5 M64.0171,48.5 L77.0171,63.5 " fill="none" style="stroke:#181818;stroke-width:0.5;"/><text fill="#000000" font-family="sans-serif" font-size="14" lengthAdjust="spacing" textLength="112.0342" x="5" y="650.0156">CRM Collaborator</text><ellipse cx="64.0171" cy="662.0293" fill="#E2E2F0" rx="8" ry="8" style="stroke:#181818;stroke-width:0.5;"/><path d="M64.0171,670.0293 L64.0171,697.0293 M51.0171,678.0293 L77.0171,678.0293 M64.0171,697.0293 L51.0171,712.0293 M64.0171,697.0293 L77.0171,712.0293 " fill="none" style="stroke:#181818;stroke-width:0.5;"/><rect fill="#E2E2F0" height="32.6211" rx="2.5" ry="2.5" style="stroke:#181818;stroke-width:0.5;" width="172.7236" x="133.0342" y="50"/><text fill="#000000" font-family="sans-serif" font-size="14" lengthAdjust="spacing" textLength="158.7236" x="140.0342" y="72.1074">ListActivePublicFiguresUI</text><rect fill="#E2E2F0" height="32.6211" rx="2.5" ry="2.5" style="stroke:#181818;stroke-width:0.5;" width="172.7236" x="133.0342" y="634.9082"/><text fill="#000000" font-family="sans-serif" font-size="14" lengthAdjust="spacing" textLength="158.7236" x="140.0342" y="657.0156">ListActivePublicFiguresUI</text><rect fill="#E2E2F0" height="32.6211" rx="2.5" ry="2.5" style="stroke:#181818;stroke-width:0.5;" width="114.3721" x="329.9126" y="50"/><text fill="#000000" font-family="sans-serif" font-size="14" lengthAdjust="spacing" textLength="100.3721" x="336.9126" y="72.1074">FigureController</text><rect fill="#E2E2F0" height="32.6211" rx="2.5" ry="2.5" style="stroke:#181818;stroke-width:0.5;" width="114.3721" x="329.9126" y="634.9082"/><text fill="#000000" font-family="sans-serif" font-size="14" lengthAdjust="spacing" textLength="100.3721" x="336.9126" y="657.0156">FigureController</text><rect fill="#E2E2F0" height="32.6211" rx="2.5" ry="2.5" style="stroke:#181818;stroke-width:0.5;" width="100.3652" x="466.3423" y="50"/><text fill="#000000" font-family="sans-serif" font-size="14" lengthAdjust="spacing" textLength="86.3652" x="473.3423" y="72.1074">FigureService</text><rect fill="#E2E2F0" height="32.6211" rx="2.5" ry="2.5" style="stroke:#181818;stroke-width:0.5;" width="100.3652" x="466.3423" y="634.9082"/><text fill="#000000" font-family="sans-serif" font-size="14" lengthAdjust="spacing" textLength="86.3652" x="473.3423" y="657.0156">FigureService</text><rect fill="#E2E2F0" height="32.6211" rx="2.5" ry="2.5" style="stroke:#181818;stroke-width:0.5;" width="120.5996" x="585.6514" y="50"/><text fill="#000000" font-family="sans-serif" font-size="14" lengthAdjust="spacing" textLength="106.5996" x="592.6514" y="72.1074">FigureRepository</text><rect fill="#E2E2F0" height="32.6211" rx="2.5" ry="2.5" style="stroke:#181818;stroke-width:0.5;" width="120.5996" x="585.6514" y="634.9082"/><text fill="#000000" font-family="sans-serif" font-size="14" lengthAdjust="spacing" textLength="106.5996" x="592.6514" y="657.0156">FigureRepository</text><rect fill="#E2E2F0" height="32.6211" rx="2.5" ry="2.5" style="stroke:#181818;stroke-width:0.5;" width="143.1719" x="716.251" y="50"/><text fill="#000000" font-family="sans-serif" font-size="14" lengthAdjust="spacing" textLength="129.1719" x="723.251" y="72.1074">JpaFigureRepository</text><rect fill="#E2E2F0" height="32.6211" rx="2.5" ry="2.5" style="stroke:#181818;stroke-width:0.5;" width="143.1719" x="716.251" y="634.9082"/><text fill="#000000" font-family="sans-serif" font-size="14" lengthAdjust="spacing" textLength="129.1719" x="723.251" y="657.0156">JpaFigureRepository</text><rect fill="#E2E2F0" height="32.6211" rx="2.5" ry="2.5" style="stroke:#181818;stroke-width:0.5;" width="182.834" x="869.4229" y="50"/><text fill="#000000" font-family="sans-serif" font-size="14" lengthAdjust="spacing" textLength="168.834" x="876.4229" y="72.1074">InMemoryFigureRepository</text><rect fill="#E2E2F0" height="32.6211" rx="2.5" ry="2.5" style="stroke:#181818;stroke-width:0.5;" width="182.834" x="869.4229" y="634.9082"/><text fill="#000000" font-family="sans-serif" font-size="14" lengthAdjust="spacing" textLength="168.834" x="876.4229" y="657.0156">InMemoryFigureRepository</text><rect fill="#E2E2F0" height="32.6211" rx="2.5" ry="2.5" style="stroke:#181818;stroke-width:0.5;" width="142.3994" x="1092.0156" y="50"/><text fill="#000000" font-family="sans-serif" font-size="14" lengthAdjust="spacing" textLength="128.3994" x="1099.0156" y="72.1074">AuthorizationService</text><rect fill="#E2E2F0" height="32.6211" rx="2.5" ry="2.5" style="stroke:#181818;stroke-width:0.5;" width="142.3994" x="1092.0156" y="634.9082"/><text fill="#000000" font-family="sans-serif" font-size="14" lengthAdjust="spacing" textLength="128.3994" x="1099.0156" y="657.0156">AuthorizationService</text><rect fill="#FFFFFF" height="500.9961" style="stroke:#181818;stroke-width:1.0;" width="10" x="214.396" y="116.9121"/><rect fill="#FFFFFF" height="394.123" style="stroke:#181818;stroke-width:1.0;" width="10" x="382.0986" y="148.2031"/><rect fill="#FFFFFF" height="331.541" style="stroke:#181818;stroke-width:1.0;" width="10" x="511.5249" y="179.4941"/><rect fill="#FFFFFF" height="206.377" style="stroke:#181818;stroke-width:1.0;" width="10" x="640.9512" y="273.3672"/><rect fill="#FFFFFF" height="31.291" style="stroke:#181818;stroke-width:1.0;" width="10" x="782.8369" y="330.9492"/><rect fill="#FFFFFF" height="31.291" style="stroke:#181818;stroke-width:1.0;" width="10" x="955.8398" y="410.1621"/><rect fill="#FFFFFF" height="31.291" style="stroke:#181818;stroke-width:1.0;" width="10" x="1158.2153" y="210.7852"/><polygon fill="#181818" points="202.396,112.9121,212.396,116.9121,202.396,120.9121,206.396,116.9121" style="stroke:#181818;stroke-width:1.0;"/><line style="stroke:#181818;stroke-width:1.0;" x1="64.0171" x2="208.396" y1="116.9121" y2="116.9121"/><text fill="#000000" font-family="sans-serif" font-size="13" lengthAdjust="spacing" textLength="39.0063" x="71.0171" y="111.6494">show()</text><polygon fill="#181818" points="370.0986,144.2031,380.0986,148.2031,370.0986,152.2031,374.0986,148.2031" style="stroke:#181818;stroke-width:1.0;"/><line style="stroke:#181818;stroke-width:1.0;" x1="224.396" x2="376.0986" y1="148.2031" y2="148.2031"/><text fill="#000000" font-family="sans-serif" font-size="13" lengthAdjust="spacing" textLength="138.7026" x="231.396" y="142.9404">listActivePublicFigures()</text><polygon fill="#181818" points="499.5249,175.4941,509.5249,179.4941,499.5249,183.4941,503.5249,179.4941" style="stroke:#181818;stroke-width:1.0;"/><line style="stroke:#181818;stroke-width:1.0;" x1="392.0986" x2="505.5249" y1="179.4941" y2="179.4941"/><text fill="#000000" font-family="sans-serif" font-size="13" lengthAdjust="spacing" textLength="100.4263" x="399.0986" y="174.2314">findActivePublic()</text><polygon fill="#181818" points="1146.2153,206.7852,1156.2153,210.7852,1146.2153,214.7852,1150.2153,210.7852" style="stroke:#181818;stroke-width:1.0;"/><line style="stroke:#181818;stroke-width:1.0;" x1="521.5249" x2="1152.2153" y1="210.7852" y2="210.7852"/><text fill="#000000" font-family="sans-serif" font-size="13" lengthAdjust="spacing" textLength="617.6904" x="528.5249" y="205.5225">ensureAuthenticatedUserHasAnyOf(Roles.ADMIN, Roles.POWER_USER, Roles.CRM_COLLABORATOR)</text><polygon fill="#181818" points="532.5249,238.0762,522.5249,242.0762,532.5249,246.0762,528.5249,242.0762" style="stroke:#181818;stroke-width:1.0;"/><line style="stroke:#181818;stroke-width:1.0;stroke-dasharray:2.0,2.0;" x1="526.5249" x2="1162.2153" y1="242.0762" y2="242.0762"/><text fill="#000000" font-family="sans-serif" font-size="13" lengthAdjust="spacing" textLength="60.709" x="538.5249" y="236.8135">authorized</text><polygon fill="#181818" points="628.9512,269.3672,638.9512,273.3672,628.9512,277.3672,632.9512,273.3672" style="stroke:#181818;stroke-width:1.0;"/><line style="stroke:#181818;stroke-width:1.0;" x1="521.5249" x2="634.9512" y1="273.3672" y2="273.3672"/><text fill="#000000" font-family="sans-serif" font-size="13" lengthAdjust="spacing" textLength="100.4263" x="528.5249" y="268.1045">findActivePublic()</text><path d="M575.6514,288.3672 L635.8223,288.3672 L635.8223,297.6582 L625.8223,307.6582 L575.6514,307.6582 L575.6514,288.3672 " fill="#EEEEEE" style="stroke:#000000;stroke-width:1.5;"/><rect fill="none" height="161.0859" style="stroke:#000000;stroke-width:1.5;" width="486.6055" x="575.6514" y="288.3672"/><text fill="#000000" font-family="sans-serif" font-size="13" font-weight="bold" lengthAdjust="spacing" textLength="15.1709" x="590.6514" y="303.3955">alt</text><text fill="#000000" font-family="sans-serif" font-size="11" font-weight="bold" lengthAdjust="spacing" textLength="113.0669" x="650.8223" y="302.2373">[JPA Implementation]</text><polygon fill="#181818" points="770.8369,326.9492,780.8369,330.9492,770.8369,334.9492,774.8369,330.9492" style="stroke:#181818;stroke-width:1.0;"/><line style="stroke:#181818;stroke-width:1.0;" x1="650.9512" x2="776.8369" y1="330.9492" y2="330.9492"/><text fill="#000000" font-family="sans-serif" font-size="13" lengthAdjust="spacing" textLength="100.4263" x="657.9512" y="325.6865">findActivePublic()</text><polygon fill="#181818" points="661.9512,358.2402,651.9512,362.2402,661.9512,366.2402,657.9512,362.2402" style="stroke:#181818;stroke-width:1.0;"/><line style="stroke:#181818;stroke-width:1.0;stroke-dasharray:2.0,2.0;" x1="655.9512" x2="786.8369" y1="362.2402" y2="362.2402"/><text fill="#000000" font-family="sans-serif" font-size="13" lengthAdjust="spacing" textLength="95.3926" x="667.9512" y="356.9775">Iterable&lt;Figure&gt;</text><line style="stroke:#000000;stroke-width:1.0;stroke-dasharray:2.0,2.0;" x1="575.6514" x2="1062.2568" y1="371.2402" y2="371.2402"/><text fill="#000000" font-family="sans-serif" font-size="11" font-weight="bold" lengthAdjust="spacing" textLength="143.623" x="580.6514" y="383.1104">[InMemory Implementation]</text><polygon fill="#181818" points="943.8398,406.1621,953.8398,410.1621,943.8398,414.1621,947.8398,410.1621" style="stroke:#181818;stroke-width:1.0;"/><line style="stroke:#181818;stroke-width:1.0;" x1="650.9512" x2="949.8398" y1="410.1621" y2="410.1621"/><text fill="#000000" font-family="sans-serif" font-size="13" lengthAdjust="spacing" textLength="100.4263" x="657.9512" y="404.8994">findActivePublic()</text><polygon fill="#181818" points="661.9512,437.4531,651.9512,441.4531,661.9512,445.4531,657.9512,441.4531" style="stroke:#181818;stroke-width:1.0;"/><line style="stroke:#181818;stroke-width:1.0;stroke-dasharray:2.0,2.0;" x1="655.9512" x2="959.8398" y1="441.4531" y2="441.4531"/><text fill="#000000" font-family="sans-serif" font-size="13" lengthAdjust="spacing" textLength="95.3926" x="667.9512" y="436.1904">Iterable&lt;Figure&gt;</text><polygon fill="#181818" points="532.5249,475.7441,522.5249,479.7441,532.5249,483.7441,528.5249,479.7441" style="stroke:#181818;stroke-width:1.0;"/><line style="stroke:#181818;stroke-width:1.0;stroke-dasharray:2.0,2.0;" x1="526.5249" x2="644.9512" y1="479.7441" y2="479.7441"/><text fill="#000000" font-family="sans-serif" font-size="13" lengthAdjust="spacing" textLength="95.3926" x="538.5249" y="474.4814">Iterable&lt;Figure&gt;</text><polygon fill="#181818" points="403.0986,507.0352,393.0986,511.0352,403.0986,515.0352,399.0986,511.0352" style="stroke:#181818;stroke-width:1.0;"/><line style="stroke:#181818;stroke-width:1.0;stroke-dasharray:2.0,2.0;" x1="397.0986" x2="515.5249" y1="511.0352" y2="511.0352"/><text fill="#000000" font-family="sans-serif" font-size="13" lengthAdjust="spacing" textLength="95.3926" x="409.0986" y="505.7725">Iterable&lt;Figure&gt;</text><polygon fill="#181818" points="235.396,538.3262,225.396,542.3262,235.396,546.3262,231.396,542.3262" style="stroke:#181818;stroke-width:1.0;"/><line style="stroke:#181818;stroke-width:1.0;stroke-dasharray:2.0,2.0;" x1="229.396" x2="386.0986" y1="542.3262" y2="542.3262"/><text fill="#000000" font-family="sans-serif" font-size="13" lengthAdjust="spacing" textLength="95.3926" x="241.396" y="537.0635">Iterable&lt;Figure&gt;</text><line style="stroke:#181818;stroke-width:1.0;" x1="224.396" x2="266.396" y1="573.6172" y2="573.6172"/><line style="stroke:#181818;stroke-width:1.0;" x1="266.396" x2="266.396" y1="573.6172" y2="586.6172"/><line style="stroke:#181818;stroke-width:1.0;" x1="225.396" x2="266.396" y1="586.6172" y2="586.6172"/><polygon fill="#181818" points="235.396,582.6172,225.396,586.6172,235.396,590.6172,231.396,586.6172" style="stroke:#181818;stroke-width:1.0;"/><text fill="#000000" font-family="sans-serif" font-size="13" lengthAdjust="spacing" textLength="131.4917" x="231.396" y="568.3545">displayFigures(figures)</text><polygon fill="#181818" points="75.0171,613.9082,65.0171,617.9082,75.0171,621.9082,71.0171,617.9082" style="stroke:#181818;stroke-width:1.0;"/><line style="stroke:#181818;stroke-width:1.0;stroke-dasharray:2.0,2.0;" x1="69.0171" x2="218.396" y1="617.9082" y2="617.9082"/><text fill="#000000" font-family="sans-serif" font-size="13" lengthAdjust="spacing" textLength="82.3672" x="81.0171" y="612.6455">display results</text><!--SRC=[bLFBJiCm4BpxAwoUG08-e498eO08QaaLg3YYRR858yUER0TKlXu_ujIbKH4v97xCRCRZMQYCL7GoAnTq9Zc7jLHWLoOKDAsI1TA2CgnYBGX39tEcJLOPzedBRirPTSVUEeLwbNjUn_RHONScXL6s8iRYSJe6VaBroIhqI1t6Ox0IMwcPbRVrI6Md-x275aQH7osK1-1SBB2nY556WyqX8-lCkrJi6moJ8jKCTkERaDH1UdvbdPbI_Iw_Jau9EFl0e7EBTCpjxYoPKZxkS4fC72IxiIlKEpQb6oRgj4fAZxQIVk28NlQKej3sP-vmAEnXBRfUMTGzw4niYyr9AJdgY-ncaJ-UqJ1P5Y-tvUlgwRQCApPIhxDYFi-kYp9xBihary4T_wRdgLxe_SIQrFWBdkfq5ttyT3uA1BYX3ykCvatBiR67yHT5g7qSm9Ngap1QpU66YZ4oRh4VU_51IsvGmPhZPRYeAmzBpX3Po3NI6BHZklgy_Qqh1jCjzkD_w8fi53KXAdA72pcW9zHWyN0hlm9yZ3b4Burjtnx7U6dYGyiuHirqos4REsGJlgSUuKNjUd00M_6wuqQdrMqZ_W00]--></g></svg>