<svg xmlns="http://www.w3.org/2000/svg" xmlns:xlink="http://www.w3.org/1999/xlink" contentStyleType="text/css" height="825px" preserveAspectRatio="none" style="width:747px;height:825px;background:#FFFFFF;" version="1.1" viewBox="0 0 747 825" width="747px" zoomAndPan="magnify"><defs/><g><!--cluster Figure Management--><g id="cluster_Figure Management"><path d="M8.5,6.0137 L141.7412,6.0137 A3.75,3.75 0 0 1 144.2412,8.5137 L151.2412,30.6348 L561.5,30.6348 A2.5,2.5 0 0 1 564,33.1348 L564,815.5137 A2.5,2.5 0 0 1 561.5,818.0137 L8.5,818.0137 A2.5,2.5 0 0 1 6,815.5137 L6,8.5137 A2.5,2.5 0 0 1 8.5,6.0137 " fill="none" style="stroke:#000000;stroke-width:1.5;"/><line style="stroke:#000000;stroke-width:1.5;" x1="6" x2="151.2412" y1="30.6348" y2="30.6348"/><text fill="#000000" font-family="sans-serif" font-size="14" font-weight="bold" lengthAdjust="spacing" textLength="132.2412" x="10" y="23.1211">Figure Management</text></g><!--class ListActivePublicFiguresUI--><g id="elem_ListActivePublicFiguresUI"><rect codeLine="3" fill="#F1F1F1" height="103.8633" id="ListActivePublicFiguresUI" rx="2.5" ry="2.5" style="stroke:#181818;stroke-width:0.5;" width="278.1162" x="266" y="80.0137"/><ellipse cx="321.4463" cy="96.0137" fill="#ADD1B2" rx="11" ry="11" style="stroke:#181818;stroke-width:1.0;"/><path d="M324.2119,91.8887 Q324.3682,91.6699 324.5557,91.5605 Q324.7432,91.4512 324.9619,91.4512 Q325.3369,91.4512 325.5713,91.7168 Q325.8057,91.9668 325.8057,92.5762 L325.8057,94.0293 Q325.8057,94.6387 325.5713,94.9043 Q325.3369,95.1699 324.9619,95.1699 Q324.6182,95.1699 324.415,94.9668 Q324.2119,94.7793 324.1025,94.2637 Q324.0557,93.9043 323.8682,93.7168 Q323.54,93.3418 322.9307,93.123 Q322.3213,92.9043 321.6963,92.9043 Q320.9307,92.9043 320.29,93.2324 Q319.665,93.5605 319.165,94.3105 Q318.6807,95.0605 318.6807,96.0918 L318.6807,97.1855 Q318.6807,98.4199 319.5713,99.248 Q320.4619,100.0605 322.0557,100.0605 Q322.9932,100.0605 323.6494,99.8105 Q324.04,99.6543 324.4619,99.2168 Q324.7275,98.9512 324.8682,98.873 Q325.0244,98.7949 325.2275,98.7949 Q325.5557,98.7949 325.8057,99.0605 Q326.0713,99.3105 326.0713,99.6543 Q326.0713,99.998 325.7275,100.4043 Q325.2275,100.9824 324.4307,101.3105 Q323.3525,101.7637 322.0557,101.7637 Q320.54,101.7637 319.3369,101.1387 Q318.3525,100.6387 317.665,99.5762 Q316.9775,98.498 316.9775,97.2168 L316.9775,96.0605 Q316.9775,94.7324 317.5869,93.5918 Q318.2119,92.4355 319.3057,91.8262 Q320.3994,91.2012 321.6338,91.2012 Q322.3682,91.2012 323.0088,91.373 Q323.665,91.5293 324.2119,91.8887 Z " fill="#000000"/><text fill="#000000" font-family="sans-serif" font-size="14" lengthAdjust="spacing" textLength="158.7236" x="341.9463" y="101.8105">ListActivePublicFiguresUI</text><line style="stroke:#181818;stroke-width:0.5;" x1="267" x2="543.1162" y1="112.0137" y2="112.0137"/><rect fill="none" height="6" style="stroke:#C82930;stroke-width:1.0;" width="6" x="274" y="123.8242"/><text fill="#000000" font-family="sans-serif" font-size="14" lengthAdjust="spacing" textLength="165.7305" x="286" y="131.1211">controller: FigureController</text><line style="stroke:#181818;stroke-width:0.5;" x1="267" x2="543.1162" y1="138.6348" y2="138.6348"/><ellipse cx="277" cy="153.4453" fill="#84BE84" rx="3" ry="3" style="stroke:#038048;stroke-width:1.0;"/><text fill="#000000" font-family="sans-serif" font-size="14" lengthAdjust="spacing" textLength="42.0068" x="286" y="157.7422">show()</text><rect fill="#F24D5C" height="6" style="stroke:#C82930;stroke-width:1.0;" width="6" x="274" y="169.0664"/><text fill="#000000" font-family="sans-serif" font-size="14" lengthAdjust="spacing" textLength="252.1162" x="286" y="176.3633">displayFigures(figures: Iterable&lt;Figure&gt;)</text></g><!--class Figure--><g id="elem_Figure"><rect codeLine="9" fill="#F1F1F1" height="178.3477" id="Figure" rx="2.5" ry="2.5" style="stroke:#181818;stroke-width:0.5;" width="162.1719" x="46" y="43.0137"/><ellipse cx="102.9946" cy="59.0137" fill="#ADD1B2" rx="11" ry="11" style="stroke:#181818;stroke-width:1.0;"/><path d="M105.7603,54.8887 Q105.9165,54.6699 106.104,54.5605 Q106.2915,54.4512 106.5103,54.4512 Q106.8853,54.4512 107.1196,54.7168 Q107.354,54.9668 107.354,55.5762 L107.354,57.0293 Q107.354,57.6387 107.1196,57.9043 Q106.8853,58.1699 106.5103,58.1699 Q106.1665,58.1699 105.9634,57.9668 Q105.7603,57.7793 105.6509,57.2637 Q105.604,56.9043 105.4165,56.7168 Q105.0884,56.3418 104.479,56.123 Q103.8696,55.9043 103.2446,55.9043 Q102.479,55.9043 101.8384,56.2324 Q101.2134,56.5605 100.7134,57.3105 Q100.229,58.0605 100.229,59.0918 L100.229,60.1855 Q100.229,61.4199 101.1196,62.248 Q102.0103,63.0605 103.604,63.0605 Q104.5415,63.0605 105.1978,62.8105 Q105.5884,62.6543 106.0103,62.2168 Q106.2759,61.9512 106.4165,61.873 Q106.5728,61.7949 106.7759,61.7949 Q107.104,61.7949 107.354,62.0605 Q107.6196,62.3105 107.6196,62.6543 Q107.6196,62.998 107.2759,63.4043 Q106.7759,63.9824 105.979,64.3105 Q104.9009,64.7637 103.604,64.7637 Q102.0884,64.7637 100.8853,64.1387 Q99.9009,63.6387 99.2134,62.5762 Q98.5259,61.498 98.5259,60.2168 L98.5259,59.0605 Q98.5259,57.7324 99.1353,56.5918 Q99.7603,55.4355 100.854,54.8262 Q101.9478,54.2012 103.1821,54.2012 Q103.9165,54.2012 104.5571,54.373 Q105.2134,54.5293 105.7603,54.8887 Z " fill="#000000"/><text fill="#000000" font-family="sans-serif" font-size="14" lengthAdjust="spacing" textLength="39.6826" x="123.4946" y="64.8105">Figure</text><line style="stroke:#181818;stroke-width:0.5;" x1="47" x2="207.1719" y1="75.0137" y2="75.0137"/><rect fill="none" height="6" style="stroke:#C82930;stroke-width:1.0;" width="6" x="54" y="86.8242"/><text fill="#000000" font-family="sans-serif" font-size="14" lengthAdjust="spacing" textLength="49.8203" x="66" y="94.1211">id: Long</text><rect fill="none" height="6" style="stroke:#C82930;stroke-width:1.0;" width="6" x="54" y="105.4453"/><text fill="#000000" font-family="sans-serif" font-size="14" lengthAdjust="spacing" textLength="112.0547" x="66" y="112.7422">description: String</text><rect fill="none" height="6" style="stroke:#C82930;stroke-width:1.0;" width="6" x="54" y="124.0664"/><text fill="#000000" font-family="sans-serif" font-size="14" lengthAdjust="spacing" textLength="115.1855" x="66" y="131.3633">exclusive: boolean</text><rect fill="none" height="6" style="stroke:#C82930;stroke-width:1.0;" width="6" x="54" y="142.6875"/><text fill="#000000" font-family="sans-serif" font-size="14" lengthAdjust="spacing" textLength="105.8408" x="66" y="149.9844">isActive: boolean</text><line style="stroke:#181818;stroke-width:0.5;" x1="47" x2="207.1719" y1="157.498" y2="157.498"/><ellipse cx="57" cy="172.3086" fill="#84BE84" rx="3" ry="3" style="stroke:#038048;stroke-width:1.0;"/><text fill="#000000" font-family="sans-serif" font-size="14" lengthAdjust="spacing" textLength="115.165" x="66" y="176.6055">isActive(): boolean</text><ellipse cx="57" cy="190.9297" fill="#84BE84" rx="3" ry="3" style="stroke:#038048;stroke-width:1.0;"/><text fill="#000000" font-family="sans-serif" font-size="14" lengthAdjust="spacing" textLength="136.1719" x="66" y="195.2266">isExclusive(): boolean</text><ellipse cx="57" cy="209.5508" fill="#84BE84" rx="3" ry="3" style="stroke:#038048;stroke-width:1.0;"/><text fill="#000000" font-family="sans-serif" font-size="14" lengthAdjust="spacing" textLength="101.9238" x="66" y="213.8477">toString(): String</text></g><!--class FigureController--><g id="elem_FigureController"><rect codeLine="19" fill="#F1F1F1" height="85.2422" id="FigureController" rx="2.5" ry="2.5" style="stroke:#181818;stroke-width:0.5;" width="285.8818" x="262" y="281.0137"/><ellipse cx="350.5049" cy="297.0137" fill="#ADD1B2" rx="11" ry="11" style="stroke:#181818;stroke-width:1.0;"/><path d="M353.2705,292.8887 Q353.4268,292.6699 353.6143,292.5605 Q353.8018,292.4512 354.0205,292.4512 Q354.3955,292.4512 354.6299,292.7168 Q354.8643,292.9668 354.8643,293.5762 L354.8643,295.0293 Q354.8643,295.6387 354.6299,295.9043 Q354.3955,296.1699 354.0205,296.1699 Q353.6768,296.1699 353.4736,295.9668 Q353.2705,295.7793 353.1611,295.2637 Q353.1143,294.9043 352.9268,294.7168 Q352.5986,294.3418 351.9893,294.123 Q351.3799,293.9043 350.7549,293.9043 Q349.9893,293.9043 349.3486,294.2324 Q348.7236,294.5605 348.2236,295.3105 Q347.7393,296.0605 347.7393,297.0918 L347.7393,298.1855 Q347.7393,299.4199 348.6299,300.248 Q349.5205,301.0605 351.1143,301.0605 Q352.0518,301.0605 352.708,300.8105 Q353.0986,300.6543 353.5205,300.2168 Q353.7861,299.9512 353.9268,299.873 Q354.083,299.7949 354.2861,299.7949 Q354.6143,299.7949 354.8643,300.0605 Q355.1299,300.3105 355.1299,300.6543 Q355.1299,300.998 354.7861,301.4043 Q354.2861,301.9824 353.4893,302.3105 Q352.4111,302.7637 351.1143,302.7637 Q349.5986,302.7637 348.3955,302.1387 Q347.4111,301.6387 346.7236,300.5762 Q346.0361,299.498 346.0361,298.2168 L346.0361,297.0605 Q346.0361,295.7324 346.6455,294.5918 Q347.2705,293.4355 348.3643,292.8262 Q349.458,292.2012 350.6924,292.2012 Q351.4268,292.2012 352.0674,292.373 Q352.7236,292.5293 353.2705,292.8887 Z " fill="#000000"/><text fill="#000000" font-family="sans-serif" font-size="14" lengthAdjust="spacing" textLength="100.3721" x="371.0049" y="302.8105">FigureController</text><line style="stroke:#181818;stroke-width:0.5;" x1="263" x2="546.8818" y1="313.0137" y2="313.0137"/><rect fill="none" height="6" style="stroke:#C82930;stroke-width:1.0;" width="6" x="270" y="324.8242"/><text fill="#000000" font-family="sans-serif" font-size="14" lengthAdjust="spacing" textLength="175.8477" x="282" y="332.1211">figureService: FigureService</text><line style="stroke:#181818;stroke-width:0.5;" x1="263" x2="546.8818" y1="339.6348" y2="339.6348"/><ellipse cx="273" cy="354.4453" fill="#84BE84" rx="3" ry="3" style="stroke:#038048;stroke-width:1.0;"/><text fill="#000000" font-family="sans-serif" font-size="14" lengthAdjust="spacing" textLength="259.8818" x="282" y="358.7422">listActivePublicFigures(): Iterable&lt;Figure&gt;</text></g><!--class FigureService--><g id="elem_FigureService"><rect codeLine="24" fill="#F1F1F1" height="103.8633" id="FigureService" rx="2.5" ry="2.5" style="stroke:#181818;stroke-width:0.5;" width="244.6611" x="290.5" y="426.0137"/><ellipse cx="365.3979" cy="442.0137" fill="#ADD1B2" rx="11" ry="11" style="stroke:#181818;stroke-width:1.0;"/><path d="M368.1636,437.8887 Q368.3198,437.6699 368.5073,437.5605 Q368.6948,437.4512 368.9136,437.4512 Q369.2886,437.4512 369.5229,437.7168 Q369.7573,437.9668 369.7573,438.5762 L369.7573,440.0293 Q369.7573,440.6387 369.5229,440.9043 Q369.2886,441.1699 368.9136,441.1699 Q368.5698,441.1699 368.3667,440.9668 Q368.1636,440.7793 368.0542,440.2637 Q368.0073,439.9043 367.8198,439.7168 Q367.4917,439.3418 366.8823,439.123 Q366.2729,438.9043 365.6479,438.9043 Q364.8823,438.9043 364.2417,439.2324 Q363.6167,439.5605 363.1167,440.3105 Q362.6323,441.0605 362.6323,442.0918 L362.6323,443.1855 Q362.6323,444.4199 363.5229,445.248 Q364.4136,446.0605 366.0073,446.0605 Q366.9448,446.0605 367.6011,445.8105 Q367.9917,445.6543 368.4136,445.2168 Q368.6792,444.9512 368.8198,444.873 Q368.9761,444.7949 369.1792,444.7949 Q369.5073,444.7949 369.7573,445.0605 Q370.0229,445.3105 370.0229,445.6543 Q370.0229,445.998 369.6792,446.4043 Q369.1792,446.9824 368.3823,447.3105 Q367.3042,447.7637 366.0073,447.7637 Q364.4917,447.7637 363.2886,447.1387 Q362.3042,446.6387 361.6167,445.5762 Q360.9292,444.498 360.9292,443.2168 L360.9292,442.0605 Q360.9292,440.7324 361.5386,439.5918 Q362.1636,438.4355 363.2573,437.8262 Q364.3511,437.2012 365.5854,437.2012 Q366.3198,437.2012 366.9604,437.373 Q367.6167,437.5293 368.1636,437.8887 Z " fill="#000000"/><text fill="#000000" font-family="sans-serif" font-size="14" lengthAdjust="spacing" textLength="86.3652" x="385.8979" y="447.8105">FigureService</text><line style="stroke:#181818;stroke-width:0.5;" x1="291.5" x2="534.1611" y1="458.0137" y2="458.0137"/><rect fill="none" height="6" style="stroke:#C82930;stroke-width:1.0;" width="6" x="298.5" y="469.8242"/><text fill="#000000" font-family="sans-serif" font-size="14" lengthAdjust="spacing" textLength="142.3994" x="310.5" y="477.1211">repo: FigureRepository</text><rect fill="none" height="6" style="stroke:#C82930;stroke-width:1.0;" width="6" x="298.5" y="488.4453"/><text fill="#000000" font-family="sans-serif" font-size="14" lengthAdjust="spacing" textLength="170.4268" x="310.5" y="495.7422">authz: AuthorizationService</text><line style="stroke:#181818;stroke-width:0.5;" x1="291.5" x2="534.1611" y1="503.2559" y2="503.2559"/><ellipse cx="301.5" cy="518.0664" fill="#84BE84" rx="3" ry="3" style="stroke:#038048;stroke-width:1.0;"/><text fill="#000000" font-family="sans-serif" font-size="14" lengthAdjust="spacing" textLength="218.6611" x="310.5" y="522.3633">findActivePublic(): Iterable&lt;Figure&gt;</text></g><!--class FigureRepository--><g id="elem_FigureRepository"><rect codeLine="30" fill="#F1F1F1" height="66.6211" id="FigureRepository" rx="2.5" ry="2.5" style="stroke:#181818;stroke-width:0.5;" width="244.6611" x="290.5" y="590.0137"/><ellipse cx="355.2808" cy="606.0137" fill="#B4A7E5" rx="11" ry="11" style="stroke:#181818;stroke-width:1.0;"/><path d="M356.2339,602.6543 L356.2339,609.3105 L357.9526,609.3105 Q358.562,609.3105 358.8276,609.5449 Q359.0933,609.7793 359.0933,610.1699 Q359.0933,610.5449 358.8276,610.7793 Q358.562,611.0137 357.9526,611.0137 L352.812,611.0137 Q352.2026,611.0137 351.937,610.7793 Q351.6714,610.5449 351.6714,610.1543 Q351.6714,609.7793 351.937,609.5449 Q352.2026,609.3105 352.812,609.3105 L354.5308,609.3105 L354.5308,602.6543 L352.812,602.6543 Q352.2026,602.6543 351.937,602.4199 Q351.6714,602.1855 351.6714,601.7949 Q351.6714,601.4199 351.937,601.1855 Q352.2026,600.9512 352.812,600.9512 L357.9526,600.9512 Q358.562,600.9512 358.8276,601.1855 Q359.0933,601.4199 359.0933,601.7949 Q359.0933,602.1855 358.8276,602.4199 Q358.562,602.6543 357.9526,602.6543 L356.2339,602.6543 Z " fill="#000000"/><text fill="#000000" font-family="sans-serif" font-size="14" font-style="italic" lengthAdjust="spacing" textLength="106.5996" x="375.7808" y="611.8105">FigureRepository</text><line style="stroke:#181818;stroke-width:0.5;" x1="291.5" x2="534.1611" y1="622.0137" y2="622.0137"/><line style="stroke:#181818;stroke-width:0.5;" x1="291.5" x2="534.1611" y1="630.0137" y2="630.0137"/><ellipse cx="301.5" cy="644.8242" fill="#84BE84" rx="3" ry="3" style="stroke:#038048;stroke-width:1.0;"/><text fill="#000000" font-family="sans-serif" font-size="14" lengthAdjust="spacing" textLength="218.6611" x="310.5" y="649.1211">findActivePublic(): Iterable&lt;Figure&gt;</text></g><!--class JpaFigureRepository--><g id="elem_JpaFigureRepository"><rect codeLine="34" fill="#F1F1F1" height="85.2422" id="JpaFigureRepository" rx="2.5" ry="2.5" style="stroke:#181818;stroke-width:0.5;" width="244.6611" x="22.5" y="717.0137"/><ellipse cx="75.9946" cy="733.0137" fill="#ADD1B2" rx="11" ry="11" style="stroke:#181818;stroke-width:1.0;"/><path d="M78.7603,728.8887 Q78.9165,728.6699 79.104,728.5605 Q79.2915,728.4512 79.5103,728.4512 Q79.8853,728.4512 80.1196,728.7168 Q80.354,728.9668 80.354,729.5762 L80.354,731.0293 Q80.354,731.6387 80.1196,731.9043 Q79.8853,732.1699 79.5103,732.1699 Q79.1665,732.1699 78.9634,731.9668 Q78.7603,731.7793 78.6509,731.2637 Q78.604,730.9043 78.4165,730.7168 Q78.0884,730.3418 77.479,730.123 Q76.8696,729.9043 76.2446,729.9043 Q75.479,729.9043 74.8384,730.2324 Q74.2134,730.5605 73.7134,731.3105 Q73.229,732.0605 73.229,733.0918 L73.229,734.1855 Q73.229,735.4199 74.1196,736.248 Q75.0103,737.0605 76.604,737.0605 Q77.5415,737.0605 78.1978,736.8105 Q78.5884,736.6543 79.0103,736.2168 Q79.2759,735.9512 79.4165,735.873 Q79.5728,735.7949 79.7759,735.7949 Q80.104,735.7949 80.354,736.0605 Q80.6196,736.3105 80.6196,736.6543 Q80.6196,736.998 80.2759,737.4043 Q79.7759,737.9824 78.979,738.3105 Q77.9009,738.7637 76.604,738.7637 Q75.0884,738.7637 73.8853,738.1387 Q72.9009,737.6387 72.2134,736.5762 Q71.5259,735.498 71.5259,734.2168 L71.5259,733.0605 Q71.5259,731.7324 72.1353,730.5918 Q72.7603,729.4355 73.854,728.8262 Q74.9478,728.2012 76.1821,728.2012 Q76.9165,728.2012 77.5571,728.373 Q78.2134,728.5293 78.7603,728.8887 Z " fill="#000000"/><text fill="#000000" font-family="sans-serif" font-size="14" lengthAdjust="spacing" textLength="129.1719" x="96.4946" y="738.8105">JpaFigureRepository</text><line style="stroke:#181818;stroke-width:0.5;" x1="23.5" x2="266.1611" y1="749.0137" y2="749.0137"/><rect fill="none" height="6" style="stroke:#C82930;stroke-width:1.0;" width="6" x="30.5" y="760.8242"/><text fill="#000000" font-family="sans-serif" font-size="14" lengthAdjust="spacing" textLength="186.7646" x="42.5" y="768.1211">entityManager: EntityManager</text><line style="stroke:#181818;stroke-width:0.5;" x1="23.5" x2="266.1611" y1="775.6348" y2="775.6348"/><ellipse cx="33.5" cy="790.4453" fill="#84BE84" rx="3" ry="3" style="stroke:#038048;stroke-width:1.0;"/><text fill="#000000" font-family="sans-serif" font-size="14" lengthAdjust="spacing" textLength="218.6611" x="42.5" y="794.7422">findActivePublic(): Iterable&lt;Figure&gt;</text></g><!--class InMemoryFigureRepository--><g id="elem_InMemoryFigureRepository"><rect codeLine="39" fill="#F1F1F1" height="85.2422" id="InMemoryFigureRepository" rx="2.5" ry="2.5" style="stroke:#181818;stroke-width:0.5;" width="244.6611" x="302.5" y="717.0137"/><ellipse cx="337.2222" cy="733.0137" fill="#ADD1B2" rx="11" ry="11" style="stroke:#181818;stroke-width:1.0;"/><path d="M339.9878,728.8887 Q340.1441,728.6699 340.3316,728.5605 Q340.5191,728.4512 340.7378,728.4512 Q341.1128,728.4512 341.3472,728.7168 Q341.5816,728.9668 341.5816,729.5762 L341.5816,731.0293 Q341.5816,731.6387 341.3472,731.9043 Q341.1128,732.1699 340.7378,732.1699 Q340.3941,732.1699 340.191,731.9668 Q339.9878,731.7793 339.8785,731.2637 Q339.8316,730.9043 339.6441,730.7168 Q339.316,730.3418 338.7066,730.123 Q338.0972,729.9043 337.4722,729.9043 Q336.7066,729.9043 336.066,730.2324 Q335.441,730.5605 334.941,731.3105 Q334.4566,732.0605 334.4566,733.0918 L334.4566,734.1855 Q334.4566,735.4199 335.3472,736.248 Q336.2378,737.0605 337.8316,737.0605 Q338.7691,737.0605 339.4253,736.8105 Q339.816,736.6543 340.2378,736.2168 Q340.5035,735.9512 340.6441,735.873 Q340.8003,735.7949 341.0035,735.7949 Q341.3316,735.7949 341.5816,736.0605 Q341.8472,736.3105 341.8472,736.6543 Q341.8472,736.998 341.5035,737.4043 Q341.0035,737.9824 340.2066,738.3105 Q339.1285,738.7637 337.8316,738.7637 Q336.316,738.7637 335.1128,738.1387 Q334.1285,737.6387 333.441,736.5762 Q332.7535,735.498 332.7535,734.2168 L332.7535,733.0605 Q332.7535,731.7324 333.3628,730.5918 Q333.9878,729.4355 335.0816,728.8262 Q336.1753,728.2012 337.4097,728.2012 Q338.1441,728.2012 338.7847,728.373 Q339.441,728.5293 339.9878,728.8887 Z " fill="#000000"/><text fill="#000000" font-family="sans-serif" font-size="14" lengthAdjust="spacing" textLength="168.834" x="355.6049" y="738.8105">InMemoryFigureRepository</text><line style="stroke:#181818;stroke-width:0.5;" x1="303.5" x2="546.1611" y1="749.0137" y2="749.0137"/><rect fill="none" height="6" style="stroke:#C82930;stroke-width:1.0;" width="6" x="310.5" y="760.8242"/><text fill="#000000" font-family="sans-serif" font-size="14" lengthAdjust="spacing" textLength="126.8477" x="322.5" y="768.1211">figures: Set&lt;Figure&gt;</text><line style="stroke:#181818;stroke-width:0.5;" x1="303.5" x2="546.1611" y1="775.6348" y2="775.6348"/><ellipse cx="313.5" cy="790.4453" fill="#84BE84" rx="3" ry="3" style="stroke:#038048;stroke-width:1.0;"/><text fill="#000000" font-family="sans-serif" font-size="14" lengthAdjust="spacing" textLength="218.6611" x="322.5" y="794.7422">findActivePublic(): Iterable&lt;Figure&gt;</text></g><!--class AuthorizationService--><g id="elem_AuthorizationService"><rect fill="#F1F1F1" height="48" id="AuthorizationService" rx="2.5" ry="2.5" style="stroke:#181818;stroke-width:0.5;" width="160.3994" x="580" y="599.5137"/><ellipse cx="595" cy="615.5137" fill="#ADD1B2" rx="11" ry="11" style="stroke:#181818;stroke-width:1.0;"/><path d="M597.7656,611.3887 Q597.9219,611.1699 598.1094,611.0605 Q598.2969,610.9512 598.5156,610.9512 Q598.8906,610.9512 599.125,611.2168 Q599.3594,611.4668 599.3594,612.0762 L599.3594,613.5293 Q599.3594,614.1387 599.125,614.4043 Q598.8906,614.6699 598.5156,614.6699 Q598.1719,614.6699 597.9688,614.4668 Q597.7656,614.2793 597.6563,613.7637 Q597.6094,613.4043 597.4219,613.2168 Q597.0938,612.8418 596.4844,612.623 Q595.875,612.4043 595.25,612.4043 Q594.4844,612.4043 593.8438,612.7324 Q593.2188,613.0605 592.7188,613.8105 Q592.2344,614.5605 592.2344,615.5918 L592.2344,616.6855 Q592.2344,617.9199 593.125,618.748 Q594.0156,619.5605 595.6094,619.5605 Q596.5469,619.5605 597.2031,619.3105 Q597.5938,619.1543 598.0156,618.7168 Q598.2813,618.4512 598.4219,618.373 Q598.5781,618.2949 598.7813,618.2949 Q599.1094,618.2949 599.3594,618.5605 Q599.625,618.8105 599.625,619.1543 Q599.625,619.498 599.2813,619.9043 Q598.7813,620.4824 597.9844,620.8105 Q596.9063,621.2637 595.6094,621.2637 Q594.0938,621.2637 592.8906,620.6387 Q591.9063,620.1387 591.2188,619.0762 Q590.5313,617.998 590.5313,616.7168 L590.5313,615.5605 Q590.5313,614.2324 591.1406,613.0918 Q591.7656,611.9355 592.8594,611.3262 Q593.9531,610.7012 595.1875,610.7012 Q595.9219,610.7012 596.5625,610.873 Q597.2188,611.0293 597.7656,611.3887 Z " fill="#000000"/><text fill="#000000" font-family="sans-serif" font-size="14" lengthAdjust="spacing" textLength="128.3994" x="609" y="621.3105">AuthorizationService</text><line style="stroke:#181818;stroke-width:0.5;" x1="581" x2="739.3994" y1="631.5137" y2="631.5137"/><line style="stroke:#181818;stroke-width:0.5;" x1="581" x2="739.3994" y1="639.5137" y2="639.5137"/></g><!--link ListActivePublicFiguresUI to FigureController--><g id="link_ListActivePublicFiguresUI_FigureController"><path codeLine="45" d="M405,184.2937 C405,214.5437 405,246.3537 405,274.7737 " fill="none" id="ListActivePublicFiguresUI-to-FigureController" style="stroke:#181818;stroke-width:1.0;"/><polygon fill="#181818" points="405,280.7737,409,271.7737,405,275.7737,401,271.7737,405,280.7737" style="stroke:#181818;stroke-width:1.0;"/></g><!--link FigureController to FigureService--><g id="link_FigureController_FigureService"><path codeLine="46" d="M407.19,366.1837 C408.15,384.6137 408.9851,400.4719 410.0051,419.8819 " fill="none" id="FigureController-to-FigureService" style="stroke:#181818;stroke-width:1.0;"/><polygon fill="#181818" points="410.32,425.8737,413.8422,416.6762,410.0576,420.8806,405.8532,417.096,410.32,425.8737" style="stroke:#181818;stroke-width:1.0;"/></g><!--link FigureService to FigureRepository--><g id="link_FigureService_FigureRepository"><path codeLine="47" d="M413,530.4137 C413,550.2037 413,566.2337 413,583.7837 " fill="none" id="FigureService-to-FigureRepository" style="stroke:#181818;stroke-width:1.0;"/><polygon fill="#181818" points="413,589.7837,417,580.7837,413,584.7837,409,580.7837,413,589.7837" style="stroke:#181818;stroke-width:1.0;"/></g><!--link FigureService to AuthorizationService--><g id="link_FigureService_AuthorizationService"><path codeLine="48" d="M501.13,530.2137 C541.86,553.8737 583.0126,577.7786 615.0826,596.4186 " fill="none" id="FigureService-to-AuthorizationService" style="stroke:#181818;stroke-width:1.0;"/><polygon fill="#181818" points="620.27,599.4337,614.4989,591.4528,615.9472,596.9211,610.4788,598.3693,620.27,599.4337" style="stroke:#181818;stroke-width:1.0;"/></g><!--reverse link FigureRepository to JpaFigureRepository--><g id="link_FigureRepository_JpaFigureRepository"><path codeLine="49" d="M331.6803,665.1735 C295.7403,683.1435 266.83,697.5937 228.36,716.8337 " fill="none" id="FigureRepository-backto-JpaFigureRepository" style="stroke:#181818;stroke-width:1.0;stroke-dasharray:7.0,7.0;"/><polygon fill="none" points="347.78,657.1237,328.997,659.807,334.3636,670.5401,347.78,657.1237" style="stroke:#181818;stroke-width:1.0;"/></g><!--reverse link FigureRepository to InMemoryFigureRepository--><g id="link_FigureRepository_InMemoryFigureRepository"><path codeLine="50" d="M417.5454,675.2219 C419.1554,693.2019 419.56,697.7337 421.28,716.9337 " fill="none" id="FigureRepository-backto-InMemoryFigureRepository" style="stroke:#181818;stroke-width:1.0;stroke-dasharray:7.0,7.0;"/><polygon fill="none" points="415.94,657.2937,411.5693,675.7571,423.5215,674.6868,415.94,657.2937" style="stroke:#181818;stroke-width:1.0;"/></g><!--SRC=[fLFHQi8m57tlLmIVAb8_e8WWmu53OQpi0zBqgfV5f2IfMztsxqj9QwDj5LbUqlJSd7FkpRqvPHzq1sJqZBj20TbGOOy746P4lWDY5-DKQx96RHRCu15UYvGZS-7wVLL7LIjYKXWbEGSL4nVmTFvpZfhelVmCn-sj37NEQLapXbktnsHbGD6KmymXStVbD_1SrQOz2vZ5P2t5pgC7pHJc1gM8IM8K-Y1yCLvecrLCKYavKE5HQPTm5veqK3Zk1PSDQozkf7DHWPwVdiJQwlafkW8be8x8e2bqVMnLUF-3LQBNXHsIhpbzRGMvR2JVxBT68rNPuhGm-rDC5dQJ2a-qgdh7sXP5vbkxvmc51RVKEhaMzgmzpEeoVSdf3TB8pW6QqWs5RUgbV_olz4fiu63rRkcVXo41Sy7qgAvL7XxXA9ftvxNJWcrKywANRTBYNcTqGtfxerE3sSzqslSu0v53jGp-0000]--></g></svg>