<svg xmlns="http://www.w3.org/2000/svg" xmlns:xlink="http://www.w3.org/1999/xlink" contentStyleType="text/css" height="719px" preserveAspectRatio="none" style="width:1687px;height:719px;background:#FFFFFF;" version="1.1" viewBox="0 0 1687 719" width="1687px" zoomAndPan="magnify"><defs/><g><rect fill="#FFFFFF" height="500.9961" style="stroke:#181818;stroke-width:1.0;" width="10" x="215.9683" y="116.9121"/><rect fill="#FFFFFF" height="394.123" style="stroke:#181818;stroke-width:1.0;" width="10" x="422.6499" y="148.2031"/><rect fill="#FFFFFF" height="331.541" style="stroke:#181818;stroke-width:1.0;" width="10" x="701.6143" y="179.4941"/><rect fill="#FFFFFF" height="206.377" style="stroke:#181818;stroke-width:1.0;" width="10" x="980.5786" y="273.3672"/><rect fill="#FFFFFF" height="31.291" style="stroke:#181818;stroke-width:1.0;" width="10" x="1259.543" y="330.9492"/><rect fill="#FFFFFF" height="31.291" style="stroke:#181818;stroke-width:1.0;" width="10" x="1432.5459" y="410.1621"/><rect fill="#FFFFFF" height="31.291" style="stroke:#181818;stroke-width:1.0;" width="10" x="1605.1626" y="210.7852"/><rect fill="none" height="161.0859" style="stroke:#000000;stroke-width:1.5;" width="623.6841" x="915.2788" y="288.3672"/><line style="stroke:#181818;stroke-width:0.5;stroke-dasharray:5.0,5.0;" x1="64" x2="64" y1="83.6211" y2="635.9082"/><line style="stroke:#181818;stroke-width:0.5;stroke-dasharray:5.0,5.0;" x1="220.0342" x2="220.0342" y1="83.6211" y2="635.9082"/><line style="stroke:#181818;stroke-width:0.5;stroke-dasharray:5.0,5.0;" x1="427.4639" x2="427.4639" y1="83.6211" y2="635.9082"/><line style="stroke:#181818;stroke-width:0.5;stroke-dasharray:5.0,5.0;" x1="706.4316" x2="706.4316" y1="83.6211" y2="635.9082"/><line style="stroke:#181818;stroke-width:0.5;stroke-dasharray:5.0,5.0;" x1="985.2788" x2="985.2788" y1="83.6211" y2="635.9082"/><line style="stroke:#181818;stroke-width:0.5;stroke-dasharray:5.0,5.0;" x1="1263.957" x2="1263.957" y1="83.6211" y2="635.9082"/><line style="stroke:#181818;stroke-width:0.5;stroke-dasharray:5.0,5.0;" x1="1437.1289" x2="1437.1289" y1="83.6211" y2="635.9082"/><line style="stroke:#181818;stroke-width:0.5;stroke-dasharray:5.0,5.0;" x1="1609.9629" x2="1609.9629" y1="83.6211" y2="635.9082"/><text fill="#000000" font-family="sans-serif" font-size="14" lengthAdjust="spacing" textLength="112.0342" x="5" y="80.1074">CRM Collaborator</text><ellipse cx="64.0171" cy="13.5" fill="#E2E2F0" rx="8" ry="8" style="stroke:#181818;stroke-width:0.5;"/><path d="M64.0171,21.5 L64.0171,48.5 M51.0171,29.5 L77.0171,29.5 M64.0171,48.5 L51.0171,63.5 M64.0171,48.5 L77.0171,63.5 " fill="none" style="stroke:#181818;stroke-width:0.5;"/><text fill="#000000" font-family="sans-serif" font-size="14" lengthAdjust="spacing" textLength="112.0342" x="5" y="650.0156">CRM Collaborator</text><ellipse cx="64.0171" cy="662.0293" fill="#E2E2F0" rx="8" ry="8" style="stroke:#181818;stroke-width:0.5;"/><path d="M64.0171,670.0293 L64.0171,697.0293 M51.0171,678.0293 L77.0171,678.0293 M64.0171,697.0293 L51.0171,712.0293 M64.0171,697.0293 L77.0171,712.0293 " fill="none" style="stroke:#181818;stroke-width:0.5;"/><rect fill="#E2E2F0" height="32.6211" rx="2.5" ry="2.5" style="stroke:#181818;stroke-width:0.5;" width="175.8682" x="133.0342" y="50"/><text fill="#000000" font-family="sans-serif" font-size="14" lengthAdjust="spacing" textLength="161.8682" x="140.0342" y="72.1074">SearchFigureCatalogueUI</text><rect fill="#E2E2F0" height="32.6211" rx="2.5" ry="2.5" style="stroke:#181818;stroke-width:0.5;" width="175.8682" x="133.0342" y="634.9082"/><text fill="#000000" font-family="sans-serif" font-size="14" lengthAdjust="spacing" textLength="161.8682" x="140.0342" y="657.0156">SearchFigureCatalogueUI</text><rect fill="#E2E2F0" height="32.6211" rx="2.5" ry="2.5" style="stroke:#181818;stroke-width:0.5;" width="114.3721" x="370.4639" y="50"/><text fill="#000000" font-family="sans-serif" font-size="14" lengthAdjust="spacing" textLength="100.3721" x="377.4639" y="72.1074">FigureController</text><rect fill="#E2E2F0" height="32.6211" rx="2.5" ry="2.5" style="stroke:#181818;stroke-width:0.5;" width="114.3721" x="370.4639" y="634.9082"/><text fill="#000000" font-family="sans-serif" font-size="14" lengthAdjust="spacing" textLength="100.3721" x="377.4639" y="657.0156">FigureController</text><rect fill="#E2E2F0" height="32.6211" rx="2.5" ry="2.5" style="stroke:#181818;stroke-width:0.5;" width="100.3652" x="656.4316" y="50"/><text fill="#000000" font-family="sans-serif" font-size="14" lengthAdjust="spacing" textLength="86.3652" x="663.4316" y="72.1074">FigureService</text><rect fill="#E2E2F0" height="32.6211" rx="2.5" ry="2.5" style="stroke:#181818;stroke-width:0.5;" width="100.3652" x="656.4316" y="634.9082"/><text fill="#000000" font-family="sans-serif" font-size="14" lengthAdjust="spacing" textLength="86.3652" x="663.4316" y="657.0156">FigureService</text><rect fill="#E2E2F0" height="32.6211" rx="2.5" ry="2.5" style="stroke:#181818;stroke-width:0.5;" width="120.5996" x="925.2788" y="50"/><text fill="#000000" font-family="sans-serif" font-size="14" lengthAdjust="spacing" textLength="106.5996" x="932.2788" y="72.1074">FigureRepository</text><rect fill="#E2E2F0" height="32.6211" rx="2.5" ry="2.5" style="stroke:#181818;stroke-width:0.5;" width="120.5996" x="925.2788" y="634.9082"/><text fill="#000000" font-family="sans-serif" font-size="14" lengthAdjust="spacing" textLength="106.5996" x="932.2788" y="657.0156">FigureRepository</text><rect fill="#E2E2F0" height="32.6211" rx="2.5" ry="2.5" style="stroke:#181818;stroke-width:0.5;" width="143.1719" x="1192.957" y="50"/><text fill="#000000" font-family="sans-serif" font-size="14" lengthAdjust="spacing" textLength="129.1719" x="1199.957" y="72.1074">JpaFigureRepository</text><rect fill="#E2E2F0" height="32.6211" rx="2.5" ry="2.5" style="stroke:#181818;stroke-width:0.5;" width="143.1719" x="1192.957" y="634.9082"/><text fill="#000000" font-family="sans-serif" font-size="14" lengthAdjust="spacing" textLength="129.1719" x="1199.957" y="657.0156">JpaFigureRepository</text><rect fill="#E2E2F0" height="32.6211" rx="2.5" ry="2.5" style="stroke:#181818;stroke-width:0.5;" width="182.834" x="1346.1289" y="50"/><text fill="#000000" font-family="sans-serif" font-size="14" lengthAdjust="spacing" textLength="168.834" x="1353.1289" y="72.1074">InMemoryFigureRepository</text><rect fill="#E2E2F0" height="32.6211" rx="2.5" ry="2.5" style="stroke:#181818;stroke-width:0.5;" width="182.834" x="1346.1289" y="634.9082"/><text fill="#000000" font-family="sans-serif" font-size="14" lengthAdjust="spacing" textLength="168.834" x="1353.1289" y="657.0156">InMemoryFigureRepository</text><rect fill="#E2E2F0" height="32.6211" rx="2.5" ry="2.5" style="stroke:#181818;stroke-width:0.5;" width="142.3994" x="1538.9629" y="50"/><text fill="#000000" font-family="sans-serif" font-size="14" lengthAdjust="spacing" textLength="128.3994" x="1545.9629" y="72.1074">AuthorizationService</text><rect fill="#E2E2F0" height="32.6211" rx="2.5" ry="2.5" style="stroke:#181818;stroke-width:0.5;" width="142.3994" x="1538.9629" y="634.9082"/><text fill="#000000" font-family="sans-serif" font-size="14" lengthAdjust="spacing" textLength="128.3994" x="1545.9629" y="657.0156">AuthorizationService</text><rect fill="#FFFFFF" height="500.9961" style="stroke:#181818;stroke-width:1.0;" width="10" x="215.9683" y="116.9121"/><rect fill="#FFFFFF" height="394.123" style="stroke:#181818;stroke-width:1.0;" width="10" x="422.6499" y="148.2031"/><rect fill="#FFFFFF" height="331.541" style="stroke:#181818;stroke-width:1.0;" width="10" x="701.6143" y="179.4941"/><rect fill="#FFFFFF" height="206.377" style="stroke:#181818;stroke-width:1.0;" width="10" x="980.5786" y="273.3672"/><rect fill="#FFFFFF" height="31.291" style="stroke:#181818;stroke-width:1.0;" width="10" x="1259.543" y="330.9492"/><rect fill="#FFFFFF" height="31.291" style="stroke:#181818;stroke-width:1.0;" width="10" x="1432.5459" y="410.1621"/><rect fill="#FFFFFF" height="31.291" style="stroke:#181818;stroke-width:1.0;" width="10" x="1605.1626" y="210.7852"/><polygon fill="#181818" points="203.9683,112.9121,213.9683,116.9121,203.9683,120.9121,207.9683,116.9121" style="stroke:#181818;stroke-width:1.0;"/><line style="stroke:#181818;stroke-width:1.0;" x1="64.0171" x2="209.9683" y1="116.9121" y2="116.9121"/><text fill="#000000" font-family="sans-serif" font-size="13" lengthAdjust="spacing" textLength="39.0063" x="71.0171" y="111.6494">show()</text><polygon fill="#181818" points="410.6499,144.2031,420.6499,148.2031,410.6499,152.2031,414.6499,148.2031" style="stroke:#181818;stroke-width:1.0;"/><line style="stroke:#181818;stroke-width:1.0;" x1="225.9683" x2="416.6499" y1="148.2031" y2="148.2031"/><text fill="#000000" font-family="sans-serif" font-size="13" lengthAdjust="spacing" textLength="117.0254" x="232.9683" y="142.9404">search(searchTerm)</text><polygon fill="#181818" points="689.6143,175.4941,699.6143,179.4941,689.6143,183.4941,693.6143,179.4941" style="stroke:#181818;stroke-width:1.0;"/><line style="stroke:#181818;stroke-width:1.0;" x1="432.6499" x2="695.6143" y1="179.4941" y2="179.4941"/><text fill="#000000" font-family="sans-serif" font-size="13" lengthAdjust="spacing" textLength="249.9644" x="439.6499" y="174.2314">searchByCategoryOrKeyword(searchTerm)</text><polygon fill="#181818" points="1593.1626,206.7852,1603.1626,210.7852,1593.1626,214.7852,1597.1626,210.7852" style="stroke:#181818;stroke-width:1.0;"/><line style="stroke:#181818;stroke-width:1.0;" x1="711.6143" x2="1599.1626" y1="210.7852" y2="210.7852"/><text fill="#000000" font-family="sans-serif" font-size="13" lengthAdjust="spacing" textLength="617.6904" x="718.6143" y="205.5225">ensureAuthenticatedUserHasAnyOf(Roles.ADMIN, Roles.POWER_USER, Roles.CRM_COLLABORATOR)</text><polygon fill="#181818" points="722.6143,238.0762,712.6143,242.0762,722.6143,246.0762,718.6143,242.0762" style="stroke:#181818;stroke-width:1.0;"/><line style="stroke:#181818;stroke-width:1.0;stroke-dasharray:2.0,2.0;" x1="716.6143" x2="1609.1626" y1="242.0762" y2="242.0762"/><text fill="#000000" font-family="sans-serif" font-size="13" lengthAdjust="spacing" textLength="60.709" x="728.6143" y="236.8135">authorized</text><polygon fill="#181818" points="968.5786,269.3672,978.5786,273.3672,968.5786,277.3672,972.5786,273.3672" style="stroke:#181818;stroke-width:1.0;"/><line style="stroke:#181818;stroke-width:1.0;" x1="711.6143" x2="974.5786" y1="273.3672" y2="273.3672"/><text fill="#000000" font-family="sans-serif" font-size="13" lengthAdjust="spacing" textLength="249.9644" x="718.6143" y="268.1045">searchByCategoryOrKeyword(searchTerm)</text><path d="M915.2788,288.3672 L975.4497,288.3672 L975.4497,297.6582 L965.4497,307.6582 L915.2788,307.6582 L915.2788,288.3672 " fill="#EEEEEE" style="stroke:#000000;stroke-width:1.5;"/><rect fill="none" height="161.0859" style="stroke:#000000;stroke-width:1.5;" width="623.6841" x="915.2788" y="288.3672"/><text fill="#000000" font-family="sans-serif" font-size="13" font-weight="bold" lengthAdjust="spacing" textLength="15.1709" x="930.2788" y="303.3955">alt</text><text fill="#000000" font-family="sans-serif" font-size="11" font-weight="bold" lengthAdjust="spacing" textLength="113.0669" x="990.4497" y="302.2373">[JPA Implementation]</text><polygon fill="#181818" points="1247.543,326.9492,1257.543,330.9492,1247.543,334.9492,1251.543,330.9492" style="stroke:#181818;stroke-width:1.0;"/><line style="stroke:#181818;stroke-width:1.0;" x1="990.5786" x2="1253.543" y1="330.9492" y2="330.9492"/><text fill="#000000" font-family="sans-serif" font-size="13" lengthAdjust="spacing" textLength="249.9644" x="997.5786" y="325.6865">searchByCategoryOrKeyword(searchTerm)</text><polygon fill="#181818" points="1001.5786,358.2402,991.5786,362.2402,1001.5786,366.2402,997.5786,362.2402" style="stroke:#181818;stroke-width:1.0;"/><line style="stroke:#181818;stroke-width:1.0;stroke-dasharray:2.0,2.0;" x1="995.5786" x2="1263.543" y1="362.2402" y2="362.2402"/><text fill="#000000" font-family="sans-serif" font-size="13" lengthAdjust="spacing" textLength="95.3926" x="1007.5786" y="356.9775">Iterable&lt;Figure&gt;</text><line style="stroke:#000000;stroke-width:1.0;stroke-dasharray:2.0,2.0;" x1="915.2788" x2="1538.9629" y1="371.2402" y2="371.2402"/><text fill="#000000" font-family="sans-serif" font-size="11" font-weight="bold" lengthAdjust="spacing" textLength="143.623" x="920.2788" y="383.1104">[InMemory Implementation]</text><polygon fill="#181818" points="1420.5459,406.1621,1430.5459,410.1621,1420.5459,414.1621,1424.5459,410.1621" style="stroke:#181818;stroke-width:1.0;"/><line style="stroke:#181818;stroke-width:1.0;" x1="990.5786" x2="1426.5459" y1="410.1621" y2="410.1621"/><text fill="#000000" font-family="sans-serif" font-size="13" lengthAdjust="spacing" textLength="249.9644" x="997.5786" y="404.8994">searchByCategoryOrKeyword(searchTerm)</text><polygon fill="#181818" points="1001.5786,437.4531,991.5786,441.4531,1001.5786,445.4531,997.5786,441.4531" style="stroke:#181818;stroke-width:1.0;"/><line style="stroke:#181818;stroke-width:1.0;stroke-dasharray:2.0,2.0;" x1="995.5786" x2="1436.5459" y1="441.4531" y2="441.4531"/><text fill="#000000" font-family="sans-serif" font-size="13" lengthAdjust="spacing" textLength="95.3926" x="1007.5786" y="436.1904">Iterable&lt;Figure&gt;</text><polygon fill="#181818" points="722.6143,475.7441,712.6143,479.7441,722.6143,483.7441,718.6143,479.7441" style="stroke:#181818;stroke-width:1.0;"/><line style="stroke:#181818;stroke-width:1.0;stroke-dasharray:2.0,2.0;" x1="716.6143" x2="984.5786" y1="479.7441" y2="479.7441"/><text fill="#000000" font-family="sans-serif" font-size="13" lengthAdjust="spacing" textLength="95.3926" x="728.6143" y="474.4814">Iterable&lt;Figure&gt;</text><polygon fill="#181818" points="443.6499,507.0352,433.6499,511.0352,443.6499,515.0352,439.6499,511.0352" style="stroke:#181818;stroke-width:1.0;"/><line style="stroke:#181818;stroke-width:1.0;stroke-dasharray:2.0,2.0;" x1="437.6499" x2="705.6143" y1="511.0352" y2="511.0352"/><text fill="#000000" font-family="sans-serif" font-size="13" lengthAdjust="spacing" textLength="95.3926" x="449.6499" y="505.7725">Iterable&lt;Figure&gt;</text><polygon fill="#181818" points="236.9683,538.3262,226.9683,542.3262,236.9683,546.3262,232.9683,542.3262" style="stroke:#181818;stroke-width:1.0;"/><line style="stroke:#181818;stroke-width:1.0;stroke-dasharray:2.0,2.0;" x1="230.9683" x2="426.6499" y1="542.3262" y2="542.3262"/><text fill="#000000" font-family="sans-serif" font-size="13" lengthAdjust="spacing" textLength="95.3926" x="242.9683" y="537.0635">Iterable&lt;Figure&gt;</text><line style="stroke:#181818;stroke-width:1.0;" x1="225.9683" x2="267.9683" y1="573.6172" y2="573.6172"/><line style="stroke:#181818;stroke-width:1.0;" x1="267.9683" x2="267.9683" y1="573.6172" y2="586.6172"/><line style="stroke:#181818;stroke-width:1.0;" x1="226.9683" x2="267.9683" y1="586.6172" y2="586.6172"/><polygon fill="#181818" points="236.9683,582.6172,226.9683,586.6172,236.9683,590.6172,232.9683,586.6172" style="stroke:#181818;stroke-width:1.0;"/><text fill="#000000" font-family="sans-serif" font-size="13" lengthAdjust="spacing" textLength="172.6816" x="232.9683" y="568.3545">displaySearchResults(figures)</text><polygon fill="#181818" points="75.0171,613.9082,65.0171,617.9082,75.0171,621.9082,71.0171,617.9082" style="stroke:#181818;stroke-width:1.0;"/><line style="stroke:#181818;stroke-width:1.0;stroke-dasharray:2.0,2.0;" x1="69.0171" x2="219.9683" y1="617.9082" y2="617.9082"/><text fill="#000000" font-family="sans-serif" font-size="13" lengthAdjust="spacing" textLength="82.3672" x="81.0171" y="612.6455">display results</text><!--SRC=[dLJ1Rjim3BthAuISKc3T1nH30JVhC7VDN3WDTYnOcqqqo9OXoItShnybMOxQ644x7sAAVeyY7yb0PPNcYrMvvYib9Jmg3UHPS32yIXoi0sr59JfeBLzi47Ir_o5slSOLM91gr-CszwnUlCMEADLQJV4mXex7EV06zREeq2DDiETW9NRA24fky4XDnxUmcmvcaNyxA8_0URl6XX2pZ0QROqRMsxtIuXMiK6sQCz27LyPI_VZv9IbpmSrUlIpF65HMF8D5fnRhXVjwa8HGNjzbUDsZRX968Xqxs2x2A5MaNmtK6jnH2ON-XSEBqlLyn2Wn6mqNovTmmR4r98Oh55igdD3rbb0_mMJjK3mjIoNHVCs-h_FVNtWut1L_hik7xUQwZ1uQheTLSNkRNHLbTb-KoTL1AV_BpzCIODGMQrRZEtYQfslwfmlsay90Mdvpb_6ywIGsL9_l8-FqE82BFWxAHozmrEcIE6JEETg-n91nRb73eyHlOTmkFIofDB9H6kHnD4-bEaxeVwKQfzivH_iJgKOsjZLZEdAdJXxH4sfenDJETrjmYZdDRBe2uuwTugNR4_RECMfXEWb3-5ihqVJIckMJPvipZ_Ef7TPveb097ftUGJlz3m00]--></g></svg>