<svg xmlns="http://www.w3.org/2000/svg" xmlns:xlink="http://www.w3.org/1999/xlink" contentStyleType="text/css" height="900px" preserveAspectRatio="none" style="width:1157px;height:900px;background:#FFFFFF;" version="1.1" viewBox="0 0 1157 900" width="1157px" zoomAndPan="magnify"><defs/><g><!--cluster Figure Management--><g id="cluster_Figure Management"><path d="M8.5,6.0137 L141.7412,6.0137 A3.75,3.75 0 0 1 144.2412,8.5137 L151.2412,30.6348 L970.5,30.6348 A2.5,2.5 0 0 1 973,33.1348 L973,890.5137 A2.5,2.5 0 0 1 970.5,893.0137 L8.5,893.0137 A2.5,2.5 0 0 1 6,890.5137 L6,8.5137 A2.5,2.5 0 0 1 8.5,6.0137 " fill="none" style="stroke:#000000;stroke-width:1.5;"/><line style="stroke:#000000;stroke-width:1.5;" x1="6" x2="151.2412" y1="30.6348" y2="30.6348"/><text fill="#000000" font-family="sans-serif" font-size="14" font-weight="bold" lengthAdjust="spacing" textLength="132.2412" x="10" y="23.1211">Figure Management</text></g><!--class SearchFigureCatalogueUI--><g id="elem_SearchFigureCatalogueUI"><rect codeLine="3" fill="#F1F1F1" height="103.8633" id="SearchFigureCatalogueUI" rx="2.5" ry="2.5" style="stroke:#181818;stroke-width:0.5;" width="322.4746" x="570" y="99.0137"/><ellipse cx="646.0532" cy="115.0137" fill="#ADD1B2" rx="11" ry="11" style="stroke:#181818;stroke-width:1.0;"/><path d="M648.8188,110.8887 Q648.9751,110.6699 649.1626,110.5605 Q649.3501,110.4512 649.5688,110.4512 Q649.9438,110.4512 650.1782,110.7168 Q650.4126,110.9668 650.4126,111.5762 L650.4126,113.0293 Q650.4126,113.6387 650.1782,113.9043 Q649.9438,114.1699 649.5688,114.1699 Q649.2251,114.1699 649.022,113.9668 Q648.8188,113.7793 648.7095,113.2637 Q648.6626,112.9043 648.4751,112.7168 Q648.147,112.3418 647.5376,112.123 Q646.9282,111.9043 646.3032,111.9043 Q645.5376,111.9043 644.897,112.2324 Q644.272,112.5605 643.772,113.3105 Q643.2876,114.0605 643.2876,115.0918 L643.2876,116.1855 Q643.2876,117.4199 644.1782,118.248 Q645.0688,119.0605 646.6626,119.0605 Q647.6001,119.0605 648.2563,118.8105 Q648.647,118.6543 649.0688,118.2168 Q649.3345,117.9512 649.4751,117.873 Q649.6313,117.7949 649.8345,117.7949 Q650.1626,117.7949 650.4126,118.0605 Q650.6782,118.3105 650.6782,118.6543 Q650.6782,118.998 650.3345,119.4043 Q649.8345,119.9824 649.0376,120.3105 Q647.9595,120.7637 646.6626,120.7637 Q645.147,120.7637 643.9438,120.1387 Q642.9595,119.6387 642.272,118.5762 Q641.5845,117.498 641.5845,116.2168 L641.5845,115.0605 Q641.5845,113.7324 642.1938,112.5918 Q642.8188,111.4355 643.9126,110.8262 Q645.0063,110.2012 646.2407,110.2012 Q646.9751,110.2012 647.6157,110.373 Q648.272,110.5293 648.8188,110.8887 Z " fill="#000000"/><text fill="#000000" font-family="sans-serif" font-size="14" lengthAdjust="spacing" textLength="161.8682" x="666.5532" y="120.8105">SearchFigureCatalogueUI</text><line style="stroke:#181818;stroke-width:0.5;" x1="571" x2="891.4746" y1="131.0137" y2="131.0137"/><rect fill="none" height="6" style="stroke:#C82930;stroke-width:1.0;" width="6" x="578" y="142.8242"/><text fill="#000000" font-family="sans-serif" font-size="14" lengthAdjust="spacing" textLength="165.7305" x="590" y="150.1211">controller: FigureController</text><line style="stroke:#181818;stroke-width:0.5;" x1="571" x2="891.4746" y1="157.6348" y2="157.6348"/><ellipse cx="581" cy="172.4453" fill="#84BE84" rx="3" ry="3" style="stroke:#038048;stroke-width:1.0;"/><text fill="#000000" font-family="sans-serif" font-size="14" lengthAdjust="spacing" textLength="42.0068" x="590" y="176.7422">show()</text><rect fill="#F24D5C" height="6" style="stroke:#C82930;stroke-width:1.0;" width="6" x="578" y="188.0664"/><text fill="#000000" font-family="sans-serif" font-size="14" lengthAdjust="spacing" textLength="296.4746" x="590" y="195.3633">displaySearchResults(figures: Iterable&lt;Figure&gt;)</text></g><!--class Figure--><g id="elem_Figure"><rect codeLine="9" fill="#F1F1F1" height="215.5898" id="Figure" rx="2.5" ry="2.5" style="stroke:#181818;stroke-width:0.5;" width="266.4541" x="147" y="43.0137"/><ellipse cx="256.1357" cy="59.0137" fill="#ADD1B2" rx="11" ry="11" style="stroke:#181818;stroke-width:1.0;"/><path d="M258.9014,54.8887 Q259.0576,54.6699 259.2451,54.5605 Q259.4326,54.4512 259.6514,54.4512 Q260.0264,54.4512 260.2607,54.7168 Q260.4951,54.9668 260.4951,55.5762 L260.4951,57.0293 Q260.4951,57.6387 260.2607,57.9043 Q260.0264,58.1699 259.6514,58.1699 Q259.3076,58.1699 259.1045,57.9668 Q258.9014,57.7793 258.792,57.2637 Q258.7451,56.9043 258.5576,56.7168 Q258.2295,56.3418 257.6201,56.123 Q257.0107,55.9043 256.3857,55.9043 Q255.6201,55.9043 254.9795,56.2324 Q254.3545,56.5605 253.8545,57.3105 Q253.3701,58.0605 253.3701,59.0918 L253.3701,60.1855 Q253.3701,61.4199 254.2607,62.248 Q255.1514,63.0605 256.7451,63.0605 Q257.6826,63.0605 258.3389,62.8105 Q258.7295,62.6543 259.1514,62.2168 Q259.417,61.9512 259.5576,61.873 Q259.7139,61.7949 259.917,61.7949 Q260.2451,61.7949 260.4951,62.0605 Q260.7607,62.3105 260.7607,62.6543 Q260.7607,62.998 260.417,63.4043 Q259.917,63.9824 259.1201,64.3105 Q258.042,64.7637 256.7451,64.7637 Q255.2295,64.7637 254.0264,64.1387 Q253.042,63.6387 252.3545,62.5762 Q251.667,61.498 251.667,60.2168 L251.667,59.0605 Q251.667,57.7324 252.2764,56.5918 Q252.9014,55.4355 253.9951,54.8262 Q255.0889,54.2012 256.3232,54.2012 Q257.0576,54.2012 257.6982,54.373 Q258.3545,54.5293 258.9014,54.8887 Z " fill="#000000"/><text fill="#000000" font-family="sans-serif" font-size="14" lengthAdjust="spacing" textLength="39.6826" x="276.6357" y="64.8105">Figure</text><line style="stroke:#181818;stroke-width:0.5;" x1="148" x2="412.4541" y1="75.0137" y2="75.0137"/><rect fill="none" height="6" style="stroke:#C82930;stroke-width:1.0;" width="6" x="155" y="86.8242"/><text fill="#000000" font-family="sans-serif" font-size="14" lengthAdjust="spacing" textLength="49.8203" x="167" y="94.1211">id: Long</text><rect fill="none" height="6" style="stroke:#C82930;stroke-width:1.0;" width="6" x="155" y="105.4453"/><text fill="#000000" font-family="sans-serif" font-size="14" lengthAdjust="spacing" textLength="112.0547" x="167" y="112.7422">description: String</text><rect fill="none" height="6" style="stroke:#C82930;stroke-width:1.0;" width="6" x="155" y="124.0664"/><text fill="#000000" font-family="sans-serif" font-size="14" lengthAdjust="spacing" textLength="140.8477" x="167" y="131.3633">keywords: Set&lt;String&gt;</text><rect fill="none" height="6" style="stroke:#C82930;stroke-width:1.0;" width="6" x="155" y="142.6875"/><text fill="#000000" font-family="sans-serif" font-size="14" lengthAdjust="spacing" textLength="157.9648" x="167" y="149.9844">category: FigureCategory</text><rect fill="none" height="6" style="stroke:#C82930;stroke-width:1.0;" width="6" x="155" y="161.3086"/><text fill="#000000" font-family="sans-serif" font-size="14" lengthAdjust="spacing" textLength="105.8408" x="167" y="168.6055">isActive: boolean</text><line style="stroke:#181818;stroke-width:0.5;" x1="148" x2="412.4541" y1="176.1191" y2="176.1191"/><ellipse cx="158" cy="190.9297" fill="#84BE84" rx="3" ry="3" style="stroke:#038048;stroke-width:1.0;"/><text fill="#000000" font-family="sans-serif" font-size="14" lengthAdjust="spacing" textLength="240.4541" x="167" y="195.2266">hasKeyword(keyword: String): boolean</text><ellipse cx="158" cy="209.5508" fill="#84BE84" rx="3" ry="3" style="stroke:#038048;stroke-width:1.0;"/><text fill="#000000" font-family="sans-serif" font-size="14" lengthAdjust="spacing" textLength="167.2891" x="167" y="213.8477">category(): FigureCategory</text><ellipse cx="158" cy="228.1719" fill="#84BE84" rx="3" ry="3" style="stroke:#038048;stroke-width:1.0;"/><text fill="#000000" font-family="sans-serif" font-size="14" lengthAdjust="spacing" textLength="121.3789" x="167" y="232.4688">description(): String</text><ellipse cx="158" cy="246.793" fill="#84BE84" rx="3" ry="3" style="stroke:#038048;stroke-width:1.0;"/><text fill="#000000" font-family="sans-serif" font-size="14" lengthAdjust="spacing" textLength="101.9238" x="167" y="251.0898">toString(): String</text></g><!--class FigureCategory--><g id="elem_FigureCategory"><rect codeLine="21" fill="#F1F1F1" height="122.4844" id="FigureCategory" rx="2.5" ry="2.5" style="stroke:#181818;stroke-width:0.5;" width="138.0547" x="211" y="319.0137"/><ellipse cx="230.3044" cy="335.0137" fill="#ADD1B2" rx="11" ry="11" style="stroke:#181818;stroke-width:1.0;"/><path d="M233.0701,330.8887 Q233.2263,330.6699 233.4138,330.5605 Q233.6013,330.4512 233.8201,330.4512 Q234.1951,330.4512 234.4294,330.7168 Q234.6638,330.9668 234.6638,331.5762 L234.6638,333.0293 Q234.6638,333.6387 234.4294,333.9043 Q234.1951,334.1699 233.8201,334.1699 Q233.4763,334.1699 233.2732,333.9668 Q233.0701,333.7793 232.9607,333.2637 Q232.9138,332.9043 232.7263,332.7168 Q232.3982,332.3418 231.7888,332.123 Q231.1794,331.9043 230.5544,331.9043 Q229.7888,331.9043 229.1482,332.2324 Q228.5232,332.5605 228.0232,333.3105 Q227.5388,334.0605 227.5388,335.0918 L227.5388,336.1855 Q227.5388,337.4199 228.4294,338.248 Q229.3201,339.0605 230.9138,339.0605 Q231.8513,339.0605 232.5076,338.8105 Q232.8982,338.6543 233.3201,338.2168 Q233.5857,337.9512 233.7263,337.873 Q233.8826,337.7949 234.0857,337.7949 Q234.4138,337.7949 234.6638,338.0605 Q234.9294,338.3105 234.9294,338.6543 Q234.9294,338.998 234.5857,339.4043 Q234.0857,339.9824 233.2888,340.3105 Q232.2107,340.7637 230.9138,340.7637 Q229.3982,340.7637 228.1951,340.1387 Q227.2107,339.6387 226.5232,338.5762 Q225.8357,337.498 225.8357,336.2168 L225.8357,335.0605 Q225.8357,333.7324 226.4451,332.5918 Q227.0701,331.4355 228.1638,330.8262 Q229.2576,330.2012 230.4919,330.2012 Q231.2263,330.2012 231.8669,330.373 Q232.5232,330.5293 233.0701,330.8887 Z " fill="#000000"/><text fill="#000000" font-family="sans-serif" font-size="14" lengthAdjust="spacing" textLength="96.4893" x="245.261" y="340.8105">FigureCategory</text><line style="stroke:#181818;stroke-width:0.5;" x1="212" x2="348.0547" y1="351.0137" y2="351.0137"/><rect fill="none" height="6" style="stroke:#C82930;stroke-width:1.0;" width="6" x="219" y="362.8242"/><text fill="#000000" font-family="sans-serif" font-size="14" lengthAdjust="spacing" textLength="79.3721" x="231" y="370.1211">name: String</text><rect fill="none" height="6" style="stroke:#C82930;stroke-width:1.0;" width="6" x="219" y="381.4453"/><text fill="#000000" font-family="sans-serif" font-size="14" lengthAdjust="spacing" textLength="112.0547" x="231" y="388.7422">description: String</text><line style="stroke:#181818;stroke-width:0.5;" x1="212" x2="348.0547" y1="396.2559" y2="396.2559"/><ellipse cx="222" cy="411.0664" fill="#84BE84" rx="3" ry="3" style="stroke:#038048;stroke-width:1.0;"/><text fill="#000000" font-family="sans-serif" font-size="14" lengthAdjust="spacing" textLength="88.6963" x="231" y="415.3633">name(): String</text><ellipse cx="222" cy="429.6875" fill="#84BE84" rx="3" ry="3" style="stroke:#038048;stroke-width:1.0;"/><text fill="#000000" font-family="sans-serif" font-size="14" lengthAdjust="spacing" textLength="101.9238" x="231" y="433.9844">toString(): String</text></g><!--class FigureController--><g id="elem_FigureController"><rect codeLine="28" fill="#F1F1F1" height="85.2422" id="FigureController" rx="2.5" ry="2.5" style="stroke:#181818;stroke-width:0.5;" width="306.8887" x="577.5" y="337.5137"/><ellipse cx="676.5083" cy="353.5137" fill="#ADD1B2" rx="11" ry="11" style="stroke:#181818;stroke-width:1.0;"/><path d="M679.2739,349.3887 Q679.4302,349.1699 679.6177,349.0605 Q679.8052,348.9512 680.0239,348.9512 Q680.3989,348.9512 680.6333,349.2168 Q680.8677,349.4668 680.8677,350.0762 L680.8677,351.5293 Q680.8677,352.1387 680.6333,352.4043 Q680.3989,352.6699 680.0239,352.6699 Q679.6802,352.6699 679.4771,352.4668 Q679.2739,352.2793 679.1646,351.7637 Q679.1177,351.4043 678.9302,351.2168 Q678.6021,350.8418 677.9927,350.623 Q677.3833,350.4043 676.7583,350.4043 Q675.9927,350.4043 675.3521,350.7324 Q674.7271,351.0605 674.2271,351.8105 Q673.7427,352.5605 673.7427,353.5918 L673.7427,354.6855 Q673.7427,355.9199 674.6333,356.748 Q675.5239,357.5605 677.1177,357.5605 Q678.0552,357.5605 678.7114,357.3105 Q679.1021,357.1543 679.5239,356.7168 Q679.7896,356.4512 679.9302,356.373 Q680.0864,356.2949 680.2896,356.2949 Q680.6177,356.2949 680.8677,356.5605 Q681.1333,356.8105 681.1333,357.1543 Q681.1333,357.498 680.7896,357.9043 Q680.2896,358.4824 679.4927,358.8105 Q678.4146,359.2637 677.1177,359.2637 Q675.6021,359.2637 674.3989,358.6387 Q673.4146,358.1387 672.7271,357.0762 Q672.0396,355.998 672.0396,354.7168 L672.0396,353.5605 Q672.0396,352.2324 672.6489,351.0918 Q673.2739,349.9355 674.3677,349.3262 Q675.4614,348.7012 676.6958,348.7012 Q677.4302,348.7012 678.0708,348.873 Q678.7271,349.0293 679.2739,349.3887 Z " fill="#000000"/><text fill="#000000" font-family="sans-serif" font-size="14" lengthAdjust="spacing" textLength="100.3721" x="697.0083" y="359.3105">FigureController</text><line style="stroke:#181818;stroke-width:0.5;" x1="578.5" x2="883.3887" y1="369.5137" y2="369.5137"/><rect fill="none" height="6" style="stroke:#C82930;stroke-width:1.0;" width="6" x="585.5" y="381.3242"/><text fill="#000000" font-family="sans-serif" font-size="14" lengthAdjust="spacing" textLength="175.8477" x="597.5" y="388.6211">figureService: FigureService</text><line style="stroke:#181818;stroke-width:0.5;" x1="578.5" x2="883.3887" y1="396.1348" y2="396.1348"/><ellipse cx="588.5" cy="410.9453" fill="#84BE84" rx="3" ry="3" style="stroke:#038048;stroke-width:1.0;"/><text fill="#000000" font-family="sans-serif" font-size="14" lengthAdjust="spacing" textLength="280.8887" x="597.5" y="415.2422">search(searchTerm: String): Iterable&lt;Figure&gt;</text></g><!--class FigureService--><g id="elem_FigureService"><rect codeLine="33" fill="#F1F1F1" height="103.8633" id="FigureService" rx="2.5" ry="2.5" style="stroke:#181818;stroke-width:0.5;" width="450.0537" x="506" y="501.0137"/><ellipse cx="683.5942" cy="517.0137" fill="#ADD1B2" rx="11" ry="11" style="stroke:#181818;stroke-width:1.0;"/><path d="M686.3599,512.8887 Q686.5161,512.6699 686.7036,512.5605 Q686.8911,512.4512 687.1099,512.4512 Q687.4849,512.4512 687.7192,512.7168 Q687.9536,512.9668 687.9536,513.5762 L687.9536,515.0293 Q687.9536,515.6387 687.7192,515.9043 Q687.4849,516.1699 687.1099,516.1699 Q686.7661,516.1699 686.563,515.9668 Q686.3599,515.7793 686.2505,515.2637 Q686.2036,514.9043 686.0161,514.7168 Q685.688,514.3418 685.0786,514.123 Q684.4692,513.9043 683.8442,513.9043 Q683.0786,513.9043 682.438,514.2324 Q681.813,514.5605 681.313,515.3105 Q680.8286,516.0605 680.8286,517.0918 L680.8286,518.1855 Q680.8286,519.4199 681.7192,520.248 Q682.6099,521.0605 684.2036,521.0605 Q685.1411,521.0605 685.7974,520.8105 Q686.188,520.6543 686.6099,520.2168 Q686.8755,519.9512 687.0161,519.873 Q687.1724,519.7949 687.3755,519.7949 Q687.7036,519.7949 687.9536,520.0605 Q688.2192,520.3105 688.2192,520.6543 Q688.2192,520.998 687.8755,521.4043 Q687.3755,521.9824 686.5786,522.3105 Q685.5005,522.7637 684.2036,522.7637 Q682.688,522.7637 681.4849,522.1387 Q680.5005,521.6387 679.813,520.5762 Q679.1255,519.498 679.1255,518.2168 L679.1255,517.0605 Q679.1255,515.7324 679.7349,514.5918 Q680.3599,513.4355 681.4536,512.8262 Q682.5474,512.2012 683.7817,512.2012 Q684.5161,512.2012 685.1567,512.373 Q685.813,512.5293 686.3599,512.8887 Z " fill="#000000"/><text fill="#000000" font-family="sans-serif" font-size="14" lengthAdjust="spacing" textLength="86.3652" x="704.0942" y="522.8105">FigureService</text><line style="stroke:#181818;stroke-width:0.5;" x1="507" x2="955.0537" y1="533.0137" y2="533.0137"/><rect fill="none" height="6" style="stroke:#C82930;stroke-width:1.0;" width="6" x="514" y="544.8242"/><text fill="#000000" font-family="sans-serif" font-size="14" lengthAdjust="spacing" textLength="142.3994" x="526" y="552.1211">repo: FigureRepository</text><rect fill="none" height="6" style="stroke:#C82930;stroke-width:1.0;" width="6" x="514" y="563.4453"/><text fill="#000000" font-family="sans-serif" font-size="14" lengthAdjust="spacing" textLength="170.4268" x="526" y="570.7422">authz: AuthorizationService</text><line style="stroke:#181818;stroke-width:0.5;" x1="507" x2="955.0537" y1="578.2559" y2="578.2559"/><ellipse cx="517" cy="593.0664" fill="#84BE84" rx="3" ry="3" style="stroke:#038048;stroke-width:1.0;"/><text fill="#000000" font-family="sans-serif" font-size="14" lengthAdjust="spacing" textLength="424.0537" x="526" y="597.3633">searchByCategoryOrKeyword(searchTerm: String): Iterable&lt;Figure&gt;</text></g><!--class FigureRepository--><g id="elem_FigureRepository"><rect codeLine="39" fill="#F1F1F1" height="66.6211" id="FigureRepository" rx="2.5" ry="2.5" style="stroke:#181818;stroke-width:0.5;" width="450.0537" x="505" y="665.0137"/><ellipse cx="672.4771" cy="681.0137" fill="#B4A7E5" rx="11" ry="11" style="stroke:#181818;stroke-width:1.0;"/><path d="M673.4302,677.6543 L673.4302,684.3105 L675.1489,684.3105 Q675.7583,684.3105 676.0239,684.5449 Q676.2896,684.7793 676.2896,685.1699 Q676.2896,685.5449 676.0239,685.7793 Q675.7583,686.0137 675.1489,686.0137 L670.0083,686.0137 Q669.3989,686.0137 669.1333,685.7793 Q668.8677,685.5449 668.8677,685.1543 Q668.8677,684.7793 669.1333,684.5449 Q669.3989,684.3105 670.0083,684.3105 L671.7271,684.3105 L671.7271,677.6543 L670.0083,677.6543 Q669.3989,677.6543 669.1333,677.4199 Q668.8677,677.1855 668.8677,676.7949 Q668.8677,676.4199 669.1333,676.1855 Q669.3989,675.9512 670.0083,675.9512 L675.1489,675.9512 Q675.7583,675.9512 676.0239,676.1855 Q676.2896,676.4199 676.2896,676.7949 Q676.2896,677.1855 676.0239,677.4199 Q675.7583,677.6543 675.1489,677.6543 L673.4302,677.6543 Z " fill="#000000"/><text fill="#000000" font-family="sans-serif" font-size="14" font-style="italic" lengthAdjust="spacing" textLength="106.5996" x="692.9771" y="686.8105">FigureRepository</text><line style="stroke:#181818;stroke-width:0.5;" x1="506" x2="954.0537" y1="697.0137" y2="697.0137"/><line style="stroke:#181818;stroke-width:0.5;" x1="506" x2="954.0537" y1="705.0137" y2="705.0137"/><ellipse cx="516" cy="719.8242" fill="#84BE84" rx="3" ry="3" style="stroke:#038048;stroke-width:1.0;"/><text fill="#000000" font-family="sans-serif" font-size="14" lengthAdjust="spacing" textLength="424.0537" x="525" y="724.1211">searchByCategoryOrKeyword(searchTerm: String): Iterable&lt;Figure&gt;</text></g><!--class JpaFigureRepository--><g id="elem_JpaFigureRepository"><rect codeLine="43" fill="#F1F1F1" height="85.2422" id="JpaFigureRepository" rx="2.5" ry="2.5" style="stroke:#181818;stroke-width:0.5;" width="450.0537" x="22" y="792.0137"/><ellipse cx="178.1909" cy="808.0137" fill="#ADD1B2" rx="11" ry="11" style="stroke:#181818;stroke-width:1.0;"/><path d="M180.9565,803.8887 Q181.1128,803.6699 181.3003,803.5605 Q181.4878,803.4512 181.7065,803.4512 Q182.0815,803.4512 182.3159,803.7168 Q182.5503,803.9668 182.5503,804.5762 L182.5503,806.0293 Q182.5503,806.6387 182.3159,806.9043 Q182.0815,807.1699 181.7065,807.1699 Q181.3628,807.1699 181.1597,806.9668 Q180.9565,806.7793 180.8472,806.2637 Q180.8003,805.9043 180.6128,805.7168 Q180.2847,805.3418 179.6753,805.123 Q179.0659,804.9043 178.4409,804.9043 Q177.6753,804.9043 177.0347,805.2324 Q176.4097,805.5605 175.9097,806.3105 Q175.4253,807.0605 175.4253,808.0918 L175.4253,809.1855 Q175.4253,810.4199 176.3159,811.248 Q177.2065,812.0605 178.8003,812.0605 Q179.7378,812.0605 180.394,811.8105 Q180.7847,811.6543 181.2065,811.2168 Q181.4722,810.9512 181.6128,810.873 Q181.769,810.7949 181.9722,810.7949 Q182.3003,810.7949 182.5503,811.0605 Q182.8159,811.3105 182.8159,811.6543 Q182.8159,811.998 182.4722,812.4043 Q181.9722,812.9824 181.1753,813.3105 Q180.0972,813.7637 178.8003,813.7637 Q177.2847,813.7637 176.0815,813.1387 Q175.0972,812.6387 174.4097,811.5762 Q173.7222,810.498 173.7222,809.2168 L173.7222,808.0605 Q173.7222,806.7324 174.3315,805.5918 Q174.9565,804.4355 176.0503,803.8262 Q177.144,803.2012 178.3784,803.2012 Q179.1128,803.2012 179.7534,803.373 Q180.4097,803.5293 180.9565,803.8887 Z " fill="#000000"/><text fill="#000000" font-family="sans-serif" font-size="14" lengthAdjust="spacing" textLength="129.1719" x="198.6909" y="813.8105">JpaFigureRepository</text><line style="stroke:#181818;stroke-width:0.5;" x1="23" x2="471.0537" y1="824.0137" y2="824.0137"/><rect fill="none" height="6" style="stroke:#C82930;stroke-width:1.0;" width="6" x="30" y="835.8242"/><text fill="#000000" font-family="sans-serif" font-size="14" lengthAdjust="spacing" textLength="186.7646" x="42" y="843.1211">entityManager: EntityManager</text><line style="stroke:#181818;stroke-width:0.5;" x1="23" x2="471.0537" y1="850.6348" y2="850.6348"/><ellipse cx="33" cy="865.4453" fill="#84BE84" rx="3" ry="3" style="stroke:#038048;stroke-width:1.0;"/><text fill="#000000" font-family="sans-serif" font-size="14" lengthAdjust="spacing" textLength="424.0537" x="42" y="869.7422">searchByCategoryOrKeyword(searchTerm: String): Iterable&lt;Figure&gt;</text></g><!--class InMemoryFigureRepository--><g id="elem_InMemoryFigureRepository"><rect codeLine="48" fill="#F1F1F1" height="85.2422" id="InMemoryFigureRepository" rx="2.5" ry="2.5" style="stroke:#181818;stroke-width:0.5;" width="450.0537" x="507" y="792.0137"/><ellipse cx="643.3599" cy="808.0137" fill="#ADD1B2" rx="11" ry="11" style="stroke:#181818;stroke-width:1.0;"/><path d="M646.1255,803.8887 Q646.2817,803.6699 646.4692,803.5605 Q646.6567,803.4512 646.8755,803.4512 Q647.2505,803.4512 647.4849,803.7168 Q647.7192,803.9668 647.7192,804.5762 L647.7192,806.0293 Q647.7192,806.6387 647.4849,806.9043 Q647.2505,807.1699 646.8755,807.1699 Q646.5317,807.1699 646.3286,806.9668 Q646.1255,806.7793 646.0161,806.2637 Q645.9692,805.9043 645.7817,805.7168 Q645.4536,805.3418 644.8442,805.123 Q644.2349,804.9043 643.6099,804.9043 Q642.8442,804.9043 642.2036,805.2324 Q641.5786,805.5605 641.0786,806.3105 Q640.5942,807.0605 640.5942,808.0918 L640.5942,809.1855 Q640.5942,810.4199 641.4849,811.248 Q642.3755,812.0605 643.9692,812.0605 Q644.9067,812.0605 645.563,811.8105 Q645.9536,811.6543 646.3755,811.2168 Q646.6411,810.9512 646.7817,810.873 Q646.938,810.7949 647.1411,810.7949 Q647.4692,810.7949 647.7192,811.0605 Q647.9849,811.3105 647.9849,811.6543 Q647.9849,811.998 647.6411,812.4043 Q647.1411,812.9824 646.3442,813.3105 Q645.2661,813.7637 643.9692,813.7637 Q642.4536,813.7637 641.2505,813.1387 Q640.2661,812.6387 639.5786,811.5762 Q638.8911,810.498 638.8911,809.2168 L638.8911,808.0605 Q638.8911,806.7324 639.5005,805.5918 Q640.1255,804.4355 641.2192,803.8262 Q642.313,803.2012 643.5474,803.2012 Q644.2817,803.2012 644.9224,803.373 Q645.5786,803.5293 646.1255,803.8887 Z " fill="#000000"/><text fill="#000000" font-family="sans-serif" font-size="14" lengthAdjust="spacing" textLength="168.834" x="663.8599" y="813.8105">InMemoryFigureRepository</text><line style="stroke:#181818;stroke-width:0.5;" x1="508" x2="956.0537" y1="824.0137" y2="824.0137"/><rect fill="none" height="6" style="stroke:#C82930;stroke-width:1.0;" width="6" x="515" y="835.8242"/><text fill="#000000" font-family="sans-serif" font-size="14" lengthAdjust="spacing" textLength="126.8477" x="527" y="843.1211">figures: Set&lt;Figure&gt;</text><line style="stroke:#181818;stroke-width:0.5;" x1="508" x2="956.0537" y1="850.6348" y2="850.6348"/><ellipse cx="518" cy="865.4453" fill="#84BE84" rx="3" ry="3" style="stroke:#038048;stroke-width:1.0;"/><text fill="#000000" font-family="sans-serif" font-size="14" lengthAdjust="spacing" textLength="424.0537" x="527" y="869.7422">searchByCategoryOrKeyword(searchTerm: String): Iterable&lt;Figure&gt;</text></g><!--class AuthorizationService--><g id="elem_AuthorizationService"><rect fill="#F1F1F1" height="48" id="AuthorizationService" rx="2.5" ry="2.5" style="stroke:#181818;stroke-width:0.5;" width="160.3994" x="990" y="674.5137"/><ellipse cx="1005" cy="690.5137" fill="#ADD1B2" rx="11" ry="11" style="stroke:#181818;stroke-width:1.0;"/><path d="M1007.7656,686.3887 Q1007.9219,686.1699 1008.1094,686.0605 Q1008.2969,685.9512 1008.5156,685.9512 Q1008.8906,685.9512 1009.125,686.2168 Q1009.3594,686.4668 1009.3594,687.0762 L1009.3594,688.5293 Q1009.3594,689.1387 1009.125,689.4043 Q1008.8906,689.6699 1008.5156,689.6699 Q1008.1719,689.6699 1007.9688,689.4668 Q1007.7656,689.2793 1007.6563,688.7637 Q1007.6094,688.4043 1007.4219,688.2168 Q1007.0938,687.8418 1006.4844,687.623 Q1005.875,687.4043 1005.25,687.4043 Q1004.4844,687.4043 1003.8438,687.7324 Q1003.2188,688.0605 1002.7188,688.8105 Q1002.2344,689.5605 1002.2344,690.5918 L1002.2344,691.6855 Q1002.2344,692.9199 1003.125,693.748 Q1004.0156,694.5605 1005.6094,694.5605 Q1006.5469,694.5605 1007.2031,694.3105 Q1007.5938,694.1543 1008.0156,693.7168 Q1008.2813,693.4512 1008.4219,693.373 Q1008.5781,693.2949 1008.7813,693.2949 Q1009.1094,693.2949 1009.3594,693.5605 Q1009.625,693.8105 1009.625,694.1543 Q1009.625,694.498 1009.2813,694.9043 Q1008.7813,695.4824 1007.9844,695.8105 Q1006.9063,696.2637 1005.6094,696.2637 Q1004.0938,696.2637 1002.8906,695.6387 Q1001.9063,695.1387 1001.2188,694.0762 Q1000.5313,692.998 1000.5313,691.7168 L1000.5313,690.5605 Q1000.5313,689.2324 1001.1406,688.0918 Q1001.7656,686.9355 1002.8594,686.3262 Q1003.9531,685.7012 1005.1875,685.7012 Q1005.9219,685.7012 1006.5625,685.873 Q1007.2188,686.0293 1007.7656,686.3887 Z " fill="#000000"/><text fill="#000000" font-family="sans-serif" font-size="14" lengthAdjust="spacing" textLength="128.3994" x="1019" y="696.3105">AuthorizationService</text><line style="stroke:#181818;stroke-width:0.5;" x1="991" x2="1149.3994" y1="706.5137" y2="706.5137"/><line style="stroke:#181818;stroke-width:0.5;" x1="991" x2="1149.3994" y1="714.5137" y2="714.5137"/></g><!--link SearchFigureCatalogueUI to FigureController--><g id="link_SearchFigureCatalogueUI_FigureController"><path codeLine="54" d="M731,203.2437 C731,243.7737 731,293.6637 731,331.4537 " fill="none" id="SearchFigureCatalogueUI-to-FigureController" style="stroke:#181818;stroke-width:1.0;"/><polygon fill="#181818" points="731,337.4537,735,328.4537,731,332.4537,727,328.4537,731,337.4537" style="stroke:#181818;stroke-width:1.0;"/></g><!--link FigureController to FigureService--><g id="link_FigureController_FigureService"><path codeLine="55" d="M731,422.8437 C731,446.3737 731,469.9437 731,494.8437 " fill="none" id="FigureController-to-FigureService" style="stroke:#181818;stroke-width:1.0;"/><polygon fill="#181818" points="731,500.8437,735,491.8437,731,495.8437,727,491.8437,731,500.8437" style="stroke:#181818;stroke-width:1.0;"/></g><!--link FigureService to FigureRepository--><g id="link_FigureService_FigureRepository"><path codeLine="56" d="M730.64,605.4137 C730.5,625.2037 730.391,641.2338 730.271,658.7838 " fill="none" id="FigureService-to-FigureRepository" style="stroke:#181818;stroke-width:1.0;"/><polygon fill="#181818" points="730.23,664.7837,734.2914,655.8112,730.2642,659.7838,726.2916,655.7565,730.23,664.7837" style="stroke:#181818;stroke-width:1.0;"/></g><!--link FigureService to AuthorizationService--><g id="link_FigureService_AuthorizationService"><path codeLine="57" d="M851.95,605.2137 C907.85,628.8737 965.9247,653.4546 1009.9547,672.0946 " fill="none" id="FigureService-to-AuthorizationService" style="stroke:#181818;stroke-width:1.0;"/><polygon fill="#181818" points="1015.48,674.4337,1008.7515,667.2415,1010.8756,672.4844,1005.6327,674.6085,1015.48,674.4337" style="stroke:#181818;stroke-width:1.0;"/></g><!--link Figure to FigureCategory--><g id="link_Figure_FigureCategory"><path codeLine="58" d="M280,259.2037 C280,279.7437 280,300.5737 280,318.9737 " fill="none" id="Figure-FigureCategory" style="stroke:#181818;stroke-width:1.0;"/><text fill="#000000" font-family="sans-serif" font-size="13" lengthAdjust="spacing" textLength="7.23" x="272.7686" y="280.7299">1</text><text fill="#000000" font-family="sans-serif" font-size="13" lengthAdjust="spacing" textLength="7.23" x="272.6054" y="307.9503">1</text></g><!--reverse link FigureRepository to JpaFigureRepository--><g id="link_FigureRepository_JpaFigureRepository"><path codeLine="59" d="M595.4251,736.8455 C530.5051,754.8555 466.47,772.6237 396.96,791.9137 " fill="none" id="FigureRepository-backto-JpaFigureRepository" style="stroke:#181818;stroke-width:1.0;stroke-dasharray:7.0,7.0;"/><polygon fill="none" points="612.77,732.0337,593.8211,731.0638,597.029,742.6271,612.77,732.0337" style="stroke:#181818;stroke-width:1.0;"/></g><!--reverse link FigureRepository to InMemoryFigureRepository--><g id="link_FigureRepository_InMemoryFigureRepository"><path codeLine="60" d="M730.7603,750.2916 C731.0303,768.2716 731.09,772.7337 731.38,791.9337 " fill="none" id="FigureRepository-backto-InMemoryFigureRepository" style="stroke:#181818;stroke-width:1.0;stroke-dasharray:7.0,7.0;"/><polygon fill="none" points="730.49,732.2937,724.7609,750.3817,736.7596,750.2016,730.49,732.2937" style="stroke:#181818;stroke-width:1.0;"/></g><!--SRC=[jLJHQi8m57ttAu9FbQAmroA26nkuJGPs-u1hlRR1cfGaLUgsVrzgcXfRAuovlgJfFRddt9lJcq6qWHX9_ud6kK0o1wQtMsIgJpvxH3zH2bAI4454YG4zW8AKnpb-p2fC-GmZpfJWQOeY81Mm_bAZV9dmlJSudLfHcQLGcFmBb7cgfBS-7fS1cIaKi4nnR19EpC7ldgEi4ku8eQk0l78MEoGe8q4pHJaBIAW4TOCRBFPSh3HRY6fieXEdB50OSr7KHLLxXqzE8qLt690bvoa2ErMRW7mnwRsAnl8FBg0jbJVe9FETKafOenXVSVEb4RlGCPlQxHo3BRORTArxVddaZq9gbxXIZ0L253iQeMr7jNNSTBIDPvPt55kdlKtlTF5NILroWHctd0lzBgawkt78LN88o5GlND03bAtfq7PVs4Q_2Mk5NykbJ0VNe4KsDJcgRqbe-lESmHM-eHuIL1LcOkX__j7T_gEg6PlZLYUw9gqU8EKlxMQweIGjgcig3eUJzWXikVs4ijuvD-GfxdYm3Rdemcegzk_w6dDS6WEbrRtnrsXqwSOxa5stqFi1]--></g></svg>