<svg xmlns="http://www.w3.org/2000/svg" xmlns:xlink="http://www.w3.org/1999/xlink" contentStyleType="text/css" height="1940px" preserveAspectRatio="none" style="width:2044px;height:1940px;background:#FFFFFF;" version="1.1" viewBox="0 0 2044 1940" width="2044px" zoomAndPan="magnify"><defs/><g><rect fill="#FFFFFF" height="1745.2773" style="stroke:#181818;stroke-width:1.0;" width="10" x="74.0171" y="93.6211"/><rect fill="#FFFFFF" height="48.582" style="stroke:#181818;stroke-width:1.0;" width="10" x="380.8213" y="116.9121"/><rect fill="#FFFFFF" height="156.4551" style="stroke:#181818;stroke-width:1.0;" width="10" x="380.8213" y="196.7852"/><rect fill="#FFFFFF" height="31.291" style="stroke:#181818;stroke-width:1.0;" width="10" x="380.8213" y="384.5313"/><rect fill="#FFFFFF" height="93.873" style="stroke:#181818;stroke-width:1.0;" width="10" x="380.8213" y="473.4043"/><rect fill="#FFFFFF" height="1202.0391" style="stroke:#181818;stroke-width:1.0;" width="10" x="380.8213" y="636.8594"/><rect fill="#FFFFFF" height="31.291" style="stroke:#181818;stroke-width:1.0;" width="10" x="588.6865" y="504.6953"/><rect fill="#FFFFFF" height="93.873" style="stroke:#181818;stroke-width:1.0;" width="10" x="807.5854" y="228.0762"/><rect fill="#FFFFFF" height="1122.166" style="stroke:#181818;stroke-width:1.0;" width="10" x="807.5854" y="685.4414"/><rect fill="#FFFFFF" height="31.291" style="stroke:#181818;stroke-width:1.0;" width="10" x="1016.8599" y="259.3672"/><rect fill="#FFFFFF" height="93.873" style="stroke:#181818;stroke-width:1.0;" width="10" x="1016.8599" y="1682.4434"/><rect fill="#FFFFFF" height="31.291" style="stroke:#181818;stroke-width:1.0;" width="10" x="1156.0112" y="991.6816"/><rect fill="#FFFFFF" height="202.4063" style="stroke:#181818;stroke-width:1.0;" width="10" x="1293.6108" y="1448.7461"/><rect fill="#FFFFFF" height="93.5332" style="stroke:#181818;stroke-width:1.0;" width="10" x="1442.5034" y="1285.6309"/><rect fill="#FFFFFF" height="137.8242" style="stroke:#181818;stroke-width:1.0;" width="10" x="1569.6064" y="1490.0371"/><rect fill="#FFFFFF" height="36.291" style="stroke:#181818;stroke-width:1.0;" width="10" x="1574.6064" y="1576.5703"/><rect fill="#FFFFFF" height="31.291" style="stroke:#181818;stroke-width:1.0;" width="10" x="1961.0054" y="1713.7344"/><rect fill="none" height="175.7461" style="stroke:#000000;stroke-width:1.5;" width="616.2417" x="10" y="430.8223"/><rect fill="none" height="486.6465" style="stroke:#000000;stroke-width:1.5;" width="1173.1475" x="720.1133" y="931.8086"/><rect fill="none" height="94.873" style="stroke:#000000;stroke-width:1.5;" width="367.9404" x="1525.3203" y="1525.9883"/><line style="stroke:#181818;stroke-width:0.5;stroke-dasharray:5.0,5.0;" x1="79" x2="79" y1="83.6211" y2="1856.8984"/><line style="stroke:#181818;stroke-width:0.5;stroke-dasharray:5.0,5.0;" x1="385.6938" x2="385.6938" y1="83.6211" y2="1856.8984"/><line style="stroke:#181818;stroke-width:0.5;stroke-dasharray:5.0,5.0;" x1="593.1313" x2="593.1313" y1="83.6211" y2="1856.8984"/><line style="stroke:#181818;stroke-width:0.5;stroke-dasharray:5.0,5.0;" x1="812.1133" x2="812.1133" y1="83.6211" y2="1856.8984"/><line style="stroke:#181818;stroke-width:0.5;stroke-dasharray:5.0,5.0;" x1="1021.2324" x2="1021.2324" y1="83.6211" y2="1856.8984"/><line style="stroke:#181818;stroke-width:0.5;stroke-dasharray:5.0,5.0;" x1="1160.4873" x2="1160.4873" y1="83.6211" y2="1856.8984"/><line style="stroke:#181818;stroke-width:0.5;stroke-dasharray:5.0,5.0;" x1="1298.5352" x2="1298.5352" y1="725.252" y2="1856.8984"/><line style="stroke:#181818;stroke-width:0.5;stroke-dasharray:5.0,5.0;" x1="1446.6865" x2="1446.6865" y1="1062.7832" y2="1856.8984"/><line style="stroke:#181818;stroke-width:0.5;stroke-dasharray:5.0,5.0;" x1="1574.3203" x2="1574.3203" y1="1497.8672" y2="1856.8984"/><line style="stroke:#181818;stroke-width:0.5;stroke-dasharray:5.0,5.0;" x1="1827.2061" x2="1827.2061" y1="1334.752" y2="1856.8984"/><line style="stroke:#181818;stroke-width:0.5;stroke-dasharray:5.0,5.0;" x1="1965.2607" x2="1965.2607" y1="83.6211" y2="1856.8984"/><text fill="#000000" font-family="sans-serif" font-size="14" lengthAdjust="spacing" textLength="112.0342" x="20" y="80.1074">CRM Collaborator</text><ellipse cx="79.0171" cy="13.5" fill="#E2E2F0" rx="8" ry="8" style="stroke:#181818;stroke-width:0.5;"/><path d="M79.0171,21.5 L79.0171,48.5 M66.0171,29.5 L92.0171,29.5 M79.0171,48.5 L66.0171,63.5 M79.0171,48.5 L92.0171,63.5 " fill="none" style="stroke:#181818;stroke-width:0.5;"/><text fill="#000000" font-family="sans-serif" font-size="14" lengthAdjust="spacing" textLength="112.0342" x="20" y="1871.0059">CRM Collaborator</text><ellipse cx="79.0171" cy="1883.0195" fill="#E2E2F0" rx="8" ry="8" style="stroke:#181818;stroke-width:0.5;"/><path d="M79.0171,1891.0195 L79.0171,1918.0195 M66.0171,1899.0195 L92.0171,1899.0195 M79.0171,1918.0195 L66.0171,1933.0195 M79.0171,1918.0195 L92.0171,1933.0195 " fill="none" style="stroke:#181818;stroke-width:0.5;"/><rect fill="#E2E2F0" height="32.6211" rx="2.5" ry="2.5" style="stroke:#181818;stroke-width:0.5;" width="118.2549" x="326.6938" y="50"/><text fill="#000000" font-family="sans-serif" font-size="14" lengthAdjust="spacing" textLength="104.2549" x="333.6938" y="72.1074">:RegCustomerUI</text><rect fill="#E2E2F0" height="32.6211" rx="2.5" ry="2.5" style="stroke:#181818;stroke-width:0.5;" width="118.2549" x="326.6938" y="1855.8984"/><text fill="#000000" font-family="sans-serif" font-size="14" lengthAdjust="spacing" textLength="104.2549" x="333.6938" y="1878.0059">:RegCustomerUI</text><rect fill="#E2E2F0" height="32.6211" rx="2.5" ry="2.5" style="stroke:#181818;stroke-width:0.5;" width="45.1104" x="571.1313" y="50"/><text fill="#000000" font-family="sans-serif" font-size="14" lengthAdjust="spacing" textLength="31.1104" x="578.1313" y="72.1074">:Utils</text><rect fill="#E2E2F0" height="32.6211" rx="2.5" ry="2.5" style="stroke:#181818;stroke-width:0.5;" width="45.1104" x="571.1313" y="1855.8984"/><text fill="#000000" font-family="sans-serif" font-size="14" lengthAdjust="spacing" textLength="31.1104" x="578.1313" y="1878.0059">:Utils</text><rect fill="#E2E2F0" height="32.6211" rx="2.5" ry="2.5" style="stroke:#181818;stroke-width:0.5;" width="164.9443" x="730.1133" y="50"/><text fill="#000000" font-family="sans-serif" font-size="14" lengthAdjust="spacing" textLength="150.9443" x="737.1133" y="72.1074">:RegCustomerController</text><rect fill="#E2E2F0" height="32.6211" rx="2.5" ry="2.5" style="stroke:#181818;stroke-width:0.5;" width="164.9443" x="730.1133" y="1855.8984"/><text fill="#000000" font-family="sans-serif" font-size="14" lengthAdjust="spacing" textLength="150.9443" x="737.1133" y="1878.0059">:RegCustomerController</text><rect fill="#E2E2F0" height="32.6211" rx="2.5" ry="2.5" style="stroke:#181818;stroke-width:0.5;" width="125.2549" x="959.2324" y="50"/><text fill="#000000" font-family="sans-serif" font-size="14" lengthAdjust="spacing" textLength="111.2549" x="966.2324" y="72.1074">:CustomerService</text><rect fill="#E2E2F0" height="32.6211" rx="2.5" ry="2.5" style="stroke:#181818;stroke-width:0.5;" width="125.2549" x="959.2324" y="1855.8984"/><text fill="#000000" font-family="sans-serif" font-size="14" lengthAdjust="spacing" textLength="111.2549" x="966.2324" y="1878.0059">:CustomerService</text><rect fill="#E2E2F0" height="32.6211" rx="2.5" ry="2.5" style="stroke:#181818;stroke-width:0.5;" width="133.0479" x="1094.4873" y="50"/><text fill="#000000" font-family="sans-serif" font-size="14" lengthAdjust="spacing" textLength="119.0479" x="1101.4873" y="72.1074">:AddUserController</text><rect fill="#E2E2F0" height="32.6211" rx="2.5" ry="2.5" style="stroke:#181818;stroke-width:0.5;" width="133.0479" x="1094.4873" y="1855.8984"/><text fill="#000000" font-family="sans-serif" font-size="14" lengthAdjust="spacing" textLength="119.0479" x="1101.4873" y="1878.0059">:AddUserController</text><rect fill="#E2E2F0" height="32.6211" rx="2.5" ry="2.5" style="stroke:#181818;stroke-width:0.5;" width="122.1514" x="1237.5352" y="1855.8984"/><text fill="#000000" font-family="sans-serif" font-size="14" lengthAdjust="spacing" textLength="108.1514" x="1244.5352" y="1878.0059">:CustomerBuilder</text><rect fill="#E2E2F0" height="32.6211" rx="2.5" ry="2.5" style="stroke:#181818;stroke-width:0.5;" width="155.6338" x="1369.6865" y="1855.8984"/><text fill="#000000" font-family="sans-serif" font-size="14" lengthAdjust="spacing" textLength="141.6338" x="1376.6865" y="1878.0059">:RepresentativeBuilder</text><rect fill="#E2E2F0" height="51.2422" rx="2.5" ry="2.5" style="stroke:#181818;stroke-width:0.5;" width="78.5723" x="1535.3203" y="1855.8984"/><text fill="#000000" font-family="sans-serif" font-size="14" lengthAdjust="spacing" textLength="57.5723" x="1545.8203" y="1878.0059">customer</text><text fill="#000000" font-family="sans-serif" font-size="14" lengthAdjust="spacing" textLength="64.5723" x="1542.3203" y="1896.627">:Customer</text><rect fill="#E2E2F0" height="51.2422" rx="2.5" ry="2.5" style="stroke:#181818;stroke-width:0.5;" width="112.0547" x="1771.2061" y="1855.8984"/><text fill="#000000" font-family="sans-serif" font-size="14" lengthAdjust="spacing" textLength="88.7168" x="1782.875" y="1878.0059">representative</text><text fill="#000000" font-family="sans-serif" font-size="14" lengthAdjust="spacing" textLength="98.0547" x="1778.2061" y="1896.627">:Representative</text><rect fill="#E2E2F0" height="51.2422" rx="2.5" ry="2.5" style="stroke:#181818;stroke-width:0.5;" width="145.4893" x="1893.2607" y="31.3789"/><text fill="#000000" font-family="sans-serif" font-size="14" lengthAdjust="spacing" textLength="124.4893" x="1903.7607" y="53.4863">customerRepository</text><text fill="#000000" font-family="sans-serif" font-size="14" lengthAdjust="spacing" textLength="131.4893" x="1900.2607" y="72.1074">:CustomerRepository</text><rect fill="#E2E2F0" height="51.2422" rx="2.5" ry="2.5" style="stroke:#181818;stroke-width:0.5;" width="145.4893" x="1893.2607" y="1855.8984"/><text fill="#000000" font-family="sans-serif" font-size="14" lengthAdjust="spacing" textLength="124.4893" x="1903.7607" y="1878.0059">customerRepository</text><text fill="#000000" font-family="sans-serif" font-size="14" lengthAdjust="spacing" textLength="131.4893" x="1900.2607" y="1896.627">:CustomerRepository</text><rect fill="#FFFFFF" height="1745.2773" style="stroke:#181818;stroke-width:1.0;" width="10" x="74.0171" y="93.6211"/><rect fill="#FFFFFF" height="48.582" style="stroke:#181818;stroke-width:1.0;" width="10" x="380.8213" y="116.9121"/><rect fill="#FFFFFF" height="156.4551" style="stroke:#181818;stroke-width:1.0;" width="10" x="380.8213" y="196.7852"/><rect fill="#FFFFFF" height="31.291" style="stroke:#181818;stroke-width:1.0;" width="10" x="380.8213" y="384.5313"/><rect fill="#FFFFFF" height="93.873" style="stroke:#181818;stroke-width:1.0;" width="10" x="380.8213" y="473.4043"/><rect fill="#FFFFFF" height="1202.0391" style="stroke:#181818;stroke-width:1.0;" width="10" x="380.8213" y="636.8594"/><rect fill="#FFFFFF" height="31.291" style="stroke:#181818;stroke-width:1.0;" width="10" x="588.6865" y="504.6953"/><rect fill="#FFFFFF" height="93.873" style="stroke:#181818;stroke-width:1.0;" width="10" x="807.5854" y="228.0762"/><rect fill="#FFFFFF" height="1122.166" style="stroke:#181818;stroke-width:1.0;" width="10" x="807.5854" y="685.4414"/><rect fill="#FFFFFF" height="31.291" style="stroke:#181818;stroke-width:1.0;" width="10" x="1016.8599" y="259.3672"/><rect fill="#FFFFFF" height="93.873" style="stroke:#181818;stroke-width:1.0;" width="10" x="1016.8599" y="1682.4434"/><rect fill="#FFFFFF" height="31.291" style="stroke:#181818;stroke-width:1.0;" width="10" x="1156.0112" y="991.6816"/><rect fill="#FFFFFF" height="202.4063" style="stroke:#181818;stroke-width:1.0;" width="10" x="1293.6108" y="1448.7461"/><rect fill="#FFFFFF" height="93.5332" style="stroke:#181818;stroke-width:1.0;" width="10" x="1442.5034" y="1285.6309"/><rect fill="#FFFFFF" height="137.8242" style="stroke:#181818;stroke-width:1.0;" width="10" x="1569.6064" y="1490.0371"/><rect fill="#FFFFFF" height="36.291" style="stroke:#181818;stroke-width:1.0;" width="10" x="1574.6064" y="1576.5703"/><rect fill="#FFFFFF" height="31.291" style="stroke:#181818;stroke-width:1.0;" width="10" x="1961.0054" y="1713.7344"/><polygon fill="#181818" points="368.8213,112.9121,378.8213,116.9121,368.8213,120.9121,372.8213,116.9121" style="stroke:#181818;stroke-width:1.0;"/><line style="stroke:#181818;stroke-width:1.0;" x1="84.0171" x2="374.8213" y1="116.9121" y2="116.9121"/><text fill="#000000" font-family="sans-serif" font-size="13" font-weight="bold" lengthAdjust="spacing" textLength="7.23" x="91.0171" y="111.6494">1</text><text fill="#000000" font-family="sans-serif" font-size="13" lengthAdjust="spacing" textLength="183.5171" x="102.2471" y="111.6494">asks to register a new customer</text><polygon fill="#181818" points="95.0171,161.4941,85.0171,165.4941,95.0171,169.4941,91.0171,165.4941" style="stroke:#181818;stroke-width:1.0;"/><line style="stroke:#181818;stroke-width:1.0;stroke-dasharray:2.0,2.0;" x1="89.0171" x2="384.8213" y1="165.4941" y2="165.4941"/><text fill="#000000" font-family="sans-serif" font-size="13" font-weight="bold" lengthAdjust="spacing" textLength="7.23" x="101.0171" y="151.5859">2</text><text fill="#000000" font-family="sans-serif" font-size="13" lengthAdjust="spacing" textLength="212.4243" x="112.2471" y="142.9404">requests customer data (VAT, name,</text><text fill="#000000" font-family="sans-serif" font-size="13" lengthAdjust="spacing" textLength="173.4307" x="112.2471" y="160.2314">email, phone, address details)</text><polygon fill="#181818" points="368.8213,192.7852,378.8213,196.7852,368.8213,200.7852,372.8213,196.7852" style="stroke:#181818;stroke-width:1.0;"/><line style="stroke:#181818;stroke-width:1.0;" x1="84.0171" x2="374.8213" y1="196.7852" y2="196.7852"/><text fill="#000000" font-family="sans-serif" font-size="13" font-weight="bold" lengthAdjust="spacing" textLength="7.23" x="91.0171" y="191.5225">3</text><text fill="#000000" font-family="sans-serif" font-size="13" lengthAdjust="spacing" textLength="120.6753" x="102.2471" y="191.5225">inputs customer data</text><polygon fill="#181818" points="795.5854,224.0762,805.5854,228.0762,795.5854,232.0762,799.5854,228.0762" style="stroke:#181818;stroke-width:1.0;"/><line style="stroke:#181818;stroke-width:1.0;" x1="390.8213" x2="801.5854" y1="228.0762" y2="228.0762"/><text fill="#000000" font-family="sans-serif" font-size="13" font-weight="bold" lengthAdjust="spacing" textLength="7.23" x="397.8213" y="222.8135">4</text><text fill="#000000" font-family="sans-serif" font-size="13" lengthAdjust="spacing" textLength="118.479" x="409.0513" y="222.8135">getCustomerTypes()</text><polygon fill="#181818" points="1004.8599,255.3672,1014.8599,259.3672,1004.8599,263.3672,1008.8599,259.3672" style="stroke:#181818;stroke-width:1.0;"/><line style="stroke:#181818;stroke-width:1.0;" x1="817.5854" x2="1010.8599" y1="259.3672" y2="259.3672"/><text fill="#000000" font-family="sans-serif" font-size="13" font-weight="bold" lengthAdjust="spacing" textLength="7.23" x="824.5854" y="254.1045">5</text><text fill="#000000" font-family="sans-serif" font-size="13" lengthAdjust="spacing" textLength="118.479" x="835.8154" y="254.1045">getCustomerTypes()</text><polygon fill="#181818" points="828.5854,286.6582,818.5854,290.6582,828.5854,294.6582,824.5854,290.6582" style="stroke:#181818;stroke-width:1.0;"/><line style="stroke:#181818;stroke-width:1.0;stroke-dasharray:2.0,2.0;" x1="822.5854" x2="1020.8599" y1="290.6582" y2="290.6582"/><text fill="#000000" font-family="sans-serif" font-size="13" font-weight="bold" lengthAdjust="spacing" textLength="7.23" x="834.5854" y="285.3955">6</text><text fill="#000000" font-family="sans-serif" font-size="13" lengthAdjust="spacing" textLength="88.8608" x="845.8154" y="285.3955">customerTypes</text><polygon fill="#181818" points="401.8213,317.9492,391.8213,321.9492,401.8213,325.9492,397.8213,321.9492" style="stroke:#181818;stroke-width:1.0;"/><line style="stroke:#181818;stroke-width:1.0;stroke-dasharray:2.0,2.0;" x1="395.8213" x2="811.5854" y1="321.9492" y2="321.9492"/><text fill="#000000" font-family="sans-serif" font-size="13" font-weight="bold" lengthAdjust="spacing" textLength="7.23" x="407.8213" y="316.6865">7</text><text fill="#000000" font-family="sans-serif" font-size="13" lengthAdjust="spacing" textLength="88.8608" x="419.0513" y="316.6865">customerTypes</text><polygon fill="#181818" points="95.0171,349.2402,85.0171,353.2402,95.0171,357.2402,91.0171,353.2402" style="stroke:#181818;stroke-width:1.0;"/><line style="stroke:#181818;stroke-width:1.0;stroke-dasharray:2.0,2.0;" x1="89.0171" x2="384.8213" y1="353.2402" y2="353.2402"/><text fill="#000000" font-family="sans-serif" font-size="13" font-weight="bold" lengthAdjust="spacing" textLength="7.23" x="101.0171" y="347.9775">8</text><text fill="#000000" font-family="sans-serif" font-size="13" lengthAdjust="spacing" textLength="261.5742" x="112.2471" y="347.9775">shows customer types and asks to select one</text><polygon fill="#181818" points="368.8213,380.5313,378.8213,384.5313,368.8213,388.5313,372.8213,384.5313" style="stroke:#181818;stroke-width:1.0;"/><line style="stroke:#181818;stroke-width:1.0;" x1="84.0171" x2="374.8213" y1="384.5313" y2="384.5313"/><text fill="#000000" font-family="sans-serif" font-size="13" font-weight="bold" lengthAdjust="spacing" textLength="7.23" x="91.0171" y="379.2686">9</text><text fill="#000000" font-family="sans-serif" font-size="13" lengthAdjust="spacing" textLength="125.7153" x="102.2471" y="379.2686">selects customer type</text><polygon fill="#181818" points="95.0171,411.8223,85.0171,415.8223,95.0171,419.8223,91.0171,415.8223" style="stroke:#181818;stroke-width:1.0;"/><line style="stroke:#181818;stroke-width:1.0;stroke-dasharray:2.0,2.0;" x1="89.0171" x2="384.8213" y1="415.8223" y2="415.8223"/><text fill="#000000" font-family="sans-serif" font-size="13" font-weight="bold" lengthAdjust="spacing" textLength="14.46" x="101.0171" y="410.5596">10</text><text fill="#000000" font-family="sans-serif" font-size="13" lengthAdjust="spacing" textLength="164.7661" x="119.4771" y="410.5596">requests representative data</text><path d="M10,430.8223 L82.4346,430.8223 L82.4346,440.1133 L72.4346,450.1133 L10,450.1133 L10,430.8223 " fill="#EEEEEE" style="stroke:#000000;stroke-width:1.5;"/><rect fill="none" height="175.7461" style="stroke:#000000;stroke-width:1.5;" width="616.2417" x="10" y="430.8223"/><text fill="#000000" font-family="sans-serif" font-size="13" font-weight="bold" lengthAdjust="spacing" textLength="27.4346" x="25" y="445.8506">loop</text><text fill="#000000" font-family="sans-serif" font-size="11" font-weight="bold" lengthAdjust="spacing" textLength="245.7383" x="97.4346" y="444.6924">[while user wants to add more representatives]</text><polygon fill="#181818" points="368.8213,469.4043,378.8213,473.4043,368.8213,477.4043,372.8213,473.4043" style="stroke:#181818;stroke-width:1.0;"/><line style="stroke:#181818;stroke-width:1.0;" x1="84.0171" x2="374.8213" y1="473.4043" y2="473.4043"/><text fill="#000000" font-family="sans-serif" font-size="13" font-weight="bold" lengthAdjust="spacing" textLength="14.46" x="91.0171" y="468.1416">11</text><text fill="#000000" font-family="sans-serif" font-size="13" lengthAdjust="spacing" textLength="149.5952" x="109.4771" y="468.1416">inputs representative data</text><polygon fill="#181818" points="576.6865,500.6953,586.6865,504.6953,576.6865,508.6953,580.6865,504.6953" style="stroke:#181818;stroke-width:1.0;"/><line style="stroke:#181818;stroke-width:1.0;" x1="390.8213" x2="582.6865" y1="504.6953" y2="504.6953"/><text fill="#000000" font-family="sans-serif" font-size="13" font-weight="bold" lengthAdjust="spacing" textLength="14.46" x="397.8213" y="499.4326">12</text><text fill="#000000" font-family="sans-serif" font-size="13" lengthAdjust="spacing" textLength="160.4053" x="416.2813" y="499.4326">collectRepresentativeData()</text><polygon fill="#181818" points="401.8213,531.9863,391.8213,535.9863,401.8213,539.9863,397.8213,535.9863" style="stroke:#181818;stroke-width:1.0;"/><line style="stroke:#181818;stroke-width:1.0;stroke-dasharray:2.0,2.0;" x1="395.8213" x2="592.6865" y1="535.9863" y2="535.9863"/><text fill="#000000" font-family="sans-serif" font-size="13" font-weight="bold" lengthAdjust="spacing" textLength="14.46" x="407.8213" y="530.7236">13</text><text fill="#000000" font-family="sans-serif" font-size="13" lengthAdjust="spacing" textLength="109.8398" x="426.2813" y="530.7236">representativeData</text><polygon fill="#181818" points="95.0171,563.2773,85.0171,567.2773,95.0171,571.2773,91.0171,567.2773" style="stroke:#181818;stroke-width:1.0;"/><line style="stroke:#181818;stroke-width:1.0;stroke-dasharray:2.0,2.0;" x1="89.0171" x2="384.8213" y1="567.2773" y2="567.2773"/><text fill="#000000" font-family="sans-serif" font-size="13" font-weight="bold" lengthAdjust="spacing" textLength="14.46" x="101.0171" y="562.0146">14</text><text fill="#000000" font-family="sans-serif" font-size="13" lengthAdjust="spacing" textLength="247.8633" x="119.4771" y="562.0146">asks if wants to add another representative</text><polygon fill="#181818" points="373.8213,594.5684,383.8213,598.5684,373.8213,602.5684,377.8213,598.5684" style="stroke:#181818;stroke-width:1.0;"/><line style="stroke:#181818;stroke-width:1.0;" x1="84.0171" x2="379.8213" y1="598.5684" y2="598.5684"/><text fill="#000000" font-family="sans-serif" font-size="13" font-weight="bold" lengthAdjust="spacing" textLength="14.46" x="91.0171" y="593.3057">15</text><text fill="#000000" font-family="sans-serif" font-size="13" lengthAdjust="spacing" textLength="87.4199" x="109.4771" y="593.3057">responds (Y/N)</text><polygon fill="#181818" points="368.8213,632.8594,378.8213,636.8594,368.8213,640.8594,372.8213,636.8594" style="stroke:#181818;stroke-width:1.0;"/><line style="stroke:#181818;stroke-width:1.0;" x1="84.0171" x2="374.8213" y1="636.8594" y2="636.8594"/><text fill="#000000" font-family="sans-serif" font-size="13" font-weight="bold" lengthAdjust="spacing" textLength="14.46" x="91.0171" y="631.5967">16</text><text fill="#000000" font-family="sans-serif" font-size="13" lengthAdjust="spacing" textLength="78.0317" x="109.4771" y="631.5967">confirms data</text><polygon fill="#181818" points="795.5854,681.4414,805.5854,685.4414,795.5854,689.4414,799.5854,685.4414" style="stroke:#181818;stroke-width:1.0;"/><line style="stroke:#181818;stroke-width:1.0;" x1="390.8213" x2="801.5854" y1="685.4414" y2="685.4414"/><text fill="#000000" font-family="sans-serif" font-size="13" font-weight="bold" lengthAdjust="spacing" textLength="14.46" x="397.8213" y="671.5332">17</text><text fill="#000000" font-family="sans-serif" font-size="13" lengthAdjust="spacing" textLength="375.6924" x="416.2813" y="662.8877">registerCustomerWithMultipleRepresentatives(vatNumber, name,</text><text fill="#000000" font-family="sans-serif" font-size="13" lengthAdjust="spacing" textLength="287.5996" x="416.2813" y="680.1787">address, email, phone, type, representativesData)</text><polygon fill="#181818" points="1225.5352,712.7324,1235.5352,716.7324,1225.5352,720.7324,1229.5352,716.7324" style="stroke:#181818;stroke-width:1.0;"/><line style="stroke:#181818;stroke-width:1.0;" x1="817.5854" x2="1231.5352" y1="716.7324" y2="716.7324"/><text fill="#000000" font-family="sans-serif" font-size="13" font-weight="bold" lengthAdjust="spacing" textLength="14.46" x="824.5854" y="711.4697">18</text><text fill="#000000" font-family="sans-serif" font-size="13" lengthAdjust="spacing" textLength="32.5063" x="843.0454" y="711.4697">new()</text><rect fill="#E2E2F0" height="32.6211" rx="2.5" ry="2.5" style="stroke:#181818;stroke-width:0.5;" width="122.1514" x="1237.5352" y="693.4414"/><text fill="#000000" font-family="sans-serif" font-size="14" lengthAdjust="spacing" textLength="108.1514" x="1244.5352" y="715.5488">:CustomerBuilder</text><polygon fill="#181818" points="1286.6108,756.3535,1296.6108,760.3535,1286.6108,764.3535,1290.6108,760.3535" style="stroke:#181818;stroke-width:1.0;"/><line style="stroke:#181818;stroke-width:1.0;" x1="817.5854" x2="1292.6108" y1="760.3535" y2="760.3535"/><text fill="#000000" font-family="sans-serif" font-size="13" font-weight="bold" lengthAdjust="spacing" textLength="14.46" x="824.5854" y="755.0908">19</text><text fill="#000000" font-family="sans-serif" font-size="13" lengthAdjust="spacing" textLength="120.6372" x="843.0454" y="755.0908">withVAT(vatNumber)</text><polygon fill="#181818" points="1286.6108,787.6445,1296.6108,791.6445,1286.6108,795.6445,1290.6108,791.6445" style="stroke:#181818;stroke-width:1.0;"/><line style="stroke:#181818;stroke-width:1.0;" x1="817.5854" x2="1292.6108" y1="791.6445" y2="791.6445"/><text fill="#000000" font-family="sans-serif" font-size="13" font-weight="bold" lengthAdjust="spacing" textLength="14.46" x="824.5854" y="786.3818">20</text><text fill="#000000" font-family="sans-serif" font-size="13" lengthAdjust="spacing" textLength="98.9727" x="843.0454" y="786.3818">withName(name)</text><polygon fill="#181818" points="1286.6108,818.9355,1296.6108,822.9355,1286.6108,826.9355,1290.6108,822.9355" style="stroke:#181818;stroke-width:1.0;"/><line style="stroke:#181818;stroke-width:1.0;" x1="817.5854" x2="1292.6108" y1="822.9355" y2="822.9355"/><text fill="#000000" font-family="sans-serif" font-size="13" font-weight="bold" lengthAdjust="spacing" textLength="14.46" x="824.5854" y="817.6729">21</text><text fill="#000000" font-family="sans-serif" font-size="13" lengthAdjust="spacing" textLength="125.7153" x="843.0454" y="817.6729">withAddress(address)</text><polygon fill="#181818" points="1286.6108,850.2266,1296.6108,854.2266,1286.6108,858.2266,1290.6108,854.2266" style="stroke:#181818;stroke-width:1.0;"/><line style="stroke:#181818;stroke-width:1.0;" x1="817.5854" x2="1292.6108" y1="854.2266" y2="854.2266"/><text fill="#000000" font-family="sans-serif" font-size="13" font-weight="bold" lengthAdjust="spacing" textLength="14.46" x="824.5854" y="848.9639">22</text><text fill="#000000" font-family="sans-serif" font-size="13" lengthAdjust="spacing" textLength="95.3481" x="843.0454" y="848.9639">withEmail(email)</text><polygon fill="#181818" points="1286.6108,881.5176,1296.6108,885.5176,1286.6108,889.5176,1290.6108,885.5176" style="stroke:#181818;stroke-width:1.0;"/><line style="stroke:#181818;stroke-width:1.0;" x1="817.5854" x2="1292.6108" y1="885.5176" y2="885.5176"/><text fill="#000000" font-family="sans-serif" font-size="13" font-weight="bold" lengthAdjust="spacing" textLength="14.46" x="824.5854" y="880.2549">23</text><text fill="#000000" font-family="sans-serif" font-size="13" lengthAdjust="spacing" textLength="105.5171" x="843.0454" y="880.2549">withPhone(phone)</text><polygon fill="#181818" points="1286.6108,912.8086,1296.6108,916.8086,1286.6108,920.8086,1290.6108,916.8086" style="stroke:#181818;stroke-width:1.0;"/><line style="stroke:#181818;stroke-width:1.0;" x1="817.5854" x2="1292.6108" y1="916.8086" y2="916.8086"/><text fill="#000000" font-family="sans-serif" font-size="13" font-weight="bold" lengthAdjust="spacing" textLength="14.46" x="824.5854" y="911.5459">24</text><text fill="#000000" font-family="sans-serif" font-size="13" lengthAdjust="spacing" textLength="141.5972" x="843.0454" y="911.5459">withCustomerType(type)</text><path d="M720.1133,931.8086 L792.5479,931.8086 L792.5479,941.0996 L782.5479,951.0996 L720.1133,951.0996 L720.1133,931.8086 " fill="#EEEEEE" style="stroke:#000000;stroke-width:1.5;"/><rect fill="none" height="486.6465" style="stroke:#000000;stroke-width:1.5;" width="1173.1475" x="720.1133" y="931.8086"/><text fill="#000000" font-family="sans-serif" font-size="13" font-weight="bold" lengthAdjust="spacing" textLength="27.4346" x="735.1133" y="946.8369">loop</text><text fill="#000000" font-family="sans-serif" font-size="11" font-weight="bold" lengthAdjust="spacing" textLength="154.0537" x="807.5479" y="945.6787">[for each representative data]</text><polygon fill="#181818" points="1144.0112,987.6816,1154.0112,991.6816,1144.0112,995.6816,1148.0112,991.6816" style="stroke:#181818;stroke-width:1.0;"/><line style="stroke:#181818;stroke-width:1.0;" x1="817.5854" x2="1150.0112" y1="991.6816" y2="991.6816"/><text fill="#000000" font-family="sans-serif" font-size="13" font-weight="bold" lengthAdjust="spacing" textLength="14.46" x="824.5854" y="977.7734">25</text><text fill="#000000" font-family="sans-serif" font-size="13" lengthAdjust="spacing" textLength="240.5889" x="843.0454" y="969.1279">addUser(username, password, firstName,</text><text fill="#000000" font-family="sans-serif" font-size="13" lengthAdjust="spacing" textLength="132.9263" x="843.0454" y="986.4189">lastName, email, roles)</text><polygon fill="#181818" points="828.5854,1018.9727,818.5854,1022.9727,828.5854,1026.9727,824.5854,1022.9727" style="stroke:#181818;stroke-width:1.0;"/><line style="stroke:#181818;stroke-width:1.0;stroke-dasharray:2.0,2.0;" x1="822.5854" x2="1160.0112" y1="1022.9727" y2="1022.9727"/><text fill="#000000" font-family="sans-serif" font-size="13" font-weight="bold" lengthAdjust="spacing" textLength="14.46" x="834.5854" y="1017.71">26</text><text fill="#000000" font-family="sans-serif" font-size="13" lengthAdjust="spacing" textLength="68.6182" x="853.0454" y="1017.71">systemUser</text><polygon fill="#181818" points="1357.6865,1050.2637,1367.6865,1054.2637,1357.6865,1058.2637,1361.6865,1054.2637" style="stroke:#181818;stroke-width:1.0;"/><line style="stroke:#181818;stroke-width:1.0;" x1="817.5854" x2="1363.6865" y1="1054.2637" y2="1054.2637"/><text fill="#000000" font-family="sans-serif" font-size="13" font-weight="bold" lengthAdjust="spacing" textLength="14.46" x="824.5854" y="1049.001">27</text><text fill="#000000" font-family="sans-serif" font-size="13" lengthAdjust="spacing" textLength="32.5063" x="843.0454" y="1049.001">new()</text><rect fill="#E2E2F0" height="32.6211" rx="2.5" ry="2.5" style="stroke:#181818;stroke-width:0.5;" width="155.6338" x="1369.6865" y="1030.9727"/><text fill="#000000" font-family="sans-serif" font-size="14" lengthAdjust="spacing" textLength="141.6338" x="1376.6865" y="1053.0801">:RepresentativeBuilder</text><polygon fill="#181818" points="1435.5034,1093.8848,1445.5034,1097.8848,1435.5034,1101.8848,1439.5034,1097.8848" style="stroke:#181818;stroke-width:1.0;"/><line style="stroke:#181818;stroke-width:1.0;" x1="817.5854" x2="1441.5034" y1="1097.8848" y2="1097.8848"/><text fill="#000000" font-family="sans-serif" font-size="13" font-weight="bold" lengthAdjust="spacing" textLength="14.46" x="824.5854" y="1092.6221">28</text><text fill="#000000" font-family="sans-serif" font-size="13" lengthAdjust="spacing" textLength="66.4473" x="843.0454" y="1092.6221">withNIF(nif)</text><polygon fill="#181818" points="1435.5034,1125.1758,1445.5034,1129.1758,1435.5034,1133.1758,1439.5034,1129.1758" style="stroke:#181818;stroke-width:1.0;"/><line style="stroke:#181818;stroke-width:1.0;" x1="817.5854" x2="1441.5034" y1="1129.1758" y2="1129.1758"/><text fill="#000000" font-family="sans-serif" font-size="13" font-weight="bold" lengthAdjust="spacing" textLength="14.46" x="824.5854" y="1123.9131">29</text><text fill="#000000" font-family="sans-serif" font-size="13" lengthAdjust="spacing" textLength="98.9727" x="843.0454" y="1123.9131">withName(name)</text><polygon fill="#181818" points="1435.5034,1156.4668,1445.5034,1160.4668,1435.5034,1164.4668,1439.5034,1160.4668" style="stroke:#181818;stroke-width:1.0;"/><line style="stroke:#181818;stroke-width:1.0;" x1="817.5854" x2="1441.5034" y1="1160.4668" y2="1160.4668"/><text fill="#000000" font-family="sans-serif" font-size="13" font-weight="bold" lengthAdjust="spacing" textLength="14.46" x="824.5854" y="1155.2041">30</text><text fill="#000000" font-family="sans-serif" font-size="13" lengthAdjust="spacing" textLength="95.3481" x="843.0454" y="1155.2041">withEmail(email)</text><polygon fill="#181818" points="1435.5034,1187.7578,1445.5034,1191.7578,1435.5034,1195.7578,1439.5034,1191.7578" style="stroke:#181818;stroke-width:1.0;"/><line style="stroke:#181818;stroke-width:1.0;" x1="817.5854" x2="1441.5034" y1="1191.7578" y2="1191.7578"/><text fill="#000000" font-family="sans-serif" font-size="13" font-weight="bold" lengthAdjust="spacing" textLength="14.46" x="824.5854" y="1186.4951">31</text><text fill="#000000" font-family="sans-serif" font-size="13" lengthAdjust="spacing" textLength="105.5171" x="843.0454" y="1186.4951">withPhone(phone)</text><polygon fill="#181818" points="1435.5034,1219.0488,1445.5034,1223.0488,1435.5034,1227.0488,1439.5034,1223.0488" style="stroke:#181818;stroke-width:1.0;"/><line style="stroke:#181818;stroke-width:1.0;" x1="817.5854" x2="1441.5034" y1="1223.0488" y2="1223.0488"/><text fill="#000000" font-family="sans-serif" font-size="13" font-weight="bold" lengthAdjust="spacing" textLength="14.46" x="824.5854" y="1217.7861">32</text><text fill="#000000" font-family="sans-serif" font-size="13" lengthAdjust="spacing" textLength="122.8335" x="843.0454" y="1217.7861">withPosition(position)</text><polygon fill="#181818" points="1435.5034,1250.3398,1445.5034,1254.3398,1435.5034,1258.3398,1439.5034,1254.3398" style="stroke:#181818;stroke-width:1.0;"/><line style="stroke:#181818;stroke-width:1.0;" x1="817.5854" x2="1441.5034" y1="1254.3398" y2="1254.3398"/><text fill="#000000" font-family="sans-serif" font-size="13" font-weight="bold" lengthAdjust="spacing" textLength="14.46" x="824.5854" y="1249.0771">33</text><text fill="#000000" font-family="sans-serif" font-size="13" lengthAdjust="spacing" textLength="171.1836" x="843.0454" y="1249.0771">withSystemUser(systemUser)</text><polygon fill="#181818" points="1430.5034,1281.6309,1440.5034,1285.6309,1430.5034,1289.6309,1434.5034,1285.6309" style="stroke:#181818;stroke-width:1.0;"/><line style="stroke:#181818;stroke-width:1.0;" x1="817.5854" x2="1436.5034" y1="1285.6309" y2="1285.6309"/><text fill="#000000" font-family="sans-serif" font-size="13" font-weight="bold" lengthAdjust="spacing" textLength="14.46" x="824.5854" y="1280.3682">34</text><text fill="#000000" font-family="sans-serif" font-size="13" lengthAdjust="spacing" textLength="36.1245" x="843.0454" y="1280.3682">build()</text><polygon fill="#181818" points="1759.2061,1312.9219,1769.2061,1316.9219,1759.2061,1320.9219,1763.2061,1316.9219" style="stroke:#181818;stroke-width:1.0;"/><line style="stroke:#181818;stroke-width:1.0;stroke-dasharray:2.0,2.0;" x1="1452.5034" x2="1765.2061" y1="1316.9219" y2="1316.9219"/><text fill="#000000" font-family="sans-serif" font-size="13" font-weight="bold" lengthAdjust="spacing" textLength="14.46" x="1459.5034" y="1311.6592">35</text><text fill="#000000" font-family="sans-serif" font-size="13" lengthAdjust="spacing" textLength="36.1309" x="1477.9634" y="1311.6592">create</text><rect fill="#E2E2F0" height="51.2422" rx="2.5" ry="2.5" style="stroke:#181818;stroke-width:0.5;" width="112.0547" x="1771.2061" y="1293.6309"/><text fill="#000000" font-family="sans-serif" font-size="14" lengthAdjust="spacing" textLength="88.7168" x="1782.875" y="1315.7383">representative</text><text fill="#000000" font-family="sans-serif" font-size="14" lengthAdjust="spacing" textLength="98.0547" x="1778.2061" y="1334.3594">:Representative</text><polygon fill="#181818" points="828.5854,1375.1641,818.5854,1379.1641,828.5854,1383.1641,824.5854,1379.1641" style="stroke:#181818;stroke-width:1.0;"/><line style="stroke:#181818;stroke-width:1.0;stroke-dasharray:2.0,2.0;" x1="822.5854" x2="1446.5034" y1="1379.1641" y2="1379.1641"/><text fill="#000000" font-family="sans-serif" font-size="13" font-weight="bold" lengthAdjust="spacing" textLength="14.46" x="834.5854" y="1373.9014">36</text><text fill="#000000" font-family="sans-serif" font-size="13" lengthAdjust="spacing" textLength="82.3799" x="853.0454" y="1373.9014">representative</text><polygon fill="#181818" points="1286.6108,1406.4551,1296.6108,1410.4551,1286.6108,1414.4551,1290.6108,1410.4551" style="stroke:#181818;stroke-width:1.0;"/><line style="stroke:#181818;stroke-width:1.0;" x1="817.5854" x2="1292.6108" y1="1410.4551" y2="1410.4551"/><text fill="#000000" font-family="sans-serif" font-size="13" font-weight="bold" lengthAdjust="spacing" textLength="14.46" x="824.5854" y="1405.1924">37</text><text fill="#000000" font-family="sans-serif" font-size="13" lengthAdjust="spacing" textLength="201.5952" x="843.0454" y="1405.1924">withRepresentative(representative)</text><polygon fill="#181818" points="1281.6108,1444.7461,1291.6108,1448.7461,1281.6108,1452.7461,1285.6108,1448.7461" style="stroke:#181818;stroke-width:1.0;"/><line style="stroke:#181818;stroke-width:1.0;" x1="817.5854" x2="1287.6108" y1="1448.7461" y2="1448.7461"/><text fill="#000000" font-family="sans-serif" font-size="13" font-weight="bold" lengthAdjust="spacing" textLength="14.46" x="824.5854" y="1443.4834">38</text><text fill="#000000" font-family="sans-serif" font-size="13" lengthAdjust="spacing" textLength="36.1245" x="843.0454" y="1443.4834">build()</text><polygon fill="#181818" points="1523.3203,1476.0371,1533.3203,1480.0371,1523.3203,1484.0371,1527.3203,1480.0371" style="stroke:#181818;stroke-width:1.0;"/><line style="stroke:#181818;stroke-width:1.0;stroke-dasharray:2.0,2.0;" x1="1303.6108" x2="1529.3203" y1="1480.0371" y2="1480.0371"/><text fill="#000000" font-family="sans-serif" font-size="13" font-weight="bold" lengthAdjust="spacing" textLength="14.46" x="1310.6108" y="1474.7744">39</text><text fill="#000000" font-family="sans-serif" font-size="13" lengthAdjust="spacing" textLength="36.1309" x="1329.0708" y="1474.7744">create</text><rect fill="#E2E2F0" height="51.2422" rx="2.5" ry="2.5" style="stroke:#181818;stroke-width:0.5;" width="78.5723" x="1535.3203" y="1456.7461"/><text fill="#000000" font-family="sans-serif" font-size="14" lengthAdjust="spacing" textLength="57.5723" x="1545.8203" y="1478.8535">customer</text><text fill="#000000" font-family="sans-serif" font-size="14" lengthAdjust="spacing" textLength="64.5723" x="1542.3203" y="1497.4746">:Customer</text><path d="M1525.3203,1525.9883 L1597.7549,1525.9883 L1597.7549,1535.2793 L1587.7549,1545.2793 L1525.3203,1545.2793 L1525.3203,1525.9883 " fill="#EEEEEE" style="stroke:#000000;stroke-width:1.5;"/><rect fill="none" height="94.873" style="stroke:#000000;stroke-width:1.5;" width="367.9404" x="1525.3203" y="1525.9883"/><text fill="#000000" font-family="sans-serif" font-size="13" font-weight="bold" lengthAdjust="spacing" textLength="27.4346" x="1540.3203" y="1541.0166">loop</text><text fill="#000000" font-family="sans-serif" font-size="11" font-weight="bold" lengthAdjust="spacing" textLength="205.3853" x="1612.7549" y="1539.8584">[for each representative in constructor]</text><line style="stroke:#181818;stroke-width:1.0;" x1="1579.6064" x2="1626.6064" y1="1563.5703" y2="1563.5703"/><line style="stroke:#181818;stroke-width:1.0;" x1="1626.6064" x2="1626.6064" y1="1563.5703" y2="1576.5703"/><line style="stroke:#181818;stroke-width:1.0;" x1="1585.6064" x2="1626.6064" y1="1576.5703" y2="1576.5703"/><polygon fill="#181818" points="1595.6064,1572.5703,1585.6064,1576.5703,1595.6064,1580.5703,1591.6064,1576.5703" style="stroke:#181818;stroke-width:1.0;"/><text fill="#000000" font-family="sans-serif" font-size="13" font-weight="bold" lengthAdjust="spacing" textLength="14.46" x="1591.6064" y="1558.3076">40</text><text fill="#000000" font-family="sans-serif" font-size="13" lengthAdjust="spacing" textLength="200.167" x="1610.0664" y="1558.3076">addRepresentative(representative)</text><polygon fill="#181818" points="1815.2334,1608.8613,1825.2334,1612.8613,1815.2334,1616.8613,1819.2334,1612.8613" style="stroke:#181818;stroke-width:1.0;"/><line style="stroke:#181818;stroke-width:1.0;" x1="1579.6064" x2="1821.2334" y1="1612.8613" y2="1612.8613"/><text fill="#000000" font-family="sans-serif" font-size="13" font-weight="bold" lengthAdjust="spacing" textLength="14.46" x="1586.6064" y="1607.5986">41</text><text fill="#000000" font-family="sans-serif" font-size="13" lengthAdjust="spacing" textLength="140.1563" x="1605.0664" y="1607.5986">associateCustomer(this)</text><polygon fill="#181818" points="828.5854,1647.1523,818.5854,1651.1523,828.5854,1655.1523,824.5854,1651.1523" style="stroke:#181818;stroke-width:1.0;"/><line style="stroke:#181818;stroke-width:1.0;stroke-dasharray:2.0,2.0;" x1="822.5854" x2="1297.6108" y1="1651.1523" y2="1651.1523"/><text fill="#000000" font-family="sans-serif" font-size="13" font-weight="bold" lengthAdjust="spacing" textLength="14.46" x="834.5854" y="1645.8896">42</text><text fill="#000000" font-family="sans-serif" font-size="13" lengthAdjust="spacing" textLength="53.46" x="853.0454" y="1645.8896">customer</text><polygon fill="#181818" points="1004.8599,1678.4434,1014.8599,1682.4434,1004.8599,1686.4434,1008.8599,1682.4434" style="stroke:#181818;stroke-width:1.0;"/><line style="stroke:#181818;stroke-width:1.0;" x1="817.5854" x2="1010.8599" y1="1682.4434" y2="1682.4434"/><text fill="#000000" font-family="sans-serif" font-size="13" font-weight="bold" lengthAdjust="spacing" textLength="14.46" x="824.5854" y="1677.1807">43</text><text fill="#000000" font-family="sans-serif" font-size="13" lengthAdjust="spacing" textLength="161.8145" x="843.0454" y="1677.1807">registerCustomer(customer)</text><polygon fill="#181818" points="1949.0054,1709.7344,1959.0054,1713.7344,1949.0054,1717.7344,1953.0054,1713.7344" style="stroke:#181818;stroke-width:1.0;"/><line style="stroke:#181818;stroke-width:1.0;" x1="1026.8599" x2="1955.0054" y1="1713.7344" y2="1713.7344"/><text fill="#000000" font-family="sans-serif" font-size="13" font-weight="bold" lengthAdjust="spacing" textLength="14.46" x="1033.8599" y="1708.4717">44</text><text fill="#000000" font-family="sans-serif" font-size="13" lengthAdjust="spacing" textLength="89.5781" x="1052.3198" y="1708.4717">save(customer)</text><polygon fill="#181818" points="1037.8599,1741.0254,1027.8599,1745.0254,1037.8599,1749.0254,1033.8599,1745.0254" style="stroke:#181818;stroke-width:1.0;"/><line style="stroke:#181818;stroke-width:1.0;stroke-dasharray:2.0,2.0;" x1="1031.8599" x2="1965.0054" y1="1745.0254" y2="1745.0254"/><text fill="#000000" font-family="sans-serif" font-size="13" font-weight="bold" lengthAdjust="spacing" textLength="14.46" x="1043.8599" y="1739.7627">45</text><text fill="#000000" font-family="sans-serif" font-size="13" lengthAdjust="spacing" textLength="91.0381" x="1062.3198" y="1739.7627">savedCustomer</text><polygon fill="#181818" points="828.5854,1772.3164,818.5854,1776.3164,828.5854,1780.3164,824.5854,1776.3164" style="stroke:#181818;stroke-width:1.0;"/><line style="stroke:#181818;stroke-width:1.0;stroke-dasharray:2.0,2.0;" x1="822.5854" x2="1020.8599" y1="1776.3164" y2="1776.3164"/><text fill="#000000" font-family="sans-serif" font-size="13" font-weight="bold" lengthAdjust="spacing" textLength="14.46" x="834.5854" y="1771.0537">46</text><text fill="#000000" font-family="sans-serif" font-size="13" lengthAdjust="spacing" textLength="91.0381" x="853.0454" y="1771.0537">savedCustomer</text><polygon fill="#181818" points="401.8213,1803.6074,391.8213,1807.6074,401.8213,1811.6074,397.8213,1807.6074" style="stroke:#181818;stroke-width:1.0;"/><line style="stroke:#181818;stroke-width:1.0;stroke-dasharray:2.0,2.0;" x1="395.8213" x2="811.5854" y1="1807.6074" y2="1807.6074"/><text fill="#000000" font-family="sans-serif" font-size="13" font-weight="bold" lengthAdjust="spacing" textLength="14.46" x="407.8213" y="1802.3447">47</text><text fill="#000000" font-family="sans-serif" font-size="13" lengthAdjust="spacing" textLength="53.46" x="426.2813" y="1802.3447">customer</text><polygon fill="#181818" points="90.0171,1834.8984,80.0171,1838.8984,90.0171,1842.8984,86.0171,1838.8984" style="stroke:#181818;stroke-width:1.0;"/><line style="stroke:#181818;stroke-width:1.0;stroke-dasharray:2.0,2.0;" x1="84.0171" x2="384.8213" y1="1838.8984" y2="1838.8984"/><text fill="#000000" font-family="sans-serif" font-size="13" font-weight="bold" lengthAdjust="spacing" textLength="14.46" x="96.0171" y="1833.6357">48</text><text fill="#000000" font-family="sans-serif" font-size="13" lengthAdjust="spacing" textLength="155.3589" x="114.4771" y="1833.6357">displays operation success</text><!--SRC=[dLTDRzim3BtdLn2zp1qIxDv3WJRBW01fE-HZmu02XMehiL17yYIvGVxzAFbJZcGuqybno4UAV7gclgWFndCYoH6EWeiubU98GSk2Jjf_SX9_a0FTw7D6GT9O4tx8kWOg9OauCNw0FSaKdKn8eGKlZkzKudEiXOIR-Ve9vYBBoBkG1D_S054mVrcj7XudYA9Pp7B2DTpShUbXNYYDYSZTqfhjbZsJdMQPAl_QBbURCC1SS2qnAgtYRTUhdd5jkQ7oayMqDDjjjc-RN_EUwKEIxDG5vcwpMByD03yMB4lg-0RuSRTSVRz8EPTKKQw9Pf-qwx9U_FHvn1NwAsy2DH5UdXPhrrewyEZZngi3-KEWhL0CMtRk16jVjXj3X1VRR_P9DAsREm5SvJFCxh6NS8SU7mgqG38TcD9K0W5EJr17j2uD3dOVgeNECyIeqExG_sz1bLQD9oH44uX-FModmCcHJk6LqoDXsHJoL73yJP84TwuWeHfVgrkBdT1kD5_6IFMY7sSmpNjBDlGyK5qNRNlEgOfk6xksL8O-q5dMrs1KJ1p6SR5gya9lDLYpDhcuY-XuT4hYHImphClZn-bYT7VORwDAnQbJMsr0WF2auOcY6SeEO0D7jgjqw65UJolttBHDzoIG2P73AMKeaGMA19pm3DdSaN2ehPBsmDeg-PaM2XtQGyixAucc9qQZOkqUzU-84s9EgQLzsfHmJQVb1Lo8DfTm_JhRzhAzMol2XKwnW6uW7wSwkmyL4n5omHC5qPzlp-MsAK-yb8a5tpDvL5SSxLg-wdFvc-dqgSWqopFgbbr52FHiluYjC5LID0LNeGnLftssc4AF4OvOqkR8bf-DeApOlt4NgBmzHdZDJhWvrDLs8oDzdd6taTdoIFk7iYfHLPsHNWjJmiWMSgJ7JrFjoDPyf4TNVYFJfTk9usWbO8_33b8q7Jp0_L3D364EHJbbH4P5IgRaHAcJaCaKaA1AFrVqoKZzNF47XnBQgvTBusPI0SzgS-Xy7zGP-Nqq-LpuT0zY0tnXLV6ndM929MWil8mCMLg2BNz4dEslSF0pSiWbIAyXfo331ftCMCK4Z_BgORphfcbMrFPjdFkxcJYZ0Uw46sXM2pKhWRz-DOfgUp_2eP5Jh-9x2DTc4zpTnUbr1JboWxaxRpuHWw2-chapKu3nBSYimZGJ-r3975WxtlkAEgW_Z9ildCAhdRcFUVthv4m0w6HMYj8LzRi-TLzuRBAT4PI86GBKwXlfbAbmlDxS6eneUlm_lltkkNFqu0ZjOQndpkyF5L6D_V_p_drxFpEQJh1zVj1BO7kd2tMgH9ov-HluPEwhXwycNdpVJIKCwxkfZBYg16yfmMj1mbIUaRC2aLD9Z3Q3Ak8OXnJVfQ0BMzw4_m40]--></g></svg>