<svg xmlns="http://www.w3.org/2000/svg" xmlns:xlink="http://www.w3.org/1999/xlink" contentStyleType="text/css" height="378px" preserveAspectRatio="none" style="width:705px;height:378px;background:#FFFFFF;" version="1.1" viewBox="0 0 705 378" width="705px" zoomAndPan="magnify"><defs/><g><!--cluster USR--><g id="cluster_USR"><rect fill="none" height="365" rx="2.5" ry="2.5" style="stroke:#000000;stroke-width:1.5;" width="692" x="7" y="7"/><text fill="#000000" font-family="sans-serif" font-size="14" font-weight="bold" lengthAdjust="spacing" textLength="154.0615" x="275.9692" y="24.1074">SystemUser Aggregate</text></g><!--class SystemUser--><g id="elem_SystemUser"><rect codeLine="4" fill="#F1F1F1" height="79.2031" id="SystemUser" rx="2.5" ry="2.5" style="stroke:#181818;stroke-width:0.5;" width="122.0723" x="323" y="44"/><ellipse cx="338" cy="66.291" fill="#ADD1B2" rx="11" ry="11" style="stroke:#181818;stroke-width:1.0;"/><path d="M340.7656,62.166 Q340.9219,61.9473 341.1094,61.8379 Q341.2969,61.7285 341.5156,61.7285 Q341.8906,61.7285 342.125,61.9941 Q342.3594,62.2441 342.3594,62.8535 L342.3594,64.3066 Q342.3594,64.916 342.125,65.1816 Q341.8906,65.4473 341.5156,65.4473 Q341.1719,65.4473 340.9688,65.2441 Q340.7656,65.0566 340.6563,64.541 Q340.6094,64.1816 340.4219,63.9941 Q340.0938,63.6191 339.4844,63.4004 Q338.875,63.1816 338.25,63.1816 Q337.4844,63.1816 336.8438,63.5098 Q336.2188,63.8379 335.7188,64.5879 Q335.2344,65.3379 335.2344,66.3691 L335.2344,67.4629 Q335.2344,68.6973 336.125,69.5254 Q337.0156,70.3379 338.6094,70.3379 Q339.5469,70.3379 340.2031,70.0879 Q340.5938,69.9316 341.0156,69.4941 Q341.2813,69.2285 341.4219,69.1504 Q341.5781,69.0723 341.7813,69.0723 Q342.1094,69.0723 342.3594,69.3379 Q342.625,69.5879 342.625,69.9316 Q342.625,70.2754 342.2813,70.6816 Q341.7813,71.2598 340.9844,71.5879 Q339.9063,72.041 338.6094,72.041 Q337.0938,72.041 335.8906,71.416 Q334.9063,70.916 334.2188,69.8535 Q333.5313,68.7754 333.5313,67.4941 L333.5313,66.3379 Q333.5313,65.0098 334.1406,63.8691 Q334.7656,62.7129 335.8594,62.1035 Q336.9531,61.4785 338.1875,61.4785 Q338.9219,61.4785 339.5625,61.6504 Q340.2188,61.8066 340.7656,62.166 Z " fill="#000000"/><text fill="#000000" font-family="sans-serif" font-size="12" font-style="italic" lengthAdjust="spacing" textLength="94.0723" x="350" y="61.9492">&#171;AggregateRoot&#187;</text><text fill="#000000" font-family="sans-serif" font-size="14" lengthAdjust="spacing" textLength="76.2344" x="358.9189" y="80.0684">SystemUser</text><line style="stroke:#181818;stroke-width:0.5;" x1="324" x2="444.0723" y1="88.582" y2="88.582"/><ellipse cx="334" cy="103.3926" fill="none" rx="3" ry="3" style="stroke:#038048;stroke-width:1.0;"/><text fill="#000000" font-family="sans-serif" font-size="14" lengthAdjust="spacing" textLength="75.4824" x="343" y="107.6895">String name</text><line style="stroke:#181818;stroke-width:0.5;" x1="324" x2="444.0723" y1="115.2031" y2="115.2031"/></g><!--class SystemStatus--><g id="elem_SystemStatus"><rect codeLine="8" fill="#F1F1F1" height="97.8242" id="SystemStatus" rx="2.5" ry="2.5" style="stroke:#181818;stroke-width:0.5;" width="118.3652" x="23" y="230"/><ellipse cx="38" cy="252.291" fill="#EB937F" rx="11" ry="11" style="stroke:#181818;stroke-width:1.0;"/><path d="M36.8594,253.0879 L36.8594,255.5879 L41.1875,255.5879 L41.1875,254.666 Q41.1875,254.0566 41.4219,253.791 Q41.6719,253.5254 42.0469,253.5254 Q42.4219,253.5254 42.6563,253.791 Q42.8906,254.0566 42.8906,254.666 L42.8906,257.291 L34.8906,257.291 Q34.2656,257.291 34,257.0566 Q33.75,256.8223 33.75,256.4316 Q33.75,256.0566 34.0156,255.8223 Q34.2813,255.5879 34.8906,255.5879 L35.1563,255.5879 L35.1563,248.9316 L34.8906,248.9316 Q34.2656,248.9316 34,248.6973 Q33.75,248.4629 33.75,248.0723 Q33.75,247.6973 34,247.4629 Q34.2656,247.2285 34.8906,247.2285 L42.5156,247.2285 L42.5156,249.8223 Q42.5156,250.4316 42.2813,250.6973 Q42.0625,250.9473 41.6719,250.9473 Q41.2969,250.9473 41.0625,250.6973 Q40.8281,250.4316 40.8281,249.8223 L40.8281,248.9316 L36.8594,248.9316 L36.8594,251.3848 L38.3438,251.3848 Q38.3438,250.7285 38.4688,250.541 Q38.7344,250.1348 39.2031,250.1348 Q39.5781,250.1348 39.8125,250.4004 Q40.0469,250.6504 40.0469,251.2598 L40.0469,253.2285 Q40.0469,253.7754 39.9219,253.9629 Q39.6563,254.3535 39.2031,254.3535 Q38.7344,254.3535 38.4688,253.9473 Q38.3438,253.7598 38.3438,253.0879 L36.8594,253.0879 Z " fill="#000000"/><text fill="#000000" font-family="sans-serif" font-size="12" font-style="italic" lengthAdjust="spacing" textLength="44.6953" x="72.835" y="247.9492">&#171;Enum&#187;</text><text fill="#000000" font-family="sans-serif" font-size="14" lengthAdjust="spacing" textLength="86.3652" x="52" y="266.0684">SystemStatus</text><line style="stroke:#181818;stroke-width:0.5;" x1="24" x2="140.3652" y1="274.582" y2="274.582"/><text fill="#000000" font-family="sans-serif" font-size="14" lengthAdjust="spacing" textLength="50.5654" x="29" y="293.6895">ACTIVE</text><text fill="#000000" font-family="sans-serif" font-size="14" lengthAdjust="spacing" textLength="64.5654" x="29" y="312.3105">INACTIVE</text><line style="stroke:#181818;stroke-width:0.5;" x1="24" x2="140.3652" y1="319.8242" y2="319.8242"/></g><!--class SystemRole--><g id="elem_SystemRole"><rect codeLine="13" fill="#F1F1F1" height="153.6875" id="SystemRole" rx="2.5" ry="2.5" style="stroke:#181818;stroke-width:0.5;" width="225.9238" x="176" y="202"/><ellipse cx="246.9775" cy="224.291" fill="#EB937F" rx="11" ry="11" style="stroke:#181818;stroke-width:1.0;"/><path d="M245.8369,225.0879 L245.8369,227.5879 L250.165,227.5879 L250.165,226.666 Q250.165,226.0566 250.3994,225.791 Q250.6494,225.5254 251.0244,225.5254 Q251.3994,225.5254 251.6338,225.791 Q251.8682,226.0566 251.8682,226.666 L251.8682,229.291 L243.8682,229.291 Q243.2432,229.291 242.9775,229.0566 Q242.7275,228.8223 242.7275,228.4316 Q242.7275,228.0566 242.9932,227.8223 Q243.2588,227.5879 243.8682,227.5879 L244.1338,227.5879 L244.1338,220.9316 L243.8682,220.9316 Q243.2432,220.9316 242.9775,220.6973 Q242.7275,220.4629 242.7275,220.0723 Q242.7275,219.6973 242.9775,219.4629 Q243.2432,219.2285 243.8682,219.2285 L251.4932,219.2285 L251.4932,221.8223 Q251.4932,222.4316 251.2588,222.6973 Q251.04,222.9473 250.6494,222.9473 Q250.2744,222.9473 250.04,222.6973 Q249.8057,222.4316 249.8057,221.8223 L249.8057,220.9316 L245.8369,220.9316 L245.8369,223.3848 L247.3213,223.3848 Q247.3213,222.7285 247.4463,222.541 Q247.7119,222.1348 248.1807,222.1348 Q248.5557,222.1348 248.79,222.4004 Q249.0244,222.6504 249.0244,223.2598 L249.0244,225.2285 Q249.0244,225.7754 248.8994,225.9629 Q248.6338,226.3535 248.1807,226.3535 Q247.7119,226.3535 247.4463,225.9473 Q247.3213,225.7598 247.3213,225.0879 L245.8369,225.0879 Z " fill="#000000"/><text fill="#000000" font-family="sans-serif" font-size="12" font-style="italic" lengthAdjust="spacing" textLength="44.6953" x="282.8643" y="219.9492">&#171;Enum&#187;</text><text fill="#000000" font-family="sans-serif" font-size="14" lengthAdjust="spacing" textLength="75.4688" x="267.4775" y="238.0684">SystemRole</text><line style="stroke:#181818;stroke-width:0.5;" x1="177" x2="400.9238" y1="246.582" y2="246.582"/><text fill="#000000" font-family="sans-serif" font-size="14" lengthAdjust="spacing" textLength="45.1104" x="182" y="265.6895">ADMIN</text><text fill="#000000" font-family="sans-serif" font-size="14" lengthAdjust="spacing" textLength="110.4551" x="182" y="284.3105">CRM_MANAGER</text><text fill="#000000" font-family="sans-serif" font-size="14" lengthAdjust="spacing" textLength="154.8066" x="182" y="302.9316">CRM_COLLABORATOR</text><text fill="#000000" font-family="sans-serif" font-size="14" lengthAdjust="spacing" textLength="124.4619" x="182" y="321.5527">SHOW_DESIGNER</text><text fill="#000000" font-family="sans-serif" font-size="14" lengthAdjust="spacing" textLength="213.9238" x="182" y="340.1738">CUSTOMER_REPRESENTATIVE</text><line style="stroke:#181818;stroke-width:0.5;" x1="177" x2="400.9238" y1="347.6875" y2="347.6875"/></g><!--class Username--><g id="elem_Username"><rect codeLine="21" fill="#F1F1F1" height="79.2031" id="Username" rx="2.5" ry="2.5" style="stroke:#181818;stroke-width:0.5;" width="104.7168" x="437.5" y="239.5"/><ellipse cx="452.5" cy="261.791" fill="#ADD8E6" rx="11" ry="11" style="stroke:#181818;stroke-width:1.0;"/><path d="M453.0938,265.0566 L455.5625,259.1816 L455.1719,259.1816 Q454.5625,259.1816 454.2969,258.9473 Q454.0313,258.7129 454.0313,258.3223 Q454.0313,257.9473 454.2969,257.7129 Q454.5625,257.4785 455.1719,257.4785 L457.4531,257.4785 Q458.0625,257.4785 458.3281,257.7129 Q458.5938,257.9473 458.5938,258.3223 Q458.5938,258.791 458.1875,259.0566 Q458,259.1816 457.4063,259.1816 L453.9219,267.541 L452.2813,267.541 L448.7969,259.1816 Q448.2031,259.1816 448.0156,259.0566 Q447.6094,258.791 447.6094,258.3223 Q447.6094,257.9473 447.875,257.7129 Q448.1406,257.4785 448.75,257.4785 L451.0469,257.4785 Q451.6563,257.4785 451.9063,257.7129 Q452.1719,257.9473 452.1719,258.3223 Q452.1719,258.7129 451.9063,258.9473 Q451.6563,259.1816 451.0469,259.1816 L450.6406,259.1816 L453.0938,265.0566 Z " fill="#000000"/><text fill="#000000" font-family="sans-serif" font-size="12" font-style="italic" lengthAdjust="spacing" textLength="76.7168" x="464.5" y="257.4492">&#171;valueObject&#187;</text><text fill="#000000" font-family="sans-serif" font-size="14" lengthAdjust="spacing" textLength="64.5791" x="470.5688" y="275.5684">Username</text><line style="stroke:#181818;stroke-width:0.5;" x1="438.5" x2="541.2168" y1="284.082" y2="284.082"/><ellipse cx="448.5" cy="298.8926" fill="none" rx="3" ry="3" style="stroke:#038048;stroke-width:1.0;"/><text fill="#000000" font-family="sans-serif" font-size="14" lengthAdjust="spacing" textLength="73.9307" x="457.5" y="303.1895">String value</text><line style="stroke:#181818;stroke-width:0.5;" x1="438.5" x2="541.2168" y1="310.7031" y2="310.7031"/></g><!--class Password--><g id="elem_Password"><rect codeLine="25" fill="#F1F1F1" height="79.2031" id="Password" rx="2.5" ry="2.5" style="stroke:#181818;stroke-width:0.5;" width="104.7168" x="577.5" y="239.5"/><ellipse cx="592.5" cy="261.791" fill="#ADD8E6" rx="11" ry="11" style="stroke:#181818;stroke-width:1.0;"/><path d="M593.0938,265.0566 L595.5625,259.1816 L595.1719,259.1816 Q594.5625,259.1816 594.2969,258.9473 Q594.0313,258.7129 594.0313,258.3223 Q594.0313,257.9473 594.2969,257.7129 Q594.5625,257.4785 595.1719,257.4785 L597.4531,257.4785 Q598.0625,257.4785 598.3281,257.7129 Q598.5938,257.9473 598.5938,258.3223 Q598.5938,258.791 598.1875,259.0566 Q598,259.1816 597.4063,259.1816 L593.9219,267.541 L592.2813,267.541 L588.7969,259.1816 Q588.2031,259.1816 588.0156,259.0566 Q587.6094,258.791 587.6094,258.3223 Q587.6094,257.9473 587.875,257.7129 Q588.1406,257.4785 588.75,257.4785 L591.0469,257.4785 Q591.6563,257.4785 591.9063,257.7129 Q592.1719,257.9473 592.1719,258.3223 Q592.1719,258.7129 591.9063,258.9473 Q591.6563,259.1816 591.0469,259.1816 L590.6406,259.1816 L593.0938,265.0566 Z " fill="#000000"/><text fill="#000000" font-family="sans-serif" font-size="12" font-style="italic" lengthAdjust="spacing" textLength="76.7168" x="604.5" y="257.4492">&#171;valueObject&#187;</text><text fill="#000000" font-family="sans-serif" font-size="14" lengthAdjust="spacing" textLength="61.4688" x="612.124" y="275.5684">Password</text><line style="stroke:#181818;stroke-width:0.5;" x1="578.5" x2="681.2168" y1="284.082" y2="284.082"/><ellipse cx="588.5" cy="298.8926" fill="none" rx="3" ry="3" style="stroke:#038048;stroke-width:1.0;"/><text fill="#000000" font-family="sans-serif" font-size="14" lengthAdjust="spacing" textLength="73.9307" x="597.5" y="303.1895">String value</text><line style="stroke:#181818;stroke-width:0.5;" x1="578.5" x2="681.2168" y1="310.7031" y2="310.7031"/></g><!--link SystemUser to SystemStatus--><g id="link_SystemUser_SystemStatus"><path codeLine="30" d="M322.9,110.38 C275.96,131.66 210.63,164.35 159,202 C147.77,210.19 140.9265,215.833 130.7165,225.643 " fill="none" id="SystemUser-to-SystemStatus" style="stroke:#181818;stroke-width:1.0;"/><polygon fill="#181818" points="126.39,229.8,135.6512,226.4488,129.9955,226.3358,130.1085,220.6801,126.39,229.8" style="stroke:#181818;stroke-width:1.0;"/><text fill="#000000" font-family="sans-serif" font-size="13" lengthAdjust="spacing" textLength="64.3018" x="236" y="168.0283">UserStatus</text><text fill="#000000" font-family="sans-serif" font-size="13" lengthAdjust="spacing" textLength="5.0591" x="309.7504" y="109.7689">*</text><text fill="#000000" font-family="sans-serif" font-size="13" lengthAdjust="spacing" textLength="7.23" x="125.1306" y="218.7471">1</text></g><!--link SystemUser to SystemRole--><g id="link_SystemUser_SystemRole"><path codeLine="31" d="M365,123.19 C353.96,145.69 342.2948,169.4544 329.0748,196.3744 " fill="none" id="SystemUser-to-SystemRole" style="stroke:#181818;stroke-width:1.0;"/><polygon fill="#181818" points="326.43,201.76,333.9876,195.4448,328.634,197.272,326.8068,191.9184,326.43,201.76" style="stroke:#181818;stroke-width:1.0;"/><text fill="#000000" font-family="sans-serif" font-size="13" lengthAdjust="spacing" textLength="54.1836" x="348" y="168.0283">UserRole</text><text fill="#000000" font-family="sans-serif" font-size="13" lengthAdjust="spacing" textLength="5.0591" x="356.438" y="145.2071">*</text><text fill="#000000" font-family="sans-serif" font-size="13" lengthAdjust="spacing" textLength="7.23" x="322.6785" y="190.645">1</text></g><!--link SystemUser to Username--><g id="link_SystemUser_Username"><path codeLine="32" d="M405.2,123.19 C423.68,156.94 447.4764,200.3884 465.9564,234.1084 " fill="none" id="SystemUser-to-Username" style="stroke:#181818;stroke-width:1.0;"/><polygon fill="#181818" points="468.84,239.37,468.0224,229.5551,466.437,234.9853,461.0068,233.3999,468.84,239.37" style="stroke:#181818;stroke-width:1.0;"/><text fill="#000000" font-family="sans-serif" font-size="13" lengthAdjust="spacing" textLength="59.9663" x="431" y="168.0283">Username</text><text fill="#000000" font-family="sans-serif" font-size="13" lengthAdjust="spacing" textLength="7.23" x="401.1446" y="145.2071">1</text><text fill="#000000" font-family="sans-serif" font-size="13" lengthAdjust="spacing" textLength="7.23" x="457.6457" y="228.1335">1</text></g><!--link SystemUser to Password--><g id="link_SystemUser_Password"><path codeLine="33" d="M445.28,118.86 C462.94,129.33 482.01,141.2 499,153 C527.56,172.84 534.59,178.26 560,202 C572.45,213.64 581.2597,222.6643 592.4997,235.0043 " fill="none" id="SystemUser-to-Password" style="stroke:#181818;stroke-width:1.0;"/><polygon fill="#181818" points="596.54,239.44,593.4367,230.0928,593.1731,235.7436,587.5224,235.48,596.54,239.44" style="stroke:#181818;stroke-width:1.0;"/><text fill="#000000" font-family="sans-serif" font-size="13" lengthAdjust="spacing" textLength="57.0781" x="526" y="168.0283">Password</text><text fill="#000000" font-family="sans-serif" font-size="13" lengthAdjust="spacing" textLength="7.23" x="453.1847" y="119.1672">1</text><text fill="#000000" font-family="sans-serif" font-size="13" lengthAdjust="spacing" textLength="7.23" x="583.2316" y="228.2156">1</text></g><!--SRC=[dL7BReCm4Bpp5IjwwIk7NAeAHKWkM2bIWCY6z8XSQg4qF29iMaLL_xt692waQW-zh6RNCxixQx7RrdlMiWhsBD-nWbDvA3cqF9UiBafkMSSwsFGW9AzImLj0HT7oWabk0nEGKW8V5a1UCY5WH5ii394qZNHTJGEu0IhRRLr0pIgkAf-M2hpkggEOIYOxeUHOrOmAUKcmmHe6aKdEjQHHwvyh_J28DF98c8KeGajCJEx5gnLwY0bAug587-EdpCSqM4OdMagJECGa8tXDCCLHWiRZ1-EzvTwGcdwvkOKBvFlt-EuAtbZPyVZvLPtqvmNquxJFMeNtfdtvPn_LQVG5zhKDivaBzjoU7jVH-mx9tm9zqO7Ummbv_aqszXq3VwCQXuw1Nm00]--></g></svg>