<svg xmlns="http://www.w3.org/2000/svg" xmlns:xlink="http://www.w3.org/1999/xlink" contentStyleType="text/css" height="827px" preserveAspectRatio="none" style="width:1109px;height:827px;background:#FFFFFF;" version="1.1" viewBox="0 0 1109 827" width="1109px" zoomAndPan="magnify"><defs/><g><rect fill="#FFFFFF" height="632.8203" style="stroke:#181818;stroke-width:1.0;" width="10" x="44.2344" y="93.6211"/><rect fill="#FFFFFF" height="609.5293" style="stroke:#181818;stroke-width:1.0;" width="10" x="156.041" y="116.9121"/><rect fill="#FFFFFF" height="578.2383" style="stroke:#181818;stroke-width:1.0;" width="10" x="268.7305" y="148.2031"/><rect fill="#FFFFFF" height="219.0371" style="stroke:#181818;stroke-width:1.0;" width="10" x="273.7305" y="210.7852"/><rect fill="#FFFFFF" height="31.291" style="stroke:#181818;stroke-width:1.0;" width="10" x="273.7305" y="461.1133"/><rect fill="#FFFFFF" height="31.291" style="stroke:#181818;stroke-width:1.0;" width="10" x="273.7305" y="523.6953"/><rect fill="#FFFFFF" height="546.9473" style="stroke:#181818;stroke-width:1.0;" width="10" x="444.2686" y="179.4941"/><rect fill="#FFFFFF" height="156.4551" style="stroke:#181818;stroke-width:1.0;" width="10" x="575.2441" y="242.0762"/><rect fill="#FFFFFF" height="75.582" style="stroke:#181818;stroke-width:1.0;" width="10" x="721.3853" y="612.5684"/><rect fill="#FFFFFF" height="31.291" style="stroke:#181818;stroke-width:1.0;" width="10" x="862.3179" y="273.3672"/><rect fill="#FFFFFF" height="31.291" style="stroke:#181818;stroke-width:1.0;" width="10" x="1010.814" y="335.9492"/><rect fill="none" height="126.1641" style="stroke:#000000;stroke-width:1.5;" width="480.563" x="386.7549" y="569.9863"/><line style="stroke:#181818;stroke-width:0.5;stroke-dasharray:5.0,5.0;" x1="49" x2="49" y1="83.6211" y2="744.4414"/><line style="stroke:#181818;stroke-width:0.5;stroke-dasharray:5.0,5.0;" x1="160.4688" x2="160.4688" y1="83.6211" y2="744.4414"/><line style="stroke:#181818;stroke-width:0.5;stroke-dasharray:5.0,5.0;" x1="273.6133" x2="273.6133" y1="83.6211" y2="744.4414"/><line style="stroke:#181818;stroke-width:0.5;stroke-dasharray:5.0,5.0;" x1="448.7549" x2="448.7549" y1="83.6211" y2="744.4414"/><line style="stroke:#181818;stroke-width:0.5;stroke-dasharray:5.0,5.0;" x1="579.7822" x2="579.7822" y1="83.6211" y2="744.4414"/><line style="stroke:#181818;stroke-width:0.5;stroke-dasharray:5.0,5.0;" x1="725.7061" x2="725.7061" y1="83.6211" y2="744.4414"/><line style="stroke:#181818;stroke-width:0.5;stroke-dasharray:5.0,5.0;" x1="866.7456" x2="866.7456" y1="83.6211" y2="744.4414"/><line style="stroke:#181818;stroke-width:0.5;stroke-dasharray:5.0,5.0;" x1="1014.8901" x2="1014.8901" y1="83.6211" y2="744.4414"/><text fill="#000000" font-family="sans-serif" font-size="14" lengthAdjust="spacing" textLength="82.4688" x="5" y="80.1074">Administrator</text><ellipse cx="49.2344" cy="13.5" fill="#E2E2F0" rx="8" ry="8" style="stroke:#181818;stroke-width:0.5;"/><path d="M49.2344,21.5 L49.2344,48.5 M36.2344,29.5 L62.2344,29.5 M49.2344,48.5 L36.2344,63.5 M49.2344,48.5 L62.2344,63.5 " fill="none" style="stroke:#181818;stroke-width:0.5;"/><text fill="#000000" font-family="sans-serif" font-size="14" lengthAdjust="spacing" textLength="82.4688" x="5" y="758.5488">Administrator</text><ellipse cx="49.2344" cy="770.5625" fill="#E2E2F0" rx="8" ry="8" style="stroke:#181818;stroke-width:0.5;"/><path d="M49.2344,778.5625 L49.2344,805.5625 M36.2344,786.5625 L62.2344,786.5625 M49.2344,805.5625 L36.2344,820.5625 M49.2344,805.5625 L62.2344,820.5625 " fill="none" style="stroke:#181818;stroke-width:0.5;"/><rect fill="#E2E2F0" height="32.6211" rx="2.5" ry="2.5" style="stroke:#181818;stroke-width:0.5;" width="115.1445" x="103.4688" y="50"/><text fill="#000000" font-family="sans-serif" font-size="14" lengthAdjust="spacing" textLength="101.1445" x="110.4688" y="72.1074">:ListUsersAction</text><rect fill="#E2E2F0" height="32.6211" rx="2.5" ry="2.5" style="stroke:#181818;stroke-width:0.5;" width="115.1445" x="103.4688" y="743.4414"/><text fill="#000000" font-family="sans-serif" font-size="14" lengthAdjust="spacing" textLength="101.1445" x="110.4688" y="765.5488">:ListUsersAction</text><rect fill="#E2E2F0" height="32.6211" rx="2.5" ry="2.5" style="stroke:#181818;stroke-width:0.5;" width="90.2344" x="228.6133" y="50"/><text fill="#000000" font-family="sans-serif" font-size="14" lengthAdjust="spacing" textLength="76.2344" x="235.6133" y="72.1074">:ListUsersUI</text><rect fill="#E2E2F0" height="32.6211" rx="2.5" ry="2.5" style="stroke:#181818;stroke-width:0.5;" width="90.2344" x="228.6133" y="743.4414"/><text fill="#000000" font-family="sans-serif" font-size="14" lengthAdjust="spacing" textLength="76.2344" x="235.6133" y="765.5488">:ListUsersUI</text><rect fill="#E2E2F0" height="32.6211" rx="2.5" ry="2.5" style="stroke:#181818;stroke-width:0.5;" width="105.0273" x="396.7549" y="50"/><text fill="#000000" font-family="sans-serif" font-size="14" lengthAdjust="spacing" textLength="91.0273" x="403.7549" y="72.1074">:AbstractListUI</text><rect fill="#E2E2F0" height="32.6211" rx="2.5" ry="2.5" style="stroke:#181818;stroke-width:0.5;" width="105.0273" x="396.7549" y="743.4414"/><text fill="#000000" font-family="sans-serif" font-size="14" lengthAdjust="spacing" textLength="91.0273" x="403.7549" y="765.5488">:AbstractListUI</text><rect fill="#E2E2F0" height="32.6211" rx="2.5" ry="2.5" style="stroke:#181818;stroke-width:0.5;" width="136.9238" x="511.7822" y="50"/><text fill="#000000" font-family="sans-serif" font-size="14" lengthAdjust="spacing" textLength="122.9238" x="518.7822" y="72.1074">:ListUsersController</text><rect fill="#E2E2F0" height="32.6211" rx="2.5" ry="2.5" style="stroke:#181818;stroke-width:0.5;" width="136.9238" x="511.7822" y="743.4414"/><text fill="#000000" font-family="sans-serif" font-size="14" lengthAdjust="spacing" textLength="122.9238" x="518.7822" y="765.5488">:ListUsersController</text><rect fill="#E2E2F0" height="32.6211" rx="2.5" ry="2.5" style="stroke:#181818;stroke-width:0.5;" width="135.3584" x="658.7061" y="50"/><text fill="#000000" font-family="sans-serif" font-size="14" lengthAdjust="spacing" textLength="121.3584" x="665.7061" y="72.1074">:SystemUserPrinter</text><rect fill="#E2E2F0" height="32.6211" rx="2.5" ry="2.5" style="stroke:#181818;stroke-width:0.5;" width="135.3584" x="658.7061" y="743.4414"/><text fill="#000000" font-family="sans-serif" font-size="14" lengthAdjust="spacing" textLength="121.3584" x="665.7061" y="765.5488">:SystemUserPrinter</text><rect fill="#E2E2F0" height="32.6211" rx="2.5" ry="2.5" style="stroke:#181818;stroke-width:0.5;" width="101.1445" x="816.7456" y="50"/><text fill="#000000" font-family="sans-serif" font-size="14" lengthAdjust="spacing" textLength="87.1445" x="823.7456" y="72.1074">AuthzRegistry</text><rect fill="#E2E2F0" height="32.6211" rx="2.5" ry="2.5" style="stroke:#181818;stroke-width:0.5;" width="101.1445" x="816.7456" y="743.4414"/><text fill="#000000" font-family="sans-serif" font-size="14" lengthAdjust="spacing" textLength="87.1445" x="823.7456" y="765.5488">AuthzRegistry</text><rect fill="#E2E2F0" height="32.6211" rx="2.5" ry="2.5" style="stroke:#181818;stroke-width:0.5;" width="175.8477" x="927.8901" y="50"/><text fill="#000000" font-family="sans-serif" font-size="14" lengthAdjust="spacing" textLength="161.8477" x="934.8901" y="72.1074">:UserManagementService</text><rect fill="#E2E2F0" height="32.6211" rx="2.5" ry="2.5" style="stroke:#181818;stroke-width:0.5;" width="175.8477" x="927.8901" y="743.4414"/><text fill="#000000" font-family="sans-serif" font-size="14" lengthAdjust="spacing" textLength="161.8477" x="934.8901" y="765.5488">:UserManagementService</text><rect fill="#FFFFFF" height="632.8203" style="stroke:#181818;stroke-width:1.0;" width="10" x="44.2344" y="93.6211"/><rect fill="#FFFFFF" height="609.5293" style="stroke:#181818;stroke-width:1.0;" width="10" x="156.041" y="116.9121"/><rect fill="#FFFFFF" height="578.2383" style="stroke:#181818;stroke-width:1.0;" width="10" x="268.7305" y="148.2031"/><rect fill="#FFFFFF" height="219.0371" style="stroke:#181818;stroke-width:1.0;" width="10" x="273.7305" y="210.7852"/><rect fill="#FFFFFF" height="31.291" style="stroke:#181818;stroke-width:1.0;" width="10" x="273.7305" y="461.1133"/><rect fill="#FFFFFF" height="31.291" style="stroke:#181818;stroke-width:1.0;" width="10" x="273.7305" y="523.6953"/><rect fill="#FFFFFF" height="546.9473" style="stroke:#181818;stroke-width:1.0;" width="10" x="444.2686" y="179.4941"/><rect fill="#FFFFFF" height="156.4551" style="stroke:#181818;stroke-width:1.0;" width="10" x="575.2441" y="242.0762"/><rect fill="#FFFFFF" height="75.582" style="stroke:#181818;stroke-width:1.0;" width="10" x="721.3853" y="612.5684"/><rect fill="#FFFFFF" height="31.291" style="stroke:#181818;stroke-width:1.0;" width="10" x="862.3179" y="273.3672"/><rect fill="#FFFFFF" height="31.291" style="stroke:#181818;stroke-width:1.0;" width="10" x="1010.814" y="335.9492"/><polygon fill="#181818" points="144.041,112.9121,154.041,116.9121,144.041,120.9121,148.041,116.9121" style="stroke:#181818;stroke-width:1.0;"/><line style="stroke:#181818;stroke-width:1.0;" x1="54.2344" x2="150.041" y1="116.9121" y2="116.9121"/><text fill="#000000" font-family="sans-serif" font-size="13" lengthAdjust="spacing" textLength="54.1899" x="61.2344" y="111.6494">execute()</text><polygon fill="#181818" points="256.7305,144.2031,266.7305,148.2031,256.7305,152.2031,260.7305,148.2031" style="stroke:#181818;stroke-width:1.0;"/><line style="stroke:#181818;stroke-width:1.0;" x1="166.041" x2="262.7305" y1="148.2031" y2="148.2031"/><text fill="#000000" font-family="sans-serif" font-size="13" lengthAdjust="spacing" textLength="39.0063" x="173.041" y="142.9404">show()</text><polygon fill="#181818" points="432.2686,175.4941,442.2686,179.4941,432.2686,183.4941,436.2686,179.4941" style="stroke:#181818;stroke-width:1.0;"/><line style="stroke:#181818;stroke-width:1.0;" x1="278.7305" x2="438.2686" y1="179.4941" y2="179.4941"/><text fill="#000000" font-family="sans-serif" font-size="13" lengthAdjust="spacing" textLength="39.0063" x="285.7305" y="174.2314">show()</text><polygon fill="#181818" points="294.7305,206.7852,284.7305,210.7852,294.7305,214.7852,290.7305,210.7852" style="stroke:#181818;stroke-width:1.0;"/><line style="stroke:#181818;stroke-width:1.0;" x1="288.7305" x2="443.2686" y1="210.7852" y2="210.7852"/><text fill="#000000" font-family="sans-serif" font-size="13" lengthAdjust="spacing" textLength="61.4072" x="300.7305" y="205.5225">elements()</text><polygon fill="#181818" points="563.2441,238.0762,573.2441,242.0762,563.2441,246.0762,567.2441,242.0762" style="stroke:#181818;stroke-width:1.0;"/><line style="stroke:#181818;stroke-width:1.0;" x1="283.7305" x2="569.2441" y1="242.0762" y2="242.0762"/><text fill="#000000" font-family="sans-serif" font-size="13" lengthAdjust="spacing" textLength="101.1372" x="290.7305" y="236.8135">backofficeUsers()</text><polygon fill="#181818" points="850.3179,269.3672,860.3179,273.3672,850.3179,277.3672,854.3179,273.3672" style="stroke:#181818;stroke-width:1.0;"/><line style="stroke:#181818;stroke-width:1.0;" x1="585.2441" x2="856.3179" y1="273.3672" y2="273.3672"/><text fill="#000000" font-family="sans-serif" font-size="13" lengthAdjust="spacing" textLength="77.2954" x="592.2441" y="268.1045">userService()</text><polygon fill="#181818" points="596.2441,300.6582,586.2441,304.6582,596.2441,308.6582,592.2441,304.6582" style="stroke:#181818;stroke-width:1.0;"/><line style="stroke:#181818;stroke-width:1.0;stroke-dasharray:2.0,2.0;" x1="590.2441" x2="866.3179" y1="304.6582" y2="304.6582"/><text fill="#000000" font-family="sans-serif" font-size="13" lengthAdjust="spacing" textLength="68.6372" x="602.2441" y="299.3955">userService</text><polygon fill="#181818" points="998.814,331.9492,1008.814,335.9492,998.814,339.9492,1002.814,335.9492" style="stroke:#181818;stroke-width:1.0;"/><line style="stroke:#181818;stroke-width:1.0;" x1="585.2441" x2="1004.814" y1="335.9492" y2="335.9492"/><text fill="#000000" font-family="sans-serif" font-size="13" lengthAdjust="spacing" textLength="55.6118" x="592.2441" y="330.6865">allUsers()</text><polygon fill="#181818" points="596.2441,363.2402,586.2441,367.2402,596.2441,371.2402,592.2441,367.2402" style="stroke:#181818;stroke-width:1.0;"/><line style="stroke:#181818;stroke-width:1.0;stroke-dasharray:2.0,2.0;" x1="590.2441" x2="1014.814" y1="367.2402" y2="367.2402"/><text fill="#000000" font-family="sans-serif" font-size="13" lengthAdjust="spacing" textLength="45.519" x="602.2441" y="361.9775">userList</text><polygon fill="#181818" points="294.7305,394.5313,284.7305,398.5313,294.7305,402.5313,290.7305,398.5313" style="stroke:#181818;stroke-width:1.0;"/><line style="stroke:#181818;stroke-width:1.0;stroke-dasharray:2.0,2.0;" x1="288.7305" x2="579.2441" y1="398.5313" y2="398.5313"/><text fill="#000000" font-family="sans-serif" font-size="13" lengthAdjust="spacing" textLength="92.479" x="300.7305" y="393.2686">backofficeUsers</text><polygon fill="#181818" points="432.2686,425.8223,442.2686,429.8223,432.2686,433.8223,436.2686,429.8223" style="stroke:#181818;stroke-width:1.0;"/><line style="stroke:#181818;stroke-width:1.0;stroke-dasharray:2.0,2.0;" x1="278.7305" x2="438.2686" y1="429.8223" y2="429.8223"/><text fill="#000000" font-family="sans-serif" font-size="13" lengthAdjust="spacing" textLength="45.519" x="285.7305" y="424.5596">userList</text><polygon fill="#181818" points="294.7305,457.1133,284.7305,461.1133,294.7305,465.1133,290.7305,461.1133" style="stroke:#181818;stroke-width:1.0;"/><line style="stroke:#181818;stroke-width:1.0;" x1="288.7305" x2="443.2686" y1="461.1133" y2="461.1133"/><text fill="#000000" font-family="sans-serif" font-size="13" lengthAdjust="spacing" textLength="93.1963" x="300.7305" y="455.8506">elementPrinter()</text><polygon fill="#181818" points="432.2686,488.4043,442.2686,492.4043,432.2686,496.4043,436.2686,492.4043" style="stroke:#181818;stroke-width:1.0;"/><line style="stroke:#181818;stroke-width:1.0;stroke-dasharray:2.0,2.0;" x1="278.7305" x2="438.2686" y1="492.4043" y2="492.4043"/><text fill="#000000" font-family="sans-serif" font-size="13" lengthAdjust="spacing" textLength="136.5381" x="285.7305" y="487.1416">new SystemUserPrinter</text><polygon fill="#181818" points="294.7305,519.6953,284.7305,523.6953,294.7305,527.6953,290.7305,523.6953" style="stroke:#181818;stroke-width:1.0;"/><line style="stroke:#181818;stroke-width:1.0;" x1="288.7305" x2="443.2686" y1="523.6953" y2="523.6953"/><text fill="#000000" font-family="sans-serif" font-size="13" lengthAdjust="spacing" textLength="67.1836" x="300.7305" y="518.4326">listHeader()</text><polygon fill="#181818" points="432.2686,550.9863,442.2686,554.9863,432.2686,558.9863,436.2686,554.9863" style="stroke:#181818;stroke-width:1.0;"/><line style="stroke:#181818;stroke-width:1.0;stroke-dasharray:2.0,2.0;" x1="278.7305" x2="438.2686" y1="554.9863" y2="554.9863"/><text fill="#000000" font-family="sans-serif" font-size="13" lengthAdjust="spacing" textLength="99.0044" x="285.7305" y="549.7236">formatted header</text><path d="M386.7549,569.9863 L459.1895,569.9863 L459.1895,579.2773 L449.1895,589.2773 L386.7549,589.2773 L386.7549,569.9863 " fill="#EEEEEE" style="stroke:#000000;stroke-width:1.5;"/><rect fill="none" height="126.1641" style="stroke:#000000;stroke-width:1.5;" width="480.563" x="386.7549" y="569.9863"/><text fill="#000000" font-family="sans-serif" font-size="13" font-weight="bold" lengthAdjust="spacing" textLength="27.4346" x="401.7549" y="585.0146">loop</text><text fill="#000000" font-family="sans-serif" font-size="11" font-weight="bold" lengthAdjust="spacing" textLength="135.0884" x="474.1895" y="583.8564">[for each user in userList]</text><polygon fill="#181818" points="709.3853,608.5684,719.3853,612.5684,709.3853,616.5684,713.3853,612.5684" style="stroke:#181818;stroke-width:1.0;"/><line style="stroke:#181818;stroke-width:1.0;" x1="454.2686" x2="715.3853" y1="612.5684" y2="612.5684"/><text fill="#000000" font-family="sans-serif" font-size="13" lengthAdjust="spacing" textLength="56.3354" x="461.2686" y="607.3057">visit(user)</text><line style="stroke:#181818;stroke-width:1.0;" x1="731.3853" x2="773.3853" y1="643.8594" y2="643.8594"/><line style="stroke:#181818;stroke-width:1.0;" x1="773.3853" x2="773.3853" y1="643.8594" y2="656.8594"/><line style="stroke:#181818;stroke-width:1.0;" x1="732.3853" x2="773.3853" y1="656.8594" y2="656.8594"/><polygon fill="#181818" points="742.3853,652.8594,732.3853,656.8594,742.3853,660.8594,738.3853,656.8594" style="stroke:#181818;stroke-width:1.0;"/><text fill="#000000" font-family="sans-serif" font-size="13" lengthAdjust="spacing" textLength="106.9326" x="738.3853" y="638.5967">format user details</text><polygon fill="#181818" points="465.2686,684.1504,455.2686,688.1504,465.2686,692.1504,461.2686,688.1504" style="stroke:#181818;stroke-width:1.0;"/><line style="stroke:#181818;stroke-width:1.0;stroke-dasharray:2.0,2.0;" x1="459.2686" x2="725.3853" y1="688.1504" y2="688.1504"/><text fill="#000000" font-family="sans-serif" font-size="13" lengthAdjust="spacing" textLength="78.7617" x="471.2686" y="682.8877">formatted line</text><polygon fill="#181818" points="60.2344,722.4414,50.2344,726.4414,60.2344,730.4414,56.2344,726.4414" style="stroke:#181818;stroke-width:1.0;"/><line style="stroke:#181818;stroke-width:1.0;stroke-dasharray:2.0,2.0;" x1="54.2344" x2="448.2686" y1="726.4414" y2="726.4414"/><text fill="#000000" font-family="sans-serif" font-size="13" lengthAdjust="spacing" textLength="95.3672" x="66.2344" y="721.1787">displays user list</text><!--SRC=[hLN1Sfim4Btp5Ji-fOVyW0-TeQwdOIP9Cs1wwCMZmDfe8YG6oNRThwyaX2qH84bRNJostxvzx-qYv0lb3Mb93GqfNiWUCtLc22qMYl0zmqXU0B8YfJXHleSTOHAZY1HAjB28ovfoAbLBzDS540dnruVaCT9LYXQq8Lp1Odcl4Rd4LiQ5ee9tkDKc-Ju9p1CBofC187uslGfbWHqc_f9jN-4kH2l1LIiOmqxTQfFU3w3PMIgi3VYffLmvu5EQF6xMQOYD3whwdUBU63vtpVFDtSzjklus83Lq3uJhJ6laAiFsI0liB6NhT9lzMDa8wP4eT955zWDkFxjeO0du2uk3mfjF7hQB3VHnC5sG9neiAt7IIFFF1Qrp0NSqnb3Ri49qKE7I1E-uchuFCkj9UjLJFSFU9djT_wntJUnsEWyxe05DG6Md1IF7KXaxVVoQzw3PND0ZdA79ozHWubo9Rw_AlGwZXIM-iyEiftv1T4F2s5H6OUJzJatPkN0Et9Z7v2qhi-GpJlfz6SmxccarEc-pFFxcZkhszORxzuvLTi_z1nVQryJn1A_kaVyWa6cVTqZAVnAt4srDbC8IAalrDxgO48qX0Wslx0Y0ykaLkjfmzwYMSQIIgXjJClF4zzVks5hrL05hPwvJLA8YbCdvul5a6EKujvbZkf2NRm_IjBFt-X9AAXj6ph8Jo_pS_9lZUW67i_4ntKiW-Cc-G_u0]--></g></svg>