<svg xmlns="http://www.w3.org/2000/svg" xmlns:xlink="http://www.w3.org/1999/xlink" contentStyleType="text/css" height="1290px" preserveAspectRatio="none" style="width:791px;height:1290px;background:#FFFFFF;" version="1.1" viewBox="0 0 791 1290" width="791px" zoomAndPan="magnify"><defs/><g><!--class AddUserAction--><g id="elem_AddUserAction"><rect codeLine="6" fill="#F1F1F1" height="66.6211" id="AddUserAction" rx="2.5" ry="2.5" style="stroke:#181818;stroke-width:0.5;" width="140.0303" x="421" y="7"/><ellipse cx="442.5931" cy="23" fill="#ADD1B2" rx="11" ry="11" style="stroke:#181818;stroke-width:1.0;"/><path d="M445.3587,18.875 Q445.515,18.6563 445.7025,18.5469 Q445.89,18.4375 446.1087,18.4375 Q446.4837,18.4375 446.7181,18.7031 Q446.9525,18.9531 446.9525,19.5625 L446.9525,21.0156 Q446.9525,21.625 446.7181,21.8906 Q446.4837,22.1563 446.1087,22.1563 Q445.765,22.1563 445.5619,21.9531 Q445.3587,21.7656 445.2494,21.25 Q445.2025,20.8906 445.015,20.7031 Q444.6869,20.3281 444.0775,20.1094 Q443.4681,19.8906 442.8431,19.8906 Q442.0775,19.8906 441.4369,20.2188 Q440.8119,20.5469 440.3119,21.2969 Q439.8275,22.0469 439.8275,23.0781 L439.8275,24.1719 Q439.8275,25.4063 440.7181,26.2344 Q441.6087,27.0469 443.2025,27.0469 Q444.14,27.0469 444.7962,26.7969 Q445.1869,26.6406 445.6087,26.2031 Q445.8744,25.9375 446.015,25.8594 Q446.1712,25.7813 446.3744,25.7813 Q446.7025,25.7813 446.9525,26.0469 Q447.2181,26.2969 447.2181,26.6406 Q447.2181,26.9844 446.8744,27.3906 Q446.3744,27.9688 445.5775,28.2969 Q444.4994,28.75 443.2025,28.75 Q441.6869,28.75 440.4837,28.125 Q439.4994,27.625 438.8119,26.5625 Q438.1244,25.4844 438.1244,24.2031 L438.1244,23.0469 Q438.1244,21.7188 438.7337,20.5781 Q439.3587,19.4219 440.4525,18.8125 Q441.5462,18.1875 442.7806,18.1875 Q443.515,18.1875 444.1556,18.3594 Q444.8119,18.5156 445.3587,18.875 Z " fill="#000000"/><text fill="#000000" font-family="sans-serif" font-size="14" lengthAdjust="spacing" textLength="93.3789" x="458.0583" y="28.7969">AddUserAction</text><line style="stroke:#181818;stroke-width:0.5;" x1="422" x2="560.0303" y1="39" y2="39"/><line style="stroke:#181818;stroke-width:0.5;" x1="422" x2="560.0303" y1="47" y2="47"/><text fill="#000000" font-family="sans-serif" font-size="14" lengthAdjust="spacing" textLength="128.0303" x="427" y="66.1074">+execute() : boolean</text></g><!--class AddUserUI--><g id="elem_AddUserUI"><rect codeLine="10" fill="#F1F1F1" height="141.1055" id="AddUserUI" rx="2.5" ry="2.5" style="stroke:#181818;stroke-width:0.5;" width="312.3643" x="335" y="153"/><ellipse cx="452.6978" cy="169" fill="#ADD1B2" rx="11" ry="11" style="stroke:#181818;stroke-width:1.0;"/><path d="M455.4634,164.875 Q455.6196,164.6563 455.8071,164.5469 Q455.9946,164.4375 456.2134,164.4375 Q456.5884,164.4375 456.8228,164.7031 Q457.0571,164.9531 457.0571,165.5625 L457.0571,167.0156 Q457.0571,167.625 456.8228,167.8906 Q456.5884,168.1563 456.2134,168.1563 Q455.8696,168.1563 455.6665,167.9531 Q455.4634,167.7656 455.354,167.25 Q455.3071,166.8906 455.1196,166.7031 Q454.7915,166.3281 454.1821,166.1094 Q453.5728,165.8906 452.9478,165.8906 Q452.1821,165.8906 451.5415,166.2188 Q450.9165,166.5469 450.4165,167.2969 Q449.9321,168.0469 449.9321,169.0781 L449.9321,170.1719 Q449.9321,171.4063 450.8228,172.2344 Q451.7134,173.0469 453.3071,173.0469 Q454.2446,173.0469 454.9009,172.7969 Q455.2915,172.6406 455.7134,172.2031 Q455.979,171.9375 456.1196,171.8594 Q456.2759,171.7813 456.479,171.7813 Q456.8071,171.7813 457.0571,172.0469 Q457.3228,172.2969 457.3228,172.6406 Q457.3228,172.9844 456.979,173.3906 Q456.479,173.9688 455.6821,174.2969 Q454.604,174.75 453.3071,174.75 Q451.7915,174.75 450.5884,174.125 Q449.604,173.625 448.9165,172.5625 Q448.229,171.4844 448.229,170.2031 L448.229,169.0469 Q448.229,167.7188 448.8384,166.5781 Q449.4634,165.4219 450.5571,164.8125 Q451.6509,164.1875 452.8853,164.1875 Q453.6196,164.1875 454.2603,164.3594 Q454.9165,164.5156 455.4634,164.875 Z " fill="#000000"/><text fill="#000000" font-family="sans-serif" font-size="14" lengthAdjust="spacing" textLength="68.4688" x="473.1978" y="174.7969">AddUserUI</text><line style="stroke:#181818;stroke-width:0.5;" x1="336" x2="646.3643" y1="185" y2="185"/><text fill="#000000" font-family="sans-serif" font-size="14" lengthAdjust="spacing" textLength="211.6406" x="341" y="204.1074">-theController : AddUserController</text><line style="stroke:#181818;stroke-width:0.5;" x1="336" x2="646.3643" y1="211.6211" y2="211.6211"/><text fill="#000000" font-family="sans-serif" font-size="14" lengthAdjust="spacing" textLength="111.6787" x="341" y="230.7285">+show() : boolean</text><text fill="#000000" font-family="sans-serif" font-size="14" lengthAdjust="spacing" textLength="129.1992" x="341" y="249.3496">#doShow() : boolean</text><text fill="#000000" font-family="sans-serif" font-size="14" lengthAdjust="spacing" textLength="283.2539" x="341" y="267.9707">-showRoles(roleTypes : Set&lt;Role&gt;) : boolean</text><text fill="#000000" font-family="sans-serif" font-size="14" lengthAdjust="spacing" textLength="300.3643" x="341" y="286.5918">-buildRolesMenu(roleTypes : Set&lt;Role&gt;) : Menu</text></g><!--class AddUserController--><g id="elem_AddUserController"><rect codeLine="18" fill="#F1F1F1" height="141.1055" id="AddUserController" rx="2.5" ry="2.5" style="stroke:#181818;stroke-width:0.5;" width="587.3672" x="197.5" y="373"/><ellipse cx="429.3545" cy="389" fill="#ADD1B2" rx="11" ry="11" style="stroke:#181818;stroke-width:1.0;"/><path d="M432.1201,384.875 Q432.2764,384.6563 432.4639,384.5469 Q432.6514,384.4375 432.8701,384.4375 Q433.2451,384.4375 433.4795,384.7031 Q433.7139,384.9531 433.7139,385.5625 L433.7139,387.0156 Q433.7139,387.625 433.4795,387.8906 Q433.2451,388.1563 432.8701,388.1563 Q432.5264,388.1563 432.3232,387.9531 Q432.1201,387.7656 432.0107,387.25 Q431.9639,386.8906 431.7764,386.7031 Q431.4482,386.3281 430.8389,386.1094 Q430.2295,385.8906 429.6045,385.8906 Q428.8389,385.8906 428.1982,386.2188 Q427.5732,386.5469 427.0732,387.2969 Q426.5889,388.0469 426.5889,389.0781 L426.5889,390.1719 Q426.5889,391.4063 427.4795,392.2344 Q428.3701,393.0469 429.9639,393.0469 Q430.9014,393.0469 431.5576,392.7969 Q431.9482,392.6406 432.3701,392.2031 Q432.6357,391.9375 432.7764,391.8594 Q432.9326,391.7813 433.1357,391.7813 Q433.4639,391.7813 433.7139,392.0469 Q433.9795,392.2969 433.9795,392.6406 Q433.9795,392.9844 433.6357,393.3906 Q433.1357,393.9688 432.3389,394.2969 Q431.2607,394.75 429.9639,394.75 Q428.4482,394.75 427.2451,394.125 Q426.2607,393.625 425.5732,392.5625 Q424.8857,391.4844 424.8857,390.2031 L424.8857,389.0469 Q424.8857,387.7188 425.4951,386.5781 Q426.1201,385.4219 427.2139,384.8125 Q428.3076,384.1875 429.542,384.1875 Q430.2764,384.1875 430.917,384.3594 Q431.5732,384.5156 432.1201,384.875 Z " fill="#000000"/><text fill="#000000" font-family="sans-serif" font-size="14" lengthAdjust="spacing" textLength="115.1582" x="449.8545" y="394.7969">AddUserController</text><line style="stroke:#181818;stroke-width:0.5;" x1="198.5" x2="783.8672" y1="405" y2="405"/><text fill="#000000" font-family="sans-serif" font-size="14" lengthAdjust="spacing" textLength="178.9785" x="203.5" y="424.1074">-authz : AuthorizationService</text><text fill="#000000" font-family="sans-serif" font-size="14" lengthAdjust="spacing" textLength="224.8613" x="203.5" y="442.7285">-userSvc : UserManagementService</text><line style="stroke:#181818;stroke-width:0.5;" x1="198.5" x2="783.8672" y1="450.2422" y2="450.2422"/><text fill="#000000" font-family="sans-serif" font-size="14" lengthAdjust="spacing" textLength="152.1201" x="203.5" y="469.3496">+getRoleTypes() : Role[]</text><text fill="#000000" font-family="sans-serif" font-size="14" lengthAdjust="spacing" textLength="502.2158" x="203.5" y="487.9707">+addUser(username, password, firstName, lastName, email, roles) : SystemUser</text><text fill="#000000" font-family="sans-serif" font-size="14" lengthAdjust="spacing" textLength="575.3672" x="203.5" y="506.5918">+addUser(username, password, firstName, lastName, email, roles, createdOn) : SystemUser</text></g><!--class AuthzRegistry--><g id="elem_AuthzRegistry"><rect codeLine="26" fill="#F1F1F1" height="85.2422" id="AuthzRegistry" rx="2.5" ry="2.5" style="stroke:#181818;stroke-width:0.5;" width="296.416" x="142" y="575"/><ellipse cx="242.3857" cy="591" fill="#ADD1B2" rx="11" ry="11" style="stroke:#181818;stroke-width:1.0;"/><path d="M245.1514,586.875 Q245.3076,586.6563 245.4951,586.5469 Q245.6826,586.4375 245.9014,586.4375 Q246.2764,586.4375 246.5107,586.7031 Q246.7451,586.9531 246.7451,587.5625 L246.7451,589.0156 Q246.7451,589.625 246.5107,589.8906 Q246.2764,590.1563 245.9014,590.1563 Q245.5576,590.1563 245.3545,589.9531 Q245.1514,589.7656 245.042,589.25 Q244.9951,588.8906 244.8076,588.7031 Q244.4795,588.3281 243.8701,588.1094 Q243.2607,587.8906 242.6357,587.8906 Q241.8701,587.8906 241.2295,588.2188 Q240.6045,588.5469 240.1045,589.2969 Q239.6201,590.0469 239.6201,591.0781 L239.6201,592.1719 Q239.6201,593.4063 240.5107,594.2344 Q241.4014,595.0469 242.9951,595.0469 Q243.9326,595.0469 244.5889,594.7969 Q244.9795,594.6406 245.4014,594.2031 Q245.667,593.9375 245.8076,593.8594 Q245.9639,593.7813 246.167,593.7813 Q246.4951,593.7813 246.7451,594.0469 Q247.0107,594.2969 247.0107,594.6406 Q247.0107,594.9844 246.667,595.3906 Q246.167,595.9688 245.3701,596.2969 Q244.292,596.75 242.9951,596.75 Q241.4795,596.75 240.2764,596.125 Q239.292,595.625 238.6045,594.5625 Q237.917,593.4844 237.917,592.2031 L237.917,591.0469 Q237.917,589.7188 238.5264,588.5781 Q239.1514,587.4219 240.2451,586.8125 Q241.3389,586.1875 242.5732,586.1875 Q243.3076,586.1875 243.9482,586.3594 Q244.6045,586.5156 245.1514,586.875 Z " fill="#000000"/><text fill="#000000" font-family="sans-serif" font-size="14" lengthAdjust="spacing" textLength="87.1445" x="262.8857" y="596.7969">AuthzRegistry</text><line style="stroke:#181818;stroke-width:0.5;" x1="143" x2="437.416" y1="607" y2="607"/><line style="stroke:#181818;stroke-width:0.5;" x1="143" x2="437.416" y1="615" y2="615"/><text fill="#000000" font-family="sans-serif" font-size="14" lengthAdjust="spacing" text-decoration="underline" textLength="284.416" x="148" y="634.1074">+authorizationService() : AuthorizationService</text><text fill="#000000" font-family="sans-serif" font-size="14" lengthAdjust="spacing" text-decoration="underline" textLength="261.0439" x="148" y="652.7285">+userService() : UserManagementService</text></g><!--class UserManagementService--><g id="elem_UserManagementService"><rect codeLine="31" fill="#F1F1F1" height="66.6211" id="UserManagementService" rx="2.5" ry="2.5" style="stroke:#181818;stroke-width:0.5;" width="565.5469" x="7" y="739"/><ellipse cx="206.5444" cy="755" fill="#ADD1B2" rx="11" ry="11" style="stroke:#181818;stroke-width:1.0;"/><path d="M209.3101,750.875 Q209.4663,750.6563 209.6538,750.5469 Q209.8413,750.4375 210.0601,750.4375 Q210.4351,750.4375 210.6694,750.7031 Q210.9038,750.9531 210.9038,751.5625 L210.9038,753.0156 Q210.9038,753.625 210.6694,753.8906 Q210.4351,754.1563 210.0601,754.1563 Q209.7163,754.1563 209.5132,753.9531 Q209.3101,753.7656 209.2007,753.25 Q209.1538,752.8906 208.9663,752.7031 Q208.6382,752.3281 208.0288,752.1094 Q207.4194,751.8906 206.7944,751.8906 Q206.0288,751.8906 205.3882,752.2188 Q204.7632,752.5469 204.2632,753.2969 Q203.7788,754.0469 203.7788,755.0781 L203.7788,756.1719 Q203.7788,757.4063 204.6694,758.2344 Q205.5601,759.0469 207.1538,759.0469 Q208.0913,759.0469 208.7476,758.7969 Q209.1382,758.6406 209.5601,758.2031 Q209.8257,757.9375 209.9663,757.8594 Q210.1226,757.7813 210.3257,757.7813 Q210.6538,757.7813 210.9038,758.0469 Q211.1694,758.2969 211.1694,758.6406 Q211.1694,758.9844 210.8257,759.3906 Q210.3257,759.9688 209.5288,760.2969 Q208.4507,760.75 207.1538,760.75 Q205.6382,760.75 204.4351,760.125 Q203.4507,759.625 202.7632,758.5625 Q202.0757,757.4844 202.0757,756.2031 L202.0757,755.0469 Q202.0757,753.7188 202.6851,752.5781 Q203.3101,751.4219 204.4038,750.8125 Q205.4976,750.1875 206.7319,750.1875 Q207.4663,750.1875 208.1069,750.3594 Q208.7632,750.5156 209.3101,750.875 Z " fill="#000000"/><text fill="#000000" font-family="sans-serif" font-size="14" lengthAdjust="spacing" textLength="157.958" x="227.0444" y="760.7969">UserManagementService</text><line style="stroke:#181818;stroke-width:0.5;" x1="8" x2="571.5469" y1="771" y2="771"/><line style="stroke:#181818;stroke-width:0.5;" x1="8" x2="571.5469" y1="779" y2="779"/><text fill="#000000" font-family="sans-serif" font-size="14" lengthAdjust="spacing" textLength="553.5469" x="13" y="798.1074">+registerNewUser(username, password, firstName, lastName, email, roles) : SystemUser</text></g><!--class SystemUser--><g id="elem_SystemUser"><rect codeLine="35" fill="#F1F1F1" height="178.3477" id="SystemUser" rx="2.5" ry="2.5" style="stroke:#181818;stroke-width:0.5;" width="155.165" x="380.5" y="885"/><ellipse cx="416.6188" cy="901" fill="#ADD1B2" rx="11" ry="11" style="stroke:#181818;stroke-width:1.0;"/><path d="M419.3844,896.875 Q419.5407,896.6563 419.7282,896.5469 Q419.9157,896.4375 420.1344,896.4375 Q420.5094,896.4375 420.7438,896.7031 Q420.9782,896.9531 420.9782,897.5625 L420.9782,899.0156 Q420.9782,899.625 420.7438,899.8906 Q420.5094,900.1563 420.1344,900.1563 Q419.7907,900.1563 419.5875,899.9531 Q419.3844,899.7656 419.275,899.25 Q419.2282,898.8906 419.0407,898.7031 Q418.7125,898.3281 418.1032,898.1094 Q417.4938,897.8906 416.8688,897.8906 Q416.1032,897.8906 415.4625,898.2188 Q414.8375,898.5469 414.3375,899.2969 Q413.8532,900.0469 413.8532,901.0781 L413.8532,902.1719 Q413.8532,903.4063 414.7438,904.2344 Q415.6344,905.0469 417.2282,905.0469 Q418.1657,905.0469 418.8219,904.7969 Q419.2125,904.6406 419.6344,904.2031 Q419.9,903.9375 420.0407,903.8594 Q420.1969,903.7813 420.4,903.7813 Q420.7282,903.7813 420.9782,904.0469 Q421.2438,904.2969 421.2438,904.6406 Q421.2438,904.9844 420.9,905.3906 Q420.4,905.9688 419.6032,906.2969 Q418.525,906.75 417.2282,906.75 Q415.7125,906.75 414.5094,906.125 Q413.525,905.625 412.8375,904.5625 Q412.15,903.4844 412.15,902.2031 L412.15,901.0469 Q412.15,899.7188 412.7594,898.5781 Q413.3844,897.4219 414.4782,896.8125 Q415.5719,896.1875 416.8063,896.1875 Q417.5407,896.1875 418.1813,896.3594 Q418.8375,896.5156 419.3844,896.875 Z " fill="#000000"/><text fill="#000000" font-family="sans-serif" font-size="14" lengthAdjust="spacing" textLength="76.2344" x="435.3119" y="906.7969">SystemUser</text><line style="stroke:#181818;stroke-width:0.5;" x1="381.5" x2="534.665" y1="917" y2="917"/><text fill="#000000" font-family="sans-serif" font-size="14" lengthAdjust="spacing" textLength="143.165" x="386.5" y="936.1074">-username : Username</text><text fill="#000000" font-family="sans-serif" font-size="14" lengthAdjust="spacing" textLength="137.7168" x="386.5" y="954.7285">-password : Password</text><text fill="#000000" font-family="sans-serif" font-size="14" lengthAdjust="spacing" textLength="87.9238" x="386.5" y="973.3496">-name : String</text><text fill="#000000" font-family="sans-serif" font-size="14" lengthAdjust="spacing" textLength="86.3584" x="386.5" y="991.9707">-email : String</text><text fill="#000000" font-family="sans-serif" font-size="14" lengthAdjust="spacing" textLength="112.834" x="386.5" y="1010.5918">-roles : Set&lt;Role&gt;</text><text fill="#000000" font-family="sans-serif" font-size="14" lengthAdjust="spacing" textLength="102.7305" x="386.5" y="1029.2129">-active : boolean</text><line style="stroke:#181818;stroke-width:0.5;" x1="381.5" x2="534.665" y1="1036.7266" y2="1036.7266"/><text fill="#000000" font-family="sans-serif" font-size="14" lengthAdjust="spacing" textLength="127.2305" x="386.5" y="1055.834">+isActive() : boolean</text></g><!--class SystemRole--><g id="elem_SystemRole"><rect codeLine="45" fill="#F1F1F1" height="141.1055" id="SystemRole" rx="2.5" ry="2.5" style="stroke:#181818;stroke-width:0.5;" width="225.9238" x="144" y="1142"/><ellipse cx="214.9775" cy="1158" fill="#EB937F" rx="11" ry="11" style="stroke:#181818;stroke-width:1.0;"/><path d="M213.8369,1158.7969 L213.8369,1161.2969 L218.165,1161.2969 L218.165,1160.375 Q218.165,1159.7656 218.3994,1159.5 Q218.6494,1159.2344 219.0244,1159.2344 Q219.3994,1159.2344 219.6338,1159.5 Q219.8682,1159.7656 219.8682,1160.375 L219.8682,1163 L211.8682,1163 Q211.2432,1163 210.9775,1162.7656 Q210.7275,1162.5313 210.7275,1162.1406 Q210.7275,1161.7656 210.9932,1161.5313 Q211.2588,1161.2969 211.8682,1161.2969 L212.1338,1161.2969 L212.1338,1154.6406 L211.8682,1154.6406 Q211.2432,1154.6406 210.9775,1154.4063 Q210.7275,1154.1719 210.7275,1153.7813 Q210.7275,1153.4063 210.9775,1153.1719 Q211.2432,1152.9375 211.8682,1152.9375 L219.4932,1152.9375 L219.4932,1155.5313 Q219.4932,1156.1406 219.2588,1156.4063 Q219.04,1156.6563 218.6494,1156.6563 Q218.2744,1156.6563 218.04,1156.4063 Q217.8057,1156.1406 217.8057,1155.5313 L217.8057,1154.6406 L213.8369,1154.6406 L213.8369,1157.0938 L215.3213,1157.0938 Q215.3213,1156.4375 215.4463,1156.25 Q215.7119,1155.8438 216.1807,1155.8438 Q216.5557,1155.8438 216.79,1156.1094 Q217.0244,1156.3594 217.0244,1156.9688 L217.0244,1158.9375 Q217.0244,1159.4844 216.8994,1159.6719 Q216.6338,1160.0625 216.1807,1160.0625 Q215.7119,1160.0625 215.4463,1159.6563 Q215.3213,1159.4688 215.3213,1158.7969 L213.8369,1158.7969 Z " fill="#000000"/><text fill="#000000" font-family="sans-serif" font-size="14" lengthAdjust="spacing" textLength="75.4688" x="235.4775" y="1163.7969">SystemRole</text><line style="stroke:#181818;stroke-width:0.5;" x1="145" x2="368.9238" y1="1174" y2="1174"/><text fill="#000000" font-family="sans-serif" font-size="14" lengthAdjust="spacing" textLength="45.1104" x="150" y="1193.1074">ADMIN</text><text fill="#000000" font-family="sans-serif" font-size="14" lengthAdjust="spacing" textLength="110.4551" x="150" y="1211.7285">CRM_MANAGER</text><text fill="#000000" font-family="sans-serif" font-size="14" lengthAdjust="spacing" textLength="154.8066" x="150" y="1230.3496">CRM_COLLABORATOR</text><text fill="#000000" font-family="sans-serif" font-size="14" lengthAdjust="spacing" textLength="124.4619" x="150" y="1248.9707">SHOW_DESIGNER</text><text fill="#000000" font-family="sans-serif" font-size="14" lengthAdjust="spacing" textLength="213.9238" x="150" y="1267.5918">CUSTOMER_REPRESENTATIVE</text><line style="stroke:#181818;stroke-width:0.5;" x1="145" x2="368.9238" y1="1275.1055" y2="1275.1055"/></g><!--class Username--><g id="elem_Username"><rect codeLine="53" fill="#F1F1F1" height="79.2031" id="Username" rx="2.5" ry="2.5" style="stroke:#181818;stroke-width:0.5;" width="104.7168" x="405.5" y="1173"/><ellipse cx="420.5" cy="1195.291" fill="#ADD8E6" rx="11" ry="11" style="stroke:#181818;stroke-width:1.0;"/><path d="M421.0938,1198.5566 L423.5625,1192.6816 L423.1719,1192.6816 Q422.5625,1192.6816 422.2969,1192.4473 Q422.0313,1192.2129 422.0313,1191.8223 Q422.0313,1191.4473 422.2969,1191.2129 Q422.5625,1190.9785 423.1719,1190.9785 L425.4531,1190.9785 Q426.0625,1190.9785 426.3281,1191.2129 Q426.5938,1191.4473 426.5938,1191.8223 Q426.5938,1192.291 426.1875,1192.5566 Q426,1192.6816 425.4063,1192.6816 L421.9219,1201.041 L420.2813,1201.041 L416.7969,1192.6816 Q416.2031,1192.6816 416.0156,1192.5566 Q415.6094,1192.291 415.6094,1191.8223 Q415.6094,1191.4473 415.875,1191.2129 Q416.1406,1190.9785 416.75,1190.9785 L419.0469,1190.9785 Q419.6563,1190.9785 419.9063,1191.2129 Q420.1719,1191.4473 420.1719,1191.8223 Q420.1719,1192.2129 419.9063,1192.4473 Q419.6563,1192.6816 419.0469,1192.6816 L418.6406,1192.6816 L421.0938,1198.5566 Z " fill="#000000"/><text fill="#000000" font-family="sans-serif" font-size="12" font-style="italic" lengthAdjust="spacing" textLength="76.7168" x="432.5" y="1190.9492">&#171;valueObject&#187;</text><text fill="#000000" font-family="sans-serif" font-size="14" lengthAdjust="spacing" textLength="64.5791" x="438.5688" y="1209.0684">Username</text><line style="stroke:#181818;stroke-width:0.5;" x1="406.5" x2="509.2168" y1="1217.582" y2="1217.582"/><text fill="#000000" font-family="sans-serif" font-size="14" lengthAdjust="spacing" textLength="86.3721" x="411.5" y="1236.6895">-value : String</text><line style="stroke:#181818;stroke-width:0.5;" x1="406.5" x2="509.2168" y1="1244.2031" y2="1244.2031"/></g><!--class Password--><g id="elem_Password"><rect codeLine="57" fill="#F1F1F1" height="79.2031" id="Password" rx="2.5" ry="2.5" style="stroke:#181818;stroke-width:0.5;" width="104.7168" x="545.5" y="1173"/><ellipse cx="560.5" cy="1195.291" fill="#ADD8E6" rx="11" ry="11" style="stroke:#181818;stroke-width:1.0;"/><path d="M561.0938,1198.5566 L563.5625,1192.6816 L563.1719,1192.6816 Q562.5625,1192.6816 562.2969,1192.4473 Q562.0313,1192.2129 562.0313,1191.8223 Q562.0313,1191.4473 562.2969,1191.2129 Q562.5625,1190.9785 563.1719,1190.9785 L565.4531,1190.9785 Q566.0625,1190.9785 566.3281,1191.2129 Q566.5938,1191.4473 566.5938,1191.8223 Q566.5938,1192.291 566.1875,1192.5566 Q566,1192.6816 565.4063,1192.6816 L561.9219,1201.041 L560.2813,1201.041 L556.7969,1192.6816 Q556.2031,1192.6816 556.0156,1192.5566 Q555.6094,1192.291 555.6094,1191.8223 Q555.6094,1191.4473 555.875,1191.2129 Q556.1406,1190.9785 556.75,1190.9785 L559.0469,1190.9785 Q559.6563,1190.9785 559.9063,1191.2129 Q560.1719,1191.4473 560.1719,1191.8223 Q560.1719,1192.2129 559.9063,1192.4473 Q559.6563,1192.6816 559.0469,1192.6816 L558.6406,1192.6816 L561.0938,1198.5566 Z " fill="#000000"/><text fill="#000000" font-family="sans-serif" font-size="12" font-style="italic" lengthAdjust="spacing" textLength="76.7168" x="572.5" y="1190.9492">&#171;valueObject&#187;</text><text fill="#000000" font-family="sans-serif" font-size="14" lengthAdjust="spacing" textLength="61.4688" x="580.124" y="1209.0684">Password</text><line style="stroke:#181818;stroke-width:0.5;" x1="546.5" x2="649.2168" y1="1217.582" y2="1217.582"/><text fill="#000000" font-family="sans-serif" font-size="14" lengthAdjust="spacing" textLength="86.3721" x="551.5" y="1236.6895">-value : String</text><line style="stroke:#181818;stroke-width:0.5;" x1="546.5" x2="649.2168" y1="1244.2031" y2="1244.2031"/></g><!--link AddUserAction to AddUserUI--><g id="link_AddUserAction_AddUserUI"><path codeLine="61" d="M491,74.28 C491,96.18 491,119.83 491,146.85 " fill="none" id="AddUserAction-to-AddUserUI" style="stroke:#181818;stroke-width:1.0;stroke-dasharray:7.0,7.0;"/><polygon fill="#181818" points="491,152.85,495,143.85,491,147.85,487,143.85,491,152.85" style="stroke:#181818;stroke-width:1.0;"/><text fill="#000000" font-family="sans-serif" font-size="13" lengthAdjust="spacing" textLength="42.6309" x="492" y="119.0283">creates</text></g><!--link AddUserUI to AddUserController--><g id="link_AddUserUI_AddUserController"><path codeLine="62" d="M491,294.08 C491,319.25 491,341.66 491,366.84 " fill="none" id="AddUserUI-to-AddUserController" style="stroke:#181818;stroke-width:1.0;"/><polygon fill="#181818" points="491,372.84,495,363.84,491,367.84,487,363.84,491,372.84" style="stroke:#181818;stroke-width:1.0;"/><text fill="#000000" font-family="sans-serif" font-size="13" lengthAdjust="spacing" textLength="27.46" x="492" y="339.0283">uses</text><text fill="#000000" font-family="sans-serif" font-size="13" lengthAdjust="spacing" textLength="7.23" x="483.632" y="361.7145">1</text></g><!--link AddUserController to AuthzRegistry--><g id="link_AddUserController_AuthzRegistry"><path codeLine="63" d="M409.54,514.21 C385.49,534.79 364.4886,552.7588 343.1986,570.9788 " fill="none" id="AddUserController-to-AuthzRegistry" style="stroke:#181818;stroke-width:1.0;stroke-dasharray:7.0,7.0;"/><polygon fill="#181818" points="338.64,574.88,348.0787,572.0672,342.4388,571.629,342.877,565.9891,338.64,574.88" style="stroke:#181818;stroke-width:1.0;"/></g><!--link AddUserController to UserManagementService--><g id="link_AddUserController_UserManagementService"><path codeLine="64" d="M479.36,514.17 C468.84,577.13 455,660 455,660 C455,660 391.8413,702.6805 343.1413,735.5905 " fill="none" id="AddUserController-to-UserManagementService" style="stroke:#181818;stroke-width:1.0;stroke-dasharray:7.0,7.0;"/><polygon fill="#181818" points="338.17,738.95,347.8666,737.225,342.3128,736.1504,343.3873,730.5966,338.17,738.95" style="stroke:#181818;stroke-width:1.0;"/></g><!--link AddUserController to SystemUser--><g id="link_AddUserController_SystemUser"><path codeLine="65" d="M514.7,514.29 C544.27,601.38 591,739 591,739 C591,739 591,806 591,806 C591,806 564.0383,839.8569 532.1283,879.9169 " fill="none" id="AddUserController-to-SystemUser" style="stroke:#181818;stroke-width:1.0;stroke-dasharray:7.0,7.0;"/><polygon fill="#181818" points="528.39,884.61,537.1262,880.0626,531.5053,880.6991,530.8687,875.0782,528.39,884.61" style="stroke:#181818;stroke-width:1.0;"/></g><!--link AuthzRegistry to UserManagementService--><g id="link_AuthzRegistry_UserManagementService"><path codeLine="67" d="M290,660.31 C290,685.08 290,710.01 290,732.96 " fill="none" id="AuthzRegistry-to-UserManagementService" style="stroke:#181818;stroke-width:1.0;"/><polygon fill="#181818" points="290,738.96,294,729.96,290,733.96,286,729.96,290,738.96" style="stroke:#181818;stroke-width:1.0;"/><text fill="#000000" font-family="sans-serif" font-size="13" lengthAdjust="spacing" textLength="49.1372" x="291" y="705.0283">provides</text><text fill="#000000" font-family="sans-serif" font-size="13" lengthAdjust="spacing" textLength="7.23" x="282.3782" y="727.7776">1</text></g><!--link UserManagementService to SystemUser--><g id="link_UserManagementService_SystemUser"><path codeLine="69" d="M317.74,806.44 C335.82,827.91 356.475,852.4407 379.955,880.3207 " fill="none" id="UserManagementService-to-SystemUser" style="stroke:#181818;stroke-width:1.0;stroke-dasharray:7.0,7.0;"/><polygon fill="#181818" points="383.82,884.91,381.082,875.4494,380.5992,881.0856,374.9629,880.6027,383.82,884.91" style="stroke:#181818;stroke-width:1.0;"/><text fill="#000000" font-family="sans-serif" font-size="13" lengthAdjust="spacing" textLength="42.6309" x="356" y="851.0283">creates</text></g><!--link SystemUser to SystemRole--><g id="link_SystemUser_SystemRole"><path codeLine="71" d="M383.16,1063.06 C361.06,1089.07 341.0659,1112.5884 320.0959,1137.2584 " fill="none" id="SystemUser-to-SystemRole" style="stroke:#181818;stroke-width:1.0;"/><polygon fill="#181818" points="316.21,1141.83,325.0866,1137.5632,319.4483,1138.0203,318.9912,1132.382,316.21,1141.83" style="stroke:#181818;stroke-width:1.0;"/><text fill="#000000" font-family="sans-serif" font-size="13" lengthAdjust="spacing" textLength="20.96" x="359" y="1108.0283">has</text><text fill="#000000" font-family="sans-serif" font-size="13" lengthAdjust="spacing" textLength="19.5127" x="302.3667" y="1130.7035">1..*</text></g><!--link SystemUser to Username--><g id="link_SystemUser_Username"><path codeLine="72" d="M458,1063.06 C458,1100.89 458,1137.12 458,1166.84 " fill="none" id="SystemUser-to-Username" style="stroke:#181818;stroke-width:1.0;"/><polygon fill="#181818" points="458,1172.84,462,1163.84,458,1167.84,454,1163.84,458,1172.84" style="stroke:#181818;stroke-width:1.0;"/><text fill="#000000" font-family="sans-serif" font-size="13" lengthAdjust="spacing" textLength="20.96" x="459" y="1108.0283">has</text><text fill="#000000" font-family="sans-serif" font-size="13" lengthAdjust="spacing" textLength="7.23" x="450.4425" y="1161.5984">1</text></g><!--link SystemUser to Password--><g id="link_SystemUser_Password"><path codeLine="73" d="M510.13,1063.06 C532.52,1100.89 554.4627,1137.9573 572.0627,1167.6773 " fill="none" id="SystemUser-to-Password" style="stroke:#181818;stroke-width:1.0;"/><polygon fill="#181818" points="575.12,1172.84,573.9758,1163.0578,572.5723,1168.5378,567.0923,1167.1342,575.12,1172.84" style="stroke:#181818;stroke-width:1.0;"/><text fill="#000000" font-family="sans-serif" font-size="13" lengthAdjust="spacing" textLength="20.96" x="537" y="1108.0283">has</text><text fill="#000000" font-family="sans-serif" font-size="13" lengthAdjust="spacing" textLength="7.23" x="563.63" y="1161.5984">1</text></g><!--SRC=[hLHDZzem4BtdLrZiXIqVQYzLXH1I2j4MQI6h1BQ7ga8ccGLtWuri0uNL_lVQnabC29TgSuazy-Pvvdd6ufNGBUPuWxOuUSKhYEKn0yGXaPYkCl140H1hdB83eIlqWZFXUZ92GHwtWBOiE-gDuqioB8Gl9IVBdOHnmcXCJe0-Uvxn83zDvmAudqZ2A7hpaFfQ2Fv2ek3DUzH3IyOomDHxhuJCnnRUGN8DGqObPra6N8LOH6cpj6BD3XUSsdo7KXRNEJe67oc3Q2eQcAaIXSB48FlQEhWEMEv8bfg82T3TxIZjlIh8AI4l3E_a-gGBKd_6oGbhbMBWUvA0XUnKPBnF54XpJ31LbxW1AbrK2wr0Hdaofb2z-_NRUl4vWQRcedW3RTKDGXmOJzleXN0XfyQeahKhs62IjP6kJsYs-2WaR3J7Hp2sKS81IqX3MY4l9TF2HB0YGl9ZqJPlGYg5adUZMrKlK_PD8PrWewWJKwzhaKgjkqY9cno1J-7mOH8NHvUsecDoVfktNbfFVfxoFDcbzLXyh8QKhgpD75yrccJSNixRL4tl7YhJq494-CPH7MFL_1kRksQnkVkZoNXgLiDeifZuK_yXY8hzC7nyzB-7aJyBpyRuH_XpCGhYySCqXytZMJW9eaKKF4L174nd_cpy75pUbAcrtsy-jz6TFnfz2xxUeptETX0k_wX7Rp0eb3JMKe629HVlVrakNxnkT-0yQ3tR-S8hRPtE03M-D6fUYPw-xGBgE0ofEo4tCFMTNOzr-i-xdBuymVf1wA4jPtkIgaIzUiGbkwE1vrZFXtIxdnfkv_JG6ejhMAEywfk8ft8SDE8V]--></g></svg>