<svg xmlns="http://www.w3.org/2000/svg" xmlns:xlink="http://www.w3.org/1999/xlink" contentStyleType="text/css" height="1431px" preserveAspectRatio="none" style="width:838px;height:1431px;background:#FFFFFF;" version="1.1" viewBox="0 0 838 1431" width="838px" zoomAndPan="magnify"><defs/><g><!--class ListUsersAction--><g id="elem_ListUsersAction"><rect codeLine="6" fill="#F1F1F1" height="66.6211" id="ListUsersAction" rx="2.5" ry="2.5" style="stroke:#181818;stroke-width:0.5;" width="140.0303" x="395" y="7"/><ellipse cx="414.8489" cy="23" fill="#ADD1B2" rx="11" ry="11" style="stroke:#181818;stroke-width:1.0;"/><path d="M417.6146,18.875 Q417.7708,18.6563 417.9583,18.5469 Q418.1458,18.4375 418.3646,18.4375 Q418.7396,18.4375 418.9739,18.7031 Q419.2083,18.9531 419.2083,19.5625 L419.2083,21.0156 Q419.2083,21.625 418.9739,21.8906 Q418.7396,22.1563 418.3646,22.1563 Q418.0208,22.1563 417.8177,21.9531 Q417.6146,21.7656 417.5052,21.25 Q417.4583,20.8906 417.2708,20.7031 Q416.9427,20.3281 416.3333,20.1094 Q415.7239,19.8906 415.0989,19.8906 Q414.3333,19.8906 413.6927,20.2188 Q413.0677,20.5469 412.5677,21.2969 Q412.0833,22.0469 412.0833,23.0781 L412.0833,24.1719 Q412.0833,25.4063 412.9739,26.2344 Q413.8646,27.0469 415.4583,27.0469 Q416.3958,27.0469 417.0521,26.7969 Q417.4427,26.6406 417.8646,26.2031 Q418.1302,25.9375 418.2708,25.8594 Q418.4271,25.7813 418.6302,25.7813 Q418.9583,25.7813 419.2083,26.0469 Q419.4739,26.2969 419.4739,26.6406 Q419.4739,26.9844 419.1302,27.3906 Q418.6302,27.9688 417.8333,28.2969 Q416.7552,28.75 415.4583,28.75 Q413.9427,28.75 412.7396,28.125 Q411.7552,27.625 411.0677,26.5625 Q410.3802,25.4844 410.3802,24.2031 L410.3802,23.0469 Q410.3802,21.7188 410.9896,20.5781 Q411.6146,19.4219 412.7083,18.8125 Q413.8021,18.1875 415.0364,18.1875 Q415.7708,18.1875 416.4114,18.3594 Q417.0677,18.5156 417.6146,18.875 Z " fill="#000000"/><text fill="#000000" font-family="sans-serif" font-size="14" lengthAdjust="spacing" textLength="97.2549" x="429.9265" y="28.7969">ListUsersAction</text><line style="stroke:#181818;stroke-width:0.5;" x1="396" x2="534.0303" y1="39" y2="39"/><line style="stroke:#181818;stroke-width:0.5;" x1="396" x2="534.0303" y1="47" y2="47"/><text fill="#000000" font-family="sans-serif" font-size="14" lengthAdjust="spacing" textLength="128.0303" x="401" y="66.1074">+execute() : boolean</text></g><!--class ListUsersUI--><g id="elem_ListUsersUI"><rect codeLine="10" fill="#F1F1F1" height="178.3477" id="ListUsersUI" rx="2.5" ry="2.5" style="stroke:#181818;stroke-width:0.5;" width="263.3027" x="333.5" y="153"/><ellipse cx="424.729" cy="169" fill="#ADD1B2" rx="11" ry="11" style="stroke:#181818;stroke-width:1.0;"/><path d="M427.4946,164.875 Q427.6509,164.6563 427.8384,164.5469 Q428.0259,164.4375 428.2446,164.4375 Q428.6196,164.4375 428.854,164.7031 Q429.0884,164.9531 429.0884,165.5625 L429.0884,167.0156 Q429.0884,167.625 428.854,167.8906 Q428.6196,168.1563 428.2446,168.1563 Q427.9009,168.1563 427.6978,167.9531 Q427.4946,167.7656 427.3853,167.25 Q427.3384,166.8906 427.1509,166.7031 Q426.8228,166.3281 426.2134,166.1094 Q425.604,165.8906 424.979,165.8906 Q424.2134,165.8906 423.5728,166.2188 Q422.9478,166.5469 422.4478,167.2969 Q421.9634,168.0469 421.9634,169.0781 L421.9634,170.1719 Q421.9634,171.4063 422.854,172.2344 Q423.7446,173.0469 425.3384,173.0469 Q426.2759,173.0469 426.9321,172.7969 Q427.3228,172.6406 427.7446,172.2031 Q428.0103,171.9375 428.1509,171.8594 Q428.3071,171.7813 428.5103,171.7813 Q428.8384,171.7813 429.0884,172.0469 Q429.354,172.2969 429.354,172.6406 Q429.354,172.9844 429.0103,173.3906 Q428.5103,173.9688 427.7134,174.2969 Q426.6353,174.75 425.3384,174.75 Q423.8228,174.75 422.6196,174.125 Q421.6353,173.625 420.9478,172.5625 Q420.2603,171.4844 420.2603,170.2031 L420.2603,169.0469 Q420.2603,167.7188 420.8696,166.5781 Q421.4946,165.4219 422.5884,164.8125 Q423.6821,164.1875 424.9165,164.1875 Q425.6509,164.1875 426.2915,164.3594 Q426.9478,164.5156 427.4946,164.875 Z " fill="#000000"/><text fill="#000000" font-family="sans-serif" font-size="14" lengthAdjust="spacing" textLength="72.3447" x="445.229" y="174.7969">ListUsersUI</text><line style="stroke:#181818;stroke-width:0.5;" x1="334.5" x2="595.8027" y1="185" y2="185"/><text fill="#000000" font-family="sans-serif" font-size="14" lengthAdjust="spacing" textLength="215.5166" x="339.5" y="204.1074">-theController : ListUsersController</text><line style="stroke:#181818;stroke-width:0.5;" x1="334.5" x2="595.8027" y1="211.6211" y2="211.6211"/><text fill="#000000" font-family="sans-serif" font-size="14" lengthAdjust="spacing" textLength="118.6787" x="339.5" y="230.7285">+headline() : String</text><text fill="#000000" font-family="sans-serif" font-size="14" lengthAdjust="spacing" textLength="160.2822" x="339.5" y="249.3496">#emptyMessage() : String</text><text fill="#000000" font-family="sans-serif" font-size="14" lengthAdjust="spacing" textLength="224.8682" x="339.5" y="267.9707">#elements() : Iterable&lt;SystemUser&gt;</text><text fill="#000000" font-family="sans-serif" font-size="14" lengthAdjust="spacing" textLength="251.3027" x="339.5" y="286.5918">#elementPrinter() : Visitor&lt;SystemUser&gt;</text><text fill="#000000" font-family="sans-serif" font-size="14" lengthAdjust="spacing" textLength="152.5029" x="339.5" y="305.2129">#elementName() : String</text><text fill="#000000" font-family="sans-serif" font-size="14" lengthAdjust="spacing" textLength="128.3789" x="339.5" y="323.834">#listHeader() : String</text></g><!--class AbstractListUI--><g id="elem_AbstractListUI"><rect codeLine="20" fill="#F1F1F1" height="122.4844" id="AbstractListUI" rx="2.5" ry="2.5" style="stroke:#181818;stroke-width:0.5;" width="195.6201" x="632" y="181"/><ellipse cx="676.3262" cy="197" fill="#A9DCDF" rx="11" ry="11" style="stroke:#181818;stroke-width:1.0;"/><path d="M678.5137,198.7656 L674.373,198.7656 L673.9512,199.7969 L674.373,199.7969 Q674.9824,199.7969 675.248,200.0313 Q675.5137,200.2656 675.5137,200.6563 Q675.5137,201.0313 675.248,201.2656 Q674.9824,201.5 674.373,201.5 L672.0762,201.5 Q671.4668,201.5 671.2168,201.2656 Q670.9512,201.0313 670.9512,200.6406 Q670.9512,200.2656 671.2324,200.0313 Q671.498,199.7813 672.123,199.7969 L674.7949,193.1406 L673.6855,193.1406 Q673.0762,193.1406 672.8105,192.9063 Q672.5449,192.6719 672.5449,192.2813 Q672.5449,191.9063 672.8105,191.6719 Q673.0762,191.4375 673.6855,191.4375 L677.3574,191.4375 L680.748,199.7969 Q681.3418,199.7969 681.5293,199.9375 Q681.9199,200.2031 681.9199,200.6563 Q681.9199,201.0313 681.6543,201.2656 Q681.4043,201.5 680.7949,201.5 L678.498,201.5 Q677.8887,201.5 677.623,201.2656 Q677.3574,201.0313 677.3574,200.6406 Q677.3574,200.2656 677.623,200.0313 Q677.8887,199.7969 678.498,199.7969 L678.9199,199.7969 L678.5137,198.7656 Z M677.7949,197.0625 L676.4355,193.6875 L675.0605,197.0625 L677.7949,197.0625 Z " fill="#000000"/><text fill="#000000" font-family="sans-serif" font-size="14" font-style="italic" lengthAdjust="spacing" textLength="87.1377" x="696.8262" y="202.7969">AbstractListUI</text><rect fill="#FFFFFF" height="17.9609" style="stroke:#181818;stroke-width:1.0;stroke-dasharray:2.0,2.0;" width="9.3301" x="821.29" y="178"/><text fill="#000000" font-family="sans-serif" font-size="12" font-style="italic" lengthAdjust="spacing" textLength="7.3301" x="822.29" y="191.9492">T</text><line style="stroke:#181818;stroke-width:0.5;" x1="633" x2="826.6201" y1="213" y2="213"/><line style="stroke:#181818;stroke-width:0.5;" x1="633" x2="826.6201" y1="221" y2="221"/><text fill="#000000" font-family="sans-serif" font-size="14" lengthAdjust="spacing" textLength="111.6787" x="638" y="240.1074">+show() : boolean</text><text fill="#000000" font-family="sans-serif" font-size="14" font-style="italic" lengthAdjust="spacing" textLength="157.1855" x="638" y="258.7285">#elements() : Iterable&lt;T&gt;</text><text fill="#000000" font-family="sans-serif" font-size="14" font-style="italic" lengthAdjust="spacing" textLength="183.6201" x="638" y="277.3496">#elementPrinter() : Visitor&lt;T&gt;</text><text fill="#000000" font-family="sans-serif" font-size="14" font-style="italic" lengthAdjust="spacing" textLength="128.3789" x="638" y="295.9707">#listHeader() : String</text></g><!--class ListUsersController--><g id="elem_ListUsersController"><rect codeLine="27" fill="#F1F1F1" height="141.1055" id="ListUsersController" rx="2.5" ry="2.5" style="stroke:#181818;stroke-width:0.5;" width="346.9746" x="178.5" y="410"/><ellipse cx="288.2202" cy="426" fill="#ADD1B2" rx="11" ry="11" style="stroke:#181818;stroke-width:1.0;"/><path d="M290.9858,421.875 Q291.1421,421.6563 291.3296,421.5469 Q291.5171,421.4375 291.7358,421.4375 Q292.1108,421.4375 292.3452,421.7031 Q292.5796,421.9531 292.5796,422.5625 L292.5796,424.0156 Q292.5796,424.625 292.3452,424.8906 Q292.1108,425.1563 291.7358,425.1563 Q291.3921,425.1563 291.189,424.9531 Q290.9858,424.7656 290.8765,424.25 Q290.8296,423.8906 290.6421,423.7031 Q290.314,423.3281 289.7046,423.1094 Q289.0952,422.8906 288.4702,422.8906 Q287.7046,422.8906 287.064,423.2188 Q286.439,423.5469 285.939,424.2969 Q285.4546,425.0469 285.4546,426.0781 L285.4546,427.1719 Q285.4546,428.4063 286.3452,429.2344 Q287.2358,430.0469 288.8296,430.0469 Q289.7671,430.0469 290.4233,429.7969 Q290.814,429.6406 291.2358,429.2031 Q291.5015,428.9375 291.6421,428.8594 Q291.7983,428.7813 292.0015,428.7813 Q292.3296,428.7813 292.5796,429.0469 Q292.8452,429.2969 292.8452,429.6406 Q292.8452,429.9844 292.5015,430.3906 Q292.0015,430.9688 291.2046,431.2969 Q290.1265,431.75 288.8296,431.75 Q287.314,431.75 286.1108,431.125 Q285.1265,430.625 284.439,429.5625 Q283.7515,428.4844 283.7515,427.2031 L283.7515,426.0469 Q283.7515,424.7188 284.3608,423.5781 Q284.9858,422.4219 286.0796,421.8125 Q287.1733,421.1875 288.4077,421.1875 Q289.1421,421.1875 289.7827,421.3594 Q290.439,421.5156 290.9858,421.875 Z " fill="#000000"/><text fill="#000000" font-family="sans-serif" font-size="14" lengthAdjust="spacing" textLength="119.0342" x="308.7202" y="431.7969">ListUsersController</text><line style="stroke:#181818;stroke-width:0.5;" x1="179.5" x2="524.4746" y1="442" y2="442"/><text fill="#000000" font-family="sans-serif" font-size="14" lengthAdjust="spacing" textLength="178.9785" x="184.5" y="461.1074">-authz : AuthorizationService</text><text fill="#000000" font-family="sans-serif" font-size="14" lengthAdjust="spacing" textLength="224.8613" x="184.5" y="479.7285">-userSvc : UserManagementService</text><line style="stroke:#181818;stroke-width:0.5;" x1="179.5" x2="524.4746" y1="487.2422" y2="487.2422"/><text fill="#000000" font-family="sans-serif" font-size="14" lengthAdjust="spacing" textLength="219.0166" x="184.5" y="506.3496">+allUsers() : Iterable&lt;SystemUser&gt;</text><text fill="#000000" font-family="sans-serif" font-size="14" lengthAdjust="spacing" textLength="268.0439" x="184.5" y="524.9707">+backofficeUsers() : Iterable&lt;SystemUser&gt;</text><text fill="#000000" font-family="sans-serif" font-size="14" lengthAdjust="spacing" textLength="334.9746" x="184.5" y="543.5918">+find(username : Username) : Optional&lt;SystemUser&gt;</text></g><!--class SystemUserPrinter--><g id="elem_SystemUserPrinter"><rect codeLine="35" fill="#F1F1F1" height="66.6211" id="SystemUserPrinter" rx="2.5" ry="2.5" style="stroke:#181818;stroke-width:0.5;" width="206.0996" x="469" y="581"/><ellipse cx="509.4839" cy="597" fill="#ADD1B2" rx="11" ry="11" style="stroke:#181818;stroke-width:1.0;"/><path d="M512.2495,592.875 Q512.4058,592.6563 512.5933,592.5469 Q512.7808,592.4375 512.9995,592.4375 Q513.3745,592.4375 513.6089,592.7031 Q513.8433,592.9531 513.8433,593.5625 L513.8433,595.0156 Q513.8433,595.625 513.6089,595.8906 Q513.3745,596.1563 512.9995,596.1563 Q512.6558,596.1563 512.4526,595.9531 Q512.2495,595.7656 512.1401,595.25 Q512.0933,594.8906 511.9058,594.7031 Q511.5776,594.3281 510.9683,594.1094 Q510.3589,593.8906 509.7339,593.8906 Q508.9683,593.8906 508.3276,594.2188 Q507.7026,594.5469 507.2026,595.2969 Q506.7183,596.0469 506.7183,597.0781 L506.7183,598.1719 Q506.7183,599.4063 507.6089,600.2344 Q508.4995,601.0469 510.0933,601.0469 Q511.0308,601.0469 511.687,600.7969 Q512.0776,600.6406 512.4995,600.2031 Q512.7651,599.9375 512.9058,599.8594 Q513.062,599.7813 513.2651,599.7813 Q513.5933,599.7813 513.8433,600.0469 Q514.1089,600.2969 514.1089,600.6406 Q514.1089,600.9844 513.7651,601.3906 Q513.2651,601.9688 512.4683,602.2969 Q511.3901,602.75 510.0933,602.75 Q508.5776,602.75 507.3745,602.125 Q506.3901,601.625 505.7026,600.5625 Q505.0151,599.4844 505.0151,598.2031 L505.0151,597.0469 Q505.0151,595.7188 505.6245,594.5781 Q506.2495,593.4219 507.3433,592.8125 Q508.437,592.1875 509.6714,592.1875 Q510.4058,592.1875 511.0464,592.3594 Q511.7026,592.5156 512.2495,592.875 Z " fill="#000000"/><text fill="#000000" font-family="sans-serif" font-size="14" lengthAdjust="spacing" textLength="117.4688" x="529.147" y="602.7969">SystemUserPrinter</text><line style="stroke:#181818;stroke-width:0.5;" x1="470" x2="674.0996" y1="613" y2="613"/><line style="stroke:#181818;stroke-width:0.5;" x1="470" x2="674.0996" y1="621" y2="621"/><text fill="#000000" font-family="sans-serif" font-size="14" lengthAdjust="spacing" textLength="194.0996" x="475" y="640.1074">+visit(user : SystemUser) : void</text></g><!--class AuthzRegistry--><g id="elem_AuthzRegistry"><rect codeLine="39" fill="#F1F1F1" height="85.2422" id="AuthzRegistry" rx="2.5" ry="2.5" style="stroke:#181818;stroke-width:0.5;" width="296.416" x="7" y="678"/><ellipse cx="107.3857" cy="694" fill="#ADD1B2" rx="11" ry="11" style="stroke:#181818;stroke-width:1.0;"/><path d="M110.1514,689.875 Q110.3076,689.6563 110.4951,689.5469 Q110.6826,689.4375 110.9014,689.4375 Q111.2764,689.4375 111.5107,689.7031 Q111.7451,689.9531 111.7451,690.5625 L111.7451,692.0156 Q111.7451,692.625 111.5107,692.8906 Q111.2764,693.1563 110.9014,693.1563 Q110.5576,693.1563 110.3545,692.9531 Q110.1514,692.7656 110.042,692.25 Q109.9951,691.8906 109.8076,691.7031 Q109.4795,691.3281 108.8701,691.1094 Q108.2607,690.8906 107.6357,690.8906 Q106.8701,690.8906 106.2295,691.2188 Q105.6045,691.5469 105.1045,692.2969 Q104.6201,693.0469 104.6201,694.0781 L104.6201,695.1719 Q104.6201,696.4063 105.5107,697.2344 Q106.4014,698.0469 107.9951,698.0469 Q108.9326,698.0469 109.5889,697.7969 Q109.9795,697.6406 110.4014,697.2031 Q110.667,696.9375 110.8076,696.8594 Q110.9639,696.7813 111.167,696.7813 Q111.4951,696.7813 111.7451,697.0469 Q112.0107,697.2969 112.0107,697.6406 Q112.0107,697.9844 111.667,698.3906 Q111.167,698.9688 110.3701,699.2969 Q109.292,699.75 107.9951,699.75 Q106.4795,699.75 105.2764,699.125 Q104.292,698.625 103.6045,697.5625 Q102.917,696.4844 102.917,695.2031 L102.917,694.0469 Q102.917,692.7188 103.5264,691.5781 Q104.1514,690.4219 105.2451,689.8125 Q106.3389,689.1875 107.5732,689.1875 Q108.3076,689.1875 108.9482,689.3594 Q109.6045,689.5156 110.1514,689.875 Z " fill="#000000"/><text fill="#000000" font-family="sans-serif" font-size="14" lengthAdjust="spacing" textLength="87.1445" x="127.8857" y="699.7969">AuthzRegistry</text><line style="stroke:#181818;stroke-width:0.5;" x1="8" x2="302.416" y1="710" y2="710"/><line style="stroke:#181818;stroke-width:0.5;" x1="8" x2="302.416" y1="718" y2="718"/><text fill="#000000" font-family="sans-serif" font-size="14" lengthAdjust="spacing" text-decoration="underline" textLength="284.416" x="13" y="737.1074">+authorizationService() : AuthorizationService</text><text fill="#000000" font-family="sans-serif" font-size="14" lengthAdjust="spacing" text-decoration="underline" textLength="261.0439" x="13" y="755.7285">+userService() : UserManagementService</text></g><!--class UserManagementService--><g id="elem_UserManagementService"><rect codeLine="44" fill="#F1F1F1" height="66.6211" id="UserManagementService" rx="2.5" ry="2.5" style="stroke:#181818;stroke-width:0.5;" width="231.0166" x="157.5" y="842"/><ellipse cx="190.9764" cy="858" fill="#ADD1B2" rx="11" ry="11" style="stroke:#181818;stroke-width:1.0;"/><path d="M193.742,853.875 Q193.8982,853.6563 194.0857,853.5469 Q194.2732,853.4375 194.492,853.4375 Q194.867,853.4375 195.1014,853.7031 Q195.3357,853.9531 195.3357,854.5625 L195.3357,856.0156 Q195.3357,856.625 195.1014,856.8906 Q194.867,857.1563 194.492,857.1563 Q194.1482,857.1563 193.9451,856.9531 Q193.742,856.7656 193.6326,856.25 Q193.5857,855.8906 193.3982,855.7031 Q193.0701,855.3281 192.4607,855.1094 Q191.8514,854.8906 191.2264,854.8906 Q190.4607,854.8906 189.8201,855.2188 Q189.1951,855.5469 188.6951,856.2969 Q188.2107,857.0469 188.2107,858.0781 L188.2107,859.1719 Q188.2107,860.4063 189.1014,861.2344 Q189.992,862.0469 191.5857,862.0469 Q192.5232,862.0469 193.1795,861.7969 Q193.5701,861.6406 193.992,861.2031 Q194.2576,860.9375 194.3982,860.8594 Q194.5545,860.7813 194.7576,860.7813 Q195.0857,860.7813 195.3357,861.0469 Q195.6014,861.2969 195.6014,861.6406 Q195.6014,861.9844 195.2576,862.3906 Q194.7576,862.9688 193.9607,863.2969 Q192.8826,863.75 191.5857,863.75 Q190.0701,863.75 188.867,863.125 Q187.8826,862.625 187.1951,861.5625 Q186.5076,860.4844 186.5076,859.2031 L186.5076,858.0469 Q186.5076,856.7188 187.117,855.5781 Q187.742,854.4219 188.8357,853.8125 Q189.9295,853.1875 191.1639,853.1875 Q191.8982,853.1875 192.5389,853.3594 Q193.1951,853.5156 193.742,853.875 Z " fill="#000000"/><text fill="#000000" font-family="sans-serif" font-size="14" lengthAdjust="spacing" textLength="157.958" x="209.0822" y="863.7969">UserManagementService</text><line style="stroke:#181818;stroke-width:0.5;" x1="158.5" x2="387.5166" y1="874" y2="874"/><line style="stroke:#181818;stroke-width:0.5;" x1="158.5" x2="387.5166" y1="882" y2="882"/><text fill="#000000" font-family="sans-serif" font-size="14" lengthAdjust="spacing" textLength="219.0166" x="163.5" y="901.1074">+allUsers() : Iterable&lt;SystemUser&gt;</text></g><!--class SystemUser--><g id="elem_SystemUser"><rect codeLine="48" fill="#F1F1F1" height="215.5898" id="SystemUser" rx="2.5" ry="2.5" style="stroke:#181818;stroke-width:0.5;" width="155.165" x="364.5" y="988"/><ellipse cx="400.6188" cy="1004" fill="#ADD1B2" rx="11" ry="11" style="stroke:#181818;stroke-width:1.0;"/><path d="M403.3844,999.875 Q403.5407,999.6563 403.7282,999.5469 Q403.9157,999.4375 404.1344,999.4375 Q404.5094,999.4375 404.7438,999.7031 Q404.9782,999.9531 404.9782,1000.5625 L404.9782,1002.0156 Q404.9782,1002.625 404.7438,1002.8906 Q404.5094,1003.1563 404.1344,1003.1563 Q403.7907,1003.1563 403.5875,1002.9531 Q403.3844,1002.7656 403.275,1002.25 Q403.2282,1001.8906 403.0407,1001.7031 Q402.7125,1001.3281 402.1032,1001.1094 Q401.4938,1000.8906 400.8688,1000.8906 Q400.1032,1000.8906 399.4625,1001.2188 Q398.8375,1001.5469 398.3375,1002.2969 Q397.8532,1003.0469 397.8532,1004.0781 L397.8532,1005.1719 Q397.8532,1006.4063 398.7438,1007.2344 Q399.6344,1008.0469 401.2282,1008.0469 Q402.1657,1008.0469 402.8219,1007.7969 Q403.2125,1007.6406 403.6344,1007.2031 Q403.9,1006.9375 404.0407,1006.8594 Q404.1969,1006.7813 404.4,1006.7813 Q404.7282,1006.7813 404.9782,1007.0469 Q405.2438,1007.2969 405.2438,1007.6406 Q405.2438,1007.9844 404.9,1008.3906 Q404.4,1008.9688 403.6032,1009.2969 Q402.525,1009.75 401.2282,1009.75 Q399.7125,1009.75 398.5094,1009.125 Q397.525,1008.625 396.8375,1007.5625 Q396.15,1006.4844 396.15,1005.2031 L396.15,1004.0469 Q396.15,1002.7188 396.7594,1001.5781 Q397.3844,1000.4219 398.4782,999.8125 Q399.5719,999.1875 400.8063,999.1875 Q401.5407,999.1875 402.1813,999.3594 Q402.8375,999.5156 403.3844,999.875 Z " fill="#000000"/><text fill="#000000" font-family="sans-serif" font-size="14" lengthAdjust="spacing" textLength="76.2344" x="419.3119" y="1009.7969">SystemUser</text><line style="stroke:#181818;stroke-width:0.5;" x1="365.5" x2="518.665" y1="1020" y2="1020"/><text fill="#000000" font-family="sans-serif" font-size="14" lengthAdjust="spacing" textLength="143.165" x="370.5" y="1039.1074">-username : Username</text><text fill="#000000" font-family="sans-serif" font-size="14" lengthAdjust="spacing" textLength="137.7168" x="370.5" y="1057.7285">-password : Password</text><text fill="#000000" font-family="sans-serif" font-size="14" lengthAdjust="spacing" textLength="87.9238" x="370.5" y="1076.3496">-name : String</text><text fill="#000000" font-family="sans-serif" font-size="14" lengthAdjust="spacing" textLength="86.3584" x="370.5" y="1094.9707">-email : String</text><text fill="#000000" font-family="sans-serif" font-size="14" lengthAdjust="spacing" textLength="112.834" x="370.5" y="1113.5918">-roles : Set&lt;Role&gt;</text><text fill="#000000" font-family="sans-serif" font-size="14" lengthAdjust="spacing" textLength="102.7305" x="370.5" y="1132.2129">-active : boolean</text><line style="stroke:#181818;stroke-width:0.5;" x1="365.5" x2="518.665" y1="1139.7266" y2="1139.7266"/><text fill="#000000" font-family="sans-serif" font-size="14" lengthAdjust="spacing" textLength="127.2305" x="370.5" y="1158.834">+isActive() : boolean</text><text fill="#000000" font-family="sans-serif" font-size="14" lengthAdjust="spacing" textLength="127.9961" x="370.5" y="1177.4551">+username() : String</text><text fill="#000000" font-family="sans-serif" font-size="14" lengthAdjust="spacing" textLength="101.5342" x="370.5" y="1196.0762">+name() : Name</text></g><!--class SystemRole--><g id="elem_SystemRole"><rect codeLine="60" fill="#F1F1F1" height="141.1055" id="SystemRole" rx="2.5" ry="2.5" style="stroke:#181818;stroke-width:0.5;" width="225.9238" x="128" y="1283"/><ellipse cx="198.9775" cy="1299" fill="#EB937F" rx="11" ry="11" style="stroke:#181818;stroke-width:1.0;"/><path d="M197.8369,1299.7969 L197.8369,1302.2969 L202.165,1302.2969 L202.165,1301.375 Q202.165,1300.7656 202.3994,1300.5 Q202.6494,1300.2344 203.0244,1300.2344 Q203.3994,1300.2344 203.6338,1300.5 Q203.8682,1300.7656 203.8682,1301.375 L203.8682,1304 L195.8682,1304 Q195.2432,1304 194.9775,1303.7656 Q194.7275,1303.5313 194.7275,1303.1406 Q194.7275,1302.7656 194.9932,1302.5313 Q195.2588,1302.2969 195.8682,1302.2969 L196.1338,1302.2969 L196.1338,1295.6406 L195.8682,1295.6406 Q195.2432,1295.6406 194.9775,1295.4063 Q194.7275,1295.1719 194.7275,1294.7813 Q194.7275,1294.4063 194.9775,1294.1719 Q195.2432,1293.9375 195.8682,1293.9375 L203.4932,1293.9375 L203.4932,1296.5313 Q203.4932,1297.1406 203.2588,1297.4063 Q203.04,1297.6563 202.6494,1297.6563 Q202.2744,1297.6563 202.04,1297.4063 Q201.8057,1297.1406 201.8057,1296.5313 L201.8057,1295.6406 L197.8369,1295.6406 L197.8369,1298.0938 L199.3213,1298.0938 Q199.3213,1297.4375 199.4463,1297.25 Q199.7119,1296.8438 200.1807,1296.8438 Q200.5557,1296.8438 200.79,1297.1094 Q201.0244,1297.3594 201.0244,1297.9688 L201.0244,1299.9375 Q201.0244,1300.4844 200.8994,1300.6719 Q200.6338,1301.0625 200.1807,1301.0625 Q199.7119,1301.0625 199.4463,1300.6563 Q199.3213,1300.4688 199.3213,1299.7969 L197.8369,1299.7969 Z " fill="#000000"/><text fill="#000000" font-family="sans-serif" font-size="14" lengthAdjust="spacing" textLength="75.4688" x="219.4775" y="1304.7969">SystemRole</text><line style="stroke:#181818;stroke-width:0.5;" x1="129" x2="352.9238" y1="1315" y2="1315"/><text fill="#000000" font-family="sans-serif" font-size="14" lengthAdjust="spacing" textLength="45.1104" x="134" y="1334.1074">ADMIN</text><text fill="#000000" font-family="sans-serif" font-size="14" lengthAdjust="spacing" textLength="110.4551" x="134" y="1352.7285">CRM_MANAGER</text><text fill="#000000" font-family="sans-serif" font-size="14" lengthAdjust="spacing" textLength="154.8066" x="134" y="1371.3496">CRM_COLLABORATOR</text><text fill="#000000" font-family="sans-serif" font-size="14" lengthAdjust="spacing" textLength="124.4619" x="134" y="1389.9707">SHOW_DESIGNER</text><text fill="#000000" font-family="sans-serif" font-size="14" lengthAdjust="spacing" textLength="213.9238" x="134" y="1408.5918">CUSTOMER_REPRESENTATIVE</text><line style="stroke:#181818;stroke-width:0.5;" x1="129" x2="352.9238" y1="1416.1055" y2="1416.1055"/></g><!--class Username--><g id="elem_Username"><rect codeLine="68" fill="#F1F1F1" height="79.2031" id="Username" rx="2.5" ry="2.5" style="stroke:#181818;stroke-width:0.5;" width="104.7168" x="389.5" y="1314"/><ellipse cx="404.5" cy="1336.291" fill="#ADD8E6" rx="11" ry="11" style="stroke:#181818;stroke-width:1.0;"/><path d="M405.0938,1339.5566 L407.5625,1333.6816 L407.1719,1333.6816 Q406.5625,1333.6816 406.2969,1333.4473 Q406.0313,1333.2129 406.0313,1332.8223 Q406.0313,1332.4473 406.2969,1332.2129 Q406.5625,1331.9785 407.1719,1331.9785 L409.4531,1331.9785 Q410.0625,1331.9785 410.3281,1332.2129 Q410.5938,1332.4473 410.5938,1332.8223 Q410.5938,1333.291 410.1875,1333.5566 Q410,1333.6816 409.4063,1333.6816 L405.9219,1342.041 L404.2813,1342.041 L400.7969,1333.6816 Q400.2031,1333.6816 400.0156,1333.5566 Q399.6094,1333.291 399.6094,1332.8223 Q399.6094,1332.4473 399.875,1332.2129 Q400.1406,1331.9785 400.75,1331.9785 L403.0469,1331.9785 Q403.6563,1331.9785 403.9063,1332.2129 Q404.1719,1332.4473 404.1719,1332.8223 Q404.1719,1333.2129 403.9063,1333.4473 Q403.6563,1333.6816 403.0469,1333.6816 L402.6406,1333.6816 L405.0938,1339.5566 Z " fill="#000000"/><text fill="#000000" font-family="sans-serif" font-size="12" font-style="italic" lengthAdjust="spacing" textLength="76.7168" x="416.5" y="1331.9492">&#171;valueObject&#187;</text><text fill="#000000" font-family="sans-serif" font-size="14" lengthAdjust="spacing" textLength="64.5791" x="422.5688" y="1350.0684">Username</text><line style="stroke:#181818;stroke-width:0.5;" x1="390.5" x2="493.2168" y1="1358.582" y2="1358.582"/><text fill="#000000" font-family="sans-serif" font-size="14" lengthAdjust="spacing" textLength="86.3721" x="395.5" y="1377.6895">-value : String</text><line style="stroke:#181818;stroke-width:0.5;" x1="390.5" x2="493.2168" y1="1385.2031" y2="1385.2031"/></g><!--class Password--><g id="elem_Password"><rect codeLine="72" fill="#F1F1F1" height="79.2031" id="Password" rx="2.5" ry="2.5" style="stroke:#181818;stroke-width:0.5;" width="104.7168" x="529.5" y="1314"/><ellipse cx="544.5" cy="1336.291" fill="#ADD8E6" rx="11" ry="11" style="stroke:#181818;stroke-width:1.0;"/><path d="M545.0938,1339.5566 L547.5625,1333.6816 L547.1719,1333.6816 Q546.5625,1333.6816 546.2969,1333.4473 Q546.0313,1333.2129 546.0313,1332.8223 Q546.0313,1332.4473 546.2969,1332.2129 Q546.5625,1331.9785 547.1719,1331.9785 L549.4531,1331.9785 Q550.0625,1331.9785 550.3281,1332.2129 Q550.5938,1332.4473 550.5938,1332.8223 Q550.5938,1333.291 550.1875,1333.5566 Q550,1333.6816 549.4063,1333.6816 L545.9219,1342.041 L544.2813,1342.041 L540.7969,1333.6816 Q540.2031,1333.6816 540.0156,1333.5566 Q539.6094,1333.291 539.6094,1332.8223 Q539.6094,1332.4473 539.875,1332.2129 Q540.1406,1331.9785 540.75,1331.9785 L543.0469,1331.9785 Q543.6563,1331.9785 543.9063,1332.2129 Q544.1719,1332.4473 544.1719,1332.8223 Q544.1719,1333.2129 543.9063,1333.4473 Q543.6563,1333.6816 543.0469,1333.6816 L542.6406,1333.6816 L545.0938,1339.5566 Z " fill="#000000"/><text fill="#000000" font-family="sans-serif" font-size="12" font-style="italic" lengthAdjust="spacing" textLength="76.7168" x="556.5" y="1331.9492">&#171;valueObject&#187;</text><text fill="#000000" font-family="sans-serif" font-size="14" lengthAdjust="spacing" textLength="61.4688" x="564.124" y="1350.0684">Password</text><line style="stroke:#181818;stroke-width:0.5;" x1="530.5" x2="633.2168" y1="1358.582" y2="1358.582"/><text fill="#000000" font-family="sans-serif" font-size="14" lengthAdjust="spacing" textLength="86.3721" x="535.5" y="1377.6895">-value : String</text><line style="stroke:#181818;stroke-width:0.5;" x1="530.5" x2="633.2168" y1="1385.2031" y2="1385.2031"/></g><!--link ListUsersAction to ListUsersUI--><g id="link_ListUsersAction_ListUsersUI"><path codeLine="76" d="M465,74.44 C465,95.91 465,119.03 465,146.91 " fill="none" id="ListUsersAction-to-ListUsersUI" style="stroke:#181818;stroke-width:1.0;stroke-dasharray:7.0,7.0;"/><polygon fill="#181818" points="465,152.91,469,143.91,465,147.91,461,143.91,465,152.91" style="stroke:#181818;stroke-width:1.0;"/><text fill="#000000" font-family="sans-serif" font-size="13" lengthAdjust="spacing" textLength="42.6309" x="466" y="119.0283">creates</text></g><!--link ListUsersUI to AbstractListUI--><g id="link_ListUsersUI_AbstractListUI"><path codeLine="77" d="M596.72,242 C609.81,242 604.99,242 613.66,242 " fill="none" id="ListUsersUI-to-AbstractListUI" style="stroke:#181818;stroke-width:1.0;"/><polygon fill="none" points="631.66,242,613.66,236,613.66,248,631.66,242" style="stroke:#181818;stroke-width:1.0;"/></g><!--link ListUsersUI to ListUsersController--><g id="link_ListUsersUI_ListUsersController"><path codeLine="78" d="M422.92,331.06 C410.5,357.07 399.6672,379.7465 387.8772,404.4165 " fill="none" id="ListUsersUI-to-ListUsersController" style="stroke:#181818;stroke-width:1.0;"/><polygon fill="#181818" points="385.29,409.83,392.7798,403.4345,387.446,405.3187,385.5617,399.9849,385.29,409.83" style="stroke:#181818;stroke-width:1.0;"/><text fill="#000000" font-family="sans-serif" font-size="13" lengthAdjust="spacing" textLength="27.46" x="410" y="376.0283">uses</text><text fill="#000000" font-family="sans-serif" font-size="13" lengthAdjust="spacing" textLength="7.23" x="381.3753" y="398.7035">1</text></g><!--link ListUsersUI to SystemUserPrinter--><g id="link_ListUsersUI_SystemUserPrinter"><path codeLine="79" d="M506.28,331.39 C524.99,371.45 543,410 543,410 C543,410 558.2932,517.3401 566.4932,574.8601 " fill="none" id="ListUsersUI-to-SystemUserPrinter" style="stroke:#181818;stroke-width:1.0;stroke-dasharray:7.0,7.0;"/><polygon fill="#181818" points="567.34,580.8,570.0298,571.3256,566.6343,575.85,562.1098,572.4546,567.34,580.8" style="stroke:#181818;stroke-width:1.0;"/><text fill="#000000" font-family="sans-serif" font-size="13" lengthAdjust="spacing" textLength="42.6309" x="529" y="376.0283">creates</text></g><!--link ListUsersController to AuthzRegistry--><g id="link_ListUsersController_AuthzRegistry"><path codeLine="81" d="M294.22,551.3 C260.28,592.31 222.3266,638.1686 193.4366,673.0586 " fill="none" id="ListUsersController-to-AuthzRegistry" style="stroke:#181818;stroke-width:1.0;stroke-dasharray:7.0,7.0;"/><polygon fill="#181818" points="189.61,677.68,198.4308,673.299,192.7989,673.8289,192.269,668.1969,189.61,677.68" style="stroke:#181818;stroke-width:1.0;"/></g><!--link ListUsersController to UserManagementService--><g id="link_ListUsersController_UserManagementService"><path codeLine="82" d="M344.09,551.08 C334.61,634.44 320,763 320,763 C320,763 302.9202,803.511 289.0502,836.421 " fill="none" id="ListUsersController-to-UserManagementService" style="stroke:#181818;stroke-width:1.0;stroke-dasharray:7.0,7.0;"/><polygon fill="#181818" points="286.72,841.95,293.9013,835.2099,288.6618,837.3425,286.5293,832.103,286.72,841.95" style="stroke:#181818;stroke-width:1.0;"/></g><!--link ListUsersController to SystemUser--><g id="link_ListUsersController_SystemUser"><path codeLine="83" d="M362.41,551.01 C378.1,655.77 406,842 406,842 C406,842 416.075,912.8098 425.885,981.7698 " fill="none" id="ListUsersController-to-SystemUser" style="stroke:#181818;stroke-width:1.0;stroke-dasharray:7.0,7.0;"/><polygon fill="#181818" points="426.73,987.71,429.4226,978.2364,426.0258,982.7598,421.5023,979.3631,426.73,987.71" style="stroke:#181818;stroke-width:1.0;"/></g><!--link SystemUserPrinter to SystemUser--><g id="link_SystemUserPrinter_SystemUser"><path codeLine="85" d="M563.17,648.08 C544.55,716.74 502.1499,873.149 472.6199,982.079 " fill="none" id="SystemUserPrinter-to-SystemUser" style="stroke:#181818;stroke-width:1.0;stroke-dasharray:7.0,7.0;"/><polygon fill="#181818" points="471.05,987.87,477.2655,980.2301,472.3582,983.0442,469.5442,978.1369,471.05,987.87" style="stroke:#181818;stroke-width:1.0;"/><text fill="#000000" font-family="sans-serif" font-size="13" lengthAdjust="spacing" textLength="28.8882" x="523" y="808.0283">visits</text></g><!--link AuthzRegistry to UserManagementService--><g id="link_AuthzRegistry_UserManagementService"><path codeLine="87" d="M187.24,763.31 C206.35,788.08 226.547,814.2579 244.237,837.2079 " fill="none" id="AuthzRegistry-to-UserManagementService" style="stroke:#181818;stroke-width:1.0;"/><polygon fill="#181818" points="247.9,841.96,245.5736,832.3898,244.8475,837.9999,239.2375,837.2738,247.9,841.96" style="stroke:#181818;stroke-width:1.0;"/><text fill="#000000" font-family="sans-serif" font-size="13" lengthAdjust="spacing" textLength="49.1372" x="226" y="808.0283">provides</text><text fill="#000000" font-family="sans-serif" font-size="13" lengthAdjust="spacing" textLength="7.23" x="235.2904" y="830.7776">1</text></g><!--link UserManagementService to SystemUser--><g id="link_UserManagementService_SystemUser"><path codeLine="89" d="M298.3,909.21 C315.98,932.07 336.9388,959.1642 360.8188,990.0342 " fill="none" id="UserManagementService-to-SystemUser" style="stroke:#181818;stroke-width:1.0;stroke-dasharray:7.0,7.0;"/><polygon fill="#181818" points="364.49,994.78,362.1471,985.2139,361.4307,990.8252,355.8194,990.1088,364.49,994.78" style="stroke:#181818;stroke-width:1.0;"/><text fill="#000000" font-family="sans-serif" font-size="13" lengthAdjust="spacing" textLength="53.479" x="334" y="954.0283">manages</text></g><!--link SystemUser to SystemRole--><g id="link_SystemUser_SystemRole"><path codeLine="91" d="M364.29,1195.78 C341.42,1224.85 320.6001,1251.3146 299.4901,1278.1446 " fill="none" id="SystemUser-to-SystemRole" style="stroke:#181818;stroke-width:1.0;"/><polygon fill="#181818" points="295.78,1282.86,304.4888,1278.2603,298.8718,1278.9305,298.2016,1273.3135,295.78,1282.86" style="stroke:#181818;stroke-width:1.0;"/><text fill="#000000" font-family="sans-serif" font-size="13" lengthAdjust="spacing" textLength="20.96" x="331" y="1249.0283">has</text><text fill="#000000" font-family="sans-serif" font-size="13" lengthAdjust="spacing" textLength="19.5127" x="281.4799" y="1271.7366">1..*</text></g><!--link SystemUser to Username--><g id="link_SystemUser_Username"><path codeLine="92" d="M442,1204.24 C442,1243.16 442,1278.69 442,1307.87 " fill="none" id="SystemUser-to-Username" style="stroke:#181818;stroke-width:1.0;"/><polygon fill="#181818" points="442,1313.87,446,1304.87,442,1308.87,438,1304.87,442,1313.87" style="stroke:#181818;stroke-width:1.0;"/><text fill="#000000" font-family="sans-serif" font-size="13" lengthAdjust="spacing" textLength="20.96" x="443" y="1249.0283">has</text><text fill="#000000" font-family="sans-serif" font-size="13" lengthAdjust="spacing" textLength="7.23" x="434.4425" y="1302.6335">1</text></g><!--link SystemUser to Password--><g id="link_SystemUser_Password"><path codeLine="93" d="M500.76,1204.24 C522.09,1243.16 541.968,1279.4275 557.948,1308.6075 " fill="none" id="SystemUser-to-Password" style="stroke:#181818;stroke-width:1.0;"/><polygon fill="#181818" points="560.83,1313.87,560.0154,1304.0549,558.4284,1309.4845,552.9987,1307.8975,560.83,1313.87" style="stroke:#181818;stroke-width:1.0;"/><text fill="#000000" font-family="sans-serif" font-size="13" lengthAdjust="spacing" textLength="20.96" x="525" y="1249.0283">has</text><text fill="#000000" font-family="sans-serif" font-size="13" lengthAdjust="spacing" textLength="7.23" x="549.6339" y="1302.6335">1</text></g><!--SRC=[dLHRRzem57xFhx3eIpi6sbwc2Q58MOdQIEMYX7QFbGa7yEh4aMtI0Uj_d-sQt4YsQRpWdFETstSkueMa6UOuGHcEN_0M8dcWW3Z44gTR2eue06A7r-oLf5kqmLHKDPIa80yPe8pHW_wew6AAXV2av6Irbn34B8t84T0dnp4Qz424V1J0XHTBmb9qSf3wzH7yX5WPND-W4LenHW6dpjk5qMDW3GP8xk2MfP8pIe4hem9JIgth7U2rpjBuZbHcwTPehX0acJnCGGX5H8kMGWAf54OJIE1uHM4S7OI4H4TowxY5CbKWWtuYWaZ6ky4pdBH4fAg6UvMjzM9rYWQy4fBZMBxJYppxQMeEnakte57is6kDmtV7fxE3juwgbcudigskDdXdyeqULhfsxYNUozrHsNZgdt5on7eq8k0vYS52zieqocC5qawcE5KjqzbLKNs4AJKn_jooFbgfuMURZJBy9_Y6fEjhdK6gscPJq4zjDizqifZMp8ggIw6biUXKhgaqJZLP1Koxp1bPbouqASSGjee_VYZCJq8gbk8tmrsJCrDF9vaLOyDgnQQTsoALLdMHqj_9Rw6bc84MUgqcKnQlZA-LPc6VLcFnbHqQg9t6X3Q5Qjv0Q278SQZUxddmr17AeR4kVKJCTShXOfFwHPhDvUsZGgftMvSAwJwnbUgOjb9lCWrcvdKRJf-dtioxyyFY-tR-yE1zcuVUSlukZExdtvydVXJSpSwmnsWvd_hXS-WlGZ_oPqjl6JpvzIuPPiRZwwUFwCgRJBxwNsvGZkaUvgiVwjQxRi6xaRRiwvdg__NIFFJ3eLkxuoCKSy0IX5EL3dwvZUjMLmzSrFlSQpqc8zsRkZSTyt83oyXEcnzjLDkvJbJxjdIXoqGSvpAfEa8V0NqVL8hrzJyJqBw98vHnbfErBgqTSH4cCH1HJSa66Gu_zAhZEq8xB2vXlNBUEX6BSeCruZS0]--></g></svg>