<svg xmlns="http://www.w3.org/2000/svg" xmlns:xlink="http://www.w3.org/1999/xlink" contentStyleType="text/css" height="1117px" preserveAspectRatio="none" style="width:1109px;height:1117px;background:#FFFFFF;" version="1.1" viewBox="0 0 1109 1117" width="1109px" zoomAndPan="magnify"><defs/><g><rect fill="#FFFFFF" height="931.7695" style="stroke:#181818;stroke-width:1.0;" width="10" x="44.2344" y="93.6211"/><rect fill="#FFFFFF" height="899.4785" style="stroke:#181818;stroke-width:1.0;" width="10" x="252.4224" y="116.9121"/><rect fill="#FFFFFF" height="868.1875" style="stroke:#181818;stroke-width:1.0;" width="10" x="361.2358" y="148.2031"/><rect fill="#FFFFFF" height="500.3652" style="stroke:#181818;stroke-width:1.0;" width="10" x="366.2358" y="187.4941"/><rect fill="#FFFFFF" height="104.873" style="stroke:#181818;stroke-width:1.0;" width="10" x="371.2358" y="544.6953"/><rect fill="#FFFFFF" height="31.291" style="stroke:#181818;stroke-width:1.0;" width="10" x="630.8247" y="580.9863"/><rect fill="#FFFFFF" height="217.3672" style="stroke:#181818;stroke-width:1.0;" width="10" x="630.8247" y="767.7324"/><rect fill="#FFFFFF" height="31.291" style="stroke:#181818;stroke-width:1.0;" width="10" x="757.9209" y="799.0234"/><rect fill="#FFFFFF" height="74.9121" style="stroke:#181818;stroke-width:1.0;" width="10" x="906.417" y="878.8965"/><line style="stroke:#181818;stroke-width:0.5;stroke-dasharray:5.0,5.0;" x1="49" x2="49" y1="83.6211" y2="1034.3906"/><line style="stroke:#181818;stroke-width:0.5;stroke-dasharray:5.0,5.0;" x1="256.7881" x2="256.7881" y1="83.6211" y2="1034.3906"/><line style="stroke:#181818;stroke-width:0.5;stroke-dasharray:5.0,5.0;" x1="366.0566" x2="366.0566" y1="83.6211" y2="1034.3906"/><line style="stroke:#181818;stroke-width:0.5;stroke-dasharray:5.0,5.0;" x1="635.3008" x2="635.3008" y1="83.6211" y2="1034.3906"/><line style="stroke:#181818;stroke-width:0.5;stroke-dasharray:5.0,5.0;" x1="762.3486" x2="762.3486" y1="83.6211" y2="1034.3906"/><line style="stroke:#181818;stroke-width:0.5;stroke-dasharray:5.0,5.0;" x1="910.4932" x2="910.4932" y1="83.6211" y2="1034.3906"/><line style="stroke:#181818;stroke-width:0.5;stroke-dasharray:5.0,5.0;" x1="1056.3408" x2="1056.3408" y1="918.707" y2="1034.3906"/><text fill="#000000" font-family="sans-serif" font-size="14" lengthAdjust="spacing" textLength="82.4688" x="5" y="80.1074">Administrator</text><ellipse cx="49.2344" cy="13.5" fill="#E2E2F0" rx="8" ry="8" style="stroke:#181818;stroke-width:0.5;"/><path d="M49.2344,21.5 L49.2344,48.5 M36.2344,29.5 L62.2344,29.5 M49.2344,48.5 L36.2344,63.5 M49.2344,48.5 L62.2344,63.5 " fill="none" style="stroke:#181818;stroke-width:0.5;"/><text fill="#000000" font-family="sans-serif" font-size="14" lengthAdjust="spacing" textLength="82.4688" x="5" y="1048.498">Administrator</text><ellipse cx="49.2344" cy="1060.5117" fill="#E2E2F0" rx="8" ry="8" style="stroke:#181818;stroke-width:0.5;"/><path d="M49.2344,1068.5117 L49.2344,1095.5117 M36.2344,1076.5117 L62.2344,1076.5117 M49.2344,1095.5117 L36.2344,1110.5117 M49.2344,1095.5117 L62.2344,1110.5117 " fill="none" style="stroke:#181818;stroke-width:0.5;"/><rect fill="#E2E2F0" height="32.6211" rx="2.5" ry="2.5" style="stroke:#181818;stroke-width:0.5;" width="111.2686" x="201.7881" y="50"/><text fill="#000000" font-family="sans-serif" font-size="14" lengthAdjust="spacing" textLength="97.2686" x="208.7881" y="72.1074">:AddUserAction</text><rect fill="#E2E2F0" height="32.6211" rx="2.5" ry="2.5" style="stroke:#181818;stroke-width:0.5;" width="111.2686" x="201.7881" y="1033.3906"/><text fill="#000000" font-family="sans-serif" font-size="14" lengthAdjust="spacing" textLength="97.2686" x="208.7881" y="1055.498">:AddUserAction</text><rect fill="#E2E2F0" height="32.6211" rx="2.5" ry="2.5" style="stroke:#181818;stroke-width:0.5;" width="86.3584" x="323.0566" y="50"/><text fill="#000000" font-family="sans-serif" font-size="14" lengthAdjust="spacing" textLength="72.3584" x="330.0566" y="72.1074">:AddUserUI</text><rect fill="#E2E2F0" height="32.6211" rx="2.5" ry="2.5" style="stroke:#181818;stroke-width:0.5;" width="86.3584" x="323.0566" y="1033.3906"/><text fill="#000000" font-family="sans-serif" font-size="14" lengthAdjust="spacing" textLength="72.3584" x="330.0566" y="1055.498">:AddUserUI</text><rect fill="#E2E2F0" height="32.6211" rx="2.5" ry="2.5" style="stroke:#181818;stroke-width:0.5;" width="133.0479" x="569.3008" y="50"/><text fill="#000000" font-family="sans-serif" font-size="14" lengthAdjust="spacing" textLength="119.0479" x="576.3008" y="72.1074">:AddUserController</text><rect fill="#E2E2F0" height="32.6211" rx="2.5" ry="2.5" style="stroke:#181818;stroke-width:0.5;" width="133.0479" x="569.3008" y="1033.3906"/><text fill="#000000" font-family="sans-serif" font-size="14" lengthAdjust="spacing" textLength="119.0479" x="576.3008" y="1055.498">:AddUserController</text><rect fill="#E2E2F0" height="32.6211" rx="2.5" ry="2.5" style="stroke:#181818;stroke-width:0.5;" width="101.1445" x="712.3486" y="50"/><text fill="#000000" font-family="sans-serif" font-size="14" lengthAdjust="spacing" textLength="87.1445" x="719.3486" y="72.1074">AuthzRegistry</text><rect fill="#E2E2F0" height="32.6211" rx="2.5" ry="2.5" style="stroke:#181818;stroke-width:0.5;" width="101.1445" x="712.3486" y="1033.3906"/><text fill="#000000" font-family="sans-serif" font-size="14" lengthAdjust="spacing" textLength="87.1445" x="719.3486" y="1055.498">AuthzRegistry</text><rect fill="#E2E2F0" height="32.6211" rx="2.5" ry="2.5" style="stroke:#181818;stroke-width:0.5;" width="175.8477" x="823.4932" y="50"/><text fill="#000000" font-family="sans-serif" font-size="14" lengthAdjust="spacing" textLength="161.8477" x="830.4932" y="72.1074">:UserManagementService</text><rect fill="#E2E2F0" height="32.6211" rx="2.5" ry="2.5" style="stroke:#181818;stroke-width:0.5;" width="175.8477" x="823.4932" y="1033.3906"/><text fill="#000000" font-family="sans-serif" font-size="14" lengthAdjust="spacing" textLength="161.8477" x="830.4932" y="1055.498">:UserManagementService</text><rect fill="#E2E2F0" height="32.6211" rx="2.5" ry="2.5" style="stroke:#181818;stroke-width:0.5;" width="94.124" x="1009.3408" y="1033.3906"/><text fill="#000000" font-family="sans-serif" font-size="14" lengthAdjust="spacing" textLength="80.124" x="1016.3408" y="1055.498">:SystemUser</text><rect fill="#FFFFFF" height="931.7695" style="stroke:#181818;stroke-width:1.0;" width="10" x="44.2344" y="93.6211"/><rect fill="#FFFFFF" height="899.4785" style="stroke:#181818;stroke-width:1.0;" width="10" x="252.4224" y="116.9121"/><rect fill="#FFFFFF" height="868.1875" style="stroke:#181818;stroke-width:1.0;" width="10" x="361.2358" y="148.2031"/><rect fill="#FFFFFF" height="500.3652" style="stroke:#181818;stroke-width:1.0;" width="10" x="366.2358" y="187.4941"/><rect fill="#FFFFFF" height="104.873" style="stroke:#181818;stroke-width:1.0;" width="10" x="371.2358" y="544.6953"/><rect fill="#FFFFFF" height="31.291" style="stroke:#181818;stroke-width:1.0;" width="10" x="630.8247" y="580.9863"/><rect fill="#FFFFFF" height="217.3672" style="stroke:#181818;stroke-width:1.0;" width="10" x="630.8247" y="767.7324"/><rect fill="#FFFFFF" height="31.291" style="stroke:#181818;stroke-width:1.0;" width="10" x="757.9209" y="799.0234"/><rect fill="#FFFFFF" height="74.9121" style="stroke:#181818;stroke-width:1.0;" width="10" x="906.417" y="878.8965"/><polygon fill="#181818" points="240.4224,112.9121,250.4224,116.9121,240.4224,120.9121,244.4224,116.9121" style="stroke:#181818;stroke-width:1.0;"/><line style="stroke:#181818;stroke-width:1.0;" x1="54.2344" x2="246.4224" y1="116.9121" y2="116.9121"/><text fill="#000000" font-family="sans-serif" font-size="13" lengthAdjust="spacing" textLength="179.188" x="61.2344" y="111.6494">asks to register backoffice user</text><polygon fill="#181818" points="349.2358,144.2031,359.2358,148.2031,349.2358,152.2031,353.2358,148.2031" style="stroke:#181818;stroke-width:1.0;"/><line style="stroke:#181818;stroke-width:1.0;" x1="262.4224" x2="355.2358" y1="148.2031" y2="148.2031"/><text fill="#000000" font-family="sans-serif" font-size="13" lengthAdjust="spacing" textLength="39.0063" x="269.4224" y="142.9404">show()</text><line style="stroke:#181818;stroke-width:1.0;" x1="371.2358" x2="418.2358" y1="174.4941" y2="174.4941"/><line style="stroke:#181818;stroke-width:1.0;" x1="418.2358" x2="418.2358" y1="174.4941" y2="187.4941"/><line style="stroke:#181818;stroke-width:1.0;" x1="377.2358" x2="418.2358" y1="187.4941" y2="187.4941"/><polygon fill="#181818" points="387.2358,183.4941,377.2358,187.4941,387.2358,191.4941,383.2358,187.4941" style="stroke:#181818;stroke-width:1.0;"/><text fill="#000000" font-family="sans-serif" font-size="13" lengthAdjust="spacing" textLength="55.6372" x="383.2358" y="169.2314">doShow()</text><polygon fill="#181818" points="65.2344,219.7852,55.2344,223.7852,65.2344,227.7852,61.2344,223.7852" style="stroke:#181818;stroke-width:1.0;"/><line style="stroke:#181818;stroke-width:1.0;stroke-dasharray:2.0,2.0;" x1="59.2344" x2="365.2358" y1="223.7852" y2="223.7852"/><text fill="#000000" font-family="sans-serif" font-size="13" lengthAdjust="spacing" textLength="111.2808" x="71.2344" y="218.5225">requests username</text><polygon fill="#181818" points="354.2358,251.0762,364.2358,255.0762,354.2358,259.0762,358.2358,255.0762" style="stroke:#181818;stroke-width:1.0;"/><line style="stroke:#181818;stroke-width:1.0;" x1="54.2344" x2="360.2358" y1="255.0762" y2="255.0762"/><text fill="#000000" font-family="sans-serif" font-size="13" lengthAdjust="spacing" textLength="97.5508" x="61.2344" y="249.8135">enters username</text><polygon fill="#181818" points="65.2344,282.3672,55.2344,286.3672,65.2344,290.3672,61.2344,286.3672" style="stroke:#181818;stroke-width:1.0;"/><line style="stroke:#181818;stroke-width:1.0;stroke-dasharray:2.0,2.0;" x1="59.2344" x2="365.2358" y1="286.3672" y2="286.3672"/><text fill="#000000" font-family="sans-serif" font-size="13" lengthAdjust="spacing" textLength="109.1099" x="71.2344" y="281.1045">requests password</text><polygon fill="#181818" points="354.2358,313.6582,364.2358,317.6582,354.2358,321.6582,358.2358,317.6582" style="stroke:#181818;stroke-width:1.0;"/><line style="stroke:#181818;stroke-width:1.0;" x1="54.2344" x2="360.2358" y1="317.6582" y2="317.6582"/><text fill="#000000" font-family="sans-serif" font-size="13" lengthAdjust="spacing" textLength="95.3799" x="61.2344" y="312.3955">enters password</text><polygon fill="#181818" points="65.2344,344.9492,55.2344,348.9492,65.2344,352.9492,61.2344,348.9492" style="stroke:#181818;stroke-width:1.0;"/><line style="stroke:#181818;stroke-width:1.0;stroke-dasharray:2.0,2.0;" x1="59.2344" x2="365.2358" y1="348.9492" y2="348.9492"/><text fill="#000000" font-family="sans-serif" font-size="13" lengthAdjust="spacing" textLength="109.0908" x="71.2344" y="343.6865">requests firstName</text><polygon fill="#181818" points="354.2358,376.2402,364.2358,380.2402,354.2358,384.2402,358.2358,380.2402" style="stroke:#181818;stroke-width:1.0;"/><line style="stroke:#181818;stroke-width:1.0;" x1="54.2344" x2="360.2358" y1="380.2402" y2="380.2402"/><text fill="#000000" font-family="sans-serif" font-size="13" lengthAdjust="spacing" textLength="95.3608" x="61.2344" y="374.9775">enters firstName</text><polygon fill="#181818" points="65.2344,407.5313,55.2344,411.5313,65.2344,415.5313,61.2344,411.5313" style="stroke:#181818;stroke-width:1.0;"/><line style="stroke:#181818;stroke-width:1.0;stroke-dasharray:2.0,2.0;" x1="59.2344" x2="365.2358" y1="411.5313" y2="411.5313"/><text fill="#000000" font-family="sans-serif" font-size="13" lengthAdjust="spacing" textLength="108.3799" x="71.2344" y="406.2686">requests lastName</text><polygon fill="#181818" points="354.2358,438.8223,364.2358,442.8223,354.2358,446.8223,358.2358,442.8223" style="stroke:#181818;stroke-width:1.0;"/><line style="stroke:#181818;stroke-width:1.0;" x1="54.2344" x2="360.2358" y1="442.8223" y2="442.8223"/><text fill="#000000" font-family="sans-serif" font-size="13" lengthAdjust="spacing" textLength="94.6499" x="61.2344" y="437.5596">enters lastName</text><polygon fill="#181818" points="65.2344,470.1133,55.2344,474.1133,65.2344,478.1133,61.2344,474.1133" style="stroke:#181818;stroke-width:1.0;"/><line style="stroke:#181818;stroke-width:1.0;stroke-dasharray:2.0,2.0;" x1="59.2344" x2="365.2358" y1="474.1133" y2="474.1133"/><text fill="#000000" font-family="sans-serif" font-size="13" lengthAdjust="spacing" textLength="84.5381" x="71.2344" y="468.8506">requests email</text><polygon fill="#181818" points="354.2358,501.4043,364.2358,505.4043,354.2358,509.4043,358.2358,505.4043" style="stroke:#181818;stroke-width:1.0;"/><line style="stroke:#181818;stroke-width:1.0;" x1="54.2344" x2="360.2358" y1="505.4043" y2="505.4043"/><text fill="#000000" font-family="sans-serif" font-size="13" lengthAdjust="spacing" textLength="70.8081" x="61.2344" y="500.1416">enters email</text><line style="stroke:#181818;stroke-width:1.0;" x1="376.2358" x2="423.2358" y1="531.6953" y2="531.6953"/><line style="stroke:#181818;stroke-width:1.0;" x1="423.2358" x2="423.2358" y1="531.6953" y2="544.6953"/><line style="stroke:#181818;stroke-width:1.0;" x1="382.2358" x2="423.2358" y1="544.6953" y2="544.6953"/><polygon fill="#181818" points="392.2358,540.6953,382.2358,544.6953,392.2358,548.6953,388.2358,544.6953" style="stroke:#181818;stroke-width:1.0;"/><text fill="#000000" font-family="sans-serif" font-size="13" lengthAdjust="spacing" textLength="129.3208" x="388.2358" y="526.4326">showRoles(roleTypes)</text><polygon fill="#181818" points="618.8247,576.9863,628.8247,580.9863,618.8247,584.9863,622.8247,580.9863" style="stroke:#181818;stroke-width:1.0;"/><line style="stroke:#181818;stroke-width:1.0;" x1="381.2358" x2="624.8247" y1="580.9863" y2="580.9863"/><text fill="#000000" font-family="sans-serif" font-size="13" lengthAdjust="spacing" textLength="88.8672" x="388.2358" y="575.7236">getRoleTypes()</text><polygon fill="#181818" points="392.2358,608.2773,382.2358,612.2773,392.2358,616.2773,388.2358,612.2773" style="stroke:#181818;stroke-width:1.0;"/><line style="stroke:#181818;stroke-width:1.0;stroke-dasharray:2.0,2.0;" x1="386.2358" x2="634.8247" y1="612.2773" y2="612.2773"/><text fill="#000000" font-family="sans-serif" font-size="13" lengthAdjust="spacing" textLength="84.5508" x="398.2358" y="607.0146">availableRoles</text><line style="stroke:#181818;stroke-width:1.0;" x1="381.2358" x2="423.2358" y1="648.5684" y2="648.5684"/><line style="stroke:#181818;stroke-width:1.0;" x1="423.2358" x2="423.2358" y1="648.5684" y2="661.5684"/><line style="stroke:#181818;stroke-width:1.0;" x1="376.2358" x2="423.2358" y1="661.5684" y2="661.5684"/><polygon fill="#181818" points="386.2358,657.5684,376.2358,661.5684,386.2358,665.5684,382.2358,661.5684" style="stroke:#181818;stroke-width:1.0;"/><text fill="#000000" font-family="sans-serif" font-size="13" lengthAdjust="spacing" textLength="158.958" x="388.2358" y="643.3057">buildRolesMenu(roleTypes)</text><polygon fill="#181818" points="65.2344,683.8594,55.2344,687.8594,65.2344,691.8594,61.2344,687.8594" style="stroke:#181818;stroke-width:1.0;"/><line style="stroke:#181818;stroke-width:1.0;stroke-dasharray:2.0,2.0;" x1="59.2344" x2="360.2358" y1="687.8594" y2="687.8594"/><text fill="#000000" font-family="sans-serif" font-size="13" lengthAdjust="spacing" textLength="98.2681" x="71.2344" y="682.5967">shows role menu</text><polygon fill="#181818" points="349.2358,715.1504,359.2358,719.1504,349.2358,723.1504,353.2358,719.1504" style="stroke:#181818;stroke-width:1.0;"/><line style="stroke:#181818;stroke-width:1.0;" x1="54.2344" x2="355.2358" y1="719.1504" y2="719.1504"/><text fill="#000000" font-family="sans-serif" font-size="13" lengthAdjust="spacing" textLength="72.249" x="61.2344" y="713.8877">selects roles</text><polygon fill="#181818" points="618.8247,763.7324,628.8247,767.7324,618.8247,771.7324,622.8247,767.7324" style="stroke:#181818;stroke-width:1.0;"/><line style="stroke:#181818;stroke-width:1.0;" x1="371.2358" x2="624.8247" y1="767.7324" y2="767.7324"/><text fill="#000000" font-family="sans-serif" font-size="13" lengthAdjust="spacing" textLength="240.5889" x="378.2358" y="745.1787">addUser(username, password, firstName,</text><text fill="#000000" font-family="sans-serif" font-size="13" lengthAdjust="spacing" textLength="161.8271" x="378.2358" y="762.4697">lastName, email, roleTypes)</text><polygon fill="#181818" points="745.9209,795.0234,755.9209,799.0234,745.9209,803.0234,749.9209,799.0234" style="stroke:#181818;stroke-width:1.0;"/><line style="stroke:#181818;stroke-width:1.0;" x1="640.8247" x2="751.9209" y1="799.0234" y2="799.0234"/><text fill="#000000" font-family="sans-serif" font-size="13" lengthAdjust="spacing" textLength="77.2954" x="647.8247" y="793.7607">userService()</text><polygon fill="#181818" points="651.8247,826.3145,641.8247,830.3145,651.8247,834.3145,647.8247,830.3145" style="stroke:#181818;stroke-width:1.0;"/><line style="stroke:#181818;stroke-width:1.0;stroke-dasharray:2.0,2.0;" x1="645.8247" x2="761.9209" y1="830.3145" y2="830.3145"/><text fill="#000000" font-family="sans-serif" font-size="13" lengthAdjust="spacing" textLength="68.6372" x="657.8247" y="825.0518">userService</text><polygon fill="#181818" points="894.417,874.8965,904.417,878.8965,894.417,882.8965,898.417,878.8965" style="stroke:#181818;stroke-width:1.0;"/><line style="stroke:#181818;stroke-width:1.0;" x1="640.8247" x2="900.417" y1="878.8965" y2="878.8965"/><text fill="#000000" font-family="sans-serif" font-size="13" lengthAdjust="spacing" textLength="225.4116" x="647.8247" y="856.3428">registerNewUser(username, password,</text><text fill="#000000" font-family="sans-serif" font-size="13" lengthAdjust="spacing" textLength="224.6689" x="647.8247" y="873.6338">firstName, lastName, email, roleTypes)</text><polygon fill="#181818" points="997.3408,906.1875,1007.3408,910.1875,997.3408,914.1875,1001.3408,910.1875" style="stroke:#181818;stroke-width:1.0;"/><line style="stroke:#181818;stroke-width:1.0;stroke-dasharray:2.0,2.0;" x1="916.417" x2="1003.3408" y1="910.1875" y2="910.1875"/><text fill="#000000" font-family="sans-serif" font-size="13" lengthAdjust="spacing" textLength="36.1309" x="923.417" y="904.9248">create</text><rect fill="#E2E2F0" height="32.6211" rx="2.5" ry="2.5" style="stroke:#181818;stroke-width:0.5;" width="94.124" x="1009.3408" y="886.8965"/><text fill="#000000" font-family="sans-serif" font-size="14" lengthAdjust="spacing" textLength="80.124" x="1016.3408" y="909.0039">:SystemUser</text><polygon fill="#181818" points="651.8247,949.8086,641.8247,953.8086,651.8247,957.8086,647.8247,953.8086" style="stroke:#181818;stroke-width:1.0;"/><line style="stroke:#181818;stroke-width:1.0;stroke-dasharray:2.0,2.0;" x1="645.8247" x2="910.417" y1="953.8086" y2="953.8086"/><text fill="#000000" font-family="sans-serif" font-size="13" lengthAdjust="spacing" textLength="25.2891" x="657.8247" y="948.5459">user</text><polygon fill="#181818" points="382.2358,981.0996,372.2358,985.0996,382.2358,989.0996,378.2358,985.0996" style="stroke:#181818;stroke-width:1.0;"/><line style="stroke:#181818;stroke-width:1.0;stroke-dasharray:2.0,2.0;" x1="376.2358" x2="634.8247" y1="985.0996" y2="985.0996"/><text fill="#000000" font-family="sans-serif" font-size="13" lengthAdjust="spacing" textLength="25.2891" x="388.2358" y="979.8369">user</text><polygon fill="#181818" points="65.2344,1012.3906,55.2344,1016.3906,65.2344,1020.3906,61.2344,1016.3906" style="stroke:#181818;stroke-width:1.0;"/><line style="stroke:#181818;stroke-width:1.0;stroke-dasharray:2.0,2.0;" x1="59.2344" x2="365.2358" y1="1016.3906" y2="1016.3906"/><text fill="#000000" font-family="sans-serif" font-size="13" lengthAdjust="spacing" textLength="118.5107" x="71.2344" y="1011.1279">operation successful</text><!--SRC=[ZPNFZjem4CRlUGgB4wpW1JYiXEYgHIfKIg27QgMLIGQmSEpKTa3qwJjn_W9sGYu8vPkVlvdnJFIPYOmgcfACncTwXCZSE105iQ7Yo27GZK2VQ2AlJ1p9WN8DGK1Z8nKPBPAK2QQDelXtHAWcYs_hrIR0ACDYbb5Xo6Y-I9AT1hM83PEYL2stgryUsMvb9RkL-_LI2gCavr2Ujzo6F- -5YzoS_eLmB6pTojDssnz_liAFxm_40hUc0ZDFGPW8r8N5K1uUVOHVqU_bGq1qqmRI8gnHsLAm2pLGfHxO7p9xhv8aSvIUDJ4IArkO0aNsM6zvEE1f94TO1r7MXU1JHIDdjqA6FidhU6BVD6ei4QaUrDJAH4QjrgUlOmgRrkyStVtDGHjjBGcQmfsuoSgUWUK2vL7wi1dL-YfLCenrAdtO0rFQR5wowvRwm9o-odKgVLX8AUF3p6VP4xrpCqB9GOznB61xoq1FxhI-_hUSOeYGT0GJreZnv4dRSEpC4STZERFQ6BrW2dJFmRfx2aYW7zX9SPypdbZA6aJko_C1YjawcPsc5ANJfC0Ht03v0EtnxNtVD71Sd2LD1qETgofEovqshWTfsjpzQNjRfv-Ylc7JybvCoL2hdHKjs_FUxaDqK9nSRRw-bhShrDNt5ZXhS-kG-mhh9tlzrzlPZbMvKZTmzHNoKxIL9AyMydvkwg-1A_V6pAnozlQ6lc8563aSqAbLx-tpEGZwHz1oWxwf6neHcG5-tF6xJNGUnw3r8UVEj5ojBRzcWMCmW-0_]--></g></svg>