<svg xmlns="http://www.w3.org/2000/svg" xmlns:xlink="http://www.w3.org/1999/xlink" contentStyleType="text/css" height="2312px" preserveAspectRatio="none" style="width:2537px;height:2312px;background:#FFFFFF;" version="1.1" viewBox="0 0 2537 2312" width="2537px" zoomAndPan="magnify"><defs/><g><!--class CreateShowProposalUI--><g id="elem_CreateShowProposalUI"><rect codeLine="9" fill="#F1F1F1" height="122.4844" id="CreateShowProposalUI" rx="2.5" ry="2.5" style="stroke:#181818;stroke-width:0.5;" width="467.1777" x="2063" y="7"/><ellipse cx="2219.1909" cy="23" fill="#ADD1B2" rx="11" ry="11" style="stroke:#181818;stroke-width:1.0;"/><path d="M2221.9565,18.875 Q2222.1128,18.6563 2222.3003,18.5469 Q2222.4878,18.4375 2222.7065,18.4375 Q2223.0815,18.4375 2223.3159,18.7031 Q2223.5503,18.9531 2223.5503,19.5625 L2223.5503,21.0156 Q2223.5503,21.625 2223.3159,21.8906 Q2223.0815,22.1563 2222.7065,22.1563 Q2222.3628,22.1563 2222.1597,21.9531 Q2221.9565,21.7656 2221.8472,21.25 Q2221.8003,20.8906 2221.6128,20.7031 Q2221.2847,20.3281 2220.6753,20.1094 Q2220.0659,19.8906 2219.4409,19.8906 Q2218.6753,19.8906 2218.0347,20.2188 Q2217.4097,20.5469 2216.9097,21.2969 Q2216.4253,22.0469 2216.4253,23.0781 L2216.4253,24.1719 Q2216.4253,25.4063 2217.3159,26.2344 Q2218.2065,27.0469 2219.8003,27.0469 Q2220.7378,27.0469 2221.394,26.7969 Q2221.7847,26.6406 2222.2065,26.2031 Q2222.4722,25.9375 2222.6128,25.8594 Q2222.769,25.7813 2222.9722,25.7813 Q2223.3003,25.7813 2223.5503,26.0469 Q2223.8159,26.2969 2223.8159,26.6406 Q2223.8159,26.9844 2223.4722,27.3906 Q2222.9722,27.9688 2222.1753,28.2969 Q2221.0972,28.75 2219.8003,28.75 Q2218.2847,28.75 2217.0815,28.125 Q2216.0972,27.625 2215.4097,26.5625 Q2214.7222,25.4844 2214.7222,24.2031 L2214.7222,23.0469 Q2214.7222,21.7188 2215.3315,20.5781 Q2215.9565,19.4219 2217.0503,18.8125 Q2218.144,18.1875 2219.3784,18.1875 Q2220.1128,18.1875 2220.7534,18.3594 Q2221.4097,18.5156 2221.9565,18.875 Z " fill="#000000"/><text fill="#000000" font-family="sans-serif" font-size="14" lengthAdjust="spacing" textLength="146.2959" x="2239.6909" y="28.7969">CreateShowProposalUI</text><line style="stroke:#181818;stroke-width:0.5;" x1="2064" x2="2529.1777" y1="39" y2="39"/><text fill="#000000" font-family="sans-serif" font-size="14" lengthAdjust="spacing" textLength="289.4678" x="2069" y="58.1074">-theController : CreateShowProposalController</text><line style="stroke:#181818;stroke-width:0.5;" x1="2064" x2="2529.1777" y1="65.6211" y2="65.6211"/><text fill="#000000" font-family="sans-serif" font-size="14" lengthAdjust="spacing" textLength="129.5889" x="2069" y="84.7285">+doShow() : boolean</text><text fill="#000000" font-family="sans-serif" font-size="14" lengthAdjust="spacing" textLength="455.1777" x="2069" y="103.3496">-selectProposalTemplate(showRequestDTO : ShowRequestDTO) : String</text><text fill="#000000" font-family="sans-serif" font-size="14" lengthAdjust="spacing" textLength="118.6787" x="2069" y="121.9707">+headline() : String</text></g><!--class CreateShowProposalController--><g id="elem_CreateShowProposalController"><rect codeLine="16" fill="#F1F1F1" height="196.9688" id="CreateShowProposalController" rx="2.5" ry="2.5" style="stroke:#181818;stroke-width:0.5;" width="441.1396" x="1214" y="189"/><ellipse cx="1333.8271" cy="205" fill="#ADD1B2" rx="11" ry="11" style="stroke:#181818;stroke-width:1.0;"/><path d="M1336.5928,200.875 Q1336.749,200.6563 1336.9365,200.5469 Q1337.124,200.4375 1337.3428,200.4375 Q1337.7178,200.4375 1337.9521,200.7031 Q1338.1865,200.9531 1338.1865,201.5625 L1338.1865,203.0156 Q1338.1865,203.625 1337.9521,203.8906 Q1337.7178,204.1563 1337.3428,204.1563 Q1336.999,204.1563 1336.7959,203.9531 Q1336.5928,203.7656 1336.4834,203.25 Q1336.4365,202.8906 1336.249,202.7031 Q1335.9209,202.3281 1335.3115,202.1094 Q1334.7021,201.8906 1334.0771,201.8906 Q1333.3115,201.8906 1332.6709,202.2188 Q1332.0459,202.5469 1331.5459,203.2969 Q1331.0615,204.0469 1331.0615,205.0781 L1331.0615,206.1719 Q1331.0615,207.4063 1331.9521,208.2344 Q1332.8428,209.0469 1334.4365,209.0469 Q1335.374,209.0469 1336.0303,208.7969 Q1336.4209,208.6406 1336.8428,208.2031 Q1337.1084,207.9375 1337.249,207.8594 Q1337.4053,207.7813 1337.6084,207.7813 Q1337.9365,207.7813 1338.1865,208.0469 Q1338.4521,208.2969 1338.4521,208.6406 Q1338.4521,208.9844 1338.1084,209.3906 Q1337.6084,209.9688 1336.8115,210.2969 Q1335.7334,210.75 1334.4365,210.75 Q1332.9209,210.75 1331.7178,210.125 Q1330.7334,209.625 1330.0459,208.5625 Q1329.3584,207.4844 1329.3584,206.2031 L1329.3584,205.0469 Q1329.3584,203.7188 1329.9678,202.5781 Q1330.5928,201.4219 1331.6865,200.8125 Q1332.7803,200.1875 1334.0146,200.1875 Q1334.749,200.1875 1335.3896,200.3594 Q1336.0459,200.5156 1336.5928,200.875 Z " fill="#000000"/><text fill="#000000" font-family="sans-serif" font-size="14" lengthAdjust="spacing" textLength="192.9854" x="1354.3271" y="210.7969">CreateShowProposalController</text><line style="stroke:#181818;stroke-width:0.5;" x1="1215" x2="1654.1396" y1="221" y2="221"/><text fill="#000000" font-family="sans-serif" font-size="14" lengthAdjust="spacing" textLength="178.9785" x="1220" y="240.1074">-authz : AuthorizationService</text><text fill="#000000" font-family="sans-serif" font-size="14" lengthAdjust="spacing" textLength="328.3779" x="1220" y="258.7285">-showProposalRepository : ShowProposalRepository</text><text fill="#000000" font-family="sans-serif" font-size="14" lengthAdjust="spacing" textLength="322.1572" x="1220" y="277.3496">-showRequestRepository : ShowRequestRepository</text><text fill="#000000" font-family="sans-serif" font-size="14" lengthAdjust="spacing" textLength="268.4199" x="1220" y="295.9707">-customerRepository : CustomerRepository</text><text fill="#000000" font-family="sans-serif" font-size="14" lengthAdjust="spacing" textLength="375.8398" x="1220" y="314.5918">-proposalTemplateRepository : ProposalTemplateRepository</text><line style="stroke:#181818;stroke-width:0.5;" x1="1215" x2="1654.1396" y1="322.1055" y2="322.1055"/><text fill="#000000" font-family="sans-serif" font-size="14" lengthAdjust="spacing" textLength="429.1396" x="1220" y="341.2129">+createShowProposal(dto : ShowProposalDTO) : ShowProposalDTO</text><text fill="#000000" font-family="sans-serif" font-size="14" lengthAdjust="spacing" textLength="389.4092" x="1220" y="359.834">+getTemplateTypeForCustomer(customerVAT : String) : String</text><text fill="#000000" font-family="sans-serif" font-size="14" lengthAdjust="spacing" textLength="320.209" x="1220" y="378.4551">+listShowRequests() : Iterable&lt;ShowRequestDTO&gt;</text></g><!--class Customer--><g id="elem_Customer"><rect codeLine="27" fill="#F1F1F1" height="358.5195" id="Customer" rx="2.5" ry="2.5" style="stroke:#181818;stroke-width:0.5;" width="543.4531" x="933" y="1801"/><ellipse cx="1155.4404" cy="1823.291" fill="#ADD1B2" rx="11" ry="11" style="stroke:#181818;stroke-width:1.0;"/><path d="M1158.2061,1819.166 Q1158.3623,1818.9473 1158.5498,1818.8379 Q1158.7373,1818.7285 1158.9561,1818.7285 Q1159.3311,1818.7285 1159.5654,1818.9941 Q1159.7998,1819.2441 1159.7998,1819.8535 L1159.7998,1821.3066 Q1159.7998,1821.916 1159.5654,1822.1816 Q1159.3311,1822.4473 1158.9561,1822.4473 Q1158.6123,1822.4473 1158.4092,1822.2441 Q1158.2061,1822.0566 1158.0967,1821.541 Q1158.0498,1821.1816 1157.8623,1820.9941 Q1157.5342,1820.6191 1156.9248,1820.4004 Q1156.3154,1820.1816 1155.6904,1820.1816 Q1154.9248,1820.1816 1154.2842,1820.5098 Q1153.6592,1820.8379 1153.1592,1821.5879 Q1152.6748,1822.3379 1152.6748,1823.3691 L1152.6748,1824.4629 Q1152.6748,1825.6973 1153.5654,1826.5254 Q1154.4561,1827.3379 1156.0498,1827.3379 Q1156.9873,1827.3379 1157.6436,1827.0879 Q1158.0342,1826.9316 1158.4561,1826.4941 Q1158.7217,1826.2285 1158.8623,1826.1504 Q1159.0186,1826.0723 1159.2217,1826.0723 Q1159.5498,1826.0723 1159.7998,1826.3379 Q1160.0654,1826.5879 1160.0654,1826.9316 Q1160.0654,1827.2754 1159.7217,1827.6816 Q1159.2217,1828.2598 1158.4248,1828.5879 Q1157.3467,1829.041 1156.0498,1829.041 Q1154.5342,1829.041 1153.3311,1828.416 Q1152.3467,1827.916 1151.6592,1826.8535 Q1150.9717,1825.7754 1150.9717,1824.4941 L1150.9717,1823.3379 Q1150.9717,1822.0098 1151.5811,1820.8691 Q1152.2061,1819.7129 1153.2998,1819.1035 Q1154.3936,1818.4785 1155.6279,1818.4785 Q1156.3623,1818.4785 1157.0029,1818.6504 Q1157.6592,1818.8066 1158.2061,1819.166 Z " fill="#000000"/><text fill="#000000" font-family="sans-serif" font-size="12" font-style="italic" lengthAdjust="spacing" textLength="94.0723" x="1173.9404" y="1818.9492">&#171;AggregateRoot&#187;</text><text fill="#000000" font-family="sans-serif" font-size="14" lengthAdjust="spacing" textLength="60.6826" x="1190.6353" y="1837.0684">Customer</text><line style="stroke:#181818;stroke-width:0.5;" x1="934" x2="1475.4531" y1="1845.582" y2="1845.582"/><text fill="#000000" font-family="sans-serif" font-size="14" lengthAdjust="spacing" textLength="62.2344" x="939" y="1864.6895">-vat : VAT</text><text fill="#000000" font-family="sans-serif" font-size="14" lengthAdjust="spacing" textLength="87.9238" x="939" y="1883.3105">-name : String</text><text fill="#000000" font-family="sans-serif" font-size="14" lengthAdjust="spacing" textLength="117.4961" x="939" y="1901.9316">-address : Address</text><text fill="#000000" font-family="sans-serif" font-size="14" lengthAdjust="spacing" textLength="84.793" x="939" y="1920.5527">-email : Email</text><text fill="#000000" font-family="sans-serif" font-size="14" lengthAdjust="spacing" textLength="95.7441" x="939" y="1939.1738">-phone : Phone</text><text fill="#000000" font-family="sans-serif" font-size="14" lengthAdjust="spacing" textLength="196.834" x="939" y="1957.7949">-customerType : CustomerType</text><text fill="#000000" font-family="sans-serif" font-size="14" lengthAdjust="spacing" textLength="213.9648" x="939" y="1976.416">-customerStatus : CustomerStatus</text><text fill="#000000" font-family="sans-serif" font-size="14" lengthAdjust="spacing" textLength="244.3506" x="939" y="1995.0371">-representatives : List&lt;Representative&gt;</text><line style="stroke:#181818;stroke-width:0.5;" x1="934" x2="1475.4531" y1="2002.5508" y2="2002.5508"/><text fill="#000000" font-family="sans-serif" font-size="14" lengthAdjust="spacing" textLength="434.5469" x="939" y="2021.6582">+Customer(vat : VAT, name : String, address : Address, email : Email,</text><text fill="#000000" font-family="sans-serif" font-size="14" lengthAdjust="spacing" textLength="512.0049" x="954.5586" y="2040.2793">phone : Phone, customerType : CustomerType, customerStatus : CustomerStatus,</text><text fill="#000000" font-family="sans-serif" font-size="14" lengthAdjust="spacing" textLength="244.3506" x="954.5586" y="2058.9004">representatives : List&lt;Representative&gt;)</text><text fill="#000000" font-family="sans-serif" font-size="14" lengthAdjust="spacing" textLength="130.334" x="939" y="2077.5215">+address() : Address</text><text fill="#000000" font-family="sans-serif" font-size="14" lengthAdjust="spacing" textLength="209.6719" x="939" y="2096.1426">+customerType() : CustomerType</text><text fill="#000000" font-family="sans-serif" font-size="14" lengthAdjust="spacing" textLength="226.8027" x="939" y="2114.7637">+customerStatus() : CustomerStatus</text><text fill="#000000" font-family="sans-serif" font-size="14" lengthAdjust="spacing" textLength="100.7617" x="939" y="2133.3848">+name() : String</text><text fill="#000000" font-family="sans-serif" font-size="14" lengthAdjust="spacing" textLength="100.7549" x="939" y="2152.0059">+identity() : VAT</text></g><!--class ShowRequest--><g id="elem_ShowRequest"><rect codeLine="44" fill="#F1F1F1" height="451.625" id="ShowRequest" rx="2.5" ry="2.5" style="stroke:#181818;stroke-width:0.5;" width="502.2119" x="1257.5" y="1289"/><ellipse cx="1459.3198" cy="1311.291" fill="#ADD1B2" rx="11" ry="11" style="stroke:#181818;stroke-width:1.0;"/><path d="M1462.0854,1307.166 Q1462.2417,1306.9473 1462.4292,1306.8379 Q1462.6167,1306.7285 1462.8354,1306.7285 Q1463.2104,1306.7285 1463.4448,1306.9941 Q1463.6792,1307.2441 1463.6792,1307.8535 L1463.6792,1309.3066 Q1463.6792,1309.916 1463.4448,1310.1816 Q1463.2104,1310.4473 1462.8354,1310.4473 Q1462.4917,1310.4473 1462.2886,1310.2441 Q1462.0854,1310.0566 1461.9761,1309.541 Q1461.9292,1309.1816 1461.7417,1308.9941 Q1461.4136,1308.6191 1460.8042,1308.4004 Q1460.1948,1308.1816 1459.5698,1308.1816 Q1458.8042,1308.1816 1458.1636,1308.5098 Q1457.5386,1308.8379 1457.0386,1309.5879 Q1456.5542,1310.3379 1456.5542,1311.3691 L1456.5542,1312.4629 Q1456.5542,1313.6973 1457.4448,1314.5254 Q1458.3354,1315.3379 1459.9292,1315.3379 Q1460.8667,1315.3379 1461.5229,1315.0879 Q1461.9136,1314.9316 1462.3354,1314.4941 Q1462.6011,1314.2285 1462.7417,1314.1504 Q1462.8979,1314.0723 1463.1011,1314.0723 Q1463.4292,1314.0723 1463.6792,1314.3379 Q1463.9448,1314.5879 1463.9448,1314.9316 Q1463.9448,1315.2754 1463.6011,1315.6816 Q1463.1011,1316.2598 1462.3042,1316.5879 Q1461.2261,1317.041 1459.9292,1317.041 Q1458.4136,1317.041 1457.2104,1316.416 Q1456.2261,1315.916 1455.5386,1314.8535 Q1454.8511,1313.7754 1454.8511,1312.4941 L1454.8511,1311.3379 Q1454.8511,1310.0098 1455.4604,1308.8691 Q1456.0854,1307.7129 1457.1792,1307.1035 Q1458.2729,1306.4785 1459.5073,1306.4785 Q1460.2417,1306.4785 1460.8823,1306.6504 Q1461.5386,1306.8066 1462.0854,1307.166 Z " fill="#000000"/><text fill="#000000" font-family="sans-serif" font-size="12" font-style="italic" lengthAdjust="spacing" textLength="94.0723" x="1477.8198" y="1306.9492">&#171;AggregateRoot&#187;</text><text fill="#000000" font-family="sans-serif" font-size="14" lengthAdjust="spacing" textLength="87.165" x="1481.2734" y="1325.0684">ShowRequest</text><line style="stroke:#181818;stroke-width:0.5;" x1="1258.5" x2="1758.7119" y1="1333.582" y2="1333.582"/><text fill="#000000" font-family="sans-serif" font-size="14" lengthAdjust="spacing" textLength="211.6748" x="1263.5" y="1352.6895">-showRequestId : ShowRequestId</text><text fill="#000000" font-family="sans-serif" font-size="14" lengthAdjust="spacing" textLength="103.4824" x="1263.5" y="1371.3105">-numDrones : int</text><text fill="#000000" font-family="sans-serif" font-size="14" lengthAdjust="spacing" textLength="108.9648" x="1263.5" y="1389.9316">-duration : double</text><text fill="#000000" font-family="sans-serif" font-size="14" lengthAdjust="spacing" textLength="155.6133" x="1263.5" y="1408.5527">-showDescription : String</text><text fill="#000000" font-family="sans-serif" font-size="14" lengthAdjust="spacing" textLength="115.958" x="1263.5" y="1427.1738">-dateValue : String</text><text fill="#000000" font-family="sans-serif" font-size="14" lengthAdjust="spacing" textLength="90.2549" x="1263.5" y="1445.7949">-status : String</text><text fill="#000000" font-family="sans-serif" font-size="14" lengthAdjust="spacing" textLength="134.5859" x="1263.5" y="1464.416">-customer : Customer</text><text fill="#000000" font-family="sans-serif" font-size="14" lengthAdjust="spacing" textLength="103.4688" x="1263.5" y="1483.0371">-clientVAT : VAT</text><line style="stroke:#181818;stroke-width:0.5;" x1="1258.5" x2="1758.7119" y1="1490.5508" y2="1490.5508"/><text fill="#000000" font-family="sans-serif" font-size="14" lengthAdjust="spacing" textLength="473.5254" x="1263.5" y="1509.6582">+ShowRequest(numDrones : int, duration : double, showDescription : String,</text><text fill="#000000" font-family="sans-serif" font-size="14" lengthAdjust="spacing" textLength="467.6807" x="1279.0586" y="1528.2793">showRequestId : ShowRequestId, dateValue : String, customer : Customer,</text><text fill="#000000" font-family="sans-serif" font-size="14" lengthAdjust="spacing" textLength="474.6533" x="1279.0586" y="1546.9004">clientVAT : VAT, drones : List&lt;Drone&gt;, figures : List&lt;Figure&gt;, status : String)</text><text fill="#000000" font-family="sans-serif" font-size="14" lengthAdjust="spacing" textLength="191.0234" x="1263.5" y="1565.5215">+markAsProposalDone() : void</text><text fill="#000000" font-family="sans-serif" font-size="14" lengthAdjust="spacing" textLength="124.8926" x="1263.5" y="1584.1426">+getStatus() : String</text><text fill="#000000" font-family="sans-serif" font-size="14" lengthAdjust="spacing" textLength="138.1064" x="1263.5" y="1602.7637">+getNumDrones() : int</text><text fill="#000000" font-family="sans-serif" font-size="14" lengthAdjust="spacing" textLength="143.5889" x="1263.5" y="1621.3848">+getDuration() : double</text><text fill="#000000" font-family="sans-serif" font-size="14" lengthAdjust="spacing" textLength="190.251" x="1263.5" y="1640.0059">+getShowDescription() : String</text><text fill="#000000" font-family="sans-serif" font-size="14" lengthAdjust="spacing" textLength="150.582" x="1263.5" y="1658.627">+getDateValue() : String</text><text fill="#000000" font-family="sans-serif" font-size="14" lengthAdjust="spacing" textLength="147.4238" x="1263.5" y="1677.248">+customer() : Customer</text><text fill="#000000" font-family="sans-serif" font-size="14" lengthAdjust="spacing" textLength="138.8789" x="1263.5" y="1695.8691">+getClientVAT() : VAT</text><text fill="#000000" font-family="sans-serif" font-size="14" lengthAdjust="spacing" textLength="172.3682" x="1263.5" y="1714.4902">+identity() : ShowRequestId</text><text fill="#000000" font-family="sans-serif" font-size="14" lengthAdjust="spacing" textLength="187.1133" x="1263.5" y="1733.1113">+toDTO() : ShowRequestDTO</text></g><!--class ShowProposal--><g id="elem_ShowProposal"><rect codeLine="66" fill="#F1F1F1" height="526.1094" id="ShowProposal" rx="2.5" ry="2.5" style="stroke:#181818;stroke-width:0.5;" width="441.9395" x="849.5" y="703"/><ellipse cx="1021.082" cy="725.291" fill="#ADD1B2" rx="11" ry="11" style="stroke:#181818;stroke-width:1.0;"/><path d="M1023.8477,721.166 Q1024.0039,720.9473 1024.1914,720.8379 Q1024.3789,720.7285 1024.5977,720.7285 Q1024.9727,720.7285 1025.207,720.9941 Q1025.4414,721.2441 1025.4414,721.8535 L1025.4414,723.3066 Q1025.4414,723.916 1025.207,724.1816 Q1024.9727,724.4473 1024.5977,724.4473 Q1024.2539,724.4473 1024.0508,724.2441 Q1023.8477,724.0566 1023.7383,723.541 Q1023.6914,723.1816 1023.5039,722.9941 Q1023.1758,722.6191 1022.5664,722.4004 Q1021.957,722.1816 1021.332,722.1816 Q1020.5664,722.1816 1019.9258,722.5098 Q1019.3008,722.8379 1018.8008,723.5879 Q1018.3164,724.3379 1018.3164,725.3691 L1018.3164,726.4629 Q1018.3164,727.6973 1019.207,728.5254 Q1020.0977,729.3379 1021.6914,729.3379 Q1022.6289,729.3379 1023.2852,729.0879 Q1023.6758,728.9316 1024.0977,728.4941 Q1024.3633,728.2285 1024.5039,728.1504 Q1024.6602,728.0723 1024.8633,728.0723 Q1025.1914,728.0723 1025.4414,728.3379 Q1025.707,728.5879 1025.707,728.9316 Q1025.707,729.2754 1025.3633,729.6816 Q1024.8633,730.2598 1024.0664,730.5879 Q1022.9883,731.041 1021.6914,731.041 Q1020.1758,731.041 1018.9727,730.416 Q1017.9883,729.916 1017.3008,728.8535 Q1016.6133,727.7754 1016.6133,726.4941 L1016.6133,725.3379 Q1016.6133,724.0098 1017.2227,722.8691 Q1017.8477,721.7129 1018.9414,721.1035 Q1020.0352,720.4785 1021.2695,720.4785 Q1022.0039,720.4785 1022.6445,720.6504 Q1023.3008,720.8066 1023.8477,721.166 Z " fill="#000000"/><text fill="#000000" font-family="sans-serif" font-size="12" font-style="italic" lengthAdjust="spacing" textLength="94.0723" x="1039.6836" y="720.9492">&#171;AggregateRoot&#187;</text><text fill="#000000" font-family="sans-serif" font-size="14" lengthAdjust="spacing" textLength="90.2754" x="1041.582" y="739.0684">ShowProposal</text><line style="stroke:#181818;stroke-width:0.5;" x1="850.5" x2="1290.4395" y1="747.582" y2="747.582"/><text fill="#000000" font-family="sans-serif" font-size="14" lengthAdjust="spacing" textLength="78.5859" x="855.5" y="766.6895">-number : int</text><text fill="#000000" font-family="sans-serif" font-size="14" lengthAdjust="spacing" textLength="134.5859" x="855.5" y="785.3105">-customer : Customer</text><text fill="#000000" font-family="sans-serif" font-size="14" lengthAdjust="spacing" textLength="188.3232" x="855.5" y="803.9316">-showRequest : ShowRequest</text><text fill="#000000" font-family="sans-serif" font-size="14" lengthAdjust="spacing" textLength="132.2686" x="855.5" y="822.5527">-totalNumDrones : int</text><text fill="#000000" font-family="sans-serif" font-size="14" lengthAdjust="spacing" textLength="183.6406" x="855.5" y="841.1738">-template : ProposalTemplate</text><text fill="#000000" font-family="sans-serif" font-size="14" lengthAdjust="spacing" textLength="178.999" x="855.5" y="859.7949">-eventLocation : Coordinates</text><text fill="#000000" font-family="sans-serif" font-size="14" lengthAdjust="spacing" textLength="205.4131" x="855.5" y="878.416">-eventDateTime : LocalDateTime</text><text fill="#000000" font-family="sans-serif" font-size="14" lengthAdjust="spacing" textLength="118.2822" x="855.5" y="897.0371">-eventDuration : int</text><text fill="#000000" font-family="sans-serif" font-size="14" lengthAdjust="spacing" textLength="183.6475" x="855.5" y="915.6582">-status : ShowProposalStatus</text><text fill="#000000" font-family="sans-serif" font-size="14" lengthAdjust="spacing" textLength="224.1025" x="855.5" y="934.2793">-simulationStatus : SimulationStatus</text><text fill="#000000" font-family="sans-serif" font-size="14" lengthAdjust="spacing" textLength="177.4199" x="855.5" y="952.9004">-simulationVideoLink : String</text><text fill="#000000" font-family="sans-serif" font-size="14" lengthAdjust="spacing" textLength="154.8818" x="855.5" y="971.5215">-insuranceValue : double</text><text fill="#000000" font-family="sans-serif" font-size="14" lengthAdjust="spacing" textLength="133.834" x="855.5" y="990.1426">-proposalText : String</text><text fill="#000000" font-family="sans-serif" font-size="14" lengthAdjust="spacing" textLength="135.4063" x="855.5" y="1008.7637">-sentDate : LocalDate</text><text fill="#000000" font-family="sans-serif" font-size="14" lengthAdjust="spacing" textLength="96.4756" x="855.5" y="1027.3848">-sentBy : Name</text><line style="stroke:#181818;stroke-width:0.5;" x1="850.5" x2="1290.4395" y1="1034.8984" y2="1034.8984"/><text fill="#000000" font-family="sans-serif" font-size="14" lengthAdjust="spacing" textLength="426.0498" x="855.5" y="1054.0059">+ShowProposal(showRequest : ShowRequest, totalNumDrones : int,</text><text fill="#000000" font-family="sans-serif" font-size="14" lengthAdjust="spacing" textLength="386.7568" x="871.0586" y="1072.627">eventLocation : Coordinates, eventDateTime : LocalDateTime,</text><text fill="#000000" font-family="sans-serif" font-size="14" lengthAdjust="spacing" textLength="305.04" x="871.0586" y="1091.248">eventDuration : int, template : ProposalTemplate)</text><text fill="#000000" font-family="sans-serif" font-size="14" lengthAdjust="spacing" textLength="190.2236" x="855.5" y="1109.8691">+toDTO() : ShowProposalDTO</text><text fill="#000000" font-family="sans-serif" font-size="14" lengthAdjust="spacing" textLength="288.3398" x="855.5" y="1128.4902">+changeVideoTo(newVideoLink : String) : void</text><text fill="#000000" font-family="sans-serif" font-size="14" lengthAdjust="spacing" textLength="374.7119" x="855.5" y="1147.1113">+changeProposalStatus(status : ShowProposalStatus) : void</text><text fill="#000000" font-family="sans-serif" font-size="14" lengthAdjust="spacing" textLength="359.9121" x="855.5" y="1165.7324">+changeSimulationStatus(status : SimulationStatus) : void</text><text fill="#000000" font-family="sans-serif" font-size="14" lengthAdjust="spacing" textLength="289.8984" x="855.5" y="1184.3535">+changeSentDate(sentDate : LocalDate) : void</text><text fill="#000000" font-family="sans-serif" font-size="14" lengthAdjust="spacing" textLength="237.7334" x="855.5" y="1202.9746">+changeSentBy(sentBy : Name) : void</text><text fill="#000000" font-family="sans-serif" font-size="14" lengthAdjust="spacing" textLength="312.4365" x="855.5" y="1221.5957">+changeProposalText(proposalText : String) : void</text></g><!--class Coordinates--><g id="elem_Coordinates"><rect codeLine="92" fill="#F1F1F1" height="153.6875" id="Coordinates" rx="2.5" ry="2.5" style="stroke:#181818;stroke-width:0.5;" width="322.1602" x="632.5" y="1438"/><ellipse cx="751.5854" cy="1460.291" fill="#ADD8E6" rx="11" ry="11" style="stroke:#181818;stroke-width:1.0;"/><path d="M752.1792,1463.5566 L754.6479,1457.6816 L754.2573,1457.6816 Q753.6479,1457.6816 753.3823,1457.4473 Q753.1167,1457.2129 753.1167,1456.8223 Q753.1167,1456.4473 753.3823,1456.2129 Q753.6479,1455.9785 754.2573,1455.9785 L756.5386,1455.9785 Q757.1479,1455.9785 757.4136,1456.2129 Q757.6792,1456.4473 757.6792,1456.8223 Q757.6792,1457.291 757.2729,1457.5566 Q757.0854,1457.6816 756.4917,1457.6816 L753.0073,1466.041 L751.3667,1466.041 L747.8823,1457.6816 Q747.2886,1457.6816 747.1011,1457.5566 Q746.6948,1457.291 746.6948,1456.8223 Q746.6948,1456.4473 746.9604,1456.2129 Q747.2261,1455.9785 747.8354,1455.9785 L750.1323,1455.9785 Q750.7417,1455.9785 750.9917,1456.2129 Q751.2573,1456.4473 751.2573,1456.8223 Q751.2573,1457.2129 750.9917,1457.4473 Q750.7417,1457.6816 750.1323,1457.6816 L749.7261,1457.6816 L752.1792,1463.5566 Z " fill="#000000"/><text fill="#000000" font-family="sans-serif" font-size="12" font-style="italic" lengthAdjust="spacing" textLength="76.7168" x="771.4717" y="1455.9492">&#171;valueObject&#187;</text><text fill="#000000" font-family="sans-serif" font-size="14" lengthAdjust="spacing" textLength="75.4893" x="772.0854" y="1474.0684">Coordinates</text><line style="stroke:#181818;stroke-width:0.5;" x1="633.5" x2="953.6602" y1="1482.582" y2="1482.582"/><text fill="#000000" font-family="sans-serif" font-size="14" lengthAdjust="spacing" textLength="103.5166" x="638.5" y="1501.6895">-latitude : double</text><text fill="#000000" font-family="sans-serif" font-size="14" lengthAdjust="spacing" textLength="115.1992" x="638.5" y="1520.3105">-longitude : double</text><line style="stroke:#181818;stroke-width:0.5;" x1="633.5" x2="953.6602" y1="1527.8242" y2="1527.8242"/><text fill="#000000" font-family="sans-serif" font-size="14" lengthAdjust="spacing" textLength="310.1602" x="638.5" y="1546.9316">+Coordinates(latitude : double, longitude : double)</text><text fill="#000000" font-family="sans-serif" font-size="14" lengthAdjust="spacing" textLength="116.3545" x="638.5" y="1565.5527">+latitude() : double</text><text fill="#000000" font-family="sans-serif" font-size="14" lengthAdjust="spacing" textLength="128.0371" x="638.5" y="1584.1738">+longitude() : double</text></g><!--class ProposalTemplate--><g id="elem_ProposalTemplate"><rect codeLine="100" fill="#F1F1F1" height="153.6875" id="ProposalTemplate" rx="2.5" ry="2.5" style="stroke:#181818;stroke-width:0.5;" width="289.4229" x="64" y="1438"/><ellipse cx="147.6548" cy="1460.291" fill="#ADD1B2" rx="11" ry="11" style="stroke:#181818;stroke-width:1.0;"/><path d="M150.4204,1456.166 Q150.5767,1455.9473 150.7642,1455.8379 Q150.9517,1455.7285 151.1704,1455.7285 Q151.5454,1455.7285 151.7798,1455.9941 Q152.0142,1456.2441 152.0142,1456.8535 L152.0142,1458.3066 Q152.0142,1458.916 151.7798,1459.1816 Q151.5454,1459.4473 151.1704,1459.4473 Q150.8267,1459.4473 150.6235,1459.2441 Q150.4204,1459.0566 150.311,1458.541 Q150.2642,1458.1816 150.0767,1457.9941 Q149.7485,1457.6191 149.1392,1457.4004 Q148.5298,1457.1816 147.9048,1457.1816 Q147.1392,1457.1816 146.4985,1457.5098 Q145.8735,1457.8379 145.3735,1458.5879 Q144.8892,1459.3379 144.8892,1460.3691 L144.8892,1461.4629 Q144.8892,1462.6973 145.7798,1463.5254 Q146.6704,1464.3379 148.2642,1464.3379 Q149.2017,1464.3379 149.8579,1464.0879 Q150.2485,1463.9316 150.6704,1463.4941 Q150.936,1463.2285 151.0767,1463.1504 Q151.2329,1463.0723 151.436,1463.0723 Q151.7642,1463.0723 152.0142,1463.3379 Q152.2798,1463.5879 152.2798,1463.9316 Q152.2798,1464.2754 151.936,1464.6816 Q151.436,1465.2598 150.6392,1465.5879 Q149.561,1466.041 148.2642,1466.041 Q146.7485,1466.041 145.5454,1465.416 Q144.561,1464.916 143.8735,1463.8535 Q143.186,1462.7754 143.186,1461.4941 L143.186,1460.3379 Q143.186,1459.0098 143.7954,1457.8691 Q144.4204,1456.7129 145.5142,1456.1035 Q146.6079,1455.4785 147.8423,1455.4785 Q148.5767,1455.4785 149.2173,1455.6504 Q149.8735,1455.8066 150.4204,1456.166 Z " fill="#000000"/><text fill="#000000" font-family="sans-serif" font-size="12" font-style="italic" lengthAdjust="spacing" textLength="94.0723" x="177.9253" y="1455.9492">&#171;AggregateRoot&#187;</text><text fill="#000000" font-family="sans-serif" font-size="14" lengthAdjust="spacing" textLength="113.6133" x="168.1548" y="1474.0684">ProposalTemplate</text><line style="stroke:#181818;stroke-width:0.5;" x1="65" x2="352.4229" y1="1482.582" y2="1482.582"/><text fill="#000000" font-family="sans-serif" font-size="14" lengthAdjust="spacing" textLength="87.9238" x="70" y="1501.6895">-name : String</text><text fill="#000000" font-family="sans-serif" font-size="14" lengthAdjust="spacing" textLength="99.5996" x="70" y="1520.3105">-filePath : String</text><line style="stroke:#181818;stroke-width:0.5;" x1="65" x2="352.4229" y1="1527.8242" y2="1527.8242"/><text fill="#000000" font-family="sans-serif" font-size="14" lengthAdjust="spacing" textLength="214.375" x="70" y="1546.9316">+ProposalTemplate(name : String)</text><text fill="#000000" font-family="sans-serif" font-size="14" lengthAdjust="spacing" textLength="213.5615" x="70" y="1565.5527">+toDTO() : ProposalTemplateDTO</text><text fill="#000000" font-family="sans-serif" font-size="14" lengthAdjust="spacing" textLength="277.4229" x="70" y="1584.1738">+changeFilePath(newFilePath : String) : void</text></g><!--class ShowProposalDTO--><g id="elem_ShowProposalDTO"><rect codeLine="108" fill="#F1F1F1" height="401.8008" id="ShowProposalDTO" rx="2.5" ry="2.5" style="stroke:#181818;stroke-width:0.5;" width="413.1123" x="1795" y="1314"/><ellipse cx="1937.3926" cy="1330" fill="#ADD1B2" rx="11" ry="11" style="stroke:#181818;stroke-width:1.0;"/><path d="M1940.1582,1325.875 Q1940.3145,1325.6563 1940.502,1325.5469 Q1940.6895,1325.4375 1940.9082,1325.4375 Q1941.2832,1325.4375 1941.5176,1325.7031 Q1941.752,1325.9531 1941.752,1326.5625 L1941.752,1328.0156 Q1941.752,1328.625 1941.5176,1328.8906 Q1941.2832,1329.1563 1940.9082,1329.1563 Q1940.5645,1329.1563 1940.3613,1328.9531 Q1940.1582,1328.7656 1940.0488,1328.25 Q1940.002,1327.8906 1939.8145,1327.7031 Q1939.4863,1327.3281 1938.877,1327.1094 Q1938.2676,1326.8906 1937.6426,1326.8906 Q1936.877,1326.8906 1936.2363,1327.2188 Q1935.6113,1327.5469 1935.1113,1328.2969 Q1934.627,1329.0469 1934.627,1330.0781 L1934.627,1331.1719 Q1934.627,1332.4063 1935.5176,1333.2344 Q1936.4082,1334.0469 1938.002,1334.0469 Q1938.9395,1334.0469 1939.5957,1333.7969 Q1939.9863,1333.6406 1940.4082,1333.2031 Q1940.6738,1332.9375 1940.8145,1332.8594 Q1940.9707,1332.7813 1941.1738,1332.7813 Q1941.502,1332.7813 1941.752,1333.0469 Q1942.0176,1333.2969 1942.0176,1333.6406 Q1942.0176,1333.9844 1941.6738,1334.3906 Q1941.1738,1334.9688 1940.377,1335.2969 Q1939.2988,1335.75 1938.002,1335.75 Q1936.4863,1335.75 1935.2832,1335.125 Q1934.2988,1334.625 1933.6113,1333.5625 Q1932.9238,1332.4844 1932.9238,1331.2031 L1932.9238,1330.0469 Q1932.9238,1328.7188 1933.5332,1327.5781 Q1934.1582,1326.4219 1935.252,1325.8125 Q1936.3457,1325.1875 1937.5801,1325.1875 Q1938.3145,1325.1875 1938.9551,1325.3594 Q1939.6113,1325.5156 1940.1582,1325.875 Z " fill="#000000"/><text fill="#000000" font-family="sans-serif" font-size="14" lengthAdjust="spacing" textLength="119.8271" x="1957.8926" y="1335.7969">ShowProposalDTO</text><line style="stroke:#181818;stroke-width:0.5;" x1="1796" x2="2207.1123" y1="1346" y2="1346"/><text fill="#000000" font-family="sans-serif" font-size="14" lengthAdjust="spacing" textLength="82.0996" x="1801" y="1365.1074">+number : int</text><text fill="#000000" font-family="sans-serif" font-size="14" lengthAdjust="spacing" textLength="141.2168" x="1801" y="1383.7285">+customerVAT : String</text><text fill="#000000" font-family="sans-serif" font-size="14" lengthAdjust="spacing" textLength="133.458" x="1801" y="1402.3496">+showRequestID : int</text><text fill="#000000" font-family="sans-serif" font-size="14" lengthAdjust="spacing" textLength="135.7822" x="1801" y="1420.9707">+totalNumDrones : int</text><text fill="#000000" font-family="sans-serif" font-size="14" lengthAdjust="spacing" textLength="180.9336" x="1801" y="1439.5918">+simulationVideoLink : String</text><text fill="#000000" font-family="sans-serif" font-size="14" lengthAdjust="spacing" textLength="107.0303" x="1801" y="1458.2129">+latitude : double</text><text fill="#000000" font-family="sans-serif" font-size="14" lengthAdjust="spacing" textLength="118.7129" x="1801" y="1476.834">+longitude : double</text><text fill="#000000" font-family="sans-serif" font-size="14" lengthAdjust="spacing" textLength="120.2373" x="1801" y="1495.4551">+eventDate : String</text><text fill="#000000" font-family="sans-serif" font-size="14" lengthAdjust="spacing" textLength="121.0098" x="1801" y="1514.0762">+eventHour : String</text><text fill="#000000" font-family="sans-serif" font-size="14" lengthAdjust="spacing" textLength="121.7959" x="1801" y="1532.6973">+eventDuration : int</text><text fill="#000000" font-family="sans-serif" font-size="14" lengthAdjust="spacing" textLength="93.7686" x="1801" y="1551.3184">+status : String</text><text fill="#000000" font-family="sans-serif" font-size="14" lengthAdjust="spacing" textLength="159.1338" x="1801" y="1569.9395">+simulationStatus : String</text><text fill="#000000" font-family="sans-serif" font-size="14" lengthAdjust="spacing" textLength="158.3955" x="1801" y="1588.5605">+insuranceValue : double</text><text fill="#000000" font-family="sans-serif" font-size="14" lengthAdjust="spacing" textLength="141.2373" x="1801" y="1607.1816">+templateType : String</text><line style="stroke:#181818;stroke-width:0.5;" x1="1796" x2="2207.1123" y1="1614.6953" y2="1614.6953"/><text fill="#000000" font-family="sans-serif" font-size="14" lengthAdjust="spacing" textLength="397.2227" x="1801" y="1633.8027">+ShowProposalDTO(showRequestID : int, totalNumDrones : int,</text><text fill="#000000" font-family="sans-serif" font-size="14" lengthAdjust="spacing" textLength="340.9014" x="1816.5586" y="1652.4238">latitude : double, longitude : double, eventDate : String,</text><text fill="#000000" font-family="sans-serif" font-size="14" lengthAdjust="spacing" textLength="379.7363" x="1816.5586" y="1671.0449">eventHour : String, eventDuration : int, templateType : String)</text><text fill="#000000" font-family="sans-serif" font-size="14" lengthAdjust="spacing" textLength="113.9893" x="1801" y="1689.666">+toString() : String</text><text fill="#000000" font-family="sans-serif" font-size="14" lengthAdjust="spacing" textLength="103.0928" x="1801" y="1708.2871">+status() : String</text></g><!--class ShowRequestDTO--><g id="elem_ShowRequestDTO"><rect codeLine="128" fill="#F1F1F1" height="215.5898" id="ShowRequestDTO" rx="2.5" ry="2.5" style="stroke:#181818;stroke-width:0.5;" width="486.2363" x="2018.5" y="1872.5"/><ellipse cx="2199.0098" cy="1888.5" fill="#ADD1B2" rx="11" ry="11" style="stroke:#181818;stroke-width:1.0;"/><path d="M2201.7754,1884.375 Q2201.9316,1884.1563 2202.1191,1884.0469 Q2202.3066,1883.9375 2202.5254,1883.9375 Q2202.9004,1883.9375 2203.1348,1884.2031 Q2203.3691,1884.4531 2203.3691,1885.0625 L2203.3691,1886.5156 Q2203.3691,1887.125 2203.1348,1887.3906 Q2202.9004,1887.6563 2202.5254,1887.6563 Q2202.1816,1887.6563 2201.9785,1887.4531 Q2201.7754,1887.2656 2201.666,1886.75 Q2201.6191,1886.3906 2201.4316,1886.2031 Q2201.1035,1885.8281 2200.4941,1885.6094 Q2199.8848,1885.3906 2199.2598,1885.3906 Q2198.4941,1885.3906 2197.8535,1885.7188 Q2197.2285,1886.0469 2196.7285,1886.7969 Q2196.2441,1887.5469 2196.2441,1888.5781 L2196.2441,1889.6719 Q2196.2441,1890.9063 2197.1348,1891.7344 Q2198.0254,1892.5469 2199.6191,1892.5469 Q2200.5566,1892.5469 2201.2129,1892.2969 Q2201.6035,1892.1406 2202.0254,1891.7031 Q2202.291,1891.4375 2202.4316,1891.3594 Q2202.5879,1891.2813 2202.791,1891.2813 Q2203.1191,1891.2813 2203.3691,1891.5469 Q2203.6348,1891.7969 2203.6348,1892.1406 Q2203.6348,1892.4844 2203.291,1892.8906 Q2202.791,1893.4688 2201.9941,1893.7969 Q2200.916,1894.25 2199.6191,1894.25 Q2198.1035,1894.25 2196.9004,1893.625 Q2195.916,1893.125 2195.2285,1892.0625 Q2194.541,1890.9844 2194.541,1889.7031 L2194.541,1888.5469 Q2194.541,1887.2188 2195.1504,1886.0781 Q2195.7754,1884.9219 2196.8691,1884.3125 Q2197.9629,1883.6875 2199.1973,1883.6875 Q2199.9316,1883.6875 2200.5723,1883.8594 Q2201.2285,1884.0156 2201.7754,1884.375 Z " fill="#000000"/><text fill="#000000" font-family="sans-serif" font-size="14" lengthAdjust="spacing" textLength="116.7168" x="2219.5098" y="1894.2969">ShowRequestDTO</text><line style="stroke:#181818;stroke-width:0.5;" x1="2019.5" x2="2503.7363" y1="1904.5" y2="1904.5"/><text fill="#000000" font-family="sans-serif" font-size="14" lengthAdjust="spacing" textLength="45.5273" x="2024.5" y="1923.6074">+id : int</text><text fill="#000000" font-family="sans-serif" font-size="14" lengthAdjust="spacing" textLength="141.2168" x="2024.5" y="1942.2285">+customerVAT : String</text><text fill="#000000" font-family="sans-serif" font-size="14" lengthAdjust="spacing" textLength="159.127" x="2024.5" y="1960.8496">+showDescription : String</text><text fill="#000000" font-family="sans-serif" font-size="14" lengthAdjust="spacing" textLength="106.9961" x="2024.5" y="1979.4707">+numDrones : int</text><text fill="#000000" font-family="sans-serif" font-size="14" lengthAdjust="spacing" textLength="112.4785" x="2024.5" y="1998.0918">+duration : double</text><text fill="#000000" font-family="sans-serif" font-size="14" lengthAdjust="spacing" textLength="119.4717" x="2024.5" y="2016.7129">+dateValue : String</text><text fill="#000000" font-family="sans-serif" font-size="14" lengthAdjust="spacing" textLength="93.7686" x="2024.5" y="2035.334">+status : String</text><line style="stroke:#181818;stroke-width:0.5;" x1="2019.5" x2="2503.7363" y1="2042.8477" y2="2042.8477"/><text fill="#000000" font-family="sans-serif" font-size="14" lengthAdjust="spacing" textLength="470.3467" x="2024.5" y="2061.9551">+ShowRequestDTO(id : int, customerVAT : String, showDescription : String,</text><text fill="#000000" font-family="sans-serif" font-size="14" lengthAdjust="spacing" textLength="428.0117" x="2040.0586" y="2080.5762">numDrones : int, duration : double, dateValue : String, status : String)</text></g><!--class ProposalTemplateDTO--><g id="elem_ProposalTemplateDTO"><rect codeLine="139" fill="#F1F1F1" height="103.8633" id="ProposalTemplateDTO" rx="2.5" ry="2.5" style="stroke:#181818;stroke-width:0.5;" width="358.6436" x="29" y="1928.5"/><ellipse cx="132.4893" cy="1944.5" fill="#ADD1B2" rx="11" ry="11" style="stroke:#181818;stroke-width:1.0;"/><path d="M135.2549,1940.375 Q135.4111,1940.1563 135.5986,1940.0469 Q135.7861,1939.9375 136.0049,1939.9375 Q136.3799,1939.9375 136.6143,1940.2031 Q136.8486,1940.4531 136.8486,1941.0625 L136.8486,1942.5156 Q136.8486,1943.125 136.6143,1943.3906 Q136.3799,1943.6563 136.0049,1943.6563 Q135.6611,1943.6563 135.458,1943.4531 Q135.2549,1943.2656 135.1455,1942.75 Q135.0986,1942.3906 134.9111,1942.2031 Q134.583,1941.8281 133.9736,1941.6094 Q133.3643,1941.3906 132.7393,1941.3906 Q131.9736,1941.3906 131.333,1941.7188 Q130.708,1942.0469 130.208,1942.7969 Q129.7236,1943.5469 129.7236,1944.5781 L129.7236,1945.6719 Q129.7236,1946.9063 130.6143,1947.7344 Q131.5049,1948.5469 133.0986,1948.5469 Q134.0361,1948.5469 134.6924,1948.2969 Q135.083,1948.1406 135.5049,1947.7031 Q135.7705,1947.4375 135.9111,1947.3594 Q136.0674,1947.2813 136.2705,1947.2813 Q136.5986,1947.2813 136.8486,1947.5469 Q137.1143,1947.7969 137.1143,1948.1406 Q137.1143,1948.4844 136.7705,1948.8906 Q136.2705,1949.4688 135.4736,1949.7969 Q134.3955,1950.25 133.0986,1950.25 Q131.583,1950.25 130.3799,1949.625 Q129.3955,1949.125 128.708,1948.0625 Q128.0205,1946.9844 128.0205,1945.7031 L128.0205,1944.5469 Q128.0205,1943.2188 128.6299,1942.0781 Q129.2549,1940.9219 130.3486,1940.3125 Q131.4424,1939.6875 132.6768,1939.6875 Q133.4111,1939.6875 134.0518,1939.8594 Q134.708,1940.0156 135.2549,1940.375 Z " fill="#000000"/><text fill="#000000" font-family="sans-serif" font-size="14" lengthAdjust="spacing" textLength="143.165" x="152.9893" y="1950.2969">ProposalTemplateDTO</text><line style="stroke:#181818;stroke-width:0.5;" x1="30" x2="386.6436" y1="1960.5" y2="1960.5"/><text fill="#000000" font-family="sans-serif" font-size="14" lengthAdjust="spacing" textLength="91.4375" x="35" y="1979.6074">+name : String</text><text fill="#000000" font-family="sans-serif" font-size="14" lengthAdjust="spacing" textLength="103.1133" x="35" y="1998.2285">+filePath : String</text><line style="stroke:#181818;stroke-width:0.5;" x1="30" x2="386.6436" y1="2005.7422" y2="2005.7422"/><text fill="#000000" font-family="sans-serif" font-size="14" lengthAdjust="spacing" textLength="346.6436" x="35" y="2024.8496">+ProposalTemplateDTO(name : String, filePath : String)</text></g><!--class ShowProposalStatus--><g id="elem_ShowProposalStatus"><rect codeLine="145" fill="#F1F1F1" height="159.7266" id="ShowProposalStatus" rx="2.5" ry="2.5" style="stroke:#181818;stroke-width:0.5;" width="161.9648" x="989.5" y="1435"/><ellipse cx="1004.5" cy="1451" fill="#EB937F" rx="11" ry="11" style="stroke:#181818;stroke-width:1.0;"/><path d="M1003.3594,1451.7969 L1003.3594,1454.2969 L1007.6875,1454.2969 L1007.6875,1453.375 Q1007.6875,1452.7656 1007.9219,1452.5 Q1008.1719,1452.2344 1008.5469,1452.2344 Q1008.9219,1452.2344 1009.1563,1452.5 Q1009.3906,1452.7656 1009.3906,1453.375 L1009.3906,1456 L1001.3906,1456 Q1000.7656,1456 1000.5,1455.7656 Q1000.25,1455.5313 1000.25,1455.1406 Q1000.25,1454.7656 1000.5156,1454.5313 Q1000.7813,1454.2969 1001.3906,1454.2969 L1001.6563,1454.2969 L1001.6563,1447.6406 L1001.3906,1447.6406 Q1000.7656,1447.6406 1000.5,1447.4063 Q1000.25,1447.1719 1000.25,1446.7813 Q1000.25,1446.4063 1000.5,1446.1719 Q1000.7656,1445.9375 1001.3906,1445.9375 L1009.0156,1445.9375 L1009.0156,1448.5313 Q1009.0156,1449.1406 1008.7813,1449.4063 Q1008.5625,1449.6563 1008.1719,1449.6563 Q1007.7969,1449.6563 1007.5625,1449.4063 Q1007.3281,1449.1406 1007.3281,1448.5313 L1007.3281,1447.6406 L1003.3594,1447.6406 L1003.3594,1450.0938 L1004.8438,1450.0938 Q1004.8438,1449.4375 1004.9688,1449.25 Q1005.2344,1448.8438 1005.7031,1448.8438 Q1006.0781,1448.8438 1006.3125,1449.1094 Q1006.5469,1449.3594 1006.5469,1449.9688 L1006.5469,1451.9375 Q1006.5469,1452.4844 1006.4219,1452.6719 Q1006.1563,1453.0625 1005.7031,1453.0625 Q1005.2344,1453.0625 1004.9688,1452.6563 Q1004.8438,1452.4688 1004.8438,1451.7969 L1003.3594,1451.7969 Z " fill="#000000"/><text fill="#000000" font-family="sans-serif" font-size="14" lengthAdjust="spacing" textLength="129.9648" x="1018.5" y="1456.7969">ShowProposalStatus</text><line style="stroke:#181818;stroke-width:0.5;" x1="990.5" x2="1150.4648" y1="1467" y2="1467"/><text fill="#000000" font-family="sans-serif" font-size="14" lengthAdjust="spacing" textLength="66.8965" x="995.5" y="1486.1074">CREATED</text><text fill="#000000" font-family="sans-serif" font-size="14" lengthAdjust="spacing" textLength="66.8965" x="995.5" y="1504.7285">PENDENT</text><text fill="#000000" font-family="sans-serif" font-size="14" lengthAdjust="spacing" textLength="73.8965" x="995.5" y="1523.3496">REJECTED</text><text fill="#000000" font-family="sans-serif" font-size="14" lengthAdjust="spacing" textLength="76.2344" x="995.5" y="1541.9707">ACCEPTED</text><text fill="#000000" font-family="sans-serif" font-size="14" lengthAdjust="spacing" textLength="86.3516" x="995.5" y="1560.5918">SCHEDULED</text><text fill="#000000" font-family="sans-serif" font-size="14" lengthAdjust="spacing" textLength="67.6758" x="995.5" y="1579.2129">ABORTED</text><line style="stroke:#181818;stroke-width:0.5;" x1="990.5" x2="1150.4648" y1="1586.7266" y2="1586.7266"/></g><!--class SimulationStatus--><g id="elem_SimulationStatus"><rect codeLine="154" fill="#F1F1F1" height="103.8633" id="SimulationStatus" rx="2.5" ry="2.5" style="stroke:#181818;stroke-width:0.5;" width="137.0547" x="460" y="1463"/><ellipse cx="475" cy="1479" fill="#EB937F" rx="11" ry="11" style="stroke:#181818;stroke-width:1.0;"/><path d="M473.8594,1479.7969 L473.8594,1482.2969 L478.1875,1482.2969 L478.1875,1481.375 Q478.1875,1480.7656 478.4219,1480.5 Q478.6719,1480.2344 479.0469,1480.2344 Q479.4219,1480.2344 479.6563,1480.5 Q479.8906,1480.7656 479.8906,1481.375 L479.8906,1484 L471.8906,1484 Q471.2656,1484 471,1483.7656 Q470.75,1483.5313 470.75,1483.1406 Q470.75,1482.7656 471.0156,1482.5313 Q471.2813,1482.2969 471.8906,1482.2969 L472.1563,1482.2969 L472.1563,1475.6406 L471.8906,1475.6406 Q471.2656,1475.6406 471,1475.4063 Q470.75,1475.1719 470.75,1474.7813 Q470.75,1474.4063 471,1474.1719 Q471.2656,1473.9375 471.8906,1473.9375 L479.5156,1473.9375 L479.5156,1476.5313 Q479.5156,1477.1406 479.2813,1477.4063 Q479.0625,1477.6563 478.6719,1477.6563 Q478.2969,1477.6563 478.0625,1477.4063 Q477.8281,1477.1406 477.8281,1476.5313 L477.8281,1475.6406 L473.8594,1475.6406 L473.8594,1478.0938 L475.3438,1478.0938 Q475.3438,1477.4375 475.4688,1477.25 Q475.7344,1476.8438 476.2031,1476.8438 Q476.5781,1476.8438 476.8125,1477.1094 Q477.0469,1477.3594 477.0469,1477.9688 L477.0469,1479.9375 Q477.0469,1480.4844 476.9219,1480.6719 Q476.6563,1481.0625 476.2031,1481.0625 Q475.7344,1481.0625 475.4688,1480.6563 Q475.3438,1480.4688 475.3438,1479.7969 L473.8594,1479.7969 Z " fill="#000000"/><text fill="#000000" font-family="sans-serif" font-size="14" lengthAdjust="spacing" textLength="105.0547" x="489" y="1484.7969">SimulationStatus</text><line style="stroke:#181818;stroke-width:0.5;" x1="461" x2="596.0547" y1="1495" y2="1495"/><text fill="#000000" font-family="sans-serif" font-size="14" lengthAdjust="spacing" textLength="75.4482" x="466" y="1514.1074">UNTESTED</text><text fill="#000000" font-family="sans-serif" font-size="14" lengthAdjust="spacing" textLength="49.0137" x="466" y="1532.7285">FAILED</text><text fill="#000000" font-family="sans-serif" font-size="14" lengthAdjust="spacing" textLength="56.7998" x="466" y="1551.3496">PASSED</text><line style="stroke:#181818;stroke-width:0.5;" x1="461" x2="596.0547" y1="1558.8633" y2="1558.8633"/></g><!--class CustomerType--><g id="elem_CustomerType"><rect codeLine="160" fill="#F1F1F1" height="85.2422" id="CustomerType" rx="2.5" ry="2.5" style="stroke:#181818;stroke-width:0.5;" width="123.8066" x="1142.5" y="2220"/><ellipse cx="1157.5" cy="2236" fill="#EB937F" rx="11" ry="11" style="stroke:#181818;stroke-width:1.0;"/><path d="M1156.3594,2236.7969 L1156.3594,2239.2969 L1160.6875,2239.2969 L1160.6875,2238.375 Q1160.6875,2237.7656 1160.9219,2237.5 Q1161.1719,2237.2344 1161.5469,2237.2344 Q1161.9219,2237.2344 1162.1563,2237.5 Q1162.3906,2237.7656 1162.3906,2238.375 L1162.3906,2241 L1154.3906,2241 Q1153.7656,2241 1153.5,2240.7656 Q1153.25,2240.5313 1153.25,2240.1406 Q1153.25,2239.7656 1153.5156,2239.5313 Q1153.7813,2239.2969 1154.3906,2239.2969 L1154.6563,2239.2969 L1154.6563,2232.6406 L1154.3906,2232.6406 Q1153.7656,2232.6406 1153.5,2232.4063 Q1153.25,2232.1719 1153.25,2231.7813 Q1153.25,2231.4063 1153.5,2231.1719 Q1153.7656,2230.9375 1154.3906,2230.9375 L1162.0156,2230.9375 L1162.0156,2233.5313 Q1162.0156,2234.1406 1161.7813,2234.4063 Q1161.5625,2234.6563 1161.1719,2234.6563 Q1160.7969,2234.6563 1160.5625,2234.4063 Q1160.3281,2234.1406 1160.3281,2233.5313 L1160.3281,2232.6406 L1156.3594,2232.6406 L1156.3594,2235.0938 L1157.8438,2235.0938 Q1157.8438,2234.4375 1157.9688,2234.25 Q1158.2344,2233.8438 1158.7031,2233.8438 Q1159.0781,2233.8438 1159.3125,2234.1094 Q1159.5469,2234.3594 1159.5469,2234.9688 L1159.5469,2236.9375 Q1159.5469,2237.4844 1159.4219,2237.6719 Q1159.1563,2238.0625 1158.7031,2238.0625 Q1158.2344,2238.0625 1157.9688,2237.6563 Q1157.8438,2237.4688 1157.8438,2236.7969 L1156.3594,2236.7969 Z " fill="#000000"/><text fill="#000000" font-family="sans-serif" font-size="14" lengthAdjust="spacing" textLength="91.8066" x="1171.5" y="2241.7969">CustomerType</text><line style="stroke:#181818;stroke-width:0.5;" x1="1143.5" x2="1265.3066" y1="2252" y2="2252"/><text fill="#000000" font-family="sans-serif" font-size="14" lengthAdjust="spacing" textLength="22.5654" x="1148.5" y="2271.1074">VIP</text><text fill="#000000" font-family="sans-serif" font-size="14" lengthAdjust="spacing" textLength="67.6826" x="1148.5" y="2289.7285">REGULAR</text><line style="stroke:#181818;stroke-width:0.5;" x1="1143.5" x2="1265.3066" y1="2297.2422" y2="2297.2422"/></g><!--class ShowProposalRepository--><g id="elem_ShowProposalRepository"><rect codeLine="165" fill="#F1F1F1" height="196.9688" id="ShowProposalRepository" rx="2.5" ry="2.5" style="stroke:#181818;stroke-width:0.5;" width="473.8496" x="788.5" y="446"/><ellipse cx="942.5786" cy="462" fill="#B4A7E5" rx="11" ry="11" style="stroke:#181818;stroke-width:1.0;"/><path d="M943.5317,458.6406 L943.5317,465.2969 L945.2505,465.2969 Q945.8599,465.2969 946.1255,465.5313 Q946.3911,465.7656 946.3911,466.1563 Q946.3911,466.5313 946.1255,466.7656 Q945.8599,467 945.2505,467 L940.1099,467 Q939.5005,467 939.2349,466.7656 Q938.9692,466.5313 938.9692,466.1406 Q938.9692,465.7656 939.2349,465.5313 Q939.5005,465.2969 940.1099,465.2969 L941.8286,465.2969 L941.8286,458.6406 L940.1099,458.6406 Q939.5005,458.6406 939.2349,458.4063 Q938.9692,458.1719 938.9692,457.7813 Q938.9692,457.4063 939.2349,457.1719 Q939.5005,456.9375 940.1099,456.9375 L945.2505,456.9375 Q945.8599,456.9375 946.1255,457.1719 Q946.3911,457.4063 946.3911,457.7813 Q946.3911,458.1719 946.1255,458.4063 Q945.8599,458.6406 945.2505,458.6406 L943.5317,458.6406 Z " fill="#000000"/><text fill="#000000" font-family="sans-serif" font-size="14" font-style="italic" lengthAdjust="spacing" textLength="157.1924" x="963.0786" y="467.7969">ShowProposalRepository</text><line style="stroke:#181818;stroke-width:0.5;" x1="789.5" x2="1261.3496" y1="478" y2="478"/><line style="stroke:#181818;stroke-width:0.5;" x1="789.5" x2="1261.3496" y1="486" y2="486"/><text fill="#000000" font-family="sans-serif" font-size="14" lengthAdjust="spacing" textLength="338.8984" x="794.5" y="505.1074">+save(showProposal : ShowProposal) : ShowProposal</text><text fill="#000000" font-family="sans-serif" font-size="14" lengthAdjust="spacing" textLength="461.8496" x="794.5" y="523.7285">+findByProposalNumber(proposalNumber : int) : Optional&lt;ShowProposal&gt;</text><text fill="#000000" font-family="sans-serif" font-size="14" lengthAdjust="spacing" textLength="346.6846" x="794.5" y="542.3496">+findByStatus(status : String) : Iterable&lt;ShowProposal&gt;</text><text fill="#000000" font-family="sans-serif" font-size="14" lengthAdjust="spacing" textLength="195.7129" x="794.5" y="560.9707">+findAll() : List&lt;ShowProposal&gt;</text><text fill="#000000" font-family="sans-serif" font-size="14" lengthAdjust="spacing" textLength="254.8164" x="794.5" y="579.5918">+findAllDTO() : List&lt;ShowProposalDTO&gt;</text><text fill="#000000" font-family="sans-serif" font-size="14" lengthAdjust="spacing" textLength="408.0986" x="794.5" y="598.2129">+findByCustomerVAT(customerVAT : VAT) : List&lt;ShowProposal&gt;</text><text fill="#000000" font-family="sans-serif" font-size="14" lengthAdjust="spacing" textLength="307.002" x="794.5" y="616.834">+findAllProposalsToSend() : List&lt;ShowProposal&gt;</text><text fill="#000000" font-family="sans-serif" font-size="14" lengthAdjust="spacing" textLength="366.1055" x="794.5" y="635.4551">+findAllProposalsToSendDTO() : List&lt;ShowProposalDTO&gt;</text></g><!--class ShowRequestRepository--><g id="elem_ShowRequestRepository"><rect codeLine="176" fill="#F1F1F1" height="85.2422" id="ShowRequestRepository" rx="2.5" ry="2.5" style="stroke:#181818;stroke-width:0.5;" width="370.374" x="1368.5" y="502"/><ellipse cx="1472.396" cy="518" fill="#B4A7E5" rx="11" ry="11" style="stroke:#181818;stroke-width:1.0;"/><path d="M1473.3491,514.6406 L1473.3491,521.2969 L1475.0679,521.2969 Q1475.6772,521.2969 1475.9429,521.5313 Q1476.2085,521.7656 1476.2085,522.1563 Q1476.2085,522.5313 1475.9429,522.7656 Q1475.6772,523 1475.0679,523 L1469.9272,523 Q1469.3179,523 1469.0522,522.7656 Q1468.7866,522.5313 1468.7866,522.1406 Q1468.7866,521.7656 1469.0522,521.5313 Q1469.3179,521.2969 1469.9272,521.2969 L1471.646,521.2969 L1471.646,514.6406 L1469.9272,514.6406 Q1469.3179,514.6406 1469.0522,514.4063 Q1468.7866,514.1719 1468.7866,513.7813 Q1468.7866,513.4063 1469.0522,513.1719 Q1469.3179,512.9375 1469.9272,512.9375 L1475.0679,512.9375 Q1475.6772,512.9375 1475.9429,513.1719 Q1476.2085,513.4063 1476.2085,513.7813 Q1476.2085,514.1719 1475.9429,514.4063 Q1475.6772,514.6406 1475.0679,514.6406 L1473.3491,514.6406 Z " fill="#000000"/><text fill="#000000" font-family="sans-serif" font-size="14" font-style="italic" lengthAdjust="spacing" textLength="154.082" x="1492.896" y="523.7969">ShowRequestRepository</text><line style="stroke:#181818;stroke-width:0.5;" x1="1369.5" x2="1737.874" y1="534" y2="534"/><line style="stroke:#181818;stroke-width:0.5;" x1="1369.5" x2="1737.874" y1="542" y2="542"/><text fill="#000000" font-family="sans-serif" font-size="14" lengthAdjust="spacing" textLength="358.374" x="1374.5" y="561.1074">+findById(showRequestId : int) : Optional&lt;ShowRequest&gt;</text><text fill="#000000" font-family="sans-serif" font-size="14" lengthAdjust="spacing" textLength="217.5127" x="1374.5" y="579.7285">+findAll() : Iterable&lt;ShowRequest&gt;</text></g><!--class CustomerRepository--><g id="elem_CustomerRepository"><rect codeLine="181" fill="#F1F1F1" height="66.6211" id="CustomerRepository" rx="2.5" ry="2.5" style="stroke:#181818;stroke-width:0.5;" width="353.1953" x="458" y="932.5"/><ellipse cx="566.5479" cy="948.5" fill="#B4A7E5" rx="11" ry="11" style="stroke:#181818;stroke-width:1.0;"/><path d="M567.501,945.1406 L567.501,951.7969 L569.2197,951.7969 Q569.8291,951.7969 570.0947,952.0313 Q570.3604,952.2656 570.3604,952.6563 Q570.3604,953.0313 570.0947,953.2656 Q569.8291,953.5 569.2197,953.5 L564.0791,953.5 Q563.4697,953.5 563.2041,953.2656 Q562.9385,953.0313 562.9385,952.6406 Q562.9385,952.2656 563.2041,952.0313 Q563.4697,951.7969 564.0791,951.7969 L565.7979,951.7969 L565.7979,945.1406 L564.0791,945.1406 Q563.4697,945.1406 563.2041,944.9063 Q562.9385,944.6719 562.9385,944.2813 Q562.9385,943.9063 563.2041,943.6719 Q563.4697,943.4375 564.0791,943.4375 L569.2197,943.4375 Q569.8291,943.4375 570.0947,943.6719 Q570.3604,943.9063 570.3604,944.2813 Q570.3604,944.6719 570.0947,944.9063 Q569.8291,945.1406 569.2197,945.1406 L567.501,945.1406 Z " fill="#000000"/><text fill="#000000" font-family="sans-serif" font-size="14" font-style="italic" lengthAdjust="spacing" textLength="127.5996" x="587.0479" y="954.2969">CustomerRepository</text><line style="stroke:#181818;stroke-width:0.5;" x1="459" x2="810.1953" y1="964.5" y2="964.5"/><line style="stroke:#181818;stroke-width:0.5;" x1="459" x2="810.1953" y1="972.5" y2="972.5"/><text fill="#000000" font-family="sans-serif" font-size="14" lengthAdjust="spacing" textLength="341.1953" x="464" y="991.6074">+findByVAT(vatNumber : String) : Optional&lt;Customer&gt;</text></g><!--class ProposalTemplateRepository--><g id="elem_ProposalTemplateRepository"><rect codeLine="185" fill="#F1F1F1" height="103.8633" id="ProposalTemplateRepository" rx="2.5" ry="2.5" style="stroke:#181818;stroke-width:0.5;" width="413.1533" x="7" y="914"/><ellipse cx="119.0615" cy="930" fill="#B4A7E5" rx="11" ry="11" style="stroke:#181818;stroke-width:1.0;"/><path d="M120.0146,926.6406 L120.0146,933.2969 L121.7334,933.2969 Q122.3428,933.2969 122.6084,933.5313 Q122.874,933.7656 122.874,934.1563 Q122.874,934.5313 122.6084,934.7656 Q122.3428,935 121.7334,935 L116.5928,935 Q115.9834,935 115.7178,934.7656 Q115.4521,934.5313 115.4521,934.1406 Q115.4521,933.7656 115.7178,933.5313 Q115.9834,933.2969 116.5928,933.2969 L118.3115,933.2969 L118.3115,926.6406 L116.5928,926.6406 Q115.9834,926.6406 115.7178,926.4063 Q115.4521,926.1719 115.4521,925.7813 Q115.4521,925.4063 115.7178,925.1719 Q115.9834,924.9375 116.5928,924.9375 L121.7334,924.9375 Q122.3428,924.9375 122.6084,925.1719 Q122.874,925.4063 122.874,925.7813 Q122.874,926.1719 122.6084,926.4063 Q122.3428,926.6406 121.7334,926.6406 L120.0146,926.6406 Z " fill="#000000"/><text fill="#000000" font-family="sans-serif" font-size="14" font-style="italic" lengthAdjust="spacing" textLength="180.5303" x="139.5615" y="935.7969">ProposalTemplateRepository</text><line style="stroke:#181818;stroke-width:0.5;" x1="8" x2="419.1533" y1="946" y2="946"/><line style="stroke:#181818;stroke-width:0.5;" x1="8" x2="419.1533" y1="954" y2="954"/><text fill="#000000" font-family="sans-serif" font-size="14" lengthAdjust="spacing" textLength="401.1533" x="13" y="973.1074">+ofIdentity(templateType : String) : Optional&lt;ProposalTemplate&gt;</text><text fill="#000000" font-family="sans-serif" font-size="14" lengthAdjust="spacing" textLength="219.0508" x="13" y="991.7285">+findAll() : List&lt;ProposalTemplate&gt;</text><text fill="#000000" font-family="sans-serif" font-size="14" lengthAdjust="spacing" textLength="302.2988" x="13" y="1010.3496">+findByName(name : String) : ProposalTemplate</text></g><!--link CreateShowProposalUI to CreateShowProposalController--><g id="link_CreateShowProposalUI_CreateShowProposalController"><path codeLine="191" d="M2062.95,127.93 C1936.06,159.95 1785.8577,197.8421 1661.0177,229.3421 " fill="none" id="CreateShowProposalUI-to-CreateShowProposalController" style="stroke:#181818;stroke-width:1.0;stroke-dasharray:7.0,7.0;"/><polygon fill="#181818" points="1655.2,230.81,1664.9051,232.4865,1660.0481,229.5867,1662.9479,224.7297,1655.2,230.81" style="stroke:#181818;stroke-width:1.0;"/></g><!--link CreateShowProposalUI to ShowProposalDTO--><g id="link_CreateShowProposalUI_ShowProposalDTO"><path codeLine="192" d="M2284.2,129.25 C2243.25,329.82 2111.51,975.1312 2043.54,1308.1012 " fill="none" id="CreateShowProposalUI-to-ShowProposalDTO" style="stroke:#181818;stroke-width:1.0;stroke-dasharray:7.0,7.0;"/><polygon fill="#181818" points="2042.34,1313.98,2048.0592,1305.9619,2043.34,1309.081,2040.2209,1304.3618,2042.34,1313.98" style="stroke:#181818;stroke-width:1.0;"/></g><!--link CreateShowProposalUI to ShowRequestDTO--><g id="link_CreateShowProposalUI_ShowRequestDTO"><path codeLine="193" d="M2305.49,129.1 C2324.6,256.78 2367.5,543.5 2367.5,543.5 C2367.5,543.5 2367.5,543.5 2367.5,967 C2367.5,967 2300.6447,1605.5526 2273.3647,1866.1326 " fill="none" id="CreateShowProposalUI-to-ShowRequestDTO" style="stroke:#181818;stroke-width:1.0;stroke-dasharray:7.0,7.0;"/><polygon fill="#181818" points="2272.74,1872.1,2277.6553,1863.5654,2273.2606,1867.1272,2269.6988,1862.7324,2272.74,1872.1" style="stroke:#181818;stroke-width:1.0;"/></g><!--link CreateShowProposalController to ShowProposalRepository--><g id="link_CreateShowProposalController_ShowProposalRepository"><path codeLine="195" d="M1277.83,386.18 C1246.39,405.78 1218.4412,423.2051 1187.0112,442.8051 " fill="none" id="CreateShowProposalController-to-ShowProposalRepository" style="stroke:#181818;stroke-width:1.0;"/><polygon fill="#181818" points="1181.92,445.98,1191.6734,444.6118,1186.1626,443.3343,1187.4402,437.8235,1181.92,445.98" style="stroke:#181818;stroke-width:1.0;"/></g><!--link CreateShowProposalController to ShowRequestRepository--><g id="link_CreateShowProposalController_ShowRequestRepository"><path codeLine="196" d="M1480.17,386.36 C1498.85,426.39 1516.913,465.1028 1531.513,496.3928 " fill="none" id="CreateShowProposalController-to-ShowRequestRepository" style="stroke:#181818;stroke-width:1.0;"/><polygon fill="#181818" points="1534.05,501.83,1533.8693,491.9828,1531.9358,497.299,1526.6196,495.3655,1534.05,501.83" style="stroke:#181818;stroke-width:1.0;"/></g><!--link CreateShowProposalController to CustomerRepository--><g id="link_CreateShowProposalController_CustomerRepository"><path codeLine="197" d="M1213.86,340.84 C1020.64,386.67 770.5,446 770.5,446 C770.5,446 674.5311,812.246 644.6311,926.336 " fill="none" id="CreateShowProposalController-to-CustomerRepository" style="stroke:#181818;stroke-width:1.0;"/><polygon fill="#181818" points="643.11,932.14,649.2609,924.4481,644.3776,927.3033,641.5223,922.42,643.11,932.14" style="stroke:#181818;stroke-width:1.0;"/></g><!--link CreateShowProposalController to ProposalTemplateRepository--><g id="link_CreateShowProposalController_ProposalTemplateRepository"><path codeLine="198" d="M1213.89,336.83 C1002.54,383.12 715.5,446 715.5,446 C715.5,446 440.5,703 440.5,703 C440.5,703 327.7991,833.0854 261.7391,909.3254 " fill="none" id="CreateShowProposalController-to-ProposalTemplateRepository" style="stroke:#181818;stroke-width:1.0;"/><polygon fill="#181818" points="257.81,913.86,266.7267,909.6775,261.0842,910.0812,260.6806,904.4388,257.81,913.86" style="stroke:#181818;stroke-width:1.0;"/></g><!--link CreateShowProposalController to ShowProposal--><g id="link_CreateShowProposalController_ShowProposal"><path codeLine="199" d="M1382.5,386.01 C1365.31,418.23 1350.5,446 1350.5,446 C1350.5,446 1279.5,643 1279.5,643 C1279.5,643 1266.9166,662.3872 1243.9466,697.7772 " fill="none" id="CreateShowProposalController-to-ShowProposal" style="stroke:#181818;stroke-width:1.0;stroke-dasharray:7.0,7.0;"/><polygon fill="#181818" points="1240.68,702.81,1248.9351,697.4385,1243.4022,698.616,1242.2246,693.083,1240.68,702.81" style="stroke:#181818;stroke-width:1.0;"/></g><!--link CreateShowProposalController to ShowProposalDTO--><g id="link_CreateShowProposalController_ShowProposalDTO"><path codeLine="200" d="M1633.23,386.01 C1698.9,418.23 1755.5,446 1755.5,446 C1755.5,446 1882.7932,998.6531 1954.0232,1307.8931 " fill="none" id="CreateShowProposalController-to-ShowProposalDTO" style="stroke:#181818;stroke-width:1.0;stroke-dasharray:7.0,7.0;"/><polygon fill="#181818" points="1955.37,1313.74,1957.2478,1304.0718,1954.2477,1308.8676,1949.4519,1305.8675,1955.37,1313.74" style="stroke:#181818;stroke-width:1.0;"/></g><!--link CreateShowProposalController to ShowRequestDTO--><g id="link_CreateShowProposalController_ShowRequestDTO"><path codeLine="201" d="M1655.07,382.39 C1734.31,416.12 1804.5,446 1804.5,446 C1804.5,446 2225.5,1289 2225.5,1289 C2225.5,1289 2245.4877,1672.4281 2255.5977,1866.3781 " fill="none" id="CreateShowProposalController-to-ShowRequestDTO" style="stroke:#181818;stroke-width:1.0;stroke-dasharray:7.0,7.0;"/><polygon fill="#181818" points="2255.91,1872.37,2259.4361,1863.174,2255.6497,1867.3768,2251.4469,1863.5904,2255.91,1872.37" style="stroke:#181818;stroke-width:1.0;"/></g><!--link ShowProposal to Customer--><g id="link_ShowProposal_Customer"><path codeLine="203" d="M1150.3,1229.19 C1161.07,1264.58 1168.5,1289 1168.5,1289 C1168.5,1289 1184.2078,1590.1981 1194.8678,1794.7881 " fill="none" id="ShowProposal-to-Customer" style="stroke:#181818;stroke-width:1.0;"/><polygon fill="#181818" points="1195.18,1800.78,1198.7063,1791.5841,1194.9198,1795.7868,1190.7171,1792.0003,1195.18,1800.78" style="stroke:#181818;stroke-width:1.0;"/><text fill="#000000" font-family="sans-serif" font-size="13" lengthAdjust="spacing" textLength="7.23" x="1187.6344" y="1789.8841">1</text></g><!--link ShowProposal to ShowRequest--><g id="link_ShowProposal_ShowRequest"><path codeLine="204" d="M1280.52,1229.29 C1296.44,1249.16 1308.6698,1264.4364 1324.3798,1284.0564 " fill="none" id="ShowProposal-to-ShowRequest" style="stroke:#181818;stroke-width:1.0;"/><polygon fill="#181818" points="1328.13,1288.74,1325.6271,1279.2145,1325.0048,1284.837,1319.3823,1284.2148,1328.13,1288.74" style="stroke:#181818;stroke-width:1.0;"/><text fill="#000000" font-family="sans-serif" font-size="13" lengthAdjust="spacing" textLength="7.23" x="1315.0971" y="1278.0762">1</text></g><!--link ShowProposal to ProposalTemplate--><g id="link_ShowProposal_ProposalTemplate"><path codeLine="205" d="M849.13,1206.66 C836.31,1220.54 828.5,1229 828.5,1229 C828.5,1229 442.5,1289 442.5,1289 C442.5,1289 359.935,1368.3913 292.045,1433.6713 " fill="none" id="ShowProposal-to-ProposalTemplate" style="stroke:#181818;stroke-width:1.0;"/><polygon fill="#181818" points="287.72,1437.83,296.9799,1434.4753,291.3241,1434.3644,291.435,1428.7087,287.72,1437.83" style="stroke:#181818;stroke-width:1.0;"/><text fill="#000000" font-family="sans-serif" font-size="13" lengthAdjust="spacing" textLength="7.23" x="287.9279" y="1426.7217">1</text></g><!--link ShowProposal to Coordinates--><g id="link_ShowProposal_Coordinates"><path codeLine="206" d="M937.68,1229.29 C899.08,1305.51 862.601,1377.5474 834.841,1432.3574 " fill="none" id="ShowProposal-to-Coordinates" style="stroke:#181818;stroke-width:1.0;"/><polygon fill="#181818" points="832.13,1437.71,839.7649,1431.4884,834.3892,1433.2495,832.6281,1427.8737,832.13,1437.71" style="stroke:#181818;stroke-width:1.0;"/><text fill="#000000" font-family="sans-serif" font-size="13" lengthAdjust="spacing" textLength="7.23" x="828.3718" y="1426.8574">1</text></g><!--link ShowProposal to ShowProposalStatus--><g id="link_ShowProposal_ShowProposalStatus"><path codeLine="207" d="M1070.5,1229.29 C1070.5,1304.14 1070.5,1374.11 1070.5,1428.73 " fill="none" id="ShowProposal-to-ShowProposalStatus" style="stroke:#181818;stroke-width:1.0;"/><polygon fill="#181818" points="1070.5,1434.73,1074.5,1425.73,1070.5,1429.73,1066.5,1425.73,1070.5,1434.73" style="stroke:#181818;stroke-width:1.0;"/><text fill="#000000" font-family="sans-serif" font-size="13" lengthAdjust="spacing" textLength="7.23" x="1063.1896" y="1423.6009">1</text></g><!--link ShowProposal to SimulationStatus--><g id="link_ShowProposal_SimulationStatus"><path codeLine="208" d="M849.13,1206.66 C836.31,1220.54 828.5,1229 828.5,1229 C828.5,1229 614.5,1289 614.5,1289 C614.5,1289 575.5328,1390.9557 550.1528,1457.3357 " fill="none" id="ShowProposal-to-SimulationStatus" style="stroke:#181818;stroke-width:1.0;"/><polygon fill="#181818" points="548.01,1462.94,554.9604,1455.962,549.7957,1458.2697,547.488,1453.105,548.01,1462.94" style="stroke:#181818;stroke-width:1.0;"/><text fill="#000000" font-family="sans-serif" font-size="13" lengthAdjust="spacing" textLength="7.23" x="543.1731" y="1451.8593">1</text></g><!--link ShowProposal to ShowProposalDTO--><g id="link_ShowProposal_ShowProposalDTO"><path codeLine="209" d="M1291.95,1068 C1498.99,1162.43 1776.5,1289 1776.5,1289 C1776.5,1289 1781.8974,1294.3974 1797.1974,1309.6974 " fill="none" id="ShowProposal-to-ShowProposalDTO" style="stroke:#181818;stroke-width:1.0;stroke-dasharray:7.0,7.0;"/><polygon fill="#181818" points="1801.44,1313.94,1797.9045,1304.7476,1797.9045,1310.4045,1792.2476,1310.4045,1801.44,1313.94" style="stroke:#181818;stroke-width:1.0;"/></g><!--link ShowRequest to Customer--><g id="link_ShowRequest_Customer"><path codeLine="211" d="M1360.73,1741.3 C1347.66,1761.23 1337.8306,1776.2129 1325.0606,1795.6829 " fill="none" id="ShowRequest-to-Customer" style="stroke:#181818;stroke-width:1.0;"/><polygon fill="#181818" points="1321.77,1800.7,1330.0507,1795.3681,1324.5122,1796.5191,1323.3612,1790.9805,1321.77,1800.7" style="stroke:#181818;stroke-width:1.0;"/><text fill="#000000" font-family="sans-serif" font-size="13" lengthAdjust="spacing" textLength="7.23" x="1319.565" y="1789.8007">1</text></g><!--link ShowRequest to ShowRequestDTO--><g id="link_ShowRequest_ShowRequestDTO"><path codeLine="212" d="M1759.85,1726.24 C1770.93,1735.51 1777.5,1741 1777.5,1741 C1777.5,1741 1910.2279,1806.4081 2038.8979,1869.8081 " fill="none" id="ShowRequest-to-ShowRequestDTO" style="stroke:#181818;stroke-width:1.0;stroke-dasharray:7.0,7.0;"/><polygon fill="#181818" points="2044.28,1872.46,2037.9748,1864.894,2039.7949,1870.25,2034.4389,1872.0702,2044.28,1872.46" style="stroke:#181818;stroke-width:1.0;"/></g><!--link Customer to CustomerType--><g id="link_Customer_CustomerType"><path codeLine="214" d="M1204.5,2160.02 C1204.5,2182.17 1204.5,2196.92 1204.5,2213.82 " fill="none" id="Customer-to-CustomerType" style="stroke:#181818;stroke-width:1.0;"/><polygon fill="#181818" points="1204.5,2219.82,1208.5,2210.82,1204.5,2214.82,1200.5,2210.82,1204.5,2219.82" style="stroke:#181818;stroke-width:1.0;"/><text fill="#000000" font-family="sans-serif" font-size="13" lengthAdjust="spacing" textLength="7.23" x="1196.9759" y="2208.6954">1</text></g><!--link ProposalTemplate to ProposalTemplateDTO--><g id="link_ProposalTemplate_ProposalTemplateDTO"><path codeLine="216" d="M208.5,1592.02 C208.5,1686.91 208.5,1840.65 208.5,1922.21 " fill="none" id="ProposalTemplate-to-ProposalTemplateDTO" style="stroke:#181818;stroke-width:1.0;stroke-dasharray:7.0,7.0;"/><polygon fill="#181818" points="208.5,1928.21,212.5,1919.21,208.5,1923.21,204.5,1919.21,208.5,1928.21" style="stroke:#181818;stroke-width:1.0;"/></g><!--link ShowProposalRepository to ShowProposal--><g id="link_ShowProposalRepository_ShowProposal"><path codeLine="218" d="M1035.97,643.06 C1037.95,661.58 1039.4812,675.7841 1041.7212,696.7041 " fill="none" id="ShowProposalRepository-to-ShowProposal" style="stroke:#181818;stroke-width:1.0;stroke-dasharray:7.0,7.0;"/><polygon fill="#181818" points="1042.36,702.67,1045.3791,693.2953,1041.8277,697.6984,1037.4245,694.147,1042.36,702.67" style="stroke:#181818;stroke-width:1.0;"/></g><!--link ShowRequestRepository to ShowRequest--><g id="link_ShowRequestRepository_ShowRequest"><path codeLine="219" d="M1551.57,587.12 C1546.03,706.19 1530.1186,1048.7265 1519.2386,1282.8065 " fill="none" id="ShowRequestRepository-to-ShowRequest" style="stroke:#181818;stroke-width:1.0;stroke-dasharray:7.0,7.0;"/><polygon fill="#181818" points="1518.96,1288.8,1523.3736,1279.9954,1519.1921,1283.8054,1515.3822,1279.624,1518.96,1288.8" style="stroke:#181818;stroke-width:1.0;"/></g><!--link CustomerRepository to Customer--><g id="link_CustomerRepository_Customer"><path codeLine="220" d="M615.03,999.65 C566.22,1081.51 442.5,1289 442.5,1289 C442.5,1289 442.5,1741 442.5,1741 C442.5,1741 708.2839,1824.1878 927.1739,1892.6978 " fill="none" id="CustomerRepository-to-Customer" style="stroke:#181818;stroke-width:1.0;stroke-dasharray:7.0,7.0;"/><polygon fill="#181818" points="932.9,1894.49,925.5057,1887.9843,928.1283,1892.9965,923.1161,1895.6191,932.9,1894.49" style="stroke:#181818;stroke-width:1.0;"/></g><!--link ProposalTemplateRepository to ProposalTemplate--><g id="link_ProposalTemplateRepository_ProposalTemplate"><path codeLine="221" d="M213.03,1018.46 C212.14,1115.27 210.2852,1318.8903 209.2452,1431.9903 " fill="none" id="ProposalTemplateRepository-to-ProposalTemplate" style="stroke:#181818;stroke-width:1.0;stroke-dasharray:7.0,7.0;"/><polygon fill="#181818" points="209.19,1437.99,213.2726,1429.0272,209.236,1432.9902,205.2729,1428.9536,209.19,1437.99" style="stroke:#181818;stroke-width:1.0;"/></g><!--SRC=[dLXBR-Cs4BxxLmZRmogGTj5UYg8833YsqtKHE8RjvDGB8p4s6rfqASfRPx7_lIHDIdoCb6pti8uu3yxZut0u7-iNKXqHHuVam2fMx3axu4Jm1eywoX4LBsY7D-9CSS9n8L2reov3lKSb-qggNVACQErIAAcmE1znScJqh3v67m4YuuAD7Ac2ehgU2C79KoFmec3LXhpYvEVHI5EIAST8uCsUVLrnTcGreW-BvDieaVy-9MAFfwmId56AUV8xmDoHjKYMb4oHqol9_SGOnQWokcfCfRjMReiFHofrfRNaNkD_6boBsVPUIcsy1QLd8uslTaR_7gDIEPiwbE_zpZZcMwTG8_QlKdWYVnadhqWG6HJCJwJ0rbP7mnhB7o8OFnlZOe8ZPIoFXA9r8rCqjP0muPx0D5eqtCSWUfxKgfTeGbT4qKbBmGAlRCpz9QDXXuNLlfLWksNScffQHnudspOnKV8egOKJZLedSI4mHqyKN_kP7pjfDRgJw-l9RiVnJdd7c1YFswIUa92gvERckqBox7cxoyIN9STIdKpzvI-pZW-8KBawLxysqdjMAGKhzHlaIhdkP4bz1XmRWKHJEpoN1SF5yL7kZYkvHavOiTt9k5ollUMn2LaRuDR3t7SkZ_tAVPVovAzAAVDyoeVSoT_onAfydojNnXTZgCwwcuBCiqMJe-1cWKaUbnFUJ4SdZQ17IcaE4MTDKJXfqUN0RW1Wpk5UbFwXNfGMTCrXncLiLHn89SngsN1TOkHYoHe9T4VZ3DS59qT3zj1QIXiU4MqY6DSs9TwgZOuJ5KkXHBf-EPVsW6Ik_MbWTnwRdFTQQv4m69ySy2Q7JBRQ0fkblBLFuqjREywJPx9hUBTygp_bUX0YYxy3uY-JkYrhpDmY9qRAhi0vyF8094bB6oTDjHdMf9c9cAOuQRwez6C7wfxP0CLK6oSFyftarCQgXJQ0-1YkMIAOBBCXLHLxxsZOS0sS3OcV9vt63lJzS7I0ukziUmuc45s29qcOkmUux6mfFqcVxrXXqJjbZ9UaaWorow62lIMwY2fcQhyzdkuCT1Pqm78YunNtcXmQUcafMjvWAU9ybAbYTwHw2GyrgMffHLMqHySh85qtyA-8YeJnqlNG8TseXc693jYf1crJq9kX74oEFRC3iS-7m-vfyEEU3oNz2WHotBOKUzbbOntbBKih_3KEU507BX9-WjE1v8FYOTuT1G455ZSHIw5SzahSd5ClmOEEAUIa88nQiQu9wz8fIq7wc2S_JMQpt-Q_NidcIwBp_kblsTyxLK4vA9eoWYrbrGuWPEuEQIIS0t8s_vOvBhwjZ4jgNGhnD5JYW7xocL2yGc8VrkleZUC9nw0D-KFWtffz579lmptZH0LdmBYGnLMwkrdSfjsGtFjyvWdr5kZixPAMzQ0YwqT5Mpb2JPhmXJKS903bEmDRfmmisLxhE525ixO-cJRQamnIaG917Qwfxpe6EH0ZhwHwGSg7owpdHeVLotVSczHHjmJrrIuCIVaZ4Enja3EmsyvwkksihvtkmuHlV6gDpa5xt-wEtzDXGororCZsrYxlf4V5AdjtiLBU1k_BI5IRWQLFm4reZ9YkvvFjVAR_NisNi_doqfQkvt_EfvOmcKxdA_kncNwPpnxkBEdcVgqexKRX6Rriyx3SpZTMm-raOSLNayt6aNPVaqRoSR4o1ltnS3TPArQP6CoVKO5xnZnjV6jqkWoksjxOxmd2JgHDGLNUdEtYKfVZzlPTEjLPoTzh825wxIeQUvgYhgAz4BoH2YGyeLIVMVri6c2oLrJ4fmSqhZ7Jxbm4io3v_tksiilrbia-fap_XyomjL66urdTDy-bHPc6hreeEOOEXHSQRGM6nBE-m0eLq1CIBJwwBBTMM1s1wlw1OBi5UrxOLo9y0RZRXFfw0JN4U7DMNMdG4a4FEkaAE9l-_7ayF8VkbGeV1uECpdDuD3XM_lHft3SMVfTSF1b-KmoO3xyfCp0T7fGD0_TZt72O0G4ttDxKGTd-uPSFtHG1fBfZ190XWXUyYJCkwDqdUFR3VE6Jt-E2eZHonv2WqvO88jIEMq99FJyTHGyTfGDwTenwRhu81N3z34mR0SLD7r_hra25WYmS_GS0]--></g></svg>