<svg xmlns="http://www.w3.org/2000/svg" xmlns:xlink="http://www.w3.org/1999/xlink" contentStyleType="text/css" height="1599px" preserveAspectRatio="none" style="width:2532px;height:1599px;background:#FFFFFF;" version="1.1" viewBox="0 0 2532 1599" width="2532px" zoomAndPan="magnify"><defs/><g><rect fill="#FFFFFF" height="1404.707" style="stroke:#181818;stroke-width:1.0;" width="10" x="59.0171" y="93.6211"/><rect fill="#FFFFFF" height="408.1035" style="stroke:#181818;stroke-width:1.0;" width="10" x="433.7729" y="116.9121"/><rect fill="#FFFFFF" height="245.0371" style="stroke:#181818;stroke-width:1.0;" width="10" x="433.7729" y="556.3066"/><rect fill="#FFFFFF" height="631.1113" style="stroke:#181818;stroke-width:1.0;" width="10" x="433.7729" y="867.2168"/><rect fill="#FFFFFF" height="345.5215" style="stroke:#181818;stroke-width:1.0;" width="10" x="745.6445" y="148.2031"/><rect fill="#FFFFFF" height="182.4551" style="stroke:#181818;stroke-width:1.0;" width="10" x="745.6445" y="587.5977"/><rect fill="#FFFFFF" height="42.291" style="stroke:#181818;stroke-width:1.0;" width="10" x="750.6445" y="689.4707"/><rect fill="#FFFFFF" height="502.6563" style="stroke:#181818;stroke-width:1.0;" width="10" x="745.6445" y="964.3809"/><rect fill="#FFFFFF" height="31.291" style="stroke:#181818;stroke-width:1.0;" width="10" x="1024.2207" y="1341.873"/><rect fill="#FFFFFF" height="31.291" style="stroke:#181818;stroke-width:1.0;" width="10" x="1207.7476" y="179.4941"/><rect fill="#FFFFFF" height="31.291" style="stroke:#181818;stroke-width:1.0;" width="10" x="1207.7476" y="995.6719"/><rect fill="#FFFFFF" height="31.291" style="stroke:#181818;stroke-width:1.0;" width="10" x="1207.7476" y="1279.291"/><rect fill="#FFFFFF" height="31.291" style="stroke:#181818;stroke-width:1.0;" width="10" x="1376.478" y="618.8887"/><rect fill="#FFFFFF" height="31.291" style="stroke:#181818;stroke-width:1.0;" width="10" x="1558.4326" y="1058.2539"/><rect fill="#FFFFFF" height="93.5332" style="stroke:#181818;stroke-width:1.0;" width="10" x="1720.1699" y="330.6094"/><rect fill="#FFFFFF" height="30" style="stroke:#181818;stroke-width:1.0;" width="10" x="1720.1699" y="1218"/><rect fill="#FFFFFF" height="21.291" style="stroke:#181818;stroke-width:1.0;" width="10" x="2319.4668" y="1165.418"/><rect fill="#FFFFFF" height="31.291" style="stroke:#181818;stroke-width:1.0;" width="10" x="2319.4668" y="1404.4551"/><rect fill="none" height="175.4063" style="stroke:#000000;stroke-width:1.5;" width="1493.6743" x="635.207" y="288.0273"/><line style="stroke:#181818;stroke-width:0.5;stroke-dasharray:5.0,5.0;" x1="64" x2="64" y1="83.6211" y2="1516.3281"/><line style="stroke:#181818;stroke-width:0.5;stroke-dasharray:5.0,5.0;" x1="438.6802" x2="438.6802" y1="83.6211" y2="1516.3281"/><line style="stroke:#181818;stroke-width:0.5;stroke-dasharray:5.0,5.0;" x1="750.207" x2="750.207" y1="83.6211" y2="1516.3281"/><line style="stroke:#181818;stroke-width:0.5;stroke-dasharray:5.0,5.0;" x1="1028.6797" x2="1028.6797" y1="83.6211" y2="1516.3281"/><line style="stroke:#181818;stroke-width:0.5;stroke-dasharray:5.0,5.0;" x1="1211.7617" x2="1211.7617" y1="83.6211" y2="1516.3281"/><line style="stroke:#181818;stroke-width:0.5;stroke-dasharray:5.0,5.0;" x1="1380.7334" x2="1380.7334" y1="83.6211" y2="1516.3281"/><line style="stroke:#181818;stroke-width:0.5;stroke-dasharray:5.0,5.0;" x1="1563.2227" x2="1563.2227" y1="83.6211" y2="1516.3281"/><line style="stroke:#181818;stroke-width:0.5;stroke-dasharray:5.0,5.0;" x1="1724.6426" x2="1724.6426" y1="83.6211" y2="1516.3281"/><line style="stroke:#181818;stroke-width:0.5;stroke-dasharray:5.0,5.0;" x1="1868.5308" x2="1868.5308" y1="379.7305" y2="1516.3281"/><line style="stroke:#181818;stroke-width:0.5;stroke-dasharray:5.0,5.0;" x1="2032.1372" x2="2032.1372" y1="259.9063" y2="1516.3281"/><line style="stroke:#181818;stroke-width:0.5;stroke-dasharray:5.0,5.0;" x1="2193.8813" x2="2193.8813" y1="83.6211" y2="1516.3281"/><line style="stroke:#181818;stroke-width:0.5;stroke-dasharray:5.0,5.0;" x1="2324.3843" x2="2324.3843" y1="1140.4814" y2="1516.3281"/><line style="stroke:#181818;stroke-width:0.5;stroke-dasharray:5.0,5.0;" x1="2456.5493" x2="2456.5493" y1="918.1533" y2="1516.3281"/><text fill="#000000" font-family="sans-serif" font-size="14" lengthAdjust="spacing" textLength="112.0342" x="5" y="80.1074">CRM Collaborator</text><ellipse cx="64.0171" cy="13.5" fill="#E2E2F0" rx="8" ry="8" style="stroke:#181818;stroke-width:0.5;"/><path d="M64.0171,21.5 L64.0171,48.5 M51.0171,29.5 L77.0171,29.5 M64.0171,48.5 L51.0171,63.5 M64.0171,48.5 L77.0171,63.5 " fill="none" style="stroke:#181818;stroke-width:0.5;"/><text fill="#000000" font-family="sans-serif" font-size="14" lengthAdjust="spacing" textLength="112.0342" x="5" y="1530.4355">CRM Collaborator</text><ellipse cx="64.0171" cy="1542.4492" fill="#E2E2F0" rx="8" ry="8" style="stroke:#181818;stroke-width:0.5;"/><path d="M64.0171,1550.4492 L64.0171,1577.4492 M51.0171,1558.4492 L77.0171,1558.4492 M64.0171,1577.4492 L51.0171,1592.4492 M64.0171,1577.4492 L77.0171,1592.4492 " fill="none" style="stroke:#181818;stroke-width:0.5;"/><rect fill="#E2E2F0" height="32.6211" rx="2.5" ry="2.5" style="stroke:#181818;stroke-width:0.5;" width="164.1855" x="356.6802" y="50"/><text fill="#000000" font-family="sans-serif" font-size="14" lengthAdjust="spacing" textLength="150.1855" x="363.6802" y="72.1074">:CreateShowProposalUI</text><rect fill="#E2E2F0" height="32.6211" rx="2.5" ry="2.5" style="stroke:#181818;stroke-width:0.5;" width="164.1855" x="356.6802" y="1515.3281"/><text fill="#000000" font-family="sans-serif" font-size="14" lengthAdjust="spacing" textLength="150.1855" x="363.6802" y="1537.4355">:CreateShowProposalUI</text><rect fill="#E2E2F0" height="32.6211" rx="2.5" ry="2.5" style="stroke:#181818;stroke-width:0.5;" width="210.875" x="645.207" y="50"/><text fill="#000000" font-family="sans-serif" font-size="14" lengthAdjust="spacing" textLength="196.875" x="652.207" y="72.1074">:CreateShowProposalController</text><rect fill="#E2E2F0" height="32.6211" rx="2.5" ry="2.5" style="stroke:#181818;stroke-width:0.5;" width="210.875" x="645.207" y="1515.3281"/><text fill="#000000" font-family="sans-serif" font-size="14" lengthAdjust="spacing" textLength="196.875" x="652.207" y="1537.4355">:CreateShowProposalController</text><rect fill="#E2E2F0" height="32.6211" rx="2.5" ry="2.5" style="stroke:#181818;stroke-width:0.5;" width="175.082" x="941.6797" y="50"/><text fill="#000000" font-family="sans-serif" font-size="14" lengthAdjust="spacing" textLength="161.082" x="948.6797" y="72.1074">:ShowProposalRepository</text><rect fill="#E2E2F0" height="32.6211" rx="2.5" ry="2.5" style="stroke:#181818;stroke-width:0.5;" width="175.082" x="941.6797" y="1515.3281"/><text fill="#000000" font-family="sans-serif" font-size="14" lengthAdjust="spacing" textLength="161.082" x="948.6797" y="1537.4355">:ShowProposalRepository</text><rect fill="#E2E2F0" height="32.6211" rx="2.5" ry="2.5" style="stroke:#181818;stroke-width:0.5;" width="171.9717" x="1126.7617" y="50"/><text fill="#000000" font-family="sans-serif" font-size="14" lengthAdjust="spacing" textLength="157.9717" x="1133.7617" y="72.1074">:ShowRequestRepository</text><rect fill="#E2E2F0" height="32.6211" rx="2.5" ry="2.5" style="stroke:#181818;stroke-width:0.5;" width="171.9717" x="1126.7617" y="1515.3281"/><text fill="#000000" font-family="sans-serif" font-size="14" lengthAdjust="spacing" textLength="157.9717" x="1133.7617" y="1537.4355">:ShowRequestRepository</text><rect fill="#E2E2F0" height="32.6211" rx="2.5" ry="2.5" style="stroke:#181818;stroke-width:0.5;" width="145.4893" x="1308.7334" y="50"/><text fill="#000000" font-family="sans-serif" font-size="14" lengthAdjust="spacing" textLength="131.4893" x="1315.7334" y="72.1074">:CustomerRepository</text><rect fill="#E2E2F0" height="32.6211" rx="2.5" ry="2.5" style="stroke:#181818;stroke-width:0.5;" width="145.4893" x="1308.7334" y="1515.3281"/><text fill="#000000" font-family="sans-serif" font-size="14" lengthAdjust="spacing" textLength="131.4893" x="1315.7334" y="1537.4355">:CustomerRepository</text><rect fill="#E2E2F0" height="32.6211" rx="2.5" ry="2.5" style="stroke:#181818;stroke-width:0.5;" width="198.4199" x="1464.2227" y="50"/><text fill="#000000" font-family="sans-serif" font-size="14" lengthAdjust="spacing" textLength="184.4199" x="1471.2227" y="72.1074">:ProposalTemplateRepository</text><rect fill="#E2E2F0" height="32.6211" rx="2.5" ry="2.5" style="stroke:#181818;stroke-width:0.5;" width="198.4199" x="1464.2227" y="1515.3281"/><text fill="#000000" font-family="sans-serif" font-size="14" lengthAdjust="spacing" textLength="184.4199" x="1471.2227" y="1537.4355">:ProposalTemplateRepository</text><rect fill="#E2E2F0" height="51.2422" rx="2.5" ry="2.5" style="stroke:#181818;stroke-width:0.5;" width="105.0547" x="1672.6426" y="31.3789"/><text fill="#000000" font-family="sans-serif" font-size="14" lengthAdjust="spacing" textLength="84.8271" x="1682.7563" y="53.4863">showRequest</text><text fill="#000000" font-family="sans-serif" font-size="14" lengthAdjust="spacing" textLength="91.0547" x="1679.6426" y="72.1074">:ShowRequest</text><rect fill="#E2E2F0" height="51.2422" rx="2.5" ry="2.5" style="stroke:#181818;stroke-width:0.5;" width="105.0547" x="1672.6426" y="1515.3281"/><text fill="#000000" font-family="sans-serif" font-size="14" lengthAdjust="spacing" textLength="84.8271" x="1682.7563" y="1537.4355">showRequest</text><text fill="#000000" font-family="sans-serif" font-size="14" lengthAdjust="spacing" textLength="91.0547" x="1679.6426" y="1556.0566">:ShowRequest</text><rect fill="#E2E2F0" height="51.2422" rx="2.5" ry="2.5" style="stroke:#181818;stroke-width:0.5;" width="134.6064" x="1801.5308" y="1515.3281"/><text fill="#000000" font-family="sans-serif" font-size="14" lengthAdjust="spacing" textLength="114.3789" x="1811.6445" y="1537.4355">showRequestDTO</text><text fill="#000000" font-family="sans-serif" font-size="14" lengthAdjust="spacing" textLength="120.6064" x="1808.5308" y="1556.0566">:ShowRequestDTO</text><rect fill="#E2E2F0" height="51.2422" rx="2.5" ry="2.5" style="stroke:#181818;stroke-width:0.5;" width="172.7441" x="1946.1372" y="1515.3281"/><text fill="#000000" font-family="sans-serif" font-size="14" lengthAdjust="spacing" textLength="136.165" x="1964.4268" y="1537.4355">showRequestDTOList</text><text fill="#000000" font-family="sans-serif" font-size="14" lengthAdjust="spacing" textLength="158.7441" x="1953.1372" y="1556.0566">:List&lt;ShowRequestDTO&gt;</text><rect fill="#E2E2F0" height="51.2422" rx="2.5" ry="2.5" style="stroke:#181818;stroke-width:0.5;" width="131.5029" x="2128.8813" y="31.3789"/><text fill="#000000" font-family="sans-serif" font-size="14" lengthAdjust="spacing" textLength="112.0615" x="2138.6021" y="53.4863">proposalTemplate</text><text fill="#000000" font-family="sans-serif" font-size="14" lengthAdjust="spacing" textLength="117.5029" x="2135.8813" y="72.1074">:ProposalTemplate</text><rect fill="#E2E2F0" height="51.2422" rx="2.5" ry="2.5" style="stroke:#181818;stroke-width:0.5;" width="131.5029" x="2128.8813" y="1515.3281"/><text fill="#000000" font-family="sans-serif" font-size="14" lengthAdjust="spacing" textLength="112.0615" x="2138.6021" y="1537.4355">proposalTemplate</text><text fill="#000000" font-family="sans-serif" font-size="14" lengthAdjust="spacing" textLength="117.5029" x="2135.8813" y="1556.0566">:ProposalTemplate</text><rect fill="#E2E2F0" height="51.2422" rx="2.5" ry="2.5" style="stroke:#181818;stroke-width:0.5;" width="108.165" x="2270.3843" y="1515.3281"/><text fill="#000000" font-family="sans-serif" font-size="14" lengthAdjust="spacing" textLength="87.9375" x="2280.498" y="1537.4355">showProposal</text><text fill="#000000" font-family="sans-serif" font-size="14" lengthAdjust="spacing" textLength="94.165" x="2277.3843" y="1556.0566">:ShowProposal</text><rect fill="#E2E2F0" height="51.2422" rx="2.5" ry="2.5" style="stroke:#181818;stroke-width:0.5;" width="137.7168" x="2388.5493" y="1515.3281"/><text fill="#000000" font-family="sans-serif" font-size="14" lengthAdjust="spacing" textLength="117.4893" x="2398.6631" y="1537.4355">showProposalDTO</text><text fill="#000000" font-family="sans-serif" font-size="14" lengthAdjust="spacing" textLength="123.7168" x="2395.5493" y="1556.0566">:ShowProposalDTO</text><rect fill="#FFFFFF" height="1404.707" style="stroke:#181818;stroke-width:1.0;" width="10" x="59.0171" y="93.6211"/><rect fill="#FFFFFF" height="408.1035" style="stroke:#181818;stroke-width:1.0;" width="10" x="433.7729" y="116.9121"/><rect fill="#FFFFFF" height="245.0371" style="stroke:#181818;stroke-width:1.0;" width="10" x="433.7729" y="556.3066"/><rect fill="#FFFFFF" height="631.1113" style="stroke:#181818;stroke-width:1.0;" width="10" x="433.7729" y="867.2168"/><rect fill="#FFFFFF" height="345.5215" style="stroke:#181818;stroke-width:1.0;" width="10" x="745.6445" y="148.2031"/><rect fill="#FFFFFF" height="182.4551" style="stroke:#181818;stroke-width:1.0;" width="10" x="745.6445" y="587.5977"/><rect fill="#FFFFFF" height="42.291" style="stroke:#181818;stroke-width:1.0;" width="10" x="750.6445" y="689.4707"/><rect fill="#FFFFFF" height="502.6563" style="stroke:#181818;stroke-width:1.0;" width="10" x="745.6445" y="964.3809"/><rect fill="#FFFFFF" height="31.291" style="stroke:#181818;stroke-width:1.0;" width="10" x="1024.2207" y="1341.873"/><rect fill="#FFFFFF" height="31.291" style="stroke:#181818;stroke-width:1.0;" width="10" x="1207.7476" y="179.4941"/><rect fill="#FFFFFF" height="31.291" style="stroke:#181818;stroke-width:1.0;" width="10" x="1207.7476" y="995.6719"/><rect fill="#FFFFFF" height="31.291" style="stroke:#181818;stroke-width:1.0;" width="10" x="1207.7476" y="1279.291"/><rect fill="#FFFFFF" height="31.291" style="stroke:#181818;stroke-width:1.0;" width="10" x="1376.478" y="618.8887"/><rect fill="#FFFFFF" height="31.291" style="stroke:#181818;stroke-width:1.0;" width="10" x="1558.4326" y="1058.2539"/><rect fill="#FFFFFF" height="93.5332" style="stroke:#181818;stroke-width:1.0;" width="10" x="1720.1699" y="330.6094"/><rect fill="#FFFFFF" height="30" style="stroke:#181818;stroke-width:1.0;" width="10" x="1720.1699" y="1218"/><rect fill="#FFFFFF" height="21.291" style="stroke:#181818;stroke-width:1.0;" width="10" x="2319.4668" y="1165.418"/><rect fill="#FFFFFF" height="31.291" style="stroke:#181818;stroke-width:1.0;" width="10" x="2319.4668" y="1404.4551"/><polygon fill="#181818" points="421.7729,112.9121,431.7729,116.9121,421.7729,120.9121,425.7729,116.9121" style="stroke:#181818;stroke-width:1.0;"/><line style="stroke:#181818;stroke-width:1.0;" x1="69.0171" x2="427.7729" y1="116.9121" y2="116.9121"/><text fill="#000000" font-family="sans-serif" font-size="13" font-weight="bold" lengthAdjust="spacing" textLength="7.23" x="76.0171" y="111.6494">1</text><text fill="#000000" font-family="sans-serif" font-size="13" lengthAdjust="spacing" textLength="206.667" x="87.2471" y="111.6494">asks to create a new show proposal</text><polygon fill="#181818" points="733.6445,144.2031,743.6445,148.2031,733.6445,152.2031,737.6445,148.2031" style="stroke:#181818;stroke-width:1.0;"/><line style="stroke:#181818;stroke-width:1.0;" x1="443.7729" x2="739.6445" y1="148.2031" y2="148.2031"/><text fill="#000000" font-family="sans-serif" font-size="13" font-weight="bold" lengthAdjust="spacing" textLength="7.23" x="450.7729" y="142.9404">2</text><text fill="#000000" font-family="sans-serif" font-size="13" lengthAdjust="spacing" textLength="111.9854" x="462.0029" y="142.9404">listShowRequests()</text><polygon fill="#181818" points="1195.7476,175.4941,1205.7476,179.4941,1195.7476,183.4941,1199.7476,179.4941" style="stroke:#181818;stroke-width:1.0;"/><line style="stroke:#181818;stroke-width:1.0;" x1="755.6445" x2="1201.7476" y1="179.4941" y2="179.4941"/><text fill="#000000" font-family="sans-serif" font-size="13" font-weight="bold" lengthAdjust="spacing" textLength="7.23" x="762.6445" y="174.2314">3</text><text fill="#000000" font-family="sans-serif" font-size="13" lengthAdjust="spacing" textLength="44.0654" x="773.8745" y="174.2314">findAll()</text><polygon fill="#181818" points="766.6445,206.7852,756.6445,210.7852,766.6445,214.7852,762.6445,210.7852" style="stroke:#181818;stroke-width:1.0;"/><line style="stroke:#181818;stroke-width:1.0;stroke-dasharray:2.0,2.0;" x1="760.6445" x2="1211.7476" y1="210.7852" y2="210.7852"/><text fill="#000000" font-family="sans-serif" font-size="13" font-weight="bold" lengthAdjust="spacing" textLength="7.23" x="772.6445" y="205.5225">4</text><text fill="#000000" font-family="sans-serif" font-size="13" lengthAdjust="spacing" textLength="85.2681" x="783.8745" y="205.5225">showRequests</text><polygon fill="#181818" points="1934.1372,238.0762,1944.1372,242.0762,1934.1372,246.0762,1938.1372,242.0762" style="stroke:#181818;stroke-width:1.0;"/><line style="stroke:#181818;stroke-width:1.0;" x1="755.6445" x2="1940.1372" y1="242.0762" y2="242.0762"/><text fill="#000000" font-family="sans-serif" font-size="13" font-weight="bold" lengthAdjust="spacing" textLength="7.23" x="762.6445" y="236.8135">5</text><text fill="#000000" font-family="sans-serif" font-size="13" lengthAdjust="spacing" textLength="102.5908" x="773.8745" y="236.8135">new ArrayList&lt;&gt;()</text><rect fill="#E2E2F0" height="51.2422" rx="2.5" ry="2.5" style="stroke:#181818;stroke-width:0.5;" width="172.7441" x="1946.1372" y="218.7852"/><text fill="#000000" font-family="sans-serif" font-size="14" lengthAdjust="spacing" textLength="136.165" x="1964.4268" y="240.8926">showRequestDTOList</text><text fill="#000000" font-family="sans-serif" font-size="14" lengthAdjust="spacing" textLength="158.7441" x="1953.1372" y="259.5137">:List&lt;ShowRequestDTO&gt;</text><path d="M635.207,288.0273 L707.6416,288.0273 L707.6416,297.3184 L697.6416,307.3184 L635.207,307.3184 L635.207,288.0273 " fill="#EEEEEE" style="stroke:#000000;stroke-width:1.5;"/><rect fill="none" height="175.4063" style="stroke:#000000;stroke-width:1.5;" width="1493.6743" x="635.207" y="288.0273"/><text fill="#000000" font-family="sans-serif" font-size="13" font-weight="bold" lengthAdjust="spacing" textLength="27.4346" x="650.207" y="303.0557">loop</text><text fill="#000000" font-family="sans-serif" font-size="11" font-weight="bold" lengthAdjust="spacing" textLength="124.6846" x="722.6416" y="301.8975">[for each showRequest]</text><polygon fill="#181818" points="1708.1699,326.6094,1718.1699,330.6094,1708.1699,334.6094,1712.1699,330.6094" style="stroke:#181818;stroke-width:1.0;"/><line style="stroke:#181818;stroke-width:1.0;" x1="755.6445" x2="1714.1699" y1="330.6094" y2="330.6094"/><text fill="#000000" font-family="sans-serif" font-size="13" font-weight="bold" lengthAdjust="spacing" textLength="7.23" x="762.6445" y="325.3467">6</text><text fill="#000000" font-family="sans-serif" font-size="13" lengthAdjust="spacing" textLength="46.9409" x="773.8745" y="325.3467">toDTO()</text><polygon fill="#181818" points="1789.5308,357.9004,1799.5308,361.9004,1789.5308,365.9004,1793.5308,361.9004" style="stroke:#181818;stroke-width:1.0;"/><line style="stroke:#181818;stroke-width:1.0;stroke-dasharray:2.0,2.0;" x1="1730.1699" x2="1795.5308" y1="361.9004" y2="361.9004"/><text fill="#000000" font-family="sans-serif" font-size="13" font-weight="bold" lengthAdjust="spacing" textLength="7.23" x="1737.1699" y="356.6377">7</text><text fill="#000000" font-family="sans-serif" font-size="13" lengthAdjust="spacing" textLength="36.1309" x="1748.3999" y="356.6377">create</text><rect fill="#E2E2F0" height="51.2422" rx="2.5" ry="2.5" style="stroke:#181818;stroke-width:0.5;" width="134.6064" x="1801.5308" y="338.6094"/><text fill="#000000" font-family="sans-serif" font-size="14" lengthAdjust="spacing" textLength="114.3789" x="1811.6445" y="360.7168">showRequestDTO</text><text fill="#000000" font-family="sans-serif" font-size="14" lengthAdjust="spacing" textLength="120.6064" x="1808.5308" y="379.3379">:ShowRequestDTO</text><polygon fill="#181818" points="766.6445,420.1426,756.6445,424.1426,766.6445,428.1426,762.6445,424.1426" style="stroke:#181818;stroke-width:1.0;"/><line style="stroke:#181818;stroke-width:1.0;stroke-dasharray:2.0,2.0;" x1="760.6445" x2="1724.1699" y1="424.1426" y2="424.1426"/><text fill="#000000" font-family="sans-serif" font-size="13" font-weight="bold" lengthAdjust="spacing" textLength="7.23" x="772.6445" y="418.8799">8</text><text fill="#000000" font-family="sans-serif" font-size="13" lengthAdjust="spacing" textLength="106.209" x="783.8745" y="418.8799">showRequestDTO</text><polygon fill="#181818" points="2020.5093,451.4336,2030.5093,455.4336,2020.5093,459.4336,2024.5093,455.4336" style="stroke:#181818;stroke-width:1.0;"/><line style="stroke:#181818;stroke-width:1.0;" x1="755.6445" x2="2026.5093" y1="455.4336" y2="455.4336"/><text fill="#000000" font-family="sans-serif" font-size="13" font-weight="bold" lengthAdjust="spacing" textLength="7.23" x="762.6445" y="450.1709">9</text><text fill="#000000" font-family="sans-serif" font-size="13" lengthAdjust="spacing" textLength="136.5571" x="773.8745" y="450.1709">add(showRequestDTO)</text><polygon fill="#181818" points="454.7729,489.7246,444.7729,493.7246,454.7729,497.7246,450.7729,493.7246" style="stroke:#181818;stroke-width:1.0;"/><line style="stroke:#181818;stroke-width:1.0;stroke-dasharray:2.0,2.0;" x1="448.7729" x2="749.6445" y1="493.7246" y2="493.7246"/><text fill="#000000" font-family="sans-serif" font-size="13" font-weight="bold" lengthAdjust="spacing" textLength="14.46" x="460.7729" y="488.4619">10</text><text fill="#000000" font-family="sans-serif" font-size="13" lengthAdjust="spacing" textLength="126.439" x="479.2329" y="488.4619">showRequestDTOList</text><polygon fill="#181818" points="80.0171,521.0156,70.0171,525.0156,80.0171,529.0156,76.0171,525.0156" style="stroke:#181818;stroke-width:1.0;"/><line style="stroke:#181818;stroke-width:1.0;stroke-dasharray:2.0,2.0;" x1="74.0171" x2="437.7729" y1="525.0156" y2="525.0156"/><text fill="#000000" font-family="sans-serif" font-size="13" font-weight="bold" lengthAdjust="spacing" textLength="14.46" x="86.0171" y="519.7529">11</text><text fill="#000000" font-family="sans-serif" font-size="13" lengthAdjust="spacing" textLength="322.2959" x="104.4771" y="519.7529">displays available show requests and asks to select one</text><polygon fill="#181818" points="421.7729,552.3066,431.7729,556.3066,421.7729,560.3066,425.7729,556.3066" style="stroke:#181818;stroke-width:1.0;"/><line style="stroke:#181818;stroke-width:1.0;" x1="69.0171" x2="427.7729" y1="556.3066" y2="556.3066"/><text fill="#000000" font-family="sans-serif" font-size="13" font-weight="bold" lengthAdjust="spacing" textLength="14.46" x="76.0171" y="551.0439">12</text><text fill="#000000" font-family="sans-serif" font-size="13" lengthAdjust="spacing" textLength="132.2344" x="94.4771" y="551.0439">selects a show request</text><polygon fill="#181818" points="733.6445,583.5977,743.6445,587.5977,733.6445,591.5977,737.6445,587.5977" style="stroke:#181818;stroke-width:1.0;"/><line style="stroke:#181818;stroke-width:1.0;" x1="443.7729" x2="739.6445" y1="587.5977" y2="587.5977"/><text fill="#000000" font-family="sans-serif" font-size="13" font-weight="bold" lengthAdjust="spacing" textLength="14.46" x="450.7729" y="582.335">13</text><text fill="#000000" font-family="sans-serif" font-size="13" lengthAdjust="spacing" textLength="264.4116" x="469.2329" y="582.335">getTemplateTypeForCustomer(customerVAT)</text><polygon fill="#181818" points="1364.478,614.8887,1374.478,618.8887,1364.478,622.8887,1368.478,618.8887" style="stroke:#181818;stroke-width:1.0;"/><line style="stroke:#181818;stroke-width:1.0;" x1="755.6445" x2="1370.478" y1="618.8887" y2="618.8887"/><text fill="#000000" font-family="sans-serif" font-size="13" font-weight="bold" lengthAdjust="spacing" textLength="14.46" x="762.6445" y="613.626">14</text><text fill="#000000" font-family="sans-serif" font-size="13" lengthAdjust="spacing" textLength="148.8145" x="781.1045" y="613.626">findByVAT(customerVAT)</text><polygon fill="#181818" points="766.6445,646.1797,756.6445,650.1797,766.6445,654.1797,762.6445,650.1797" style="stroke:#181818;stroke-width:1.0;"/><line style="stroke:#181818;stroke-width:1.0;stroke-dasharray:2.0,2.0;" x1="760.6445" x2="1380.478" y1="650.1797" y2="650.1797"/><text fill="#000000" font-family="sans-serif" font-size="13" font-weight="bold" lengthAdjust="spacing" textLength="14.46" x="772.6445" y="644.917">15</text><text fill="#000000" font-family="sans-serif" font-size="13" lengthAdjust="spacing" textLength="53.46" x="791.1045" y="644.917">customer</text><line style="stroke:#181818;stroke-width:1.0;" x1="755.6445" x2="802.6445" y1="676.4707" y2="676.4707"/><line style="stroke:#181818;stroke-width:1.0;" x1="802.6445" x2="802.6445" y1="676.4707" y2="689.4707"/><line style="stroke:#181818;stroke-width:1.0;" x1="761.6445" x2="802.6445" y1="689.4707" y2="689.4707"/><polygon fill="#181818" points="771.6445,685.4707,761.6445,689.4707,771.6445,693.4707,767.6445,689.4707" style="stroke:#181818;stroke-width:1.0;"/><text fill="#000000" font-family="sans-serif" font-size="13" font-weight="bold" lengthAdjust="spacing" textLength="14.46" x="767.6445" y="671.208">16</text><text fill="#000000" font-family="sans-serif" font-size="13" lengthAdjust="spacing" textLength="226.1162" x="786.1045" y="671.208">checkTemplateForCustomer(customer)</text><line style="stroke:#181818;stroke-width:1.0;stroke-dasharray:2.0,2.0;" x1="760.6445" x2="802.6445" y1="730.7617" y2="730.7617"/><line style="stroke:#181818;stroke-width:1.0;stroke-dasharray:2.0,2.0;" x1="802.6445" x2="802.6445" y1="730.7617" y2="743.7617"/><line style="stroke:#181818;stroke-width:1.0;stroke-dasharray:2.0,2.0;" x1="755.6445" x2="802.6445" y1="743.7617" y2="743.7617"/><polygon fill="#181818" points="765.6445,739.7617,755.6445,743.7617,765.6445,747.7617,761.6445,743.7617" style="stroke:#181818;stroke-width:1.0;"/><text fill="#000000" font-family="sans-serif" font-size="13" font-weight="bold" lengthAdjust="spacing" textLength="14.46" x="767.6445" y="725.499">17</text><text fill="#000000" font-family="sans-serif" font-size="13" lengthAdjust="spacing" textLength="78.7617" x="786.1045" y="725.499">templateType</text><polygon fill="#181818" points="454.7729,766.0527,444.7729,770.0527,454.7729,774.0527,450.7729,770.0527" style="stroke:#181818;stroke-width:1.0;"/><line style="stroke:#181818;stroke-width:1.0;stroke-dasharray:2.0,2.0;" x1="448.7729" x2="749.6445" y1="770.0527" y2="770.0527"/><text fill="#000000" font-family="sans-serif" font-size="13" font-weight="bold" lengthAdjust="spacing" textLength="14.46" x="460.7729" y="764.79">18</text><text fill="#000000" font-family="sans-serif" font-size="13" lengthAdjust="spacing" textLength="78.7617" x="479.2329" y="764.79">templateType</text><polygon fill="#181818" points="80.0171,797.3438,70.0171,801.3438,80.0171,805.3438,76.0171,801.3438" style="stroke:#181818;stroke-width:1.0;"/><line style="stroke:#181818;stroke-width:1.0;stroke-dasharray:2.0,2.0;" x1="74.0171" x2="437.7729" y1="801.3438" y2="801.3438"/><text fill="#000000" font-family="sans-serif" font-size="13" font-weight="bold" lengthAdjust="spacing" textLength="14.46" x="86.0171" y="796.0811">19</text><text fill="#000000" font-family="sans-serif" font-size="13" lengthAdjust="spacing" textLength="281.8423" x="104.4771" y="796.0811">displays selected template type and request data</text><polygon fill="#181818" points="421.7729,863.2168,431.7729,867.2168,421.7729,871.2168,425.7729,867.2168" style="stroke:#181818;stroke-width:1.0;"/><line style="stroke:#181818;stroke-width:1.0;" x1="69.0171" x2="427.7729" y1="867.2168" y2="867.2168"/><text fill="#000000" font-family="sans-serif" font-size="13" font-weight="bold" lengthAdjust="spacing" textLength="14.46" x="76.0171" y="844.6631">20</text><text fill="#000000" font-family="sans-serif" font-size="13" lengthAdjust="spacing" textLength="234.8379" x="94.4771" y="827.3721">inputs proposal details (totalNumDrones,</text><text fill="#000000" font-family="sans-serif" font-size="13" lengthAdjust="spacing" textLength="172.0088" x="94.4771" y="844.6631">latitude, longitude, eventDate,</text><text fill="#000000" font-family="sans-serif" font-size="13" lengthAdjust="spacing" textLength="152.4707" x="94.4771" y="861.9541">eventHour, eventDuration)</text><polygon fill="#181818" points="2376.5493,929.0898,2386.5493,933.0898,2376.5493,937.0898,2380.5493,933.0898" style="stroke:#181818;stroke-width:1.0;"/><line style="stroke:#181818;stroke-width:1.0;" x1="443.7729" x2="2382.5493" y1="933.0898" y2="933.0898"/><text fill="#000000" font-family="sans-serif" font-size="13" font-weight="bold" lengthAdjust="spacing" textLength="14.46" x="450.7729" y="910.5361">21</text><text fill="#000000" font-family="sans-serif" font-size="13" lengthAdjust="spacing" textLength="268.0425" x="469.2329" y="893.2451">create(showRequestDTO.ID, totalNumDrones,</text><text fill="#000000" font-family="sans-serif" font-size="13" lengthAdjust="spacing" textLength="172.0088" x="469.2329" y="910.5361">latitude, longitude, eventDate,</text><text fill="#000000" font-family="sans-serif" font-size="13" lengthAdjust="spacing" textLength="152.4707" x="469.2329" y="927.8271">eventHour, eventDuration)</text><rect fill="#E2E2F0" height="51.2422" rx="2.5" ry="2.5" style="stroke:#181818;stroke-width:0.5;" width="137.7168" x="2388.5493" y="878.8477"/><text fill="#000000" font-family="sans-serif" font-size="14" lengthAdjust="spacing" textLength="117.4893" x="2398.6631" y="900.9551">showProposalDTO</text><text fill="#000000" font-family="sans-serif" font-size="14" lengthAdjust="spacing" textLength="123.7168" x="2395.5493" y="919.5762">:ShowProposalDTO</text><polygon fill="#181818" points="733.6445,960.3809,743.6445,964.3809,733.6445,968.3809,737.6445,964.3809" style="stroke:#181818;stroke-width:1.0;"/><line style="stroke:#181818;stroke-width:1.0;" x1="443.7729" x2="739.6445" y1="964.3809" y2="964.3809"/><text fill="#000000" font-family="sans-serif" font-size="13" font-weight="bold" lengthAdjust="spacing" textLength="14.46" x="450.7729" y="959.1182">22</text><text fill="#000000" font-family="sans-serif" font-size="13" lengthAdjust="spacing" textLength="237.7134" x="469.2329" y="959.1182">createShowProposal(showProposalDTO)</text><polygon fill="#181818" points="1195.7476,991.6719,1205.7476,995.6719,1195.7476,999.6719,1199.7476,995.6719" style="stroke:#181818;stroke-width:1.0;"/><line style="stroke:#181818;stroke-width:1.0;" x1="755.6445" x2="1201.7476" y1="995.6719" y2="995.6719"/><text fill="#000000" font-family="sans-serif" font-size="13" font-weight="bold" lengthAdjust="spacing" textLength="14.46" x="762.6445" y="990.4092">23</text><text fill="#000000" font-family="sans-serif" font-size="13" lengthAdjust="spacing" textLength="147.3989" x="781.1045" y="990.4092">findById(showRequestID)</text><polygon fill="#181818" points="766.6445,1022.9629,756.6445,1026.9629,766.6445,1030.9629,762.6445,1026.9629" style="stroke:#181818;stroke-width:1.0;"/><line style="stroke:#181818;stroke-width:1.0;stroke-dasharray:2.0,2.0;" x1="760.6445" x2="1211.7476" y1="1026.9629" y2="1026.9629"/><text fill="#000000" font-family="sans-serif" font-size="13" font-weight="bold" lengthAdjust="spacing" textLength="14.46" x="772.6445" y="1021.7002">24</text><text fill="#000000" font-family="sans-serif" font-size="13" lengthAdjust="spacing" textLength="78.7681" x="791.1045" y="1021.7002">showRequest</text><polygon fill="#181818" points="1546.4326,1054.2539,1556.4326,1058.2539,1546.4326,1062.2539,1550.4326,1058.2539" style="stroke:#181818;stroke-width:1.0;"/><line style="stroke:#181818;stroke-width:1.0;" x1="755.6445" x2="1552.4326" y1="1058.2539" y2="1058.2539"/><text fill="#000000" font-family="sans-serif" font-size="13" font-weight="bold" lengthAdjust="spacing" textLength="14.46" x="762.6445" y="1052.9912">25</text><text fill="#000000" font-family="sans-serif" font-size="13" lengthAdjust="spacing" textLength="140.1753" x="781.1045" y="1052.9912">ofIdentity(templateType)</text><polygon fill="#181818" points="766.6445,1085.5449,756.6445,1089.5449,766.6445,1093.5449,762.6445,1089.5449" style="stroke:#181818;stroke-width:1.0;"/><line style="stroke:#181818;stroke-width:1.0;stroke-dasharray:2.0,2.0;" x1="760.6445" x2="1562.4326" y1="1089.5449" y2="1089.5449"/><text fill="#000000" font-family="sans-serif" font-size="13" font-weight="bold" lengthAdjust="spacing" textLength="14.46" x="772.6445" y="1084.2822">26</text><text fill="#000000" font-family="sans-serif" font-size="13" lengthAdjust="spacing" textLength="49.8608" x="791.1045" y="1084.2822">template</text><polygon fill="#181818" points="2258.3843,1151.418,2268.3843,1155.418,2258.3843,1159.418,2262.3843,1155.418" style="stroke:#181818;stroke-width:1.0;"/><line style="stroke:#181818;stroke-width:1.0;" x1="755.6445" x2="2264.3843" y1="1155.418" y2="1155.418"/><text fill="#000000" font-family="sans-serif" font-size="13" font-weight="bold" lengthAdjust="spacing" textLength="14.46" x="762.6445" y="1132.8643">27</text><text fill="#000000" font-family="sans-serif" font-size="13" lengthAdjust="spacing" textLength="223.9897" x="781.1045" y="1115.5732">create(showRequest, totalNumDrones,</text><text fill="#000000" font-family="sans-serif" font-size="13" lengthAdjust="spacing" textLength="179.937" x="781.1045" y="1132.8643">eventLocation, eventDateTime,</text><text fill="#000000" font-family="sans-serif" font-size="13" lengthAdjust="spacing" textLength="142.3525" x="781.1045" y="1150.1553">eventDuration, template)</text><rect fill="#E2E2F0" height="51.2422" rx="2.5" ry="2.5" style="stroke:#181818;stroke-width:0.5;" width="108.165" x="2270.3843" y="1101.1758"/><text fill="#000000" font-family="sans-serif" font-size="14" lengthAdjust="spacing" textLength="87.9375" x="2280.498" y="1123.2832">showProposal</text><text fill="#000000" font-family="sans-serif" font-size="14" lengthAdjust="spacing" textLength="94.165" x="2277.3843" y="1141.9043">:ShowProposal</text><polygon fill="#181818" points="766.6445,1182.709,756.6445,1186.709,766.6445,1190.709,762.6445,1186.709" style="stroke:#181818;stroke-width:1.0;"/><line style="stroke:#181818;stroke-width:1.0;stroke-dasharray:2.0,2.0;" x1="760.6445" x2="2323.4668" y1="1186.709" y2="1186.709"/><text fill="#000000" font-family="sans-serif" font-size="13" font-weight="bold" lengthAdjust="spacing" textLength="14.46" x="772.6445" y="1181.4463">28</text><text fill="#000000" font-family="sans-serif" font-size="13" lengthAdjust="spacing" textLength="81.6563" x="791.1045" y="1181.4463">showProposal</text><polygon fill="#181818" points="1708.1699,1214,1718.1699,1218,1708.1699,1222,1712.1699,1218" style="stroke:#181818;stroke-width:1.0;"/><line style="stroke:#181818;stroke-width:1.0;" x1="755.6445" x2="1714.1699" y1="1218" y2="1218"/><text fill="#000000" font-family="sans-serif" font-size="13" font-weight="bold" lengthAdjust="spacing" textLength="14.46" x="762.6445" y="1212.7373">29</text><text fill="#000000" font-family="sans-serif" font-size="13" lengthAdjust="spacing" textLength="183.5234" x="781.1045" y="1212.7373">markRequestAsProposalDone()</text><polygon fill="#181818" points="1195.7476,1275.291,1205.7476,1279.291,1195.7476,1283.291,1199.7476,1279.291" style="stroke:#181818;stroke-width:1.0;"/><line style="stroke:#181818;stroke-width:1.0;" x1="755.6445" x2="1201.7476" y1="1279.291" y2="1279.291"/><text fill="#000000" font-family="sans-serif" font-size="13" font-weight="bold" lengthAdjust="spacing" textLength="14.46" x="762.6445" y="1274.0283">30</text><text fill="#000000" font-family="sans-serif" font-size="13" lengthAdjust="spacing" textLength="114.8862" x="781.1045" y="1274.0283">save(showRequest)</text><polygon fill="#181818" points="766.6445,1306.582,756.6445,1310.582,766.6445,1314.582,762.6445,1310.582" style="stroke:#181818;stroke-width:1.0;"/><line style="stroke:#181818;stroke-width:1.0;stroke-dasharray:2.0,2.0;" x1="760.6445" x2="1211.7476" y1="1310.582" y2="1310.582"/><text fill="#000000" font-family="sans-serif" font-size="13" font-weight="bold" lengthAdjust="spacing" textLength="14.46" x="772.6445" y="1305.3193">31</text><text fill="#000000" font-family="sans-serif" font-size="13" lengthAdjust="spacing" textLength="115.6289" x="791.1045" y="1305.3193">savedShowRequest</text><polygon fill="#181818" points="1012.2207,1337.873,1022.2207,1341.873,1012.2207,1345.873,1016.2207,1341.873" style="stroke:#181818;stroke-width:1.0;"/><line style="stroke:#181818;stroke-width:1.0;" x1="755.6445" x2="1018.2207" y1="1341.873" y2="1341.873"/><text fill="#000000" font-family="sans-serif" font-size="13" font-weight="bold" lengthAdjust="spacing" textLength="14.46" x="762.6445" y="1336.6104">32</text><text fill="#000000" font-family="sans-serif" font-size="13" lengthAdjust="spacing" textLength="117.7744" x="781.1045" y="1336.6104">save(showProposal)</text><polygon fill="#181818" points="766.6445,1369.1641,756.6445,1373.1641,766.6445,1377.1641,762.6445,1373.1641" style="stroke:#181818;stroke-width:1.0;"/><line style="stroke:#181818;stroke-width:1.0;stroke-dasharray:2.0,2.0;" x1="760.6445" x2="1028.2207" y1="1373.1641" y2="1373.1641"/><text fill="#000000" font-family="sans-serif" font-size="13" font-weight="bold" lengthAdjust="spacing" textLength="14.46" x="772.6445" y="1367.9014">33</text><text fill="#000000" font-family="sans-serif" font-size="13" lengthAdjust="spacing" textLength="85.998" x="791.1045" y="1367.9014">savedProposal</text><polygon fill="#181818" points="2307.4668,1400.4551,2317.4668,1404.4551,2307.4668,1408.4551,2311.4668,1404.4551" style="stroke:#181818;stroke-width:1.0;"/><line style="stroke:#181818;stroke-width:1.0;" x1="755.6445" x2="2313.4668" y1="1404.4551" y2="1404.4551"/><text fill="#000000" font-family="sans-serif" font-size="13" font-weight="bold" lengthAdjust="spacing" textLength="14.46" x="762.6445" y="1399.1924">34</text><text fill="#000000" font-family="sans-serif" font-size="13" lengthAdjust="spacing" textLength="46.9409" x="781.1045" y="1399.1924">toDTO()</text><polygon fill="#181818" points="766.6445,1431.7461,756.6445,1435.7461,766.6445,1439.7461,762.6445,1435.7461" style="stroke:#181818;stroke-width:1.0;"/><line style="stroke:#181818;stroke-width:1.0;stroke-dasharray:2.0,2.0;" x1="760.6445" x2="2323.4668" y1="1435.7461" y2="1435.7461"/><text fill="#000000" font-family="sans-serif" font-size="13" font-weight="bold" lengthAdjust="spacing" textLength="14.46" x="772.6445" y="1430.4834">35</text><text fill="#000000" font-family="sans-serif" font-size="13" lengthAdjust="spacing" textLength="109.0972" x="791.1045" y="1430.4834">showProposalDTO</text><polygon fill="#181818" points="454.7729,1463.0371,444.7729,1467.0371,454.7729,1471.0371,450.7729,1467.0371" style="stroke:#181818;stroke-width:1.0;"/><line style="stroke:#181818;stroke-width:1.0;stroke-dasharray:2.0,2.0;" x1="448.7729" x2="749.6445" y1="1467.0371" y2="1467.0371"/><text fill="#000000" font-family="sans-serif" font-size="13" font-weight="bold" lengthAdjust="spacing" textLength="14.46" x="460.7729" y="1461.7744">36</text><text fill="#000000" font-family="sans-serif" font-size="13" lengthAdjust="spacing" textLength="109.0972" x="479.2329" y="1461.7744">showProposalDTO</text><polygon fill="#181818" points="75.0171,1494.3281,65.0171,1498.3281,75.0171,1502.3281,71.0171,1498.3281" style="stroke:#181818;stroke-width:1.0;"/><line style="stroke:#181818;stroke-width:1.0;stroke-dasharray:2.0,2.0;" x1="69.0171" x2="437.7729" y1="1498.3281" y2="1498.3281"/><text fill="#000000" font-family="sans-serif" font-size="13" font-weight="bold" lengthAdjust="spacing" textLength="14.46" x="81.0171" y="1493.0654">37</text><text fill="#000000" font-family="sans-serif" font-size="13" lengthAdjust="spacing" textLength="155.3589" x="99.4771" y="1493.0654">displays operation success</text><!--SRC=[jLVRRk8m47tdAqPzMHRH_O1gLOa2gqMY2mjXdofLRc8W8jXPsw7At-_auc0xJg5gDo-vC7DyPdp6CtoHXvYbH90Z73dZuLxm8mKbCjex_vAIy41sTAtoX8AWeI9ibvW6SayY_Xgp7Mn98cclHpB5MNPyeGAVGyK5t8nNZp3cIK9Uk23uvGQ8XF5YFXyzz115nM6S4gRWvcuiA55qlUUlIy5JBacocPNMczb5op5dIk0gjCOFLdF7nxHUKRp5I2OlhPUhnNAn7isVLzFbmkEsedypAfNZjPh-tapNWSzfd4c5-HIEntZZDzUq0dfC4mpCSGkcZylvA9XwNEMPtHCpkPeCErqcmSBsmWzMQFZ-blCyBfSjRjzjb7iNvda-SucaJjI8v2R22h_DH9lNGUXNQq-xlSxH6rzAtqZnKhxn2JbehVO0h-ePRkzHat27jWS9YaDOwX48CFeAnHgWWokz6YWKCjGN-YDAeLF4IJ23HW9b_sjZTwPHI1gCg_H535E7YBMDMJHA4WF2Wh5K2yvbGTsU-HdRBYsdY5u6jbxgJBMKyLPWsWY95FaT2K7oKdFtJf3MIy9v2biyWP3YteoW5RMp7YwZEAxfWFkos38mabZcpmXXC43WAloBRksq5vNeUhIJtpAv5AkPMn95VNj5Em6KHTtPhd1rNRIFYPw7jANeeXwAoAi2kuCebdW4v1B8YSJOFB03bOKbQXa2OL5JVv8cs9s0iogrnXfOSRx2hHmGn0AzhbXtLEdpASXJ-eCBVTptm_hXpoXuJmKtVQ4ktuSS0VnWDk2cgv3FY8QSD61N1VlX6f9uHumz3GywV5_eNLJziJUuoiXe9xzEZ79FlH3lbbkb31erSA0GhrHRhHA8Y29NwWm7fGnbfhi1UYXKiuI-ueealxBZHA1evH2U6AuLgooYGpovsAv-f2VAr0GNA2pAbvyy4_fxXWDLpDdN2xh5TZOOwBF7AV5liyaGFfzCgsZ2riJMTthn1rlUGpwpZg_Pv3yrmAlwdvUrDSSXAD_E8inShFA-gTqEtlOKw1AtiGtc6hcBjWthwzND9EMBIVy8Fdtvb5MAPSx3KYo6feBuUDQL5jEmeT-H52-tucfuEPkuDESoJpeQmDxR4yAHY4CTvKWsAiOWBynTlNSqy0wrItAoilofEaViQFqPOhV-KvciTR8kxAYVjutg4hzsSw-WtJ44VbnuxY1tfVRCoSe7vVQvousEfxGgCf1P658fVItDXAt-1lq3]--></g></svg>