<svg xmlns="http://www.w3.org/2000/svg" xmlns:xlink="http://www.w3.org/1999/xlink" contentStyleType="text/css" height="887px" preserveAspectRatio="none" style="width:707px;height:887px;background:#FFFFFF;" version="1.1" viewBox="0 0 707 887" width="707px" zoomAndPan="magnify"><defs/><g><!--class FigureCategory--><g id="elem_FigureCategory"><rect codeLine="9" fill="#F1F1F1" height="162.4075" id="FigureCategory" rx="2.5" ry="2.5" style="stroke:#181818;stroke-width:0.5;" width="334.5588" x="14.5" y="718"/><ellipse cx="126.7936" cy="734" fill="#ADD1B2" rx="11" ry="11" style="stroke:#181818;stroke-width:1.0;"/><path d="M126.2623,740.9219 Q124.5123,740.9219 123.3717,740.1875 Q122.2467,739.4375 121.6842,738.0938 Q121.1373,736.7344 121.1373,734.9375 Q121.1373,732.9063 121.7936,731.4531 Q122.4498,730 123.7311,729.2188 Q125.0123,728.4375 126.8873,728.4375 Q127.778,728.4375 128.4498,728.625 Q129.1217,728.7969 129.8092,729.1406 L128.9967,731.1563 Q128.3717,730.8438 127.8248,730.7188 Q127.2936,730.5938 126.8092,730.5938 Q125.6373,730.5938 124.9342,731.125 Q124.2311,731.6563 123.9342,732.6094 Q123.6373,733.5625 123.6373,734.8281 Q123.6373,736.8438 124.3561,737.8125 Q125.0748,738.7656 126.6686,738.7656 Q127.2623,738.7656 127.8873,738.6094 Q128.5123,738.4531 129.3405,738.0781 L129.3405,740.2969 Q128.6061,740.6094 127.8092,740.7656 Q127.028,740.9219 126.2623,740.9219 Z " fill="#000000"/><text fill="#000000" font-family="sans-serif" font-size="14" lengthAdjust="spacing" textLength="101.4716" x="147.2936" y="739.432">FigureCategory</text><line style="stroke:#181818;stroke-width:0.5;" x1="15.5" x2="348.0588" y1="750" y2="750"/><text fill="#000000" font-family="sans-serif" font-size="14" lengthAdjust="spacing" textLength="85.0357" x="20.5" y="768.9659">-String name</text><text fill="#000000" font-family="sans-serif" font-size="14" lengthAdjust="spacing" textLength="121.2675" x="20.5" y="788.0339">-String description</text><text fill="#000000" font-family="sans-serif" font-size="14" lengthAdjust="spacing" textLength="190.6093" x="20.5" y="807.1018">-LocalDateTime creationDate</text><text fill="#000000" font-family="sans-serif" font-size="14" lengthAdjust="spacing" textLength="205.5892" x="20.5" y="826.1697">-LocalDateTime lastEditionDate</text><text fill="#000000" font-family="sans-serif" font-size="14" lengthAdjust="spacing" textLength="111.3696" x="20.5" y="845.2376">-boolean isActive</text><line style="stroke:#181818;stroke-width:0.5;" x1="15.5" x2="348.0588" y1="853.3396" y2="853.3396"/><text fill="#000000" font-family="sans-serif" font-size="14" lengthAdjust="spacing" textLength="322.5588" x="20.5" y="872.3055">+FigureCategory(String name, String description)</text></g><!--class FigureCategoryRepository--><g id="elem_FigureCategoryRepository"><rect codeLine="20" fill="#F1F1F1" height="67.0679" id="FigureCategoryRepository" rx="2.5" ry="2.5" style="stroke:#181818;stroke-width:0.5;" width="268.311" x="48" y="464"/><ellipse cx="97.7768" cy="480" fill="#B4A7E5" rx="11" ry="11" style="stroke:#181818;stroke-width:1.0;"/><path d="M93.8081,486.5 L93.8081,484.7969 L96.1674,484.5313 L96.1674,476.3281 L93.8081,476.0625 L93.8081,474.3594 L100.9487,474.3594 L100.9487,476.0625 L98.5268,476.3281 L98.5268,484.5313 L100.9487,484.7969 L100.9487,486.5 L93.8081,486.5 Z " fill="#000000"/><text fill="#000000" font-family="sans-serif" font-size="14" font-style="italic" lengthAdjust="spacing" textLength="160.2574" x="118.2768" y="485.432">FigureCategoryRepository</text><line style="stroke:#181818;stroke-width:0.5;" x1="49" x2="315.311" y1="496" y2="496"/><line style="stroke:#181818;stroke-width:0.5;" x1="49" x2="315.311" y1="504" y2="504"/><text fill="#000000" font-family="sans-serif" font-size="14" lengthAdjust="spacing" textLength="256.311" x="54" y="522.9659">+save(FigureCategory): FigureCategory</text></g><!--class JpaFigureCategoryRepository--><g id="elem_JpaFigureCategoryRepository"><rect codeLine="24" fill="#F1F1F1" height="67.0679" id="JpaFigureCategoryRepository" rx="2.5" ry="2.5" style="stroke:#181818;stroke-width:0.5;" width="268.311" x="48" y="591"/><ellipse cx="82.8476" cy="607" fill="#ADD1B2" rx="11" ry="11" style="stroke:#181818;stroke-width:1.0;"/><path d="M82.3163,613.9219 Q80.5663,613.9219 79.4257,613.1875 Q78.3007,612.4375 77.7382,611.0938 Q77.1913,609.7344 77.1913,607.9375 Q77.1913,605.9063 77.8476,604.4531 Q78.5038,603 79.7851,602.2188 Q81.0663,601.4375 82.9413,601.4375 Q83.832,601.4375 84.5038,601.625 Q85.1757,601.7969 85.8632,602.1406 L85.0507,604.1563 Q84.4257,603.8438 83.8788,603.7188 Q83.3476,603.5938 82.8632,603.5938 Q81.6913,603.5938 80.9882,604.125 Q80.2851,604.6563 79.9882,605.6094 Q79.6913,606.5625 79.6913,607.8281 Q79.6913,609.8438 80.4101,610.8125 Q81.1288,611.7656 82.7226,611.7656 Q83.3163,611.7656 83.9413,611.6094 Q84.5663,611.4531 85.3945,611.0781 L85.3945,613.2969 Q84.6601,613.6094 83.8632,613.7656 Q83.082,613.9219 82.3163,613.9219 Z " fill="#000000"/><text fill="#000000" font-family="sans-serif" font-size="14" lengthAdjust="spacing" textLength="192.2053" x="101.2582" y="612.432">JpaFigureCategoryRepository</text><line style="stroke:#181818;stroke-width:0.5;" x1="49" x2="315.311" y1="623" y2="623"/><line style="stroke:#181818;stroke-width:0.5;" x1="49" x2="315.311" y1="631" y2="631"/><text fill="#000000" font-family="sans-serif" font-size="14" lengthAdjust="spacing" textLength="256.311" x="54" y="649.9659">+save(FigureCategory): FigureCategory</text></g><!--class InMemoryFigureCategoryRepository--><g id="elem_InMemoryFigureCategoryRepository"><rect codeLine="28" fill="#F1F1F1" height="67.0679" id="InMemoryFigureCategoryRepository" rx="2.5" ry="2.5" style="stroke:#181818;stroke-width:0.5;" width="272.3931" x="351" y="591"/><ellipse cx="366" cy="607" fill="#ADD1B2" rx="11" ry="11" style="stroke:#181818;stroke-width:1.0;"/><path d="M365.4688,613.9219 Q363.7188,613.9219 362.5781,613.1875 Q361.4531,612.4375 360.8906,611.0938 Q360.3438,609.7344 360.3438,607.9375 Q360.3438,605.9063 361,604.4531 Q361.6563,603 362.9375,602.2188 Q364.2188,601.4375 366.0938,601.4375 Q366.9844,601.4375 367.6563,601.625 Q368.3281,601.7969 369.0156,602.1406 L368.2031,604.1563 Q367.5781,603.8438 367.0313,603.7188 Q366.5,603.5938 366.0156,603.5938 Q364.8438,603.5938 364.1406,604.125 Q363.4375,604.6563 363.1406,605.6094 Q362.8438,606.5625 362.8438,607.8281 Q362.8438,609.8438 363.5625,610.8125 Q364.2813,611.7656 365.875,611.7656 Q366.4688,611.7656 367.0938,611.6094 Q367.7188,611.4531 368.5469,611.0781 L368.5469,613.2969 Q367.8125,613.6094 367.0156,613.7656 Q366.2344,613.9219 365.4688,613.9219 Z " fill="#000000"/><text fill="#000000" font-family="sans-serif" font-size="14" lengthAdjust="spacing" textLength="240.3931" x="380" y="612.432">InMemoryFigureCategoryRepository</text><line style="stroke:#181818;stroke-width:0.5;" x1="352" x2="622.3931" y1="623" y2="623"/><line style="stroke:#181818;stroke-width:0.5;" x1="352" x2="622.3931" y1="631" y2="631"/><text fill="#000000" font-family="sans-serif" font-size="14" lengthAdjust="spacing" textLength="256.311" x="357" y="649.9659">+save(FigureCategory): FigureCategory</text></g><!--class FigureCategoryService--><g id="elem_FigureCategoryService"><rect codeLine="36" fill="#F1F1F1" height="105.2038" id="FigureCategoryService" rx="2.5" ry="2.5" style="stroke:#181818;stroke-width:0.5;" width="349.7347" x="7" y="299"/><ellipse cx="103.5297" cy="315" fill="#ADD1B2" rx="11" ry="11" style="stroke:#181818;stroke-width:1.0;"/><path d="M102.9984,321.9219 Q101.2484,321.9219 100.1078,321.1875 Q98.9828,320.4375 98.4203,319.0938 Q97.8734,317.7344 97.8734,315.9375 Q97.8734,313.9063 98.5297,312.4531 Q99.1859,311 100.4672,310.2188 Q101.7484,309.4375 103.6234,309.4375 Q104.514,309.4375 105.1859,309.625 Q105.8578,309.7969 106.5453,310.1406 L105.7328,312.1563 Q105.1078,311.8438 104.5609,311.7188 Q104.0297,311.5938 103.5453,311.5938 Q102.3734,311.5938 101.6703,312.125 Q100.9672,312.6563 100.6703,313.6094 Q100.3734,314.5625 100.3734,315.8281 Q100.3734,317.8438 101.0922,318.8125 Q101.8109,319.7656 103.4047,319.7656 Q103.9984,319.7656 104.6234,319.6094 Q105.2484,319.4531 106.0765,319.0781 L106.0765,321.2969 Q105.3422,321.6094 104.5453,321.7656 Q103.764,321.9219 102.9984,321.9219 Z " fill="#000000"/><text fill="#000000" font-family="sans-serif" font-size="14" lengthAdjust="spacing" textLength="148.1754" x="124.0297" y="320.432">FigureCategoryService</text><line style="stroke:#181818;stroke-width:0.5;" x1="8" x2="355.7347" y1="331" y2="331"/><text fill="#000000" font-family="sans-serif" font-size="14" lengthAdjust="spacing" textLength="210.8252" x="13" y="349.9659">-FigureCategoryRepository repo</text><text fill="#000000" font-family="sans-serif" font-size="14" lengthAdjust="spacing" textLength="181.0333" x="13" y="369.0339">-AuthorizationService authz</text><line style="stroke:#181818;stroke-width:0.5;" x1="8" x2="355.7347" y1="377.1358" y2="377.1358"/><text fill="#000000" font-family="sans-serif" font-size="14" lengthAdjust="spacing" textLength="337.7347" x="13" y="396.1018">+registerCategory(FigureCategory): FigureCategory</text></g><!--class FigureCategoryController--><g id="elem_FigureCategoryController"><rect codeLine="44" fill="#F1F1F1" height="86.1358" id="FigureCategoryController" rx="2.5" ry="2.5" style="stroke:#181818;stroke-width:0.5;" width="350.0007" x="7" y="153"/><ellipse cx="93.9257" cy="169" fill="#ADD1B2" rx="11" ry="11" style="stroke:#181818;stroke-width:1.0;"/><path d="M93.3944,175.9219 Q91.6444,175.9219 90.5038,175.1875 Q89.3788,174.4375 88.8163,173.0938 Q88.2694,171.7344 88.2694,169.9375 Q88.2694,167.9063 88.9257,166.4531 Q89.5819,165 90.8632,164.2188 Q92.1444,163.4375 94.0194,163.4375 Q94.9101,163.4375 95.5819,163.625 Q96.2538,163.7969 96.9413,164.1406 L96.1288,166.1563 Q95.5038,165.8438 94.9569,165.7188 Q94.4257,165.5938 93.9413,165.5938 Q92.7694,165.5938 92.0663,166.125 Q91.3632,166.6563 91.0663,167.6094 Q90.7694,168.5625 90.7694,169.8281 Q90.7694,171.8438 91.4882,172.8125 Q92.2069,173.7656 93.8007,173.7656 Q94.3944,173.7656 95.0194,173.6094 Q95.6444,173.4531 96.4726,173.0781 L96.4726,175.2969 Q95.7382,175.6094 94.9413,175.7656 Q94.1601,175.9219 93.3944,175.9219 Z " fill="#000000"/><text fill="#000000" font-family="sans-serif" font-size="14" lengthAdjust="spacing" textLength="167.6494" x="114.4257" y="174.432">FigureCategoryController</text><line style="stroke:#181818;stroke-width:0.5;" x1="8" x2="356.0007" y1="185" y2="185"/><text fill="#000000" font-family="sans-serif" font-size="14" lengthAdjust="spacing" textLength="202.0472" x="13" y="203.9659">-FigureCategoryService service</text><line style="stroke:#181818;stroke-width:0.5;" x1="8" x2="356.0007" y1="212.0679" y2="212.0679"/><text fill="#000000" font-family="sans-serif" font-size="14" lengthAdjust="spacing" textLength="338.0007" x="13" y="231.0339">+addFigureCategory(String, String): FigureCategory</text></g><!--class AddFigureCategoryUI--><g id="elem_AddFigureCategoryUI"><rect codeLine="51" fill="#F1F1F1" height="86.1358" id="AddFigureCategoryUI" rx="2.5" ry="2.5" style="stroke:#181818;stroke-width:0.5;" width="251.8471" x="56" y="7"/><ellipse cx="106.3648" cy="23" fill="#ADD1B2" rx="11" ry="11" style="stroke:#181818;stroke-width:1.0;"/><path d="M105.8336,29.9219 Q104.0836,29.9219 102.9429,29.1875 Q101.8179,28.4375 101.2554,27.0938 Q100.7086,25.7344 100.7086,23.9375 Q100.7086,21.9063 101.3648,20.4531 Q102.0211,19 103.3023,18.2188 Q104.5836,17.4375 106.4586,17.4375 Q107.3492,17.4375 108.0211,17.625 Q108.6929,17.7969 109.3804,18.1406 L108.5679,20.1563 Q107.9429,19.8438 107.3961,19.7188 Q106.8648,19.5938 106.3804,19.5938 Q105.2086,19.5938 104.5054,20.125 Q103.8023,20.6563 103.5054,21.6094 Q103.2086,22.5625 103.2086,23.8281 Q103.2086,25.8438 103.9273,26.8125 Q104.6461,27.7656 106.2398,27.7656 Q106.8336,27.7656 107.4586,27.6094 Q108.0836,27.4531 108.9117,27.0781 L108.9117,29.2969 Q108.1773,29.6094 107.3804,29.7656 Q106.5992,29.9219 105.8336,29.9219 Z " fill="#000000"/><text fill="#000000" font-family="sans-serif" font-size="14" lengthAdjust="spacing" textLength="142.6175" x="126.8648" y="28.432">AddFigureCategoryUI</text><line style="stroke:#181818;stroke-width:0.5;" x1="57" x2="306.8471" y1="39" y2="39"/><text fill="#000000" font-family="sans-serif" font-size="14" lengthAdjust="spacing" textLength="239.8471" x="62" y="57.9659">-FigureCategoryController controller</text><line style="stroke:#181818;stroke-width:0.5;" x1="57" x2="306.8471" y1="66.0679" y2="66.0679"/><text fill="#000000" font-family="sans-serif" font-size="14" lengthAdjust="spacing" textLength="130.2555" x="62" y="85.0339">+doShow(): boolean</text></g><!--class AuthorizationService--><g id="elem_AuthorizationService"><rect codeLine="58" fill="#F1F1F1" height="67.0679" id="AuthorizationService" rx="2.5" ry="2.5" style="stroke:#181818;stroke-width:0.5;" width="348.5308" x="351.5" y="464"/><ellipse cx="457.8506" cy="480" fill="#B4A7E5" rx="11" ry="11" style="stroke:#181818;stroke-width:1.0;"/><path d="M453.8819,486.5 L453.8819,484.7969 L456.2412,484.5313 L456.2412,476.3281 L453.8819,476.0625 L453.8819,474.3594 L461.0225,474.3594 L461.0225,476.0625 L458.6006,476.3281 L458.6006,484.5313 L461.0225,484.7969 L461.0225,486.5 L453.8819,486.5 Z " fill="#000000"/><text fill="#000000" font-family="sans-serif" font-size="14" font-style="italic" lengthAdjust="spacing" textLength="127.3295" x="478.3506" y="485.432">AuthorizationService</text><line style="stroke:#181818;stroke-width:0.5;" x1="352.5" x2="699.0308" y1="496" y2="496"/><line style="stroke:#181818;stroke-width:0.5;" x1="352.5" x2="699.0308" y1="504" y2="504"/><text fill="#000000" font-family="sans-serif" font-size="14" lengthAdjust="spacing" textLength="336.5308" x="357.5" y="522.9659">+ensureAuthenticatedUserHasAnyOf(String...): void</text></g><!--reverse link FigureCategoryRepository to JpaFigureCategoryRepository--><g id="link_FigureCategoryRepository_JpaFigureCategoryRepository"><path codeLine="32" d="M182,549.02 C182,567.39 182,572.29 182,590.71 " fill="none" id="FigureCategoryRepository-backto-JpaFigureCategoryRepository" style="stroke:#181818;stroke-width:1.0;stroke-dasharray:7.0,7.0;"/><polygon fill="none" points="182,531.02,176,549.02,188,549.02,182,531.02" style="stroke:#181818;stroke-width:1.0;"/></g><!--reverse link FigureCategoryRepository to InMemoryFigureCategoryRepository--><g id="link_FigureCategoryRepository_InMemoryFigureCategoryRepository"><path codeLine="33" d="M277.9964,537.8439 C323.0064,556.2839 362.5,572.47 407.53,590.93 " fill="none" id="FigureCategoryRepository-backto-InMemoryFigureCategoryRepository" style="stroke:#181818;stroke-width:1.0;stroke-dasharray:7.0,7.0;"/><polygon fill="none" points="261.34,531.02,275.7217,543.396,280.271,532.2918,261.34,531.02" style="stroke:#181818;stroke-width:1.0;"/></g><!--link AddFigureCategoryUI to FigureCategoryController--><g id="link_AddFigureCategoryUI_FigureCategoryController"><path codeLine="63" d="M182,93.04 C182,111.8 182,127.86 182,146.66 " fill="none" id="AddFigureCategoryUI-to-FigureCategoryController" style="stroke:#181818;stroke-width:1.0;"/><polygon fill="#181818" points="182,152.66,186,143.66,182,147.66,178,143.66,182,152.66" style="stroke:#181818;stroke-width:1.0;"/></g><!--link FigureCategoryController to FigureCategoryService--><g id="link_FigureCategoryController_FigureCategoryService"><path codeLine="64" d="M182,239.35 C182,257.81 182,273.61 182,293 " fill="none" id="FigureCategoryController-to-FigureCategoryService" style="stroke:#181818;stroke-width:1.0;"/><polygon fill="#181818" points="182,299,186,290,182,294,178,290,182,299" style="stroke:#181818;stroke-width:1.0;"/></g><!--link FigureCategoryService to FigureCategoryRepository--><g id="link_FigureCategoryService_FigureCategoryRepository"><path codeLine="65" d="M182,404.08 C182,423.93 182,440.04 182,457.66 " fill="none" id="FigureCategoryService-to-FigureCategoryRepository" style="stroke:#181818;stroke-width:1.0;"/><polygon fill="#181818" points="182,463.66,186,454.66,182,458.66,178,454.66,182,463.66" style="stroke:#181818;stroke-width:1.0;"/></g><!--link FigureCategoryService to AuthorizationService--><g id="link_FigureCategoryService_AuthorizationService"><path codeLine="66" d="M305.22,404.08 C352.94,424.05 400.5754,443.9931 442.7854,461.6631 " fill="none" id="FigureCategoryService-to-AuthorizationService" style="stroke:#181818;stroke-width:1.0;"/><polygon fill="#181818" points="448.32,463.98,441.5627,456.8149,443.7078,462.0492,438.4735,464.1944,448.32,463.98" style="stroke:#181818;stroke-width:1.0;"/></g><!--link FigureCategoryService to FigureCategory--><g id="link_FigureCategoryService_FigureCategory"><path codeLine="67" d="M111.78,404.01 C71.96,433.22 30,464 30,464 C30,464 30,658 30,658 C30,658 56.5268,682.4351 90.4868,713.7151 " fill="none" id="FigureCategoryService-to-FigureCategory" style="stroke:#181818;stroke-width:1.0;"/><polygon fill="#181818" points="94.9,717.78,90.9901,708.7405,91.2223,714.3926,85.5702,714.6247,94.9,717.78" style="stroke:#181818;stroke-width:1.0;"/></g><!--link JpaFigureCategoryRepository to FigureCategory--><g id="link_JpaFigureCategoryRepository_FigureCategory"><path codeLine="68" d="M182,658.35 C182,675.26 182,690.69 182,711.65 " fill="none" id="JpaFigureCategoryRepository-to-FigureCategory" style="stroke:#181818;stroke-width:1.0;"/><polygon fill="#181818" points="182,717.65,186,708.65,182,712.65,178,708.65,182,717.65" style="stroke:#181818;stroke-width:1.0;"/></g><!--link InMemoryFigureCategoryRepository to FigureCategory--><g id="link_InMemoryFigureCategoryRepository_FigureCategory"><path codeLine="69" d="M429.27,658.15 C399.22,675.14 366.2624,693.786 328.9424,714.896 " fill="none" id="InMemoryFigureCategoryRepository-to-FigureCategory" style="stroke:#181818;stroke-width:1.0;"/><polygon fill="#181818" points="323.72,717.85,333.523,716.9005,328.072,715.3883,329.5843,709.9373,323.72,717.85" style="stroke:#181818;stroke-width:1.0;"/></g><!--SRC=[hLJDRjim3BxhANHRYYv1pyCsmEWwDCE60VFw0Ap4E49boP2K5CwsfzcXfvs6FO5VRFGld4HEUgXXm9RuaTz7YfH_KAO01palG3n0XcaeDNA78e39D38_0FmQf7rK9kChq7viqSfWA0laXTLblHZPX0Rlan2Skjy4N0fhKhL3ViNOA_wE7dvZWf8WaTUlpQi_Hjd6mXfN_b5b6uVN432phkG_6ETpdb8y4c8Wn_5QeXTE5K5Pqsn_jWBq1tBzhdBamY7KfdeZOYQsS2FL7kBUMerWkFA926gBZ7Ol3oJDHc9UHvHSi5z3ij-mi5w5wg_harGce5k1m8Ee7R9F-P9xsE9i7tFnvi2fPcghzgc05ustD5ymfvqN2ZePvktFnUAK-3EUvsGE1v6YswhgwKIdDGWwbhRX9caT_JQ8P1FMrgbTqsAzCz3chcqQXvdoTDP3spoZJ9tOQsk2ivh6pqthxK0QNLHohyYttrOJI1djvRwDJucwMuwr98UHo1oJCL8fXjzMZBJfsZxEYBERkX4P5RUfRVLK_JuQd6Zbstv4uucy1Y1TCu94o3kgm2tun9HVLrswYyM2MBTMoRrHrJNTF_GK9JXiRp9QDUonVEVpzvFPiiao77jrAR3u0HxZ9wTZx18hqhCPsAdh908_UriS-_m7]--></g></svg>