<svg xmlns="http://www.w3.org/2000/svg" xmlns:xlink="http://www.w3.org/1999/xlink" contentStyleType="text/css" height="809px" preserveAspectRatio="none" style="width:1876px;height:809px;background:#FFFFFF;" version="1.1" viewBox="0 0 1876 809" width="1876px" zoomAndPan="magnify"><defs/><g><rect fill="#FFFFFF" height="613.3962" style="stroke:#181818;stroke-width:1.0;" width="10" x="18.3089" y="94.0679"/><rect fill="#FFFFFF" height="589.6902" style="stroke:#181818;stroke-width:1.0;" width="10" x="214.5361" y="117.7739"/><rect fill="#FFFFFF" height="462.8661" style="stroke:#181818;stroke-width:1.0;" width="10" x="478.9793" y="212.892"/><rect fill="#FFFFFF" height="399.4541" style="stroke:#181818;stroke-width:1.0;" width="10" x="713.0675" y="244.598"/><rect fill="#FFFFFF" height="31.706" style="stroke:#181818;stroke-width:1.0;" width="10" x="977.8617" y="276.304"/><rect fill="#FFFFFF" height="31.706" style="stroke:#181818;stroke-width:1.0;" width="10" x="1120.6443" y="339.716"/><rect fill="#FFFFFF" height="170.512" style="stroke:#181818;stroke-width:1.0;" width="10" x="1281.3397" y="403.1281"/><rect fill="#FFFFFF" height="31.706" style="stroke:#181818;stroke-width:1.0;" width="10" x="1487.4021" y="461.5401"/><rect fill="#FFFFFF" height="31.706" style="stroke:#181818;stroke-width:1.0;" width="10" x="1727.7013" y="541.934"/><rect fill="none" height="163.512" style="stroke:#000000;stroke-width:1.5;" width="686.5177" x="1183.3801" y="418.1281"/><line style="stroke:#181818;stroke-width:0.5;stroke-dasharray:5.0,5.0;" x1="23" x2="23" y1="84.0679" y2="725.4641"/><line style="stroke:#181818;stroke-width:0.5;stroke-dasharray:5.0,5.0;" x1="219.3103" x2="219.3103" y1="84.0679" y2="725.4641"/><line style="stroke:#181818;stroke-width:0.5;stroke-dasharray:5.0,5.0;" x1="483.1546" x2="483.1546" y1="84.0679" y2="725.4641"/><line style="stroke:#181818;stroke-width:0.5;stroke-dasharray:5.0,5.0;" x1="717.9798" x2="717.9798" y1="84.0679" y2="725.4641"/><line style="stroke:#181818;stroke-width:0.5;stroke-dasharray:5.0,5.0;" x1="982.815" x2="982.815" y1="84.0679" y2="725.4641"/><line style="stroke:#181818;stroke-width:0.5;stroke-dasharray:5.0,5.0;" x1="1124.9084" x2="1124.9084" y1="84.0679" y2="725.4641"/><line style="stroke:#181818;stroke-width:0.5;stroke-dasharray:5.0,5.0;" x1="1285.3801" x2="1285.3801" y1="84.0679" y2="725.4641"/><line style="stroke:#181818;stroke-width:0.5;stroke-dasharray:5.0,5.0;" x1="1492.2994" x2="1492.2994" y1="84.0679" y2="725.4641"/><line style="stroke:#181818;stroke-width:0.5;stroke-dasharray:5.0,5.0;" x1="1732.5047" x2="1732.5047" y1="84.0679" y2="725.4641"/><text fill="#000000" font-family="sans-serif" font-size="14" lengthAdjust="spacing" textLength="30.6179" x="5" y="79.9659">User</text><ellipse cx="23.3089" cy="13.5" fill="#E2E2F0" rx="8" ry="8" style="stroke:#181818;stroke-width:0.5;"/><path d="M23.3089,21.5 L23.3089,48.5 M10.3089,29.5 L36.3089,29.5 M23.3089,48.5 L10.3089,63.5 M23.3089,48.5 L36.3089,63.5 " fill="none" style="stroke:#181818;stroke-width:0.5;"/><text fill="#000000" font-family="sans-serif" font-size="14" lengthAdjust="spacing" textLength="30.6179" x="5" y="739.4301">User</text><ellipse cx="23.3089" cy="752.032" fill="#E2E2F0" rx="8" ry="8" style="stroke:#181818;stroke-width:0.5;"/><path d="M23.3089,760.032 L23.3089,787.032 M10.3089,768.032 L36.3089,768.032 M23.3089,787.032 L10.3089,802.032 M23.3089,787.032 L36.3089,802.032 " fill="none" style="stroke:#181818;stroke-width:0.5;"/><rect fill="#E2E2F0" height="33.0679" rx="2.5" ry="2.5" style="stroke:#181818;stroke-width:0.5;" width="130.4516" x="154.3103" y="50"/><text fill="#000000" font-family="sans-serif" font-size="14" lengthAdjust="spacing" textLength="116.4516" x="161.3103" y="71.9659">FigureCategoryUI</text><rect fill="#E2E2F0" height="33.0679" rx="2.5" ry="2.5" style="stroke:#181818;stroke-width:0.5;" width="130.4516" x="154.3103" y="724.4641"/><text fill="#000000" font-family="sans-serif" font-size="14" lengthAdjust="spacing" textLength="116.4516" x="161.3103" y="746.4301">FigureCategoryUI</text><rect fill="#E2E2F0" height="33.0679" rx="2.5" ry="2.5" style="stroke:#181818;stroke-width:0.5;" width="181.6494" x="393.1546" y="50"/><text fill="#000000" font-family="sans-serif" font-size="14" lengthAdjust="spacing" textLength="167.6494" x="400.1546" y="71.9659">FigureCategoryController</text><rect fill="#E2E2F0" height="33.0679" rx="2.5" ry="2.5" style="stroke:#181818;stroke-width:0.5;" width="181.6494" x="393.1546" y="724.4641"/><text fill="#000000" font-family="sans-serif" font-size="14" lengthAdjust="spacing" textLength="167.6494" x="400.1546" y="746.4301">FigureCategoryController</text><rect fill="#E2E2F0" height="33.0679" rx="2.5" ry="2.5" style="stroke:#181818;stroke-width:0.5;" width="162.1754" x="636.9798" y="50"/><text fill="#000000" font-family="sans-serif" font-size="14" lengthAdjust="spacing" textLength="148.1754" x="643.9798" y="71.9659">FigureCategoryService</text><rect fill="#E2E2F0" height="33.0679" rx="2.5" ry="2.5" style="stroke:#181818;stroke-width:0.5;" width="162.1754" x="636.9798" y="724.4641"/><text fill="#000000" font-family="sans-serif" font-size="14" lengthAdjust="spacing" textLength="148.1754" x="643.9798" y="746.4301">FigureCategoryService</text><rect fill="#E2E2F0" height="33.0679" rx="2.5" ry="2.5" style="stroke:#181818;stroke-width:0.5;" width="150.0935" x="907.815" y="50"/><text fill="#000000" font-family="sans-serif" font-size="14" lengthAdjust="spacing" textLength="136.0935" x="914.815" y="71.9659">AuthorizationService</text><rect fill="#E2E2F0" height="33.0679" rx="2.5" ry="2.5" style="stroke:#181818;stroke-width:0.5;" width="150.0935" x="907.815" y="724.4641"/><text fill="#000000" font-family="sans-serif" font-size="14" lengthAdjust="spacing" textLength="136.0935" x="914.815" y="746.4301">AuthorizationService</text><rect fill="#E2E2F0" height="33.0679" rx="2.5" ry="2.5" style="stroke:#181818;stroke-width:0.5;" width="115.4716" x="1067.9084" y="50"/><text fill="#000000" font-family="sans-serif" font-size="14" lengthAdjust="spacing" textLength="101.4716" x="1074.9084" y="71.9659">FigureCategory</text><rect fill="#E2E2F0" height="33.0679" rx="2.5" ry="2.5" style="stroke:#181818;stroke-width:0.5;" width="115.4716" x="1067.9084" y="724.4641"/><text fill="#000000" font-family="sans-serif" font-size="14" lengthAdjust="spacing" textLength="101.4716" x="1074.9084" y="746.4301">FigureCategory</text><rect fill="#E2E2F0" height="33.0679" rx="2.5" ry="2.5" style="stroke:#181818;stroke-width:0.5;" width="185.9194" x="1193.3801" y="50"/><text fill="#000000" font-family="sans-serif" font-size="14" lengthAdjust="spacing" textLength="171.9194" x="1200.3801" y="71.9659">FigureCategoryRepository</text><rect fill="#E2E2F0" height="33.0679" rx="2.5" ry="2.5" style="stroke:#181818;stroke-width:0.5;" width="185.9194" x="1193.3801" y="724.4641"/><text fill="#000000" font-family="sans-serif" font-size="14" lengthAdjust="spacing" textLength="171.9194" x="1200.3801" y="746.4301">FigureCategoryRepository</text><rect fill="#E2E2F0" height="33.0679" rx="2.5" ry="2.5" style="stroke:#181818;stroke-width:0.5;" width="206.2053" x="1389.2994" y="50"/><text fill="#000000" font-family="sans-serif" font-size="14" lengthAdjust="spacing" textLength="192.2053" x="1396.2994" y="71.9659">JpaFigureCategoryRepository</text><rect fill="#E2E2F0" height="33.0679" rx="2.5" ry="2.5" style="stroke:#181818;stroke-width:0.5;" width="206.2053" x="1389.2994" y="724.4641"/><text fill="#000000" font-family="sans-serif" font-size="14" lengthAdjust="spacing" textLength="192.2053" x="1396.2994" y="746.4301">JpaFigureCategoryRepository</text><rect fill="#E2E2F0" height="33.0679" rx="2.5" ry="2.5" style="stroke:#181818;stroke-width:0.5;" width="254.3931" x="1605.5047" y="50"/><text fill="#000000" font-family="sans-serif" font-size="14" lengthAdjust="spacing" textLength="240.3931" x="1612.5047" y="71.9659">InMemoryFigureCategoryRepository</text><rect fill="#E2E2F0" height="33.0679" rx="2.5" ry="2.5" style="stroke:#181818;stroke-width:0.5;" width="254.3931" x="1605.5047" y="724.4641"/><text fill="#000000" font-family="sans-serif" font-size="14" lengthAdjust="spacing" textLength="240.3931" x="1612.5047" y="746.4301">InMemoryFigureCategoryRepository</text><rect fill="#FFFFFF" height="613.3962" style="stroke:#181818;stroke-width:1.0;" width="10" x="18.3089" y="94.0679"/><rect fill="#FFFFFF" height="589.6902" style="stroke:#181818;stroke-width:1.0;" width="10" x="214.5361" y="117.7739"/><rect fill="#FFFFFF" height="462.8661" style="stroke:#181818;stroke-width:1.0;" width="10" x="478.9793" y="212.892"/><rect fill="#FFFFFF" height="399.4541" style="stroke:#181818;stroke-width:1.0;" width="10" x="713.0675" y="244.598"/><rect fill="#FFFFFF" height="31.706" style="stroke:#181818;stroke-width:1.0;" width="10" x="977.8617" y="276.304"/><rect fill="#FFFFFF" height="31.706" style="stroke:#181818;stroke-width:1.0;" width="10" x="1120.6443" y="339.716"/><rect fill="#FFFFFF" height="170.512" style="stroke:#181818;stroke-width:1.0;" width="10" x="1281.3397" y="403.1281"/><rect fill="#FFFFFF" height="31.706" style="stroke:#181818;stroke-width:1.0;" width="10" x="1487.4021" y="461.5401"/><rect fill="#FFFFFF" height="31.706" style="stroke:#181818;stroke-width:1.0;" width="10" x="1727.7013" y="541.934"/><polygon fill="#181818" points="202.5361,113.7739,212.5361,117.7739,202.5361,121.7739,206.5361,117.7739" style="stroke:#181818;stroke-width:1.0;"/><line style="stroke:#181818;stroke-width:1.0;" x1="28.3089" x2="208.5361" y1="117.7739" y2="117.7739"/><text fill="#000000" font-family="sans-serif" font-size="13" lengthAdjust="spacing" textLength="153.5301" x="35.3089" y="111.9649">adicionar figure category</text><polygon fill="#181818" points="39.3089,145.4799,29.3089,149.4799,39.3089,153.4799,35.3089,149.4799" style="stroke:#181818;stroke-width:1.0;"/><line style="stroke:#181818;stroke-width:1.0;stroke-dasharray:2.0,2.0;" x1="33.3089" x2="213.5361" y1="149.4799" y2="149.4799"/><text fill="#000000" font-family="sans-serif" font-size="13" lengthAdjust="spacing" textLength="141.4271" x="45.3089" y="143.6709">pede nome e descri&#231;&#227;o</text><polygon fill="#181818" points="202.5361,177.186,212.5361,181.186,202.5361,185.186,206.5361,181.186" style="stroke:#181818;stroke-width:1.0;"/><line style="stroke:#181818;stroke-width:1.0;" x1="28.3089" x2="208.5361" y1="181.186" y2="181.186"/><text fill="#000000" font-family="sans-serif" font-size="13" lengthAdjust="spacing" textLength="162.2271" x="35.3089" y="175.377">introduz nome e descri&#231;&#227;o</text><polygon fill="#181818" points="466.9793,208.892,476.9793,212.892,466.9793,216.892,470.9793,212.892" style="stroke:#181818;stroke-width:1.0;"/><line style="stroke:#181818;stroke-width:1.0;" x1="224.5361" x2="472.9793" y1="212.892" y2="212.892"/><text fill="#000000" font-family="sans-serif" font-size="13" lengthAdjust="spacing" textLength="235.4432" x="231.5361" y="207.083">addFigureCategory(name, description)</text><polygon fill="#181818" points="701.0675,240.598,711.0675,244.598,701.0675,248.598,705.0675,244.598" style="stroke:#181818;stroke-width:1.0;"/><line style="stroke:#181818;stroke-width:1.0;" x1="488.9793" x2="707.0675" y1="244.598" y2="244.598"/><text fill="#000000" font-family="sans-serif" font-size="13" lengthAdjust="spacing" textLength="205.0882" x="495.9793" y="238.789">registerCategory(FigureCategory)</text><polygon fill="#181818" points="965.8617,272.304,975.8617,276.304,965.8617,280.304,969.8617,276.304" style="stroke:#181818;stroke-width:1.0;"/><line style="stroke:#181818;stroke-width:1.0;" x1="723.0675" x2="971.8617" y1="276.304" y2="276.304"/><text fill="#000000" font-family="sans-serif" font-size="13" lengthAdjust="spacing" textLength="235.7942" x="730.0675" y="270.495">ensureAuthenticatedUserHasAnyOf(...)</text><polygon fill="#181818" points="734.0675,304.01,724.0675,308.01,734.0675,312.01,730.0675,308.01" style="stroke:#181818;stroke-width:1.0;"/><line style="stroke:#181818;stroke-width:1.0;stroke-dasharray:2.0,2.0;" x1="728.0675" x2="981.8617" y1="308.01" y2="308.01"/><text fill="#000000" font-family="sans-serif" font-size="13" lengthAdjust="spacing" textLength="65.871" x="740.0675" y="302.201">autorizado</text><polygon fill="#181818" points="1108.6443,335.716,1118.6443,339.716,1108.6443,343.716,1112.6443,339.716" style="stroke:#181818;stroke-width:1.0;"/><line style="stroke:#181818;stroke-width:1.0;" x1="723.0675" x2="1114.6443" y1="339.716" y2="339.716"/><text fill="#000000" font-family="sans-serif" font-size="13" lengthAdjust="spacing" textLength="212.1602" x="730.0675" y="333.907">FigureCategory(name, description)</text><polygon fill="#181818" points="734.0675,367.4221,724.0675,371.4221,734.0675,375.4221,730.0675,371.4221" style="stroke:#181818;stroke-width:1.0;"/><line style="stroke:#181818;stroke-width:1.0;stroke-dasharray:2.0,2.0;" x1="728.0675" x2="1124.6443" y1="371.4221" y2="371.4221"/><text fill="#000000" font-family="sans-serif" font-size="13" lengthAdjust="spacing" textLength="147.9401" x="740.0675" y="365.6131">figure category instance</text><polygon fill="#181818" points="1269.3397,399.1281,1279.3397,403.1281,1269.3397,407.1281,1273.3397,403.1281" style="stroke:#181818;stroke-width:1.0;"/><line style="stroke:#181818;stroke-width:1.0;" x1="723.0675" x2="1275.3397" y1="403.1281" y2="403.1281"/><text fill="#000000" font-family="sans-serif" font-size="13" lengthAdjust="spacing" textLength="129.4801" x="730.0675" y="397.3191">save(FigureCategory)</text><path d="M1183.3801,418.1281 L1245.6831,418.1281 L1245.6831,427.8341 L1235.6831,437.8341 L1183.3801,437.8341 L1183.3801,418.1281 " fill="#EEEEEE" style="stroke:#000000;stroke-width:1.5;"/><rect fill="none" height="163.512" style="stroke:#000000;stroke-width:1.5;" width="686.5177" x="1183.3801" y="418.1281"/><text fill="#000000" font-family="sans-serif" font-size="13" font-weight="bold" lengthAdjust="spacing" textLength="17.303" x="1198.3801" y="433.0251">alt</text><text fill="#000000" font-family="sans-serif" font-size="11" font-weight="bold" lengthAdjust="spacing" textLength="151.4359" x="1260.6831" y="431.887">[Persist&#234;ncia ativa com JPA]</text><polygon fill="#181818" points="1475.4021,457.5401,1485.4021,461.5401,1475.4021,465.5401,1479.4021,461.5401" style="stroke:#181818;stroke-width:1.0;"/><line style="stroke:#181818;stroke-width:1.0;" x1="1291.3397" x2="1481.4021" y1="461.5401" y2="461.5401"/><text fill="#000000" font-family="sans-serif" font-size="13" lengthAdjust="spacing" textLength="129.4801" x="1298.3397" y="455.7311">save(FigureCategory)</text><polygon fill="#181818" points="1302.3397,489.2461,1292.3397,493.2461,1302.3397,497.2461,1298.3397,493.2461" style="stroke:#181818;stroke-width:1.0;"/><line style="stroke:#181818;stroke-width:1.0;stroke-dasharray:2.0,2.0;" x1="1296.3397" x2="1491.4021" y1="493.2461" y2="493.2461"/><text fill="#000000" font-family="sans-serif" font-size="13" lengthAdjust="spacing" textLength="120.6531" x="1308.3397" y="487.4371">categoria persistida</text><line style="stroke:#000000;stroke-width:1.0;stroke-dasharray:2.0,2.0;" x1="1183.3801" x2="1869.8978" y1="502.2461" y2="502.2461"/><text fill="#000000" font-family="sans-serif" font-size="11" font-weight="bold" lengthAdjust="spacing" textLength="108.4922" x="1188.3801" y="514.005">[InMemory (testes)]</text><polygon fill="#181818" points="1715.7013,537.934,1725.7013,541.934,1715.7013,545.934,1719.7013,541.934" style="stroke:#181818;stroke-width:1.0;"/><line style="stroke:#181818;stroke-width:1.0;" x1="1291.3397" x2="1721.7013" y1="541.934" y2="541.934"/><text fill="#000000" font-family="sans-serif" font-size="13" lengthAdjust="spacing" textLength="129.4801" x="1298.3397" y="536.125">save(FigureCategory)</text><polygon fill="#181818" points="1297.3397,569.6401,1287.3397,573.6401,1297.3397,577.6401,1293.3397,573.6401" style="stroke:#181818;stroke-width:1.0;"/><line style="stroke:#181818;stroke-width:1.0;stroke-dasharray:2.0,2.0;" x1="1291.3397" x2="1731.7013" y1="573.6401" y2="573.6401"/><text fill="#000000" font-family="sans-serif" font-size="13" lengthAdjust="spacing" textLength="201.8512" x="1303.3397" y="567.831">categoria guardada em mem&#243;ria</text><polygon fill="#181818" points="734.0675,608.3461,724.0675,612.3461,734.0675,616.3461,730.0675,612.3461" style="stroke:#181818;stroke-width:1.0;"/><line style="stroke:#181818;stroke-width:1.0;stroke-dasharray:2.0,2.0;" x1="728.0675" x2="1285.3397" y1="612.3461" y2="612.3461"/><text fill="#000000" font-family="sans-serif" font-size="13" lengthAdjust="spacing" textLength="120.0811" x="740.0675" y="606.5371">categoria guardada</text><polygon fill="#181818" points="499.9793,640.0521,489.9793,644.0521,499.9793,648.0521,495.9793,644.0521" style="stroke:#181818;stroke-width:1.0;"/><line style="stroke:#181818;stroke-width:1.0;stroke-dasharray:2.0,2.0;" x1="493.9793" x2="717.0675" y1="644.0521" y2="644.0521"/><text fill="#000000" font-family="sans-serif" font-size="13" lengthAdjust="spacing" textLength="120.0811" x="505.9793" y="638.2431">categoria guardada</text><polygon fill="#181818" points="235.5361,671.7581,225.5361,675.7581,235.5361,679.7581,231.5361,675.7581" style="stroke:#181818;stroke-width:1.0;"/><line style="stroke:#181818;stroke-width:1.0;stroke-dasharray:2.0,2.0;" x1="229.5361" x2="482.9793" y1="675.7581" y2="675.7581"/><text fill="#000000" font-family="sans-serif" font-size="13" lengthAdjust="spacing" textLength="123.1621" x="241.5361" y="669.9491">mostra confirma&#231;&#227;o</text><polygon fill="#181818" points="34.3089,703.4641,24.3089,707.4641,34.3089,711.4641,30.3089,707.4641" style="stroke:#181818;stroke-width:1.0;"/><line style="stroke:#181818;stroke-width:1.0;stroke-dasharray:2.0,2.0;" x1="28.3089" x2="218.5361" y1="707.4641" y2="707.4641"/><text fill="#000000" font-family="sans-serif" font-size="13" lengthAdjust="spacing" textLength="156.5721" x="40.3089" y="701.6551">Figure added successfully</text><!--SRC=[fPN1QkCm48RlUeevfj3a0N8eX4BP5fOjBNs0GPfa1PPa93cGlauFXLxt4V9YExApjUDOIhhDmH2Fvll_6KiQbD5vU0daXK0PzHOZTN_J0-OtSAStZQTRVhznVlTo3qj0fQLs5Zsiso38GxH7ZBE4EE7C6TwABA4cHM2T8I1G5AJN-_Vzcojvq3PwfvhNgRHJgJ7YrgNqgchLKQdZwCoYeUi3ievSwbMkiXuaiWedwi_ajreIItlQw139VoeVBypA7WXYcik2goR-Tbw_OdBVwv4Dl3u5oKQTFfjAFVw1OMLtlzQpnM8nq9o2Y4dol50ZDh5ThvnGL6PdopaECFI_FzX8e-XyjBjvpuM8bdqEwYZIinKyKUs2Zbqj0RTqwOVl4_cyLX4UoGVUGViFApK2fXoGpi33uqe0_xAoREcXng-wIiXFPuNyTc69Fo-tvD1oBgdk2jGAM-QWyoLvgWB1lVr99l5caVYGXQkp7VcNyQssd8EqgyygNToWJODUeK8W0uRC_W-_7BVg8alPJJtigrNZcxpekJzBfuPpPwLyMKzmiiQdhvNXpJmzMumBqQTpPDVQ6-o6IbObEmAEPrmNIyE658H6IWfXtLJLBa_ciJc89SvV]--></g></svg>