<svg xmlns="http://www.w3.org/2000/svg" xmlns:xlink="http://www.w3.org/1999/xlink" contentStyleType="text/css" height="1062px" preserveAspectRatio="none" style="width:1995px;height:1062px;background:#FFFFFF;" version="1.1" viewBox="0 0 1995 1062" width="1995px" zoomAndPan="magnify"><defs/><g><rect fill="#FFFFFF" height="867.0443" style="stroke:#181818;stroke-width:1.0;" width="10" x="18.3089" y="94.0679"/><rect fill="#FFFFFF" height="843.3383" style="stroke:#181818;stroke-width:1.0;" width="10" x="319.5242" y="117.7739"/><rect fill="#FFFFFF" height="158.5301" style="stroke:#181818;stroke-width:1.0;" width="10" x="642.2594" y="149.4799"/><rect fill="#FFFFFF" height="526.2782" style="stroke:#181818;stroke-width:1.0;" width="10" x="642.2594" y="403.1281"/><rect fill="#FFFFFF" height="95.118" style="stroke:#181818;stroke-width:1.0;" width="10" x="929.5696" y="181.186"/><rect fill="#FFFFFF" height="462.8661" style="stroke:#181818;stroke-width:1.0;" width="10" x="929.5696" y="434.8341"/><rect fill="#FFFFFF" height="31.706" style="stroke:#181818;stroke-width:1.0;" width="10" x="1114.2137" y="212.892"/><rect fill="#FFFFFF" height="31.706" style="stroke:#181818;stroke-width:1.0;" width="10" x="1114.2137" y="529.9521"/><rect fill="#FFFFFF" height="209.218" style="stroke:#181818;stroke-width:1.0;" width="10" x="1114.2137" y="656.7762"/><rect fill="#FFFFFF" height="31.706" style="stroke:#181818;stroke-width:1.0;" width="10" x="1292.2202" y="466.5401"/><rect fill="#FFFFFF" height="31.706" style="stroke:#181818;stroke-width:1.0;" width="10" x="1435.0027" y="593.3642"/><rect fill="#FFFFFF" height="31.706" style="stroke:#181818;stroke-width:1.0;" width="10" x="1605.8412" y="715.1882"/><rect fill="#FFFFFF" height="31.706" style="stroke:#181818;stroke-width:1.0;" width="10" x="1846.1404" y="795.5822"/><rect fill="none" height="163.512" style="stroke:#000000;stroke-width:1.5;" width="972.0828" x="1016.2541" y="671.7762"/><line style="stroke:#181818;stroke-width:0.5;stroke-dasharray:5.0,5.0;" x1="23" x2="23" y1="84.0679" y2="979.1123"/><line style="stroke:#181818;stroke-width:0.5;stroke-dasharray:5.0,5.0;" x1="323.7684" x2="323.7684" y1="84.0679" y2="979.1123"/><line style="stroke:#181818;stroke-width:0.5;stroke-dasharray:5.0,5.0;" x1="646.4347" x2="646.4347" y1="84.0679" y2="979.1123"/><line style="stroke:#181818;stroke-width:0.5;stroke-dasharray:5.0,5.0;" x1="934.4819" x2="934.4819" y1="84.0679" y2="979.1123"/><line style="stroke:#181818;stroke-width:0.5;stroke-dasharray:5.0,5.0;" x1="1118.2541" x2="1118.2541" y1="84.0679" y2="979.1123"/><line style="stroke:#181818;stroke-width:0.5;stroke-dasharray:5.0,5.0;" x1="1297.1734" x2="1297.1734" y1="84.0679" y2="979.1123"/><line style="stroke:#181818;stroke-width:0.5;stroke-dasharray:5.0,5.0;" x1="1439.2669" x2="1439.2669" y1="84.0679" y2="979.1123"/><line style="stroke:#181818;stroke-width:0.5;stroke-dasharray:5.0,5.0;" x1="1610.7385" x2="1610.7385" y1="84.0679" y2="979.1123"/><line style="stroke:#181818;stroke-width:0.5;stroke-dasharray:5.0,5.0;" x1="1850.9438" x2="1850.9438" y1="84.0679" y2="979.1123"/><text fill="#000000" font-family="sans-serif" font-size="14" lengthAdjust="spacing" textLength="30.6179" x="5" y="79.9659">User</text><ellipse cx="23.3089" cy="13.5" fill="#E2E2F0" rx="8" ry="8" style="stroke:#181818;stroke-width:0.5;"/><path d="M23.3089,21.5 L23.3089,48.5 M10.3089,29.5 L36.3089,29.5 M23.3089,48.5 L10.3089,63.5 M23.3089,48.5 L36.3089,63.5 " fill="none" style="stroke:#181818;stroke-width:0.5;"/><text fill="#000000" font-family="sans-serif" font-size="14" lengthAdjust="spacing" textLength="30.6179" x="5" y="993.0782">User</text><ellipse cx="23.3089" cy="1005.6802" fill="#E2E2F0" rx="8" ry="8" style="stroke:#181818;stroke-width:0.5;"/><path d="M23.3089,1013.6802 L23.3089,1040.6802 M10.3089,1021.6802 L36.3089,1021.6802 M23.3089,1040.6802 L10.3089,1055.6802 M23.3089,1040.6802 L36.3089,1055.6802 " fill="none" style="stroke:#181818;stroke-width:0.5;"/><rect fill="#E2E2F0" height="33.0679" rx="2.5" ry="2.5" style="stroke:#181818;stroke-width:0.5;" width="155.5115" x="246.7684" y="50"/><text fill="#000000" font-family="sans-serif" font-size="14" lengthAdjust="spacing" textLength="141.5115" x="253.7684" y="71.9659">EditFigureCategoryUI</text><rect fill="#E2E2F0" height="33.0679" rx="2.5" ry="2.5" style="stroke:#181818;stroke-width:0.5;" width="155.5115" x="246.7684" y="978.1123"/><text fill="#000000" font-family="sans-serif" font-size="14" lengthAdjust="spacing" textLength="141.5115" x="253.7684" y="1000.0782">EditFigureCategoryUI</text><rect fill="#E2E2F0" height="33.0679" rx="2.5" ry="2.5" style="stroke:#181818;stroke-width:0.5;" width="181.6494" x="556.4347" y="50"/><text fill="#000000" font-family="sans-serif" font-size="14" lengthAdjust="spacing" textLength="167.6494" x="563.4347" y="71.9659">FigureCategoryController</text><rect fill="#E2E2F0" height="33.0679" rx="2.5" ry="2.5" style="stroke:#181818;stroke-width:0.5;" width="181.6494" x="556.4347" y="978.1123"/><text fill="#000000" font-family="sans-serif" font-size="14" lengthAdjust="spacing" textLength="167.6494" x="563.4347" y="1000.0782">FigureCategoryController</text><rect fill="#E2E2F0" height="33.0679" rx="2.5" ry="2.5" style="stroke:#181818;stroke-width:0.5;" width="162.1754" x="853.4819" y="50"/><text fill="#000000" font-family="sans-serif" font-size="14" lengthAdjust="spacing" textLength="148.1754" x="860.4819" y="71.9659">FigureCategoryService</text><rect fill="#E2E2F0" height="33.0679" rx="2.5" ry="2.5" style="stroke:#181818;stroke-width:0.5;" width="162.1754" x="853.4819" y="978.1123"/><text fill="#000000" font-family="sans-serif" font-size="14" lengthAdjust="spacing" textLength="148.1754" x="860.4819" y="1000.0782">FigureCategoryService</text><rect fill="#E2E2F0" height="33.0679" rx="2.5" ry="2.5" style="stroke:#181818;stroke-width:0.5;" width="185.9194" x="1026.2541" y="50"/><text fill="#000000" font-family="sans-serif" font-size="14" lengthAdjust="spacing" textLength="171.9194" x="1033.2541" y="71.9659">FigureCategoryRepository</text><rect fill="#E2E2F0" height="33.0679" rx="2.5" ry="2.5" style="stroke:#181818;stroke-width:0.5;" width="185.9194" x="1026.2541" y="978.1123"/><text fill="#000000" font-family="sans-serif" font-size="14" lengthAdjust="spacing" textLength="171.9194" x="1033.2541" y="1000.0782">FigureCategoryRepository</text><rect fill="#E2E2F0" height="33.0679" rx="2.5" ry="2.5" style="stroke:#181818;stroke-width:0.5;" width="150.0935" x="1222.1734" y="50"/><text fill="#000000" font-family="sans-serif" font-size="14" lengthAdjust="spacing" textLength="136.0935" x="1229.1734" y="71.9659">AuthorizationService</text><rect fill="#E2E2F0" height="33.0679" rx="2.5" ry="2.5" style="stroke:#181818;stroke-width:0.5;" width="150.0935" x="1222.1734" y="978.1123"/><text fill="#000000" font-family="sans-serif" font-size="14" lengthAdjust="spacing" textLength="136.0935" x="1229.1734" y="1000.0782">AuthorizationService</text><rect fill="#E2E2F0" height="33.0679" rx="2.5" ry="2.5" style="stroke:#181818;stroke-width:0.5;" width="115.4716" x="1382.2669" y="50"/><text fill="#000000" font-family="sans-serif" font-size="14" lengthAdjust="spacing" textLength="101.4716" x="1389.2669" y="71.9659">FigureCategory</text><rect fill="#E2E2F0" height="33.0679" rx="2.5" ry="2.5" style="stroke:#181818;stroke-width:0.5;" width="115.4716" x="1382.2669" y="978.1123"/><text fill="#000000" font-family="sans-serif" font-size="14" lengthAdjust="spacing" textLength="101.4716" x="1389.2669" y="1000.0782">FigureCategory</text><rect fill="#E2E2F0" height="33.0679" rx="2.5" ry="2.5" style="stroke:#181818;stroke-width:0.5;" width="206.2053" x="1507.7385" y="50"/><text fill="#000000" font-family="sans-serif" font-size="14" lengthAdjust="spacing" textLength="192.2053" x="1514.7385" y="71.9659">JpaFigureCategoryRepository</text><rect fill="#E2E2F0" height="33.0679" rx="2.5" ry="2.5" style="stroke:#181818;stroke-width:0.5;" width="206.2053" x="1507.7385" y="978.1123"/><text fill="#000000" font-family="sans-serif" font-size="14" lengthAdjust="spacing" textLength="192.2053" x="1514.7385" y="1000.0782">JpaFigureCategoryRepository</text><rect fill="#E2E2F0" height="33.0679" rx="2.5" ry="2.5" style="stroke:#181818;stroke-width:0.5;" width="254.3931" x="1723.9438" y="50"/><text fill="#000000" font-family="sans-serif" font-size="14" lengthAdjust="spacing" textLength="240.3931" x="1730.9438" y="71.9659">InMemoryFigureCategoryRepository</text><rect fill="#E2E2F0" height="33.0679" rx="2.5" ry="2.5" style="stroke:#181818;stroke-width:0.5;" width="254.3931" x="1723.9438" y="978.1123"/><text fill="#000000" font-family="sans-serif" font-size="14" lengthAdjust="spacing" textLength="240.3931" x="1730.9438" y="1000.0782">InMemoryFigureCategoryRepository</text><rect fill="#FFFFFF" height="867.0443" style="stroke:#181818;stroke-width:1.0;" width="10" x="18.3089" y="94.0679"/><rect fill="#FFFFFF" height="843.3383" style="stroke:#181818;stroke-width:1.0;" width="10" x="319.5242" y="117.7739"/><rect fill="#FFFFFF" height="158.5301" style="stroke:#181818;stroke-width:1.0;" width="10" x="642.2594" y="149.4799"/><rect fill="#FFFFFF" height="526.2782" style="stroke:#181818;stroke-width:1.0;" width="10" x="642.2594" y="403.1281"/><rect fill="#FFFFFF" height="95.118" style="stroke:#181818;stroke-width:1.0;" width="10" x="929.5696" y="181.186"/><rect fill="#FFFFFF" height="462.8661" style="stroke:#181818;stroke-width:1.0;" width="10" x="929.5696" y="434.8341"/><rect fill="#FFFFFF" height="31.706" style="stroke:#181818;stroke-width:1.0;" width="10" x="1114.2137" y="212.892"/><rect fill="#FFFFFF" height="31.706" style="stroke:#181818;stroke-width:1.0;" width="10" x="1114.2137" y="529.9521"/><rect fill="#FFFFFF" height="209.218" style="stroke:#181818;stroke-width:1.0;" width="10" x="1114.2137" y="656.7762"/><rect fill="#FFFFFF" height="31.706" style="stroke:#181818;stroke-width:1.0;" width="10" x="1292.2202" y="466.5401"/><rect fill="#FFFFFF" height="31.706" style="stroke:#181818;stroke-width:1.0;" width="10" x="1435.0027" y="593.3642"/><rect fill="#FFFFFF" height="31.706" style="stroke:#181818;stroke-width:1.0;" width="10" x="1605.8412" y="715.1882"/><rect fill="#FFFFFF" height="31.706" style="stroke:#181818;stroke-width:1.0;" width="10" x="1846.1404" y="795.5822"/><polygon fill="#181818" points="307.5242,113.7739,317.5242,117.7739,307.5242,121.7739,311.5242,117.7739" style="stroke:#181818;stroke-width:1.0;"/><line style="stroke:#181818;stroke-width:1.0;" x1="28.3089" x2="313.5242" y1="117.7739" y2="117.7739"/><text fill="#000000" font-family="sans-serif" font-size="13" lengthAdjust="spacing" textLength="132.7691" x="35.3089" y="111.9649">editar figure category</text><polygon fill="#181818" points="630.2594,145.4799,640.2594,149.4799,630.2594,153.4799,634.2594,149.4799" style="stroke:#181818;stroke-width:1.0;"/><line style="stroke:#181818;stroke-width:1.0;" x1="329.5242" x2="636.2594" y1="149.4799" y2="149.4799"/><text fill="#000000" font-family="sans-serif" font-size="13" lengthAdjust="spacing" textLength="46.6701" x="336.5242" y="143.6709">findAll()</text><polygon fill="#181818" points="917.5696,177.186,927.5696,181.186,917.5696,185.186,921.5696,181.186" style="stroke:#181818;stroke-width:1.0;"/><line style="stroke:#181818;stroke-width:1.0;" x1="652.2594" x2="923.5696" y1="181.186" y2="181.186"/><text fill="#000000" font-family="sans-serif" font-size="13" lengthAdjust="spacing" textLength="40.4431" x="659.2594" y="175.377">listAll()</text><polygon fill="#181818" points="1102.2137,208.892,1112.2137,212.892,1102.2137,216.892,1106.2137,212.892" style="stroke:#181818;stroke-width:1.0;"/><line style="stroke:#181818;stroke-width:1.0;" x1="939.5696" x2="1108.2137" y1="212.892" y2="212.892"/><text fill="#000000" font-family="sans-serif" font-size="13" lengthAdjust="spacing" textLength="46.6701" x="946.5696" y="207.083">findAll()</text><polygon fill="#181818" points="950.5696,240.598,940.5696,244.598,950.5696,248.598,946.5696,244.598" style="stroke:#181818;stroke-width:1.0;"/><line style="stroke:#181818;stroke-width:1.0;stroke-dasharray:2.0,2.0;" x1="944.5696" x2="1118.2137" y1="244.598" y2="244.598"/><text fill="#000000" font-family="sans-serif" font-size="13" lengthAdjust="spacing" textLength="150.6441" x="956.5696" y="238.789">lista de figure categories</text><polygon fill="#181818" points="663.2594,272.304,653.2594,276.304,663.2594,280.304,659.2594,276.304" style="stroke:#181818;stroke-width:1.0;"/><line style="stroke:#181818;stroke-width:1.0;stroke-dasharray:2.0,2.0;" x1="657.2594" x2="933.5696" y1="276.304" y2="276.304"/><text fill="#000000" font-family="sans-serif" font-size="13" lengthAdjust="spacing" textLength="150.6441" x="669.2594" y="270.495">lista de figure categories</text><polygon fill="#181818" points="340.5242,304.01,330.5242,308.01,340.5242,312.01,336.5242,308.01" style="stroke:#181818;stroke-width:1.0;"/><line style="stroke:#181818;stroke-width:1.0;stroke-dasharray:2.0,2.0;" x1="334.5242" x2="646.2594" y1="308.01" y2="308.01"/><text fill="#000000" font-family="sans-serif" font-size="13" lengthAdjust="spacing" textLength="150.6441" x="346.5242" y="302.201">lista de figure categories</text><polygon fill="#181818" points="39.3089,335.716,29.3089,339.716,39.3089,343.716,35.3089,339.716" style="stroke:#181818;stroke-width:1.0;"/><line style="stroke:#181818;stroke-width:1.0;stroke-dasharray:2.0,2.0;" x1="33.3089" x2="318.5242" y1="339.716" y2="339.716"/><text fill="#000000" font-family="sans-serif" font-size="13" lengthAdjust="spacing" textLength="150.6441" x="45.3089" y="333.907">lista de figure categories</text><polygon fill="#181818" points="307.5242,367.4221,317.5242,371.4221,307.5242,375.4221,311.5242,371.4221" style="stroke:#181818;stroke-width:1.0;"/><line style="stroke:#181818;stroke-width:1.0;" x1="28.3089" x2="313.5242" y1="371.4221" y2="371.4221"/><text fill="#000000" font-family="sans-serif" font-size="13" lengthAdjust="spacing" textLength="267.2152" x="35.3089" y="365.6131">escolhe categoria e introduz nova descri&#231;&#227;o</text><polygon fill="#181818" points="630.2594,399.1281,640.2594,403.1281,630.2594,407.1281,634.2594,403.1281" style="stroke:#181818;stroke-width:1.0;"/><line style="stroke:#181818;stroke-width:1.0;" x1="329.5242" x2="636.2594" y1="403.1281" y2="403.1281"/><text fill="#000000" font-family="sans-serif" font-size="13" lengthAdjust="spacing" textLength="293.7352" x="336.5242" y="397.3191">editCategoryDescription(name, newDescription)</text><polygon fill="#181818" points="917.5696,430.8341,927.5696,434.8341,917.5696,438.8341,921.5696,434.8341" style="stroke:#181818;stroke-width:1.0;"/><line style="stroke:#181818;stroke-width:1.0;" x1="652.2594" x2="923.5696" y1="434.8341" y2="434.8341"/><text fill="#000000" font-family="sans-serif" font-size="13" lengthAdjust="spacing" textLength="258.3102" x="659.2594" y="429.0251">updateDescription(name, newDescription)</text><polygon fill="#181818" points="1280.2202,462.5401,1290.2202,466.5401,1280.2202,470.5401,1284.2202,466.5401" style="stroke:#181818;stroke-width:1.0;"/><line style="stroke:#181818;stroke-width:1.0;" x1="939.5696" x2="1286.2202" y1="466.5401" y2="466.5401"/><text fill="#000000" font-family="sans-serif" font-size="13" lengthAdjust="spacing" textLength="235.7942" x="946.5696" y="460.7311">ensureAuthenticatedUserHasAnyOf(...)</text><polygon fill="#181818" points="950.5696,494.2461,940.5696,498.2461,950.5696,502.2461,946.5696,498.2461" style="stroke:#181818;stroke-width:1.0;"/><line style="stroke:#181818;stroke-width:1.0;stroke-dasharray:2.0,2.0;" x1="944.5696" x2="1296.2202" y1="498.2461" y2="498.2461"/><text fill="#000000" font-family="sans-serif" font-size="13" lengthAdjust="spacing" textLength="65.871" x="956.5696" y="492.4371">autorizado</text><polygon fill="#181818" points="1102.2137,525.9521,1112.2137,529.9521,1102.2137,533.9521,1106.2137,529.9521" style="stroke:#181818;stroke-width:1.0;"/><line style="stroke:#181818;stroke-width:1.0;" x1="939.5696" x2="1108.2137" y1="529.9521" y2="529.9521"/><text fill="#000000" font-family="sans-serif" font-size="13" lengthAdjust="spacing" textLength="118.2091" x="946.5696" y="524.1431">findByName(name)</text><polygon fill="#181818" points="950.5696,557.6582,940.5696,561.6582,950.5696,565.6582,946.5696,561.6582" style="stroke:#181818;stroke-width:1.0;"/><line style="stroke:#181818;stroke-width:1.0;stroke-dasharray:2.0,2.0;" x1="944.5696" x2="1118.2137" y1="561.6582" y2="561.6582"/><text fill="#000000" font-family="sans-serif" font-size="13" lengthAdjust="spacing" textLength="94.2241" x="956.5696" y="555.8492">FigureCategory</text><polygon fill="#181818" points="1423.0027,589.3642,1433.0027,593.3642,1423.0027,597.3642,1427.0027,593.3642" style="stroke:#181818;stroke-width:1.0;"/><line style="stroke:#181818;stroke-width:1.0;" x1="939.5696" x2="1429.0027" y1="593.3642" y2="593.3642"/><text fill="#000000" font-family="sans-serif" font-size="13" lengthAdjust="spacing" textLength="216.6322" x="946.5696" y="587.5552">updateDescription(newDescription)</text><polygon fill="#181818" points="950.5696,621.0702,940.5696,625.0702,950.5696,629.0702,946.5696,625.0702" style="stroke:#181818;stroke-width:1.0;"/><line style="stroke:#181818;stroke-width:1.0;stroke-dasharray:2.0,2.0;" x1="944.5696" x2="1439.0027" y1="625.0702" y2="625.0702"/><text fill="#000000" font-family="sans-serif" font-size="13" lengthAdjust="spacing" textLength="212.1471" x="956.5696" y="619.2612">descri&#231;&#227;o atualizada, data alterada</text><polygon fill="#181818" points="1102.2137,652.7762,1112.2137,656.7762,1102.2137,660.7762,1106.2137,656.7762" style="stroke:#181818;stroke-width:1.0;"/><line style="stroke:#181818;stroke-width:1.0;" x1="939.5696" x2="1108.2137" y1="656.7762" y2="656.7762"/><text fill="#000000" font-family="sans-serif" font-size="13" lengthAdjust="spacing" textLength="129.4801" x="946.5696" y="650.9672">save(FigureCategory)</text><path d="M1016.2541,671.7762 L1078.5571,671.7762 L1078.5571,681.4822 L1068.5571,691.4822 L1016.2541,691.4822 L1016.2541,671.7762 " fill="#EEEEEE" style="stroke:#000000;stroke-width:1.5;"/><rect fill="none" height="163.512" style="stroke:#000000;stroke-width:1.5;" width="972.0828" x="1016.2541" y="671.7762"/><text fill="#000000" font-family="sans-serif" font-size="13" font-weight="bold" lengthAdjust="spacing" textLength="17.303" x="1031.2541" y="686.6732">alt</text><text fill="#000000" font-family="sans-serif" font-size="11" font-weight="bold" lengthAdjust="spacing" textLength="151.4359" x="1093.5571" y="685.5351">[Persist&#234;ncia ativa com JPA]</text><polygon fill="#181818" points="1593.8412,711.1882,1603.8412,715.1882,1593.8412,719.1882,1597.8412,715.1882" style="stroke:#181818;stroke-width:1.0;"/><line style="stroke:#181818;stroke-width:1.0;" x1="1124.2137" x2="1599.8412" y1="715.1882" y2="715.1882"/><text fill="#000000" font-family="sans-serif" font-size="13" lengthAdjust="spacing" textLength="129.4801" x="1131.2137" y="709.3792">save(FigureCategory)</text><polygon fill="#181818" points="1135.2137,742.8943,1125.2137,746.8943,1135.2137,750.8943,1131.2137,746.8943" style="stroke:#181818;stroke-width:1.0;"/><line style="stroke:#181818;stroke-width:1.0;stroke-dasharray:2.0,2.0;" x1="1129.2137" x2="1609.8412" y1="746.8943" y2="746.8943"/><text fill="#000000" font-family="sans-serif" font-size="13" lengthAdjust="spacing" textLength="123.5261" x="1141.2137" y="741.0853">categoria atualizada</text><line style="stroke:#000000;stroke-width:1.0;stroke-dasharray:2.0,2.0;" x1="1016.2541" x2="1988.3369" y1="755.8943" y2="755.8943"/><text fill="#000000" font-family="sans-serif" font-size="11" font-weight="bold" lengthAdjust="spacing" textLength="108.4922" x="1021.2541" y="767.6532">[InMemory (testes)]</text><polygon fill="#181818" points="1834.1404,791.5822,1844.1404,795.5822,1834.1404,799.5822,1838.1404,795.5822" style="stroke:#181818;stroke-width:1.0;"/><line style="stroke:#181818;stroke-width:1.0;" x1="1124.2137" x2="1840.1404" y1="795.5822" y2="795.5822"/><text fill="#000000" font-family="sans-serif" font-size="13" lengthAdjust="spacing" textLength="129.4801" x="1131.2137" y="789.7732">save(FigureCategory)</text><polygon fill="#181818" points="1135.2137,823.2882,1125.2137,827.2882,1135.2137,831.2882,1131.2137,827.2882" style="stroke:#181818;stroke-width:1.0;"/><line style="stroke:#181818;stroke-width:1.0;stroke-dasharray:2.0,2.0;" x1="1129.2137" x2="1850.1404" y1="827.2882" y2="827.2882"/><text fill="#000000" font-family="sans-serif" font-size="13" lengthAdjust="spacing" textLength="123.5261" x="1141.2137" y="821.4792">categoria atualizada</text><polygon fill="#181818" points="950.5696,861.9942,940.5696,865.9942,950.5696,869.9942,946.5696,865.9942" style="stroke:#181818;stroke-width:1.0;"/><line style="stroke:#181818;stroke-width:1.0;stroke-dasharray:2.0,2.0;" x1="944.5696" x2="1118.2137" y1="865.9942" y2="865.9942"/><text fill="#000000" font-family="sans-serif" font-size="13" lengthAdjust="spacing" textLength="120.6531" x="956.5696" y="860.1852">categoria persistida</text><polygon fill="#181818" points="663.2594,893.7002,653.2594,897.7002,663.2594,901.7002,659.2594,897.7002" style="stroke:#181818;stroke-width:1.0;"/><line style="stroke:#181818;stroke-width:1.0;stroke-dasharray:2.0,2.0;" x1="657.2594" x2="933.5696" y1="897.7002" y2="897.7002"/><text fill="#000000" font-family="sans-serif" font-size="13" lengthAdjust="spacing" textLength="123.5261" x="669.2594" y="891.8912">categoria atualizada</text><polygon fill="#181818" points="340.5242,925.4062,330.5242,929.4062,340.5242,933.4062,336.5242,929.4062" style="stroke:#181818;stroke-width:1.0;"/><line style="stroke:#181818;stroke-width:1.0;stroke-dasharray:2.0,2.0;" x1="334.5242" x2="646.2594" y1="929.4062" y2="929.4062"/><text fill="#000000" font-family="sans-serif" font-size="13" lengthAdjust="spacing" textLength="76.1801" x="346.5242" y="923.5972">confirma&#231;&#227;o</text><polygon fill="#181818" points="34.3089,957.1123,24.3089,961.1123,34.3089,965.1123,30.3089,961.1123" style="stroke:#181818;stroke-width:1.0;"/><line style="stroke:#181818;stroke-width:1.0;stroke-dasharray:2.0,2.0;" x1="28.3089" x2="323.5242" y1="961.1123" y2="961.1123"/><text fill="#000000" font-family="sans-serif" font-size="13" lengthAdjust="spacing" textLength="189.9171" x="40.3089" y="955.3032">Descri&#231;&#227;o editada com sucesso</text><!--SRC=[jLPTJkCm47xtAUOnIBG7u06f2xjQa7ONxOe3ZEmfM4hjo7QAodLuGE8QlTYEKo0fE4u8j8egnJF-ll4tFmxAO1rSUt92e0nwZO5sh_4FPgVmNUdmGz_KZixOTcFTvle2Je1u6Hqi6ml8PrEBaTecabZCiRzsParmjYoP_uG9Z5gKPN7KGlTvYrwOTnJ_oAsr9COljGzP_6TNaGPuX_oNAkirYxeP4tphBNfXPWFH8oXwamTDNYZwAEVhcV8PcSAP5h6ReVvAcyBNAOfqpJ5TK-1P-A4MyDAMj-qE108TULLz3yQk8wgNJcyVjmzsIkt77dind3TGLT3M50PNT0o6xZgBX-gFkbAyDfbzi7iMTRXbxUunmhIqP3pxHoEPeAF2AcRZ9_g5sVnP5lFvlCEP0X59v5mpOHqQVsMxXPN4dZeClcr-itgDX0UR2Vlhe-R0sFEaws5S9RpXo1wXqpU0eSOoPWMFWQaHi0pa-BN_P69IVZokgTYtZycHu7ZWYfpdER9zCfB70COz8EqABgyM0lZNdyXJkApmer55oDV8CliRnnp-B2z9EzdQB3IO7Ubpz5HwWWlpYrOHhmZa-JaQLEHbnwTa6G9fl0UPla2WmK38A36jrLlwQbU0EjSMdxtuauSzo9KlhLbgjyBTpVaLj_nvPw8qdwvgrw2-bkJz7aVooxLZZuZ_0G00]--></g></svg>