<svg xmlns="http://www.w3.org/2000/svg" xmlns:xlink="http://www.w3.org/1999/xlink" contentStyleType="text/css" height="827px" preserveAspectRatio="none" style="width:2567px;height:827px;background:#FFFFFF;" version="1.1" viewBox="0 0 2567 827" width="2567px" zoomAndPan="magnify"><defs/><g><!--class Repositories--><g id="elem_Repositories"><rect codeLine="6" fill="#F1F1F1" height="105.2038" id="Repositories" rx="2.5" ry="2.5" style="stroke:#181818;stroke-width:0.5;" width="377.1886" x="7" y="83.5"/><ellipse cx="150.5835" cy="99.5" fill="#ADD1B2" rx="11" ry="11" style="stroke:#181818;stroke-width:1.0;"/><path d="M150.0522,106.4219 Q148.3022,106.4219 147.1616,105.6875 Q146.0366,104.9375 145.4741,103.5938 Q144.9272,102.2344 144.9272,100.4375 Q144.9272,98.4063 145.5835,96.9531 Q146.2397,95.5 147.521,94.7188 Q148.8022,93.9375 150.6772,93.9375 Q151.5678,93.9375 152.2397,94.125 Q152.9116,94.2969 153.5991,94.6406 L152.7866,96.6563 Q152.1616,96.3438 151.6147,96.2188 Q151.0835,96.0938 150.5991,96.0938 Q149.4272,96.0938 148.7241,96.625 Q148.021,97.1563 147.7241,98.1094 Q147.4272,99.0625 147.4272,100.3281 Q147.4272,102.3438 148.146,103.3125 Q148.8647,104.2656 150.4585,104.2656 Q151.0522,104.2656 151.6772,104.1094 Q152.3022,103.9531 153.1303,103.5781 L153.1303,105.7969 Q152.396,106.1094 151.5991,106.2656 Q150.8178,106.4219 150.0522,106.4219 Z " fill="#000000"/><text fill="#000000" font-family="sans-serif" font-size="14" lengthAdjust="spacing" textLength="81.5217" x="171.0835" y="104.932">Repositories</text><line style="stroke:#181818;stroke-width:0.5;" x1="8" x2="383.1886" y1="115.5" y2="115.5"/><line style="stroke:#181818;stroke-width:0.5;" x1="8" x2="383.1886" y1="123.5" y2="123.5"/><text fill="#000000" font-family="sans-serif" font-size="14" lengthAdjust="spacing" textLength="97.9296" x="13" y="142.4659">+Repositories()</text><text fill="#000000" font-family="sans-serif" font-size="14" lengthAdjust="spacing" textLength="365.1886" x="13" y="161.5339">+figureCategoryRepository(): FigureCategoryRepository</text><text fill="#000000" font-family="sans-serif" font-size="14" lengthAdjust="spacing" textLength="183.1613" x="13" y="180.6018">+getInstance(): Repositories</text></g><!--class FigureCategoryController--><g id="elem_FigureCategoryController"><rect codeLine="12" fill="#F1F1F1" height="143.3396" id="FigureCategoryController" rx="2.5" ry="2.5" style="stroke:#181818;stroke-width:0.5;" width="422.4085" x="1450.5" y="326"/><ellipse cx="1573.6296" cy="342" fill="#ADD1B2" rx="11" ry="11" style="stroke:#181818;stroke-width:1.0;"/><path d="M1573.0983,348.9219 Q1571.3483,348.9219 1570.2077,348.1875 Q1569.0827,347.4375 1568.5202,346.0938 Q1567.9733,344.7344 1567.9733,342.9375 Q1567.9733,340.9063 1568.6296,339.4531 Q1569.2858,338 1570.5671,337.2188 Q1571.8483,336.4375 1573.7233,336.4375 Q1574.6139,336.4375 1575.2858,336.625 Q1575.9577,336.7969 1576.6452,337.1406 L1575.8327,339.1563 Q1575.2077,338.8438 1574.6608,338.7188 Q1574.1296,338.5938 1573.6452,338.5938 Q1572.4733,338.5938 1571.7702,339.125 Q1571.0671,339.6563 1570.7702,340.6094 Q1570.4733,341.5625 1570.4733,342.8281 Q1570.4733,344.8438 1571.1921,345.8125 Q1571.9108,346.7656 1573.5046,346.7656 Q1574.0983,346.7656 1574.7233,346.6094 Q1575.3483,346.4531 1576.1764,346.0781 L1576.1764,348.2969 Q1575.4421,348.6094 1574.6452,348.7656 Q1573.8639,348.9219 1573.0983,348.9219 Z " fill="#000000"/><text fill="#000000" font-family="sans-serif" font-size="14" lengthAdjust="spacing" textLength="167.6494" x="1594.1296" y="347.432">FigureCategoryController</text><line style="stroke:#181818;stroke-width:0.5;" x1="1451.5" x2="1871.9085" y1="358" y2="358"/><text fill="#000000" font-family="sans-serif" font-size="14" lengthAdjust="spacing" textLength="202.0472" x="1456.5" y="376.9659">-FigureCategoryService service</text><line style="stroke:#181818;stroke-width:0.5;" x1="1451.5" x2="1871.9085" y1="385.0679" y2="385.0679"/><text fill="#000000" font-family="sans-serif" font-size="14" lengthAdjust="spacing" textLength="347.6327" x="1456.5" y="404.0339">+addFigureCategory(String name, String description)</text><text fill="#000000" font-family="sans-serif" font-size="14" lengthAdjust="spacing" textLength="410.4085" x="1456.5" y="423.1018">+editCategoryDescription(String name, String newDescription)</text><text fill="#000000" font-family="sans-serif" font-size="14" lengthAdjust="spacing" textLength="198.8412" x="1456.5" y="442.1697">+toggleCategory(String name)</text><text fill="#000000" font-family="sans-serif" font-size="14" lengthAdjust="spacing" textLength="227.8911" x="1456.5" y="461.2376">+listAll(): Iterable&lt;FigureCategory&gt;</text></g><!--class FigureCategory--><g id="elem_FigureCategory"><rect codeLine="20" fill="#F1F1F1" height="257.7471" id="FigureCategory" rx="2.5" ry="2.5" style="stroke:#181818;stroke-width:0.5;" width="296.3389" x="1056.5" y="7"/><ellipse cx="1149.6836" cy="23" fill="#ADD1B2" rx="11" ry="11" style="stroke:#181818;stroke-width:1.0;"/><path d="M1149.1524,29.9219 Q1147.4024,29.9219 1146.2618,29.1875 Q1145.1368,28.4375 1144.5743,27.0938 Q1144.0274,25.7344 1144.0274,23.9375 Q1144.0274,21.9063 1144.6836,20.4531 Q1145.3399,19 1146.6211,18.2188 Q1147.9024,17.4375 1149.7774,17.4375 Q1150.668,17.4375 1151.3399,17.625 Q1152.0118,17.7969 1152.6993,18.1406 L1151.8868,20.1563 Q1151.2618,19.8438 1150.7149,19.7188 Q1150.1836,19.5938 1149.6993,19.5938 Q1148.5274,19.5938 1147.8243,20.125 Q1147.1211,20.6563 1146.8243,21.6094 Q1146.5274,22.5625 1146.5274,23.8281 Q1146.5274,25.8438 1147.2461,26.8125 Q1147.9649,27.7656 1149.5586,27.7656 Q1150.1524,27.7656 1150.7774,27.6094 Q1151.4024,27.4531 1152.2305,27.0781 L1152.2305,29.2969 Q1151.4961,29.6094 1150.6993,29.7656 Q1149.918,29.9219 1149.1524,29.9219 Z " fill="#000000"/><text fill="#000000" font-family="sans-serif" font-size="14" lengthAdjust="spacing" textLength="101.4716" x="1170.1836" y="28.432">FigureCategory</text><line style="stroke:#181818;stroke-width:0.5;" x1="1057.5" x2="1351.8389" y1="39" y2="39"/><text fill="#000000" font-family="sans-serif" font-size="14" lengthAdjust="spacing" textLength="85.0357" x="1062.5" y="57.9659">-String name</text><text fill="#000000" font-family="sans-serif" font-size="14" lengthAdjust="spacing" textLength="121.2675" x="1062.5" y="77.0339">-String description</text><text fill="#000000" font-family="sans-serif" font-size="14" lengthAdjust="spacing" textLength="111.3696" x="1062.5" y="96.1018">-boolean isActive</text><text fill="#000000" font-family="sans-serif" font-size="14" lengthAdjust="spacing" textLength="190.6093" x="1062.5" y="115.1697">-LocalDateTime creationDate</text><text fill="#000000" font-family="sans-serif" font-size="14" lengthAdjust="spacing" textLength="205.5892" x="1062.5" y="134.2376">-LocalDateTime lastEditionDate</text><line style="stroke:#181818;stroke-width:0.5;" x1="1057.5" x2="1351.8389" y1="142.3396" y2="142.3396"/><text fill="#000000" font-family="sans-serif" font-size="14" lengthAdjust="spacing" textLength="284.3389" x="1062.5" y="161.3055">+updateDescription(String newDescription)</text><text fill="#000000" font-family="sans-serif" font-size="14" lengthAdjust="spacing" textLength="67.5637" x="1062.5" y="180.3734">+activate()</text><text fill="#000000" font-family="sans-serif" font-size="14" lengthAdjust="spacing" textLength="84.0697" x="1062.5" y="199.4414">+deactivate()</text><text fill="#000000" font-family="sans-serif" font-size="14" lengthAdjust="spacing" textLength="112.8256" x="1062.5" y="218.5093">+identity(): String</text><text fill="#000000" font-family="sans-serif" font-size="14" lengthAdjust="spacing" textLength="127.0215" x="1062.5" y="237.5772">+isActive(): boolean</text><text fill="#000000" font-family="sans-serif" font-size="14" lengthAdjust="spacing" textLength="136.9195" x="1062.5" y="256.6451">+description(): String</text></g><!--class FigureCategoryService--><g id="elem_FigureCategoryService"><rect codeLine="34" fill="#F1F1F1" height="162.4075" id="FigureCategoryService" rx="2.5" ry="2.5" style="stroke:#181818;stroke-width:0.5;" width="340.4667" x="1034.5" y="530"/><ellipse cx="1126.3956" cy="546" fill="#ADD1B2" rx="11" ry="11" style="stroke:#181818;stroke-width:1.0;"/><path d="M1125.8644,552.9219 Q1124.1144,552.9219 1122.9738,552.1875 Q1121.8488,551.4375 1121.2863,550.0938 Q1120.7394,548.7344 1120.7394,546.9375 Q1120.7394,544.9063 1121.3956,543.4531 Q1122.0519,542 1123.3331,541.2188 Q1124.6144,540.4375 1126.4894,540.4375 Q1127.38,540.4375 1128.0519,540.625 Q1128.7238,540.7969 1129.4113,541.1406 L1128.5988,543.1563 Q1127.9738,542.8438 1127.4269,542.7188 Q1126.8956,542.5938 1126.4113,542.5938 Q1125.2394,542.5938 1124.5363,543.125 Q1123.8331,543.6563 1123.5363,544.6094 Q1123.2394,545.5625 1123.2394,546.8281 Q1123.2394,548.8438 1123.9581,549.8125 Q1124.6769,550.7656 1126.2706,550.7656 Q1126.8644,550.7656 1127.4894,550.6094 Q1128.1144,550.4531 1128.9425,550.0781 L1128.9425,552.2969 Q1128.2081,552.6094 1127.4113,552.7656 Q1126.63,552.9219 1125.8644,552.9219 Z " fill="#000000"/><text fill="#000000" font-family="sans-serif" font-size="14" lengthAdjust="spacing" textLength="148.1754" x="1146.8956" y="551.432">FigureCategoryService</text><line style="stroke:#181818;stroke-width:0.5;" x1="1035.5" x2="1373.9667" y1="562" y2="562"/><text fill="#000000" font-family="sans-serif" font-size="14" lengthAdjust="spacing" textLength="247.5891" x="1040.5" y="580.9659">-FigureCategoryRepository repository</text><text fill="#000000" font-family="sans-serif" font-size="14" lengthAdjust="spacing" textLength="181.0333" x="1040.5" y="600.0339">-AuthorizationService authz</text><line style="stroke:#181818;stroke-width:0.5;" x1="1035.5" x2="1373.9667" y1="608.1358" y2="608.1358"/><text fill="#000000" font-family="sans-serif" font-size="14" lengthAdjust="spacing" textLength="228.8711" x="1040.5" y="627.1018">+registerCategory(FigureCategory)</text><text fill="#000000" font-family="sans-serif" font-size="14" lengthAdjust="spacing" textLength="234.5971" x="1040.5" y="646.1697">+findAll(): Iterable~FigureCategory~</text><text fill="#000000" font-family="sans-serif" font-size="14" lengthAdjust="spacing" textLength="328.4667" x="1040.5" y="665.2376">+updateDescription(String name, String newDesc)</text><text fill="#000000" font-family="sans-serif" font-size="14" lengthAdjust="spacing" textLength="198.8412" x="1040.5" y="684.3055">+toggleCategory(String name)</text></g><!--class FigureCategoryRepository--><g id="elem_FigureCategoryRepository"><rect codeLine="43" fill="#F1F1F1" height="105.2038" id="FigureCategoryRepository" rx="2.5" ry="2.5" style="stroke:#181818;stroke-width:0.5;" width="330.8907" x="586" y="83.5"/><ellipse cx="661.2357" cy="99.5" fill="#ADD1B2" rx="11" ry="11" style="stroke:#181818;stroke-width:1.0;"/><path d="M660.7044,106.4219 Q658.9544,106.4219 657.8138,105.6875 Q656.6888,104.9375 656.1263,103.5938 Q655.5794,102.2344 655.5794,100.4375 Q655.5794,98.4063 656.2357,96.9531 Q656.8919,95.5 658.1732,94.7188 Q659.4544,93.9375 661.3294,93.9375 Q662.2201,93.9375 662.8919,94.125 Q663.5638,94.2969 664.2513,94.6406 L663.4388,96.6563 Q662.8138,96.3438 662.2669,96.2188 Q661.7357,96.0938 661.2513,96.0938 Q660.0794,96.0938 659.3763,96.625 Q658.6732,97.1563 658.3763,98.1094 Q658.0794,99.0625 658.0794,100.3281 Q658.0794,102.3438 658.7982,103.3125 Q659.5169,104.2656 661.1107,104.2656 Q661.7044,104.2656 662.3294,104.1094 Q662.9544,103.9531 663.7826,103.5781 L663.7826,105.7969 Q663.0482,106.1094 662.2513,106.2656 Q661.4701,106.4219 660.7044,106.4219 Z " fill="#000000"/><text fill="#000000" font-family="sans-serif" font-size="14" lengthAdjust="spacing" textLength="171.9194" x="681.7357" y="104.932">FigureCategoryRepository</text><line style="stroke:#181818;stroke-width:0.5;" x1="587" x2="915.8907" y1="115.5" y2="115.5"/><line style="stroke:#181818;stroke-width:0.5;" x1="587" x2="915.8907" y1="123.5" y2="123.5"/><text fill="#000000" font-family="sans-serif" font-size="14" lengthAdjust="spacing" textLength="147.4474" x="592" y="142.4659">+save(FigureCategory)</text><text fill="#000000" font-family="sans-serif" font-size="14" lengthAdjust="spacing" textLength="234.5971" x="592" y="161.5339">+findAll(): Iterable~FigureCategory~</text><text fill="#000000" font-family="sans-serif" font-size="14" lengthAdjust="spacing" textLength="318.8907" x="592" y="180.6018">+findByName(String): Optional~FigureCategory~</text></g><!--class JpaFigureCategoryRepository--><g id="elem_JpaFigureCategoryRepository"><rect codeLine="49" fill="#F1F1F1" height="105.2038" id="JpaFigureCategoryRepository" rx="2.5" ry="2.5" style="stroke:#181818;stroke-width:0.5;" width="224.2053" x="405.5" y="345"/><ellipse cx="420.5" cy="361" fill="#ADD1B2" rx="11" ry="11" style="stroke:#181818;stroke-width:1.0;"/><path d="M419.9688,367.9219 Q418.2188,367.9219 417.0781,367.1875 Q415.9531,366.4375 415.3906,365.0938 Q414.8438,363.7344 414.8438,361.9375 Q414.8438,359.9063 415.5,358.4531 Q416.1563,357 417.4375,356.2188 Q418.7188,355.4375 420.5938,355.4375 Q421.4844,355.4375 422.1563,355.625 Q422.8281,355.7969 423.5156,356.1406 L422.7031,358.1563 Q422.0781,357.8438 421.5313,357.7188 Q421,357.5938 420.5156,357.5938 Q419.3438,357.5938 418.6406,358.125 Q417.9375,358.6563 417.6406,359.6094 Q417.3438,360.5625 417.3438,361.8281 Q417.3438,363.8438 418.0625,364.8125 Q418.7813,365.7656 420.375,365.7656 Q420.9688,365.7656 421.5938,365.6094 Q422.2188,365.4531 423.0469,365.0781 L423.0469,367.2969 Q422.3125,367.6094 421.5156,367.7656 Q420.7344,367.9219 419.9688,367.9219 Z " fill="#000000"/><text fill="#000000" font-family="sans-serif" font-size="14" lengthAdjust="spacing" textLength="192.2053" x="434.5" y="366.432">JpaFigureCategoryRepository</text><line style="stroke:#181818;stroke-width:0.5;" x1="406.5" x2="628.7053" y1="377" y2="377"/><line style="stroke:#181818;stroke-width:0.5;" x1="406.5" x2="628.7053" y1="385" y2="385"/><text fill="#000000" font-family="sans-serif" font-size="14" lengthAdjust="spacing" textLength="147.4474" x="411.5" y="403.9659">+save(FigureCategory)</text><text fill="#000000" font-family="sans-serif" font-size="14" lengthAdjust="spacing" textLength="58.2678" x="411.5" y="423.0339">+findAll()</text><text fill="#000000" font-family="sans-serif" font-size="14" lengthAdjust="spacing" textLength="137.2135" x="411.5" y="442.1018">+findByName(String)</text></g><!--class InMemoryFigureCategoryRepository--><g id="elem_InMemoryFigureCategoryRepository"><rect codeLine="55" fill="#F1F1F1" height="105.2038" id="InMemoryFigureCategoryRepository" rx="2.5" ry="2.5" style="stroke:#181818;stroke-width:0.5;" width="272.3931" x="664.5" y="345"/><ellipse cx="679.5" cy="361" fill="#ADD1B2" rx="11" ry="11" style="stroke:#181818;stroke-width:1.0;"/><path d="M678.9688,367.9219 Q677.2188,367.9219 676.0781,367.1875 Q674.9531,366.4375 674.3906,365.0938 Q673.8438,363.7344 673.8438,361.9375 Q673.8438,359.9063 674.5,358.4531 Q675.1563,357 676.4375,356.2188 Q677.7188,355.4375 679.5938,355.4375 Q680.4844,355.4375 681.1563,355.625 Q681.8281,355.7969 682.5156,356.1406 L681.7031,358.1563 Q681.0781,357.8438 680.5313,357.7188 Q680,357.5938 679.5156,357.5938 Q678.3438,357.5938 677.6406,358.125 Q676.9375,358.6563 676.6406,359.6094 Q676.3438,360.5625 676.3438,361.8281 Q676.3438,363.8438 677.0625,364.8125 Q677.7813,365.7656 679.375,365.7656 Q679.9688,365.7656 680.5938,365.6094 Q681.2188,365.4531 682.0469,365.0781 L682.0469,367.2969 Q681.3125,367.6094 680.5156,367.7656 Q679.7344,367.9219 678.9688,367.9219 Z " fill="#000000"/><text fill="#000000" font-family="sans-serif" font-size="14" lengthAdjust="spacing" textLength="240.3931" x="693.5" y="366.432">InMemoryFigureCategoryRepository</text><line style="stroke:#181818;stroke-width:0.5;" x1="665.5" x2="935.8931" y1="377" y2="377"/><line style="stroke:#181818;stroke-width:0.5;" x1="665.5" x2="935.8931" y1="385" y2="385"/><text fill="#000000" font-family="sans-serif" font-size="14" lengthAdjust="spacing" textLength="147.4474" x="670.5" y="403.9659">+save(FigureCategory)</text><text fill="#000000" font-family="sans-serif" font-size="14" lengthAdjust="spacing" textLength="58.2678" x="670.5" y="423.0339">+findAll()</text><text fill="#000000" font-family="sans-serif" font-size="14" lengthAdjust="spacing" textLength="137.2135" x="670.5" y="442.1018">+findByName(String)</text></g><!--class AuthorizationService--><g id="elem_AuthorizationService"><rect codeLine="61" fill="#F1F1F1" height="67.0679" id="AuthorizationService" rx="2.5" ry="2.5" style="stroke:#181818;stroke-width:0.5;" width="338.1848" x="1035.5" y="753"/><ellipse cx="1132.2957" cy="769" fill="#ADD1B2" rx="11" ry="11" style="stroke:#181818;stroke-width:1.0;"/><path d="M1131.7644,775.9219 Q1130.0144,775.9219 1128.8738,775.1875 Q1127.7488,774.4375 1127.1863,773.0938 Q1126.6394,771.7344 1126.6394,769.9375 Q1126.6394,767.9063 1127.2957,766.4531 Q1127.9519,765 1129.2332,764.2188 Q1130.5144,763.4375 1132.3894,763.4375 Q1133.28,763.4375 1133.9519,763.625 Q1134.6238,763.7969 1135.3113,764.1406 L1134.4988,766.1563 Q1133.8738,765.8438 1133.3269,765.7188 Q1132.7957,765.5938 1132.3113,765.5938 Q1131.1394,765.5938 1130.4363,766.125 Q1129.7332,766.6563 1129.4363,767.6094 Q1129.1394,768.5625 1129.1394,769.8281 Q1129.1394,771.8438 1129.8582,772.8125 Q1130.5769,773.7656 1132.1707,773.7656 Q1132.7644,773.7656 1133.3894,773.6094 Q1134.0144,773.4531 1134.8425,773.0781 L1134.8425,775.2969 Q1134.1082,775.6094 1133.3113,775.7656 Q1132.53,775.9219 1131.7644,775.9219 Z " fill="#000000"/><text fill="#000000" font-family="sans-serif" font-size="14" lengthAdjust="spacing" textLength="136.0935" x="1152.7957" y="774.432">AuthorizationService</text><line style="stroke:#181818;stroke-width:0.5;" x1="1036.5" x2="1372.6848" y1="785" y2="785"/><line style="stroke:#181818;stroke-width:0.5;" x1="1036.5" x2="1372.6848" y1="793" y2="793"/><text fill="#000000" font-family="sans-serif" font-size="14" lengthAdjust="spacing" textLength="326.1848" x="1041.5" y="811.9659">+ensureAuthenticatedUserHasAnyOf(String roles)</text></g><!--class AddFigureCategoryUI--><g id="elem_AddFigureCategoryUI"><rect codeLine="65" fill="#F1F1F1" height="86.1358" id="AddFigureCategoryUI" rx="2.5" ry="2.5" style="stroke:#181818;stroke-width:0.5;" width="251.8471" x="1387.5" y="93"/><ellipse cx="1437.8648" cy="109" fill="#ADD1B2" rx="11" ry="11" style="stroke:#181818;stroke-width:1.0;"/><path d="M1437.3336,115.9219 Q1435.5836,115.9219 1434.4429,115.1875 Q1433.3179,114.4375 1432.7554,113.0938 Q1432.2086,111.7344 1432.2086,109.9375 Q1432.2086,107.9063 1432.8648,106.4531 Q1433.5211,105 1434.8023,104.2188 Q1436.0836,103.4375 1437.9586,103.4375 Q1438.8492,103.4375 1439.5211,103.625 Q1440.1929,103.7969 1440.8804,104.1406 L1440.0679,106.1563 Q1439.4429,105.8438 1438.8961,105.7188 Q1438.3648,105.5938 1437.8804,105.5938 Q1436.7086,105.5938 1436.0054,106.125 Q1435.3023,106.6563 1435.0054,107.6094 Q1434.7086,108.5625 1434.7086,109.8281 Q1434.7086,111.8438 1435.4273,112.8125 Q1436.1461,113.7656 1437.7398,113.7656 Q1438.3336,113.7656 1438.9586,113.6094 Q1439.5836,113.4531 1440.4117,113.0781 L1440.4117,115.2969 Q1439.6773,115.6094 1438.8804,115.7656 Q1438.0992,115.9219 1437.3336,115.9219 Z " fill="#000000"/><text fill="#000000" font-family="sans-serif" font-size="14" lengthAdjust="spacing" textLength="142.6175" x="1458.3648" y="114.432">AddFigureCategoryUI</text><line style="stroke:#181818;stroke-width:0.5;" x1="1388.5" x2="1638.3471" y1="125" y2="125"/><text fill="#000000" font-family="sans-serif" font-size="14" lengthAdjust="spacing" textLength="239.8471" x="1393.5" y="143.9659">-FigureCategoryController controller</text><line style="stroke:#181818;stroke-width:0.5;" x1="1388.5" x2="1638.3471" y1="152.0679" y2="152.0679"/><text fill="#000000" font-family="sans-serif" font-size="14" lengthAdjust="spacing" textLength="130.2555" x="1393.5" y="171.0339">+doShow(): boolean</text></g><!--class EditFigureCategoryUI--><g id="elem_EditFigureCategoryUI"><rect codeLine="69" fill="#F1F1F1" height="86.1358" id="EditFigureCategoryUI" rx="2.5" ry="2.5" style="stroke:#181818;stroke-width:0.5;" width="251.8471" x="1674.5" y="93"/><ellipse cx="1725.4178" cy="109" fill="#ADD1B2" rx="11" ry="11" style="stroke:#181818;stroke-width:1.0;"/><path d="M1724.8866,115.9219 Q1723.1366,115.9219 1721.9959,115.1875 Q1720.8709,114.4375 1720.3084,113.0938 Q1719.7616,111.7344 1719.7616,109.9375 Q1719.7616,107.9063 1720.4178,106.4531 Q1721.0741,105 1722.3553,104.2188 Q1723.6366,103.4375 1725.5116,103.4375 Q1726.4022,103.4375 1727.0741,103.625 Q1727.7459,103.7969 1728.4334,104.1406 L1727.6209,106.1563 Q1726.9959,105.8438 1726.4491,105.7188 Q1725.9178,105.5938 1725.4334,105.5938 Q1724.2616,105.5938 1723.5584,106.125 Q1722.8553,106.6563 1722.5584,107.6094 Q1722.2616,108.5625 1722.2616,109.8281 Q1722.2616,111.8438 1722.9803,112.8125 Q1723.6991,113.7656 1725.2928,113.7656 Q1725.8866,113.7656 1726.5116,113.6094 Q1727.1366,113.4531 1727.9647,113.0781 L1727.9647,115.2969 Q1727.2303,115.6094 1726.4334,115.7656 Q1725.6522,115.9219 1724.8866,115.9219 Z " fill="#000000"/><text fill="#000000" font-family="sans-serif" font-size="14" lengthAdjust="spacing" textLength="141.5115" x="1745.9178" y="114.432">EditFigureCategoryUI</text><line style="stroke:#181818;stroke-width:0.5;" x1="1675.5" x2="1925.3471" y1="125" y2="125"/><text fill="#000000" font-family="sans-serif" font-size="14" lengthAdjust="spacing" textLength="239.8471" x="1680.5" y="143.9659">-FigureCategoryController controller</text><line style="stroke:#181818;stroke-width:0.5;" x1="1675.5" x2="1925.3471" y1="152.0679" y2="152.0679"/><text fill="#000000" font-family="sans-serif" font-size="14" lengthAdjust="spacing" textLength="130.2555" x="1680.5" y="171.0339">+doShow(): boolean</text></g><!--class ActivateDeactivateFigureCategoryStatusUI--><g id="elem_ActivateDeactivateFigureCategoryStatusUI"><rect codeLine="73" fill="#F1F1F1" height="86.1358" id="ActivateDeactivateFigureCategoryStatusUI" rx="2.5" ry="2.5" style="stroke:#181818;stroke-width:0.5;" width="310.9769" x="1962" y="93"/><ellipse cx="1977" cy="109" fill="#ADD1B2" rx="11" ry="11" style="stroke:#181818;stroke-width:1.0;"/><path d="M1976.4688,115.9219 Q1974.7188,115.9219 1973.5781,115.1875 Q1972.4531,114.4375 1971.8906,113.0938 Q1971.3438,111.7344 1971.3438,109.9375 Q1971.3438,107.9063 1972,106.4531 Q1972.6563,105 1973.9375,104.2188 Q1975.2188,103.4375 1977.0938,103.4375 Q1977.9844,103.4375 1978.6563,103.625 Q1979.3281,103.7969 1980.0156,104.1406 L1979.2031,106.1563 Q1978.5781,105.8438 1978.0313,105.7188 Q1977.5,105.5938 1977.0156,105.5938 Q1975.8438,105.5938 1975.1406,106.125 Q1974.4375,106.6563 1974.1406,107.6094 Q1973.8438,108.5625 1973.8438,109.8281 Q1973.8438,111.8438 1974.5625,112.8125 Q1975.2813,113.7656 1976.875,113.7656 Q1977.4688,113.7656 1978.0938,113.6094 Q1978.7188,113.4531 1979.5469,113.0781 L1979.5469,115.2969 Q1978.8125,115.6094 1978.0156,115.7656 Q1977.2344,115.9219 1976.4688,115.9219 Z " fill="#000000"/><text fill="#000000" font-family="sans-serif" font-size="14" lengthAdjust="spacing" textLength="278.9769" x="1991" y="114.432">ActivateDeactivateFigureCategoryStatusUI</text><line style="stroke:#181818;stroke-width:0.5;" x1="1963" x2="2271.9769" y1="125" y2="125"/><text fill="#000000" font-family="sans-serif" font-size="14" lengthAdjust="spacing" textLength="239.8471" x="1968" y="143.9659">-FigureCategoryController controller</text><line style="stroke:#181818;stroke-width:0.5;" x1="1963" x2="2271.9769" y1="152.0679" y2="152.0679"/><text fill="#000000" font-family="sans-serif" font-size="14" lengthAdjust="spacing" textLength="130.2555" x="1968" y="171.0339">+doShow(): boolean</text></g><!--class ListFigureCategoriesUI--><g id="elem_ListFigureCategoriesUI"><rect codeLine="77" fill="#F1F1F1" height="86.1358" id="ListFigureCategoriesUI" rx="2.5" ry="2.5" style="stroke:#181818;stroke-width:0.5;" width="251.8471" x="2308.5" y="93"/><ellipse cx="2355.0568" cy="109" fill="#ADD1B2" rx="11" ry="11" style="stroke:#181818;stroke-width:1.0;"/><path d="M2354.5256,115.9219 Q2352.7756,115.9219 2351.6349,115.1875 Q2350.5099,114.4375 2349.9474,113.0938 Q2349.4006,111.7344 2349.4006,109.9375 Q2349.4006,107.9063 2350.0568,106.4531 Q2350.7131,105 2351.9943,104.2188 Q2353.2756,103.4375 2355.1506,103.4375 Q2356.0412,103.4375 2356.7131,103.625 Q2357.3849,103.7969 2358.0724,104.1406 L2357.2599,106.1563 Q2356.6349,105.8438 2356.0881,105.7188 Q2355.5568,105.5938 2355.0724,105.5938 Q2353.9006,105.5938 2353.1974,106.125 Q2352.4943,106.6563 2352.1974,107.6094 Q2351.9006,108.5625 2351.9006,109.8281 Q2351.9006,111.8438 2352.6193,112.8125 Q2353.3381,113.7656 2354.9318,113.7656 Q2355.5256,113.7656 2356.1506,113.6094 Q2356.7756,113.4531 2357.6037,113.0781 L2357.6037,115.2969 Q2356.8693,115.6094 2356.0724,115.7656 Q2355.2912,115.9219 2354.5256,115.9219 Z " fill="#000000"/><text fill="#000000" font-family="sans-serif" font-size="14" lengthAdjust="spacing" textLength="150.2334" x="2375.5568" y="114.432">ListFigureCategoriesUI</text><line style="stroke:#181818;stroke-width:0.5;" x1="2309.5" x2="2559.3471" y1="125" y2="125"/><text fill="#000000" font-family="sans-serif" font-size="14" lengthAdjust="spacing" textLength="239.8471" x="2314.5" y="143.9659">-FigureCategoryController controller</text><line style="stroke:#181818;stroke-width:0.5;" x1="2309.5" x2="2559.3471" y1="152.0679" y2="152.0679"/><text fill="#000000" font-family="sans-serif" font-size="14" lengthAdjust="spacing" textLength="130.2555" x="2314.5" y="171.0339">+doShow(): boolean</text></g><!--link FigureCategory to FigureCategoryService--><g id="link_FigureCategory_FigureCategoryService"><path codeLine="82" d="M1204.5,265 C1204.5,349.4 1204.5,451.35 1204.5,523.82 " fill="none" id="FigureCategory-to-FigureCategoryService" style="stroke:#181818;stroke-width:1.0;"/><polygon fill="#181818" points="1204.5,529.82,1208.5,520.82,1204.5,524.82,1200.5,520.82,1204.5,529.82" style="stroke:#181818;stroke-width:1.0;"/></g><!--link FigureCategory to FigureCategoryController--><g id="link_FigureCategory_FigureCategoryController"><path codeLine="83" d="M1352.77,252.02 C1363.08,260.02 1369.5,265 1369.5,265 C1369.5,265 1430.0793,292.2759 1499.3493,323.4759 " fill="none" id="FigureCategory-to-FigureCategoryController" style="stroke:#181818;stroke-width:1.0;"/><polygon fill="#181818" points="1504.82,325.94,1498.2567,318.5968,1500.2611,323.8866,1494.9713,325.891,1504.82,325.94" style="stroke:#181818;stroke-width:1.0;"/></g><!--link Repositories to FigureCategoryRepository--><g id="link_Repositories_FigureCategoryRepository"><path codeLine="84" d="M384.12,136 C449.47,136 516.19,136 579.58,136 " fill="none" id="Repositories-to-FigureCategoryRepository" style="stroke:#181818;stroke-width:1.0;"/><polygon fill="#181818" points="585.58,136,576.58,132,580.58,136,576.58,140,585.58,136" style="stroke:#181818;stroke-width:1.0;"/><text fill="#000000" font-family="sans-serif" font-size="13" lengthAdjust="spacing" textLength="165.1651" x="402.5" y="128.897">figureCategoryRepository()</text><text fill="#000000" font-family="sans-serif" font-size="13" lengthAdjust="spacing" textLength="7.436" x="392.2303" y="132.549">1</text><text fill="#000000" font-family="sans-serif" font-size="13" lengthAdjust="spacing" textLength="7.436" x="570.3869" y="132.4975">1</text></g><!--link FigureCategoryRepository to FigureCategory--><g id="link_FigureCategoryRepository_FigureCategory"><path codeLine="85" d="M917.29,136 C962.76,136 1005.76,136 1050.18,136 " fill="none" id="FigureCategoryRepository-to-FigureCategory" style="stroke:#181818;stroke-width:1.0;"/><polygon fill="#181818" points="1056.18,136,1047.18,132,1051.18,136,1047.18,140,1056.18,136" style="stroke:#181818;stroke-width:1.0;"/><text fill="#000000" font-family="sans-serif" font-size="13" lengthAdjust="spacing" textLength="103.6361" x="935.25" y="128.897">figure categories</text><text fill="#000000" font-family="sans-serif" font-size="13" lengthAdjust="spacing" textLength="7.436" x="924.9733" y="132.5232">1</text><text fill="#000000" font-family="sans-serif" font-size="13" lengthAdjust="spacing" textLength="7.163" x="1041.3472" y="132.4835">*</text></g><!--link FigureCategoryService to FigureCategoryRepository--><g id="link_FigureCategoryService_FigureCategoryRepository"><path codeLine="86" d="M1133.58,529.76 C1059.36,445.77 953.5,326 953.5,326 C953.5,326 870.8917,248.6989 811.0817,192.7489 " fill="none" id="FigureCategoryService-to-FigureCategoryRepository" style="stroke:#181818;stroke-width:1.0;"/><polygon fill="#181818" points="806.7,188.65,810.5399,197.7195,810.3514,192.0657,816.0051,191.8772,806.7,188.65" style="stroke:#181818;stroke-width:1.0;"/></g><!--link FigureCategoryService to AuthorizationService--><g id="link_FigureCategoryService_AuthorizationService"><path codeLine="87" d="M1204.5,692.15 C1204.5,713.63 1204.5,729.67 1204.5,746.92 " fill="none" id="FigureCategoryService-to-AuthorizationService" style="stroke:#181818;stroke-width:1.0;"/><polygon fill="#181818" points="1204.5,752.92,1208.5,743.92,1204.5,747.92,1200.5,743.92,1204.5,752.92" style="stroke:#181818;stroke-width:1.0;"/></g><!--link FigureCategoryController to FigureCategoryService--><g id="link_FigureCategoryController_FigureCategoryService"><path codeLine="89" d="M1509.01,469.07 C1465.92,489.01 1424.2052,508.3201 1380.1452,528.7101 " fill="none" id="FigureCategoryController-to-FigureCategoryService" style="stroke:#181818;stroke-width:1.0;"/><polygon fill="#181818" points="1374.7,531.23,1384.5477,531.0803,1379.2377,529.1301,1381.1878,523.82,1374.7,531.23" style="stroke:#181818;stroke-width:1.0;"/></g><!--reverse link FigureCategoryRepository to JpaFigureCategoryRepository--><g id="link_FigureCategoryRepository_JpaFigureCategoryRepository"><path codeLine="91" d="M692.9351,201.9471 C652.1451,247.1771 605.2,299.24 564.32,344.57 " fill="none" id="FigureCategoryRepository-backto-JpaFigureCategoryRepository" style="stroke:#181818;stroke-width:1.0;stroke-dasharray:7.0,7.0;"/><polygon fill="none" points="704.99,188.58,688.4794,197.9288,697.3908,205.9654,704.99,188.58" style="stroke:#181818;stroke-width:1.0;"/></g><!--reverse link FigureCategoryRepository to InMemoryFigureCategoryRepository--><g id="link_FigureCategoryRepository_InMemoryFigureCategoryRepository"><path codeLine="92" d="M764.5796,206.2675 C773.1196,251.4975 782.14,299.24 790.7,344.57 " fill="none" id="FigureCategoryRepository-backto-InMemoryFigureCategoryRepository" style="stroke:#181818;stroke-width:1.0;stroke-dasharray:7.0,7.0;"/><polygon fill="none" points="761.24,188.58,758.6838,207.3807,770.4754,205.1543,761.24,188.58" style="stroke:#181818;stroke-width:1.0;"/></g><!--link AddFigureCategoryUI to FigureCategoryController--><g id="link_AddFigureCategoryUI_FigureCategoryController"><path codeLine="94" d="M1537.61,179.27 C1560.22,218.91 1591.477,273.7284 1618.237,320.6384 " fill="none" id="AddFigureCategoryUI-to-FigureCategoryController" style="stroke:#181818;stroke-width:1.0;"/><polygon fill="#181818" points="1621.21,325.85,1620.2249,316.0505,1618.7325,321.507,1613.2761,320.0145,1621.21,325.85" style="stroke:#181818;stroke-width:1.0;"/></g><!--link EditFigureCategoryUI to FigureCategoryController--><g id="link_EditFigureCategoryUI_FigureCategoryController"><path codeLine="95" d="M1777.86,179.27 C1756.63,218.91 1727.3033,273.6511 1702.1733,320.5611 " fill="none" id="EditFigureCategoryUI-to-FigureCategoryController" style="stroke:#181818;stroke-width:1.0;"/><polygon fill="#181818" points="1699.34,325.85,1707.1159,319.8055,1701.7011,321.4426,1700.064,316.0278,1699.34,325.85" style="stroke:#181818;stroke-width:1.0;"/></g><!--link ListFigureCategoriesUI to FigureCategoryController--><g id="link_ListFigureCategoriesUI_FigureCategoryController"><path codeLine="96" d="M2386.95,179.27 C2345.01,216.55 2290.5,265 2290.5,265 C2290.5,265 2061.303,312.9119 1878.573,351.1219 " fill="none" id="ListFigureCategoriesUI-to-FigureCategoryController" style="stroke:#181818;stroke-width:1.0;"/><polygon fill="#181818" points="1872.7,352.35,1882.3282,354.4232,1877.5941,351.3266,1880.6907,346.5926,1872.7,352.35" style="stroke:#181818;stroke-width:1.0;"/></g><!--link ActivateDeactivateFigureCategoryStatusUI to FigureCategoryController--><g id="link_ActivateDeactivateFigureCategoryStatusUI_FigureCategoryController"><path codeLine="97" d="M2060.04,179.27 C2009.36,216.55 1943.5,265 1943.5,265 C1943.5,265 1885.1577,292.204 1818.2577,323.404 " fill="none" id="ActivateDeactivateFigureCategoryStatusUI-to-FigureCategoryController" style="stroke:#181818;stroke-width:1.0;"/><polygon fill="#181818" points="1812.82,325.94,1822.6672,325.7612,1817.3514,323.8267,1819.2859,318.5109,1812.82,325.94" style="stroke:#181818;stroke-width:1.0;"/></g><!--SRC=[nLPHRzem47xdLrWyqNLKssjL8QMmQKpTAetr1nZd25QD7TccA6pjRzyvG6879p2ftV90Y7rtttUVxounZrpcLDCLoIbxf1dCR260Q62Moan0prG6PabJjU4o8migZByZk0HRv41o9GhtuEqnGOr9hDLylhOmPKhE-1R8XrwFu5NkaX-GAyEjqXmC-LLkkElINnzSrEiBdgqrZAc5JEcYiYe65zVaSyjUxPs1dKg3wJ5m3Zv8QVJiKml3ZPMqMWa1sgCv36rce9yu0s9szngNfcbeEPYXAYYdf2juJ_OFAHYcUMwvabx6a79xS9lK5j484ZQJQ12hCZpH6Bfd9BYnYH1EcQa5JUS2RaBQerCg-Tfu84UBNghrtbmf0LGIRX9c-PFdTQSO5HF4-CbNG9W6wZpTGfiDShEVKBccsUKwJ_4v9cIRTjIHGH-_35E8hV8KfEMsBCPTL6zldvJRsoVgXwlfXBuTMX-ghRKSwmx0fZvgXc6ojaii_MsfvI4OnSLjJKn3XaK1kggS425eJ9asYkSbD7uvvn0YrVmNPToXbYU6DsOCnHDvdPoSyMtn7RdiUQ7NVPaS5L6lWEpNdBuYtovMnzXJ-GrM6Ec_4OXMeWSAqY2UitBznH0tVS0P-uMQH1RtYqCTu7W64mlVdBuFq_QcyUOyg_vwdQfcIxLfDl6pX-QcpZ-4I_PpQ59DfCQKiDIkpPjIkCCH4OJ4r-aR09QtnkjcE1p5f-9vnkCGFlWOwN_i3qVuqpv7hadxrqW4t_DqOP5C_rqpUXMJi4hAIAX3ZnndrFZgQNUBzLnCOk-msiNkplRczzLLru0xm_lKYDenY3NwoKEFzkj9hvQQF-btThjsHle3]--></g></svg>